<svg version="1.1" viewBox="0.0 0.0 608.0 376.0" fill="none" stroke="none" stroke-linecap="square" stroke-miterlimit="10" width="608" height="376" xmlns:xlink="http://www.w3.org/1999/xlink" xmlns="http://www.w3.org/2000/svg"><path fill="#ffffff" d="M0 0L608.0 0L608.0 376.0L0 376.0L0 0Z" fill-rule="nonzero"/><path stroke="#333333" stroke-width="1.0" stroke-linecap="butt" d="M77.5 318.5L589.5 318.5" fill-rule="nonzero"/><path stroke="#cccccc" stroke-width="1.0" stroke-linecap="butt" d="M77.5 232.5L589.5 232.5" fill-rule="nonzero"/><path stroke="#cccccc" stroke-width="1.0" stroke-linecap="butt" d="M77.5 147.5L589.5 147.5" fill-rule="nonzero"/><path stroke="#cccccc" stroke-width="1.0" stroke-linecap="butt" d="M77.5 62.5L589.5 62.5" fill-rule="nonzero"/><path stroke="#000000" stroke-width="1.0" stroke-linecap="butt" d="M77.5 318.5L77.5 62.5" fill-rule="nonzero"/><clipPath id="id_0"><path d="M77.8 62.333332L589.2 62.333332L589.2 318.2L77.8 318.2L77.8 62.333332Z" clip-rule="nonzero"/></clipPath><path stroke="#4285f4" stroke-width="2.0" stroke-linecap="butt" clip-path="url(#id_0)" d="M80.33168 318.2C80.33168 318.2 83.70726 309.1189 85.39505 303.299C87.08284 297.4791 88.77063 290.5449 90.45841 283.2806C92.1462 276.01633 93.83399 267.9062 95.52178 259.71332C97.20957 251.52043 98.89736 242.75372 100.58515 234.12326C102.272934 225.49281 103.960724 216.55132 105.64851 207.93057C107.3363 199.30983 109.02409 190.6209 110.71188 182.3988C112.39967 174.17671 114.087456 166.1009 115.775246 158.59802C117.463036 151.09512 119.150826 143.91864 120.838615 137.38144C122.526405 130.84425 124.21419 124.775475 125.90198 119.37486C127.58977 113.97425 129.27756 109.14449 130.96535 104.977776C132.65314 100.811066 134.34093 97.278534 136.02872 94.37458C137.7165 91.470634 139.4043 89.2273 141.09209 87.55409C142.77986 85.88089 144.46765 84.8614 146.15544 84.33535C147.84323 83.8093 149.53102 83.90138 151.21881 84.397804C152.9066 84.89422 154.59439 85.94981 156.28218 87.31387C157.96997 88.67793 159.65776 90.52452 161.34555 92.58217C163.03334 94.63982 164.72112 97.09143 166.4089 99.659744C168.0967 102.22806 169.78448 105.09541 171.47227 107.992035C173.16006 110.88866 174.84785 113.98816 176.53564 117.03948C178.22343 120.09081 179.91122 123.252106 181.59901 126.3C183.2868 129.3479 184.9746 132.41989 186.66237 135.32684C188.35016 138.2338 190.03795 141.08902 191.72574 143.7417C193.41353 146.39436 195.10132 148.93164 196.78911 151.24289C198.4769 153.55414 200.16469 155.69977 201.85248 157.60918C203.54027 159.51857 205.22806 161.22615 206.91585 162.69931C208.60364 164.17247 210.29141 165.4214 211.9792 166.4481C213.66699 167.47481 215.35478 168.26794 217.04257 168.85951C218.73036 169.45108 220.41815 169.81152 222.10594 169.99751C223.79373 170.1835 225.48152 170.15094 227.16931 169.97543C228.8571 169.79993 230.54489 169.42671 232.23267 168.94444C233.92046 168.46217 235.60825 167.80931 237.29604 167.08182C238.98383 166.35434 240.67162 165.48755 242.3594 164.57951C244.0472 163.67148 245.73499 162.65771 247.42278 161.6336C249.11057 160.6095 250.79836 159.51366 252.48615 158.43486C254.17393 157.35605 255.86171 156.23836 257.5495 155.16077C259.2373 154.08318 260.92508 152.99706 262.61288 151.9693C264.30066 150.94153 265.98843 149.93205 267.67624 148.9942C269.364 148.05634 271.05182 147.15927 272.7396 146.34212C274.4274 145.52498 276.11517 144.76637 277.80298 144.09131C279.49075 143.41623 281.17856 142.8125 282.86633 142.29167C284.55414 141.77083 286.2419 141.32925 287.92972 140.96626C289.6175 140.60327 291.30527 140.32286 292.99307 140.11371C294.68085 139.90456 296.36865 139.77711 298.05643 139.71136C299.74423 139.64561 301.432 139.65712 303.1198 139.71918C304.8076 139.78122 306.4954 139.91318 308.18317 140.08368C309.87097 140.25418 311.55875 140.48502 313.24652 140.74222C314.93433 140.99942 316.6221 141.30588 318.3099 141.6269C319.99768 141.94795 321.6855 142.30637 323.37326 142.66844C325.06107 143.03053 326.74884 143.41797 328.43665 143.79938C330.12442 144.1808 331.81223 144.57596 333.5 144.95694C335.18777 145.33794 336.87558 145.72194 338.56335 146.0853C340.25116 146.44867 341.93893 146.80557 343.62674 147.13716C345.3145 147.46873 347.00232 147.7859 348.6901 148.0748C350.3779 148.36371 352.06567 148.63191 353.75348 148.87059C355.44125 149.10927 357.12903 149.32271 358.81683 149.50685C360.5046 149.69101 362.1924 149.84712 363.8802 149.97546C365.568 150.10379 367.25577 150.20294 368.94357 150.27689C370.63135 150.35083 372.31915 150.39589 374.00693 150.41913C375.69473 150.44238 377.3825 150.43831 379.07028 150.41637C380.7581 150.39444 382.44586 150.34778 384.13367 150.2875C385.82144 150.22722 387.50925 150.14561 389.19702 150.05467C390.88483 149.96373 392.5726 149.8554 394.2604 149.74188C395.94818 149.62839 397.636 149.50166 399.32376 149.37364C401.01157 149.24564 402.69934 149.10866 404.38712 148.9738C406.07492 148.83894 407.7627 148.69923 409.4505 148.56454C411.13828 148.42984 412.82608 148.29408 414.51385 148.1656C416.20166 148.03714 417.88943 147.91095 419.57724 147.79372C421.265 147.67648 422.95282 147.56435 424.6406 147.4622C426.32837 147.36006 428.01617 147.26524 429.70395 147.18086C431.39175 147.09647 433.07953 147.02101 434.76733 146.9559C436.4551 146.8908 438.1429 146.8356 439.8307 146.79022C441.5185 146.74486 443.20627 146.70981 444.89407 146.68365C446.58185 146.65752 448.26962 146.64159 449.95743 146.63336C451.6452 146.62515 453.333 146.62659 455.02078 146.63434C456.7086 146.64209 458.39636 146.65858 460.08417 146.6799C461.77194 146.70122 463.45975 146.73007 465.14752 146.76222C466.83533 146.79437 468.5231 146.83267 470.21088 146.8728C471.89868 146.91293 473.58646 146.95775 475.27426 147.003C476.96204 147.04826 478.64984 147.0967 480.33762 147.14436C482.02542 147.19205 483.7132 147.24144 485.401 147.28906C487.08878 147.33669 488.77658 147.38469 490.46436 147.4301C492.15213 147.47552 493.83994 147.52014 495.5277 147.56158C497.2155 147.60304 498.9033 147.64268 500.5911 147.6788C502.27887 147.7149 503.96667 147.74843 505.65445 147.77827C507.34225 147.8081 509.03003 147.83478 510.71783 147.8578C512.40564 147.88081 514.0934 147.90033 515.7812 147.91638C517.469 147.93242 519.15674 147.94481 520.84454 147.95406C522.53235 147.9633 524.22015 147.96893 525.9079 147.97183C527.5957 147.97475 529.2835 147.97423 530.9713 147.9715C532.65906 147.96875 534.34686 147.96292 536.03467 147.95538C537.7224 147.94785 539.4102 147.93765 541.098 147.92628C542.7858 147.91492 544.4736 147.90137 546.1614 147.88718C547.8492 147.87299 549.537 147.85715 551.22473 147.84116C552.91254 147.82515 554.60034 147.80803 556.28815 147.79117C557.9759 147.7743 559.6637 147.75685 561.3515 147.74C563.03925 147.72318 564.72705 147.7062 566.41486 147.69014C568.10266 147.67409 569.7904 147.65831 571.4782 147.64366C573.166 147.629 574.8538 147.61499 576.54156 147.60222C578.2294 147.58945 579.9172 147.56372 581.605 147.56705C583.2927 147.57039 586.66833 147.62222 586.66833 147.62222" fill-rule="nonzero"/><path fill="#000000" fill-opacity="0.0" clip-path="url(#id_0)" d="M83.33168 318.2C83.33168 319.85684 81.98854 321.2 80.33168 321.2C78.67483 321.2 77.33168 319.85684 77.33168 318.2C77.33168 316.54315 78.67483 315.2 80.33168 315.2C81.98854 315.2 83.33168 316.54315 83.33168 318.2Z" fill-rule="nonzero"/><path fill="#000000" fill-opacity="0.0" clip-path="url(#id_0)" d="M88.39505 303.299C88.39505 304.95587 87.0519 306.299 85.39505 306.299C83.7382 306.299 82.39505 304.95587 82.39505 303.299C82.39505 301.64215 83.7382 300.299 85.39505 300.299C87.0519 300.299 88.39505 301.64215 88.39505 303.299Z" fill-rule="nonzero"/><path fill="#000000" fill-opacity="0.0" clip-path="url(#id_0)" d="M93.45841 283.2806C93.45841 284.93744 92.11527 286.2806 90.45841 286.2806C88.80156 286.2806 87.45841 284.93744 87.45841 283.2806C87.45841 281.62375 88.80156 280.2806 90.45841 280.2806C92.11527 280.2806 93.45841 281.62375 93.45841 283.2806Z" fill-rule="nonzero"/><path fill="#000000" fill-opacity="0.0" clip-path="url(#id_0)" d="M98.52178 259.71332C98.52178 261.37018 97.178635 262.71332 95.52178 262.71332C93.86493 262.71332 92.52178 261.37018 92.52178 259.71332C92.52178 258.05646 93.86493 256.71332 95.52178 256.71332C97.178635 256.71332 98.52178 258.05646 98.52178 259.71332Z" fill-rule="nonzero"/><path fill="#000000" fill-opacity="0.0" clip-path="url(#id_0)" d="M103.58515 234.12326C103.58515 235.78012 102.242004 237.12326 100.58515 237.12326C98.92829 237.12326 97.58515 235.78012 97.58515 234.12326C97.58515 232.46642 98.92829 231.12326 100.58515 231.12326C102.242004 231.12326 103.58515 232.46642 103.58515 234.12326Z" fill-rule="nonzero"/><path fill="#000000" fill-opacity="0.0" clip-path="url(#id_0)" d="M108.64851 207.93057C108.64851 209.58743 107.30537 210.93057 105.64851 210.93057C103.99166 210.93057 102.64851 209.58743 102.64851 207.93057C102.64851 206.27371 103.99166 204.93057 105.64851 204.93057C107.30537 204.93057 108.64851 206.27371 108.64851 207.93057Z" fill-rule="nonzero"/><path fill="#000000" fill-opacity="0.0" clip-path="url(#id_0)" d="M113.71188 182.3988C113.71188 184.05565 112.36874 185.3988 110.71188 185.3988C109.05502 185.3988 107.71188 184.05565 107.71188 182.3988C107.71188 180.74194 109.05502 179.3988 110.71188 179.3988C112.36874 179.3988 113.71188 180.74194 113.71188 182.3988Z" fill-rule="nonzero"/><path fill="#000000" fill-opacity="0.0" clip-path="url(#id_0)" d="M118.775246 158.59802C118.775246 160.25487 117.4321 161.59802 115.775246 161.59802C114.11839 161.59802 112.775246 160.25487 112.775246 158.59802C112.775246 156.94116 114.11839 155.59802 115.775246 155.59802C117.4321 155.59802 118.775246 156.94116 118.775246 158.59802Z" fill-rule="nonzero"/><path fill="#000000" fill-opacity="0.0" clip-path="url(#id_0)" d="M123.838615 137.38144C123.838615 139.0383 122.49547 140.38144 120.838615 140.38144C119.18176 140.38144 117.838615 139.0383 117.838615 137.38144C117.838615 135.7246 119.18176 134.38144 120.838615 134.38144C122.49547 134.38144 123.838615 135.7246 123.838615 137.38144Z" fill-rule="nonzero"/><path fill="#000000" fill-opacity="0.0" clip-path="url(#id_0)" d="M128.90198 119.37486C128.90198 121.03172 127.55884 122.37486 125.90198 122.37486C124.245125 122.37486 122.90198 121.03172 122.90198 119.37486C122.90198 117.71801 124.245125 116.37486 125.90198 116.37486C127.55884 116.37486 128.90198 117.71801 128.90198 119.37486Z" fill-rule="nonzero"/><path fill="#000000" fill-opacity="0.0" clip-path="url(#id_0)" d="M133.96535 104.977776C133.96535 106.63463 132.62221 107.977776 130.96535 107.977776C129.30849 107.977776 127.96535 106.63463 127.96535 104.977776C127.96535 103.32092 129.30849 101.977776 130.96535 101.977776C132.62221 101.977776 133.96535 103.32092 133.96535 104.977776Z" fill-rule="nonzero"/><path fill="#000000" fill-opacity="0.0" clip-path="url(#id_0)" d="M139.02872 94.37458C139.02872 96.03144 137.68556 97.37458 136.02872 97.37458C134.37186 97.37458 133.02872 96.03144 133.02872 94.37458C133.02872 92.71773 134.37186 91.37458 136.02872 91.37458C137.68556 91.37458 139.02872 92.71773 139.02872 94.37458Z" fill-rule="nonzero"/><path fill="#000000" fill-opacity="0.0" clip-path="url(#id_0)" d="M144.09209 87.55409C144.09209 89.210945 142.74893 90.55409 141.09209 90.55409C139.43523 90.55409 138.09209 89.210945 138.09209 87.55409C138.09209 85.89724 139.43523 84.55409 141.09209 84.55409C142.74893 84.55409 144.09209 85.89724 144.09209 87.55409Z" fill-rule="nonzero"/><path fill="#000000" fill-opacity="0.0" clip-path="url(#id_0)" d="M149.15544 84.33535C149.15544 85.9922 147.8123 87.33535 146.15544 87.33535C144.4986 87.33535 143.15544 85.9922 143.15544 84.33535C143.15544 82.6785 144.4986 81.33535 146.15544 81.33535C147.8123 81.33535 149.15544 82.6785 149.15544 84.33535Z" fill-rule="nonzero"/><path fill="#000000" fill-opacity="0.0" clip-path="url(#id_0)" d="M154.21881 84.397804C154.21881 86.05466 152.87567 87.397804 151.21881 87.397804C149.56195 87.397804 148.21881 86.05466 148.21881 84.397804C148.21881 82.74095 149.56195 81.397804 151.21881 81.397804C152.87567 81.397804 154.21881 82.74095 154.21881 84.397804Z" fill-rule="nonzero"/><path fill="#000000" fill-opacity="0.0" clip-path="url(#id_0)" d="M159.28218 87.31387C159.28218 88.970726 157.93903 90.31387 156.28218 90.31387C154.62532 90.31387 153.28218 88.970726 153.28218 87.31387C153.28218 85.65701 154.62532 84.31387 156.28218 84.31387C157.93903 84.31387 159.28218 85.65701 159.28218 87.31387Z" fill-rule="nonzero"/><path fill="#000000" fill-opacity="0.0" clip-path="url(#id_0)" d="M164.34555 92.58217C164.34555 94.23902 163.0024 95.58217 161.34555 95.58217C159.68869 95.58217 158.34555 94.23902 158.34555 92.58217C158.34555 90.925316 159.68869 89.58217 161.34555 89.58217C163.0024 89.58217 164.34555 90.925316 164.34555 92.58217Z" fill-rule="nonzero"/><path fill="#000000" fill-opacity="0.0" clip-path="url(#id_0)" d="M169.4089 99.659744C169.4089 101.3166 168.06577 102.659744 166.4089 102.659744C164.75206 102.659744 163.4089 101.3166 163.4089 99.659744C163.4089 98.00289 164.75206 96.659744 166.4089 96.659744C168.06577 96.659744 169.4089 98.00289 169.4089 99.659744Z" fill-rule="nonzero"/><path fill="#000000" fill-opacity="0.0" clip-path="url(#id_0)" d="M174.47227 107.992035C174.47227 109.64889 173.12914 110.992035 171.47227 110.992035C169.81543 110.992035 168.47227 109.64889 168.47227 107.992035C168.47227 106.33518 169.81543 104.992035 171.47227 104.992035C173.12914 104.992035 174.47227 106.33518 174.47227 107.992035Z" fill-rule="nonzero"/><path fill="#000000" fill-opacity="0.0" clip-path="url(#id_0)" d="M179.53564 117.03948C179.53564 118.69634 178.1925 120.03948 176.53564 120.03948C174.87878 120.03948 173.53564 118.69634 173.53564 117.03948C173.53564 115.38263 174.87878 114.03948 176.53564 114.03948C178.1925 114.03948 179.53564 115.38263 179.53564 117.03948Z" fill-rule="nonzero"/><path fill="#000000" fill-opacity="0.0" clip-path="url(#id_0)" d="M184.59901 126.3C184.59901 127.956856 183.25586 129.3 181.59901 129.3C179.94215 129.3 178.59901 127.956856 178.59901 126.3C178.59901 124.64314 179.94215 123.3 181.59901 123.3C183.25586 123.3 184.59901 124.64314 184.59901 126.3Z" fill-rule="nonzero"/><path fill="#000000" fill-opacity="0.0" clip-path="url(#id_0)" d="M189.66237 135.32684C189.66237 136.9837 188.31923 138.32684 186.66237 138.32684C185.00552 138.32684 183.66237 136.9837 183.66237 135.32684C183.66237 133.67 185.00552 132.32684 186.66237 132.32684C188.31923 132.32684 189.66237 133.67 189.66237 135.32684Z" fill-rule="nonzero"/><path fill="#000000" fill-opacity="0.0" clip-path="url(#id_0)" d="M194.72574 143.7417C194.72574 145.39854 193.3826 146.7417 191.72574 146.7417C190.0689 146.7417 188.72574 145.39854 188.72574 143.7417C188.72574 142.08484 190.0689 140.7417 191.72574 140.7417C193.3826 140.7417 194.72574 142.08484 194.72574 143.7417Z" fill-rule="nonzero"/><path fill="#000000" fill-opacity="0.0" clip-path="url(#id_0)" d="M199.78911 151.24289C199.78911 152.89973 198.44597 154.24289 196.78911 154.24289C195.13225 154.24289 193.78911 152.89973 193.78911 151.24289C193.78911 149.58603 195.13225 148.24289 196.78911 148.24289C198.44597 148.24289 199.78911 149.58603 199.78911 151.24289Z" fill-rule="nonzero"/><path fill="#000000" fill-opacity="0.0" clip-path="url(#id_0)" d="M204.85248 157.60918C204.85248 159.26602 203.50932 160.60918 201.85248 160.60918C200.19562 160.60918 198.85248 159.26602 198.85248 157.60918C198.85248 155.95232 200.19562 154.60918 201.85248 154.60918C203.50932 154.60918 204.85248 155.95232 204.85248 157.60918Z" fill-rule="nonzero"/><path fill="#000000" fill-opacity="0.0" clip-path="url(#id_0)" d="M209.91585 162.69931C209.91585 164.35617 208.5727 165.69931 206.91585 165.69931C205.25899 165.69931 203.91585 164.35617 203.91585 162.69931C203.91585 161.04245 205.25899 159.69931 206.91585 159.69931C208.5727 159.69931 209.91585 161.04245 209.91585 162.69931Z" fill-rule="nonzero"/><path fill="#000000" fill-opacity="0.0" clip-path="url(#id_0)" d="M214.9792 166.4481C214.9792 168.10497 213.63606 169.4481 211.9792 169.4481C210.32236 169.4481 208.9792 168.10497 208.9792 166.4481C208.9792 164.79124 210.32236 163.4481 211.9792 163.4481C213.63606 163.4481 214.9792 164.79124 214.9792 166.4481Z" fill-rule="nonzero"/><path fill="#000000" fill-opacity="0.0" clip-path="url(#id_0)" d="M220.04257 168.85951C220.04257 170.51637 218.69943 171.85951 217.04257 171.85951C215.38573 171.85951 214.04257 170.51637 214.04257 168.85951C214.04257 167.20265 215.38573 165.85951 217.04257 165.85951C218.69943 165.85951 220.04257 167.20265 220.04257 168.85951Z" fill-rule="nonzero"/><path fill="#000000" fill-opacity="0.0" clip-path="url(#id_0)" d="M225.10594 169.99751C225.10594 171.65436 223.7628 172.99751 222.10594 172.99751C220.44908 172.99751 219.10594 171.65436 219.10594 169.99751C219.10594 168.34065 220.44908 166.99751 222.10594 166.99751C223.7628 166.99751 225.10594 168.34065 225.10594 169.99751Z" fill-rule="nonzero"/><path fill="#000000" fill-opacity="0.0" clip-path="url(#id_0)" d="M230.16931 169.97543C230.16931 171.63228 228.82616 172.97543 227.16931 172.97543C225.51245 172.97543 224.16931 171.63228 224.16931 169.97543C224.16931 168.31857 225.51245 166.97543 227.16931 166.97543C228.82616 166.97543 230.16931 168.31857 230.16931 169.97543Z" fill-rule="nonzero"/><path fill="#000000" fill-opacity="0.0" clip-path="url(#id_0)" d="M235.23267 168.94444C235.23267 170.6013 233.88953 171.94444 232.23267 171.94444C230.57582 171.94444 229.23267 170.6013 229.23267 168.94444C229.23267 167.2876 230.57582 165.94444 232.23267 165.94444C233.88953 165.94444 235.23267 167.2876 235.23267 168.94444Z" fill-rule="nonzero"/><path fill="#000000" fill-opacity="0.0" clip-path="url(#id_0)" d="M240.29604 167.08182C240.29604 168.73868 238.9529 170.08182 237.29604 170.08182C235.63919 170.08182 234.29604 168.73868 234.29604 167.08182C234.29604 165.42497 235.63919 164.08182 237.29604 164.08182C238.9529 164.08182 240.29604 165.42497 240.29604 167.08182Z" fill-rule="nonzero"/><path fill="#000000" fill-opacity="0.0" clip-path="url(#id_0)" d="M245.3594 164.57951C245.3594 166.23637 244.01627 167.57951 242.3594 167.57951C240.70255 167.57951 239.3594 166.23637 239.3594 164.57951C239.3594 162.92267 240.70255 161.57951 242.3594 161.57951C244.01627 161.57951 245.3594 162.92267 245.3594 164.57951Z" fill-rule="nonzero"/><path fill="#000000" fill-opacity="0.0" clip-path="url(#id_0)" d="M250.42278 161.6336C250.42278 163.29047 249.07962 164.6336 247.42278 164.6336C245.76591 164.6336 244.42278 163.29047 244.42278 161.6336C244.42278 159.97676 245.76591 158.6336 247.42278 158.6336C249.07962 158.6336 250.42278 159.97676 250.42278 161.6336Z" fill-rule="nonzero"/><path fill="#000000" fill-opacity="0.0" clip-path="url(#id_0)" d="M255.48615 158.43486C255.48615 160.0917 254.14299 161.43486 252.48615 161.43486C250.82928 161.43486 249.48615 160.0917 249.48615 158.43486C249.48615 156.778 250.82928 155.43486 252.48615 155.43486C254.14299 155.43486 255.48615 156.778 255.48615 158.43486Z" fill-rule="nonzero"/><path fill="#000000" fill-opacity="0.0" clip-path="url(#id_0)" d="M260.5495 155.16077C260.5495 156.81763 259.20636 158.16077 257.5495 158.16077C255.89265 158.16077 254.5495 156.81763 254.5495 155.16077C254.5495 153.5039 255.89265 152.16077 257.5495 152.16077C259.20636 152.16077 260.5495 153.5039 260.5495 155.16077Z" fill-rule="nonzero"/><path fill="#000000" fill-opacity="0.0" clip-path="url(#id_0)" d="M265.61288 151.9693C265.61288 153.62614 264.2697 154.9693 262.61288 154.9693C260.95602 154.9693 259.61288 153.62614 259.61288 151.9693C259.61288 150.31244 260.95602 148.9693 262.61288 148.9693C264.2697 148.9693 265.61288 150.31244 265.61288 151.9693Z" fill-rule="nonzero"/><path fill="#000000" fill-opacity="0.0" clip-path="url(#id_0)" d="M270.67624 148.9942C270.67624 150.65105 269.3331 151.9942 267.67624 151.9942C266.01938 151.9942 264.67624 150.65105 264.67624 148.9942C264.67624 147.33734 266.01938 145.9942 267.67624 145.9942C269.3331 145.9942 270.67624 147.33734 270.67624 148.9942Z" fill-rule="nonzero"/><path fill="#000000" fill-opacity="0.0" clip-path="url(#id_0)" d="M275.7396 146.34212C275.7396 147.99898 274.39645 149.34212 272.7396 149.34212C271.08276 149.34212 269.7396 147.99898 269.7396 146.34212C269.7396 144.68527 271.08276 143.34212 272.7396 143.34212C274.39645 143.34212 275.7396 144.68527 275.7396 146.34212Z" fill-rule="nonzero"/><path fill="#000000" fill-opacity="0.0" clip-path="url(#id_0)" d="M280.80298 144.09131C280.80298 145.74815 279.45984 147.09131 277.80298 147.09131C276.14612 147.09131 274.80298 145.74815 274.80298 144.09131C274.80298 142.43445 276.14612 141.09131 277.80298 141.09131C279.45984 141.09131 280.80298 142.43445 280.80298 144.09131Z" fill-rule="nonzero"/><path fill="#000000" fill-opacity="0.0" clip-path="url(#id_0)" d="M285.86633 142.29167C285.86633 143.94852 284.5232 145.29167 282.86633 145.29167C281.20947 145.29167 279.86633 143.94852 279.86633 142.29167C279.86633 140.63481 281.20947 139.29167 282.86633 139.29167C284.5232 139.29167 285.86633 140.63481 285.86633 142.29167Z" fill-rule="nonzero"/><path fill="#000000" fill-opacity="0.0" clip-path="url(#id_0)" d="M290.92972 140.96626C290.92972 142.62312 289.58655 143.96626 287.92972 143.96626C286.27286 143.96626 284.92972 142.62312 284.92972 140.96626C284.92972 139.30942 286.27286 137.96626 287.92972 137.96626C289.58655 137.96626 290.92972 139.30942 290.92972 140.96626Z" fill-rule="nonzero"/><path fill="#000000" fill-opacity="0.0" clip-path="url(#id_0)" d="M295.99307 140.11371C295.99307 141.77055 294.64993 143.11371 292.99307 143.11371C291.3362 143.11371 289.99307 141.77055 289.99307 140.11371C289.99307 138.45685 291.3362 137.11371 292.99307 137.11371C294.64993 137.11371 295.99307 138.45685 295.99307 140.11371Z" fill-rule="nonzero"/><path fill="#000000" fill-opacity="0.0" clip-path="url(#id_0)" d="M301.05643 139.71136C301.05643 141.36823 299.7133 142.71136 298.05643 142.71136C296.39957 142.71136 295.05643 141.36823 295.05643 139.71136C295.05643 138.0545 296.39957 136.71136 298.05643 136.71136C299.7133 136.71136 301.05643 138.0545 301.05643 139.71136Z" fill-rule="nonzero"/><path fill="#000000" fill-opacity="0.0" clip-path="url(#id_0)" d="M306.1198 139.71918C306.1198 141.37602 304.77664 142.71918 303.1198 142.71918C301.46295 142.71918 300.1198 141.37602 300.1198 139.71918C300.1198 138.06232 301.46295 136.71918 303.1198 136.71918C304.77664 136.71918 306.1198 138.06232 306.1198 139.71918Z" fill-rule="nonzero"/><path fill="#000000" fill-opacity="0.0" clip-path="url(#id_0)" d="M311.18317 140.08368C311.18317 141.74054 309.84003 143.08368 308.18317 143.08368C306.5263 143.08368 305.18317 141.74054 305.18317 140.08368C305.18317 138.42682 306.5263 137.08368 308.18317 137.08368C309.84003 137.08368 311.18317 138.42682 311.18317 140.08368Z" fill-rule="nonzero"/><path fill="#000000" fill-opacity="0.0" clip-path="url(#id_0)" d="M316.24652 140.74222C316.24652 142.39906 314.90338 143.74222 313.24652 143.74222C311.5897 143.74222 310.24652 142.39906 310.24652 140.74222C310.24652 139.08536 311.5897 137.74222 313.24652 137.74222C314.90338 137.74222 316.24652 139.08536 316.24652 140.74222Z" fill-rule="nonzero"/><path fill="#000000" fill-opacity="0.0" clip-path="url(#id_0)" d="M321.3099 141.6269C321.3099 143.28377 319.96677 144.6269 318.3099 144.6269C316.65305 144.6269 315.3099 143.28377 315.3099 141.6269C315.3099 139.97006 316.65305 138.6269 318.3099 138.6269C319.96677 138.6269 321.3099 139.97006 321.3099 141.6269Z" fill-rule="nonzero"/><path fill="#000000" fill-opacity="0.0" clip-path="url(#id_0)" d="M326.37326 142.66844C326.37326 144.3253 325.03012 145.66844 323.37326 145.66844C321.7164 145.66844 320.37326 144.3253 320.37326 142.66844C320.37326 141.0116 321.7164 139.66844 323.37326 139.66844C325.03012 139.66844 326.37326 141.0116 326.37326 142.66844Z" fill-rule="nonzero"/><path fill="#000000" fill-opacity="0.0" clip-path="url(#id_0)" d="M331.43665 143.79938C331.43665 145.45624 330.09348 146.79938 328.43665 146.79938C326.7798 146.79938 325.43665 145.45624 325.43665 143.79938C325.43665 142.14253 326.7798 140.79938 328.43665 140.79938C330.09348 140.79938 331.43665 142.14253 331.43665 143.79938Z" fill-rule="nonzero"/><path fill="#000000" fill-opacity="0.0" clip-path="url(#id_0)" d="M336.5 144.95694C336.5 146.6138 335.15686 147.95694 333.5 147.95694C331.84314 147.95694 330.5 146.6138 330.5 144.95694C330.5 143.3001 331.84314 141.95694 333.5 141.95694C335.15686 141.95694 336.5 143.3001 336.5 144.95694Z" fill-rule="nonzero"/><path fill="#000000" fill-opacity="0.0" clip-path="url(#id_0)" d="M341.56335 146.0853C341.56335 147.74216 340.2202 149.0853 338.56335 149.0853C336.90652 149.0853 335.56335 147.74216 335.56335 146.0853C335.56335 144.42845 336.90652 143.0853 338.56335 143.0853C340.2202 143.0853 341.56335 144.42845 341.56335 146.0853Z" fill-rule="nonzero"/><path fill="#000000" fill-opacity="0.0" clip-path="url(#id_0)" d="M346.62674 147.13716C346.62674 148.794 345.2836 150.13716 343.62674 150.13716C341.96988 150.13716 340.62674 148.794 340.62674 147.13716C340.62674 145.4803 341.96988 144.13716 343.62674 144.13716C345.2836 144.13716 346.62674 145.4803 346.62674 147.13716Z" fill-rule="nonzero"/><path fill="#000000" fill-opacity="0.0" clip-path="url(#id_0)" d="M351.6901 148.0748C351.6901 149.73166 350.34695 151.0748 348.6901 151.0748C347.03323 151.0748 345.6901 149.73166 345.6901 148.0748C345.6901 146.41795 347.03323 145.0748 348.6901 145.0748C350.34695 145.0748 351.6901 146.41795 351.6901 148.0748Z" fill-rule="nonzero"/><path fill="#000000" fill-opacity="0.0" clip-path="url(#id_0)" d="M356.75348 148.87059C356.75348 150.52745 355.4103 151.87059 353.75348 151.87059C352.09662 151.87059 350.75348 150.52745 350.75348 148.87059C350.75348 147.21373 352.09662 145.87059 353.75348 145.87059C355.4103 145.87059 356.75348 147.21373 356.75348 148.87059Z" fill-rule="nonzero"/><path fill="#000000" fill-opacity="0.0" clip-path="url(#id_0)" d="M361.81683 149.50685C361.81683 151.16371 360.4737 152.50685 358.81683 152.50685C357.15997 152.50685 355.81683 151.16371 355.81683 149.50685C355.81683 147.85 357.15997 146.50685 358.81683 146.50685C360.4737 146.50685 361.81683 147.85 361.81683 149.50685Z" fill-rule="nonzero"/><path fill="#000000" fill-opacity="0.0" clip-path="url(#id_0)" d="M366.8802 149.97546C366.8802 151.63231 365.53705 152.97546 363.8802 152.97546C362.22336 152.97546 360.8802 151.63231 360.8802 149.97546C360.8802 148.3186 362.22336 146.97546 363.8802 146.97546C365.53705 146.97546 366.8802 148.3186 366.8802 149.97546Z" fill-rule="nonzero"/><path fill="#000000" fill-opacity="0.0" clip-path="url(#id_0)" d="M371.94357 150.27689C371.94357 151.93373 370.60043 153.27689 368.94357 153.27689C367.2867 153.27689 365.94357 151.93373 365.94357 150.27689C365.94357 148.62003 367.2867 147.27689 368.94357 147.27689C370.60043 147.27689 371.94357 148.62003 371.94357 150.27689Z" fill-rule="nonzero"/><path fill="#000000" fill-opacity="0.0" clip-path="url(#id_0)" d="M377.00693 150.41913C377.00693 152.07599 375.6638 153.41913 374.00693 153.41913C372.35007 153.41913 371.00693 152.07599 371.00693 150.41913C371.00693 148.76228 372.35007 147.41913 374.00693 147.41913C375.6638 147.41913 377.00693 148.76228 377.00693 150.41913Z" fill-rule="nonzero"/><path fill="#000000" fill-opacity="0.0" clip-path="url(#id_0)" d="M382.07028 150.41637C382.07028 152.07323 380.72714 153.41637 379.07028 153.41637C377.41345 153.41637 376.07028 152.07323 376.07028 150.41637C376.07028 148.75952 377.41345 147.41637 379.07028 147.41637C380.72714 147.41637 382.07028 148.75952 382.07028 150.41637Z" fill-rule="nonzero"/><path fill="#000000" fill-opacity="0.0" clip-path="url(#id_0)" d="M387.13367 150.2875C387.13367 151.94435 385.79053 153.2875 384.13367 153.2875C382.4768 153.2875 381.13367 151.94435 381.13367 150.2875C381.13367 148.63065 382.4768 147.2875 384.13367 147.2875C385.79053 147.2875 387.13367 148.63065 387.13367 150.2875Z" fill-rule="nonzero"/><path fill="#000000" fill-opacity="0.0" clip-path="url(#id_0)" d="M392.19702 150.05467C392.19702 151.71153 390.85388 153.05467 389.19702 153.05467C387.54016 153.05467 386.19702 151.71153 386.19702 150.05467C386.19702 148.39781 387.54016 147.05467 389.19702 147.05467C390.85388 147.05467 392.19702 148.39781 392.19702 150.05467Z" fill-rule="nonzero"/><path fill="#000000" fill-opacity="0.0" clip-path="url(#id_0)" d="M397.2604 149.74188C397.2604 151.39874 395.91724 152.74188 394.2604 152.74188C392.60355 152.74188 391.2604 151.39874 391.2604 149.74188C391.2604 148.08504 392.60355 146.74188 394.2604 146.74188C395.91724 146.74188 397.2604 148.08504 397.2604 149.74188Z" fill-rule="nonzero"/><path fill="#000000" fill-opacity="0.0" clip-path="url(#id_0)" d="M402.32376 149.37364C402.32376 151.0305 400.98062 152.37364 399.32376 152.37364C397.6669 152.37364 396.32376 151.0305 396.32376 149.37364C396.32376 147.7168 397.6669 146.37364 399.32376 146.37364C400.98062 146.37364 402.32376 147.7168 402.32376 149.37364Z" fill-rule="nonzero"/><path fill="#000000" fill-opacity="0.0" clip-path="url(#id_0)" d="M407.38712 148.9738C407.38712 150.63066 406.04398 151.9738 404.38712 151.9738C402.7303 151.9738 401.38712 150.63066 401.38712 148.9738C401.38712 147.31694 402.7303 145.9738 404.38712 145.9738C406.04398 145.9738 407.38712 147.31694 407.38712 148.9738Z" fill-rule="nonzero"/><path fill="#000000" fill-opacity="0.0" clip-path="url(#id_0)" d="M412.4505 148.56454C412.4505 150.22139 411.10736 151.56454 409.4505 151.56454C407.79364 151.56454 406.4505 150.22139 406.4505 148.56454C406.4505 146.90768 407.79364 145.56454 409.4505 145.56454C411.10736 145.56454 412.4505 146.90768 412.4505 148.56454Z" fill-rule="nonzero"/><path fill="#000000" fill-opacity="0.0" clip-path="url(#id_0)" d="M417.51385 148.1656C417.51385 149.82246 416.17072 151.1656 414.51385 151.1656C412.857 151.1656 411.51385 149.82246 411.51385 148.1656C411.51385 146.50876 412.857 145.1656 414.51385 145.1656C416.17072 145.1656 417.51385 146.50876 417.51385 148.1656Z" fill-rule="nonzero"/><path fill="#000000" fill-opacity="0.0" clip-path="url(#id_0)" d="M422.57724 147.79372C422.57724 149.45058 421.23407 150.79372 419.57724 150.79372C417.92038 150.79372 416.57724 149.45058 416.57724 147.79372C416.57724 146.13687 417.92038 144.79372 419.57724 144.79372C421.23407 144.79372 422.57724 146.13687 422.57724 147.79372Z" fill-rule="nonzero"/><path fill="#000000" fill-opacity="0.0" clip-path="url(#id_0)" d="M427.6406 147.4622C427.6406 149.11906 426.29745 150.4622 424.6406 150.4622C422.98373 150.4622 421.6406 149.11906 421.6406 147.4622C421.6406 145.80536 422.98373 144.4622 424.6406 144.4622C426.29745 144.4622 427.6406 145.80536 427.6406 147.4622Z" fill-rule="nonzero"/><path fill="#000000" fill-opacity="0.0" clip-path="url(#id_0)" d="M432.70395 147.18086C432.70395 148.8377 431.3608 150.18086 429.70395 150.18086C428.04712 150.18086 426.70395 148.8377 426.70395 147.18086C426.70395 145.524 428.04712 144.18086 429.70395 144.18086C431.3608 144.18086 432.70395 145.524 432.70395 147.18086Z" fill-rule="nonzero"/><path fill="#000000" fill-opacity="0.0" clip-path="url(#id_0)" d="M437.76733 146.9559C437.76733 148.61276 436.4242 149.9559 434.76733 149.9559C433.11047 149.9559 431.76733 148.61276 431.76733 146.9559C431.76733 145.29904 433.11047 143.9559 434.76733 143.9559C436.4242 143.9559 437.76733 145.29904 437.76733 146.9559Z" fill-rule="nonzero"/><path fill="#000000" fill-opacity="0.0" clip-path="url(#id_0)" d="M442.8307 146.79022C442.8307 148.44708 441.48755 149.79022 439.8307 149.79022C438.17383 149.79022 436.8307 148.44708 436.8307 146.79022C436.8307 145.13338 438.17383 143.79022 439.8307 143.79022C441.48755 143.79022 442.8307 145.13338 442.8307 146.79022Z" fill-rule="nonzero"/><path fill="#000000" fill-opacity="0.0" clip-path="url(#id_0)" d="M447.89407 146.68365C447.89407 148.34052 446.5509 149.68365 444.89407 149.68365C443.2372 149.68365 441.89407 148.34052 441.89407 146.68365C441.89407 145.02681 443.2372 143.68365 444.89407 143.68365C446.5509 143.68365 447.89407 145.02681 447.89407 146.68365Z" fill-rule="nonzero"/><path fill="#000000" fill-opacity="0.0" clip-path="url(#id_0)" d="M452.95743 146.63336C452.95743 148.29022 451.6143 149.63336 449.95743 149.63336C448.30057 149.63336 446.95743 148.29022 446.95743 146.63336C446.95743 144.97652 448.30057 143.63336 449.95743 143.63336C451.6143 143.63336 452.95743 144.97652 452.95743 146.63336Z" fill-rule="nonzero"/><path fill="#000000" fill-opacity="0.0" clip-path="url(#id_0)" d="M458.02078 146.63434C458.02078 148.2912 456.67764 149.63434 455.02078 149.63434C453.36395 149.63434 452.02078 148.2912 452.02078 146.63434C452.02078 144.9775 453.36395 143.63434 455.02078 143.63434C456.67764 143.63434 458.02078 144.9775 458.02078 146.63434Z" fill-rule="nonzero"/><path fill="#000000" fill-opacity="0.0" clip-path="url(#id_0)" d="M463.08417 146.6799C463.08417 148.33676 461.74103 149.6799 460.08417 149.6799C458.4273 149.6799 457.08417 148.33676 457.08417 146.6799C457.08417 145.02306 458.4273 143.6799 460.08417 143.6799C461.74103 143.6799 463.08417 145.02306 463.08417 146.6799Z" fill-rule="nonzero"/><path fill="#000000" fill-opacity="0.0" clip-path="url(#id_0)" d="M468.14752 146.76222C468.14752 148.41908 466.80438 149.76222 465.14752 149.76222C463.49066 149.76222 462.14752 148.41908 462.14752 146.76222C462.14752 145.10536 463.49066 143.76222 465.14752 143.76222C466.80438 143.76222 468.14752 145.10536 468.14752 146.76222Z" fill-rule="nonzero"/><path fill="#000000" fill-opacity="0.0" clip-path="url(#id_0)" d="M473.21088 146.8728C473.21088 148.52966 471.86774 149.8728 470.21088 149.8728C468.55405 149.8728 467.21088 148.52966 467.21088 146.8728C467.21088 145.21596 468.55405 143.8728 470.21088 143.8728C471.86774 143.8728 473.21088 145.21596 473.21088 146.8728Z" fill-rule="nonzero"/><path fill="#000000" fill-opacity="0.0" clip-path="url(#id_0)" d="M478.27426 147.003C478.27426 148.65985 476.93112 150.003 475.27426 150.003C473.6174 150.003 472.27426 148.65985 472.27426 147.003C472.27426 145.34615 473.6174 144.003 475.27426 144.003C476.93112 144.003 478.27426 145.34615 478.27426 147.003Z" fill-rule="nonzero"/><path fill="#000000" fill-opacity="0.0" clip-path="url(#id_0)" d="M483.33762 147.14436C483.33762 148.80122 481.99448 150.14436 480.33762 150.14436C478.68076 150.14436 477.33762 148.80122 477.33762 147.14436C477.33762 145.48752 478.68076 144.14436 480.33762 144.14436C481.99448 144.14436 483.33762 145.48752 483.33762 147.14436Z" fill-rule="nonzero"/><path fill="#000000" fill-opacity="0.0" clip-path="url(#id_0)" d="M488.401 147.28906C488.401 148.94592 487.05783 150.28906 485.401 150.28906C483.74414 150.28906 482.401 148.94592 482.401 147.28906C482.401 145.6322 483.74414 144.28906 485.401 144.28906C487.05783 144.28906 488.401 145.6322 488.401 147.28906Z" fill-rule="nonzero"/><path fill="#000000" fill-opacity="0.0" clip-path="url(#id_0)" d="M493.46436 147.4301C493.46436 149.08696 492.12122 150.4301 490.46436 150.4301C488.8075 150.4301 487.46436 149.08696 487.46436 147.4301C487.46436 145.77325 488.8075 144.4301 490.46436 144.4301C492.12122 144.4301 493.46436 145.77325 493.46436 147.4301Z" fill-rule="nonzero"/><path fill="#000000" fill-opacity="0.0" clip-path="url(#id_0)" d="M498.5277 147.56158C498.5277 149.21844 497.18457 150.56158 495.5277 150.56158C493.87088 150.56158 492.5277 149.21844 492.5277 147.56158C492.5277 145.90474 493.87088 144.56158 495.5277 144.56158C497.18457 144.56158 498.5277 145.90474 498.5277 147.56158Z" fill-rule="nonzero"/><path fill="#000000" fill-opacity="0.0" clip-path="url(#id_0)" d="M503.5911 147.6788C503.5911 149.33565 502.24796 150.6788 500.5911 150.6788C498.93423 150.6788 497.5911 149.33565 497.5911 147.6788C497.5911 146.02194 498.93423 144.6788 500.5911 144.6788C502.24796 144.6788 503.5911 146.02194 503.5911 147.6788Z" fill-rule="nonzero"/><path fill="#000000" fill-opacity="0.0" clip-path="url(#id_0)" d="M508.65445 147.77827C508.65445 149.43512 507.3113 150.77827 505.65445 150.77827C503.9976 150.77827 502.65445 149.43512 502.65445 147.77827C502.65445 146.12141 503.9976 144.77827 505.65445 144.77827C507.3113 144.77827 508.65445 146.12141 508.65445 147.77827Z" fill-rule="nonzero"/><path fill="#000000" fill-opacity="0.0" clip-path="url(#id_0)" d="M513.71783 147.8578C513.71783 149.51465 512.3747 150.8578 510.71783 150.8578C509.06097 150.8578 507.71783 149.51465 507.71783 147.8578C507.71783 146.20094 509.06097 144.8578 510.71783 144.8578C512.3747 144.8578 513.71783 146.20094 513.71783 147.8578Z" fill-rule="nonzero"/><path fill="#000000" fill-opacity="0.0" clip-path="url(#id_0)" d="M518.7812 147.91638C518.7812 149.57323 517.43805 150.91638 515.7812 150.91638C514.1243 150.91638 512.7812 149.57323 512.7812 147.91638C512.7812 146.25952 514.1243 144.91638 515.7812 144.91638C517.43805 144.91638 518.7812 146.25952 518.7812 147.91638Z" fill-rule="nonzero"/><path fill="#000000" fill-opacity="0.0" clip-path="url(#id_0)" d="M523.84454 147.95406C523.84454 149.61092 522.5014 150.95406 520.84454 150.95406C519.1877 150.95406 517.84454 149.61092 517.84454 147.95406C517.84454 146.2972 519.1877 144.95406 520.84454 144.95406C522.5014 144.95406 523.84454 146.2972 523.84454 147.95406Z" fill-rule="nonzero"/><path fill="#000000" fill-opacity="0.0" clip-path="url(#id_0)" d="M528.9079 147.97183C528.9079 149.6287 527.56476 150.97183 525.9079 150.97183C524.25104 150.97183 522.9079 149.6287 522.9079 147.97183C522.9079 146.31499 524.25104 144.97183 525.9079 144.97183C527.56476 144.97183 528.9079 146.31499 528.9079 147.97183Z" fill-rule="nonzero"/><path fill="#000000" fill-opacity="0.0" clip-path="url(#id_0)" d="M533.9713 147.9715C533.9713 149.62834 532.6281 150.9715 530.9713 150.9715C529.31445 150.9715 527.9713 149.62834 527.9713 147.9715C527.9713 146.31464 529.31445 144.9715 530.9713 144.9715C532.6281 144.9715 533.9713 146.31464 533.9713 147.9715Z" fill-rule="nonzero"/><path fill="#000000" fill-opacity="0.0" clip-path="url(#id_0)" d="M539.03467 147.95538C539.03467 149.61224 537.6915 150.95538 536.03467 150.95538C534.3778 150.95538 533.03467 149.61224 533.03467 147.95538C533.03467 146.29852 534.3778 144.95538 536.03467 144.95538C537.6915 144.95538 539.03467 146.29852 539.03467 147.95538Z" fill-rule="nonzero"/><path fill="#000000" fill-opacity="0.0" clip-path="url(#id_0)" d="M544.098 147.92628C544.098 149.58313 542.7549 150.92628 541.098 150.92628C539.44116 150.92628 538.098 149.58313 538.098 147.92628C538.098 146.26942 539.44116 144.92628 541.098 144.92628C542.7549 144.92628 544.098 146.26942 544.098 147.92628Z" fill-rule="nonzero"/><path fill="#000000" fill-opacity="0.0" clip-path="url(#id_0)" d="M549.1614 147.88718C549.1614 149.54404 547.81824 150.88718 546.1614 150.88718C544.5045 150.88718 543.1614 149.54404 543.1614 147.88718C543.1614 146.23033 544.5045 144.88718 546.1614 144.88718C547.81824 144.88718 549.1614 146.23033 549.1614 147.88718Z" fill-rule="nonzero"/><path fill="#000000" fill-opacity="0.0" clip-path="url(#id_0)" d="M554.22473 147.84116C554.22473 149.498 552.8816 150.84116 551.22473 150.84116C549.5679 150.84116 548.22473 149.498 548.22473 147.84116C548.22473 146.1843 549.5679 144.84116 551.22473 144.84116C552.8816 144.84116 554.22473 146.1843 554.22473 147.84116Z" fill-rule="nonzero"/><path fill="#000000" fill-opacity="0.0" clip-path="url(#id_0)" d="M559.28815 147.79117C559.28815 149.44803 557.94495 150.79117 556.28815 150.79117C554.6313 150.79117 553.28815 149.44803 553.28815 147.79117C553.28815 146.13431 554.6313 144.79117 556.28815 144.79117C557.94495 144.79117 559.28815 146.13431 559.28815 147.79117Z" fill-rule="nonzero"/><path fill="#000000" fill-opacity="0.0" clip-path="url(#id_0)" d="M564.3515 147.74C564.3515 149.39687 563.00836 150.74 561.3515 150.74C559.69464 150.74 558.3515 149.39687 558.3515 147.74C558.3515 146.08316 559.69464 144.74 561.3515 144.74C563.00836 144.74 564.3515 146.08316 564.3515 147.74Z" fill-rule="nonzero"/><path fill="#000000" fill-opacity="0.0" clip-path="url(#id_0)" d="M569.41486 147.69014C569.41486 149.347 568.0717 150.69014 566.41486 150.69014C564.758 150.69014 563.41486 149.347 563.41486 147.69014C563.41486 146.0333 564.758 144.69014 566.41486 144.69014C568.0717 144.69014 569.41486 146.0333 569.41486 147.69014Z" fill-rule="nonzero"/><path fill="#000000" fill-opacity="0.0" clip-path="url(#id_0)" d="M574.4782 147.64366C574.4782 149.3005 573.1351 150.64366 571.4782 150.64366C569.82135 150.64366 568.4782 149.3005 568.4782 147.64366C568.4782 145.9868 569.82135 144.64366 571.4782 144.64366C573.1351 144.64366 574.4782 145.9868 574.4782 147.64366Z" fill-rule="nonzero"/><path fill="#000000" fill-opacity="0.0" clip-path="url(#id_0)" d="M579.54156 147.60222C579.54156 149.25908 578.1984 150.60222 576.54156 150.60222C574.8847 150.60222 573.54156 149.25908 573.54156 147.60222C573.54156 145.94537 574.8847 144.60222 576.54156 144.60222C578.1984 144.60222 579.54156 145.94537 579.54156 147.60222Z" fill-rule="nonzero"/><path fill="#000000" fill-opacity="0.0" clip-path="url(#id_0)" d="M584.605 147.56705C584.605 149.2239 583.2618 150.56705 581.605 150.56705C579.9481 150.56705 578.605 149.2239 578.605 147.56705C578.605 145.9102 579.9481 144.56705 581.605 144.56705C583.2618 144.56705 584.605 145.9102 584.605 147.56705Z" fill-rule="nonzero"/><path fill="#000000" fill-opacity="0.0" clip-path="url(#id_0)" d="M589.66833 147.62222C589.66833 149.27908 588.3252 150.62222 586.66833 150.62222C585.0115 150.62222 583.66833 149.27908 583.66833 147.62222C583.66833 145.96536 585.0115 144.62222 586.66833 144.62222C588.3252 144.62222 589.66833 145.96536 589.66833 147.62222Z" fill-rule="nonzero"/><path fill="#000000" d="M335.09375 353.2625L335.25 354.1844Q334.79688 354.27814 334.45312 354.27814Q333.875 354.27814 333.5625 354.10626Q333.25 353.91876 333.10938 353.6219Q332.98438 353.325 332.98438 352.3719L332.98438 348.79376L332.21875 348.79376L332.21875 347.98126L332.98438 347.98126L332.98438 346.4344L334.03125 345.8094L334.03125 347.98126L335.09375 347.98126L335.09375 348.79376L334.03125 348.79376L334.03125 352.4344Q334.03125 352.8875 334.07812 353.0125Q334.14062 353.1375 334.26562 353.21564Q334.39062 353.29376 334.625 353.29376Q334.8125 353.29376 335.09375 353.2625Z" fill-rule="nonzero"/><path fill="#000000" d="M29.800013 192.67291L26.565638 190.40729L23.581263 192.50104L23.581263 191.18854L25.034388 190.23541Q25.456263 189.96979 25.737513 189.79791Q25.346888 189.54791 25.050013 189.32916L23.581263 188.28229L23.581263 187.01666L26.503138 189.17291L29.800013 186.86041L29.800013 188.14166L27.862513 189.42291L27.346888 189.76666L29.800013 191.40729L29.800013 192.67291Z" fill-rule="nonzero"/><path fill="#000000" d="M55.3 317.96564Q55.3 316.4344 55.6125 315.5125Q55.925 314.575 56.534374 314.075Q57.159374 313.575 58.096874 313.575Q58.784374 313.575 59.3 313.85626Q59.83125 314.1375 60.175 314.66876Q60.51875 315.1844 60.70625 315.9344Q60.89375 316.6844 60.89375 317.96564Q60.89375 319.48126 60.58125 320.40314Q60.284374 321.325 59.659374 321.84064Q59.05 322.34064 58.096874 322.34064Q56.8625 322.34064 56.14375 321.45Q55.3 320.3875 55.3 317.96564ZM56.378124 317.96564Q56.378124 320.075 56.878124 320.77814Q57.378124 321.48126 58.096874 321.48126Q58.83125 321.48126 59.315624 320.77814Q59.815624 320.075 59.815624 317.96564Q59.815624 315.84064 59.315624 315.15314Q58.83125 314.45 58.08125 314.45Q57.3625 314.45 56.925 315.0594Q56.378124 315.84064 56.378124 317.96564ZM62.89375 322.2L62.89375 320.9969L64.09688 320.9969L64.09688 322.2L62.89375 322.2ZM65.3 317.96564Q65.3 316.4344 65.6125 315.5125Q65.925 314.575 66.53438 314.075Q67.15938 313.575 68.09688 313.575Q68.78438 313.575 69.3 313.85626Q69.83125 314.1375 70.175 314.66876Q70.51875 315.1844 70.70625 315.9344Q70.89375 316.6844 70.89375 317.96564Q70.89375 319.48126 70.58125 320.40314Q70.28438 321.325 69.65938 321.84064Q69.05 322.34064 68.09688 322.34064Q66.8625 322.34064 66.14375 321.45Q65.3 320.3875 65.3 317.96564ZM66.37813 317.96564Q66.37813 320.075 66.87813 320.77814Q67.37813 321.48126 68.09688 321.48126Q68.83125 321.48126 69.31563 320.77814Q69.81563 320.075 69.81563 317.96564Q69.81563 315.84064 69.31563 315.15314Q68.83125 314.45 68.08125 314.45Q67.3625 314.45 66.925 315.0594Q66.37813 315.84064 66.37813 317.96564Z" fill-rule="nonzero"/><path fill="#000000" d="M55.3 232.67674Q55.3 231.1455 55.6125 230.22362Q55.925 229.28612 56.534374 228.78612Q57.159374 228.28612 58.096874 228.28612Q58.784374 228.28612 59.3 228.56737Q59.83125 228.84862 60.175 229.37987Q60.51875 229.8955 60.70625 230.6455Q60.89375 231.3955 60.89375 232.67674Q60.89375 234.19237 60.58125 235.11424Q60.284374 236.03612 59.659374 236.55174Q59.05 237.05174 58.096874 237.05174Q56.8625 237.05174 56.14375 236.16112Q55.3 235.09862 55.3 232.67674ZM56.378124 232.67674Q56.378124 234.78612 56.878124 235.48924Q57.378124 236.19237 58.096874 236.19237Q58.83125 236.19237 59.315624 235.48924Q59.815624 234.78612 59.815624 232.67674Q59.815624 230.55174 59.315624 229.86424Q58.83125 229.16112 58.08125 229.16112Q57.3625 229.16112 56.925 229.7705Q56.378124 230.55174 56.378124 232.67674ZM62.89375 236.91112L62.89375 235.708L64.09688 235.708L64.09688 236.91112L62.89375 236.91112ZM65.3 234.66112L66.40938 234.56737Q66.53438 235.37987 66.97188 235.78612Q67.425 236.19237 68.06563 236.19237Q68.81563 236.19237 69.34688 235.61424Q69.87813 235.03612 69.87813 234.09862Q69.87813 233.19237 69.3625 232.67674Q68.8625 232.1455 68.03438 232.1455Q67.53438 232.1455 67.1125 232.37987Q66.70625 232.61424 66.47188 232.97362L65.4875 232.84862L66.31563 228.44237L70.59688 228.44237L70.59688 229.44237L67.15938 229.44237L66.70625 231.75487Q67.47188 231.208 68.31563 231.208Q69.44063 231.208 70.20625 231.98924Q70.9875 232.7705 70.9875 234.00487Q70.9875 235.16112 70.31563 236.0205Q69.4875 237.05174 68.06563 237.05174Q66.89375 237.05174 66.14375 236.3955Q65.40938 235.73924 65.3 234.66112Z" fill-rule="nonzero"/><path fill="#000000" d="M59.26875 151.62222L58.221874 151.62222L58.221874 144.90347Q57.83125 145.26285 57.20625 145.63785Q56.596874 145.99722 56.1125 146.1691L56.1125 145.15347Q56.9875 144.7316 57.64375 144.15347Q58.315624 143.55972 58.596874 142.99722L59.26875 142.99722L59.26875 151.62222ZM62.89375 151.62222L62.89375 150.4191L64.09688 150.4191L64.09688 151.62222L62.89375 151.62222ZM65.3 147.38785Q65.3 145.8566 65.6125 144.93472Q65.925 143.99722 66.53438 143.49722Q67.15938 142.99722 68.09688 142.99722Q68.78438 142.99722 69.3 143.27847Q69.83125 143.55972 70.175 144.09097Q70.51875 144.6066 70.70625 145.3566Q70.89375 146.1066 70.89375 147.38785Q70.89375 148.90347 70.58125 149.82535Q70.28438 150.74722 69.65938 151.26285Q69.05 151.76285 68.09688 151.76285Q66.8625 151.76285 66.14375 150.87222Q65.3 149.80972 65.3 147.38785ZM66.37813 147.38785Q66.37813 149.49722 66.87813 150.20035Q67.37813 150.90347 68.09688 150.90347Q68.83125 150.90347 69.31563 150.20035Q69.81563 149.49722 69.81563 147.38785Q69.81563 145.26285 69.31563 144.57535Q68.83125 143.87222 68.08125 143.87222Q67.3625 143.87222 66.925 144.4816Q66.37813 145.26285 66.37813 147.38785Z" fill-rule="nonzero"/><path fill="#000000" d="M59.26875 66.333336L58.221874 66.333336L58.221874 59.614586Q57.83125 59.97396 57.20625 60.34896Q56.596874 60.708336 56.1125 60.88021L56.1125 59.864586Q56.9875 59.44271 57.64375 58.864586Q58.315624 58.270836 58.596874 57.708336L59.26875 57.708336L59.26875 66.333336ZM62.89375 66.333336L62.89375 65.13021L64.09688 65.13021L64.09688 66.333336L62.89375 66.333336ZM65.3 64.083336L66.40938 63.989586Q66.53438 64.802086 66.97188 65.208336Q67.425 65.614586 68.06563 65.614586Q68.81563 65.614586 69.34688 65.03646Q69.87813 64.458336 69.87813 63.520836Q69.87813 62.614586 69.3625 62.09896Q68.8625 61.56771 68.03438 61.56771Q67.53438 61.56771 67.1125 61.802086Q66.70625 62.03646 66.47188 62.395836L65.4875 62.270836L66.31563 57.864586L70.59688 57.864586L70.59688 58.864586L67.15938 58.864586L66.70625 61.177086Q67.47188 60.63021 68.31563 60.63021Q69.44063 60.63021 70.20625 61.41146Q70.9875 62.19271 70.9875 63.427086Q70.9875 64.583336 70.31563 65.44271Q69.4875 66.47396 68.06563 66.47396Q66.89375 66.47396 66.14375 65.81771Q65.40938 65.16146 65.3 64.083336Z" fill-rule="nonzero"/><path fill="#757575" d="M20.378124 37.8L20.378124 23.4875L30.7375 23.4875L30.7375 25.175L22.284374 25.175L22.284374 29.55L30.190624 29.55L30.190624 31.2375L22.284374 31.2375L22.284374 36.1125L31.065624 36.1125L31.065624 37.8L20.378124 37.8ZM39.89375 36.51875Q38.909374 37.346874 38.003124 37.690624Q37.096874 38.034374 36.065624 38.034374Q34.3625 38.034374 33.440624 37.20625Q32.51875 36.3625 32.51875 35.065624Q32.51875 34.3 32.8625 33.675Q33.221874 33.05 33.784374 32.675Q34.346874 32.284374 35.05 32.08125Q35.565624 31.95625 36.6125 31.815624Q38.7375 31.565624 39.7375 31.221874Q39.753124 30.8625 39.753124 30.753124Q39.753124 29.690624 39.253124 29.2375Q38.58125 28.64375 37.253124 28.64375Q36.003124 28.64375 35.409374 29.08125Q34.83125 29.51875 34.55 30.628124L32.83125 30.39375Q33.065624 29.284374 33.596874 28.6125Q34.128124 27.925 35.14375 27.565624Q36.159374 27.190624 37.503124 27.190624Q38.83125 27.190624 39.659374 27.503124Q40.4875 27.815624 40.878124 28.3Q41.26875 28.76875 41.425 29.4875Q41.51875 29.940624 41.51875 31.1125L41.51875 33.45625Q41.51875 35.909374 41.628124 36.565624Q41.7375 37.20625 42.08125 37.8L40.2375 37.8Q39.971874 37.253124 39.89375 36.51875ZM39.7375 32.596874Q38.784374 32.9875 36.8625 33.253124Q35.784374 33.409374 35.33125 33.6125Q34.89375 33.8 34.64375 34.175Q34.39375 34.55 34.39375 35.01875Q34.39375 35.721874 34.925 36.190624Q35.45625 36.659374 36.4875 36.659374Q37.503124 36.659374 38.284374 36.221874Q39.08125 35.76875 39.45625 35.003124Q39.7375 34.39375 39.7375 33.2375L39.7375 32.596874ZM43.409374 34.70625L45.159374 34.425Q45.3 35.471874 45.971874 36.034374Q46.64375 36.58125 47.846874 36.58125Q49.05 36.58125 49.628124 36.096874Q50.221874 35.596874 50.221874 34.940624Q50.221874 34.346874 49.70625 34.003124Q49.346874 33.76875 47.909374 33.409374Q45.971874 32.909374 45.221874 32.565624Q44.4875 32.20625 44.096874 31.58125Q43.70625 30.940624 43.70625 30.175Q43.70625 29.4875 44.01875 28.89375Q44.346874 28.3 44.89375 27.909374Q45.3 27.6125 46.003124 27.409374Q46.721874 27.190624 47.534374 27.190624Q48.753124 27.190624 49.675 27.55Q50.596874 27.89375 51.034374 28.503124Q51.471874 29.096874 51.64375 30.096874L49.925 30.33125Q49.8 29.534374 49.2375 29.096874Q48.675 28.64375 47.659374 28.64375Q46.440624 28.64375 45.925 29.05Q45.409374 29.440624 45.409374 29.971874Q45.409374 30.315624 45.628124 30.596874Q45.83125 30.878124 46.3 31.065624Q46.565624 31.159374 47.846874 31.503124Q49.721874 32.003124 50.45625 32.33125Q51.190624 32.64375 51.6125 33.253124Q52.034374 33.846874 52.034374 34.753124Q52.034374 35.628124 51.51875 36.409374Q51.003124 37.190624 50.034374 37.6125Q49.065624 38.034374 47.846874 38.034374Q45.83125 38.034374 44.76875 37.190624Q43.70625 36.346874 43.409374 34.70625ZM61.221874 34.45625L63.034374 34.690624Q62.6125 36.26875 61.440624 37.159374Q60.284374 38.034374 58.471874 38.034374Q56.20625 38.034374 54.8625 36.64375Q53.534374 35.2375 53.534374 32.70625Q53.534374 30.08125 54.878124 28.64375Q56.221874 27.190624 58.378124 27.190624Q60.45625 27.190624 61.76875 28.6125Q63.096874 30.01875 63.096874 32.596874Q63.096874 32.753124 63.08125 33.065624L55.346874 33.065624Q55.440624 34.76875 56.315624 35.675Q57.190624 36.58125 58.4875 36.58125Q59.45625 36.58125 60.128124 36.08125Q60.815624 35.565624 61.221874 34.45625ZM55.440624 31.6125L61.2375 31.6125Q61.128124 30.315624 60.58125 29.659374Q59.7375 28.64375 58.39375 28.64375Q57.190624 28.64375 56.3625 29.45625Q55.534374 30.253124 55.440624 31.6125ZM64.76875 30.83125Q64.76875 27.26875 66.675 25.253124Q68.59688 23.221874 71.62813 23.221874Q73.6125 23.221874 75.19063 24.175Q76.78438 25.128124 77.6125 26.83125Q78.45625 28.51875 78.45625 30.659374Q78.45625 32.83125 77.58125 34.55Q76.70625 36.26875 75.08125 37.159374Q73.47188 38.05 71.6125 38.05Q69.59688 38.05 68.00313 37.08125Q66.40938 36.096874 65.58125 34.409374Q64.76875 32.70625 64.76875 30.83125ZM66.72188 30.8625Q66.72188 33.440624 68.1125 34.940624Q69.50313 36.425 71.59688 36.425Q73.7375 36.425 75.1125 34.925Q76.50313 33.409374 76.50313 30.64375Q76.50313 28.909374 75.90938 27.6125Q75.33125 26.3 74.19063 25.58125Q73.05 24.8625 71.62813 24.8625Q69.62813 24.8625 68.175 26.253124Q66.72188 27.628124 66.72188 30.8625ZM87.90938 37.8L87.90938 36.26875Q86.70625 38.034374 84.62813 38.034374Q83.70625 38.034374 82.90938 37.690624Q82.1125 37.33125 81.72188 36.8Q81.34688 36.26875 81.19063 35.4875Q81.08125 34.971874 81.08125 33.846874L81.08125 27.425L82.83125 27.425L82.83125 33.175Q82.83125 34.55 82.94063 35.034374Q83.1125 35.721874 83.64375 36.128124Q84.19063 36.51875 84.97188 36.51875Q85.76875 36.51875 86.45625 36.1125Q87.15938 35.70625 87.44063 35.01875Q87.7375 34.315624 87.7375 32.9875L87.7375 27.425L89.4875 27.425L89.4875 37.8L87.90938 37.8ZM94.95625 36.221874L95.20625 37.784374Q94.47188 37.940624 93.87813 37.940624Q92.925 37.940624 92.39375 37.64375Q91.87813 37.33125 91.65938 36.846874Q91.44063 36.346874 91.44063 34.76875L91.44063 28.8L90.15938 28.8L90.15938 27.425L91.44063 27.425L91.44063 24.8625L93.19063 23.8L93.19063 27.425L94.95625 27.425L94.95625 28.8L93.19063 28.8L93.19063 34.8625Q93.19063 35.6125 93.28438 35.83125Q93.37813 36.034374 93.58125 36.175Q93.8 36.3 94.19063 36.3Q94.47188 36.3 94.95625 36.221874ZM97.37813 37.8L97.37813 23.4875L107.7375 23.4875L107.7375 25.175L99.28438 25.175L99.28438 29.55L107.19063 29.55L107.19063 31.2375L99.28438 31.2375L99.28438 36.1125L108.06563 36.1125L108.06563 37.8L97.37813 37.8ZM110.08125 37.8L110.08125 23.4875L111.83125 23.4875L111.83125 37.8L110.08125 37.8ZM120.89375 36.51875Q119.90938 37.346874 119.00313 37.690624Q118.09688 38.034374 117.06563 38.034374Q115.3625 38.034374 114.44063 37.20625Q113.51875 36.3625 113.51875 35.065624Q113.51875 34.3 113.8625 33.675Q114.22188 33.05 114.78438 32.675Q115.34688 32.284374 116.05 32.08125Q116.56563 31.95625 117.6125 31.815624Q119.7375 31.565624 120.7375 31.221874Q120.75313 30.8625 120.75313 30.753124Q120.75313 29.690624 120.25313 29.2375Q119.58125 28.64375 118.25313 28.64375Q117.00313 28.64375 116.40938 29.08125Q115.83125 29.51875 115.55 30.628124L113.83125 30.39375Q114.06563 29.284374 114.59688 28.6125Q115.12813 27.925 116.14375 27.565624Q117.15938 27.190624 118.50313 27.190624Q119.83125 27.190624 120.65938 27.503124Q121.4875 27.815624 121.87813 28.3Q122.26875 28.76875 122.425 29.4875Q122.51875 29.940624 122.51875 31.1125L122.51875 33.45625Q122.51875 35.909374 122.62813 36.565624Q122.7375 37.20625 123.08125 37.8L121.2375 37.8Q120.97188 37.253124 120.89375 36.51875ZM120.7375 32.596874Q119.78438 32.9875 117.8625 33.253124Q116.78438 33.409374 116.33125 33.6125Q115.89375 33.8 115.64375 34.175Q115.39375 34.55 115.39375 35.01875Q115.39375 35.721874 115.925 36.190624Q116.45625 36.659374 117.4875 36.659374Q118.50313 36.659374 119.28438 36.221874Q120.08125 35.76875 120.45625 35.003124Q120.7375 34.39375 120.7375 33.2375L120.7375 32.596874ZM124.40938 34.70625L126.15938 34.425Q126.3 35.471874 126.97188 36.034374Q127.64375 36.58125 128.84688 36.58125Q130.05 36.58125 130.62813 36.096874Q131.22188 35.596874 131.22188 34.940624Q131.22188 34.346874 130.70625 34.003124Q130.34688 33.76875 128.90938 33.409374Q126.97188 32.909374 126.22188 32.565624Q125.4875 32.20625 125.09688 31.58125Q124.70625 30.940624 124.70625 30.175Q124.70625 29.4875 125.01875 28.89375Q125.34688 28.3 125.89375 27.909374Q126.3 27.6125 127.00313 27.409374Q127.72188 27.190624 128.53438 27.190624Q129.75313 27.190624 130.675 27.55Q131.59688 27.89375 132.03438 28.503124Q132.47188 29.096874 132.64375 30.096874L130.925 30.33125Q130.8 29.534374 130.2375 29.096874Q129.675 28.64375 128.65938 28.64375Q127.44063 28.64375 126.925 29.05Q126.40938 29.440624 126.40938 29.971874Q126.40938 30.315624 126.62813 30.596874Q126.83125 30.878124 127.3 31.065624Q127.56563 31.159374 128.84688 31.503124Q130.72188 32.003124 131.45625 32.33125Q132.19063 32.64375 132.6125 33.253124Q133.03438 33.846874 133.03438 34.753124Q133.03438 35.628124 132.51875 36.409374Q132.00313 37.190624 131.03438 37.6125Q130.06563 38.034374 128.84688 38.034374Q126.83125 38.034374 125.76875 37.190624Q124.70625 36.346874 124.40938 34.70625ZM138.95625 36.221874L139.20625 37.784374Q138.47188 37.940624 137.87813 37.940624Q136.925 37.940624 136.39375 37.64375Q135.87813 37.33125 135.65938 36.846874Q135.44063 36.346874 135.44063 34.76875L135.44063 28.8L134.15938 28.8L134.15938 27.425L135.44063 27.425L135.44063 24.8625L137.19063 23.8L137.19063 27.425L138.95625 27.425L138.95625 28.8L137.19063 28.8L137.19063 34.8625Q137.19063 35.6125 137.28438 35.83125Q137.37813 36.034374 137.58125 36.175Q137.8 36.3 138.19063 36.3Q138.47188 36.3 138.95625 36.221874ZM141.12813 25.503124L141.12813 23.4875L142.89375 23.4875L142.89375 25.503124L141.12813 25.503124ZM141.12813 37.8L141.12813 27.425L142.89375 27.425L142.89375 37.8L141.12813 37.8ZM151.89375 34.003124L153.6125 34.221874Q153.33125 36.01875 152.15938 37.034374Q151.00313 38.034374 149.3 38.034374Q147.175 38.034374 145.87813 36.64375Q144.58125 35.253124 144.58125 32.659374Q144.58125 30.971874 145.12813 29.721874Q145.69063 28.45625 146.83125 27.83125Q147.97188 27.190624 149.31563 27.190624Q151.00313 27.190624 152.06563 28.05Q153.14375 28.909374 153.45625 30.471874L151.7375 30.7375Q151.50313 29.690624 150.87813 29.175Q150.25313 28.64375 149.37813 28.64375Q148.05 28.64375 147.22188 29.596874Q146.39375 30.55 146.39375 32.596874Q146.39375 34.690624 147.19063 35.64375Q147.9875 36.58125 149.28438 36.58125Q150.31563 36.58125 151.00313 35.95625Q151.70625 35.315624 151.89375 34.003124Z" fill-rule="nonzero"/></svg>