<svg version="1.1" viewBox="0.0 0.0 608.0 376.0" fill="none" stroke="none" stroke-linecap="square" stroke-miterlimit="10" width="608" height="376" xmlns:xlink="http://www.w3.org/1999/xlink" xmlns="http://www.w3.org/2000/svg"><path fill="#ffffff" d="M0 0L608.0 0L608.0 376.0L0 376.0L0 0Z" fill-rule="nonzero"/><path stroke="#333333" stroke-width="1.0" stroke-linecap="butt" d="M80.5 318.5L589.5 318.5" fill-rule="nonzero"/><path stroke="#cccccc" stroke-width="1.0" stroke-linecap="butt" d="M80.5 254.5L589.5 254.5" fill-rule="nonzero"/><path stroke="#cccccc" stroke-width="1.0" stroke-linecap="butt" d="M80.5 190.5L589.5 190.5" fill-rule="nonzero"/><path stroke="#cccccc" stroke-width="1.0" stroke-linecap="butt" d="M80.5 126.5L589.5 126.5" fill-rule="nonzero"/><path stroke="#cccccc" stroke-width="1.0" stroke-linecap="butt" d="M80.5 62.5L589.5 62.5" fill-rule="nonzero"/><path stroke="#000000" stroke-width="1.0" stroke-linecap="butt" d="M80.5 318.5L80.5 62.5" fill-rule="nonzero"/><clipPath id="id_0"><path d="M80.8 62.333332L589.2 62.333332L589.2 318.2L80.8 318.2L80.8 62.333332Z" clip-rule="nonzero"/></clipPath><path stroke="#4285f4" stroke-width="2.0" stroke-linecap="butt" clip-path="url(#id_0)" d="M83.31683 318.2C83.31683 318.2 86.67261 317.09177 88.350494 316.63443C90.02838 316.17706 91.70627 315.78418 93.384155 315.45584C95.06205 315.12747 96.73994 314.86362 98.41782 314.66425C100.09571 314.46487 101.7736 314.33002 103.451485 314.25964C105.12937 314.1893 106.80726 314.18344 108.485146 314.24207C110.16303 314.3007 111.84093 314.42383 113.518814 314.61148C115.1967 314.7991 116.87459 315.05124 118.552475 315.3679C120.23036 315.6845 121.90825 316.06564 123.586136 316.5113C125.26402 316.9569 126.94192 318.26663 128.6198 318.0417C130.29768 317.81674 131.97557 316.1371 133.65347 315.1616C135.33136 314.1861 137.00925 313.11517 138.68713 312.18872C140.36502 311.26227 142.04291 310.40033 143.7208 309.60287C145.39868 308.80542 147.07657 308.07248 148.75446 307.40402C150.43234 306.73557 152.11023 306.13162 153.78812 305.59216C155.466 305.0527 157.14389 304.57776 158.82178 304.1673C160.49966 303.75687 162.17755 303.41092 163.85544 303.12946C165.53334 302.848 167.21123 302.63104 168.88911 302.4786C170.567 302.32614 172.24489 302.2382 173.92278 302.21472C175.60066 302.19128 177.27855 302.23233 178.95644 302.33786C180.63432 302.44342 182.31221 302.61346 183.9901 302.848C185.66798 303.08255 187.34587 303.3816 189.02376 303.74515C190.70164 304.10867 192.37953 304.5367 194.05742 305.02927C195.73532 305.52182 197.41321 306.07886 199.0911 306.70038C200.76898 307.32193 202.44687 308.00797 204.12476 308.7585C205.80264 309.50906 207.48053 310.3241 209.15842 311.20364C210.8363 312.0832 212.51419 313.02722 214.19208 314.03577C215.86996 315.0443 217.54785 317.3967 219.22574 317.25488C220.90363 317.1131 222.58151 314.95688 224.2594 313.18503C225.93729 311.41315 227.61519 308.74625 229.29308 306.62363C230.97096 304.501 232.64885 302.44287 234.32674 300.44925C236.00462 298.45563 237.68251 296.5265 239.3604 294.66187C241.03828 292.79724 242.71617 290.9971 244.39406 289.26147C246.07195 287.52585 247.74983 285.85474 249.42772 284.24808C251.1056 282.64145 252.7835 281.09933 254.46138 279.6217C256.13928 278.14407 257.81717 276.73096 259.49506 275.38232C261.17294 274.0337 262.85083 272.74954 264.52872 271.5299C266.2066 270.3103 267.8845 269.15515 269.56238 268.0645C271.24026 266.9739 272.91815 265.94775 274.59604 264.98615C276.27393 264.0245 277.9518 263.12738 279.6297 262.29474C281.3076 261.4621 282.98547 260.69397 284.66336 259.99033C286.34125 259.2867 288.01913 258.64755 289.69702 258.07294C291.3749 257.4983 293.0528 256.98816 294.73068 256.54254C296.40857 256.0969 298.08646 255.71576 299.76434 255.39912C301.44223 255.08249 303.12012 254.83035 304.79803 254.64272C306.47592 254.45508 308.1538 254.33195 309.8317 254.27332C311.50958 254.21468 313.18747 254.22054 314.86536 254.29091C316.54324 254.36127 318.22113 254.49612 319.89902 254.6955C321.5769 254.89485 323.2548 255.15872 324.93268 255.48708C326.61057 255.81544 328.28845 256.2083 329.96634 256.66568C331.64423 257.12302 333.3221 257.6449 335.0 258.23126C336.6779 258.8176 338.35577 259.46848 340.03366 260.18384C341.71155 260.8992 343.38943 261.67905 345.06732 262.5234C346.7452 263.36777 348.4231 264.27664 350.10098 265.25C351.77887 266.22336 353.45676 267.2612 355.13464 268.36356C356.81253 269.46594 358.49042 270.63278 360.1683 271.86414C361.8462 273.0955 363.52408 274.39136 365.20197 275.7517C366.87988 277.1121 368.55777 278.53693 370.23566 280.0263C371.91354 281.51566 373.59143 283.06952 375.26932 284.68787C376.9472 286.3062 378.6251 287.98907 380.30298 289.73642C381.98087 291.4838 383.65875 293.29565 385.33664 295.172C387.01453 297.04837 388.6924 298.9892 390.3703 300.99457C392.0482 302.9999 393.72607 305.06976 395.40396 307.20413C397.08185 309.33847 398.75974 312.81668 400.43762 313.8007C402.1155 314.7847 403.7934 315.5134 405.47128 313.10825C407.14917 310.7031 408.82706 303.8848 410.50494 299.3698C412.18283 294.85483 413.86072 290.40436 415.5386 286.01837C417.2165 281.6324 418.89438 277.3109 420.57227 273.05392C422.25015 268.79694 423.92804 264.60446 425.60593 260.47647C427.2838 256.3485 428.96173 252.28502 430.63962 248.28603C432.3175 244.28705 433.9954 240.35257 435.67328 236.48259C437.35117 232.6126 439.02905 228.80711 440.70694 225.06613C442.38483 221.32515 444.0627 217.64867 445.7406 214.03668C447.4185 210.4247 449.09637 206.87721 450.77426 203.39423C452.45215 199.91124 454.13004 196.49275 455.80792 193.13876C457.4858 189.78479 459.1637 186.4953 460.84158 183.27031C462.51947 180.04533 464.19736 176.88484 465.87524 173.78885C467.55313 170.69287 469.23102 167.66138 470.9089 164.6944C472.5868 161.7274 474.26468 158.82492 475.94257 155.98692C477.62045 153.14894 479.29834 150.37546 480.97623 147.66647C482.6541 144.95747 484.332 142.31299 486.0099 139.733C487.68777 137.15302 489.36566 134.63753 491.04358 132.18654C492.72147 129.73555 494.39935 127.34905 496.07724 125.02706C497.75513 122.70507 499.433 120.447586 501.1109 118.25459C502.7888 116.0616 504.46667 113.93311 506.14456 111.86912C507.82245 109.80513 509.50034 107.80564 511.17822 105.87064C512.8561 103.93565 514.534 102.06516 516.21185 100.25917C517.8898 98.45318 519.5676 96.711685 521.24554 95.03469C522.92346 93.3577 524.6013 91.74521 526.27924 90.19721C527.9571 88.64922 529.635 87.165726 531.31287 85.746735C532.9908 84.327736 534.66864 82.97324 536.34656 81.68325C538.0244 80.39326 539.70233 79.16776 541.3802 78.00677C543.0581 76.84577 544.73596 75.749275 546.4139 74.71728C548.09174 73.68529 549.76965 72.71779 551.4475 71.81479C553.1254 70.9118 554.8033 70.0733 556.4812 69.2993C558.15906 68.52531 559.837 67.81581 561.51483 67.170815C563.19275 66.52582 564.8706 65.94532 566.5485 65.42932C568.2264 64.91332 569.9043 64.46182 571.58215 64.07483C573.2601 63.687828 574.9379 63.36533 576.61584 63.10733C578.2937 62.84933 579.9716 62.65583 581.6495 62.526833C583.3274 62.397835 586.68317 62.333332 586.68317 62.333332" fill-rule="nonzero"/><path fill="#000000" fill-opacity="0.0" clip-path="url(#id_0)" d="M86.31683 318.2C86.31683 319.85684 84.97369 321.2 83.31683 321.2C81.65998 321.2 80.31683 319.85684 80.31683 318.2C80.31683 316.54315 81.65998 315.2 83.31683 315.2C84.97369 315.2 86.31683 316.54315 86.31683 318.2Z" fill-rule="nonzero"/><path fill="#000000" fill-opacity="0.0" clip-path="url(#id_0)" d="M91.350494 316.63443C91.350494 318.29126 90.00735 319.63443 88.350494 319.63443C86.69364 319.63443 85.350494 318.29126 85.350494 316.63443C85.350494 314.97757 86.69364 313.63443 88.350494 313.63443C90.00735 313.63443 91.350494 314.97757 91.350494 316.63443Z" fill-rule="nonzero"/><path fill="#000000" fill-opacity="0.0" clip-path="url(#id_0)" d="M96.384155 315.45584C96.384155 317.11267 95.041016 318.45584 93.384155 318.45584C91.7273 318.45584 90.384155 317.11267 90.384155 315.45584C90.384155 313.79898 91.7273 312.45584 93.384155 312.45584C95.041016 312.45584 96.384155 313.79898 96.384155 315.45584Z" fill-rule="nonzero"/><path fill="#000000" fill-opacity="0.0" clip-path="url(#id_0)" d="M101.41782 314.66425C101.41782 316.3211 100.07468 317.66425 98.41782 317.66425C96.76097 317.66425 95.41782 316.3211 95.41782 314.66425C95.41782 313.0074 96.76097 311.66425 98.41782 311.66425C100.07468 311.66425 101.41782 313.0074 101.41782 314.66425Z" fill-rule="nonzero"/><path fill="#000000" fill-opacity="0.0" clip-path="url(#id_0)" d="M106.451485 314.25964C106.451485 315.9165 105.10834 317.25964 103.451485 317.25964C101.79463 317.25964 100.451485 315.9165 100.451485 314.25964C100.451485 312.6028 101.79463 311.25964 103.451485 311.25964C105.10834 311.25964 106.451485 312.6028 106.451485 314.25964Z" fill-rule="nonzero"/><path fill="#000000" fill-opacity="0.0" clip-path="url(#id_0)" d="M111.485146 314.24207C111.485146 315.89893 110.142006 317.24207 108.485146 317.24207C106.82829 317.24207 105.485146 315.89893 105.485146 314.24207C105.485146 312.5852 106.82829 311.24207 108.485146 311.24207C110.142006 311.24207 111.485146 312.5852 111.485146 314.24207Z" fill-rule="nonzero"/><path fill="#000000" fill-opacity="0.0" clip-path="url(#id_0)" d="M116.518814 314.61148C116.518814 316.2683 115.17567 317.61148 113.518814 317.61148C111.86196 317.61148 110.518814 316.2683 110.518814 314.61148C110.518814 312.95462 111.86196 311.61148 113.518814 311.61148C115.17567 311.61148 116.518814 312.95462 116.518814 314.61148Z" fill-rule="nonzero"/><path fill="#000000" fill-opacity="0.0" clip-path="url(#id_0)" d="M121.552475 315.3679C121.552475 317.02472 120.20933 318.3679 118.552475 318.3679C116.89562 318.3679 115.552475 317.02472 115.552475 315.3679C115.552475 313.71103 116.89562 312.3679 118.552475 312.3679C120.20933 312.3679 121.552475 313.71103 121.552475 315.3679Z" fill-rule="nonzero"/><path fill="#000000" fill-opacity="0.0" clip-path="url(#id_0)" d="M126.586136 316.5113C126.586136 318.16812 125.243 319.5113 123.586136 319.5113C121.92928 319.5113 120.586136 318.16812 120.586136 316.5113C120.586136 314.85443 121.92928 313.5113 123.586136 313.5113C125.243 313.5113 126.586136 314.85443 126.586136 316.5113Z" fill-rule="nonzero"/><path fill="#000000" fill-opacity="0.0" clip-path="url(#id_0)" d="M131.6198 318.0417C131.6198 319.69855 130.27666 321.0417 128.6198 321.0417C126.962944 321.0417 125.619804 319.69855 125.619804 318.0417C125.619804 316.38483 126.962944 315.0417 128.6198 315.0417C130.27666 315.0417 131.6198 316.38483 131.6198 318.0417Z" fill-rule="nonzero"/><path fill="#000000" fill-opacity="0.0" clip-path="url(#id_0)" d="M136.65347 315.1616C136.65347 316.81845 135.31032 318.1616 133.65347 318.1616C131.99661 318.1616 130.65347 316.81845 130.65347 315.1616C130.65347 313.50473 131.99661 312.1616 133.65347 312.1616C135.31032 312.1616 136.65347 313.50473 136.65347 315.1616Z" fill-rule="nonzero"/><path fill="#000000" fill-opacity="0.0" clip-path="url(#id_0)" d="M141.68713 312.18872C141.68713 313.84558 140.34398 315.18872 138.68713 315.18872C137.03027 315.18872 135.68713 313.84558 135.68713 312.18872C135.68713 310.5319 137.03027 309.18872 138.68713 309.18872C140.34398 309.18872 141.68713 310.5319 141.68713 312.18872Z" fill-rule="nonzero"/><path fill="#000000" fill-opacity="0.0" clip-path="url(#id_0)" d="M146.7208 309.60287C146.7208 311.25974 145.37764 312.60287 143.7208 312.60287C142.06393 312.60287 140.7208 311.25974 140.7208 309.60287C140.7208 307.946 142.06393 306.60287 143.7208 306.60287C145.37764 306.60287 146.7208 307.946 146.7208 309.60287Z" fill-rule="nonzero"/><path fill="#000000" fill-opacity="0.0" clip-path="url(#id_0)" d="M151.75446 307.40402C151.75446 309.06088 150.41132 310.40402 148.75446 310.40402C147.0976 310.40402 145.75446 309.06088 145.75446 307.40402C145.75446 305.74716 147.0976 304.40402 148.75446 304.40402C150.41132 304.40402 151.75446 305.74716 151.75446 307.40402Z" fill-rule="nonzero"/><path fill="#000000" fill-opacity="0.0" clip-path="url(#id_0)" d="M156.78812 305.59216C156.78812 307.24902 155.44498 308.59216 153.78812 308.59216C152.13127 308.59216 150.78812 307.24902 150.78812 305.59216C150.78812 303.9353 152.13127 302.59216 153.78812 302.59216C155.44498 302.59216 156.78812 303.9353 156.78812 305.59216Z" fill-rule="nonzero"/><path fill="#000000" fill-opacity="0.0" clip-path="url(#id_0)" d="M161.82178 304.1673C161.82178 305.82416 160.47864 307.1673 158.82178 307.1673C157.16493 307.1673 155.82178 305.82416 155.82178 304.1673C155.82178 302.51047 157.16493 301.1673 158.82178 301.1673C160.47864 301.1673 161.82178 302.51047 161.82178 304.1673Z" fill-rule="nonzero"/><path fill="#000000" fill-opacity="0.0" clip-path="url(#id_0)" d="M166.85544 303.12946C166.85544 304.78632 165.5123 306.12946 163.85544 306.12946C162.1986 306.12946 160.85544 304.78632 160.85544 303.12946C160.85544 301.4726 162.1986 300.12946 163.85544 300.12946C165.5123 300.12946 166.85544 301.4726 166.85544 303.12946Z" fill-rule="nonzero"/><path fill="#000000" fill-opacity="0.0" clip-path="url(#id_0)" d="M171.88911 302.4786C171.88911 304.13544 170.54596 305.4786 168.88911 305.4786C167.23225 305.4786 165.88911 304.13544 165.88911 302.4786C165.88911 300.82175 167.23225 299.4786 168.88911 299.4786C170.54596 299.4786 171.88911 300.82175 171.88911 302.4786Z" fill-rule="nonzero"/><path fill="#000000" fill-opacity="0.0" clip-path="url(#id_0)" d="M176.92278 302.21472C176.92278 303.87158 175.57962 305.21472 173.92278 305.21472C172.26591 305.21472 170.92278 303.87158 170.92278 302.21472C170.92278 300.55786 172.26591 299.21472 173.92278 299.21472C175.57962 299.21472 176.92278 300.55786 176.92278 302.21472Z" fill-rule="nonzero"/><path fill="#000000" fill-opacity="0.0" clip-path="url(#id_0)" d="M181.95644 302.33786C181.95644 303.99472 180.6133 305.33786 178.95644 305.33786C177.29958 305.33786 175.95644 303.99472 175.95644 302.33786C175.95644 300.681 177.29958 299.33786 178.95644 299.33786C180.6133 299.33786 181.95644 300.681 181.95644 302.33786Z" fill-rule="nonzero"/><path fill="#000000" fill-opacity="0.0" clip-path="url(#id_0)" d="M186.9901 302.848C186.9901 304.50485 185.64696 305.848 183.9901 305.848C182.33325 305.848 180.9901 304.50485 180.9901 302.848C180.9901 301.19113 182.33325 299.848 183.9901 299.848C185.64696 299.848 186.9901 301.19113 186.9901 302.848Z" fill-rule="nonzero"/><path fill="#000000" fill-opacity="0.0" clip-path="url(#id_0)" d="M192.02376 303.74515C192.02376 305.40198 190.68062 306.74515 189.02376 306.74515C187.36691 306.74515 186.02376 305.40198 186.02376 303.74515C186.02376 302.0883 187.36691 300.74515 189.02376 300.74515C190.68062 300.74515 192.02376 302.0883 192.02376 303.74515Z" fill-rule="nonzero"/><path fill="#000000" fill-opacity="0.0" clip-path="url(#id_0)" d="M197.05742 305.02927C197.05742 306.68613 195.71428 308.02927 194.05742 308.02927C192.40057 308.02927 191.05742 306.68613 191.05742 305.02927C191.05742 303.3724 192.40057 302.02927 194.05742 302.02927C195.71428 302.02927 197.05742 303.3724 197.05742 305.02927Z" fill-rule="nonzero"/><path fill="#000000" fill-opacity="0.0" clip-path="url(#id_0)" d="M202.0911 306.70038C202.0911 308.35724 200.74794 309.70038 199.0911 309.70038C197.43423 309.70038 196.0911 308.35724 196.0911 306.70038C196.0911 305.04355 197.43423 303.70038 199.0911 303.70038C200.74794 303.70038 202.0911 305.04355 202.0911 306.70038Z" fill-rule="nonzero"/><path fill="#000000" fill-opacity="0.0" clip-path="url(#id_0)" d="M207.12476 308.7585C207.12476 310.41537 205.7816 311.7585 204.12476 311.7585C202.4679 311.7585 201.12476 310.41537 201.12476 308.7585C201.12476 307.10165 202.4679 305.7585 204.12476 305.7585C205.7816 305.7585 207.12476 307.10165 207.12476 308.7585Z" fill-rule="nonzero"/><path fill="#000000" fill-opacity="0.0" clip-path="url(#id_0)" d="M212.15842 311.20364C212.15842 312.8605 210.81528 314.20364 209.15842 314.20364C207.50156 314.20364 206.15842 312.8605 206.15842 311.20364C206.15842 309.54678 207.50156 308.20364 209.15842 308.20364C210.81528 308.20364 212.15842 309.54678 212.15842 311.20364Z" fill-rule="nonzero"/><path fill="#000000" fill-opacity="0.0" clip-path="url(#id_0)" d="M217.19208 314.03577C217.19208 315.69263 215.84894 317.03577 214.19208 317.03577C212.53523 317.03577 211.19208 315.69263 211.19208 314.03577C211.19208 312.3789 212.53523 311.03577 214.19208 311.03577C215.84894 311.03577 217.19208 312.3789 217.19208 314.03577Z" fill-rule="nonzero"/><path fill="#000000" fill-opacity="0.0" clip-path="url(#id_0)" d="M222.22574 317.25488C222.22574 318.91174 220.8826 320.25488 219.22574 320.25488C217.5689 320.25488 216.22574 318.91174 216.22574 317.25488C216.22574 315.59805 217.5689 314.25488 219.22574 314.25488C220.8826 314.25488 222.22574 315.59805 222.22574 317.25488Z" fill-rule="nonzero"/><path fill="#000000" fill-opacity="0.0" clip-path="url(#id_0)" d="M227.2594 313.18503C227.2594 314.84186 225.91626 316.18503 224.2594 316.18503C222.60255 316.18503 221.2594 314.84186 221.2594 313.18503C221.2594 311.52817 222.60255 310.18503 224.2594 310.18503C225.91626 310.18503 227.2594 311.52817 227.2594 313.18503Z" fill-rule="nonzero"/><path fill="#000000" fill-opacity="0.0" clip-path="url(#id_0)" d="M232.29308 306.62363C232.29308 308.2805 230.94992 309.62363 229.29308 309.62363C227.63622 309.62363 226.29308 308.2805 226.29308 306.62363C226.29308 304.96677 227.63622 303.62363 229.29308 303.62363C230.94992 303.62363 232.29308 304.96677 232.29308 306.62363Z" fill-rule="nonzero"/><path fill="#000000" fill-opacity="0.0" clip-path="url(#id_0)" d="M237.32674 300.44925C237.32674 302.1061 235.98358 303.44925 234.32674 303.44925C232.66988 303.44925 231.32674 302.1061 231.32674 300.44925C231.32674 298.7924 232.66988 297.44925 234.32674 297.44925C235.98358 297.44925 237.32674 298.7924 237.32674 300.44925Z" fill-rule="nonzero"/><path fill="#000000" fill-opacity="0.0" clip-path="url(#id_0)" d="M242.3604 294.66187C242.3604 296.31873 241.01726 297.66187 239.3604 297.66187C237.70354 297.66187 236.3604 296.31873 236.3604 294.66187C236.3604 293.005 237.70354 291.66187 239.3604 291.66187C241.01726 291.66187 242.3604 293.005 242.3604 294.66187Z" fill-rule="nonzero"/><path fill="#000000" fill-opacity="0.0" clip-path="url(#id_0)" d="M247.39406 289.26147C247.39406 290.91833 246.05092 292.26147 244.39406 292.26147C242.7372 292.26147 241.39406 290.91833 241.39406 289.26147C241.39406 287.6046 242.7372 286.26147 244.39406 286.26147C246.05092 286.26147 247.39406 287.6046 247.39406 289.26147Z" fill-rule="nonzero"/><path fill="#000000" fill-opacity="0.0" clip-path="url(#id_0)" d="M252.42772 284.24808C252.42772 285.90494 251.08458 287.24808 249.42772 287.24808C247.77087 287.24808 246.42772 285.90494 246.42772 284.24808C246.42772 282.59125 247.77087 281.24808 249.42772 281.24808C251.08458 281.24808 252.42772 282.59125 252.42772 284.24808Z" fill-rule="nonzero"/><path fill="#000000" fill-opacity="0.0" clip-path="url(#id_0)" d="M257.4614 279.6217C257.4614 281.27856 256.11826 282.6217 254.46138 282.6217C252.80453 282.6217 251.46138 281.27856 251.46138 279.6217C251.46138 277.96484 252.80453 276.6217 254.46138 276.6217C256.11826 276.6217 257.4614 277.96484 257.4614 279.6217Z" fill-rule="nonzero"/><path fill="#000000" fill-opacity="0.0" clip-path="url(#id_0)" d="M262.49506 275.38232C262.49506 277.03915 261.15192 278.38232 259.49506 278.38232C257.8382 278.38232 256.49506 277.03915 256.49506 275.38232C256.49506 273.72546 257.8382 272.38232 259.49506 272.38232C261.15192 272.38232 262.49506 273.72546 262.49506 275.38232Z" fill-rule="nonzero"/><path fill="#000000" fill-opacity="0.0" clip-path="url(#id_0)" d="M267.52872 271.5299C267.52872 273.18677 266.18558 274.5299 264.52872 274.5299C262.87186 274.5299 261.52872 273.18677 261.52872 271.5299C261.52872 269.87308 262.87186 268.5299 264.52872 268.5299C266.18558 268.5299 267.52872 269.87308 267.52872 271.5299Z" fill-rule="nonzero"/><path fill="#000000" fill-opacity="0.0" clip-path="url(#id_0)" d="M272.56238 268.0645C272.56238 269.72137 271.21924 271.0645 269.56238 271.0645C267.90552 271.0645 266.56238 269.72137 266.56238 268.0645C266.56238 266.40768 267.90552 265.0645 269.56238 265.0645C271.21924 265.0645 272.56238 266.40768 272.56238 268.0645Z" fill-rule="nonzero"/><path fill="#000000" fill-opacity="0.0" clip-path="url(#id_0)" d="M277.59604 264.98615C277.59604 266.64297 276.2529 267.98615 274.59604 267.98615C272.93918 267.98615 271.59604 266.64297 271.59604 264.98615C271.59604 263.32928 272.93918 261.98615 274.59604 261.98615C276.2529 261.98615 277.59604 263.32928 277.59604 264.98615Z" fill-rule="nonzero"/><path fill="#000000" fill-opacity="0.0" clip-path="url(#id_0)" d="M282.6297 262.29474C282.6297 263.9516 281.28656 265.29474 279.6297 265.29474C277.97284 265.29474 276.6297 263.9516 276.6297 262.29474C276.6297 260.63788 277.97284 259.29474 279.6297 259.29474C281.28656 259.29474 282.6297 260.63788 282.6297 262.29474Z" fill-rule="nonzero"/><path fill="#000000" fill-opacity="0.0" clip-path="url(#id_0)" d="M287.66336 259.99033C287.66336 261.6472 286.32022 262.99033 284.66336 262.99033C283.0065 262.99033 281.66336 261.6472 281.66336 259.99033C281.66336 258.33347 283.0065 256.99033 284.66336 256.99033C286.32022 256.99033 287.66336 258.33347 287.66336 259.99033Z" fill-rule="nonzero"/><path fill="#000000" fill-opacity="0.0" clip-path="url(#id_0)" d="M292.69702 258.07294C292.69702 259.7298 291.35388 261.07294 289.69702 261.07294C288.04016 261.07294 286.69702 259.7298 286.69702 258.07294C286.69702 256.41608 288.04016 255.07294 289.69702 255.07294C291.35388 255.07294 292.69702 256.41608 292.69702 258.07294Z" fill-rule="nonzero"/><path fill="#000000" fill-opacity="0.0" clip-path="url(#id_0)" d="M297.73068 256.54254C297.73068 258.19937 296.38754 259.54254 294.73068 259.54254C293.07385 259.54254 291.73068 258.19937 291.73068 256.54254C291.73068 254.88568 293.07385 253.54253 294.73068 253.54253C296.38754 253.54253 297.73068 254.88568 297.73068 256.54254Z" fill-rule="nonzero"/><path fill="#000000" fill-opacity="0.0" clip-path="url(#id_0)" d="M302.76434 255.39912C302.76434 257.05597 301.4212 258.39914 299.76434 258.39914C298.1075 258.39914 296.76434 257.05597 296.76434 255.39912C296.76434 253.74228 298.1075 252.39912 299.76434 252.39912C301.4212 252.39912 302.76434 253.74228 302.76434 255.39912Z" fill-rule="nonzero"/><path fill="#000000" fill-opacity="0.0" clip-path="url(#id_0)" d="M307.79803 254.64272C307.79803 256.29956 306.45486 257.64273 304.79803 257.64273C303.14117 257.64273 301.79803 256.29956 301.79803 254.64272C301.79803 252.98587 303.14117 251.64272 304.79803 251.64272C306.45486 251.64272 307.79803 252.98587 307.79803 254.64272Z" fill-rule="nonzero"/><path fill="#000000" fill-opacity="0.0" clip-path="url(#id_0)" d="M312.8317 254.27332C312.8317 255.93016 311.48853 257.27332 309.8317 257.27332C308.17484 257.27332 306.8317 255.93016 306.8317 254.27332C306.8317 252.61646 308.17484 251.27332 309.8317 251.27332C311.48853 251.27332 312.8317 252.61646 312.8317 254.27332Z" fill-rule="nonzero"/><path fill="#000000" fill-opacity="0.0" clip-path="url(#id_0)" d="M317.86536 254.29091C317.86536 255.94775 316.5222 257.2909 314.86536 257.2909C313.2085 257.2909 311.86536 255.94775 311.86536 254.29091C311.86536 252.63405 313.2085 251.29091 314.86536 251.29091C316.5222 251.29091 317.86536 252.63405 317.86536 254.29091Z" fill-rule="nonzero"/><path fill="#000000" fill-opacity="0.0" clip-path="url(#id_0)" d="M322.89902 254.6955C322.89902 256.35236 321.55588 257.6955 319.89902 257.6955C318.24216 257.6955 316.89902 256.35236 316.89902 254.6955C316.89902 253.03864 318.24216 251.6955 319.89902 251.6955C321.55588 251.6955 322.89902 253.03864 322.89902 254.6955Z" fill-rule="nonzero"/><path fill="#000000" fill-opacity="0.0" clip-path="url(#id_0)" d="M327.93268 255.48708C327.93268 257.14392 326.58954 258.4871 324.93268 258.4871C323.27582 258.4871 321.93268 257.14392 321.93268 255.48708C321.93268 253.83023 323.27582 252.48708 324.93268 252.48708C326.58954 252.48708 327.93268 253.83023 327.93268 255.48708Z" fill-rule="nonzero"/><path fill="#000000" fill-opacity="0.0" clip-path="url(#id_0)" d="M332.96634 256.66568C332.96634 258.3225 331.6232 259.66568 329.96634 259.66568C328.30948 259.66568 326.96634 258.3225 326.96634 256.66568C326.96634 255.0088 328.30948 253.66566 329.96634 253.66566C331.6232 253.66566 332.96634 255.0088 332.96634 256.66568Z" fill-rule="nonzero"/><path fill="#000000" fill-opacity="0.0" clip-path="url(#id_0)" d="M338.0 258.23126C338.0 259.8881 336.65686 261.23126 335.0 261.23126C333.34314 261.23126 332.0 259.8881 332.0 258.23126C332.0 256.5744 333.34314 255.23125 335.0 255.23125C336.65686 255.23125 338.0 256.5744 338.0 258.23126Z" fill-rule="nonzero"/><path fill="#000000" fill-opacity="0.0" clip-path="url(#id_0)" d="M343.03366 260.18384C343.03366 261.8407 341.69052 263.18384 340.03366 263.18384C338.3768 263.18384 337.03366 261.8407 337.03366 260.18384C337.03366 258.52698 338.3768 257.18384 340.03366 257.18384C341.69052 257.18384 343.03366 258.52698 343.03366 260.18384Z" fill-rule="nonzero"/><path fill="#000000" fill-opacity="0.0" clip-path="url(#id_0)" d="M348.06732 262.5234C348.06732 264.18027 346.72418 265.5234 345.06732 265.5234C343.41046 265.5234 342.06732 264.18027 342.06732 262.5234C342.06732 260.86655 343.41046 259.5234 345.06732 259.5234C346.72418 259.5234 348.06732 260.86655 348.06732 262.5234Z" fill-rule="nonzero"/><path fill="#000000" fill-opacity="0.0" clip-path="url(#id_0)" d="M353.10098 265.25C353.10098 266.90686 351.75784 268.25 350.10098 268.25C348.44412 268.25 347.10098 266.90686 347.10098 265.25C347.10098 263.59314 348.44412 262.25 350.10098 262.25C351.75784 262.25 353.10098 263.59314 353.10098 265.25Z" fill-rule="nonzero"/><path fill="#000000" fill-opacity="0.0" clip-path="url(#id_0)" d="M358.13464 268.36356C358.13464 270.02042 356.7915 271.36356 355.13464 271.36356C353.4778 271.36356 352.13464 270.02042 352.13464 268.36356C352.13464 266.70673 353.4778 265.36356 355.13464 265.36356C356.7915 265.36356 358.13464 266.70673 358.13464 268.36356Z" fill-rule="nonzero"/><path fill="#000000" fill-opacity="0.0" clip-path="url(#id_0)" d="M363.1683 271.86414C363.1683 273.521 361.82516 274.86414 360.1683 274.86414C358.51147 274.86414 357.1683 273.521 357.1683 271.86414C357.1683 270.2073 358.51147 268.86414 360.1683 268.86414C361.82516 268.86414 363.1683 270.2073 363.1683 271.86414Z" fill-rule="nonzero"/><path fill="#000000" fill-opacity="0.0" clip-path="url(#id_0)" d="M368.20197 275.7517C368.20197 277.40857 366.85883 278.7517 365.20197 278.7517C363.54514 278.7517 362.20197 277.40857 362.20197 275.7517C362.20197 274.09488 363.54514 272.7517 365.20197 272.7517C366.85883 272.7517 368.20197 274.09488 368.20197 275.7517Z" fill-rule="nonzero"/><path fill="#000000" fill-opacity="0.0" clip-path="url(#id_0)" d="M373.23566 280.0263C373.23566 281.68314 371.8925 283.0263 370.23566 283.0263C368.5788 283.0263 367.23566 281.68314 367.23566 280.0263C367.23566 278.36945 368.5788 277.0263 370.23566 277.0263C371.8925 277.0263 373.23566 278.36945 373.23566 280.0263Z" fill-rule="nonzero"/><path fill="#000000" fill-opacity="0.0" clip-path="url(#id_0)" d="M378.26932 284.68787C378.26932 286.34473 376.92615 287.68787 375.26932 287.68787C373.61246 287.68787 372.26932 286.34473 372.26932 284.68787C372.26932 283.031 373.61246 281.68787 375.26932 281.68787C376.92615 281.68787 378.26932 283.031 378.26932 284.68787Z" fill-rule="nonzero"/><path fill="#000000" fill-opacity="0.0" clip-path="url(#id_0)" d="M383.30298 289.73642C383.30298 291.39328 381.95984 292.73642 380.30298 292.73642C378.64612 292.73642 377.30298 291.39328 377.30298 289.73642C377.30298 288.0796 378.64612 286.73642 380.30298 286.73642C381.95984 286.73642 383.30298 288.0796 383.30298 289.73642Z" fill-rule="nonzero"/><path fill="#000000" fill-opacity="0.0" clip-path="url(#id_0)" d="M388.33664 295.172C388.33664 296.82886 386.9935 298.172 385.33664 298.172C383.67978 298.172 382.33664 296.82886 382.33664 295.172C382.33664 293.51514 383.67978 292.172 385.33664 292.172C386.9935 292.172 388.33664 293.51514 388.33664 295.172Z" fill-rule="nonzero"/><path fill="#000000" fill-opacity="0.0" clip-path="url(#id_0)" d="M393.3703 300.99457C393.3703 302.65143 392.02716 303.99457 390.3703 303.99457C388.71344 303.99457 387.3703 302.65143 387.3703 300.99457C387.3703 299.3377 388.71344 297.99457 390.3703 297.99457C392.02716 297.99457 393.3703 299.3377 393.3703 300.99457Z" fill-rule="nonzero"/><path fill="#000000" fill-opacity="0.0" clip-path="url(#id_0)" d="M398.40396 307.20413C398.40396 308.861 397.06082 310.20413 395.40396 310.20413C393.7471 310.20413 392.40396 308.861 392.40396 307.20413C392.40396 305.54727 393.7471 304.20413 395.40396 304.20413C397.06082 304.20413 398.40396 305.54727 398.40396 307.20413Z" fill-rule="nonzero"/><path fill="#000000" fill-opacity="0.0" clip-path="url(#id_0)" d="M403.43762 313.8007C403.43762 315.45755 402.09448 316.8007 400.43762 316.8007C398.78076 316.8007 397.43762 315.45755 397.43762 313.8007C397.43762 312.14383 398.78076 310.8007 400.43762 310.8007C402.09448 310.8007 403.43762 312.14383 403.43762 313.8007Z" fill-rule="nonzero"/><path fill="#000000" fill-opacity="0.0" clip-path="url(#id_0)" d="M408.47128 313.10825C408.47128 314.7651 407.12814 316.10825 405.47128 316.10825C403.81442 316.10825 402.47128 314.7651 402.47128 313.10825C402.47128 311.4514 403.81442 310.10825 405.47128 310.10825C407.12814 310.10825 408.47128 311.4514 408.47128 313.10825Z" fill-rule="nonzero"/><path fill="#000000" fill-opacity="0.0" clip-path="url(#id_0)" d="M413.50494 299.3698C413.50494 301.02667 412.1618 302.3698 410.50494 302.3698C408.84808 302.3698 407.50494 301.02667 407.50494 299.3698C407.50494 297.71295 408.84808 296.3698 410.50494 296.3698C412.1618 296.3698 413.50494 297.71295 413.50494 299.3698Z" fill-rule="nonzero"/><path fill="#000000" fill-opacity="0.0" clip-path="url(#id_0)" d="M418.5386 286.01837C418.5386 287.67523 417.19547 289.01837 415.5386 289.01837C413.88174 289.01837 412.5386 287.67523 412.5386 286.01837C412.5386 284.3615 413.88174 283.01837 415.5386 283.01837C417.19547 283.01837 418.5386 284.3615 418.5386 286.01837Z" fill-rule="nonzero"/><path fill="#000000" fill-opacity="0.0" clip-path="url(#id_0)" d="M423.57227 273.05392C423.57227 274.7108 422.22913 276.05392 420.57227 276.05392C418.91544 276.05392 417.57227 274.7108 417.57227 273.05392C417.57227 271.39706 418.91544 270.05392 420.57227 270.05392C422.22913 270.05392 423.57227 271.39706 423.57227 273.05392Z" fill-rule="nonzero"/><path fill="#000000" fill-opacity="0.0" clip-path="url(#id_0)" d="M428.60593 260.47647C428.60593 262.13333 427.2628 263.47647 425.60593 263.47647C423.9491 263.47647 422.60593 262.13333 422.60593 260.47647C422.60593 258.8196 423.9491 257.47647 425.60593 257.47647C427.2628 257.47647 428.60593 258.8196 428.60593 260.47647Z" fill-rule="nonzero"/><path fill="#000000" fill-opacity="0.0" clip-path="url(#id_0)" d="M433.63962 248.28603C433.63962 249.94289 432.29645 251.28603 430.63962 251.28603C428.98276 251.28603 427.63962 249.94289 427.63962 248.28603C427.63962 246.62918 428.98276 245.28603 430.63962 245.28603C432.29645 245.28603 433.63962 246.62918 433.63962 248.28603Z" fill-rule="nonzero"/><path fill="#000000" fill-opacity="0.0" clip-path="url(#id_0)" d="M438.67328 236.48259C438.67328 238.13943 437.3301 239.48259 435.67328 239.48259C434.01642 239.48259 432.67328 238.13943 432.67328 236.48259C432.67328 234.82573 434.01642 233.48259 435.67328 233.48259C437.3301 233.48259 438.67328 234.82573 438.67328 236.48259Z" fill-rule="nonzero"/><path fill="#000000" fill-opacity="0.0" clip-path="url(#id_0)" d="M443.70694 225.06613C443.70694 226.72299 442.3638 228.06613 440.70694 228.06613C439.05008 228.06613 437.70694 226.72299 437.70694 225.06613C437.70694 223.40927 439.05008 222.06613 440.70694 222.06613C442.3638 222.06613 443.70694 223.40927 443.70694 225.06613Z" fill-rule="nonzero"/><path fill="#000000" fill-opacity="0.0" clip-path="url(#id_0)" d="M448.7406 214.03668C448.7406 215.69353 447.39746 217.03668 445.7406 217.03668C444.08374 217.03668 442.7406 215.69353 442.7406 214.03668C442.7406 212.37982 444.08374 211.03668 445.7406 211.03668C447.39746 211.03668 448.7406 212.37982 448.7406 214.03668Z" fill-rule="nonzero"/><path fill="#000000" fill-opacity="0.0" clip-path="url(#id_0)" d="M453.77426 203.39423C453.77426 205.05109 452.43112 206.39423 450.77426 206.39423C449.1174 206.39423 447.77426 205.05109 447.77426 203.39423C447.77426 201.73737 449.1174 200.39423 450.77426 200.39423C452.43112 200.39423 453.77426 201.73737 453.77426 203.39423Z" fill-rule="nonzero"/><path fill="#000000" fill-opacity="0.0" clip-path="url(#id_0)" d="M458.80792 193.13876C458.80792 194.79562 457.46478 196.13876 455.80792 196.13876C454.15106 196.13876 452.80792 194.79562 452.80792 193.13876C452.80792 191.48192 454.15106 190.13876 455.80792 190.13876C457.46478 190.13876 458.80792 191.48192 458.80792 193.13876Z" fill-rule="nonzero"/><path fill="#000000" fill-opacity="0.0" clip-path="url(#id_0)" d="M463.84158 183.27031C463.84158 184.92717 462.49844 186.27031 460.84158 186.27031C459.18472 186.27031 457.84158 184.92717 457.84158 183.27031C457.84158 181.61346 459.18472 180.27031 460.84158 180.27031C462.49844 180.27031 463.84158 181.61346 463.84158 183.27031Z" fill-rule="nonzero"/><path fill="#000000" fill-opacity="0.0" clip-path="url(#id_0)" d="M468.87524 173.78885C468.87524 175.44571 467.5321 176.78885 465.87524 176.78885C464.21838 176.78885 462.87524 175.44571 462.87524 173.78885C462.87524 172.132 464.21838 170.78885 465.87524 170.78885C467.5321 170.78885 468.87524 172.132 468.87524 173.78885Z" fill-rule="nonzero"/><path fill="#000000" fill-opacity="0.0" clip-path="url(#id_0)" d="M473.9089 164.6944C473.9089 166.35124 472.56577 167.6944 470.9089 167.6944C469.25204 167.6944 467.9089 166.35124 467.9089 164.6944C467.9089 163.03754 469.25204 161.6944 470.9089 161.6944C472.56577 161.6944 473.9089 163.03754 473.9089 164.6944Z" fill-rule="nonzero"/><path fill="#000000" fill-opacity="0.0" clip-path="url(#id_0)" d="M478.94257 155.98692C478.94257 157.64378 477.59943 158.98692 475.94257 158.98692C474.2857 158.98692 472.94257 157.64378 472.94257 155.98692C472.94257 154.33008 474.2857 152.98692 475.94257 152.98692C477.59943 152.98692 478.94257 154.33008 478.94257 155.98692Z" fill-rule="nonzero"/><path fill="#000000" fill-opacity="0.0" clip-path="url(#id_0)" d="M483.97623 147.66647C483.97623 149.32332 482.6331 150.66647 480.97623 150.66647C479.3194 150.66647 477.97623 149.32332 477.97623 147.66647C477.97623 146.00961 479.3194 144.66647 480.97623 144.66647C482.6331 144.66647 483.97623 146.00961 483.97623 147.66647Z" fill-rule="nonzero"/><path fill="#000000" fill-opacity="0.0" clip-path="url(#id_0)" d="M489.0099 139.733C489.0099 141.38985 487.66675 142.733 486.0099 142.733C484.35306 142.733 483.0099 141.38985 483.0099 139.733C483.0099 138.07614 484.35306 136.733 486.0099 136.733C487.66675 136.733 489.0099 138.07614 489.0099 139.733Z" fill-rule="nonzero"/><path fill="#000000" fill-opacity="0.0" clip-path="url(#id_0)" d="M494.04358 132.18654C494.04358 133.84338 492.7004 135.18654 491.04358 135.18654C489.38672 135.18654 488.04358 133.84338 488.04358 132.18654C488.04358 130.52968 489.38672 129.18654 491.04358 129.18654C492.7004 129.18654 494.04358 130.52968 494.04358 132.18654Z" fill-rule="nonzero"/><path fill="#000000" fill-opacity="0.0" clip-path="url(#id_0)" d="M499.07724 125.02706C499.07724 126.683914 497.73407 128.02707 496.07724 128.02707C494.42038 128.02707 493.07724 126.683914 493.07724 125.02706C493.07724 123.37021 494.42038 122.02706 496.07724 122.02706C497.73407 122.02706 499.07724 123.37021 499.07724 125.02706Z" fill-rule="nonzero"/><path fill="#000000" fill-opacity="0.0" clip-path="url(#id_0)" d="M504.1109 118.25459C504.1109 119.911446 502.76773 121.25459 501.1109 121.25459C499.45404 121.25459 498.1109 119.911446 498.1109 118.25459C498.1109 116.59774 499.45404 115.25459 501.1109 115.25459C502.76773 115.25459 504.1109 116.59774 504.1109 118.25459Z" fill-rule="nonzero"/><path fill="#000000" fill-opacity="0.0" clip-path="url(#id_0)" d="M509.14456 111.86912C509.14456 113.52597 507.80142 114.86912 506.14456 114.86912C504.4877 114.86912 503.14456 113.52597 503.14456 111.86912C503.14456 110.212265 504.4877 108.86912 506.14456 108.86912C507.80142 108.86912 509.14456 110.212265 509.14456 111.86912Z" fill-rule="nonzero"/><path fill="#000000" fill-opacity="0.0" clip-path="url(#id_0)" d="M514.1782 105.87064C514.1782 107.5275 512.8351 108.87064 511.17822 108.87064C509.52136 108.87064 508.17822 107.5275 508.17822 105.87064C508.17822 104.21379 509.52136 102.87064 511.17822 102.87064C512.8351 102.87064 514.1782 104.21379 514.1782 105.87064Z" fill-rule="nonzero"/><path fill="#000000" fill-opacity="0.0" clip-path="url(#id_0)" d="M519.21185 100.25917C519.21185 101.91602 517.8687 103.25917 516.21185 103.25917C514.55505 103.25917 513.21185 101.91602 513.21185 100.25917C513.21185 98.60232 514.55505 97.25917 516.21185 97.25917C517.8687 97.25917 519.21185 98.60232 519.21185 100.25917Z" fill-rule="nonzero"/><path fill="#000000" fill-opacity="0.0" clip-path="url(#id_0)" d="M524.24554 95.03469C524.24554 96.69154 522.9024 98.03469 521.24554 98.03469C519.5887 98.03469 518.24554 96.69154 518.24554 95.03469C518.24554 93.37784 519.5887 92.03469 521.24554 92.03469C522.9024 92.03469 524.24554 93.37784 524.24554 95.03469Z" fill-rule="nonzero"/><path fill="#000000" fill-opacity="0.0" clip-path="url(#id_0)" d="M529.27924 90.19721C529.27924 91.854065 527.93604 93.19721 526.27924 93.19721C524.6224 93.19721 523.27924 91.854065 523.27924 90.19721C523.27924 88.54036 524.6224 87.19721 526.27924 87.19721C527.93604 87.19721 529.27924 88.54036 529.27924 90.19721Z" fill-rule="nonzero"/><path fill="#000000" fill-opacity="0.0" clip-path="url(#id_0)" d="M534.31287 85.746735C534.31287 87.40359 532.9697 88.746735 531.31287 88.746735C529.656 88.746735 528.31287 87.40359 528.31287 85.746735C528.31287 84.08988 529.656 82.746735 531.31287 82.746735C532.9697 82.746735 534.31287 84.08988 534.31287 85.746735Z" fill-rule="nonzero"/><path fill="#000000" fill-opacity="0.0" clip-path="url(#id_0)" d="M539.34656 81.68325C539.34656 83.3401 538.0034 84.68325 536.34656 84.68325C534.6897 84.68325 533.34656 83.3401 533.34656 81.68325C533.34656 80.0264 534.6897 78.68325 536.34656 78.68325C538.0034 78.68325 539.34656 80.0264 539.34656 81.68325Z" fill-rule="nonzero"/><path fill="#000000" fill-opacity="0.0" clip-path="url(#id_0)" d="M544.3802 78.00677C544.3802 79.66362 543.03705 81.00677 541.3802 81.00677C539.7233 81.00677 538.3802 79.66362 538.3802 78.00677C538.3802 76.349915 539.7233 75.00677 541.3802 75.00677C543.03705 75.00677 544.3802 76.349915 544.3802 78.00677Z" fill-rule="nonzero"/><path fill="#000000" fill-opacity="0.0" clip-path="url(#id_0)" d="M549.4139 74.71728C549.4139 76.37414 548.07074 77.71728 546.4139 77.71728C544.757 77.71728 543.4139 76.37414 543.4139 74.71728C543.4139 73.060425 544.757 71.71728 546.4139 71.71728C548.07074 71.71728 549.4139 73.060425 549.4139 74.71728Z" fill-rule="nonzero"/><path fill="#000000" fill-opacity="0.0" clip-path="url(#id_0)" d="M554.4475 71.81479C554.4475 73.47165 553.1044 74.81479 551.4475 74.81479C549.79065 74.81479 548.4475 73.47165 548.4475 71.81479C548.4475 70.157936 549.79065 68.81479 551.4475 68.81479C553.1044 68.81479 554.4475 70.157936 554.4475 71.81479Z" fill-rule="nonzero"/><path fill="#000000" fill-opacity="0.0" clip-path="url(#id_0)" d="M559.4812 69.2993C559.4812 70.956154 558.13806 72.2993 556.4812 72.2993C554.82434 72.2993 553.4812 70.956154 553.4812 69.2993C553.4812 67.64245 554.82434 66.2993 556.4812 66.2993C558.13806 66.2993 559.4812 67.64245 559.4812 69.2993Z" fill-rule="nonzero"/><path fill="#000000" fill-opacity="0.0" clip-path="url(#id_0)" d="M564.51483 67.170815C564.51483 68.82767 563.1717 70.170815 561.51483 70.170815C559.858 70.170815 558.51483 68.82767 558.51483 67.170815C558.51483 65.51396 559.858 64.170815 561.51483 64.170815C563.1717 64.170815 564.51483 65.51396 564.51483 67.170815Z" fill-rule="nonzero"/><path fill="#000000" fill-opacity="0.0" clip-path="url(#id_0)" d="M569.5485 65.42932C569.5485 67.086174 568.2054 68.42932 566.5485 68.42932C564.89166 68.42932 563.5485 67.086174 563.5485 65.42932C563.5485 63.772465 564.89166 62.42932 566.5485 62.42932C568.2054 62.42932 569.5485 63.772465 569.5485 65.42932Z" fill-rule="nonzero"/><path fill="#000000" fill-opacity="0.0" clip-path="url(#id_0)" d="M574.58215 64.07483C574.58215 65.73168 573.239 67.07483 571.58215 67.07483C569.92535 67.07483 568.58215 65.73168 568.58215 64.07483C568.58215 62.417973 569.92535 61.074825 571.58215 61.074825C573.239 61.074825 574.58215 62.417973 574.58215 64.07483Z" fill-rule="nonzero"/><path fill="#000000" fill-opacity="0.0" clip-path="url(#id_0)" d="M579.61584 63.10733C579.61584 64.76418 578.2727 66.10733 576.61584 66.10733C574.959 66.10733 573.61584 64.76418 573.61584 63.10733C573.61584 61.450478 574.959 60.10733 576.61584 60.10733C578.2727 60.10733 579.61584 61.450478 579.61584 63.10733Z" fill-rule="nonzero"/><path fill="#000000" fill-opacity="0.0" clip-path="url(#id_0)" d="M584.6495 62.526833C584.6495 64.183685 583.30634 65.52683 581.6495 65.52683C579.9927 65.52683 578.6495 64.183685 578.6495 62.526833C578.6495 60.86998 579.9927 59.526833 581.6495 59.526833C583.30634 59.526833 584.6495 60.86998 584.6495 62.526833Z" fill-rule="nonzero"/><path fill="#000000" fill-opacity="0.0" clip-path="url(#id_0)" d="M589.68317 62.333332C589.68317 63.99019 588.34 65.333336 586.68317 65.333336C585.0263 65.333336 583.68317 63.99019 583.68317 62.333332C583.68317 60.67648 585.0263 59.333332 586.68317 59.333332C588.34 59.333332 589.68317 60.67648 589.68317 62.333332Z" fill-rule="nonzero"/><path fill="#000000" d="M336.59375 353.2625L336.75 354.1844Q336.29688 354.27814 335.95312 354.27814Q335.375 354.27814 335.0625 354.10626Q334.75 353.91876 334.60938 353.6219Q334.48438 353.325 334.48438 352.3719L334.48438 348.79376L333.71875 348.79376L333.71875 347.98126L334.48438 347.98126L334.48438 346.4344L335.53125 345.8094L335.53125 347.98126L336.59375 347.98126L336.59375 348.79376L335.53125 348.79376L335.53125 352.4344Q335.53125 352.8875 335.57812 353.0125Q335.64062 353.1375 335.76562 353.21564Q335.89062 353.29376 336.125 353.29376Q336.3125 353.29376 336.59375 353.2625Z" fill-rule="nonzero"/><path fill="#000000" d="M29.800013 192.67291L26.565638 190.40729L23.581263 192.50104L23.581263 191.18854L25.034388 190.23541Q25.456263 189.96979 25.737513 189.79791Q25.346888 189.54791 25.050013 189.32916L23.581263 188.28229L23.581263 187.01666L26.503138 189.17291L29.800013 186.86041L29.800013 188.14166L27.862513 189.42291L27.346888 189.76666L29.800013 191.40729L29.800013 192.67291Z" fill-rule="nonzero"/><path fill="#000000" d="M51.3 317.96564Q51.3 316.4344 51.6125 315.5125Q51.925 314.575 52.534374 314.075Q53.159374 313.575 54.096874 313.575Q54.784374 313.575 55.3 313.85626Q55.83125 314.1375 56.175 314.66876Q56.51875 315.1844 56.70625 315.9344Q56.89375 316.6844 56.89375 317.96564Q56.89375 319.48126 56.58125 320.40314Q56.284374 321.325 55.659374 321.84064Q55.05 322.34064 54.096874 322.34064Q52.8625 322.34064 52.14375 321.45Q51.3 320.3875 51.3 317.96564ZM52.378124 317.96564Q52.378124 320.075 52.878124 320.77814Q53.378124 321.48126 54.096874 321.48126Q54.83125 321.48126 55.315624 320.77814Q55.815624 320.075 55.815624 317.96564Q55.815624 315.84064 55.315624 315.15314Q54.83125 314.45 54.08125 314.45Q53.3625 314.45 52.925 315.0594Q52.378124 315.84064 52.378124 317.96564ZM58.89375 322.2L58.89375 320.9969L60.096874 320.9969L60.096874 322.2L58.89375 322.2ZM61.3 317.96564Q61.3 316.4344 61.6125 315.5125Q61.925 314.575 62.534374 314.075Q63.159374 313.575 64.09688 313.575Q64.78438 313.575 65.3 313.85626Q65.83125 314.1375 66.175 314.66876Q66.51875 315.1844 66.70625 315.9344Q66.89375 316.6844 66.89375 317.96564Q66.89375 319.48126 66.58125 320.40314Q66.28438 321.325 65.65938 321.84064Q65.05 322.34064 64.09688 322.34064Q62.8625 322.34064 62.14375 321.45Q61.3 320.3875 61.3 317.96564ZM62.378124 317.96564Q62.378124 320.075 62.878124 320.77814Q63.378124 321.48126 64.09688 321.48126Q64.83125 321.48126 65.31563 320.77814Q65.81563 320.075 65.81563 317.96564Q65.81563 315.84064 65.31563 315.15314Q64.83125 314.45 64.08125 314.45Q63.3625 314.45 62.925 315.0594Q62.378124 315.84064 62.378124 317.96564ZM68.3 317.96564Q68.3 316.4344 68.6125 315.5125Q68.925 314.575 69.53438 314.075Q70.15938 313.575 71.09688 313.575Q71.78438 313.575 72.3 313.85626Q72.83125 314.1375 73.175 314.66876Q73.51875 315.1844 73.70625 315.9344Q73.89375 316.6844 73.89375 317.96564Q73.89375 319.48126 73.58125 320.40314Q73.28438 321.325 72.65938 321.84064Q72.05 322.34064 71.09688 322.34064Q69.8625 322.34064 69.14375 321.45Q68.3 320.3875 68.3 317.96564ZM69.37813 317.96564Q69.37813 320.075 69.87813 320.77814Q70.37813 321.48126 71.09688 321.48126Q71.83125 321.48126 72.31563 320.77814Q72.81563 320.075 72.81563 317.96564Q72.81563 315.84064 72.31563 315.15314Q71.83125 314.45 71.08125 314.45Q70.3625 314.45 69.925 315.0594Q69.37813 315.84064 69.37813 317.96564Z" fill-rule="nonzero"/><path fill="#000000" d="M51.3 253.99896Q51.3 252.46771 51.6125 251.54584Q51.925 250.60834 52.534374 250.10834Q53.159374 249.60834 54.096874 249.60834Q54.784374 249.60834 55.3 249.88959Q55.83125 250.17084 56.175 250.70209Q56.51875 251.21771 56.70625 251.96771Q56.89375 252.71771 56.89375 253.99896Q56.89375 255.51459 56.58125 256.43646Q56.284374 257.35834 55.659374 257.87396Q55.05 258.37396 54.096874 258.37396Q52.8625 258.37396 52.14375 257.48334Q51.3 256.42084 51.3 253.99896ZM52.378124 253.99896Q52.378124 256.10834 52.878124 256.81146Q53.378124 257.5146 54.096874 257.5146Q54.83125 257.5146 55.315624 256.81146Q55.815624 256.10834 55.815624 253.99896Q55.815624 251.87396 55.315624 251.18646Q54.83125 250.48334 54.08125 250.48334Q53.3625 250.48334 52.925 251.09271Q52.378124 251.87396 52.378124 253.99896ZM58.89375 258.23334L58.89375 257.0302L60.096874 257.0302L60.096874 258.23334L58.89375 258.23334ZM66.84688 257.2177L66.84688 258.23334L61.159374 258.23334Q61.159374 257.85834 61.284374 257.49896Q61.503124 256.92084 61.971874 256.35834Q62.45625 255.79584 63.3625 255.06146Q64.76875 253.90521 65.25313 253.23334Q65.75313 252.56146 65.75313 251.96771Q65.75313 251.34271 65.3 250.92084Q64.84688 250.48334 64.12813 250.48334Q63.3625 250.48334 62.909374 250.93646Q62.45625 251.38959 62.440624 252.20209L61.3625 252.09271Q61.471874 250.87396 62.190624 250.24896Q62.925 249.60834 64.15938 249.60834Q65.39375 249.60834 66.1125 250.29584Q66.83125 250.98334 66.83125 251.99896Q66.83125 252.51459 66.6125 253.01459Q66.40938 253.49896 65.90938 254.06146Q65.425 254.60834 64.3 255.56146Q63.346874 256.35834 63.065624 256.6552Q62.8 256.93646 62.628124 257.2177L66.84688 257.2177ZM68.3 255.98334L69.40938 255.88959Q69.53438 256.7021 69.97188 257.10834Q70.425 257.5146 71.06563 257.5146Q71.81563 257.5146 72.34688 256.93646Q72.87813 256.35834 72.87813 255.42084Q72.87813 254.51459 72.3625 253.99896Q71.8625 253.46771 71.03438 253.46771Q70.53438 253.46771 70.1125 253.70209Q69.70625 253.93646 69.47188 254.29584L68.4875 254.17084L69.31563 249.76459L73.59688 249.76459L73.59688 250.76459L70.15938 250.76459L69.70625 253.07709Q70.47188 252.53021 71.31563 252.53021Q72.44063 252.53021 73.20625 253.31146Q73.9875 254.09271 73.9875 255.32709Q73.9875 256.48334 73.31563 257.3427Q72.4875 258.37396 71.06563 258.37396Q69.89375 258.37396 69.14375 257.7177Q68.40938 257.06146 68.3 255.98334Z" fill-rule="nonzero"/><path fill="#000000" d="M51.3 190.03229Q51.3 188.50104 51.6125 187.57916Q51.925 186.64166 52.534374 186.14166Q53.159374 185.64166 54.096874 185.64166Q54.784374 185.64166 55.3 185.92291Q55.83125 186.20416 56.175 186.73541Q56.51875 187.25104 56.70625 188.00104Q56.89375 188.75104 56.89375 190.03229Q56.89375 191.54791 56.58125 192.46979Q56.284374 193.39166 55.659374 193.90729Q55.05 194.40729 54.096874 194.40729Q52.8625 194.40729 52.14375 193.51666Q51.3 192.45416 51.3 190.03229ZM52.378124 190.03229Q52.378124 192.14166 52.878124 192.84479Q53.378124 193.54791 54.096874 193.54791Q54.83125 193.54791 55.315624 192.84479Q55.815624 192.14166 55.815624 190.03229Q55.815624 187.90729 55.315624 187.21979Q54.83125 186.51666 54.08125 186.51666Q53.3625 186.51666 52.925 187.12604Q52.378124 187.90729 52.378124 190.03229ZM58.89375 194.26666L58.89375 193.06354L60.096874 193.06354L60.096874 194.26666L58.89375 194.26666ZM61.3 192.01666L62.409374 191.92291Q62.534374 192.73541 62.971874 193.14166Q63.425 193.54791 64.06563 193.54791Q64.81563 193.54791 65.34688 192.96979Q65.87813 192.39166 65.87813 191.45416Q65.87813 190.54791 65.3625 190.03229Q64.8625 189.50104 64.03438 189.50104Q63.534374 189.50104 63.1125 189.73541Q62.70625 189.96979 62.471874 190.32916L61.4875 190.20416L62.315624 185.79791L66.59688 185.79791L66.59688 186.79791L63.159374 186.79791L62.70625 189.11041Q63.471874 188.56354 64.31563 188.56354Q65.44063 188.56354 66.20625 189.34479Q66.9875 190.12604 66.9875 191.36041Q66.9875 192.51666 66.31563 193.37604Q65.4875 194.40729 64.06563 194.40729Q62.89375 194.40729 62.14375 193.75104Q61.409374 193.09479 61.3 192.01666ZM68.3 190.03229Q68.3 188.50104 68.6125 187.57916Q68.925 186.64166 69.53438 186.14166Q70.15938 185.64166 71.09688 185.64166Q71.78438 185.64166 72.3 185.92291Q72.83125 186.20416 73.175 186.73541Q73.51875 187.25104 73.70625 188.00104Q73.89375 188.75104 73.89375 190.03229Q73.89375 191.54791 73.58125 192.46979Q73.28438 193.39166 72.65938 193.90729Q72.05 194.40729 71.09688 194.40729Q69.8625 194.40729 69.14375 193.51666Q68.3 192.45416 68.3 190.03229ZM69.37813 190.03229Q69.37813 192.14166 69.87813 192.84479Q70.37813 193.54791 71.09688 193.54791Q71.83125 193.54791 72.31563 192.84479Q72.81563 192.14166 72.81563 190.03229Q72.81563 187.90729 72.31563 187.21979Q71.83125 186.51666 71.08125 186.51666Q70.3625 186.51666 69.925 187.12604Q69.37813 187.90729 69.37813 190.03229Z" fill-rule="nonzero"/><path fill="#000000" d="M51.3 126.06563Q51.3 124.53438 51.6125 123.6125Q51.925 122.675 52.534374 122.175Q53.159374 121.675 54.096874 121.675Q54.784374 121.675 55.3 121.95625Q55.83125 122.2375 56.175 122.76875Q56.51875 123.28438 56.70625 124.03438Q56.89375 124.78438 56.89375 126.06563Q56.89375 127.58125 56.58125 128.50313Q56.284374 129.425 55.659374 129.94063Q55.05 130.44063 54.096874 130.44063Q52.8625 130.44063 52.14375 129.55Q51.3 128.4875 51.3 126.06563ZM52.378124 126.06563Q52.378124 128.175 52.878124 128.87813Q53.378124 129.58125 54.096874 129.58125Q54.83125 129.58125 55.315624 128.87813Q55.815624 128.175 55.815624 126.06563Q55.815624 123.94063 55.315624 123.25313Q54.83125 122.55 54.08125 122.55Q53.3625 122.55 52.925 123.15938Q52.378124 123.94063 52.378124 126.06563ZM58.89375 130.3L58.89375 129.09688L60.096874 129.09688L60.096874 130.3L58.89375 130.3ZM61.3625 122.83125L61.3625 121.81563L66.925 121.81563L66.925 122.64375Q66.1125 123.51875 65.3 124.97188Q64.50313 126.40938 64.06563 127.94063Q63.7375 129.01875 63.659374 130.3L62.565624 130.3Q62.58125 129.28438 62.95625 127.84688Q63.346874 126.40938 64.05 125.08125Q64.76875 123.75313 65.58125 122.83125L61.3625 122.83125ZM68.3 128.05L69.40938 127.95625Q69.53438 128.76875 69.97188 129.175Q70.425 129.58125 71.06563 129.58125Q71.81563 129.58125 72.34688 129.00313Q72.87813 128.425 72.87813 127.4875Q72.87813 126.58125 72.3625 126.06563Q71.8625 125.53438 71.03438 125.53438Q70.53438 125.53438 70.1125 125.76875Q69.70625 126.00313 69.47188 126.3625L68.4875 126.2375L69.31563 121.83125L73.59688 121.83125L73.59688 122.83125L70.15938 122.83125L69.70625 125.14375Q70.47188 124.59688 71.31563 124.59688Q72.44063 124.59688 73.20625 125.37813Q73.9875 126.15938 73.9875 127.39375Q73.9875 128.55 73.31563 129.40938Q72.4875 130.44063 71.06563 130.44063Q69.89375 130.44063 69.14375 129.78438Q68.40938 129.12813 68.3 128.05Z" fill-rule="nonzero"/><path fill="#000000" d="M55.26875 66.333336L54.221874 66.333336L54.221874 59.614586Q53.83125 59.97396 53.20625 60.34896Q52.596874 60.708336 52.1125 60.88021L52.1125 59.864586Q52.9875 59.44271 53.64375 58.864586Q54.315624 58.270836 54.596874 57.708336L55.26875 57.708336L55.26875 66.333336ZM58.89375 66.333336L58.89375 65.13021L60.096874 65.13021L60.096874 66.333336L58.89375 66.333336ZM61.3 62.09896Q61.3 60.56771 61.6125 59.645836Q61.925 58.708336 62.534374 58.208336Q63.159374 57.708336 64.09688 57.708336Q64.78438 57.708336 65.3 57.989586Q65.83125 58.270836 66.175 58.802086Q66.51875 59.31771 66.70625 60.06771Q66.89375 60.81771 66.89375 62.09896Q66.89375 63.614586 66.58125 64.53646Q66.28438 65.458336 65.65938 65.97396Q65.05 66.47396 64.09688 66.47396Q62.8625 66.47396 62.14375 65.583336Q61.3 64.520836 61.3 62.09896ZM62.378124 62.09896Q62.378124 64.208336 62.878124 64.91146Q63.378124 65.614586 64.09688 65.614586Q64.83125 65.614586 65.31563 64.91146Q65.81563 64.208336 65.81563 62.09896Q65.81563 59.97396 65.31563 59.28646Q64.83125 58.583336 64.08125 58.583336Q63.3625 58.583336 62.925 59.19271Q62.378124 59.97396 62.378124 62.09896ZM68.3 62.09896Q68.3 60.56771 68.6125 59.645836Q68.925 58.708336 69.53438 58.208336Q70.15938 57.708336 71.09688 57.708336Q71.78438 57.708336 72.3 57.989586Q72.83125 58.270836 73.175 58.802086Q73.51875 59.31771 73.70625 60.06771Q73.89375 60.81771 73.89375 62.09896Q73.89375 63.614586 73.58125 64.53646Q73.28438 65.458336 72.65938 65.97396Q72.05 66.47396 71.09688 66.47396Q69.8625 66.47396 69.14375 65.583336Q68.3 64.520836 68.3 62.09896ZM69.37813 62.09896Q69.37813 64.208336 69.87813 64.91146Q70.37813 65.614586 71.09688 65.614586Q71.83125 65.614586 72.31563 64.91146Q72.81563 64.208336 72.81563 62.09896Q72.81563 59.97396 72.31563 59.28646Q71.83125 58.583336 71.08125 58.583336Q70.3625 58.583336 69.925 59.19271Q69.37813 59.97396 69.37813 62.09896Z" fill-rule="nonzero"/><path fill="#757575" d="M20.378124 37.8L20.378124 23.4875L30.7375 23.4875L30.7375 25.175L22.284374 25.175L22.284374 29.55L30.190624 29.55L30.190624 31.2375L22.284374 31.2375L22.284374 36.1125L31.065624 36.1125L31.065624 37.8L20.378124 37.8ZM39.89375 36.51875Q38.909374 37.346874 38.003124 37.690624Q37.096874 38.034374 36.065624 38.034374Q34.3625 38.034374 33.440624 37.20625Q32.51875 36.3625 32.51875 35.065624Q32.51875 34.3 32.8625 33.675Q33.221874 33.05 33.784374 32.675Q34.346874 32.284374 35.05 32.08125Q35.565624 31.95625 36.6125 31.815624Q38.7375 31.565624 39.7375 31.221874Q39.753124 30.8625 39.753124 30.753124Q39.753124 29.690624 39.253124 29.2375Q38.58125 28.64375 37.253124 28.64375Q36.003124 28.64375 35.409374 29.08125Q34.83125 29.51875 34.55 30.628124L32.83125 30.39375Q33.065624 29.284374 33.596874 28.6125Q34.128124 27.925 35.14375 27.565624Q36.159374 27.190624 37.503124 27.190624Q38.83125 27.190624 39.659374 27.503124Q40.4875 27.815624 40.878124 28.3Q41.26875 28.76875 41.425 29.4875Q41.51875 29.940624 41.51875 31.1125L41.51875 33.45625Q41.51875 35.909374 41.628124 36.565624Q41.7375 37.20625 42.08125 37.8L40.2375 37.8Q39.971874 37.253124 39.89375 36.51875ZM39.7375 32.596874Q38.784374 32.9875 36.8625 33.253124Q35.784374 33.409374 35.33125 33.6125Q34.89375 33.8 34.64375 34.175Q34.39375 34.55 34.39375 35.01875Q34.39375 35.721874 34.925 36.190624Q35.45625 36.659374 36.4875 36.659374Q37.503124 36.659374 38.284374 36.221874Q39.08125 35.76875 39.45625 35.003124Q39.7375 34.39375 39.7375 33.2375L39.7375 32.596874ZM43.409374 34.70625L45.159374 34.425Q45.3 35.471874 45.971874 36.034374Q46.64375 36.58125 47.846874 36.58125Q49.05 36.58125 49.628124 36.096874Q50.221874 35.596874 50.221874 34.940624Q50.221874 34.346874 49.70625 34.003124Q49.346874 33.76875 47.909374 33.409374Q45.971874 32.909374 45.221874 32.565624Q44.4875 32.20625 44.096874 31.58125Q43.70625 30.940624 43.70625 30.175Q43.70625 29.4875 44.01875 28.89375Q44.346874 28.3 44.89375 27.909374Q45.3 27.6125 46.003124 27.409374Q46.721874 27.190624 47.534374 27.190624Q48.753124 27.190624 49.675 27.55Q50.596874 27.89375 51.034374 28.503124Q51.471874 29.096874 51.64375 30.096874L49.925 30.33125Q49.8 29.534374 49.2375 29.096874Q48.675 28.64375 47.659374 28.64375Q46.440624 28.64375 45.925 29.05Q45.409374 29.440624 45.409374 29.971874Q45.409374 30.315624 45.628124 30.596874Q45.83125 30.878124 46.3 31.065624Q46.565624 31.159374 47.846874 31.503124Q49.721874 32.003124 50.45625 32.33125Q51.190624 32.64375 51.6125 33.253124Q52.034374 33.846874 52.034374 34.753124Q52.034374 35.628124 51.51875 36.409374Q51.003124 37.190624 50.034374 37.6125Q49.065624 38.034374 47.846874 38.034374Q45.83125 38.034374 44.76875 37.190624Q43.70625 36.346874 43.409374 34.70625ZM61.221874 34.45625L63.034374 34.690624Q62.6125 36.26875 61.440624 37.159374Q60.284374 38.034374 58.471874 38.034374Q56.20625 38.034374 54.8625 36.64375Q53.534374 35.2375 53.534374 32.70625Q53.534374 30.08125 54.878124 28.64375Q56.221874 27.190624 58.378124 27.190624Q60.45625 27.190624 61.76875 28.6125Q63.096874 30.01875 63.096874 32.596874Q63.096874 32.753124 63.08125 33.065624L55.346874 33.065624Q55.440624 34.76875 56.315624 35.675Q57.190624 36.58125 58.4875 36.58125Q59.45625 36.58125 60.128124 36.08125Q60.815624 35.565624 61.221874 34.45625ZM55.440624 31.6125L61.2375 31.6125Q61.128124 30.315624 60.58125 29.659374Q59.7375 28.64375 58.39375 28.64375Q57.190624 28.64375 56.3625 29.45625Q55.534374 30.253124 55.440624 31.6125ZM65.65938 37.8L65.65938 23.4875L67.56563 23.4875L67.56563 37.8L65.65938 37.8ZM71.1125 37.8L71.1125 27.425L72.70625 27.425L72.70625 28.909374Q73.84688 27.190624 76.00313 27.190624Q76.94063 27.190624 77.72188 27.534374Q78.51875 27.8625 78.90938 28.409374Q79.3 28.95625 79.45625 29.70625Q79.55 30.20625 79.55 31.425L79.55 37.8L77.78438 37.8L77.78438 31.4875Q77.78438 30.409374 77.58125 29.878124Q77.37813 29.346874 76.84688 29.034374Q76.33125 28.721874 75.62813 28.721874Q74.50313 28.721874 73.69063 29.440624Q72.87813 30.14375 72.87813 32.128124L72.87813 37.8L71.1125 37.8ZM81.26875 37.8L81.26875 23.4875L86.64375 23.4875Q88.28438 23.4875 89.26875 23.925Q90.25313 24.346874 90.81563 25.253124Q91.37813 26.159374 91.37813 27.14375Q91.37813 28.065624 90.87813 28.878124Q90.39375 29.690624 89.37813 30.175Q90.675 30.565624 91.37813 31.4875Q92.08125 32.39375 92.08125 33.64375Q92.08125 34.659374 91.64375 35.51875Q91.22188 36.378124 90.59688 36.846874Q89.97188 37.315624 89.03438 37.565624Q88.09688 37.8 86.72188 37.8L81.26875 37.8ZM83.15938 29.503124L86.25313 29.503124Q87.51875 29.503124 88.06563 29.33125Q88.78438 29.1125 89.14375 28.628124Q89.51875 28.128124 89.51875 27.3625Q89.51875 26.659374 89.175 26.1125Q88.83125 25.565624 88.19063 25.378124Q87.56563 25.175 86.01875 25.175L83.15938 25.175L83.15938 29.503124ZM83.15938 36.1125L86.72188 36.1125Q87.64375 36.1125 88.01875 36.034374Q88.675 35.925 89.1125 35.659374Q89.55 35.378124 89.83125 34.8625Q90.1125 34.33125 90.1125 33.64375Q90.1125 32.846874 89.70625 32.253124Q89.3 31.659374 88.56563 31.425Q87.83125 31.190624 86.47188 31.190624L83.15938 31.190624L83.15938 36.1125ZM93.47188 32.6125Q93.47188 29.7375 95.06563 28.346874Q96.40938 27.190624 98.33125 27.190624Q100.47188 27.190624 101.81563 28.596874Q103.175 30.003124 103.175 32.471874Q103.175 34.471874 102.58125 35.628124Q101.9875 36.76875 100.83125 37.409374Q99.69063 38.034374 98.33125 38.034374Q96.14375 38.034374 94.8 36.64375Q93.47188 35.2375 93.47188 32.6125ZM95.26875 32.6125Q95.26875 34.6125 96.12813 35.596874Q97.00313 36.58125 98.33125 36.58125Q99.64375 36.58125 100.50313 35.596874Q101.37813 34.596874 101.37813 32.55Q101.37813 30.628124 100.50313 29.64375Q99.62813 28.64375 98.33125 28.64375Q97.00313 28.64375 96.12813 29.64375Q95.26875 30.628124 95.26875 32.6125ZM111.90938 37.8L111.90938 36.26875Q110.70625 38.034374 108.62813 38.034374Q107.70625 38.034374 106.90938 37.690624Q106.1125 37.33125 105.72188 36.8Q105.34688 36.26875 105.19063 35.4875Q105.08125 34.971874 105.08125 33.846874L105.08125 27.425L106.83125 27.425L106.83125 33.175Q106.83125 34.55 106.94063 35.034374Q107.1125 35.721874 107.64375 36.128124Q108.19063 36.51875 108.97188 36.51875Q109.76875 36.51875 110.45625 36.1125Q111.15938 35.70625 111.44063 35.01875Q111.7375 34.315624 111.7375 32.9875L111.7375 27.425L113.4875 27.425L113.4875 37.8L111.90938 37.8ZM115.1125 37.8L115.1125 27.425L116.70625 27.425L116.70625 28.909374Q117.84688 27.190624 120.00313 27.190624Q120.94063 27.190624 121.72188 27.534374Q122.51875 27.8625 122.90938 28.409374Q123.3 28.95625 123.45625 29.70625Q123.55 30.20625 123.55 31.425L123.55 37.8L121.78438 37.8L121.78438 31.4875Q121.78438 30.409374 121.58125 29.878124Q121.37813 29.346874 120.84688 29.034374Q120.33125 28.721874 119.62813 28.721874Q118.50313 28.721874 117.69063 29.440624Q116.87813 30.14375 116.87813 32.128124L116.87813 37.8L115.1125 37.8ZM131.89375 34.003124L133.6125 34.221874Q133.33125 36.01875 132.15938 37.034374Q131.00313 38.034374 129.3 38.034374Q127.175 38.034374 125.87813 36.64375Q124.58125 35.253124 124.58125 32.659374Q124.58125 30.971874 125.12813 29.721874Q125.69063 28.45625 126.83125 27.83125Q127.97188 27.190624 129.31563 27.190624Q131.00313 27.190624 132.06563 28.05Q133.14375 28.909374 133.45625 30.471874L131.7375 30.7375Q131.50313 29.690624 130.87813 29.175Q130.25313 28.64375 129.37813 28.64375Q128.05 28.64375 127.22188 29.596874Q126.39375 30.55 126.39375 32.596874Q126.39375 34.690624 127.19063 35.64375Q127.9875 36.58125 129.28438 36.58125Q130.31563 36.58125 131.00313 35.95625Q131.70625 35.315624 131.89375 34.003124ZM142.22188 34.45625L144.03438 34.690624Q143.6125 36.26875 142.44063 37.159374Q141.28438 38.034374 139.47188 38.034374Q137.20625 38.034374 135.8625 36.64375Q134.53438 35.2375 134.53438 32.70625Q134.53438 30.08125 135.87813 28.64375Q137.22188 27.190624 139.37813 27.190624Q141.45625 27.190624 142.76875 28.6125Q144.09688 30.01875 144.09688 32.596874Q144.09688 32.753124 144.08125 33.065624L136.34688 33.065624Q136.44063 34.76875 137.31563 35.675Q138.19063 36.58125 139.4875 36.58125Q140.45625 36.58125 141.12813 36.08125Q141.81563 35.565624 142.22188 34.45625ZM136.44063 31.6125L142.2375 31.6125Q142.12813 30.315624 141.58125 29.659374Q140.7375 28.64375 139.39375 28.64375Q138.19063 28.64375 137.3625 29.45625Q136.53438 30.253124 136.44063 31.6125Z" fill-rule="nonzero"/></svg>