<svg version="1.1" viewBox="0.0 0.0 608.0 376.0" fill="none" stroke="none" stroke-linecap="square" stroke-miterlimit="10" width="608" height="376" xmlns:xlink="http://www.w3.org/1999/xlink" xmlns="http://www.w3.org/2000/svg"><path fill="#ffffff" d="M0 0L608.0 0L608.0 376.0L0 376.0L0 0Z" fill-rule="nonzero"/><path stroke="#333333" stroke-width="1.0" stroke-linecap="butt" d="M80.5 318.5L589.5 318.5" fill-rule="nonzero"/><path stroke="#cccccc" stroke-width="1.0" stroke-linecap="butt" d="M80.5 254.5L589.5 254.5" fill-rule="nonzero"/><path stroke="#cccccc" stroke-width="1.0" stroke-linecap="butt" d="M80.5 190.5L589.5 190.5" fill-rule="nonzero"/><path stroke="#cccccc" stroke-width="1.0" stroke-linecap="butt" d="M80.5 126.5L589.5 126.5" fill-rule="nonzero"/><path stroke="#cccccc" stroke-width="1.0" stroke-linecap="butt" d="M80.5 62.5L589.5 62.5" fill-rule="nonzero"/><path stroke="#000000" stroke-width="1.0" stroke-linecap="butt" d="M80.5 318.5L80.5 62.5" fill-rule="nonzero"/><clipPath id="id_0"><path d="M80.8 62.333332L589.2 62.333332L589.2 318.2L80.8 318.2L80.8 62.333332Z" clip-rule="nonzero"/></clipPath><path stroke="#4285f4" stroke-width="2.0" stroke-linecap="butt" clip-path="url(#id_0)" d="M83.31683 318.2C83.31683 318.2 86.67261 318.08395 88.350494 318.0565C90.02838 318.02902 91.70627 318.0428 93.384155 318.03516C95.06205 318.0275 96.73994 318.0194 98.41782 318.01062C100.09571 318.00186 101.7736 317.99255 103.451485 317.98248C105.12937 317.97238 106.80726 317.9617 108.485146 317.95013C110.16303 317.93854 111.84093 317.92627 113.518814 317.91296C115.1967 317.89966 116.87459 317.8856 118.552475 317.8703C120.23036 317.855 121.90825 317.83884 123.586136 317.82126C125.26402 317.8037 126.94192 317.78513 128.6198 317.76495C130.29768 317.74478 131.97557 317.72342 133.65347 317.70026C135.33136 317.6771 137.00925 317.65256 138.68713 317.62595C140.36502 317.59933 142.04291 317.57117 143.7208 317.5406C145.39868 317.51 147.07657 317.47766 148.75446 317.44254C150.43234 317.4074 152.11023 317.37024 153.78812 317.3299C155.466 317.28958 157.14389 317.24686 158.82178 317.20053C160.49966 317.15417 162.17755 317.10513 163.85544 317.0519C165.53334 316.9987 167.21123 316.94232 168.88911 316.88116C170.567 316.82004 172.24489 316.7553 173.92278 316.68506C175.60066 316.61484 177.27855 316.54047 178.95644 316.4598C180.63432 316.37912 182.31221 316.2937 183.9901 316.20105C185.66798 316.10837 187.34587 316.01025 189.02376 315.9038C190.70164 315.79736 192.37953 315.68463 194.05742 315.56235C195.73532 315.4401 197.41321 315.3106 199.0911 315.17014C200.76898 315.0297 202.44687 314.88095 204.12476 314.7196C205.80264 314.55826 207.48053 314.38742 209.15842 314.2021C210.8363 314.01675 212.51419 313.8205 214.19208 313.6076C215.86996 313.3947 217.54785 313.16928 219.22574 312.9247C220.90363 312.68018 222.58151 312.4212 224.2594 312.1403C225.93729 311.85938 227.61519 311.56192 229.29308 311.23923C230.97096 310.91653 232.64885 310.57483 234.32674 310.20416C236.00462 309.8335 237.68251 309.44098 239.3604 309.0152C241.03828 308.58942 242.71617 308.13855 244.39406 307.64944C246.07195 307.16034 247.74983 306.64243 249.42772 306.0806C251.1056 305.51874 252.7835 304.92383 254.46138 304.27844C256.13928 303.63306 257.81717 302.94968 259.49506 302.20834C261.17294 301.46698 262.85083 300.68198 264.52872 299.8304C266.2066 298.97882 267.8845 298.0771 269.56238 297.09888C271.24026 296.12067 272.91815 295.08484 274.59604 293.96115C276.27393 292.8375 277.9518 291.64764 279.6297 290.3569C281.3076 289.06613 282.98547 287.69934 284.66336 286.21667C286.34125 284.73398 288.01913 283.16394 289.69702 281.4608C291.3749 279.75763 293.0528 277.95416 294.73068 275.99774C296.40857 274.04132 298.08646 271.96967 299.76434 269.72232C301.44223 267.475 303.12012 265.09528 304.79803 262.5138C306.47592 259.93228 308.1538 257.1987 309.8317 254.23334C311.50958 251.26797 313.18747 248.1279 314.86536 244.72159C316.54324 241.31529 318.22113 237.7083 319.89902 233.79547C321.5769 229.88266 323.2548 225.73932 324.93268 221.24466C326.61057 216.75002 328.28845 211.99057 329.96634 206.82756C331.64423 201.66457 333.3221 195.78697 335.0 190.26666C336.6779 184.74637 338.35577 178.86877 340.03366 173.70576C341.71155 168.54277 343.38943 163.78333 345.06732 159.28867C346.7452 154.79402 348.4231 150.65068 350.10098 146.73785C351.77887 142.82503 353.45676 139.21805 355.13464 135.81174C356.81253 132.40543 358.49042 129.26537 360.1683 126.3C361.8462 123.33463 363.52408 120.60105 365.20197 118.019554C366.87988 115.43805 368.55777 113.05833 370.23566 110.811005C371.91354 108.563675 373.59143 106.492004 375.26932 104.53559C376.9472 102.579185 378.6251 100.77569 380.30298 99.07253C381.98087 97.369385 383.65875 95.79935 385.33664 94.316666C387.01453 92.833984 388.6924 91.46719 390.3703 90.176445C392.0482 88.88569 393.72607 87.69583 395.40396 86.57217C397.08185 85.4485 398.75974 84.41267 400.43762 83.43446C402.1155 82.45626 403.7934 81.55451 405.47128 80.702934C407.14917 79.85136 408.82706 79.06634 410.50494 78.325C412.18283 77.58366 413.86072 76.90026 415.5386 76.25489C417.2165 75.60951 418.89438 75.01458 420.57227 74.45275C422.25015 73.89092 423.92804 73.373 425.60593 72.883896C427.2838 72.3948 428.96173 71.943924 430.63962 71.518135C432.3175 71.09235 433.9954 70.69984 435.67328 70.32917C437.35117 69.958496 439.02905 69.6168 440.70694 69.29411C442.38483 68.97142 444.0627 68.67396 445.7406 68.39304C447.4185 68.11213 449.09637 67.853165 450.77426 67.60862C452.45215 67.36407 454.13004 67.138626 455.80792 66.925735C457.4858 66.71284 459.1637 66.51659 460.84158 66.33125C462.51947 66.14591 464.19736 65.97507 465.87524 65.81372C467.55313 65.65238 469.23102 65.50365 470.9089 65.36319C472.5868 65.22273 474.26468 65.093254 475.94257 64.97098C477.62045 64.8487 479.29834 64.73598 480.97623 64.62953C482.6541 64.52309 484.332 64.42496 486.0099 64.33229C487.68777 64.239624 489.36566 64.1542 491.04358 64.073524C492.72147 63.992855 494.39935 63.918488 496.07724 63.84826C497.75513 63.77803 499.433 63.71329 501.1109 63.652153C502.7888 63.591015 504.46667 63.534657 506.14456 63.481434C507.82245 63.42821 509.50034 63.379147 511.17822 63.332813C512.8561 63.28648 514.534 63.243767 516.21185 63.20343C517.8898 63.163094 519.5676 63.12591 521.24554 63.090797C522.92346 63.055683 524.6013 63.02331 526.27924 62.992744C527.9571 62.962173 529.635 62.933994 531.31287 62.907383C532.9908 62.88077 534.66864 62.85624 536.34656 62.833073C538.0244 62.809906 539.70233 62.78855 541.3802 62.768383C543.0581 62.748215 544.73596 62.72962 546.4139 62.712067C548.09174 62.694508 549.76965 62.67832 551.4475 62.66304C553.1254 62.647755 554.8033 62.633663 556.4812 62.620358C558.15906 62.60705 559.837 62.594788 561.51483 62.583202C563.19275 62.57162 564.8706 62.56094 566.5485 62.550858C568.2264 62.540775 569.9043 62.53148 571.58215 62.522697C573.2601 62.51392 574.9379 62.50583 576.61584 62.498184C578.2937 62.490543 579.9716 62.504322 581.6495 62.476845C583.3274 62.44937 586.68317 62.333332 586.68317 62.333332" fill-rule="nonzero"/><path fill="#000000" fill-opacity="0.0" clip-path="url(#id_0)" d="M86.31683 318.2C86.31683 319.85684 84.97369 321.2 83.31683 321.2C81.65998 321.2 80.31683 319.85684 80.31683 318.2C80.31683 316.54315 81.65998 315.2 83.31683 315.2C84.97369 315.2 86.31683 316.54315 86.31683 318.2Z" fill-rule="nonzero"/><path fill="#000000" fill-opacity="0.0" clip-path="url(#id_0)" d="M91.350494 318.0565C91.350494 319.71335 90.00735 321.0565 88.350494 321.0565C86.69364 321.0565 85.350494 319.71335 85.350494 318.0565C85.350494 316.39963 86.69364 315.0565 88.350494 315.0565C90.00735 315.0565 91.350494 316.39963 91.350494 318.0565Z" fill-rule="nonzero"/><path fill="#000000" fill-opacity="0.0" clip-path="url(#id_0)" d="M96.384155 318.03516C96.384155 319.69202 95.041016 321.03516 93.384155 321.03516C91.7273 321.03516 90.384155 319.69202 90.384155 318.03516C90.384155 316.3783 91.7273 315.03516 93.384155 315.03516C95.041016 315.03516 96.384155 316.3783 96.384155 318.03516Z" fill-rule="nonzero"/><path fill="#000000" fill-opacity="0.0" clip-path="url(#id_0)" d="M101.41782 318.01062C101.41782 319.66748 100.07468 321.01062 98.41782 321.01062C96.76097 321.01062 95.41782 319.66748 95.41782 318.01062C95.41782 316.3538 96.76097 315.01062 98.41782 315.01062C100.07468 315.01062 101.41782 316.3538 101.41782 318.01062Z" fill-rule="nonzero"/><path fill="#000000" fill-opacity="0.0" clip-path="url(#id_0)" d="M106.451485 317.98248C106.451485 319.63934 105.10834 320.98248 103.451485 320.98248C101.79463 320.98248 100.451485 319.63934 100.451485 317.98248C100.451485 316.32562 101.79463 314.98248 103.451485 314.98248C105.10834 314.98248 106.451485 316.32562 106.451485 317.98248Z" fill-rule="nonzero"/><path fill="#000000" fill-opacity="0.0" clip-path="url(#id_0)" d="M111.485146 317.95013C111.485146 319.607 110.142006 320.95013 108.485146 320.95013C106.82829 320.95013 105.485146 319.607 105.485146 317.95013C105.485146 316.29327 106.82829 314.95013 108.485146 314.95013C110.142006 314.95013 111.485146 316.29327 111.485146 317.95013Z" fill-rule="nonzero"/><path fill="#000000" fill-opacity="0.0" clip-path="url(#id_0)" d="M116.518814 317.91296C116.518814 319.56982 115.17567 320.91296 113.518814 320.91296C111.86196 320.91296 110.518814 319.56982 110.518814 317.91296C110.518814 316.25613 111.86196 314.91296 113.518814 314.91296C115.17567 314.91296 116.518814 316.25613 116.518814 317.91296Z" fill-rule="nonzero"/><path fill="#000000" fill-opacity="0.0" clip-path="url(#id_0)" d="M121.552475 317.8703C121.552475 319.52716 120.20933 320.8703 118.552475 320.8703C116.89562 320.8703 115.552475 319.52716 115.552475 317.8703C115.552475 316.21344 116.89562 314.8703 118.552475 314.8703C120.20933 314.8703 121.552475 316.21344 121.552475 317.8703Z" fill-rule="nonzero"/><path fill="#000000" fill-opacity="0.0" clip-path="url(#id_0)" d="M126.586136 317.82126C126.586136 319.47812 125.243 320.82126 123.586136 320.82126C121.92928 320.82126 120.586136 319.47812 120.586136 317.82126C120.586136 316.16443 121.92928 314.82126 123.586136 314.82126C125.243 314.82126 126.586136 316.16443 126.586136 317.82126Z" fill-rule="nonzero"/><path fill="#000000" fill-opacity="0.0" clip-path="url(#id_0)" d="M131.6198 317.76495C131.6198 319.4218 130.27666 320.76495 128.6198 320.76495C126.962944 320.76495 125.619804 319.4218 125.619804 317.76495C125.619804 316.1081 126.962944 314.76495 128.6198 314.76495C130.27666 314.76495 131.6198 316.1081 131.6198 317.76495Z" fill-rule="nonzero"/><path fill="#000000" fill-opacity="0.0" clip-path="url(#id_0)" d="M136.65347 317.70026C136.65347 319.35712 135.31032 320.70026 133.65347 320.70026C131.99661 320.70026 130.65347 319.35712 130.65347 317.70026C130.65347 316.0434 131.99661 314.70026 133.65347 314.70026C135.31032 314.70026 136.65347 316.0434 136.65347 317.70026Z" fill-rule="nonzero"/><path fill="#000000" fill-opacity="0.0" clip-path="url(#id_0)" d="M141.68713 317.62595C141.68713 319.2828 140.34398 320.62595 138.68713 320.62595C137.03027 320.62595 135.68713 319.2828 135.68713 317.62595C135.68713 315.9691 137.03027 314.62595 138.68713 314.62595C140.34398 314.62595 141.68713 315.9691 141.68713 317.62595Z" fill-rule="nonzero"/><path fill="#000000" fill-opacity="0.0" clip-path="url(#id_0)" d="M146.7208 317.5406C146.7208 319.19745 145.37764 320.5406 143.7208 320.5406C142.06393 320.5406 140.7208 319.19745 140.7208 317.5406C140.7208 315.88373 142.06393 314.5406 143.7208 314.5406C145.37764 314.5406 146.7208 315.88373 146.7208 317.5406Z" fill-rule="nonzero"/><path fill="#000000" fill-opacity="0.0" clip-path="url(#id_0)" d="M151.75446 317.44254C151.75446 319.0994 150.41132 320.44254 148.75446 320.44254C147.0976 320.44254 145.75446 319.0994 145.75446 317.44254C145.75446 315.78568 147.0976 314.44254 148.75446 314.44254C150.41132 314.44254 151.75446 315.78568 151.75446 317.44254Z" fill-rule="nonzero"/><path fill="#000000" fill-opacity="0.0" clip-path="url(#id_0)" d="M156.78812 317.3299C156.78812 318.98676 155.44498 320.3299 153.78812 320.3299C152.13127 320.3299 150.78812 318.98676 150.78812 317.3299C150.78812 315.67303 152.13127 314.3299 153.78812 314.3299C155.44498 314.3299 156.78812 315.67303 156.78812 317.3299Z" fill-rule="nonzero"/><path fill="#000000" fill-opacity="0.0" clip-path="url(#id_0)" d="M161.82178 317.20053C161.82178 318.85736 160.47864 320.20053 158.82178 320.20053C157.16493 320.20053 155.82178 318.85736 155.82178 317.20053C155.82178 315.54367 157.16493 314.20053 158.82178 314.20053C160.47864 314.20053 161.82178 315.54367 161.82178 317.20053Z" fill-rule="nonzero"/><path fill="#000000" fill-opacity="0.0" clip-path="url(#id_0)" d="M166.85544 317.0519C166.85544 318.70874 165.5123 320.0519 163.85544 320.0519C162.1986 320.0519 160.85544 318.70874 160.85544 317.0519C160.85544 315.39505 162.1986 314.0519 163.85544 314.0519C165.5123 314.0519 166.85544 315.39505 166.85544 317.0519Z" fill-rule="nonzero"/><path fill="#000000" fill-opacity="0.0" clip-path="url(#id_0)" d="M171.88911 316.88116C171.88911 318.53802 170.54596 319.88116 168.88911 319.88116C167.23225 319.88116 165.88911 318.53802 165.88911 316.88116C165.88911 315.22433 167.23225 313.88116 168.88911 313.88116C170.54596 313.88116 171.88911 315.22433 171.88911 316.88116Z" fill-rule="nonzero"/><path fill="#000000" fill-opacity="0.0" clip-path="url(#id_0)" d="M176.92278 316.68506C176.92278 318.34192 175.57962 319.68506 173.92278 319.68506C172.26591 319.68506 170.92278 318.34192 170.92278 316.68506C170.92278 315.02823 172.26591 313.68506 173.92278 313.68506C175.57962 313.68506 176.92278 315.02823 176.92278 316.68506Z" fill-rule="nonzero"/><path fill="#000000" fill-opacity="0.0" clip-path="url(#id_0)" d="M181.95644 316.4598C181.95644 318.11667 180.6133 319.4598 178.95644 319.4598C177.29958 319.4598 175.95644 318.11667 175.95644 316.4598C175.95644 314.80295 177.29958 313.4598 178.95644 313.4598C180.6133 313.4598 181.95644 314.80295 181.95644 316.4598Z" fill-rule="nonzero"/><path fill="#000000" fill-opacity="0.0" clip-path="url(#id_0)" d="M186.9901 316.20105C186.9901 317.8579 185.64696 319.20105 183.9901 319.20105C182.33325 319.20105 180.9901 317.8579 180.9901 316.20105C180.9901 314.5442 182.33325 313.20105 183.9901 313.20105C185.64696 313.20105 186.9901 314.5442 186.9901 316.20105Z" fill-rule="nonzero"/><path fill="#000000" fill-opacity="0.0" clip-path="url(#id_0)" d="M192.02376 315.9038C192.02376 317.56067 190.68062 318.9038 189.02376 318.9038C187.36691 318.9038 186.02376 317.56067 186.02376 315.9038C186.02376 314.24695 187.36691 312.9038 189.02376 312.9038C190.68062 312.9038 192.02376 314.24695 192.02376 315.9038Z" fill-rule="nonzero"/><path fill="#000000" fill-opacity="0.0" clip-path="url(#id_0)" d="M197.05742 315.56235C197.05742 317.2192 195.71428 318.56235 194.05742 318.56235C192.40057 318.56235 191.05742 317.2192 191.05742 315.56235C191.05742 313.90552 192.40057 312.56235 194.05742 312.56235C195.71428 312.56235 197.05742 313.90552 197.05742 315.56235Z" fill-rule="nonzero"/><path fill="#000000" fill-opacity="0.0" clip-path="url(#id_0)" d="M202.0911 315.17014C202.0911 316.827 200.74794 318.17014 199.0911 318.17014C197.43423 318.17014 196.0911 316.827 196.0911 315.17014C196.0911 313.5133 197.43423 312.17014 199.0911 312.17014C200.74794 312.17014 202.0911 313.5133 202.0911 315.17014Z" fill-rule="nonzero"/><path fill="#000000" fill-opacity="0.0" clip-path="url(#id_0)" d="M207.12476 314.7196C207.12476 316.37646 205.7816 317.7196 204.12476 317.7196C202.4679 317.7196 201.12476 316.37646 201.12476 314.7196C201.12476 313.06274 202.4679 311.7196 204.12476 311.7196C205.7816 311.7196 207.12476 313.06274 207.12476 314.7196Z" fill-rule="nonzero"/><path fill="#000000" fill-opacity="0.0" clip-path="url(#id_0)" d="M212.15842 314.2021C212.15842 315.85895 210.81528 317.2021 209.15842 317.2021C207.50156 317.2021 206.15842 315.85895 206.15842 314.2021C206.15842 312.54523 207.50156 311.2021 209.15842 311.2021C210.81528 311.2021 212.15842 312.54523 212.15842 314.2021Z" fill-rule="nonzero"/><path fill="#000000" fill-opacity="0.0" clip-path="url(#id_0)" d="M217.19208 313.6076C217.19208 315.26447 215.84894 316.6076 214.19208 316.6076C212.53523 316.6076 211.19208 315.26447 211.19208 313.6076C211.19208 311.95074 212.53523 310.6076 214.19208 310.6076C215.84894 310.6076 217.19208 311.95074 217.19208 313.6076Z" fill-rule="nonzero"/><path fill="#000000" fill-opacity="0.0" clip-path="url(#id_0)" d="M222.22574 312.9247C222.22574 314.58157 220.8826 315.9247 219.22574 315.9247C217.5689 315.9247 216.22574 314.58157 216.22574 312.9247C216.22574 311.26785 217.5689 309.9247 219.22574 309.9247C220.8826 309.9247 222.22574 311.26785 222.22574 312.9247Z" fill-rule="nonzero"/><path fill="#000000" fill-opacity="0.0" clip-path="url(#id_0)" d="M227.2594 312.1403C227.2594 313.79715 225.91626 315.1403 224.2594 315.1403C222.60255 315.1403 221.2594 313.79715 221.2594 312.1403C221.2594 310.48343 222.60255 309.1403 224.2594 309.1403C225.91626 309.1403 227.2594 310.48343 227.2594 312.1403Z" fill-rule="nonzero"/><path fill="#000000" fill-opacity="0.0" clip-path="url(#id_0)" d="M232.29308 311.23923C232.29308 312.8961 230.94992 314.23923 229.29308 314.23923C227.63622 314.23923 226.29308 312.8961 226.29308 311.23923C226.29308 309.58237 227.63622 308.23923 229.29308 308.23923C230.94992 308.23923 232.29308 309.58237 232.29308 311.23923Z" fill-rule="nonzero"/><path fill="#000000" fill-opacity="0.0" clip-path="url(#id_0)" d="M237.32674 310.20416C237.32674 311.86102 235.98358 313.20416 234.32674 313.20416C232.66988 313.20416 231.32674 311.86102 231.32674 310.20416C231.32674 308.5473 232.66988 307.20416 234.32674 307.20416C235.98358 307.20416 237.32674 308.5473 237.32674 310.20416Z" fill-rule="nonzero"/><path fill="#000000" fill-opacity="0.0" clip-path="url(#id_0)" d="M242.3604 309.0152C242.3604 310.67206 241.01726 312.0152 239.3604 312.0152C237.70354 312.0152 236.3604 310.67206 236.3604 309.0152C236.3604 307.35834 237.70354 306.0152 239.3604 306.0152C241.01726 306.0152 242.3604 307.35834 242.3604 309.0152Z" fill-rule="nonzero"/><path fill="#000000" fill-opacity="0.0" clip-path="url(#id_0)" d="M247.39406 307.64944C247.39406 309.30627 246.05092 310.64944 244.39406 310.64944C242.7372 310.64944 241.39406 309.30627 241.39406 307.64944C241.39406 305.99258 242.7372 304.64944 244.39406 304.64944C246.05092 304.64944 247.39406 305.99258 247.39406 307.64944Z" fill-rule="nonzero"/><path fill="#000000" fill-opacity="0.0" clip-path="url(#id_0)" d="M252.42772 306.0806C252.42772 307.73743 251.08458 309.0806 249.42772 309.0806C247.77087 309.0806 246.42772 307.73743 246.42772 306.0806C246.42772 304.42374 247.77087 303.0806 249.42772 303.0806C251.08458 303.0806 252.42772 304.42374 252.42772 306.0806Z" fill-rule="nonzero"/><path fill="#000000" fill-opacity="0.0" clip-path="url(#id_0)" d="M257.4614 304.27844C257.4614 305.9353 256.11826 307.27844 254.46138 307.27844C252.80453 307.27844 251.46138 305.9353 251.46138 304.27844C251.46138 302.62158 252.80453 301.27844 254.46138 301.27844C256.11826 301.27844 257.4614 302.62158 257.4614 304.27844Z" fill-rule="nonzero"/><path fill="#000000" fill-opacity="0.0" clip-path="url(#id_0)" d="M262.49506 302.20834C262.49506 303.86517 261.15192 305.20834 259.49506 305.20834C257.8382 305.20834 256.49506 303.86517 256.49506 302.20834C256.49506 300.55148 257.8382 299.20834 259.49506 299.20834C261.15192 299.20834 262.49506 300.55148 262.49506 302.20834Z" fill-rule="nonzero"/><path fill="#000000" fill-opacity="0.0" clip-path="url(#id_0)" d="M267.52872 299.8304C267.52872 301.48724 266.18558 302.8304 264.52872 302.8304C262.87186 302.8304 261.52872 301.48724 261.52872 299.8304C261.52872 298.17355 262.87186 296.8304 264.52872 296.8304C266.18558 296.8304 267.52872 298.17355 267.52872 299.8304Z" fill-rule="nonzero"/><path fill="#000000" fill-opacity="0.0" clip-path="url(#id_0)" d="M272.56238 297.09888C272.56238 298.75574 271.21924 300.09888 269.56238 300.09888C267.90552 300.09888 266.56238 298.75574 266.56238 297.09888C266.56238 295.44202 267.90552 294.09888 269.56238 294.09888C271.21924 294.09888 272.56238 295.44202 272.56238 297.09888Z" fill-rule="nonzero"/><path fill="#000000" fill-opacity="0.0" clip-path="url(#id_0)" d="M277.59604 293.96115C277.59604 295.618 276.2529 296.96115 274.59604 296.96115C272.93918 296.96115 271.59604 295.618 271.59604 293.96115C271.59604 292.30432 272.93918 290.96115 274.59604 290.96115C276.2529 290.96115 277.59604 292.30432 277.59604 293.96115Z" fill-rule="nonzero"/><path fill="#000000" fill-opacity="0.0" clip-path="url(#id_0)" d="M282.6297 290.3569C282.6297 292.01373 281.28656 293.3569 279.6297 293.3569C277.97284 293.3569 276.6297 292.01373 276.6297 290.3569C276.6297 288.70004 277.97284 287.3569 279.6297 287.3569C281.28656 287.3569 282.6297 288.70004 282.6297 290.3569Z" fill-rule="nonzero"/><path fill="#000000" fill-opacity="0.0" clip-path="url(#id_0)" d="M287.66336 286.21667C287.66336 287.87354 286.32022 289.21667 284.66336 289.21667C283.0065 289.21667 281.66336 287.87354 281.66336 286.21667C281.66336 284.5598 283.0065 283.21667 284.66336 283.21667C286.32022 283.21667 287.66336 284.5598 287.66336 286.21667Z" fill-rule="nonzero"/><path fill="#000000" fill-opacity="0.0" clip-path="url(#id_0)" d="M292.69702 281.4608C292.69702 283.11765 291.35388 284.4608 289.69702 284.4608C288.04016 284.4608 286.69702 283.11765 286.69702 281.4608C286.69702 279.80396 288.04016 278.4608 289.69702 278.4608C291.35388 278.4608 292.69702 279.80396 292.69702 281.4608Z" fill-rule="nonzero"/><path fill="#000000" fill-opacity="0.0" clip-path="url(#id_0)" d="M297.73068 275.99774C297.73068 277.6546 296.38754 278.99774 294.73068 278.99774C293.07385 278.99774 291.73068 277.6546 291.73068 275.99774C291.73068 274.34088 293.07385 272.99774 294.73068 272.99774C296.38754 272.99774 297.73068 274.34088 297.73068 275.99774Z" fill-rule="nonzero"/><path fill="#000000" fill-opacity="0.0" clip-path="url(#id_0)" d="M302.76434 269.72232C302.76434 271.37918 301.4212 272.72232 299.76434 272.72232C298.1075 272.72232 296.76434 271.37918 296.76434 269.72232C296.76434 268.0655 298.1075 266.72232 299.76434 266.72232C301.4212 266.72232 302.76434 268.0655 302.76434 269.72232Z" fill-rule="nonzero"/><path fill="#000000" fill-opacity="0.0" clip-path="url(#id_0)" d="M307.79803 262.5138C307.79803 264.17062 306.45486 265.5138 304.79803 265.5138C303.14117 265.5138 301.79803 264.17062 301.79803 262.5138C301.79803 260.85693 303.14117 259.5138 304.79803 259.5138C306.45486 259.5138 307.79803 260.85693 307.79803 262.5138Z" fill-rule="nonzero"/><path fill="#000000" fill-opacity="0.0" clip-path="url(#id_0)" d="M312.8317 254.23334C312.8317 255.89018 311.48853 257.23334 309.8317 257.23334C308.17484 257.23334 306.8317 255.89018 306.8317 254.23334C306.8317 252.57648 308.17484 251.23334 309.8317 251.23334C311.48853 251.23334 312.8317 252.57648 312.8317 254.23334Z" fill-rule="nonzero"/><path fill="#000000" fill-opacity="0.0" clip-path="url(#id_0)" d="M317.86536 244.72159C317.86536 246.37845 316.5222 247.72159 314.86536 247.72159C313.2085 247.72159 311.86536 246.37845 311.86536 244.72159C311.86536 243.06474 313.2085 241.72159 314.86536 241.72159C316.5222 241.72159 317.86536 243.06474 317.86536 244.72159Z" fill-rule="nonzero"/><path fill="#000000" fill-opacity="0.0" clip-path="url(#id_0)" d="M322.89902 233.79547C322.89902 235.45233 321.55588 236.79547 319.89902 236.79547C318.24216 236.79547 316.89902 235.45233 316.89902 233.79547C316.89902 232.13863 318.24216 230.79547 319.89902 230.79547C321.55588 230.79547 322.89902 232.13863 322.89902 233.79547Z" fill-rule="nonzero"/><path fill="#000000" fill-opacity="0.0" clip-path="url(#id_0)" d="M327.93268 221.24466C327.93268 222.90152 326.58954 224.24466 324.93268 224.24466C323.27582 224.24466 321.93268 222.90152 321.93268 221.24466C321.93268 219.58781 323.27582 218.24466 324.93268 218.24466C326.58954 218.24466 327.93268 219.58781 327.93268 221.24466Z" fill-rule="nonzero"/><path fill="#000000" fill-opacity="0.0" clip-path="url(#id_0)" d="M332.96634 206.82756C332.96634 208.48442 331.6232 209.82756 329.96634 209.82756C328.30948 209.82756 326.96634 208.48442 326.96634 206.82756C326.96634 205.17072 328.30948 203.82756 329.96634 203.82756C331.6232 203.82756 332.96634 205.17072 332.96634 206.82756Z" fill-rule="nonzero"/><path fill="#000000" fill-opacity="0.0" clip-path="url(#id_0)" d="M338.0 190.26666C338.0 191.92352 336.65686 193.26666 335.0 193.26666C333.34314 193.26666 332.0 191.92352 332.0 190.26666C332.0 188.60982 333.34314 187.26666 335.0 187.26666C336.65686 187.26666 338.0 188.60982 338.0 190.26666Z" fill-rule="nonzero"/><path fill="#000000" fill-opacity="0.0" clip-path="url(#id_0)" d="M343.03366 173.70576C343.03366 175.36263 341.69052 176.70576 340.03366 176.70576C338.3768 176.70576 337.03366 175.36263 337.03366 173.70576C337.03366 172.04892 338.3768 170.70576 340.03366 170.70576C341.69052 170.70576 343.03366 172.04892 343.03366 173.70576Z" fill-rule="nonzero"/><path fill="#000000" fill-opacity="0.0" clip-path="url(#id_0)" d="M348.06732 159.28867C348.06732 160.94553 346.72418 162.28867 345.06732 162.28867C343.41046 162.28867 342.06732 160.94553 342.06732 159.28867C342.06732 157.63182 343.41046 156.28867 345.06732 156.28867C346.72418 156.28867 348.06732 157.63182 348.06732 159.28867Z" fill-rule="nonzero"/><path fill="#000000" fill-opacity="0.0" clip-path="url(#id_0)" d="M353.10098 146.73785C353.10098 148.39471 351.75784 149.73785 350.10098 149.73785C348.44412 149.73785 347.10098 148.39471 347.10098 146.73785C347.10098 145.08101 348.44412 143.73785 350.10098 143.73785C351.75784 143.73785 353.10098 145.08101 353.10098 146.73785Z" fill-rule="nonzero"/><path fill="#000000" fill-opacity="0.0" clip-path="url(#id_0)" d="M358.13464 135.81174C358.13464 137.4686 356.7915 138.81174 355.13464 138.81174C353.4778 138.81174 352.13464 137.4686 352.13464 135.81174C352.13464 134.15488 353.4778 132.81174 355.13464 132.81174C356.7915 132.81174 358.13464 134.15488 358.13464 135.81174Z" fill-rule="nonzero"/><path fill="#000000" fill-opacity="0.0" clip-path="url(#id_0)" d="M363.1683 126.3C363.1683 127.956856 361.82516 129.3 360.1683 129.3C358.51147 129.3 357.1683 127.956856 357.1683 126.3C357.1683 124.64314 358.51147 123.3 360.1683 123.3C361.82516 123.3 363.1683 124.64314 363.1683 126.3Z" fill-rule="nonzero"/><path fill="#000000" fill-opacity="0.0" clip-path="url(#id_0)" d="M368.20197 118.019554C368.20197 119.67641 366.85883 121.019554 365.20197 121.019554C363.54514 121.019554 362.20197 119.67641 362.20197 118.019554C362.20197 116.36269 363.54514 115.019554 365.20197 115.019554C366.85883 115.019554 368.20197 116.36269 368.20197 118.019554Z" fill-rule="nonzero"/><path fill="#000000" fill-opacity="0.0" clip-path="url(#id_0)" d="M373.23566 110.811005C373.23566 112.46786 371.8925 113.811005 370.23566 113.811005C368.5788 113.811005 367.23566 112.46786 367.23566 110.811005C367.23566 109.154144 368.5788 107.811005 370.23566 107.811005C371.8925 107.811005 373.23566 109.154144 373.23566 110.811005Z" fill-rule="nonzero"/><path fill="#000000" fill-opacity="0.0" clip-path="url(#id_0)" d="M378.26932 104.53559C378.26932 106.19245 376.92615 107.53559 375.26932 107.53559C373.61246 107.53559 372.26932 106.19245 372.26932 104.53559C372.26932 102.87874 373.61246 101.53559 375.26932 101.53559C376.92615 101.53559 378.26932 102.87874 378.26932 104.53559Z" fill-rule="nonzero"/><path fill="#000000" fill-opacity="0.0" clip-path="url(#id_0)" d="M383.30298 99.07253C383.30298 100.72939 381.95984 102.07253 380.30298 102.07253C378.64612 102.07253 377.30298 100.72939 377.30298 99.07253C377.30298 97.41568 378.64612 96.07253 380.30298 96.07253C381.95984 96.07253 383.30298 97.41568 383.30298 99.07253Z" fill-rule="nonzero"/><path fill="#000000" fill-opacity="0.0" clip-path="url(#id_0)" d="M388.33664 94.316666C388.33664 95.97352 386.9935 97.316666 385.33664 97.316666C383.67978 97.316666 382.33664 95.97352 382.33664 94.316666C382.33664 92.65981 383.67978 91.316666 385.33664 91.316666C386.9935 91.316666 388.33664 92.65981 388.33664 94.316666Z" fill-rule="nonzero"/><path fill="#000000" fill-opacity="0.0" clip-path="url(#id_0)" d="M393.3703 90.176445C393.3703 91.8333 392.02716 93.176445 390.3703 93.176445C388.71344 93.176445 387.3703 91.8333 387.3703 90.176445C387.3703 88.519585 388.71344 87.176445 390.3703 87.176445C392.02716 87.176445 393.3703 88.519585 393.3703 90.176445Z" fill-rule="nonzero"/><path fill="#000000" fill-opacity="0.0" clip-path="url(#id_0)" d="M398.40396 86.57217C398.40396 88.22902 397.06082 89.57217 395.40396 89.57217C393.7471 89.57217 392.40396 88.22902 392.40396 86.57217C392.40396 84.91531 393.7471 83.57217 395.40396 83.57217C397.06082 83.57217 398.40396 84.91531 398.40396 86.57217Z" fill-rule="nonzero"/><path fill="#000000" fill-opacity="0.0" clip-path="url(#id_0)" d="M403.43762 83.43446C403.43762 85.09132 402.09448 86.43446 400.43762 86.43446C398.78076 86.43446 397.43762 85.09132 397.43762 83.43446C397.43762 81.77761 398.78076 80.43446 400.43762 80.43446C402.09448 80.43446 403.43762 81.77761 403.43762 83.43446Z" fill-rule="nonzero"/><path fill="#000000" fill-opacity="0.0" clip-path="url(#id_0)" d="M408.47128 80.702934C408.47128 82.35979 407.12814 83.702934 405.47128 83.702934C403.81442 83.702934 402.47128 82.35979 402.47128 80.702934C402.47128 79.04608 403.81442 77.702934 405.47128 77.702934C407.12814 77.702934 408.47128 79.04608 408.47128 80.702934Z" fill-rule="nonzero"/><path fill="#000000" fill-opacity="0.0" clip-path="url(#id_0)" d="M413.50494 78.325C413.50494 79.98186 412.1618 81.325 410.50494 81.325C408.84808 81.325 407.50494 79.98186 407.50494 78.325C407.50494 76.668144 408.84808 75.325 410.50494 75.325C412.1618 75.325 413.50494 76.668144 413.50494 78.325Z" fill-rule="nonzero"/><path fill="#000000" fill-opacity="0.0" clip-path="url(#id_0)" d="M418.5386 76.25489C418.5386 77.91174 417.19547 79.25489 415.5386 79.25489C413.88174 79.25489 412.5386 77.91174 412.5386 76.25489C412.5386 74.59803 413.88174 73.25489 415.5386 73.25489C417.19547 73.25489 418.5386 74.59803 418.5386 76.25489Z" fill-rule="nonzero"/><path fill="#000000" fill-opacity="0.0" clip-path="url(#id_0)" d="M423.57227 74.45275C423.57227 76.109604 422.22913 77.45275 420.57227 77.45275C418.91544 77.45275 417.57227 76.109604 417.57227 74.45275C417.57227 72.7959 418.91544 71.45275 420.57227 71.45275C422.22913 71.45275 423.57227 72.7959 423.57227 74.45275Z" fill-rule="nonzero"/><path fill="#000000" fill-opacity="0.0" clip-path="url(#id_0)" d="M428.60593 72.883896C428.60593 74.54076 427.2628 75.883896 425.60593 75.883896C423.9491 75.883896 422.60593 74.54076 422.60593 72.883896C422.60593 71.22704 423.9491 69.883896 425.60593 69.883896C427.2628 69.883896 428.60593 71.22704 428.60593 72.883896Z" fill-rule="nonzero"/><path fill="#000000" fill-opacity="0.0" clip-path="url(#id_0)" d="M433.63962 71.518135C433.63962 73.17499 432.29645 74.518135 430.63962 74.518135C428.98276 74.518135 427.63962 73.17499 427.63962 71.518135C427.63962 69.86128 428.98276 68.518135 430.63962 68.518135C432.29645 68.518135 433.63962 69.86128 433.63962 71.518135Z" fill-rule="nonzero"/><path fill="#000000" fill-opacity="0.0" clip-path="url(#id_0)" d="M438.67328 70.32917C438.67328 71.98602 437.3301 73.32917 435.67328 73.32917C434.01642 73.32917 432.67328 71.98602 432.67328 70.32917C432.67328 68.67231 434.01642 67.32917 435.67328 67.32917C437.3301 67.32917 438.67328 68.67231 438.67328 70.32917Z" fill-rule="nonzero"/><path fill="#000000" fill-opacity="0.0" clip-path="url(#id_0)" d="M443.70694 69.29411C443.70694 70.950966 442.3638 72.29411 440.70694 72.29411C439.05008 72.29411 437.70694 70.950966 437.70694 69.29411C437.70694 67.63725 439.05008 66.29411 440.70694 66.29411C442.3638 66.29411 443.70694 67.63725 443.70694 69.29411Z" fill-rule="nonzero"/><path fill="#000000" fill-opacity="0.0" clip-path="url(#id_0)" d="M448.7406 68.39304C448.7406 70.0499 447.39746 71.39304 445.7406 71.39304C444.08374 71.39304 442.7406 70.0499 442.7406 68.39304C442.7406 66.73619 444.08374 65.39304 445.7406 65.39304C447.39746 65.39304 448.7406 66.73619 448.7406 68.39304Z" fill-rule="nonzero"/><path fill="#000000" fill-opacity="0.0" clip-path="url(#id_0)" d="M453.77426 67.60862C453.77426 69.26547 452.43112 70.60862 450.77426 70.60862C449.1174 70.60862 447.77426 69.26547 447.77426 67.60862C447.77426 65.95176 449.1174 64.60862 450.77426 64.60862C452.43112 64.60862 453.77426 65.95176 453.77426 67.60862Z" fill-rule="nonzero"/><path fill="#000000" fill-opacity="0.0" clip-path="url(#id_0)" d="M458.80792 66.925735C458.80792 68.58259 457.46478 69.925735 455.80792 69.925735C454.15106 69.925735 452.80792 68.58259 452.80792 66.925735C452.80792 65.26888 454.15106 63.925735 455.80792 63.925735C457.46478 63.925735 458.80792 65.26888 458.80792 66.925735Z" fill-rule="nonzero"/><path fill="#000000" fill-opacity="0.0" clip-path="url(#id_0)" d="M463.84158 66.33125C463.84158 67.988106 462.49844 69.33125 460.84158 69.33125C459.18472 69.33125 457.84158 67.988106 457.84158 66.33125C457.84158 64.67439 459.18472 63.33125 460.84158 63.33125C462.49844 63.33125 463.84158 64.67439 463.84158 66.33125Z" fill-rule="nonzero"/><path fill="#000000" fill-opacity="0.0" clip-path="url(#id_0)" d="M468.87524 65.81372C468.87524 67.47057 467.5321 68.81372 465.87524 68.81372C464.21838 68.81372 462.87524 67.47057 462.87524 65.81372C462.87524 64.15687 464.21838 62.81372 465.87524 62.81372C467.5321 62.81372 468.87524 64.15687 468.87524 65.81372Z" fill-rule="nonzero"/><path fill="#000000" fill-opacity="0.0" clip-path="url(#id_0)" d="M473.9089 65.36319C473.9089 67.02004 472.56577 68.36319 470.9089 68.36319C469.25204 68.36319 467.9089 67.02004 467.9089 65.36319C467.9089 63.706333 469.25204 62.363186 470.9089 62.363186C472.56577 62.363186 473.9089 63.706333 473.9089 65.36319Z" fill-rule="nonzero"/><path fill="#000000" fill-opacity="0.0" clip-path="url(#id_0)" d="M478.94257 64.97098C478.94257 66.62783 477.59943 67.97098 475.94257 67.97098C474.2857 67.97098 472.94257 66.62783 472.94257 64.97098C472.94257 63.31412 474.2857 61.970974 475.94257 61.970974C477.59943 61.970974 478.94257 63.31412 478.94257 64.97098Z" fill-rule="nonzero"/><path fill="#000000" fill-opacity="0.0" clip-path="url(#id_0)" d="M483.97623 64.62953C483.97623 66.286385 482.6331 67.62953 480.97623 67.62953C479.3194 67.62953 477.97623 66.286385 477.97623 64.62953C477.97623 62.97268 479.3194 61.62953 480.97623 61.62953C482.6331 61.62953 483.97623 62.97268 483.97623 64.62953Z" fill-rule="nonzero"/><path fill="#000000" fill-opacity="0.0" clip-path="url(#id_0)" d="M489.0099 64.33229C489.0099 65.98914 487.66675 67.33229 486.0099 67.33229C484.35306 67.33229 483.0099 65.98914 483.0099 64.33229C483.0099 62.675438 484.35306 61.33229 486.0099 61.33229C487.66675 61.33229 489.0099 62.675438 489.0099 64.33229Z" fill-rule="nonzero"/><path fill="#000000" fill-opacity="0.0" clip-path="url(#id_0)" d="M494.04358 64.073524C494.04358 65.730385 492.7004 67.073524 491.04358 67.073524C489.38672 67.073524 488.04358 65.730385 488.04358 64.073524C488.04358 62.41667 489.38672 61.07353 491.04358 61.07353C492.7004 61.07353 494.04358 62.41667 494.04358 64.073524Z" fill-rule="nonzero"/><path fill="#000000" fill-opacity="0.0" clip-path="url(#id_0)" d="M499.07724 63.84826C499.07724 65.50511 497.73407 66.84826 496.07724 66.84826C494.42038 66.84826 493.07724 65.50511 493.07724 63.84826C493.07724 62.191406 494.42038 60.84826 496.07724 60.84826C497.73407 60.84826 499.07724 62.191406 499.07724 63.84826Z" fill-rule="nonzero"/><path fill="#000000" fill-opacity="0.0" clip-path="url(#id_0)" d="M504.1109 63.652153C504.1109 65.309006 502.76773 66.65215 501.1109 66.65215C499.45404 66.65215 498.1109 65.309006 498.1109 63.652153C498.1109 61.9953 499.45404 60.652153 501.1109 60.652153C502.76773 60.652153 504.1109 61.9953 504.1109 63.652153Z" fill-rule="nonzero"/><path fill="#000000" fill-opacity="0.0" clip-path="url(#id_0)" d="M509.14456 63.481434C509.14456 65.13829 507.80142 66.48143 506.14456 66.48143C504.4877 66.48143 503.14456 65.13829 503.14456 63.481434C503.14456 61.824577 504.4877 60.481434 506.14456 60.481434C507.80142 60.481434 509.14456 61.824577 509.14456 63.481434Z" fill-rule="nonzero"/><path fill="#000000" fill-opacity="0.0" clip-path="url(#id_0)" d="M514.1782 63.332813C514.1782 64.98967 512.8351 66.33281 511.17822 66.33281C509.52136 66.33281 508.17822 64.98967 508.17822 63.332813C508.17822 61.675957 509.52136 60.332813 511.17822 60.332813C512.8351 60.332813 514.1782 61.675957 514.1782 63.332813Z" fill-rule="nonzero"/><path fill="#000000" fill-opacity="0.0" clip-path="url(#id_0)" d="M519.21185 63.20343C519.21185 64.86028 517.8687 66.20343 516.21185 66.20343C514.55505 66.20343 513.21185 64.86028 513.21185 63.20343C513.21185 61.546577 514.55505 60.20343 516.21185 60.20343C517.8687 60.20343 519.21185 61.546577 519.21185 63.20343Z" fill-rule="nonzero"/><path fill="#000000" fill-opacity="0.0" clip-path="url(#id_0)" d="M524.24554 63.090797C524.24554 64.74765 522.9024 66.0908 521.24554 66.0908C519.5887 66.0908 518.24554 64.74765 518.24554 63.090797C518.24554 61.43394 519.5887 60.090797 521.24554 60.090797C522.9024 60.090797 524.24554 61.43394 524.24554 63.090797Z" fill-rule="nonzero"/><path fill="#000000" fill-opacity="0.0" clip-path="url(#id_0)" d="M529.27924 62.992744C529.27924 64.6496 527.93604 65.992744 526.27924 65.992744C524.6224 65.992744 523.27924 64.6496 523.27924 62.992744C523.27924 61.335888 524.6224 59.992744 526.27924 59.992744C527.93604 59.992744 529.27924 61.335888 529.27924 62.992744Z" fill-rule="nonzero"/><path fill="#000000" fill-opacity="0.0" clip-path="url(#id_0)" d="M534.31287 62.907383C534.31287 64.56424 532.9697 65.90739 531.31287 65.90739C529.656 65.90739 528.31287 64.56424 528.31287 62.907383C528.31287 61.25053 529.656 59.907383 531.31287 59.907383C532.9697 59.907383 534.31287 61.25053 534.31287 62.907383Z" fill-rule="nonzero"/><path fill="#000000" fill-opacity="0.0" clip-path="url(#id_0)" d="M539.34656 62.833073C539.34656 64.48993 538.0034 65.83308 536.34656 65.83308C534.6897 65.83308 533.34656 64.48993 533.34656 62.833073C533.34656 61.17622 534.6897 59.833073 536.34656 59.833073C538.0034 59.833073 539.34656 61.17622 539.34656 62.833073Z" fill-rule="nonzero"/><path fill="#000000" fill-opacity="0.0" clip-path="url(#id_0)" d="M544.3802 62.768383C544.3802 64.42524 543.03705 65.76838 541.3802 65.76838C539.7233 65.76838 538.3802 64.42524 538.3802 62.768383C538.3802 61.111526 539.7233 59.768383 541.3802 59.768383C543.03705 59.768383 544.3802 61.111526 544.3802 62.768383Z" fill-rule="nonzero"/><path fill="#000000" fill-opacity="0.0" clip-path="url(#id_0)" d="M549.4139 62.712067C549.4139 64.36892 548.07074 65.71207 546.4139 65.71207C544.757 65.71207 543.4139 64.36892 543.4139 62.712067C543.4139 61.05521 544.757 59.712067 546.4139 59.712067C548.07074 59.712067 549.4139 61.05521 549.4139 62.712067Z" fill-rule="nonzero"/><path fill="#000000" fill-opacity="0.0" clip-path="url(#id_0)" d="M554.4475 62.66304C554.4475 64.31989 553.1044 65.66304 551.4475 65.66304C549.79065 65.66304 548.4475 64.31989 548.4475 62.66304C548.4475 61.006184 549.79065 59.66304 551.4475 59.66304C553.1044 59.66304 554.4475 61.006184 554.4475 62.66304Z" fill-rule="nonzero"/><path fill="#000000" fill-opacity="0.0" clip-path="url(#id_0)" d="M559.4812 62.620358C559.4812 64.277214 558.13806 65.62036 556.4812 65.62036C554.82434 65.62036 553.4812 64.277214 553.4812 62.620358C553.4812 60.963505 554.82434 59.620358 556.4812 59.620358C558.13806 59.620358 559.4812 60.963505 559.4812 62.620358Z" fill-rule="nonzero"/><path fill="#000000" fill-opacity="0.0" clip-path="url(#id_0)" d="M564.51483 62.583202C564.51483 64.24006 563.1717 65.583206 561.51483 65.583206C559.858 65.583206 558.51483 64.24006 558.51483 62.583202C558.51483 60.92635 559.858 59.583202 561.51483 59.583202C563.1717 59.583202 564.51483 60.92635 564.51483 62.583202Z" fill-rule="nonzero"/><path fill="#000000" fill-opacity="0.0" clip-path="url(#id_0)" d="M569.5485 62.550858C569.5485 64.20771 568.2054 65.55086 566.5485 65.55086C564.89166 65.55086 563.5485 64.20771 563.5485 62.550858C563.5485 60.894005 564.89166 59.550858 566.5485 59.550858C568.2054 59.550858 569.5485 60.894005 569.5485 62.550858Z" fill-rule="nonzero"/><path fill="#000000" fill-opacity="0.0" clip-path="url(#id_0)" d="M574.58215 62.522697C574.58215 64.17955 573.239 65.5227 571.58215 65.5227C569.92535 65.5227 568.58215 64.17955 568.58215 62.522697C568.58215 60.865845 569.92535 59.522697 571.58215 59.522697C573.239 59.522697 574.58215 60.865845 574.58215 62.522697Z" fill-rule="nonzero"/><path fill="#000000" fill-opacity="0.0" clip-path="url(#id_0)" d="M579.61584 62.498184C579.61584 64.15504 578.2727 65.498184 576.61584 65.498184C574.959 65.498184 573.61584 64.15504 573.61584 62.498184C573.61584 60.84133 574.959 59.498184 576.61584 59.498184C578.2727 59.498184 579.61584 60.84133 579.61584 62.498184Z" fill-rule="nonzero"/><path fill="#000000" fill-opacity="0.0" clip-path="url(#id_0)" d="M584.6495 62.476845C584.6495 64.1337 583.30634 65.476845 581.6495 65.476845C579.9927 65.476845 578.6495 64.1337 578.6495 62.476845C578.6495 60.819992 579.9927 59.476845 581.6495 59.476845C583.30634 59.476845 584.6495 60.819992 584.6495 62.476845Z" fill-rule="nonzero"/><path fill="#000000" fill-opacity="0.0" clip-path="url(#id_0)" d="M589.68317 62.333332C589.68317 63.99019 588.34 65.333336 586.68317 65.333336C585.0263 65.333336 583.68317 63.99019 583.68317 62.333332C583.68317 60.67648 585.0263 59.333332 586.68317 59.333332C588.34 59.333332 589.68317 60.67648 589.68317 62.333332Z" fill-rule="nonzero"/><path fill="#000000" d="M336.59375 353.2625L336.75 354.1844Q336.29688 354.27814 335.95312 354.27814Q335.375 354.27814 335.0625 354.10626Q334.75 353.91876 334.60938 353.6219Q334.48438 353.325 334.48438 352.3719L334.48438 348.79376L333.71875 348.79376L333.71875 347.98126L334.48438 347.98126L334.48438 346.4344L335.53125 345.8094L335.53125 347.98126L336.59375 347.98126L336.59375 348.79376L335.53125 348.79376L335.53125 352.4344Q335.53125 352.8875 335.57812 353.0125Q335.64062 353.1375 335.76562 353.21564Q335.89062 353.29376 336.125 353.29376Q336.3125 353.29376 336.59375 353.2625Z" fill-rule="nonzero"/><path fill="#000000" d="M29.800013 192.67291L26.565638 190.40729L23.581263 192.50104L23.581263 191.18854L25.034388 190.23541Q25.456263 189.96979 25.737513 189.79791Q25.346888 189.54791 25.050013 189.32916L23.581263 188.28229L23.581263 187.01666L26.503138 189.17291L29.800013 186.86041L29.800013 188.14166L27.862513 189.42291L27.346888 189.76666L29.800013 191.40729L29.800013 192.67291Z" fill-rule="nonzero"/><path fill="#000000" d="M51.3 317.96564Q51.3 316.4344 51.6125 315.5125Q51.925 314.575 52.534374 314.075Q53.159374 313.575 54.096874 313.575Q54.784374 313.575 55.3 313.85626Q55.83125 314.1375 56.175 314.66876Q56.51875 315.1844 56.70625 315.9344Q56.89375 316.6844 56.89375 317.96564Q56.89375 319.48126 56.58125 320.40314Q56.284374 321.325 55.659374 321.84064Q55.05 322.34064 54.096874 322.34064Q52.8625 322.34064 52.14375 321.45Q51.3 320.3875 51.3 317.96564ZM52.378124 317.96564Q52.378124 320.075 52.878124 320.77814Q53.378124 321.48126 54.096874 321.48126Q54.83125 321.48126 55.315624 320.77814Q55.815624 320.075 55.815624 317.96564Q55.815624 315.84064 55.315624 315.15314Q54.83125 314.45 54.08125 314.45Q53.3625 314.45 52.925 315.0594Q52.378124 315.84064 52.378124 317.96564ZM58.89375 322.2L58.89375 320.9969L60.096874 320.9969L60.096874 322.2L58.89375 322.2ZM61.3 317.96564Q61.3 316.4344 61.6125 315.5125Q61.925 314.575 62.534374 314.075Q63.159374 313.575 64.09688 313.575Q64.78438 313.575 65.3 313.85626Q65.83125 314.1375 66.175 314.66876Q66.51875 315.1844 66.70625 315.9344Q66.89375 316.6844 66.89375 317.96564Q66.89375 319.48126 66.58125 320.40314Q66.28438 321.325 65.65938 321.84064Q65.05 322.34064 64.09688 322.34064Q62.8625 322.34064 62.14375 321.45Q61.3 320.3875 61.3 317.96564ZM62.378124 317.96564Q62.378124 320.075 62.878124 320.77814Q63.378124 321.48126 64.09688 321.48126Q64.83125 321.48126 65.31563 320.77814Q65.81563 320.075 65.81563 317.96564Q65.81563 315.84064 65.31563 315.15314Q64.83125 314.45 64.08125 314.45Q63.3625 314.45 62.925 315.0594Q62.378124 315.84064 62.378124 317.96564ZM68.3 317.96564Q68.3 316.4344 68.6125 315.5125Q68.925 314.575 69.53438 314.075Q70.15938 313.575 71.09688 313.575Q71.78438 313.575 72.3 313.85626Q72.83125 314.1375 73.175 314.66876Q73.51875 315.1844 73.70625 315.9344Q73.89375 316.6844 73.89375 317.96564Q73.89375 319.48126 73.58125 320.40314Q73.28438 321.325 72.65938 321.84064Q72.05 322.34064 71.09688 322.34064Q69.8625 322.34064 69.14375 321.45Q68.3 320.3875 68.3 317.96564ZM69.37813 317.96564Q69.37813 320.075 69.87813 320.77814Q70.37813 321.48126 71.09688 321.48126Q71.83125 321.48126 72.31563 320.77814Q72.81563 320.075 72.81563 317.96564Q72.81563 315.84064 72.31563 315.15314Q71.83125 314.45 71.08125 314.45Q70.3625 314.45 69.925 315.0594Q69.37813 315.84064 69.37813 317.96564Z" fill-rule="nonzero"/><path fill="#000000" d="M51.3 253.99896Q51.3 252.46771 51.6125 251.54584Q51.925 250.60834 52.534374 250.10834Q53.159374 249.60834 54.096874 249.60834Q54.784374 249.60834 55.3 249.88959Q55.83125 250.17084 56.175 250.70209Q56.51875 251.21771 56.70625 251.96771Q56.89375 252.71771 56.89375 253.99896Q56.89375 255.51459 56.58125 256.43646Q56.284374 257.35834 55.659374 257.87396Q55.05 258.37396 54.096874 258.37396Q52.8625 258.37396 52.14375 257.48334Q51.3 256.42084 51.3 253.99896ZM52.378124 253.99896Q52.378124 256.10834 52.878124 256.81146Q53.378124 257.5146 54.096874 257.5146Q54.83125 257.5146 55.315624 256.81146Q55.815624 256.10834 55.815624 253.99896Q55.815624 251.87396 55.315624 251.18646Q54.83125 250.48334 54.08125 250.48334Q53.3625 250.48334 52.925 251.09271Q52.378124 251.87396 52.378124 253.99896ZM58.89375 258.23334L58.89375 257.0302L60.096874 257.0302L60.096874 258.23334L58.89375 258.23334ZM66.84688 257.2177L66.84688 258.23334L61.159374 258.23334Q61.159374 257.85834 61.284374 257.49896Q61.503124 256.92084 61.971874 256.35834Q62.45625 255.79584 63.3625 255.06146Q64.76875 253.90521 65.25313 253.23334Q65.75313 252.56146 65.75313 251.96771Q65.75313 251.34271 65.3 250.92084Q64.84688 250.48334 64.12813 250.48334Q63.3625 250.48334 62.909374 250.93646Q62.45625 251.38959 62.440624 252.20209L61.3625 252.09271Q61.471874 250.87396 62.190624 250.24896Q62.925 249.60834 64.15938 249.60834Q65.39375 249.60834 66.1125 250.29584Q66.83125 250.98334 66.83125 251.99896Q66.83125 252.51459 66.6125 253.01459Q66.40938 253.49896 65.90938 254.06146Q65.425 254.60834 64.3 255.56146Q63.346874 256.35834 63.065624 256.6552Q62.8 256.93646 62.628124 257.2177L66.84688 257.2177ZM68.3 255.98334L69.40938 255.88959Q69.53438 256.7021 69.97188 257.10834Q70.425 257.5146 71.06563 257.5146Q71.81563 257.5146 72.34688 256.93646Q72.87813 256.35834 72.87813 255.42084Q72.87813 254.51459 72.3625 253.99896Q71.8625 253.46771 71.03438 253.46771Q70.53438 253.46771 70.1125 253.70209Q69.70625 253.93646 69.47188 254.29584L68.4875 254.17084L69.31563 249.76459L73.59688 249.76459L73.59688 250.76459L70.15938 250.76459L69.70625 253.07709Q70.47188 252.53021 71.31563 252.53021Q72.44063 252.53021 73.20625 253.31146Q73.9875 254.09271 73.9875 255.32709Q73.9875 256.48334 73.31563 257.3427Q72.4875 258.37396 71.06563 258.37396Q69.89375 258.37396 69.14375 257.7177Q68.40938 257.06146 68.3 255.98334Z" fill-rule="nonzero"/><path fill="#000000" d="M51.3 190.03229Q51.3 188.50104 51.6125 187.57916Q51.925 186.64166 52.534374 186.14166Q53.159374 185.64166 54.096874 185.64166Q54.784374 185.64166 55.3 185.92291Q55.83125 186.20416 56.175 186.73541Q56.51875 187.25104 56.70625 188.00104Q56.89375 188.75104 56.89375 190.03229Q56.89375 191.54791 56.58125 192.46979Q56.284374 193.39166 55.659374 193.90729Q55.05 194.40729 54.096874 194.40729Q52.8625 194.40729 52.14375 193.51666Q51.3 192.45416 51.3 190.03229ZM52.378124 190.03229Q52.378124 192.14166 52.878124 192.84479Q53.378124 193.54791 54.096874 193.54791Q54.83125 193.54791 55.315624 192.84479Q55.815624 192.14166 55.815624 190.03229Q55.815624 187.90729 55.315624 187.21979Q54.83125 186.51666 54.08125 186.51666Q53.3625 186.51666 52.925 187.12604Q52.378124 187.90729 52.378124 190.03229ZM58.89375 194.26666L58.89375 193.06354L60.096874 193.06354L60.096874 194.26666L58.89375 194.26666ZM61.3 192.01666L62.409374 191.92291Q62.534374 192.73541 62.971874 193.14166Q63.425 193.54791 64.06563 193.54791Q64.81563 193.54791 65.34688 192.96979Q65.87813 192.39166 65.87813 191.45416Q65.87813 190.54791 65.3625 190.03229Q64.8625 189.50104 64.03438 189.50104Q63.534374 189.50104 63.1125 189.73541Q62.70625 189.96979 62.471874 190.32916L61.4875 190.20416L62.315624 185.79791L66.59688 185.79791L66.59688 186.79791L63.159374 186.79791L62.70625 189.11041Q63.471874 188.56354 64.31563 188.56354Q65.44063 188.56354 66.20625 189.34479Q66.9875 190.12604 66.9875 191.36041Q66.9875 192.51666 66.31563 193.37604Q65.4875 194.40729 64.06563 194.40729Q62.89375 194.40729 62.14375 193.75104Q61.409374 193.09479 61.3 192.01666ZM68.3 190.03229Q68.3 188.50104 68.6125 187.57916Q68.925 186.64166 69.53438 186.14166Q70.15938 185.64166 71.09688 185.64166Q71.78438 185.64166 72.3 185.92291Q72.83125 186.20416 73.175 186.73541Q73.51875 187.25104 73.70625 188.00104Q73.89375 188.75104 73.89375 190.03229Q73.89375 191.54791 73.58125 192.46979Q73.28438 193.39166 72.65938 193.90729Q72.05 194.40729 71.09688 194.40729Q69.8625 194.40729 69.14375 193.51666Q68.3 192.45416 68.3 190.03229ZM69.37813 190.03229Q69.37813 192.14166 69.87813 192.84479Q70.37813 193.54791 71.09688 193.54791Q71.83125 193.54791 72.31563 192.84479Q72.81563 192.14166 72.81563 190.03229Q72.81563 187.90729 72.31563 187.21979Q71.83125 186.51666 71.08125 186.51666Q70.3625 186.51666 69.925 187.12604Q69.37813 187.90729 69.37813 190.03229Z" fill-rule="nonzero"/><path fill="#000000" d="M51.3 126.06563Q51.3 124.53438 51.6125 123.6125Q51.925 122.675 52.534374 122.175Q53.159374 121.675 54.096874 121.675Q54.784374 121.675 55.3 121.95625Q55.83125 122.2375 56.175 122.76875Q56.51875 123.28438 56.70625 124.03438Q56.89375 124.78438 56.89375 126.06563Q56.89375 127.58125 56.58125 128.50313Q56.284374 129.425 55.659374 129.94063Q55.05 130.44063 54.096874 130.44063Q52.8625 130.44063 52.14375 129.55Q51.3 128.4875 51.3 126.06563ZM52.378124 126.06563Q52.378124 128.175 52.878124 128.87813Q53.378124 129.58125 54.096874 129.58125Q54.83125 129.58125 55.315624 128.87813Q55.815624 128.175 55.815624 126.06563Q55.815624 123.94063 55.315624 123.25313Q54.83125 122.55 54.08125 122.55Q53.3625 122.55 52.925 123.15938Q52.378124 123.94063 52.378124 126.06563ZM58.89375 130.3L58.89375 129.09688L60.096874 129.09688L60.096874 130.3L58.89375 130.3ZM61.3625 122.83125L61.3625 121.81563L66.925 121.81563L66.925 122.64375Q66.1125 123.51875 65.3 124.97188Q64.50313 126.40938 64.06563 127.94063Q63.7375 129.01875 63.659374 130.3L62.565624 130.3Q62.58125 129.28438 62.95625 127.84688Q63.346874 126.40938 64.05 125.08125Q64.76875 123.75313 65.58125 122.83125L61.3625 122.83125ZM68.3 128.05L69.40938 127.95625Q69.53438 128.76875 69.97188 129.175Q70.425 129.58125 71.06563 129.58125Q71.81563 129.58125 72.34688 129.00313Q72.87813 128.425 72.87813 127.4875Q72.87813 126.58125 72.3625 126.06563Q71.8625 125.53438 71.03438 125.53438Q70.53438 125.53438 70.1125 125.76875Q69.70625 126.00313 69.47188 126.3625L68.4875 126.2375L69.31563 121.83125L73.59688 121.83125L73.59688 122.83125L70.15938 122.83125L69.70625 125.14375Q70.47188 124.59688 71.31563 124.59688Q72.44063 124.59688 73.20625 125.37813Q73.9875 126.15938 73.9875 127.39375Q73.9875 128.55 73.31563 129.40938Q72.4875 130.44063 71.06563 130.44063Q69.89375 130.44063 69.14375 129.78438Q68.40938 129.12813 68.3 128.05Z" fill-rule="nonzero"/><path fill="#000000" d="M55.26875 66.333336L54.221874 66.333336L54.221874 59.614586Q53.83125 59.97396 53.20625 60.34896Q52.596874 60.708336 52.1125 60.88021L52.1125 59.864586Q52.9875 59.44271 53.64375 58.864586Q54.315624 58.270836 54.596874 57.708336L55.26875 57.708336L55.26875 66.333336ZM58.89375 66.333336L58.89375 65.13021L60.096874 65.13021L60.096874 66.333336L58.89375 66.333336ZM61.3 62.09896Q61.3 60.56771 61.6125 59.645836Q61.925 58.708336 62.534374 58.208336Q63.159374 57.708336 64.09688 57.708336Q64.78438 57.708336 65.3 57.989586Q65.83125 58.270836 66.175 58.802086Q66.51875 59.31771 66.70625 60.06771Q66.89375 60.81771 66.89375 62.09896Q66.89375 63.614586 66.58125 64.53646Q66.28438 65.458336 65.65938 65.97396Q65.05 66.47396 64.09688 66.47396Q62.8625 66.47396 62.14375 65.583336Q61.3 64.520836 61.3 62.09896ZM62.378124 62.09896Q62.378124 64.208336 62.878124 64.91146Q63.378124 65.614586 64.09688 65.614586Q64.83125 65.614586 65.31563 64.91146Q65.81563 64.208336 65.81563 62.09896Q65.81563 59.97396 65.31563 59.28646Q64.83125 58.583336 64.08125 58.583336Q63.3625 58.583336 62.925 59.19271Q62.378124 59.97396 62.378124 62.09896ZM68.3 62.09896Q68.3 60.56771 68.6125 59.645836Q68.925 58.708336 69.53438 58.208336Q70.15938 57.708336 71.09688 57.708336Q71.78438 57.708336 72.3 57.989586Q72.83125 58.270836 73.175 58.802086Q73.51875 59.31771 73.70625 60.06771Q73.89375 60.81771 73.89375 62.09896Q73.89375 63.614586 73.58125 64.53646Q73.28438 65.458336 72.65938 65.97396Q72.05 66.47396 71.09688 66.47396Q69.8625 66.47396 69.14375 65.583336Q68.3 64.520836 68.3 62.09896ZM69.37813 62.09896Q69.37813 64.208336 69.87813 64.91146Q70.37813 65.614586 71.09688 65.614586Q71.83125 65.614586 72.31563 64.91146Q72.81563 64.208336 72.81563 62.09896Q72.81563 59.97396 72.31563 59.28646Q71.83125 58.583336 71.08125 58.583336Q70.3625 58.583336 69.925 59.19271Q69.37813 59.97396 69.37813 62.09896Z" fill-rule="nonzero"/><path fill="#757575" d="M20.378124 37.8L20.378124 23.4875L30.7375 23.4875L30.7375 25.175L22.284374 25.175L22.284374 29.55L30.190624 29.55L30.190624 31.2375L22.284374 31.2375L22.284374 36.1125L31.065624 36.1125L31.065624 37.8L20.378124 37.8ZM39.89375 36.51875Q38.909374 37.346874 38.003124 37.690624Q37.096874 38.034374 36.065624 38.034374Q34.3625 38.034374 33.440624 37.20625Q32.51875 36.3625 32.51875 35.065624Q32.51875 34.3 32.8625 33.675Q33.221874 33.05 33.784374 32.675Q34.346874 32.284374 35.05 32.08125Q35.565624 31.95625 36.6125 31.815624Q38.7375 31.565624 39.7375 31.221874Q39.753124 30.8625 39.753124 30.753124Q39.753124 29.690624 39.253124 29.2375Q38.58125 28.64375 37.253124 28.64375Q36.003124 28.64375 35.409374 29.08125Q34.83125 29.51875 34.55 30.628124L32.83125 30.39375Q33.065624 29.284374 33.596874 28.6125Q34.128124 27.925 35.14375 27.565624Q36.159374 27.190624 37.503124 27.190624Q38.83125 27.190624 39.659374 27.503124Q40.4875 27.815624 40.878124 28.3Q41.26875 28.76875 41.425 29.4875Q41.51875 29.940624 41.51875 31.1125L41.51875 33.45625Q41.51875 35.909374 41.628124 36.565624Q41.7375 37.20625 42.08125 37.8L40.2375 37.8Q39.971874 37.253124 39.89375 36.51875ZM39.7375 32.596874Q38.784374 32.9875 36.8625 33.253124Q35.784374 33.409374 35.33125 33.6125Q34.89375 33.8 34.64375 34.175Q34.39375 34.55 34.39375 35.01875Q34.39375 35.721874 34.925 36.190624Q35.45625 36.659374 36.4875 36.659374Q37.503124 36.659374 38.284374 36.221874Q39.08125 35.76875 39.45625 35.003124Q39.7375 34.39375 39.7375 33.2375L39.7375 32.596874ZM43.409374 34.70625L45.159374 34.425Q45.3 35.471874 45.971874 36.034374Q46.64375 36.58125 47.846874 36.58125Q49.05 36.58125 49.628124 36.096874Q50.221874 35.596874 50.221874 34.940624Q50.221874 34.346874 49.70625 34.003124Q49.346874 33.76875 47.909374 33.409374Q45.971874 32.909374 45.221874 32.565624Q44.4875 32.20625 44.096874 31.58125Q43.70625 30.940624 43.70625 30.175Q43.70625 29.4875 44.01875 28.89375Q44.346874 28.3 44.89375 27.909374Q45.3 27.6125 46.003124 27.409374Q46.721874 27.190624 47.534374 27.190624Q48.753124 27.190624 49.675 27.55Q50.596874 27.89375 51.034374 28.503124Q51.471874 29.096874 51.64375 30.096874L49.925 30.33125Q49.8 29.534374 49.2375 29.096874Q48.675 28.64375 47.659374 28.64375Q46.440624 28.64375 45.925 29.05Q45.409374 29.440624 45.409374 29.971874Q45.409374 30.315624 45.628124 30.596874Q45.83125 30.878124 46.3 31.065624Q46.565624 31.159374 47.846874 31.503124Q49.721874 32.003124 50.45625 32.33125Q51.190624 32.64375 51.6125 33.253124Q52.034374 33.846874 52.034374 34.753124Q52.034374 35.628124 51.51875 36.409374Q51.003124 37.190624 50.034374 37.6125Q49.065624 38.034374 47.846874 38.034374Q45.83125 38.034374 44.76875 37.190624Q43.70625 36.346874 43.409374 34.70625ZM61.221874 34.45625L63.034374 34.690624Q62.6125 36.26875 61.440624 37.159374Q60.284374 38.034374 58.471874 38.034374Q56.20625 38.034374 54.8625 36.64375Q53.534374 35.2375 53.534374 32.70625Q53.534374 30.08125 54.878124 28.64375Q56.221874 27.190624 58.378124 27.190624Q60.45625 27.190624 61.76875 28.6125Q63.096874 30.01875 63.096874 32.596874Q63.096874 32.753124 63.08125 33.065624L55.346874 33.065624Q55.440624 34.76875 56.315624 35.675Q57.190624 36.58125 58.4875 36.58125Q59.45625 36.58125 60.128124 36.08125Q60.815624 35.565624 61.221874 34.45625ZM55.440624 31.6125L61.2375 31.6125Q61.128124 30.315624 60.58125 29.659374Q59.7375 28.64375 58.39375 28.64375Q57.190624 28.64375 56.3625 29.45625Q55.534374 30.253124 55.440624 31.6125ZM65.65938 37.8L65.65938 23.4875L67.56563 23.4875L67.56563 37.8L65.65938 37.8ZM71.1125 37.8L71.1125 27.425L72.70625 27.425L72.70625 28.909374Q73.84688 27.190624 76.00313 27.190624Q76.94063 27.190624 77.72188 27.534374Q78.51875 27.8625 78.90938 28.409374Q79.3 28.95625 79.45625 29.70625Q79.55 30.20625 79.55 31.425L79.55 37.8L77.78438 37.8L77.78438 31.4875Q77.78438 30.409374 77.58125 29.878124Q77.37813 29.346874 76.84688 29.034374Q76.33125 28.721874 75.62813 28.721874Q74.50313 28.721874 73.69063 29.440624Q72.87813 30.14375 72.87813 32.128124L72.87813 37.8L71.1125 37.8ZM80.76875 30.83125Q80.76875 27.26875 82.675 25.253124Q84.59688 23.221874 87.62813 23.221874Q89.6125 23.221874 91.19063 24.175Q92.78438 25.128124 93.6125 26.83125Q94.45625 28.51875 94.45625 30.659374Q94.45625 32.83125 93.58125 34.55Q92.70625 36.26875 91.08125 37.159374Q89.47188 38.05 87.6125 38.05Q85.59688 38.05 84.00313 37.08125Q82.40938 36.096874 81.58125 34.409374Q80.76875 32.70625 80.76875 30.83125ZM82.72188 30.8625Q82.72188 33.440624 84.1125 34.940624Q85.50313 36.425 87.59688 36.425Q89.7375 36.425 91.1125 34.925Q92.50313 33.409374 92.50313 30.64375Q92.50313 28.909374 91.90938 27.6125Q91.33125 26.3 90.19063 25.58125Q89.05 24.8625 87.62813 24.8625Q85.62813 24.8625 84.175 26.253124Q82.72188 27.628124 82.72188 30.8625ZM103.90938 37.8L103.90938 36.26875Q102.70625 38.034374 100.62813 38.034374Q99.70625 38.034374 98.90938 37.690624Q98.1125 37.33125 97.72188 36.8Q97.34688 36.26875 97.19063 35.4875Q97.08125 34.971874 97.08125 33.846874L97.08125 27.425L98.83125 27.425L98.83125 33.175Q98.83125 34.55 98.94063 35.034374Q99.1125 35.721874 99.64375 36.128124Q100.19063 36.51875 100.97188 36.51875Q101.76875 36.51875 102.45625 36.1125Q103.15938 35.70625 103.44063 35.01875Q103.7375 34.315624 103.7375 32.9875L103.7375 27.425L105.4875 27.425L105.4875 37.8L103.90938 37.8ZM110.95625 36.221874L111.20625 37.784374Q110.47188 37.940624 109.87813 37.940624Q108.925 37.940624 108.39375 37.64375Q107.87813 37.33125 107.65938 36.846874Q107.44063 36.346874 107.44063 34.76875L107.44063 28.8L106.15938 28.8L106.15938 27.425L107.44063 27.425L107.44063 24.8625L109.19063 23.8L109.19063 27.425L110.95625 27.425L110.95625 28.8L109.19063 28.8L109.19063 34.8625Q109.19063 35.6125 109.28438 35.83125Q109.37813 36.034374 109.58125 36.175Q109.8 36.3 110.19063 36.3Q110.47188 36.3 110.95625 36.221874ZM113.37813 37.8L113.37813 23.4875L123.7375 23.4875L123.7375 25.175L115.28438 25.175L115.28438 29.55L123.19063 29.55L123.19063 31.2375L115.28438 31.2375L115.28438 36.1125L124.06563 36.1125L124.06563 37.8L113.37813 37.8ZM124.94063 37.8L128.7375 32.409374L125.2375 27.425L127.425 27.425L129.01875 29.8625Q129.47188 30.55 129.7375 31.01875Q130.175 30.378124 130.53438 29.878124L132.28438 27.425L134.37813 27.425L130.8 32.315624L134.65938 37.8L132.50313 37.8L130.3625 34.58125L129.8 33.70625L127.08125 37.8L124.94063 37.8ZM135.1125 41.76875L135.1125 27.425L136.72188 27.425L136.72188 28.76875Q137.28438 27.9875 137.9875 27.596874Q138.70625 27.190624 139.72188 27.190624Q141.05 27.190624 142.06563 27.878124Q143.08125 28.565624 143.59688 29.815624Q144.12813 31.05 144.12813 32.534374Q144.12813 34.128124 143.55 35.409374Q142.9875 36.675 141.89375 37.3625Q140.8 38.034374 139.59688 38.034374Q138.72188 38.034374 138.01875 37.659374Q137.33125 37.284374 136.87813 36.721874L136.87813 41.76875L135.1125 41.76875ZM136.70625 32.675Q136.70625 34.675 137.51875 35.628124Q138.33125 36.58125 139.4875 36.58125Q140.65938 36.58125 141.4875 35.596874Q142.33125 34.6125 142.33125 32.51875Q142.33125 30.55 141.50313 29.565624Q140.69063 28.565624 139.56563 28.565624Q138.44063 28.565624 137.56563 29.628124Q136.70625 30.675 136.70625 32.675ZM145.47188 32.6125Q145.47188 29.7375 147.06563 28.346874Q148.40938 27.190624 150.33125 27.190624Q152.47188 27.190624 153.81563 28.596874Q155.175 30.003124 155.175 32.471874Q155.175 34.471874 154.58125 35.628124Q153.9875 36.76875 152.83125 37.409374Q151.69063 38.034374 150.33125 38.034374Q148.14375 38.034374 146.8 36.64375Q145.47188 35.2375 145.47188 32.6125ZM147.26875 32.6125Q147.26875 34.6125 148.12813 35.596874Q149.00313 36.58125 150.33125 36.58125Q151.64375 36.58125 152.50313 35.596874Q153.37813 34.596874 153.37813 32.55Q153.37813 30.628124 152.50313 29.64375Q151.62813 28.64375 150.33125 28.64375Q149.00313 28.64375 148.12813 29.64375Q147.26875 30.628124 147.26875 32.6125ZM157.1125 37.8L157.1125 27.425L158.70625 27.425L158.70625 28.909374Q159.84688 27.190624 162.00313 27.190624Q162.94063 27.190624 163.72188 27.534374Q164.51875 27.8625 164.90938 28.409374Q165.3 28.95625 165.45625 29.70625Q165.55 30.20625 165.55 31.425L165.55 37.8L163.78438 37.8L163.78438 31.4875Q163.78438 30.409374 163.58125 29.878124Q163.37813 29.346874 162.84688 29.034374Q162.33125 28.721874 161.62813 28.721874Q160.50313 28.721874 159.69063 29.440624Q158.87813 30.14375 158.87813 32.128124L158.87813 37.8L157.1125 37.8ZM174.22188 34.45625L176.03438 34.690624Q175.6125 36.26875 174.44063 37.159374Q173.28438 38.034374 171.47188 38.034374Q169.20625 38.034374 167.8625 36.64375Q166.53438 35.2375 166.53438 32.70625Q166.53438 30.08125 167.87813 28.64375Q169.22188 27.190624 171.37813 27.190624Q173.45625 27.190624 174.76875 28.6125Q176.09688 30.01875 176.09688 32.596874Q176.09688 32.753124 176.08125 33.065624L168.34688 33.065624Q168.44063 34.76875 169.31563 35.675Q170.19063 36.58125 171.4875 36.58125Q172.45625 36.58125 173.12813 36.08125Q173.81563 35.565624 174.22188 34.45625ZM168.44063 31.6125L174.2375 31.6125Q174.12813 30.315624 173.58125 29.659374Q172.7375 28.64375 171.39375 28.64375Q170.19063 28.64375 169.3625 29.45625Q168.53438 30.253124 168.44063 31.6125ZM178.1125 37.8L178.1125 27.425L179.70625 27.425L179.70625 28.909374Q180.84688 27.190624 183.00313 27.190624Q183.94063 27.190624 184.72188 27.534374Q185.51875 27.8625 185.90938 28.409374Q186.3 28.95625 186.45625 29.70625Q186.55 30.20625 186.55 31.425L186.55 37.8L184.78438 37.8L184.78438 31.4875Q184.78438 30.409374 184.58125 29.878124Q184.37813 29.346874 183.84688 29.034374Q183.33125 28.721874 182.62813 28.721874Q181.50313 28.721874 180.69063 29.440624Q179.87813 30.14375 179.87813 32.128124L179.87813 37.8L178.1125 37.8ZM191.95625 36.221874L192.20625 37.784374Q191.47188 37.940624 190.87813 37.940624Q189.925 37.940624 189.39375 37.64375Q188.87813 37.33125 188.65938 36.846874Q188.44063 36.346874 188.44063 34.76875L188.44063 28.8L187.15938 28.8L187.15938 27.425L188.44063 27.425L188.44063 24.8625L190.19063 23.8L190.19063 27.425L191.95625 27.425L191.95625 28.8L190.19063 28.8L190.19063 34.8625Q190.19063 35.6125 190.28438 35.83125Q190.37813 36.034374 190.58125 36.175Q190.8 36.3 191.19063 36.3Q191.47188 36.3 191.95625 36.221874ZM194.12813 25.503124L194.12813 23.4875L195.89375 23.4875L195.89375 25.503124L194.12813 25.503124ZM194.12813 37.8L194.12813 27.425L195.89375 27.425L195.89375 37.8L194.12813 37.8ZM204.89375 36.51875Q203.90938 37.346874 203.00313 37.690624Q202.09688 38.034374 201.06563 38.034374Q199.3625 38.034374 198.44063 37.20625Q197.51875 36.3625 197.51875 35.065624Q197.51875 34.3 197.8625 33.675Q198.22188 33.05 198.78438 32.675Q199.34688 32.284374 200.05 32.08125Q200.56563 31.95625 201.6125 31.815624Q203.7375 31.565624 204.7375 31.221874Q204.75313 30.8625 204.75313 30.753124Q204.75313 29.690624 204.25313 29.2375Q203.58125 28.64375 202.25313 28.64375Q201.00313 28.64375 200.40938 29.08125Q199.83125 29.51875 199.55 30.628124L197.83125 30.39375Q198.06563 29.284374 198.59688 28.6125Q199.12813 27.925 200.14375 27.565624Q201.15938 27.190624 202.50313 27.190624Q203.83125 27.190624 204.65938 27.503124Q205.4875 27.815624 205.87813 28.3Q206.26875 28.76875 206.425 29.4875Q206.51875 29.940624 206.51875 31.1125L206.51875 33.45625Q206.51875 35.909374 206.62813 36.565624Q206.7375 37.20625 207.08125 37.8L205.2375 37.8Q204.97188 37.253124 204.89375 36.51875ZM204.7375 32.596874Q203.78438 32.9875 201.8625 33.253124Q200.78438 33.409374 200.33125 33.6125Q199.89375 33.8 199.64375 34.175Q199.39375 34.55 199.39375 35.01875Q199.39375 35.721874 199.925 36.190624Q200.45625 36.659374 201.4875 36.659374Q202.50313 36.659374 203.28438 36.221874Q204.08125 35.76875 204.45625 35.003124Q204.7375 34.39375 204.7375 33.2375L204.7375 32.596874ZM209.08125 37.8L209.08125 23.4875L210.83125 23.4875L210.83125 37.8L209.08125 37.8Z" fill-rule="nonzero"/></svg>