<svg version="1.1" viewBox="0.0 0.0 608.0 376.0" fill="none" stroke="none" stroke-linecap="square" stroke-miterlimit="10" width="608" height="376" xmlns:xlink="http://www.w3.org/1999/xlink" xmlns="http://www.w3.org/2000/svg"><path fill="#ffffff" d="M0 0L608.0 0L608.0 376.0L0 376.0L0 0Z" fill-rule="nonzero"/><path stroke="#333333" stroke-width="1.0" stroke-linecap="butt" d="M80.5 318.5L589.5 318.5" fill-rule="nonzero"/><path stroke="#cccccc" stroke-width="1.0" stroke-linecap="butt" d="M80.5 254.5L589.5 254.5" fill-rule="nonzero"/><path stroke="#cccccc" stroke-width="1.0" stroke-linecap="butt" d="M80.5 190.5L589.5 190.5" fill-rule="nonzero"/><path stroke="#cccccc" stroke-width="1.0" stroke-linecap="butt" d="M80.5 126.5L589.5 126.5" fill-rule="nonzero"/><path stroke="#cccccc" stroke-width="1.0" stroke-linecap="butt" d="M80.5 62.5L589.5 62.5" fill-rule="nonzero"/><path stroke="#000000" stroke-width="1.0" stroke-linecap="butt" d="M80.5 318.5L80.5 62.5" fill-rule="nonzero"/><clipPath id="id_0"><path d="M80.8 62.333332L589.2 62.333332L589.2 318.2L80.8 318.2L80.8 62.333332Z" clip-rule="nonzero"/></clipPath><path stroke="#4285f4" stroke-width="2.0" stroke-linecap="butt" clip-path="url(#id_0)" d="M83.31683 318.2C83.31683 318.2 86.67261 318.20035 88.350494 318.19897C90.02838 318.1976 91.70627 318.19626 93.384155 318.1918C95.06205 318.18738 96.73994 318.18192 98.41782 318.17236C100.09571 318.1628 101.7736 318.1512 103.451485 318.1345C105.12937 318.11777 106.80726 318.098 108.485146 318.07205C110.16303 318.04614 111.84093 318.0161 113.518814 317.97894C115.1967 317.94174 116.87459 317.89944 118.552475 317.84894C120.23036 317.79846 121.90825 317.74182 123.586136 317.676C125.26402 317.61014 126.94192 317.53714 128.6198 317.4539C130.29768 317.37064 131.97557 317.27924 133.65347 317.17654C135.33136 317.07385 137.00925 316.96194 138.68713 316.83777C140.36502 316.7136 142.04291 316.57916 143.7208 316.43146C145.39868 316.28372 147.07657 316.12476 148.75446 315.95145C150.43234 315.77814 152.11023 315.59256 153.78812 315.3916C155.466 315.19067 157.14389 314.9764 158.82178 314.7458C160.49966 314.51517 162.17755 314.27023 163.85544 314.00787C165.53334 313.74554 167.21123 313.46783 168.88911 313.17172C170.567 312.87558 172.24489 312.56308 173.92278 312.23114C175.60066 311.8992 177.27855 311.54987 178.95644 311.18005C180.63432 310.81024 182.31221 310.422 183.9901 310.01227C185.66798 309.60254 187.34587 309.17337 189.02376 308.72168C190.70164 308.27 192.37953 307.79782 194.05742 307.30212C195.73532 306.80643 197.41321 306.28925 199.0911 305.74747C200.76898 305.20572 202.44687 304.64145 204.12476 304.0516C205.80264 303.46173 207.48053 302.84833 209.15842 302.20834C210.8363 301.56833 212.51419 300.90375 214.19208 300.21155C215.86996 299.51935 217.54785 298.80154 219.22574 298.0551C220.90363 297.30865 222.58151 296.5356 224.2594 295.73285C225.93729 294.9301 227.61519 294.09976 229.29308 293.23868C230.97096 292.3776 232.64885 291.48785 234.32674 290.5664C236.00462 289.64493 237.68251 288.6938 239.3604 287.7099C241.03828 286.726 242.71617 285.71143 244.39406 284.66306C246.07195 283.6147 247.74983 282.53458 249.42772 281.41968C251.1056 280.30478 252.7835 279.15714 254.46138 277.97366C256.13928 276.7902 257.81717 275.57297 259.49506 274.31888C261.17294 273.0648 262.85083 271.77588 264.52872 270.44913C266.2066 269.12238 267.8845 267.7598 269.56238 266.35834C271.24026 264.95688 272.91815 263.51855 274.59604 262.04034C276.27393 260.5621 277.9518 259.04602 279.6297 257.48898C281.3076 255.93195 282.98547 254.33601 284.66336 252.69814C286.34125 251.06024 288.01913 249.38245 289.69702 247.66165C291.3749 245.94087 293.0528 244.17914 294.73068 242.3734C296.40857 240.56767 298.08646 238.71997 299.76434 236.82724C301.44223 234.93451 303.12012 232.9988 304.79803 231.01701C306.47592 229.03525 308.1538 227.00946 309.8317 224.9366C311.50958 222.86374 313.18747 220.74585 314.86536 218.57985C316.54324 216.41385 318.22113 214.2018 319.89902 211.94061C321.5769 209.67944 323.2548 207.37119 324.93268 205.01277C326.61057 202.65437 328.28845 200.24785 329.96634 197.79018C331.64423 195.33249 333.3221 192.7745 335.0 190.26666C336.6779 187.75883 338.35577 185.20085 340.03366 182.74316C341.71155 180.28548 343.38943 177.87897 345.06732 175.52055C346.7452 173.16216 348.4231 170.8539 350.10098 168.59271C351.77887 166.33153 353.45676 164.11948 355.13464 161.95349C356.81253 159.78749 358.49042 157.6696 360.1683 155.59674C361.8462 153.52386 363.52408 151.4981 365.20197 149.51631C366.87988 147.53455 368.55777 145.59883 370.23566 143.7061C371.91354 141.81337 373.59143 139.96567 375.26932 138.15993C376.9472 136.3542 378.6251 134.59247 380.30298 132.87167C381.98087 131.1509 383.65875 129.47308 385.33664 127.8352C387.01453 126.19731 388.6924 124.60139 390.3703 123.04435C392.0482 121.48732 393.72607 119.97122 395.40396 118.493C397.08185 117.01477 398.75974 115.576454 400.43762 114.17499C402.1155 112.77352 403.7934 111.41095 405.47128 110.08419C407.14917 108.75744 408.82706 107.46855 410.50494 106.21447C412.18283 104.96038 413.86072 103.74313 415.5386 102.55967C417.2165 101.3762 418.89438 100.22855 420.57227 99.113655C422.25015 97.99876 423.92804 96.91866 425.60593 95.87029C427.2838 94.821915 428.96173 93.80732 430.63962 92.823425C432.3175 91.83954 433.9954 90.8884 435.67328 89.966934C437.35117 89.04547 439.02905 88.15574 440.70694 87.29466C442.38483 86.433586 444.0627 85.60321 445.7406 84.800476C447.4185 83.997734 449.09637 83.22468 450.77426 82.478226C452.45215 81.73178 454.13004 81.013985 455.80792 80.321785C457.4858 79.62958 459.1637 78.96501 460.84158 78.325C462.51947 77.68499 464.19736 77.071594 465.87524 76.481735C467.55313 75.89188 469.23102 75.32761 470.9089 74.78585C472.5868 74.244095 474.26468 73.726906 475.94257 73.23121C477.62045 72.735504 479.29834 72.26335 480.97623 71.81166C482.6541 71.35997 484.332 70.93079 486.0099 70.521065C487.68777 70.111336 489.36566 69.72311 491.04358 69.353294C492.72147 68.98348 494.39935 68.63413 496.07724 68.30219C497.75513 67.970245 499.433 67.657745 501.1109 67.361626C502.7888 67.0655 504.46667 66.7878 506.14456 66.52545C507.82245 66.26311 509.50034 66.01816 511.17822 65.78754C512.8561 65.556915 514.534 65.34267 516.21185 65.14172C517.8898 64.94079 519.5676 64.755196 521.24554 64.58189C522.92346 64.408585 524.6013 64.2496 526.27924 64.10188C527.9571 63.954163 529.635 63.819748 531.31287 63.695568C532.9908 63.57139 534.66864 63.459488 536.34656 63.3568C538.0244 63.254112 539.70233 63.16268 541.3802 63.07944C543.0581 62.996197 544.73596 62.92319 546.4139 62.85735C548.09174 62.791504 549.76965 62.734875 551.4475 62.684383C553.1254 62.633892 554.8033 62.591587 556.4812 62.5544C558.15906 62.517216 559.837 62.487194 561.51483 62.461266C563.19275 62.435337 564.8706 62.41555 566.5485 62.398834C568.2264 62.38212 569.9043 62.370518 571.58215 62.360966C573.2601 62.351414 574.9379 62.345955 576.61584 62.341522C578.2937 62.337086 579.9716 62.33572 581.6495 62.33436C583.3274 62.332993 586.68317 62.333332 586.68317 62.333332" fill-rule="nonzero"/><path fill="#000000" fill-opacity="0.0" clip-path="url(#id_0)" d="M86.31683 318.2C86.31683 319.85684 84.97369 321.2 83.31683 321.2C81.65998 321.2 80.31683 319.85684 80.31683 318.2C80.31683 316.54315 81.65998 315.2 83.31683 315.2C84.97369 315.2 86.31683 316.54315 86.31683 318.2Z" fill-rule="nonzero"/><path fill="#000000" fill-opacity="0.0" clip-path="url(#id_0)" d="M91.350494 318.19897C91.350494 319.85583 90.00735 321.19897 88.350494 321.19897C86.69364 321.19897 85.350494 319.85583 85.350494 318.19897C85.350494 316.5421 86.69364 315.19897 88.350494 315.19897C90.00735 315.19897 91.350494 316.5421 91.350494 318.19897Z" fill-rule="nonzero"/><path fill="#000000" fill-opacity="0.0" clip-path="url(#id_0)" d="M96.384155 318.1918C96.384155 319.84866 95.041016 321.1918 93.384155 321.1918C91.7273 321.1918 90.384155 319.84866 90.384155 318.1918C90.384155 316.53497 91.7273 315.1918 93.384155 315.1918C95.041016 315.1918 96.384155 316.53497 96.384155 318.1918Z" fill-rule="nonzero"/><path fill="#000000" fill-opacity="0.0" clip-path="url(#id_0)" d="M101.41782 318.17236C101.41782 319.82922 100.07468 321.17236 98.41782 321.17236C96.76097 321.17236 95.41782 319.82922 95.41782 318.17236C95.41782 316.5155 96.76097 315.17236 98.41782 315.17236C100.07468 315.17236 101.41782 316.5155 101.41782 318.17236Z" fill-rule="nonzero"/><path fill="#000000" fill-opacity="0.0" clip-path="url(#id_0)" d="M106.451485 318.1345C106.451485 319.79135 105.10834 321.1345 103.451485 321.1345C101.79463 321.1345 100.451485 319.79135 100.451485 318.1345C100.451485 316.47763 101.79463 315.1345 103.451485 315.1345C105.10834 315.1345 106.451485 316.47763 106.451485 318.1345Z" fill-rule="nonzero"/><path fill="#000000" fill-opacity="0.0" clip-path="url(#id_0)" d="M111.485146 318.07205C111.485146 319.7289 110.142006 321.07205 108.485146 321.07205C106.82829 321.07205 105.485146 319.7289 105.485146 318.07205C105.485146 316.41522 106.82829 315.07205 108.485146 315.07205C110.142006 315.07205 111.485146 316.41522 111.485146 318.07205Z" fill-rule="nonzero"/><path fill="#000000" fill-opacity="0.0" clip-path="url(#id_0)" d="M116.518814 317.97894C116.518814 319.63577 115.17567 320.97894 113.518814 320.97894C111.86196 320.97894 110.518814 319.63577 110.518814 317.97894C110.518814 316.32208 111.86196 314.97894 113.518814 314.97894C115.17567 314.97894 116.518814 316.32208 116.518814 317.97894Z" fill-rule="nonzero"/><path fill="#000000" fill-opacity="0.0" clip-path="url(#id_0)" d="M121.552475 317.84894C121.552475 319.5058 120.20933 320.84894 118.552475 320.84894C116.89562 320.84894 115.552475 319.5058 115.552475 317.84894C115.552475 316.1921 116.89562 314.84894 118.552475 314.84894C120.20933 314.84894 121.552475 316.1921 121.552475 317.84894Z" fill-rule="nonzero"/><path fill="#000000" fill-opacity="0.0" clip-path="url(#id_0)" d="M126.586136 317.676C126.586136 319.33282 125.243 320.676 123.586136 320.676C121.92928 320.676 120.586136 319.33282 120.586136 317.676C120.586136 316.01913 121.92928 314.676 123.586136 314.676C125.243 314.676 126.586136 316.01913 126.586136 317.676Z" fill-rule="nonzero"/><path fill="#000000" fill-opacity="0.0" clip-path="url(#id_0)" d="M131.6198 317.4539C131.6198 319.11075 130.27666 320.4539 128.6198 320.4539C126.962944 320.4539 125.619804 319.11075 125.619804 317.4539C125.619804 315.79703 126.962944 314.4539 128.6198 314.4539C130.27666 314.4539 131.6198 315.79703 131.6198 317.4539Z" fill-rule="nonzero"/><path fill="#000000" fill-opacity="0.0" clip-path="url(#id_0)" d="M136.65347 317.17654C136.65347 318.83337 135.31032 320.17654 133.65347 320.17654C131.99661 320.17654 130.65347 318.83337 130.65347 317.17654C130.65347 315.51968 131.99661 314.17654 133.65347 314.17654C135.31032 314.17654 136.65347 315.51968 136.65347 317.17654Z" fill-rule="nonzero"/><path fill="#000000" fill-opacity="0.0" clip-path="url(#id_0)" d="M141.68713 316.83777C141.68713 318.49463 140.34398 319.83777 138.68713 319.83777C137.03027 319.83777 135.68713 318.49463 135.68713 316.83777C135.68713 315.1809 137.03027 313.83777 138.68713 313.83777C140.34398 313.83777 141.68713 315.1809 141.68713 316.83777Z" fill-rule="nonzero"/><path fill="#000000" fill-opacity="0.0" clip-path="url(#id_0)" d="M146.7208 316.43146C146.7208 318.08832 145.37764 319.43146 143.7208 319.43146C142.06393 319.43146 140.7208 318.08832 140.7208 316.43146C140.7208 314.7746 142.06393 313.43146 143.7208 313.43146C145.37764 313.43146 146.7208 314.7746 146.7208 316.43146Z" fill-rule="nonzero"/><path fill="#000000" fill-opacity="0.0" clip-path="url(#id_0)" d="M151.75446 315.95145C151.75446 317.6083 150.41132 318.95145 148.75446 318.95145C147.0976 318.95145 145.75446 317.6083 145.75446 315.95145C145.75446 314.2946 147.0976 312.95145 148.75446 312.95145C150.41132 312.95145 151.75446 314.2946 151.75446 315.95145Z" fill-rule="nonzero"/><path fill="#000000" fill-opacity="0.0" clip-path="url(#id_0)" d="M156.78812 315.3916C156.78812 317.04846 155.44498 318.3916 153.78812 318.3916C152.13127 318.3916 150.78812 317.04846 150.78812 315.3916C150.78812 313.73474 152.13127 312.3916 153.78812 312.3916C155.44498 312.3916 156.78812 313.73474 156.78812 315.3916Z" fill-rule="nonzero"/><path fill="#000000" fill-opacity="0.0" clip-path="url(#id_0)" d="M161.82178 314.7458C161.82178 316.40265 160.47864 317.7458 158.82178 317.7458C157.16493 317.7458 155.82178 316.40265 155.82178 314.7458C155.82178 313.08896 157.16493 311.7458 158.82178 311.7458C160.47864 311.7458 161.82178 313.08896 161.82178 314.7458Z" fill-rule="nonzero"/><path fill="#000000" fill-opacity="0.0" clip-path="url(#id_0)" d="M166.85544 314.00787C166.85544 315.66473 165.5123 317.00787 163.85544 317.00787C162.1986 317.00787 160.85544 315.66473 160.85544 314.00787C160.85544 312.351 162.1986 311.00787 163.85544 311.00787C165.5123 311.00787 166.85544 312.351 166.85544 314.00787Z" fill-rule="nonzero"/><path fill="#000000" fill-opacity="0.0" clip-path="url(#id_0)" d="M171.88911 313.17172C171.88911 314.82855 170.54596 316.17172 168.88911 316.17172C167.23225 316.17172 165.88911 314.82855 165.88911 313.17172C165.88911 311.51486 167.23225 310.17172 168.88911 310.17172C170.54596 310.17172 171.88911 311.51486 171.88911 313.17172Z" fill-rule="nonzero"/><path fill="#000000" fill-opacity="0.0" clip-path="url(#id_0)" d="M176.92278 312.23114C176.92278 313.888 175.57962 315.23114 173.92278 315.23114C172.26591 315.23114 170.92278 313.888 170.92278 312.23114C170.92278 310.57428 172.26591 309.23114 173.92278 309.23114C175.57962 309.23114 176.92278 310.57428 176.92278 312.23114Z" fill-rule="nonzero"/><path fill="#000000" fill-opacity="0.0" clip-path="url(#id_0)" d="M181.95644 311.18005C181.95644 312.83688 180.6133 314.18005 178.95644 314.18005C177.29958 314.18005 175.95644 312.83688 175.95644 311.18005C175.95644 309.5232 177.29958 308.18005 178.95644 308.18005C180.6133 308.18005 181.95644 309.5232 181.95644 311.18005Z" fill-rule="nonzero"/><path fill="#000000" fill-opacity="0.0" clip-path="url(#id_0)" d="M186.9901 310.01227C186.9901 311.66913 185.64696 313.01227 183.9901 313.01227C182.33325 313.01227 180.9901 311.66913 180.9901 310.01227C180.9901 308.3554 182.33325 307.01227 183.9901 307.01227C185.64696 307.01227 186.9901 308.3554 186.9901 310.01227Z" fill-rule="nonzero"/><path fill="#000000" fill-opacity="0.0" clip-path="url(#id_0)" d="M192.02376 308.72168C192.02376 310.37854 190.68062 311.72168 189.02376 311.72168C187.36691 311.72168 186.02376 310.37854 186.02376 308.72168C186.02376 307.06482 187.36691 305.72168 189.02376 305.72168C190.68062 305.72168 192.02376 307.06482 192.02376 308.72168Z" fill-rule="nonzero"/><path fill="#000000" fill-opacity="0.0" clip-path="url(#id_0)" d="M197.05742 307.30212C197.05742 308.95898 195.71428 310.30212 194.05742 310.30212C192.40057 310.30212 191.05742 308.95898 191.05742 307.30212C191.05742 305.64526 192.40057 304.30212 194.05742 304.30212C195.71428 304.30212 197.05742 305.64526 197.05742 307.30212Z" fill-rule="nonzero"/><path fill="#000000" fill-opacity="0.0" clip-path="url(#id_0)" d="M202.0911 305.74747C202.0911 307.40433 200.74794 308.74747 199.0911 308.74747C197.43423 308.74747 196.0911 307.40433 196.0911 305.74747C196.0911 304.09064 197.43423 302.74747 199.0911 302.74747C200.74794 302.74747 202.0911 304.09064 202.0911 305.74747Z" fill-rule="nonzero"/><path fill="#000000" fill-opacity="0.0" clip-path="url(#id_0)" d="M207.12476 304.0516C207.12476 305.70847 205.7816 307.0516 204.12476 307.0516C202.4679 307.0516 201.12476 305.70847 201.12476 304.0516C201.12476 302.39474 202.4679 301.0516 204.12476 301.0516C205.7816 301.0516 207.12476 302.39474 207.12476 304.0516Z" fill-rule="nonzero"/><path fill="#000000" fill-opacity="0.0" clip-path="url(#id_0)" d="M212.15842 302.20834C212.15842 303.86517 210.81528 305.20834 209.15842 305.20834C207.50156 305.20834 206.15842 303.86517 206.15842 302.20834C206.15842 300.55148 207.50156 299.20834 209.15842 299.20834C210.81528 299.20834 212.15842 300.55148 212.15842 302.20834Z" fill-rule="nonzero"/><path fill="#000000" fill-opacity="0.0" clip-path="url(#id_0)" d="M217.19208 300.21155C217.19208 301.8684 215.84894 303.21155 214.19208 303.21155C212.53523 303.21155 211.19208 301.8684 211.19208 300.21155C211.19208 298.5547 212.53523 297.21155 214.19208 297.21155C215.84894 297.21155 217.19208 298.5547 217.19208 300.21155Z" fill-rule="nonzero"/><path fill="#000000" fill-opacity="0.0" clip-path="url(#id_0)" d="M222.22574 298.0551C222.22574 299.71198 220.8826 301.0551 219.22574 301.0551C217.5689 301.0551 216.22574 299.71198 216.22574 298.0551C216.22574 296.39825 217.5689 295.0551 219.22574 295.0551C220.8826 295.0551 222.22574 296.39825 222.22574 298.0551Z" fill-rule="nonzero"/><path fill="#000000" fill-opacity="0.0" clip-path="url(#id_0)" d="M227.2594 295.73285C227.2594 297.3897 225.91626 298.73285 224.2594 298.73285C222.60255 298.73285 221.2594 297.3897 221.2594 295.73285C221.2594 294.07602 222.60255 292.73285 224.2594 292.73285C225.91626 292.73285 227.2594 294.07602 227.2594 295.73285Z" fill-rule="nonzero"/><path fill="#000000" fill-opacity="0.0" clip-path="url(#id_0)" d="M232.29308 293.23868C232.29308 294.89554 230.94992 296.23868 229.29308 296.23868C227.63622 296.23868 226.29308 294.89554 226.29308 293.23868C226.29308 291.58182 227.63622 290.23868 229.29308 290.23868C230.94992 290.23868 232.29308 291.58182 232.29308 293.23868Z" fill-rule="nonzero"/><path fill="#000000" fill-opacity="0.0" clip-path="url(#id_0)" d="M237.32674 290.5664C237.32674 292.22327 235.98358 293.5664 234.32674 293.5664C232.66988 293.5664 231.32674 292.22327 231.32674 290.5664C231.32674 288.90955 232.66988 287.5664 234.32674 287.5664C235.98358 287.5664 237.32674 288.90955 237.32674 290.5664Z" fill-rule="nonzero"/><path fill="#000000" fill-opacity="0.0" clip-path="url(#id_0)" d="M242.3604 287.7099C242.3604 289.36676 241.01726 290.7099 239.3604 290.7099C237.70354 290.7099 236.3604 289.36676 236.3604 287.7099C236.3604 286.05304 237.70354 284.7099 239.3604 284.7099C241.01726 284.7099 242.3604 286.05304 242.3604 287.7099Z" fill-rule="nonzero"/><path fill="#000000" fill-opacity="0.0" clip-path="url(#id_0)" d="M247.39406 284.66306C247.39406 286.3199 246.05092 287.66306 244.39406 287.66306C242.7372 287.66306 241.39406 286.3199 241.39406 284.66306C241.39406 283.0062 242.7372 281.66306 244.39406 281.66306C246.05092 281.66306 247.39406 283.0062 247.39406 284.66306Z" fill-rule="nonzero"/><path fill="#000000" fill-opacity="0.0" clip-path="url(#id_0)" d="M252.42772 281.41968C252.42772 283.07654 251.08458 284.41968 249.42772 284.41968C247.77087 284.41968 246.42772 283.07654 246.42772 281.41968C246.42772 279.76282 247.77087 278.41968 249.42772 278.41968C251.08458 278.41968 252.42772 279.76282 252.42772 281.41968Z" fill-rule="nonzero"/><path fill="#000000" fill-opacity="0.0" clip-path="url(#id_0)" d="M257.4614 277.97366C257.4614 279.63052 256.11826 280.97366 254.46138 280.97366C252.80453 280.97366 251.46138 279.63052 251.46138 277.97366C251.46138 276.3168 252.80453 274.97366 254.46138 274.97366C256.11826 274.97366 257.4614 276.3168 257.4614 277.97366Z" fill-rule="nonzero"/><path fill="#000000" fill-opacity="0.0" clip-path="url(#id_0)" d="M262.49506 274.31888C262.49506 275.9757 261.15192 277.31888 259.49506 277.31888C257.8382 277.31888 256.49506 275.9757 256.49506 274.31888C256.49506 272.66202 257.8382 271.31888 259.49506 271.31888C261.15192 271.31888 262.49506 272.66202 262.49506 274.31888Z" fill-rule="nonzero"/><path fill="#000000" fill-opacity="0.0" clip-path="url(#id_0)" d="M267.52872 270.44913C267.52872 272.106 266.18558 273.44913 264.52872 273.44913C262.87186 273.44913 261.52872 272.106 261.52872 270.44913C261.52872 268.7923 262.87186 267.44913 264.52872 267.44913C266.18558 267.44913 267.52872 268.7923 267.52872 270.44913Z" fill-rule="nonzero"/><path fill="#000000" fill-opacity="0.0" clip-path="url(#id_0)" d="M272.56238 266.35834C272.56238 268.0152 271.21924 269.35834 269.56238 269.35834C267.90552 269.35834 266.56238 268.0152 266.56238 266.35834C266.56238 264.70148 267.90552 263.35834 269.56238 263.35834C271.21924 263.35834 272.56238 264.70148 272.56238 266.35834Z" fill-rule="nonzero"/><path fill="#000000" fill-opacity="0.0" clip-path="url(#id_0)" d="M277.59604 262.04034C277.59604 263.6972 276.2529 265.04034 274.59604 265.04034C272.93918 265.04034 271.59604 263.6972 271.59604 262.04034C271.59604 260.38348 272.93918 259.04034 274.59604 259.04034C276.2529 259.04034 277.59604 260.38348 277.59604 262.04034Z" fill-rule="nonzero"/><path fill="#000000" fill-opacity="0.0" clip-path="url(#id_0)" d="M282.6297 257.48898C282.6297 259.14584 281.28656 260.48898 279.6297 260.48898C277.97284 260.48898 276.6297 259.14584 276.6297 257.48898C276.6297 255.83212 277.97284 254.48898 279.6297 254.48898C281.28656 254.48898 282.6297 255.83212 282.6297 257.48898Z" fill-rule="nonzero"/><path fill="#000000" fill-opacity="0.0" clip-path="url(#id_0)" d="M287.66336 252.69814C287.66336 254.35498 286.32022 255.69814 284.66336 255.69814C283.0065 255.69814 281.66336 254.35498 281.66336 252.69814C281.66336 251.04128 283.0065 249.69814 284.66336 249.69814C286.32022 249.69814 287.66336 251.04128 287.66336 252.69814Z" fill-rule="nonzero"/><path fill="#000000" fill-opacity="0.0" clip-path="url(#id_0)" d="M292.69702 247.66165C292.69702 249.31851 291.35388 250.66165 289.69702 250.66165C288.04016 250.66165 286.69702 249.31851 286.69702 247.66165C286.69702 246.0048 288.04016 244.66165 289.69702 244.66165C291.35388 244.66165 292.69702 246.0048 292.69702 247.66165Z" fill-rule="nonzero"/><path fill="#000000" fill-opacity="0.0" clip-path="url(#id_0)" d="M297.73068 242.3734C297.73068 244.03026 296.38754 245.3734 294.73068 245.3734C293.07385 245.3734 291.73068 244.03026 291.73068 242.3734C291.73068 240.71655 293.07385 239.3734 294.73068 239.3734C296.38754 239.3734 297.73068 240.71655 297.73068 242.3734Z" fill-rule="nonzero"/><path fill="#000000" fill-opacity="0.0" clip-path="url(#id_0)" d="M302.76434 236.82724C302.76434 238.48409 301.4212 239.82724 299.76434 239.82724C298.1075 239.82724 296.76434 238.48409 296.76434 236.82724C296.76434 235.17038 298.1075 233.82724 299.76434 233.82724C301.4212 233.82724 302.76434 235.17038 302.76434 236.82724Z" fill-rule="nonzero"/><path fill="#000000" fill-opacity="0.0" clip-path="url(#id_0)" d="M307.79803 231.01701C307.79803 232.67387 306.45486 234.01701 304.79803 234.01701C303.14117 234.01701 301.79803 232.67387 301.79803 231.01701C301.79803 229.36017 303.14117 228.01701 304.79803 228.01701C306.45486 228.01701 307.79803 229.36017 307.79803 231.01701Z" fill-rule="nonzero"/><path fill="#000000" fill-opacity="0.0" clip-path="url(#id_0)" d="M312.8317 224.9366C312.8317 226.59346 311.48853 227.9366 309.8317 227.9366C308.17484 227.9366 306.8317 226.59346 306.8317 224.9366C306.8317 223.27974 308.17484 221.9366 309.8317 221.9366C311.48853 221.9366 312.8317 223.27974 312.8317 224.9366Z" fill-rule="nonzero"/><path fill="#000000" fill-opacity="0.0" clip-path="url(#id_0)" d="M317.86536 218.57985C317.86536 220.23671 316.5222 221.57985 314.86536 221.57985C313.2085 221.57985 311.86536 220.23671 311.86536 218.57985C311.86536 216.92299 313.2085 215.57985 314.86536 215.57985C316.5222 215.57985 317.86536 216.92299 317.86536 218.57985Z" fill-rule="nonzero"/><path fill="#000000" fill-opacity="0.0" clip-path="url(#id_0)" d="M322.89902 211.94061C322.89902 213.59747 321.55588 214.94061 319.89902 214.94061C318.24216 214.94061 316.89902 213.59747 316.89902 211.94061C316.89902 210.28377 318.24216 208.94061 319.89902 208.94061C321.55588 208.94061 322.89902 210.28377 322.89902 211.94061Z" fill-rule="nonzero"/><path fill="#000000" fill-opacity="0.0" clip-path="url(#id_0)" d="M327.93268 205.01277C327.93268 206.66963 326.58954 208.01277 324.93268 208.01277C323.27582 208.01277 321.93268 206.66963 321.93268 205.01277C321.93268 203.35593 323.27582 202.01277 324.93268 202.01277C326.58954 202.01277 327.93268 203.35593 327.93268 205.01277Z" fill-rule="nonzero"/><path fill="#000000" fill-opacity="0.0" clip-path="url(#id_0)" d="M332.96634 197.79018C332.96634 199.44702 331.6232 200.79018 329.96634 200.79018C328.30948 200.79018 326.96634 199.44702 326.96634 197.79018C326.96634 196.13332 328.30948 194.79018 329.96634 194.79018C331.6232 194.79018 332.96634 196.13332 332.96634 197.79018Z" fill-rule="nonzero"/><path fill="#000000" fill-opacity="0.0" clip-path="url(#id_0)" d="M338.0 190.26666C338.0 191.92352 336.65686 193.26666 335.0 193.26666C333.34314 193.26666 332.0 191.92352 332.0 190.26666C332.0 188.60982 333.34314 187.26666 335.0 187.26666C336.65686 187.26666 338.0 188.60982 338.0 190.26666Z" fill-rule="nonzero"/><path fill="#000000" fill-opacity="0.0" clip-path="url(#id_0)" d="M343.03366 182.74316C343.03366 184.40002 341.69052 185.74316 340.03366 185.74316C338.3768 185.74316 337.03366 184.40002 337.03366 182.74316C337.03366 181.0863 338.3768 179.74316 340.03366 179.74316C341.69052 179.74316 343.03366 181.0863 343.03366 182.74316Z" fill-rule="nonzero"/><path fill="#000000" fill-opacity="0.0" clip-path="url(#id_0)" d="M348.06732 175.52055C348.06732 177.17741 346.72418 178.52055 345.06732 178.52055C343.41046 178.52055 342.06732 177.17741 342.06732 175.52055C342.06732 173.86371 343.41046 172.52055 345.06732 172.52055C346.72418 172.52055 348.06732 173.86371 348.06732 175.52055Z" fill-rule="nonzero"/><path fill="#000000" fill-opacity="0.0" clip-path="url(#id_0)" d="M353.10098 168.59271C353.10098 170.24957 351.75784 171.59271 350.10098 171.59271C348.44412 171.59271 347.10098 170.24957 347.10098 168.59271C347.10098 166.93585 348.44412 165.59271 350.10098 165.59271C351.75784 165.59271 353.10098 166.93585 353.10098 168.59271Z" fill-rule="nonzero"/><path fill="#000000" fill-opacity="0.0" clip-path="url(#id_0)" d="M358.13464 161.95349C358.13464 163.61034 356.7915 164.95349 355.13464 164.95349C353.4778 164.95349 352.13464 163.61034 352.13464 161.95349C352.13464 160.29663 353.4778 158.95349 355.13464 158.95349C356.7915 158.95349 358.13464 160.29663 358.13464 161.95349Z" fill-rule="nonzero"/><path fill="#000000" fill-opacity="0.0" clip-path="url(#id_0)" d="M363.1683 155.59674C363.1683 157.25359 361.82516 158.59674 360.1683 158.59674C358.51147 158.59674 357.1683 157.25359 357.1683 155.59674C357.1683 153.93988 358.51147 152.59674 360.1683 152.59674C361.82516 152.59674 363.1683 153.93988 363.1683 155.59674Z" fill-rule="nonzero"/><path fill="#000000" fill-opacity="0.0" clip-path="url(#id_0)" d="M368.20197 149.51631C368.20197 151.17317 366.85883 152.51631 365.20197 152.51631C363.54514 152.51631 362.20197 151.17317 362.20197 149.51631C362.20197 147.85947 363.54514 146.51631 365.20197 146.51631C366.85883 146.51631 368.20197 147.85947 368.20197 149.51631Z" fill-rule="nonzero"/><path fill="#000000" fill-opacity="0.0" clip-path="url(#id_0)" d="M373.23566 143.7061C373.23566 145.36295 371.8925 146.7061 370.23566 146.7061C368.5788 146.7061 367.23566 145.36295 367.23566 143.7061C367.23566 142.04924 368.5788 140.7061 370.23566 140.7061C371.8925 140.7061 373.23566 142.04924 373.23566 143.7061Z" fill-rule="nonzero"/><path fill="#000000" fill-opacity="0.0" clip-path="url(#id_0)" d="M378.26932 138.15993C378.26932 139.81679 376.92615 141.15993 375.26932 141.15993C373.61246 141.15993 372.26932 139.81679 372.26932 138.15993C372.26932 136.50308 373.61246 135.15993 375.26932 135.15993C376.92615 135.15993 378.26932 136.50308 378.26932 138.15993Z" fill-rule="nonzero"/><path fill="#000000" fill-opacity="0.0" clip-path="url(#id_0)" d="M383.30298 132.87167C383.30298 134.52853 381.95984 135.87167 380.30298 135.87167C378.64612 135.87167 377.30298 134.52853 377.30298 132.87167C377.30298 131.21483 378.64612 129.87167 380.30298 129.87167C381.95984 129.87167 383.30298 131.21483 383.30298 132.87167Z" fill-rule="nonzero"/><path fill="#000000" fill-opacity="0.0" clip-path="url(#id_0)" d="M388.33664 127.8352C388.33664 129.49205 386.9935 130.8352 385.33664 130.8352C383.67978 130.8352 382.33664 129.49205 382.33664 127.8352C382.33664 126.178345 383.67978 124.8352 385.33664 124.8352C386.9935 124.8352 388.33664 126.178345 388.33664 127.8352Z" fill-rule="nonzero"/><path fill="#000000" fill-opacity="0.0" clip-path="url(#id_0)" d="M393.3703 123.04435C393.3703 124.70121 392.02716 126.04435 390.3703 126.04435C388.71344 126.04435 387.3703 124.70121 387.3703 123.04435C387.3703 121.3875 388.71344 120.04435 390.3703 120.04435C392.02716 120.04435 393.3703 121.3875 393.3703 123.04435Z" fill-rule="nonzero"/><path fill="#000000" fill-opacity="0.0" clip-path="url(#id_0)" d="M398.40396 118.493C398.40396 120.14985 397.06082 121.493 395.40396 121.493C393.7471 121.493 392.40396 120.14985 392.40396 118.493C392.40396 116.83614 393.7471 115.493 395.40396 115.493C397.06082 115.493 398.40396 116.83614 398.40396 118.493Z" fill-rule="nonzero"/><path fill="#000000" fill-opacity="0.0" clip-path="url(#id_0)" d="M403.43762 114.17499C403.43762 115.83185 402.09448 117.17499 400.43762 117.17499C398.78076 117.17499 397.43762 115.83185 397.43762 114.17499C397.43762 112.518135 398.78076 111.17499 400.43762 111.17499C402.09448 111.17499 403.43762 112.518135 403.43762 114.17499Z" fill-rule="nonzero"/><path fill="#000000" fill-opacity="0.0" clip-path="url(#id_0)" d="M408.47128 110.08419C408.47128 111.74105 407.12814 113.08419 405.47128 113.08419C403.81442 113.08419 402.47128 111.74105 402.47128 110.08419C402.47128 108.42734 403.81442 107.08419 405.47128 107.08419C407.12814 107.08419 408.47128 108.42734 408.47128 110.08419Z" fill-rule="nonzero"/><path fill="#000000" fill-opacity="0.0" clip-path="url(#id_0)" d="M413.50494 106.21447C413.50494 107.87132 412.1618 109.21447 410.50494 109.21447C408.84808 109.21447 407.50494 107.87132 407.50494 106.21447C407.50494 104.55761 408.84808 103.21447 410.50494 103.21447C412.1618 103.21447 413.50494 104.55761 413.50494 106.21447Z" fill-rule="nonzero"/><path fill="#000000" fill-opacity="0.0" clip-path="url(#id_0)" d="M418.5386 102.55967C418.5386 104.21652 417.19547 105.55967 415.5386 105.55967C413.88174 105.55967 412.5386 104.21652 412.5386 102.55967C412.5386 100.90281 413.88174 99.55967 415.5386 99.55967C417.19547 99.55967 418.5386 100.90281 418.5386 102.55967Z" fill-rule="nonzero"/><path fill="#000000" fill-opacity="0.0" clip-path="url(#id_0)" d="M423.57227 99.113655C423.57227 100.77051 422.22913 102.113655 420.57227 102.113655C418.91544 102.113655 417.57227 100.77051 417.57227 99.113655C417.57227 97.4568 418.91544 96.113655 420.57227 96.113655C422.22913 96.113655 423.57227 97.4568 423.57227 99.113655Z" fill-rule="nonzero"/><path fill="#000000" fill-opacity="0.0" clip-path="url(#id_0)" d="M428.60593 95.87029C428.60593 97.527145 427.2628 98.87029 425.60593 98.87029C423.9491 98.87029 422.60593 97.527145 422.60593 95.87029C422.60593 94.21343 423.9491 92.87029 425.60593 92.87029C427.2628 92.87029 428.60593 94.21343 428.60593 95.87029Z" fill-rule="nonzero"/><path fill="#000000" fill-opacity="0.0" clip-path="url(#id_0)" d="M433.63962 92.823425C433.63962 94.480286 432.29645 95.823425 430.63962 95.823425C428.98276 95.823425 427.63962 94.480286 427.63962 92.823425C427.63962 91.16657 428.98276 89.823425 430.63962 89.823425C432.29645 89.823425 433.63962 91.16657 433.63962 92.823425Z" fill-rule="nonzero"/><path fill="#000000" fill-opacity="0.0" clip-path="url(#id_0)" d="M438.67328 89.966934C438.67328 91.62379 437.3301 92.966934 435.67328 92.966934C434.01642 92.966934 432.67328 91.62379 432.67328 89.966934C432.67328 88.31008 434.01642 86.966934 435.67328 86.966934C437.3301 86.966934 438.67328 88.31008 438.67328 89.966934Z" fill-rule="nonzero"/><path fill="#000000" fill-opacity="0.0" clip-path="url(#id_0)" d="M443.70694 87.29466C443.70694 88.951515 442.3638 90.29466 440.70694 90.29466C439.05008 90.29466 437.70694 88.951515 437.70694 87.29466C437.70694 85.63781 439.05008 84.29466 440.70694 84.29466C442.3638 84.29466 443.70694 85.63781 443.70694 87.29466Z" fill-rule="nonzero"/><path fill="#000000" fill-opacity="0.0" clip-path="url(#id_0)" d="M448.7406 84.800476C448.7406 86.45733 447.39746 87.800476 445.7406 87.800476C444.08374 87.800476 442.7406 86.45733 442.7406 84.800476C442.7406 83.143616 444.08374 81.800476 445.7406 81.800476C447.39746 81.800476 448.7406 83.143616 448.7406 84.800476Z" fill-rule="nonzero"/><path fill="#000000" fill-opacity="0.0" clip-path="url(#id_0)" d="M453.77426 82.478226C453.77426 84.13508 452.43112 85.478226 450.77426 85.478226C449.1174 85.478226 447.77426 84.13508 447.77426 82.478226C447.77426 80.82137 449.1174 79.478226 450.77426 79.478226C452.43112 79.478226 453.77426 80.82137 453.77426 82.478226Z" fill-rule="nonzero"/><path fill="#000000" fill-opacity="0.0" clip-path="url(#id_0)" d="M458.80792 80.321785C458.80792 81.97864 457.46478 83.321785 455.80792 83.321785C454.15106 83.321785 452.80792 81.97864 452.80792 80.321785C452.80792 78.66493 454.15106 77.321785 455.80792 77.321785C457.46478 77.321785 458.80792 78.66493 458.80792 80.321785Z" fill-rule="nonzero"/><path fill="#000000" fill-opacity="0.0" clip-path="url(#id_0)" d="M463.84158 78.325C463.84158 79.98186 462.49844 81.325 460.84158 81.325C459.18472 81.325 457.84158 79.98186 457.84158 78.325C457.84158 76.668144 459.18472 75.325 460.84158 75.325C462.49844 75.325 463.84158 76.668144 463.84158 78.325Z" fill-rule="nonzero"/><path fill="#000000" fill-opacity="0.0" clip-path="url(#id_0)" d="M468.87524 76.481735C468.87524 78.13859 467.5321 79.481735 465.87524 79.481735C464.21838 79.481735 462.87524 78.13859 462.87524 76.481735C462.87524 74.82488 464.21838 73.481735 465.87524 73.481735C467.5321 73.481735 468.87524 74.82488 468.87524 76.481735Z" fill-rule="nonzero"/><path fill="#000000" fill-opacity="0.0" clip-path="url(#id_0)" d="M473.9089 74.78585C473.9089 76.4427 472.56577 77.78585 470.9089 77.78585C469.25204 77.78585 467.9089 76.4427 467.9089 74.78585C467.9089 73.129 469.25204 71.78585 470.9089 71.78585C472.56577 71.78585 473.9089 73.129 473.9089 74.78585Z" fill-rule="nonzero"/><path fill="#000000" fill-opacity="0.0" clip-path="url(#id_0)" d="M478.94257 73.23121C478.94257 74.88806 477.59943 76.23121 475.94257 76.23121C474.2857 76.23121 472.94257 74.88806 472.94257 73.23121C472.94257 71.57435 474.2857 70.23121 475.94257 70.23121C477.59943 70.23121 478.94257 71.57435 478.94257 73.23121Z" fill-rule="nonzero"/><path fill="#000000" fill-opacity="0.0" clip-path="url(#id_0)" d="M483.97623 71.81166C483.97623 73.46851 482.6331 74.81166 480.97623 74.81166C479.3194 74.81166 477.97623 73.46851 477.97623 71.81166C477.97623 70.1548 479.3194 68.81166 480.97623 68.81166C482.6331 68.81166 483.97623 70.1548 483.97623 71.81166Z" fill-rule="nonzero"/><path fill="#000000" fill-opacity="0.0" clip-path="url(#id_0)" d="M489.0099 70.521065C489.0099 72.17792 487.66675 73.521065 486.0099 73.521065C484.35306 73.521065 483.0099 72.17792 483.0099 70.521065C483.0099 68.86421 484.35306 67.521065 486.0099 67.521065C487.66675 67.521065 489.0099 68.86421 489.0099 70.521065Z" fill-rule="nonzero"/><path fill="#000000" fill-opacity="0.0" clip-path="url(#id_0)" d="M494.04358 69.353294C494.04358 71.01015 492.7004 72.353294 491.04358 72.353294C489.38672 72.353294 488.04358 71.01015 488.04358 69.353294C488.04358 67.696434 489.38672 66.353294 491.04358 66.353294C492.7004 66.353294 494.04358 67.696434 494.04358 69.353294Z" fill-rule="nonzero"/><path fill="#000000" fill-opacity="0.0" clip-path="url(#id_0)" d="M499.07724 68.30219C499.07724 69.959045 497.73407 71.30219 496.07724 71.30219C494.42038 71.30219 493.07724 69.959045 493.07724 68.30219C493.07724 66.64534 494.42038 65.30219 496.07724 65.30219C497.73407 65.30219 499.07724 66.64534 499.07724 68.30219Z" fill-rule="nonzero"/><path fill="#000000" fill-opacity="0.0" clip-path="url(#id_0)" d="M504.1109 67.361626C504.1109 69.01848 502.76773 70.361626 501.1109 70.361626C499.45404 70.361626 498.1109 69.01848 498.1109 67.361626C498.1109 65.70477 499.45404 64.361626 501.1109 64.361626C502.76773 64.361626 504.1109 65.70477 504.1109 67.361626Z" fill-rule="nonzero"/><path fill="#000000" fill-opacity="0.0" clip-path="url(#id_0)" d="M509.14456 66.52545C509.14456 68.182304 507.80142 69.52545 506.14456 69.52545C504.4877 69.52545 503.14456 68.182304 503.14456 66.52545C503.14456 64.8686 504.4877 63.52545 506.14456 63.52545C507.80142 63.52545 509.14456 64.8686 509.14456 66.52545Z" fill-rule="nonzero"/><path fill="#000000" fill-opacity="0.0" clip-path="url(#id_0)" d="M514.1782 65.78754C514.1782 67.44439 512.8351 68.78754 511.17822 68.78754C509.52136 68.78754 508.17822 67.44439 508.17822 65.78754C508.17822 64.13068 509.52136 62.787533 511.17822 62.787533C512.8351 62.787533 514.1782 64.13068 514.1782 65.78754Z" fill-rule="nonzero"/><path fill="#000000" fill-opacity="0.0" clip-path="url(#id_0)" d="M519.21185 65.14172C519.21185 66.79858 517.8687 68.14172 516.21185 68.14172C514.55505 68.14172 513.21185 66.79858 513.21185 65.14172C513.21185 63.48487 514.55505 62.141727 516.21185 62.141727C517.8687 62.141727 519.21185 63.48487 519.21185 65.14172Z" fill-rule="nonzero"/><path fill="#000000" fill-opacity="0.0" clip-path="url(#id_0)" d="M524.24554 64.58189C524.24554 66.23875 522.9024 67.58189 521.24554 67.58189C519.5887 67.58189 518.24554 66.23875 518.24554 64.58189C518.24554 62.925034 519.5887 61.58189 521.24554 61.58189C522.9024 61.58189 524.24554 62.925034 524.24554 64.58189Z" fill-rule="nonzero"/><path fill="#000000" fill-opacity="0.0" clip-path="url(#id_0)" d="M529.27924 64.10188C529.27924 65.758736 527.93604 67.10188 526.27924 67.10188C524.6224 67.10188 523.27924 65.758736 523.27924 64.10188C523.27924 62.44503 524.6224 61.101883 526.27924 61.101883C527.93604 61.101883 529.27924 62.44503 529.27924 64.10188Z" fill-rule="nonzero"/><path fill="#000000" fill-opacity="0.0" clip-path="url(#id_0)" d="M534.31287 63.695568C534.31287 65.352425 532.9697 66.695564 531.31287 66.695564C529.656 66.695564 528.31287 65.352425 528.31287 63.695568C528.31287 62.03871 529.656 60.695568 531.31287 60.695568C532.9697 60.695568 534.31287 62.03871 534.31287 63.695568Z" fill-rule="nonzero"/><path fill="#000000" fill-opacity="0.0" clip-path="url(#id_0)" d="M539.34656 63.3568C539.34656 65.01366 538.0034 66.3568 536.34656 66.3568C534.6897 66.3568 533.34656 65.01366 533.34656 63.3568C533.34656 61.699947 534.6897 60.3568 536.34656 60.3568C538.0034 60.3568 539.34656 61.699947 539.34656 63.3568Z" fill-rule="nonzero"/><path fill="#000000" fill-opacity="0.0" clip-path="url(#id_0)" d="M544.3802 63.07944C544.3802 64.7363 543.03705 66.07944 541.3802 66.07944C539.7233 66.07944 538.3802 64.7363 538.3802 63.07944C538.3802 61.422585 539.7233 60.07944 541.3802 60.07944C543.03705 60.07944 544.3802 61.422585 544.3802 63.07944Z" fill-rule="nonzero"/><path fill="#000000" fill-opacity="0.0" clip-path="url(#id_0)" d="M549.4139 62.85735C549.4139 64.514206 548.07074 65.857346 546.4139 65.857346C544.757 65.857346 543.4139 64.514206 543.4139 62.85735C543.4139 61.200493 544.757 59.85735 546.4139 59.85735C548.07074 59.85735 549.4139 61.200493 549.4139 62.85735Z" fill-rule="nonzero"/><path fill="#000000" fill-opacity="0.0" clip-path="url(#id_0)" d="M554.4475 62.684383C554.4475 64.34124 553.1044 65.68438 551.4475 65.68438C549.79065 65.68438 548.4475 64.34124 548.4475 62.684383C548.4475 61.027527 549.79065 59.684383 551.4475 59.684383C553.1044 59.684383 554.4475 61.027527 554.4475 62.684383Z" fill-rule="nonzero"/><path fill="#000000" fill-opacity="0.0" clip-path="url(#id_0)" d="M559.4812 62.5544C559.4812 64.21126 558.13806 65.554405 556.4812 65.554405C554.82434 65.554405 553.4812 64.21126 553.4812 62.5544C553.4812 60.89755 554.82434 59.5544 556.4812 59.5544C558.13806 59.5544 559.4812 60.89755 559.4812 62.5544Z" fill-rule="nonzero"/><path fill="#000000" fill-opacity="0.0" clip-path="url(#id_0)" d="M564.51483 62.461266C564.51483 64.11812 563.1717 65.461266 561.51483 65.461266C559.858 65.461266 558.51483 64.11812 558.51483 62.461266C558.51483 60.804413 559.858 59.461266 561.51483 59.461266C563.1717 59.461266 564.51483 60.804413 564.51483 62.461266Z" fill-rule="nonzero"/><path fill="#000000" fill-opacity="0.0" clip-path="url(#id_0)" d="M569.5485 62.398834C569.5485 64.05569 568.2054 65.398834 566.5485 65.398834C564.89166 65.398834 563.5485 64.05569 563.5485 62.398834C563.5485 60.74198 564.89166 59.398834 566.5485 59.398834C568.2054 59.398834 569.5485 60.74198 569.5485 62.398834Z" fill-rule="nonzero"/><path fill="#000000" fill-opacity="0.0" clip-path="url(#id_0)" d="M574.58215 62.360966C574.58215 64.01782 573.239 65.36097 571.58215 65.36097C569.92535 65.36097 568.58215 64.01782 568.58215 62.360966C568.58215 60.704113 569.92535 59.360966 571.58215 59.360966C573.239 59.360966 574.58215 60.704113 574.58215 62.360966Z" fill-rule="nonzero"/><path fill="#000000" fill-opacity="0.0" clip-path="url(#id_0)" d="M579.61584 62.341522C579.61584 63.998375 578.2727 65.34152 576.61584 65.34152C574.959 65.34152 573.61584 63.998375 573.61584 62.341522C573.61584 60.684666 574.959 59.341522 576.61584 59.341522C578.2727 59.341522 579.61584 60.684666 579.61584 62.341522Z" fill-rule="nonzero"/><path fill="#000000" fill-opacity="0.0" clip-path="url(#id_0)" d="M584.6495 62.33436C584.6495 63.99121 583.30634 65.33436 581.6495 65.33436C579.9927 65.33436 578.6495 63.99121 578.6495 62.33436C578.6495 60.6775 579.9927 59.33436 581.6495 59.33436C583.30634 59.33436 584.6495 60.6775 584.6495 62.33436Z" fill-rule="nonzero"/><path fill="#000000" fill-opacity="0.0" clip-path="url(#id_0)" d="M589.68317 62.333332C589.68317 63.99019 588.34 65.333336 586.68317 65.333336C585.0263 65.333336 583.68317 63.99019 583.68317 62.333332C583.68317 60.67648 585.0263 59.333332 586.68317 59.333332C588.34 59.333332 589.68317 60.67648 589.68317 62.333332Z" fill-rule="nonzero"/><path fill="#000000" d="M336.59375 353.2625L336.75 354.1844Q336.29688 354.27814 335.95312 354.27814Q335.375 354.27814 335.0625 354.10626Q334.75 353.91876 334.60938 353.6219Q334.48438 353.325 334.48438 352.3719L334.48438 348.79376L333.71875 348.79376L333.71875 347.98126L334.48438 347.98126L334.48438 346.4344L335.53125 345.8094L335.53125 347.98126L336.59375 347.98126L336.59375 348.79376L335.53125 348.79376L335.53125 352.4344Q335.53125 352.8875 335.57812 353.0125Q335.64062 353.1375 335.76562 353.21564Q335.89062 353.29376 336.125 353.29376Q336.3125 353.29376 336.59375 353.2625Z" fill-rule="nonzero"/><path fill="#000000" d="M29.800013 192.67291L26.565638 190.40729L23.581263 192.50104L23.581263 191.18854L25.034388 190.23541Q25.456263 189.96979 25.737513 189.79791Q25.346888 189.54791 25.050013 189.32916L23.581263 188.28229L23.581263 187.01666L26.503138 189.17291L29.800013 186.86041L29.800013 188.14166L27.862513 189.42291L27.346888 189.76666L29.800013 191.40729L29.800013 192.67291Z" fill-rule="nonzero"/><path fill="#000000" d="M51.3 317.96564Q51.3 316.4344 51.6125 315.5125Q51.925 314.575 52.534374 314.075Q53.159374 313.575 54.096874 313.575Q54.784374 313.575 55.3 313.85626Q55.83125 314.1375 56.175 314.66876Q56.51875 315.1844 56.70625 315.9344Q56.89375 316.6844 56.89375 317.96564Q56.89375 319.48126 56.58125 320.40314Q56.284374 321.325 55.659374 321.84064Q55.05 322.34064 54.096874 322.34064Q52.8625 322.34064 52.14375 321.45Q51.3 320.3875 51.3 317.96564ZM52.378124 317.96564Q52.378124 320.075 52.878124 320.77814Q53.378124 321.48126 54.096874 321.48126Q54.83125 321.48126 55.315624 320.77814Q55.815624 320.075 55.815624 317.96564Q55.815624 315.84064 55.315624 315.15314Q54.83125 314.45 54.08125 314.45Q53.3625 314.45 52.925 315.0594Q52.378124 315.84064 52.378124 317.96564ZM58.89375 322.2L58.89375 320.9969L60.096874 320.9969L60.096874 322.2L58.89375 322.2ZM61.3 317.96564Q61.3 316.4344 61.6125 315.5125Q61.925 314.575 62.534374 314.075Q63.159374 313.575 64.09688 313.575Q64.78438 313.575 65.3 313.85626Q65.83125 314.1375 66.175 314.66876Q66.51875 315.1844 66.70625 315.9344Q66.89375 316.6844 66.89375 317.96564Q66.89375 319.48126 66.58125 320.40314Q66.28438 321.325 65.65938 321.84064Q65.05 322.34064 64.09688 322.34064Q62.8625 322.34064 62.14375 321.45Q61.3 320.3875 61.3 317.96564ZM62.378124 317.96564Q62.378124 320.075 62.878124 320.77814Q63.378124 321.48126 64.09688 321.48126Q64.83125 321.48126 65.31563 320.77814Q65.81563 320.075 65.81563 317.96564Q65.81563 315.84064 65.31563 315.15314Q64.83125 314.45 64.08125 314.45Q63.3625 314.45 62.925 315.0594Q62.378124 315.84064 62.378124 317.96564ZM68.3 317.96564Q68.3 316.4344 68.6125 315.5125Q68.925 314.575 69.53438 314.075Q70.15938 313.575 71.09688 313.575Q71.78438 313.575 72.3 313.85626Q72.83125 314.1375 73.175 314.66876Q73.51875 315.1844 73.70625 315.9344Q73.89375 316.6844 73.89375 317.96564Q73.89375 319.48126 73.58125 320.40314Q73.28438 321.325 72.65938 321.84064Q72.05 322.34064 71.09688 322.34064Q69.8625 322.34064 69.14375 321.45Q68.3 320.3875 68.3 317.96564ZM69.37813 317.96564Q69.37813 320.075 69.87813 320.77814Q70.37813 321.48126 71.09688 321.48126Q71.83125 321.48126 72.31563 320.77814Q72.81563 320.075 72.81563 317.96564Q72.81563 315.84064 72.31563 315.15314Q71.83125 314.45 71.08125 314.45Q70.3625 314.45 69.925 315.0594Q69.37813 315.84064 69.37813 317.96564Z" fill-rule="nonzero"/><path fill="#000000" d="M51.3 253.99896Q51.3 252.46771 51.6125 251.54584Q51.925 250.60834 52.534374 250.10834Q53.159374 249.60834 54.096874 249.60834Q54.784374 249.60834 55.3 249.88959Q55.83125 250.17084 56.175 250.70209Q56.51875 251.21771 56.70625 251.96771Q56.89375 252.71771 56.89375 253.99896Q56.89375 255.51459 56.58125 256.43646Q56.284374 257.35834 55.659374 257.87396Q55.05 258.37396 54.096874 258.37396Q52.8625 258.37396 52.14375 257.48334Q51.3 256.42084 51.3 253.99896ZM52.378124 253.99896Q52.378124 256.10834 52.878124 256.81146Q53.378124 257.5146 54.096874 257.5146Q54.83125 257.5146 55.315624 256.81146Q55.815624 256.10834 55.815624 253.99896Q55.815624 251.87396 55.315624 251.18646Q54.83125 250.48334 54.08125 250.48334Q53.3625 250.48334 52.925 251.09271Q52.378124 251.87396 52.378124 253.99896ZM58.89375 258.23334L58.89375 257.0302L60.096874 257.0302L60.096874 258.23334L58.89375 258.23334ZM66.84688 257.2177L66.84688 258.23334L61.159374 258.23334Q61.159374 257.85834 61.284374 257.49896Q61.503124 256.92084 61.971874 256.35834Q62.45625 255.79584 63.3625 255.06146Q64.76875 253.90521 65.25313 253.23334Q65.75313 252.56146 65.75313 251.96771Q65.75313 251.34271 65.3 250.92084Q64.84688 250.48334 64.12813 250.48334Q63.3625 250.48334 62.909374 250.93646Q62.45625 251.38959 62.440624 252.20209L61.3625 252.09271Q61.471874 250.87396 62.190624 250.24896Q62.925 249.60834 64.15938 249.60834Q65.39375 249.60834 66.1125 250.29584Q66.83125 250.98334 66.83125 251.99896Q66.83125 252.51459 66.6125 253.01459Q66.40938 253.49896 65.90938 254.06146Q65.425 254.60834 64.3 255.56146Q63.346874 256.35834 63.065624 256.6552Q62.8 256.93646 62.628124 257.2177L66.84688 257.2177ZM68.3 255.98334L69.40938 255.88959Q69.53438 256.7021 69.97188 257.10834Q70.425 257.5146 71.06563 257.5146Q71.81563 257.5146 72.34688 256.93646Q72.87813 256.35834 72.87813 255.42084Q72.87813 254.51459 72.3625 253.99896Q71.8625 253.46771 71.03438 253.46771Q70.53438 253.46771 70.1125 253.70209Q69.70625 253.93646 69.47188 254.29584L68.4875 254.17084L69.31563 249.76459L73.59688 249.76459L73.59688 250.76459L70.15938 250.76459L69.70625 253.07709Q70.47188 252.53021 71.31563 252.53021Q72.44063 252.53021 73.20625 253.31146Q73.9875 254.09271 73.9875 255.32709Q73.9875 256.48334 73.31563 257.3427Q72.4875 258.37396 71.06563 258.37396Q69.89375 258.37396 69.14375 257.7177Q68.40938 257.06146 68.3 255.98334Z" fill-rule="nonzero"/><path fill="#000000" d="M51.3 190.03229Q51.3 188.50104 51.6125 187.57916Q51.925 186.64166 52.534374 186.14166Q53.159374 185.64166 54.096874 185.64166Q54.784374 185.64166 55.3 185.92291Q55.83125 186.20416 56.175 186.73541Q56.51875 187.25104 56.70625 188.00104Q56.89375 188.75104 56.89375 190.03229Q56.89375 191.54791 56.58125 192.46979Q56.284374 193.39166 55.659374 193.90729Q55.05 194.40729 54.096874 194.40729Q52.8625 194.40729 52.14375 193.51666Q51.3 192.45416 51.3 190.03229ZM52.378124 190.03229Q52.378124 192.14166 52.878124 192.84479Q53.378124 193.54791 54.096874 193.54791Q54.83125 193.54791 55.315624 192.84479Q55.815624 192.14166 55.815624 190.03229Q55.815624 187.90729 55.315624 187.21979Q54.83125 186.51666 54.08125 186.51666Q53.3625 186.51666 52.925 187.12604Q52.378124 187.90729 52.378124 190.03229ZM58.89375 194.26666L58.89375 193.06354L60.096874 193.06354L60.096874 194.26666L58.89375 194.26666ZM61.3 192.01666L62.409374 191.92291Q62.534374 192.73541 62.971874 193.14166Q63.425 193.54791 64.06563 193.54791Q64.81563 193.54791 65.34688 192.96979Q65.87813 192.39166 65.87813 191.45416Q65.87813 190.54791 65.3625 190.03229Q64.8625 189.50104 64.03438 189.50104Q63.534374 189.50104 63.1125 189.73541Q62.70625 189.96979 62.471874 190.32916L61.4875 190.20416L62.315624 185.79791L66.59688 185.79791L66.59688 186.79791L63.159374 186.79791L62.70625 189.11041Q63.471874 188.56354 64.31563 188.56354Q65.44063 188.56354 66.20625 189.34479Q66.9875 190.12604 66.9875 191.36041Q66.9875 192.51666 66.31563 193.37604Q65.4875 194.40729 64.06563 194.40729Q62.89375 194.40729 62.14375 193.75104Q61.409374 193.09479 61.3 192.01666ZM68.3 190.03229Q68.3 188.50104 68.6125 187.57916Q68.925 186.64166 69.53438 186.14166Q70.15938 185.64166 71.09688 185.64166Q71.78438 185.64166 72.3 185.92291Q72.83125 186.20416 73.175 186.73541Q73.51875 187.25104 73.70625 188.00104Q73.89375 188.75104 73.89375 190.03229Q73.89375 191.54791 73.58125 192.46979Q73.28438 193.39166 72.65938 193.90729Q72.05 194.40729 71.09688 194.40729Q69.8625 194.40729 69.14375 193.51666Q68.3 192.45416 68.3 190.03229ZM69.37813 190.03229Q69.37813 192.14166 69.87813 192.84479Q70.37813 193.54791 71.09688 193.54791Q71.83125 193.54791 72.31563 192.84479Q72.81563 192.14166 72.81563 190.03229Q72.81563 187.90729 72.31563 187.21979Q71.83125 186.51666 71.08125 186.51666Q70.3625 186.51666 69.925 187.12604Q69.37813 187.90729 69.37813 190.03229Z" fill-rule="nonzero"/><path fill="#000000" d="M51.3 126.06563Q51.3 124.53438 51.6125 123.6125Q51.925 122.675 52.534374 122.175Q53.159374 121.675 54.096874 121.675Q54.784374 121.675 55.3 121.95625Q55.83125 122.2375 56.175 122.76875Q56.51875 123.28438 56.70625 124.03438Q56.89375 124.78438 56.89375 126.06563Q56.89375 127.58125 56.58125 128.50313Q56.284374 129.425 55.659374 129.94063Q55.05 130.44063 54.096874 130.44063Q52.8625 130.44063 52.14375 129.55Q51.3 128.4875 51.3 126.06563ZM52.378124 126.06563Q52.378124 128.175 52.878124 128.87813Q53.378124 129.58125 54.096874 129.58125Q54.83125 129.58125 55.315624 128.87813Q55.815624 128.175 55.815624 126.06563Q55.815624 123.94063 55.315624 123.25313Q54.83125 122.55 54.08125 122.55Q53.3625 122.55 52.925 123.15938Q52.378124 123.94063 52.378124 126.06563ZM58.89375 130.3L58.89375 129.09688L60.096874 129.09688L60.096874 130.3L58.89375 130.3ZM61.3625 122.83125L61.3625 121.81563L66.925 121.81563L66.925 122.64375Q66.1125 123.51875 65.3 124.97188Q64.50313 126.40938 64.06563 127.94063Q63.7375 129.01875 63.659374 130.3L62.565624 130.3Q62.58125 129.28438 62.95625 127.84688Q63.346874 126.40938 64.05 125.08125Q64.76875 123.75313 65.58125 122.83125L61.3625 122.83125ZM68.3 128.05L69.40938 127.95625Q69.53438 128.76875 69.97188 129.175Q70.425 129.58125 71.06563 129.58125Q71.81563 129.58125 72.34688 129.00313Q72.87813 128.425 72.87813 127.4875Q72.87813 126.58125 72.3625 126.06563Q71.8625 125.53438 71.03438 125.53438Q70.53438 125.53438 70.1125 125.76875Q69.70625 126.00313 69.47188 126.3625L68.4875 126.2375L69.31563 121.83125L73.59688 121.83125L73.59688 122.83125L70.15938 122.83125L69.70625 125.14375Q70.47188 124.59688 71.31563 124.59688Q72.44063 124.59688 73.20625 125.37813Q73.9875 126.15938 73.9875 127.39375Q73.9875 128.55 73.31563 129.40938Q72.4875 130.44063 71.06563 130.44063Q69.89375 130.44063 69.14375 129.78438Q68.40938 129.12813 68.3 128.05Z" fill-rule="nonzero"/><path fill="#000000" d="M55.26875 66.333336L54.221874 66.333336L54.221874 59.614586Q53.83125 59.97396 53.20625 60.34896Q52.596874 60.708336 52.1125 60.88021L52.1125 59.864586Q52.9875 59.44271 53.64375 58.864586Q54.315624 58.270836 54.596874 57.708336L55.26875 57.708336L55.26875 66.333336ZM58.89375 66.333336L58.89375 65.13021L60.096874 65.13021L60.096874 66.333336L58.89375 66.333336ZM61.3 62.09896Q61.3 60.56771 61.6125 59.645836Q61.925 58.708336 62.534374 58.208336Q63.159374 57.708336 64.09688 57.708336Q64.78438 57.708336 65.3 57.989586Q65.83125 58.270836 66.175 58.802086Q66.51875 59.31771 66.70625 60.06771Q66.89375 60.81771 66.89375 62.09896Q66.89375 63.614586 66.58125 64.53646Q66.28438 65.458336 65.65938 65.97396Q65.05 66.47396 64.09688 66.47396Q62.8625 66.47396 62.14375 65.583336Q61.3 64.520836 61.3 62.09896ZM62.378124 62.09896Q62.378124 64.208336 62.878124 64.91146Q63.378124 65.614586 64.09688 65.614586Q64.83125 65.614586 65.31563 64.91146Q65.81563 64.208336 65.81563 62.09896Q65.81563 59.97396 65.31563 59.28646Q64.83125 58.583336 64.08125 58.583336Q63.3625 58.583336 62.925 59.19271Q62.378124 59.97396 62.378124 62.09896ZM68.3 62.09896Q68.3 60.56771 68.6125 59.645836Q68.925 58.708336 69.53438 58.208336Q70.15938 57.708336 71.09688 57.708336Q71.78438 57.708336 72.3 57.989586Q72.83125 58.270836 73.175 58.802086Q73.51875 59.31771 73.70625 60.06771Q73.89375 60.81771 73.89375 62.09896Q73.89375 63.614586 73.58125 64.53646Q73.28438 65.458336 72.65938 65.97396Q72.05 66.47396 71.09688 66.47396Q69.8625 66.47396 69.14375 65.583336Q68.3 64.520836 68.3 62.09896ZM69.37813 62.09896Q69.37813 64.208336 69.87813 64.91146Q70.37813 65.614586 71.09688 65.614586Q71.83125 65.614586 72.31563 64.91146Q72.81563 64.208336 72.81563 62.09896Q72.81563 59.97396 72.31563 59.28646Q71.83125 58.583336 71.08125 58.583336Q70.3625 58.583336 69.925 59.19271Q69.37813 59.97396 69.37813 62.09896Z" fill-rule="nonzero"/><path fill="#757575" d="M20.378124 37.8L20.378124 23.4875L30.7375 23.4875L30.7375 25.175L22.284374 25.175L22.284374 29.55L30.190624 29.55L30.190624 31.2375L22.284374 31.2375L22.284374 36.1125L31.065624 36.1125L31.065624 37.8L20.378124 37.8ZM39.89375 36.51875Q38.909374 37.346874 38.003124 37.690624Q37.096874 38.034374 36.065624 38.034374Q34.3625 38.034374 33.440624 37.20625Q32.51875 36.3625 32.51875 35.065624Q32.51875 34.3 32.8625 33.675Q33.221874 33.05 33.784374 32.675Q34.346874 32.284374 35.05 32.08125Q35.565624 31.95625 36.6125 31.815624Q38.7375 31.565624 39.7375 31.221874Q39.753124 30.8625 39.753124 30.753124Q39.753124 29.690624 39.253124 29.2375Q38.58125 28.64375 37.253124 28.64375Q36.003124 28.64375 35.409374 29.08125Q34.83125 29.51875 34.55 30.628124L32.83125 30.39375Q33.065624 29.284374 33.596874 28.6125Q34.128124 27.925 35.14375 27.565624Q36.159374 27.190624 37.503124 27.190624Q38.83125 27.190624 39.659374 27.503124Q40.4875 27.815624 40.878124 28.3Q41.26875 28.76875 41.425 29.4875Q41.51875 29.940624 41.51875 31.1125L41.51875 33.45625Q41.51875 35.909374 41.628124 36.565624Q41.7375 37.20625 42.08125 37.8L40.2375 37.8Q39.971874 37.253124 39.89375 36.51875ZM39.7375 32.596874Q38.784374 32.9875 36.8625 33.253124Q35.784374 33.409374 35.33125 33.6125Q34.89375 33.8 34.64375 34.175Q34.39375 34.55 34.39375 35.01875Q34.39375 35.721874 34.925 36.190624Q35.45625 36.659374 36.4875 36.659374Q37.503124 36.659374 38.284374 36.221874Q39.08125 35.76875 39.45625 35.003124Q39.7375 34.39375 39.7375 33.2375L39.7375 32.596874ZM43.409374 34.70625L45.159374 34.425Q45.3 35.471874 45.971874 36.034374Q46.64375 36.58125 47.846874 36.58125Q49.05 36.58125 49.628124 36.096874Q50.221874 35.596874 50.221874 34.940624Q50.221874 34.346874 49.70625 34.003124Q49.346874 33.76875 47.909374 33.409374Q45.971874 32.909374 45.221874 32.565624Q44.4875 32.20625 44.096874 31.58125Q43.70625 30.940624 43.70625 30.175Q43.70625 29.4875 44.01875 28.89375Q44.346874 28.3 44.89375 27.909374Q45.3 27.6125 46.003124 27.409374Q46.721874 27.190624 47.534374 27.190624Q48.753124 27.190624 49.675 27.55Q50.596874 27.89375 51.034374 28.503124Q51.471874 29.096874 51.64375 30.096874L49.925 30.33125Q49.8 29.534374 49.2375 29.096874Q48.675 28.64375 47.659374 28.64375Q46.440624 28.64375 45.925 29.05Q45.409374 29.440624 45.409374 29.971874Q45.409374 30.315624 45.628124 30.596874Q45.83125 30.878124 46.3 31.065624Q46.565624 31.159374 47.846874 31.503124Q49.721874 32.003124 50.45625 32.33125Q51.190624 32.64375 51.6125 33.253124Q52.034374 33.846874 52.034374 34.753124Q52.034374 35.628124 51.51875 36.409374Q51.003124 37.190624 50.034374 37.6125Q49.065624 38.034374 47.846874 38.034374Q45.83125 38.034374 44.76875 37.190624Q43.70625 36.346874 43.409374 34.70625ZM61.221874 34.45625L63.034374 34.690624Q62.6125 36.26875 61.440624 37.159374Q60.284374 38.034374 58.471874 38.034374Q56.20625 38.034374 54.8625 36.64375Q53.534374 35.2375 53.534374 32.70625Q53.534374 30.08125 54.878124 28.64375Q56.221874 27.190624 58.378124 27.190624Q60.45625 27.190624 61.76875 28.6125Q63.096874 30.01875 63.096874 32.596874Q63.096874 32.753124 63.08125 33.065624L55.346874 33.065624Q55.440624 34.76875 56.315624 35.675Q57.190624 36.58125 58.4875 36.58125Q59.45625 36.58125 60.128124 36.08125Q60.815624 35.565624 61.221874 34.45625ZM55.440624 31.6125L61.2375 31.6125Q61.128124 30.315624 60.58125 29.659374Q59.7375 28.64375 58.39375 28.64375Q57.190624 28.64375 56.3625 29.45625Q55.534374 30.253124 55.440624 31.6125ZM65.65938 37.8L65.65938 23.4875L67.56563 23.4875L67.56563 37.8L65.65938 37.8ZM71.1125 37.8L71.1125 27.425L72.70625 27.425L72.70625 28.909374Q73.84688 27.190624 76.00313 27.190624Q76.94063 27.190624 77.72188 27.534374Q78.51875 27.8625 78.90938 28.409374Q79.3 28.95625 79.45625 29.70625Q79.55 30.20625 79.55 31.425L79.55 37.8L77.78438 37.8L77.78438 31.4875Q77.78438 30.409374 77.58125 29.878124Q77.37813 29.346874 76.84688 29.034374Q76.33125 28.721874 75.62813 28.721874Q74.50313 28.721874 73.69063 29.440624Q72.87813 30.14375 72.87813 32.128124L72.87813 37.8L71.1125 37.8ZM80.76875 30.83125Q80.76875 27.26875 82.675 25.253124Q84.59688 23.221874 87.62813 23.221874Q89.6125 23.221874 91.19063 24.175Q92.78438 25.128124 93.6125 26.83125Q94.45625 28.51875 94.45625 30.659374Q94.45625 32.83125 93.58125 34.55Q92.70625 36.26875 91.08125 37.159374Q89.47188 38.05 87.6125 38.05Q85.59688 38.05 84.00313 37.08125Q82.40938 36.096874 81.58125 34.409374Q80.76875 32.70625 80.76875 30.83125ZM82.72188 30.8625Q82.72188 33.440624 84.1125 34.940624Q85.50313 36.425 87.59688 36.425Q89.7375 36.425 91.1125 34.925Q92.50313 33.409374 92.50313 30.64375Q92.50313 28.909374 91.90938 27.6125Q91.33125 26.3 90.19063 25.58125Q89.05 24.8625 87.62813 24.8625Q85.62813 24.8625 84.175 26.253124Q82.72188 27.628124 82.72188 30.8625ZM103.90938 37.8L103.90938 36.26875Q102.70625 38.034374 100.62813 38.034374Q99.70625 38.034374 98.90938 37.690624Q98.1125 37.33125 97.72188 36.8Q97.34688 36.26875 97.19063 35.4875Q97.08125 34.971874 97.08125 33.846874L97.08125 27.425L98.83125 27.425L98.83125 33.175Q98.83125 34.55 98.94063 35.034374Q99.1125 35.721874 99.64375 36.128124Q100.19063 36.51875 100.97188 36.51875Q101.76875 36.51875 102.45625 36.1125Q103.15938 35.70625 103.44063 35.01875Q103.7375 34.315624 103.7375 32.9875L103.7375 27.425L105.4875 27.425L105.4875 37.8L103.90938 37.8ZM110.95625 36.221874L111.20625 37.784374Q110.47188 37.940624 109.87813 37.940624Q108.925 37.940624 108.39375 37.64375Q107.87813 37.33125 107.65938 36.846874Q107.44063 36.346874 107.44063 34.76875L107.44063 28.8L106.15938 28.8L106.15938 27.425L107.44063 27.425L107.44063 24.8625L109.19063 23.8L109.19063 27.425L110.95625 27.425L110.95625 28.8L109.19063 28.8L109.19063 34.8625Q109.19063 35.6125 109.28438 35.83125Q109.37813 36.034374 109.58125 36.175Q109.8 36.3 110.19063 36.3Q110.47188 36.3 110.95625 36.221874ZM123.56563 32.784374L125.45625 33.253124Q124.8625 35.596874 123.31563 36.83125Q121.76875 38.05 119.51875 38.05Q117.20625 38.05 115.75313 37.1125Q114.31563 36.159374 113.55 34.378124Q112.8 32.58125 112.8 30.534374Q112.8 28.3 113.64375 26.64375Q114.50313 24.971874 116.08125 24.1125Q117.65938 23.2375 119.55 23.2375Q121.70625 23.2375 123.15938 24.33125Q124.62813 25.425 125.20625 27.409374L123.34688 27.846874Q122.84688 26.284374 121.89375 25.58125Q120.95625 24.8625 119.51875 24.8625Q117.8625 24.8625 116.75313 25.659374Q115.64375 26.440624 115.19063 27.784374Q114.75313 29.1125 114.75313 30.51875Q114.75313 32.346874 115.28438 33.721874Q115.81563 35.08125 116.94063 35.753124Q118.06563 36.425 119.3625 36.425Q120.95625 36.425 122.06563 35.503124Q123.175 34.58125 123.56563 32.784374ZM133.90938 37.8L133.90938 36.26875Q132.70625 38.034374 130.62813 38.034374Q129.70625 38.034374 128.90938 37.690624Q128.1125 37.33125 127.72188 36.8Q127.34688 36.26875 127.19063 35.4875Q127.08125 34.971874 127.08125 33.846874L127.08125 27.425L128.83125 27.425L128.83125 33.175Q128.83125 34.55 128.94063 35.034374Q129.1125 35.721874 129.64375 36.128124Q130.19063 36.51875 130.97188 36.51875Q131.76875 36.51875 132.45625 36.1125Q133.15938 35.70625 133.44063 35.01875Q133.7375 34.315624 133.7375 32.9875L133.7375 27.425L135.4875 27.425L135.4875 37.8L133.90938 37.8ZM138.7375 37.8L137.1125 37.8L137.1125 23.4875L138.8625 23.4875L138.8625 28.596874Q139.9875 27.190624 141.70625 27.190624Q142.65938 27.190624 143.51875 27.58125Q144.37813 27.971874 144.925 28.675Q145.47188 29.3625 145.78438 30.346874Q146.09688 31.33125 146.09688 32.45625Q146.09688 35.128124 144.78438 36.58125Q143.47188 38.034374 141.62813 38.034374Q139.78438 38.034374 138.7375 36.503124L138.7375 37.8ZM138.72188 32.534374Q138.72188 34.39375 139.22188 35.2375Q140.06563 36.58125 141.47188 36.58125Q142.62813 36.58125 143.45625 35.58125Q144.3 34.58125 144.3 32.596874Q144.3 30.565624 143.4875 29.6125Q142.69063 28.64375 141.55 28.64375Q140.39375 28.64375 139.55 29.64375Q138.72188 30.64375 138.72188 32.534374ZM155.22188 34.45625L157.03438 34.690624Q156.6125 36.26875 155.44063 37.159374Q154.28438 38.034374 152.47188 38.034374Q150.20625 38.034374 148.8625 36.64375Q147.53438 35.2375 147.53438 32.70625Q147.53438 30.08125 148.87813 28.64375Q150.22188 27.190624 152.37813 27.190624Q154.45625 27.190624 155.76875 28.6125Q157.09688 30.01875 157.09688 32.596874Q157.09688 32.753124 157.08125 33.065624L149.34688 33.065624Q149.44063 34.76875 150.31563 35.675Q151.19063 36.58125 152.4875 36.58125Q153.45625 36.58125 154.12813 36.08125Q154.81563 35.565624 155.22188 34.45625ZM149.44063 31.6125L155.2375 31.6125Q155.12813 30.315624 154.58125 29.659374Q153.7375 28.64375 152.39375 28.64375Q151.19063 28.64375 150.3625 29.45625Q149.53438 30.253124 149.44063 31.6125Z" fill-rule="nonzero"/></svg>