<svg version="1.1" viewBox="0.0 0.0 608.0 376.0" fill="none" stroke="none" stroke-linecap="square" stroke-miterlimit="10" width="608" height="376" xmlns:xlink="http://www.w3.org/1999/xlink" xmlns="http://www.w3.org/2000/svg"><path fill="#ffffff" d="M0 0L608.0 0L608.0 376.0L0 376.0L0 0Z" fill-rule="nonzero"/><path stroke="#333333" stroke-width="1.0" stroke-linecap="butt" d="M80.5 318.5L589.5 318.5" fill-rule="nonzero"/><path stroke="#cccccc" stroke-width="1.0" stroke-linecap="butt" d="M80.5 254.5L589.5 254.5" fill-rule="nonzero"/><path stroke="#cccccc" stroke-width="1.0" stroke-linecap="butt" d="M80.5 190.5L589.5 190.5" fill-rule="nonzero"/><path stroke="#cccccc" stroke-width="1.0" stroke-linecap="butt" d="M80.5 126.5L589.5 126.5" fill-rule="nonzero"/><path stroke="#cccccc" stroke-width="1.0" stroke-linecap="butt" d="M80.5 62.5L589.5 62.5" fill-rule="nonzero"/><path stroke="#000000" stroke-width="1.0" stroke-linecap="butt" d="M80.5 318.5L80.5 62.5" fill-rule="nonzero"/><clipPath id="id_0"><path d="M80.8 62.333332L589.2 62.333332L589.2 318.2L80.8 318.2L80.8 62.333332Z" clip-rule="nonzero"/></clipPath><path stroke="#4285f4" stroke-width="2.0" stroke-linecap="butt" clip-path="url(#id_0)" d="M83.31683 318.2C83.31683 318.2 86.67261 309.75723 88.350494 305.65997C90.02838 301.56274 91.70627 297.55075 93.384155 293.61655C95.06205 289.68234 96.73994 285.83084 98.41782 282.05475C100.09571 278.27866 101.7736 274.5828 103.451485 270.96002C105.12937 267.33725 106.80726 263.79227 108.485146 260.31808C110.16303 256.8439 111.84093 253.44513 113.518814 250.11491C115.1967 246.7847 116.87459 243.52756 118.552475 240.33679C120.23036 237.14603 121.90825 234.02606 123.586136 230.97032C125.26402 227.91458 126.94192 224.9274 128.6198 222.00237C130.29768 219.07732 131.97557 216.21863 133.65347 213.42004C135.33136 210.62144 137.00925 207.88708 138.68713 205.2108C140.36502 202.53452 142.04291 199.92036 143.7208 197.36234C145.39868 194.8043 147.07657 192.30637 148.75446 189.86264C150.43234 187.4189 152.11023 185.03325 153.78812 182.69992C155.466 180.36661 157.14389 178.08942 158.82178 175.86273C160.49966 173.63605 162.17755 171.46358 163.85544 169.33983C165.53334 167.21608 167.21123 165.14467 168.88911 163.12025C170.567 161.09583 172.24489 159.12192 173.92278 157.1933C175.60066 155.26468 177.27855 153.38478 178.95644 151.54852C180.63432 149.71227 182.31221 147.92299 183.9901 146.17572C185.66798 144.42847 187.34587 142.72649 189.02376 141.06496C190.70164 139.40341 192.37953 137.7855 194.05742 136.2065C195.73532 134.6275 197.41321 133.0905 199.0911 131.59091C200.76898 130.09132 202.44687 128.63219 204.12476 127.20898C205.80264 125.785774 207.48053 124.40147 209.15842 123.05169C210.8363 121.70192 212.51419 120.38954 214.19208 119.11031C215.86996 117.831085 217.54785 116.58781 219.22574 115.37633C220.90363 114.16484 222.58151 112.98789 224.2594 111.84142C225.93729 110.69496 227.61519 109.58164 229.29308 108.49755C230.97096 107.41345 232.64885 106.36115 234.32674 105.336845C236.00462 104.31253 237.68251 103.31872 239.3604 102.351685C241.03828 101.38465 242.71617 100.44684 244.39406 99.534645C246.07195 98.62246 247.74983 97.73825 249.42772 96.87853C251.1056 96.01882 252.7835 95.18589 254.46138 94.37635C256.13928 93.56681 257.81717 92.78289 259.49506 92.0213C261.17294 91.25971 262.85083 90.52261 264.52872 89.80681C266.2066 89.091 267.8845 88.39859 269.56238 87.72648C271.24026 87.05436 272.91815 86.40457 274.59604 85.77412C276.27393 85.14366 277.9518 84.5345 279.6297 83.94374C281.3076 83.352974 282.98547 82.7825 284.66336 82.22952C286.34125 81.676544 288.01913 81.1429 289.69702 80.62586C291.3749 80.108826 293.0528 79.61019 294.73068 79.12731C296.40857 78.64444 298.08646 78.17906 299.76434 77.72863C301.44223 77.2782 303.12012 76.844376 304.79803 76.42472C306.47592 76.005066 308.1538 75.60118 309.8317 75.2107C311.50958 74.82022 313.18747 74.444695 314.86536 74.08183C316.54324 73.71898 318.22113 73.370285 319.89902 73.03356C321.5769 72.69684 323.2548 72.37352 324.93268 72.061485C326.61057 71.74946 328.28845 71.450096 329.96634 71.16138C331.64423 70.87266 333.3221 70.59591 335.0 70.32917C336.6779 70.06242 338.35577 69.80698 340.03366 69.560936C341.71155 69.314896 343.38943 69.07949 345.06732 68.85292C346.7452 68.62634 348.4231 68.40979 350.10098 68.20151C351.77887 67.993225 353.45676 67.79436 355.13464 67.60324C356.81253 67.41212 358.49042 67.229836 360.1683 67.054794C361.8462 66.87975 363.52408 66.71299 365.20197 66.552986C366.87988 66.39299 368.55777 66.24074 370.23566 66.09479C371.91354 65.94884 373.59143 65.810135 375.26932 65.677284C376.9472 65.54444 378.6251 65.41835 380.30298 65.29771C381.98087 65.17706 383.65875 65.06271 385.33664 64.95341C387.01453 64.8441 388.6924 64.740654 390.3703 64.64187C392.0482 64.54308 393.72607 64.44974 395.40396 64.360695C397.08185 64.27165 398.75974 64.18765 400.43762 64.10761C402.1155 64.02757 403.7934 63.952198 405.47128 63.880463C407.14917 63.808723 408.82706 63.74129 410.50494 63.677193C412.18283 63.613094 413.86072 63.55296 415.5386 63.495872C417.2165 63.43879 418.89438 63.38534 420.57227 63.33468C422.25015 63.28401 423.92804 63.236683 425.60593 63.19188C427.2838 63.147076 428.96173 63.105324 430.63962 63.065857C432.3175 63.026394 433.9954 62.989708 435.67328 62.95509C437.35117 62.92047 439.02905 62.88838 440.70694 62.858147C442.38483 62.82791 444.0627 62.79997 445.7406 62.77369C447.4185 62.74741 449.09637 62.723198 450.77426 62.700474C452.45215 62.67775 454.13004 62.656883 455.80792 62.637337C457.4858 62.617794 459.1637 62.599915 460.84158 62.583202C462.51947 62.56649 464.19736 62.55127 465.87524 62.53707C467.55313 62.522873 469.23102 62.51 470.9089 62.498016C472.5868 62.48604 474.26468 62.475227 475.94257 62.4652C477.62045 62.455166 479.29834 62.446163 480.97623 62.43783C482.6541 62.4295 484.332 62.42207 486.0099 62.41521C487.68777 62.40835 489.36566 62.402275 491.04358 62.396687C492.72147 62.3911 494.39935 62.386185 496.07724 62.38168C497.75513 62.37718 499.433 62.37325 501.1109 62.369663C502.7888 62.366077 504.46667 62.36298 506.14456 62.360165C507.82245 62.357346 509.50034 62.354942 511.17822 62.352764C512.8561 62.350586 514.534 62.34875 516.21185 62.347095C517.8898 62.34544 519.5676 62.344067 521.24554 62.342834C522.92346 62.341602 524.6013 62.340595 526.27924 62.3397C527.9571 62.338802 529.635 62.33809 531.31287 62.337456C532.9908 62.33682 534.66864 62.336327 536.34656 62.33589C538.0244 62.335457 539.70233 62.335133 541.3802 62.334843C543.0581 62.334557 544.73596 62.33435 546.4139 62.33417C548.09174 62.333992 549.76965 62.33387 551.4475 62.333763C553.1254 62.333656 554.8033 62.33359 556.4812 62.33353C558.15906 62.333473 559.837 62.333443 561.51483 62.333412C563.19275 62.333385 564.8706 62.33337 566.5485 62.33336C568.2264 62.333347 569.9043 62.333344 571.58215 62.33334C573.2601 62.333336 574.9379 62.333336 576.61584 62.333336C578.2937 62.333332 579.9716 62.333332 581.6495 62.333332C583.3274 62.333332 586.68317 62.333332 586.68317 62.333332" fill-rule="nonzero"/><path fill="#000000" fill-opacity="0.0" clip-path="url(#id_0)" d="M86.31683 318.2C86.31683 319.85684 84.97369 321.2 83.31683 321.2C81.65998 321.2 80.31683 319.85684 80.31683 318.2C80.31683 316.54315 81.65998 315.2 83.31683 315.2C84.97369 315.2 86.31683 316.54315 86.31683 318.2Z" fill-rule="nonzero"/><path fill="#000000" fill-opacity="0.0" clip-path="url(#id_0)" d="M91.350494 305.65997C91.350494 307.31683 90.00735 308.65997 88.350494 308.65997C86.69364 308.65997 85.350494 307.31683 85.350494 305.65997C85.350494 304.00314 86.69364 302.65997 88.350494 302.65997C90.00735 302.65997 91.350494 304.00314 91.350494 305.65997Z" fill-rule="nonzero"/><path fill="#000000" fill-opacity="0.0" clip-path="url(#id_0)" d="M96.384155 293.61655C96.384155 295.27338 95.041016 296.61655 93.384155 296.61655C91.7273 296.61655 90.384155 295.27338 90.384155 293.61655C90.384155 291.9597 91.7273 290.61655 93.384155 290.61655C95.041016 290.61655 96.384155 291.9597 96.384155 293.61655Z" fill-rule="nonzero"/><path fill="#000000" fill-opacity="0.0" clip-path="url(#id_0)" d="M101.41782 282.05475C101.41782 283.7116 100.07468 285.05475 98.41782 285.05475C96.76097 285.05475 95.41782 283.7116 95.41782 282.05475C95.41782 280.3979 96.76097 279.05475 98.41782 279.05475C100.07468 279.05475 101.41782 280.3979 101.41782 282.05475Z" fill-rule="nonzero"/><path fill="#000000" fill-opacity="0.0" clip-path="url(#id_0)" d="M106.451485 270.96002C106.451485 272.61688 105.10834 273.96002 103.451485 273.96002C101.79463 273.96002 100.451485 272.61688 100.451485 270.96002C100.451485 269.30316 101.79463 267.96002 103.451485 267.96002C105.10834 267.96002 106.451485 269.30316 106.451485 270.96002Z" fill-rule="nonzero"/><path fill="#000000" fill-opacity="0.0" clip-path="url(#id_0)" d="M111.485146 260.31808C111.485146 261.97495 110.142006 263.31808 108.485146 263.31808C106.82829 263.31808 105.485146 261.97495 105.485146 260.31808C105.485146 258.66122 106.82829 257.31808 108.485146 257.31808C110.142006 257.31808 111.485146 258.66122 111.485146 260.31808Z" fill-rule="nonzero"/><path fill="#000000" fill-opacity="0.0" clip-path="url(#id_0)" d="M116.518814 250.11491C116.518814 251.77176 115.17567 253.11491 113.518814 253.11491C111.86196 253.11491 110.518814 251.77176 110.518814 250.11491C110.518814 248.45805 111.86196 247.11491 113.518814 247.11491C115.17567 247.11491 116.518814 248.45805 116.518814 250.11491Z" fill-rule="nonzero"/><path fill="#000000" fill-opacity="0.0" clip-path="url(#id_0)" d="M121.552475 240.33679C121.552475 241.99365 120.20933 243.33679 118.552475 243.33679C116.89562 243.33679 115.552475 241.99365 115.552475 240.33679C115.552475 238.67995 116.89562 237.33679 118.552475 237.33679C120.20933 237.33679 121.552475 238.67995 121.552475 240.33679Z" fill-rule="nonzero"/><path fill="#000000" fill-opacity="0.0" clip-path="url(#id_0)" d="M126.586136 230.97032C126.586136 232.62718 125.243 233.97032 123.586136 233.97032C121.92928 233.97032 120.586136 232.62718 120.586136 230.97032C120.586136 229.31348 121.92928 227.97032 123.586136 227.97032C125.243 227.97032 126.586136 229.31348 126.586136 230.97032Z" fill-rule="nonzero"/><path fill="#000000" fill-opacity="0.0" clip-path="url(#id_0)" d="M131.6198 222.00237C131.6198 223.65921 130.27666 225.00237 128.6198 225.00237C126.962944 225.00237 125.619804 223.65921 125.619804 222.00237C125.619804 220.3455 126.962944 219.00237 128.6198 219.00237C130.27666 219.00237 131.6198 220.3455 131.6198 222.00237Z" fill-rule="nonzero"/><path fill="#000000" fill-opacity="0.0" clip-path="url(#id_0)" d="M136.65347 213.42004C136.65347 215.07689 135.31032 216.42004 133.65347 216.42004C131.99661 216.42004 130.65347 215.07689 130.65347 213.42004C130.65347 211.76318 131.99661 210.42004 133.65347 210.42004C135.31032 210.42004 136.65347 211.76318 136.65347 213.42004Z" fill-rule="nonzero"/><path fill="#000000" fill-opacity="0.0" clip-path="url(#id_0)" d="M141.68713 205.2108C141.68713 206.86766 140.34398 208.2108 138.68713 208.2108C137.03027 208.2108 135.68713 206.86766 135.68713 205.2108C135.68713 203.55394 137.03027 202.2108 138.68713 202.2108C140.34398 202.2108 141.68713 203.55394 141.68713 205.2108Z" fill-rule="nonzero"/><path fill="#000000" fill-opacity="0.0" clip-path="url(#id_0)" d="M146.7208 197.36234C146.7208 199.0192 145.37764 200.36234 143.7208 200.36234C142.06393 200.36234 140.7208 199.0192 140.7208 197.36234C140.7208 195.70549 142.06393 194.36234 143.7208 194.36234C145.37764 194.36234 146.7208 195.70549 146.7208 197.36234Z" fill-rule="nonzero"/><path fill="#000000" fill-opacity="0.0" clip-path="url(#id_0)" d="M151.75446 189.86264C151.75446 191.51949 150.41132 192.86264 148.75446 192.86264C147.0976 192.86264 145.75446 191.51949 145.75446 189.86264C145.75446 188.20578 147.0976 186.86264 148.75446 186.86264C150.41132 186.86264 151.75446 188.20578 151.75446 189.86264Z" fill-rule="nonzero"/><path fill="#000000" fill-opacity="0.0" clip-path="url(#id_0)" d="M156.78812 182.69992C156.78812 184.35678 155.44498 185.69992 153.78812 185.69992C152.13127 185.69992 150.78812 184.35678 150.78812 182.69992C150.78812 181.04308 152.13127 179.69992 153.78812 179.69992C155.44498 179.69992 156.78812 181.04308 156.78812 182.69992Z" fill-rule="nonzero"/><path fill="#000000" fill-opacity="0.0" clip-path="url(#id_0)" d="M161.82178 175.86273C161.82178 177.51959 160.47864 178.86273 158.82178 178.86273C157.16493 178.86273 155.82178 177.51959 155.82178 175.86273C155.82178 174.20587 157.16493 172.86273 158.82178 172.86273C160.47864 172.86273 161.82178 174.20587 161.82178 175.86273Z" fill-rule="nonzero"/><path fill="#000000" fill-opacity="0.0" clip-path="url(#id_0)" d="M166.85544 169.33983C166.85544 170.99669 165.5123 172.33983 163.85544 172.33983C162.1986 172.33983 160.85544 170.99669 160.85544 169.33983C160.85544 167.68297 162.1986 166.33983 163.85544 166.33983C165.5123 166.33983 166.85544 167.68297 166.85544 169.33983Z" fill-rule="nonzero"/><path fill="#000000" fill-opacity="0.0" clip-path="url(#id_0)" d="M171.88911 163.12025C171.88911 164.77711 170.54596 166.12025 168.88911 166.12025C167.23225 166.12025 165.88911 164.77711 165.88911 163.12025C165.88911 161.4634 167.23225 160.12025 168.88911 160.12025C170.54596 160.12025 171.88911 161.4634 171.88911 163.12025Z" fill-rule="nonzero"/><path fill="#000000" fill-opacity="0.0" clip-path="url(#id_0)" d="M176.92278 157.1933C176.92278 158.85016 175.57962 160.1933 173.92278 160.1933C172.26591 160.1933 170.92278 158.85016 170.92278 157.1933C170.92278 155.53645 172.26591 154.1933 173.92278 154.1933C175.57962 154.1933 176.92278 155.53645 176.92278 157.1933Z" fill-rule="nonzero"/><path fill="#000000" fill-opacity="0.0" clip-path="url(#id_0)" d="M181.95644 151.54852C181.95644 153.20538 180.6133 154.54852 178.95644 154.54852C177.29958 154.54852 175.95644 153.20538 175.95644 151.54852C175.95644 149.89166 177.29958 148.54852 178.95644 148.54852C180.6133 148.54852 181.95644 149.89166 181.95644 151.54852Z" fill-rule="nonzero"/><path fill="#000000" fill-opacity="0.0" clip-path="url(#id_0)" d="M186.9901 146.17572C186.9901 147.83258 185.64696 149.17572 183.9901 149.17572C182.33325 149.17572 180.9901 147.83258 180.9901 146.17572C180.9901 144.51888 182.33325 143.17572 183.9901 143.17572C185.64696 143.17572 186.9901 144.51888 186.9901 146.17572Z" fill-rule="nonzero"/><path fill="#000000" fill-opacity="0.0" clip-path="url(#id_0)" d="M192.02376 141.06496C192.02376 142.7218 190.68062 144.06496 189.02376 144.06496C187.36691 144.06496 186.02376 142.7218 186.02376 141.06496C186.02376 139.4081 187.36691 138.06496 189.02376 138.06496C190.68062 138.06496 192.02376 139.4081 192.02376 141.06496Z" fill-rule="nonzero"/><path fill="#000000" fill-opacity="0.0" clip-path="url(#id_0)" d="M197.05742 136.2065C197.05742 137.86336 195.71428 139.2065 194.05742 139.2065C192.40057 139.2065 191.05742 137.86336 191.05742 136.2065C191.05742 134.54965 192.40057 133.2065 194.05742 133.2065C195.71428 133.2065 197.05742 134.54965 197.05742 136.2065Z" fill-rule="nonzero"/><path fill="#000000" fill-opacity="0.0" clip-path="url(#id_0)" d="M202.0911 131.59091C202.0911 133.24777 200.74794 134.59091 199.0911 134.59091C197.43423 134.59091 196.0911 133.24777 196.0911 131.59091C196.0911 129.93407 197.43423 128.59091 199.0911 128.59091C200.74794 128.59091 202.0911 129.93407 202.0911 131.59091Z" fill-rule="nonzero"/><path fill="#000000" fill-opacity="0.0" clip-path="url(#id_0)" d="M207.12476 127.20898C207.12476 128.86583 205.7816 130.20897 204.12476 130.20897C202.4679 130.20897 201.12476 128.86583 201.12476 127.20898C201.12476 125.552124 202.4679 124.20898 204.12476 124.20898C205.7816 124.20898 207.12476 125.552124 207.12476 127.20898Z" fill-rule="nonzero"/><path fill="#000000" fill-opacity="0.0" clip-path="url(#id_0)" d="M212.15842 123.05169C212.15842 124.70855 210.81528 126.05169 209.15842 126.05169C207.50156 126.05169 206.15842 124.70855 206.15842 123.05169C206.15842 121.39484 207.50156 120.05169 209.15842 120.05169C210.81528 120.05169 212.15842 121.39484 212.15842 123.05169Z" fill-rule="nonzero"/><path fill="#000000" fill-opacity="0.0" clip-path="url(#id_0)" d="M217.19208 119.11031C217.19208 120.76717 215.84894 122.11031 214.19208 122.11031C212.53523 122.11031 211.19208 120.76717 211.19208 119.11031C211.19208 117.45346 212.53523 116.11031 214.19208 116.11031C215.84894 116.11031 217.19208 117.45346 217.19208 119.11031Z" fill-rule="nonzero"/><path fill="#000000" fill-opacity="0.0" clip-path="url(#id_0)" d="M222.22574 115.37633C222.22574 117.03318 220.8826 118.37633 219.22574 118.37633C217.5689 118.37633 216.22574 117.03318 216.22574 115.37633C216.22574 113.71947 217.5689 112.37633 219.22574 112.37633C220.8826 112.37633 222.22574 113.71947 222.22574 115.37633Z" fill-rule="nonzero"/><path fill="#000000" fill-opacity="0.0" clip-path="url(#id_0)" d="M227.2594 111.84142C227.2594 113.49828 225.91626 114.84142 224.2594 114.84142C222.60255 114.84142 221.2594 113.49828 221.2594 111.84142C221.2594 110.18457 222.60255 108.84142 224.2594 108.84142C225.91626 108.84142 227.2594 110.18457 227.2594 111.84142Z" fill-rule="nonzero"/><path fill="#000000" fill-opacity="0.0" clip-path="url(#id_0)" d="M232.29308 108.49755C232.29308 110.1544 230.94992 111.49755 229.29308 111.49755C227.63622 111.49755 226.29308 110.1544 226.29308 108.49755C226.29308 106.84069 227.63622 105.49755 229.29308 105.49755C230.94992 105.49755 232.29308 106.84069 232.29308 108.49755Z" fill-rule="nonzero"/><path fill="#000000" fill-opacity="0.0" clip-path="url(#id_0)" d="M237.32674 105.336845C237.32674 106.9937 235.98358 108.336845 234.32674 108.336845C232.66988 108.336845 231.32674 106.9937 231.32674 105.336845C231.32674 103.67999 232.66988 102.336845 234.32674 102.336845C235.98358 102.336845 237.32674 103.67999 237.32674 105.336845Z" fill-rule="nonzero"/><path fill="#000000" fill-opacity="0.0" clip-path="url(#id_0)" d="M242.3604 102.351685C242.3604 104.00854 241.01726 105.351685 239.3604 105.351685C237.70354 105.351685 236.3604 104.00854 236.3604 102.351685C236.3604 100.694824 237.70354 99.351685 239.3604 99.351685C241.01726 99.351685 242.3604 100.694824 242.3604 102.351685Z" fill-rule="nonzero"/><path fill="#000000" fill-opacity="0.0" clip-path="url(#id_0)" d="M247.39406 99.534645C247.39406 101.1915 246.05092 102.534645 244.39406 102.534645C242.7372 102.534645 241.39406 101.1915 241.39406 99.534645C241.39406 97.87779 242.7372 96.534645 244.39406 96.534645C246.05092 96.534645 247.39406 97.87779 247.39406 99.534645Z" fill-rule="nonzero"/><path fill="#000000" fill-opacity="0.0" clip-path="url(#id_0)" d="M252.42772 96.87853C252.42772 98.535385 251.08458 99.87853 249.42772 99.87853C247.77087 99.87853 246.42772 98.535385 246.42772 96.87853C246.42772 95.22168 247.77087 93.87853 249.42772 93.87853C251.08458 93.87853 252.42772 95.22168 252.42772 96.87853Z" fill-rule="nonzero"/><path fill="#000000" fill-opacity="0.0" clip-path="url(#id_0)" d="M257.4614 94.37635C257.4614 96.0332 256.11826 97.37635 254.46138 97.37635C252.80453 97.37635 251.46138 96.0332 251.46138 94.37635C251.46138 92.7195 252.80453 91.37635 254.46138 91.37635C256.11826 91.37635 257.4614 92.7195 257.4614 94.37635Z" fill-rule="nonzero"/><path fill="#000000" fill-opacity="0.0" clip-path="url(#id_0)" d="M262.49506 92.0213C262.49506 93.678154 261.15192 95.0213 259.49506 95.0213C257.8382 95.0213 256.49506 93.678154 256.49506 92.0213C256.49506 90.36445 257.8382 89.0213 259.49506 89.0213C261.15192 89.0213 262.49506 90.36445 262.49506 92.0213Z" fill-rule="nonzero"/><path fill="#000000" fill-opacity="0.0" clip-path="url(#id_0)" d="M267.52872 89.80681C267.52872 91.46366 266.18558 92.80681 264.52872 92.80681C262.87186 92.80681 261.52872 91.46366 261.52872 89.80681C261.52872 88.149956 262.87186 86.80681 264.52872 86.80681C266.18558 86.80681 267.52872 88.149956 267.52872 89.80681Z" fill-rule="nonzero"/><path fill="#000000" fill-opacity="0.0" clip-path="url(#id_0)" d="M272.56238 87.72648C272.56238 89.38333 271.21924 90.72648 269.56238 90.72648C267.90552 90.72648 266.56238 89.38333 266.56238 87.72648C266.56238 86.069626 267.90552 84.72648 269.56238 84.72648C271.21924 84.72648 272.56238 86.069626 272.56238 87.72648Z" fill-rule="nonzero"/><path fill="#000000" fill-opacity="0.0" clip-path="url(#id_0)" d="M277.59604 85.77412C277.59604 87.43097 276.2529 88.77412 274.59604 88.77412C272.93918 88.77412 271.59604 87.43097 271.59604 85.77412C271.59604 84.11726 272.93918 82.77412 274.59604 82.77412C276.2529 82.77412 277.59604 84.11726 277.59604 85.77412Z" fill-rule="nonzero"/><path fill="#000000" fill-opacity="0.0" clip-path="url(#id_0)" d="M282.6297 83.94374C282.6297 85.60059 281.28656 86.94374 279.6297 86.94374C277.97284 86.94374 276.6297 85.60059 276.6297 83.94374C276.6297 82.28688 277.97284 80.94374 279.6297 80.94374C281.28656 80.94374 282.6297 82.28688 282.6297 83.94374Z" fill-rule="nonzero"/><path fill="#000000" fill-opacity="0.0" clip-path="url(#id_0)" d="M287.66336 82.22952C287.66336 83.88638 286.32022 85.22952 284.66336 85.22952C283.0065 85.22952 281.66336 83.88638 281.66336 82.22952C281.66336 80.57267 283.0065 79.22952 284.66336 79.22952C286.32022 79.22952 287.66336 80.57267 287.66336 82.22952Z" fill-rule="nonzero"/><path fill="#000000" fill-opacity="0.0" clip-path="url(#id_0)" d="M292.69702 80.62586C292.69702 82.282715 291.35388 83.62586 289.69702 83.62586C288.04016 83.62586 286.69702 82.282715 286.69702 80.62586C286.69702 78.96901 288.04016 77.62586 289.69702 77.62586C291.35388 77.62586 292.69702 78.96901 292.69702 80.62586Z" fill-rule="nonzero"/><path fill="#000000" fill-opacity="0.0" clip-path="url(#id_0)" d="M297.73068 79.12731C297.73068 80.78417 296.38754 82.12731 294.73068 82.12731C293.07385 82.12731 291.73068 80.78417 291.73068 79.12731C291.73068 77.47046 293.07385 76.12731 294.73068 76.12731C296.38754 76.12731 297.73068 77.47046 297.73068 79.12731Z" fill-rule="nonzero"/><path fill="#000000" fill-opacity="0.0" clip-path="url(#id_0)" d="M302.76434 77.72863C302.76434 79.38548 301.4212 80.72863 299.76434 80.72863C298.1075 80.72863 296.76434 79.38548 296.76434 77.72863C296.76434 76.07177 298.1075 74.72863 299.76434 74.72863C301.4212 74.72863 302.76434 76.07177 302.76434 77.72863Z" fill-rule="nonzero"/><path fill="#000000" fill-opacity="0.0" clip-path="url(#id_0)" d="M307.79803 76.42472C307.79803 78.08158 306.45486 79.42472 304.79803 79.42472C303.14117 79.42472 301.79803 78.08158 301.79803 76.42472C301.79803 74.76787 303.14117 73.42472 304.79803 73.42472C306.45486 73.42472 307.79803 74.76787 307.79803 76.42472Z" fill-rule="nonzero"/><path fill="#000000" fill-opacity="0.0" clip-path="url(#id_0)" d="M312.8317 75.2107C312.8317 76.86755 311.48853 78.2107 309.8317 78.2107C308.17484 78.2107 306.8317 76.86755 306.8317 75.2107C306.8317 73.55385 308.17484 72.2107 309.8317 72.2107C311.48853 72.2107 312.8317 73.55385 312.8317 75.2107Z" fill-rule="nonzero"/><path fill="#000000" fill-opacity="0.0" clip-path="url(#id_0)" d="M317.86536 74.08183C317.86536 75.73869 316.5222 77.08183 314.86536 77.08183C313.2085 77.08183 311.86536 75.73869 311.86536 74.08183C311.86536 72.42498 313.2085 71.08183 314.86536 71.08183C316.5222 71.08183 317.86536 72.42498 317.86536 74.08183Z" fill-rule="nonzero"/><path fill="#000000" fill-opacity="0.0" clip-path="url(#id_0)" d="M322.89902 73.03356C322.89902 74.690414 321.55588 76.03356 319.89902 76.03356C318.24216 76.03356 316.89902 74.690414 316.89902 73.03356C316.89902 71.37671 318.24216 70.03356 319.89902 70.03356C321.55588 70.03356 322.89902 71.37671 322.89902 73.03356Z" fill-rule="nonzero"/><path fill="#000000" fill-opacity="0.0" clip-path="url(#id_0)" d="M327.93268 72.061485C327.93268 73.71834 326.58954 75.061485 324.93268 75.061485C323.27582 75.061485 321.93268 73.71834 321.93268 72.061485C321.93268 70.40463 323.27582 69.061485 324.93268 69.061485C326.58954 69.061485 327.93268 70.40463 327.93268 72.061485Z" fill-rule="nonzero"/><path fill="#000000" fill-opacity="0.0" clip-path="url(#id_0)" d="M332.96634 71.16138C332.96634 72.81824 331.6232 74.16138 329.96634 74.16138C328.30948 74.16138 326.96634 72.81824 326.96634 71.16138C326.96634 69.504524 328.30948 68.16138 329.96634 68.16138C331.6232 68.16138 332.96634 69.504524 332.96634 71.16138Z" fill-rule="nonzero"/><path fill="#000000" fill-opacity="0.0" clip-path="url(#id_0)" d="M338.0 70.32917C338.0 71.98602 336.65686 73.32917 335.0 73.32917C333.34314 73.32917 332.0 71.98602 332.0 70.32917C332.0 68.67231 333.34314 67.32917 335.0 67.32917C336.65686 67.32917 338.0 68.67231 338.0 70.32917Z" fill-rule="nonzero"/><path fill="#000000" fill-opacity="0.0" clip-path="url(#id_0)" d="M343.03366 69.560936C343.03366 71.21779 341.69052 72.560936 340.03366 72.560936C338.3768 72.560936 337.03366 71.21779 337.03366 69.560936C337.03366 67.904076 338.3768 66.560936 340.03366 66.560936C341.69052 66.560936 343.03366 67.904076 343.03366 69.560936Z" fill-rule="nonzero"/><path fill="#000000" fill-opacity="0.0" clip-path="url(#id_0)" d="M348.06732 68.85292C348.06732 70.50977 346.72418 71.85292 345.06732 71.85292C343.41046 71.85292 342.06732 70.50977 342.06732 68.85292C342.06732 67.19606 343.41046 65.85292 345.06732 65.85292C346.72418 65.85292 348.06732 67.19606 348.06732 68.85292Z" fill-rule="nonzero"/><path fill="#000000" fill-opacity="0.0" clip-path="url(#id_0)" d="M353.10098 68.20151C353.10098 69.85836 351.75784 71.20151 350.10098 71.20151C348.44412 71.20151 347.10098 69.85836 347.10098 68.20151C347.10098 66.544655 348.44412 65.20151 350.10098 65.20151C351.75784 65.20151 353.10098 66.544655 353.10098 68.20151Z" fill-rule="nonzero"/><path fill="#000000" fill-opacity="0.0" clip-path="url(#id_0)" d="M358.13464 67.60324C358.13464 69.26009 356.7915 70.60324 355.13464 70.60324C353.4778 70.60324 352.13464 69.26009 352.13464 67.60324C352.13464 65.94639 353.4778 64.60324 355.13464 64.60324C356.7915 64.60324 358.13464 65.94639 358.13464 67.60324Z" fill-rule="nonzero"/><path fill="#000000" fill-opacity="0.0" clip-path="url(#id_0)" d="M363.1683 67.054794C363.1683 68.71165 361.82516 70.054794 360.1683 70.054794C358.51147 70.054794 357.1683 68.71165 357.1683 67.054794C357.1683 65.39794 358.51147 64.054794 360.1683 64.054794C361.82516 64.054794 363.1683 65.39794 363.1683 67.054794Z" fill-rule="nonzero"/><path fill="#000000" fill-opacity="0.0" clip-path="url(#id_0)" d="M368.20197 66.552986C368.20197 68.20985 366.85883 69.552986 365.20197 69.552986C363.54514 69.552986 362.20197 68.20985 362.20197 66.552986C362.20197 64.89613 363.54514 63.55299 365.20197 63.55299C366.85883 63.55299 368.20197 64.89613 368.20197 66.552986Z" fill-rule="nonzero"/><path fill="#000000" fill-opacity="0.0" clip-path="url(#id_0)" d="M373.23566 66.09479C373.23566 67.75164 371.8925 69.09479 370.23566 69.09479C368.5788 69.09479 367.23566 67.75164 367.23566 66.09479C367.23566 64.437935 368.5788 63.094788 370.23566 63.094788C371.8925 63.094788 373.23566 64.437935 373.23566 66.09479Z" fill-rule="nonzero"/><path fill="#000000" fill-opacity="0.0" clip-path="url(#id_0)" d="M378.26932 65.677284C378.26932 67.33414 376.92615 68.677284 375.26932 68.677284C373.61246 68.677284 372.26932 67.33414 372.26932 65.677284C372.26932 64.02043 373.61246 62.677288 375.26932 62.677288C376.92615 62.677288 378.26932 64.02043 378.26932 65.677284Z" fill-rule="nonzero"/><path fill="#000000" fill-opacity="0.0" clip-path="url(#id_0)" d="M383.30298 65.29771C383.30298 66.95456 381.95984 68.29771 380.30298 68.29771C378.64612 68.29771 377.30298 66.95456 377.30298 65.29771C377.30298 63.640854 378.64612 62.297707 380.30298 62.297707C381.95984 62.297707 383.30298 63.640854 383.30298 65.29771Z" fill-rule="nonzero"/><path fill="#000000" fill-opacity="0.0" clip-path="url(#id_0)" d="M388.33664 64.95341C388.33664 66.61026 386.9935 67.95341 385.33664 67.95341C383.67978 67.95341 382.33664 66.61026 382.33664 64.95341C382.33664 63.296555 383.67978 61.953407 385.33664 61.953407C386.9935 61.953407 388.33664 63.296555 388.33664 64.95341Z" fill-rule="nonzero"/><path fill="#000000" fill-opacity="0.0" clip-path="url(#id_0)" d="M393.3703 64.64187C393.3703 66.29872 392.02716 67.64187 390.3703 67.64187C388.71344 67.64187 387.3703 66.29872 387.3703 64.64187C387.3703 62.985016 388.71344 61.64187 390.3703 61.64187C392.02716 61.64187 393.3703 62.985016 393.3703 64.64187Z" fill-rule="nonzero"/><path fill="#000000" fill-opacity="0.0" clip-path="url(#id_0)" d="M398.40396 64.360695C398.40396 66.01755 397.06082 67.360695 395.40396 67.360695C393.7471 67.360695 392.40396 66.01755 392.40396 64.360695C392.40396 62.703842 393.7471 61.3607 395.40396 61.3607C397.06082 61.3607 398.40396 62.703842 398.40396 64.360695Z" fill-rule="nonzero"/><path fill="#000000" fill-opacity="0.0" clip-path="url(#id_0)" d="M403.43762 64.10761C403.43762 65.764465 402.09448 67.10761 400.43762 67.10761C398.78076 67.10761 397.43762 65.764465 397.43762 64.10761C397.43762 62.45076 398.78076 61.107613 400.43762 61.107613C402.09448 61.107613 403.43762 62.45076 403.43762 64.10761Z" fill-rule="nonzero"/><path fill="#000000" fill-opacity="0.0" clip-path="url(#id_0)" d="M408.47128 63.880463C408.47128 65.537315 407.12814 66.88046 405.47128 66.88046C403.81442 66.88046 402.47128 65.537315 402.47128 63.880463C402.47128 62.223606 403.81442 60.880463 405.47128 60.880463C407.12814 60.880463 408.47128 62.223606 408.47128 63.880463Z" fill-rule="nonzero"/><path fill="#000000" fill-opacity="0.0" clip-path="url(#id_0)" d="M413.50494 63.677193C413.50494 65.334045 412.1618 66.67719 410.50494 66.67719C408.84808 66.67719 407.50494 65.334045 407.50494 63.677193C407.50494 62.02034 408.84808 60.677193 410.50494 60.677193C412.1618 60.677193 413.50494 62.02034 413.50494 63.677193Z" fill-rule="nonzero"/><path fill="#000000" fill-opacity="0.0" clip-path="url(#id_0)" d="M418.5386 63.495872C418.5386 65.152725 417.19547 66.49587 415.5386 66.49587C413.88174 66.49587 412.5386 65.152725 412.5386 63.495872C412.5386 61.83902 413.88174 60.495872 415.5386 60.495872C417.19547 60.495872 418.5386 61.83902 418.5386 63.495872Z" fill-rule="nonzero"/><path fill="#000000" fill-opacity="0.0" clip-path="url(#id_0)" d="M423.57227 63.33468C423.57227 64.99153 422.22913 66.33468 420.57227 66.33468C418.91544 66.33468 417.57227 64.99153 417.57227 63.33468C417.57227 61.677822 418.91544 60.33468 420.57227 60.33468C422.22913 60.33468 423.57227 61.677822 423.57227 63.33468Z" fill-rule="nonzero"/><path fill="#000000" fill-opacity="0.0" clip-path="url(#id_0)" d="M428.60593 63.19188C428.60593 64.84873 427.2628 66.19188 425.60593 66.19188C423.9491 66.19188 422.60593 64.84873 422.60593 63.19188C422.60593 61.535027 423.9491 60.19188 425.60593 60.19188C427.2628 60.19188 428.60593 61.535027 428.60593 63.19188Z" fill-rule="nonzero"/><path fill="#000000" fill-opacity="0.0" clip-path="url(#id_0)" d="M433.63962 63.065857C433.63962 64.72271 432.29645 66.06586 430.63962 66.06586C428.98276 66.06586 427.63962 64.72271 427.63962 63.065857C427.63962 61.409004 428.98276 60.065857 430.63962 60.065857C432.29645 60.065857 433.63962 61.409004 433.63962 63.065857Z" fill-rule="nonzero"/><path fill="#000000" fill-opacity="0.0" clip-path="url(#id_0)" d="M438.67328 62.95509C438.67328 64.611946 437.3301 65.955086 435.67328 65.955086C434.01642 65.955086 432.67328 64.611946 432.67328 62.95509C432.67328 61.298237 434.01642 59.95509 435.67328 59.95509C437.3301 59.95509 438.67328 61.298237 438.67328 62.95509Z" fill-rule="nonzero"/><path fill="#000000" fill-opacity="0.0" clip-path="url(#id_0)" d="M443.70694 62.858147C443.70694 64.515 442.3638 65.85815 440.70694 65.85815C439.05008 65.85815 437.70694 64.515 437.70694 62.858147C437.70694 61.20129 439.05008 59.858147 440.70694 59.858147C442.3638 59.858147 443.70694 61.20129 443.70694 62.858147Z" fill-rule="nonzero"/><path fill="#000000" fill-opacity="0.0" clip-path="url(#id_0)" d="M448.7406 62.77369C448.7406 64.43054 447.39746 65.77369 445.7406 65.77369C444.08374 65.77369 442.7406 64.43054 442.7406 62.77369C442.7406 61.116837 444.08374 59.77369 445.7406 59.77369C447.39746 59.77369 448.7406 61.116837 448.7406 62.77369Z" fill-rule="nonzero"/><path fill="#000000" fill-opacity="0.0" clip-path="url(#id_0)" d="M453.77426 62.700474C453.77426 64.35733 452.43112 65.70048 450.77426 65.70048C449.1174 65.70048 447.77426 64.35733 447.77426 62.700474C447.77426 61.04362 449.1174 59.700474 450.77426 59.700474C452.43112 59.700474 453.77426 61.04362 453.77426 62.700474Z" fill-rule="nonzero"/><path fill="#000000" fill-opacity="0.0" clip-path="url(#id_0)" d="M458.80792 62.637337C458.80792 64.29419 457.46478 65.63734 455.80792 65.63734C454.15106 65.63734 452.80792 64.29419 452.80792 62.637337C452.80792 60.980484 454.15106 59.637337 455.80792 59.637337C457.46478 59.637337 458.80792 60.980484 458.80792 62.637337Z" fill-rule="nonzero"/><path fill="#000000" fill-opacity="0.0" clip-path="url(#id_0)" d="M463.84158 62.583202C463.84158 64.24006 462.49844 65.583206 460.84158 65.583206C459.18472 65.583206 457.84158 64.24006 457.84158 62.583202C457.84158 60.92635 459.18472 59.583202 460.84158 59.583202C462.49844 59.583202 463.84158 60.92635 463.84158 62.583202Z" fill-rule="nonzero"/><path fill="#000000" fill-opacity="0.0" clip-path="url(#id_0)" d="M468.87524 62.53707C468.87524 64.193924 467.5321 65.53707 465.87524 65.53707C464.21838 65.53707 462.87524 64.193924 462.87524 62.53707C462.87524 60.880215 464.21838 59.53707 465.87524 59.53707C467.5321 59.53707 468.87524 60.880215 468.87524 62.53707Z" fill-rule="nonzero"/><path fill="#000000" fill-opacity="0.0" clip-path="url(#id_0)" d="M473.9089 62.498016C473.9089 64.15487 472.56577 65.49802 470.9089 65.49802C469.25204 65.49802 467.9089 64.15487 467.9089 62.498016C467.9089 60.841164 469.25204 59.498016 470.9089 59.498016C472.56577 59.498016 473.9089 60.841164 473.9089 62.498016Z" fill-rule="nonzero"/><path fill="#000000" fill-opacity="0.0" clip-path="url(#id_0)" d="M478.94257 62.4652C478.94257 64.122055 477.59943 65.465195 475.94257 65.465195C474.2857 65.465195 472.94257 64.122055 472.94257 62.4652C472.94257 60.808342 474.2857 59.4652 475.94257 59.4652C477.59943 59.4652 478.94257 60.808342 478.94257 62.4652Z" fill-rule="nonzero"/><path fill="#000000" fill-opacity="0.0" clip-path="url(#id_0)" d="M483.97623 62.43783C483.97623 64.09469 482.6331 65.43783 480.97623 65.43783C479.3194 65.43783 477.97623 64.09469 477.97623 62.43783C477.97623 60.78098 479.3194 59.43783 480.97623 59.43783C482.6331 59.43783 483.97623 60.78098 483.97623 62.43783Z" fill-rule="nonzero"/><path fill="#000000" fill-opacity="0.0" clip-path="url(#id_0)" d="M489.0099 62.41521C489.0099 64.07207 487.66675 65.41521 486.0099 65.41521C484.35306 65.41521 483.0099 64.07207 483.0099 62.41521C483.0099 60.758358 484.35306 59.41521 486.0099 59.41521C487.66675 59.41521 489.0099 60.758358 489.0099 62.41521Z" fill-rule="nonzero"/><path fill="#000000" fill-opacity="0.0" clip-path="url(#id_0)" d="M494.04358 62.396687C494.04358 64.05354 492.7004 65.39669 491.04358 65.39669C489.38672 65.39669 488.04358 64.05354 488.04358 62.396687C488.04358 60.739834 489.38672 59.396687 491.04358 59.396687C492.7004 59.396687 494.04358 60.739834 494.04358 62.396687Z" fill-rule="nonzero"/><path fill="#000000" fill-opacity="0.0" clip-path="url(#id_0)" d="M499.07724 62.38168C499.07724 64.038536 497.73407 65.38168 496.07724 65.38168C494.42038 65.38168 493.07724 64.038536 493.07724 62.38168C493.07724 60.724827 494.42038 59.38168 496.07724 59.38168C497.73407 59.38168 499.07724 60.724827 499.07724 62.38168Z" fill-rule="nonzero"/><path fill="#000000" fill-opacity="0.0" clip-path="url(#id_0)" d="M504.1109 62.369663C504.1109 64.02652 502.76773 65.36966 501.1109 65.36966C499.45404 65.36966 498.1109 64.02652 498.1109 62.369663C498.1109 60.712807 499.45404 59.369663 501.1109 59.369663C502.76773 59.369663 504.1109 60.712807 504.1109 62.369663Z" fill-rule="nonzero"/><path fill="#000000" fill-opacity="0.0" clip-path="url(#id_0)" d="M509.14456 62.360165C509.14456 64.01701 507.80142 65.36016 506.14456 65.36016C504.4877 65.36016 503.14456 64.01701 503.14456 62.360165C503.14456 60.70331 504.4877 59.360165 506.14456 59.360165C507.80142 59.360165 509.14456 60.70331 509.14456 62.360165Z" fill-rule="nonzero"/><path fill="#000000" fill-opacity="0.0" clip-path="url(#id_0)" d="M514.1782 62.352764C514.1782 64.00962 512.8351 65.35276 511.17822 65.35276C509.52136 65.35276 508.17822 64.00962 508.17822 62.352764C508.17822 60.695908 509.52136 59.352764 511.17822 59.352764C512.8351 59.352764 514.1782 60.695908 514.1782 62.352764Z" fill-rule="nonzero"/><path fill="#000000" fill-opacity="0.0" clip-path="url(#id_0)" d="M519.21185 62.347095C519.21185 64.00395 517.8687 65.34709 516.21185 65.34709C514.55505 65.34709 513.21185 64.00395 513.21185 62.347095C513.21185 60.69024 514.55505 59.347095 516.21185 59.347095C517.8687 59.347095 519.21185 60.69024 519.21185 62.347095Z" fill-rule="nonzero"/><path fill="#000000" fill-opacity="0.0" clip-path="url(#id_0)" d="M524.24554 62.342834C524.24554 63.999687 522.9024 65.342834 521.24554 65.342834C519.5887 65.342834 518.24554 63.999687 518.24554 62.342834C518.24554 60.685978 519.5887 59.342834 521.24554 59.342834C522.9024 59.342834 524.24554 60.685978 524.24554 62.342834Z" fill-rule="nonzero"/><path fill="#000000" fill-opacity="0.0" clip-path="url(#id_0)" d="M529.27924 62.3397C529.27924 63.996555 527.93604 65.3397 526.27924 65.3397C524.6224 65.3397 523.27924 63.996555 523.27924 62.3397C523.27924 60.682846 524.6224 59.3397 526.27924 59.3397C527.93604 59.3397 529.27924 60.682846 529.27924 62.3397Z" fill-rule="nonzero"/><path fill="#000000" fill-opacity="0.0" clip-path="url(#id_0)" d="M534.31287 62.337456C534.31287 63.99431 532.9697 65.337456 531.31287 65.337456C529.656 65.337456 528.31287 63.99431 528.31287 62.337456C528.31287 60.6806 529.656 59.337456 531.31287 59.337456C532.9697 59.337456 534.31287 60.6806 534.31287 62.337456Z" fill-rule="nonzero"/><path fill="#000000" fill-opacity="0.0" clip-path="url(#id_0)" d="M539.34656 62.33589C539.34656 63.992744 538.0034 65.33589 536.34656 65.33589C534.6897 65.33589 533.34656 63.992744 533.34656 62.33589C533.34656 60.67904 534.6897 59.33589 536.34656 59.33589C538.0034 59.33589 539.34656 60.67904 539.34656 62.33589Z" fill-rule="nonzero"/><path fill="#000000" fill-opacity="0.0" clip-path="url(#id_0)" d="M544.3802 62.334843C544.3802 63.9917 543.03705 65.33485 541.3802 65.33485C539.7233 65.33485 538.3802 63.9917 538.3802 62.334843C538.3802 60.67799 539.7233 59.334843 541.3802 59.334843C543.03705 59.334843 544.3802 60.67799 544.3802 62.334843Z" fill-rule="nonzero"/><path fill="#000000" fill-opacity="0.0" clip-path="url(#id_0)" d="M549.4139 62.33417C549.4139 63.991028 548.07074 65.334175 546.4139 65.334175C544.757 65.334175 543.4139 63.991028 543.4139 62.33417C543.4139 60.67732 544.757 59.33417 546.4139 59.33417C548.07074 59.33417 549.4139 60.67732 549.4139 62.33417Z" fill-rule="nonzero"/><path fill="#000000" fill-opacity="0.0" clip-path="url(#id_0)" d="M554.4475 62.333763C554.4475 63.990616 553.1044 65.33376 551.4475 65.33376C549.79065 65.33376 548.4475 63.990616 548.4475 62.333763C548.4475 60.67691 549.79065 59.333763 551.4475 59.333763C553.1044 59.333763 554.4475 60.67691 554.4475 62.333763Z" fill-rule="nonzero"/><path fill="#000000" fill-opacity="0.0" clip-path="url(#id_0)" d="M559.4812 62.33353C559.4812 63.990387 558.13806 65.333534 556.4812 65.333534C554.82434 65.333534 553.4812 63.990387 553.4812 62.33353C553.4812 60.676678 554.82434 59.33353 556.4812 59.33353C558.13806 59.33353 559.4812 60.676678 559.4812 62.33353Z" fill-rule="nonzero"/><path fill="#000000" fill-opacity="0.0" clip-path="url(#id_0)" d="M564.51483 62.333412C564.51483 63.99027 563.1717 65.33341 561.51483 65.33341C559.858 65.33341 558.51483 63.99027 558.51483 62.333412C558.51483 60.67656 559.858 59.333412 561.51483 59.333412C563.1717 59.333412 564.51483 60.67656 564.51483 62.333412Z" fill-rule="nonzero"/><path fill="#000000" fill-opacity="0.0" clip-path="url(#id_0)" d="M569.5485 62.33336C569.5485 63.990215 568.2054 65.33336 566.5485 65.33336C564.89166 65.33336 563.5485 63.990215 563.5485 62.33336C563.5485 60.676506 564.89166 59.33336 566.5485 59.33336C568.2054 59.33336 569.5485 60.676506 569.5485 62.33336Z" fill-rule="nonzero"/><path fill="#000000" fill-opacity="0.0" clip-path="url(#id_0)" d="M574.58215 62.33334C574.58215 63.990192 573.239 65.333336 571.58215 65.333336C569.92535 65.333336 568.58215 63.990192 568.58215 62.33334C568.58215 60.676487 569.92535 59.33334 571.58215 59.33334C573.239 59.33334 574.58215 60.676487 574.58215 62.33334Z" fill-rule="nonzero"/><path fill="#000000" fill-opacity="0.0" clip-path="url(#id_0)" d="M579.61584 62.333336C579.61584 63.99019 578.2727 65.333336 576.61584 65.333336C574.959 65.333336 573.61584 63.99019 573.61584 62.333336C573.61584 60.67648 574.959 59.333336 576.61584 59.333336C578.2727 59.333336 579.61584 60.67648 579.61584 62.333336Z" fill-rule="nonzero"/><path fill="#000000" fill-opacity="0.0" clip-path="url(#id_0)" d="M584.6495 62.333332C584.6495 63.99019 583.30634 65.333336 581.6495 65.333336C579.9927 65.333336 578.6495 63.99019 578.6495 62.333332C578.6495 60.67648 579.9927 59.333332 581.6495 59.333332C583.30634 59.333332 584.6495 60.67648 584.6495 62.333332Z" fill-rule="nonzero"/><path fill="#000000" fill-opacity="0.0" clip-path="url(#id_0)" d="M589.68317 62.333332C589.68317 63.99019 588.34 65.333336 586.68317 65.333336C585.0263 65.333336 583.68317 63.99019 583.68317 62.333332C583.68317 60.67648 585.0263 59.333332 586.68317 59.333332C588.34 59.333332 589.68317 60.67648 589.68317 62.333332Z" fill-rule="nonzero"/><path fill="#000000" d="M336.59375 353.2625L336.75 354.1844Q336.29688 354.27814 335.95312 354.27814Q335.375 354.27814 335.0625 354.10626Q334.75 353.91876 334.60938 353.6219Q334.48438 353.325 334.48438 352.3719L334.48438 348.79376L333.71875 348.79376L333.71875 347.98126L334.48438 347.98126L334.48438 346.4344L335.53125 345.8094L335.53125 347.98126L336.59375 347.98126L336.59375 348.79376L335.53125 348.79376L335.53125 352.4344Q335.53125 352.8875 335.57812 353.0125Q335.64062 353.1375 335.76562 353.21564Q335.89062 353.29376 336.125 353.29376Q336.3125 353.29376 336.59375 353.2625Z" fill-rule="nonzero"/><path fill="#000000" d="M29.800013 192.67291L26.565638 190.40729L23.581263 192.50104L23.581263 191.18854L25.034388 190.23541Q25.456263 189.96979 25.737513 189.79791Q25.346888 189.54791 25.050013 189.32916L23.581263 188.28229L23.581263 187.01666L26.503138 189.17291L29.800013 186.86041L29.800013 188.14166L27.862513 189.42291L27.346888 189.76666L29.800013 191.40729L29.800013 192.67291Z" fill-rule="nonzero"/><path fill="#000000" d="M51.3 317.96564Q51.3 316.4344 51.6125 315.5125Q51.925 314.575 52.534374 314.075Q53.159374 313.575 54.096874 313.575Q54.784374 313.575 55.3 313.85626Q55.83125 314.1375 56.175 314.66876Q56.51875 315.1844 56.70625 315.9344Q56.89375 316.6844 56.89375 317.96564Q56.89375 319.48126 56.58125 320.40314Q56.284374 321.325 55.659374 321.84064Q55.05 322.34064 54.096874 322.34064Q52.8625 322.34064 52.14375 321.45Q51.3 320.3875 51.3 317.96564ZM52.378124 317.96564Q52.378124 320.075 52.878124 320.77814Q53.378124 321.48126 54.096874 321.48126Q54.83125 321.48126 55.315624 320.77814Q55.815624 320.075 55.815624 317.96564Q55.815624 315.84064 55.315624 315.15314Q54.83125 314.45 54.08125 314.45Q53.3625 314.45 52.925 315.0594Q52.378124 315.84064 52.378124 317.96564ZM58.89375 322.2L58.89375 320.9969L60.096874 320.9969L60.096874 322.2L58.89375 322.2ZM61.3 317.96564Q61.3 316.4344 61.6125 315.5125Q61.925 314.575 62.534374 314.075Q63.159374 313.575 64.09688 313.575Q64.78438 313.575 65.3 313.85626Q65.83125 314.1375 66.175 314.66876Q66.51875 315.1844 66.70625 315.9344Q66.89375 316.6844 66.89375 317.96564Q66.89375 319.48126 66.58125 320.40314Q66.28438 321.325 65.65938 321.84064Q65.05 322.34064 64.09688 322.34064Q62.8625 322.34064 62.14375 321.45Q61.3 320.3875 61.3 317.96564ZM62.378124 317.96564Q62.378124 320.075 62.878124 320.77814Q63.378124 321.48126 64.09688 321.48126Q64.83125 321.48126 65.31563 320.77814Q65.81563 320.075 65.81563 317.96564Q65.81563 315.84064 65.31563 315.15314Q64.83125 314.45 64.08125 314.45Q63.3625 314.45 62.925 315.0594Q62.378124 315.84064 62.378124 317.96564ZM68.3 317.96564Q68.3 316.4344 68.6125 315.5125Q68.925 314.575 69.53438 314.075Q70.15938 313.575 71.09688 313.575Q71.78438 313.575 72.3 313.85626Q72.83125 314.1375 73.175 314.66876Q73.51875 315.1844 73.70625 315.9344Q73.89375 316.6844 73.89375 317.96564Q73.89375 319.48126 73.58125 320.40314Q73.28438 321.325 72.65938 321.84064Q72.05 322.34064 71.09688 322.34064Q69.8625 322.34064 69.14375 321.45Q68.3 320.3875 68.3 317.96564ZM69.37813 317.96564Q69.37813 320.075 69.87813 320.77814Q70.37813 321.48126 71.09688 321.48126Q71.83125 321.48126 72.31563 320.77814Q72.81563 320.075 72.81563 317.96564Q72.81563 315.84064 72.31563 315.15314Q71.83125 314.45 71.08125 314.45Q70.3625 314.45 69.925 315.0594Q69.37813 315.84064 69.37813 317.96564Z" fill-rule="nonzero"/><path fill="#000000" d="M51.3 253.99896Q51.3 252.46771 51.6125 251.54584Q51.925 250.60834 52.534374 250.10834Q53.159374 249.60834 54.096874 249.60834Q54.784374 249.60834 55.3 249.88959Q55.83125 250.17084 56.175 250.70209Q56.51875 251.21771 56.70625 251.96771Q56.89375 252.71771 56.89375 253.99896Q56.89375 255.51459 56.58125 256.43646Q56.284374 257.35834 55.659374 257.87396Q55.05 258.37396 54.096874 258.37396Q52.8625 258.37396 52.14375 257.48334Q51.3 256.42084 51.3 253.99896ZM52.378124 253.99896Q52.378124 256.10834 52.878124 256.81146Q53.378124 257.5146 54.096874 257.5146Q54.83125 257.5146 55.315624 256.81146Q55.815624 256.10834 55.815624 253.99896Q55.815624 251.87396 55.315624 251.18646Q54.83125 250.48334 54.08125 250.48334Q53.3625 250.48334 52.925 251.09271Q52.378124 251.87396 52.378124 253.99896ZM58.89375 258.23334L58.89375 257.0302L60.096874 257.0302L60.096874 258.23334L58.89375 258.23334ZM66.84688 257.2177L66.84688 258.23334L61.159374 258.23334Q61.159374 257.85834 61.284374 257.49896Q61.503124 256.92084 61.971874 256.35834Q62.45625 255.79584 63.3625 255.06146Q64.76875 253.90521 65.25313 253.23334Q65.75313 252.56146 65.75313 251.96771Q65.75313 251.34271 65.3 250.92084Q64.84688 250.48334 64.12813 250.48334Q63.3625 250.48334 62.909374 250.93646Q62.45625 251.38959 62.440624 252.20209L61.3625 252.09271Q61.471874 250.87396 62.190624 250.24896Q62.925 249.60834 64.15938 249.60834Q65.39375 249.60834 66.1125 250.29584Q66.83125 250.98334 66.83125 251.99896Q66.83125 252.51459 66.6125 253.01459Q66.40938 253.49896 65.90938 254.06146Q65.425 254.60834 64.3 255.56146Q63.346874 256.35834 63.065624 256.6552Q62.8 256.93646 62.628124 257.2177L66.84688 257.2177ZM68.3 255.98334L69.40938 255.88959Q69.53438 256.7021 69.97188 257.10834Q70.425 257.5146 71.06563 257.5146Q71.81563 257.5146 72.34688 256.93646Q72.87813 256.35834 72.87813 255.42084Q72.87813 254.51459 72.3625 253.99896Q71.8625 253.46771 71.03438 253.46771Q70.53438 253.46771 70.1125 253.70209Q69.70625 253.93646 69.47188 254.29584L68.4875 254.17084L69.31563 249.76459L73.59688 249.76459L73.59688 250.76459L70.15938 250.76459L69.70625 253.07709Q70.47188 252.53021 71.31563 252.53021Q72.44063 252.53021 73.20625 253.31146Q73.9875 254.09271 73.9875 255.32709Q73.9875 256.48334 73.31563 257.3427Q72.4875 258.37396 71.06563 258.37396Q69.89375 258.37396 69.14375 257.7177Q68.40938 257.06146 68.3 255.98334Z" fill-rule="nonzero"/><path fill="#000000" d="M51.3 190.03229Q51.3 188.50104 51.6125 187.57916Q51.925 186.64166 52.534374 186.14166Q53.159374 185.64166 54.096874 185.64166Q54.784374 185.64166 55.3 185.92291Q55.83125 186.20416 56.175 186.73541Q56.51875 187.25104 56.70625 188.00104Q56.89375 188.75104 56.89375 190.03229Q56.89375 191.54791 56.58125 192.46979Q56.284374 193.39166 55.659374 193.90729Q55.05 194.40729 54.096874 194.40729Q52.8625 194.40729 52.14375 193.51666Q51.3 192.45416 51.3 190.03229ZM52.378124 190.03229Q52.378124 192.14166 52.878124 192.84479Q53.378124 193.54791 54.096874 193.54791Q54.83125 193.54791 55.315624 192.84479Q55.815624 192.14166 55.815624 190.03229Q55.815624 187.90729 55.315624 187.21979Q54.83125 186.51666 54.08125 186.51666Q53.3625 186.51666 52.925 187.12604Q52.378124 187.90729 52.378124 190.03229ZM58.89375 194.26666L58.89375 193.06354L60.096874 193.06354L60.096874 194.26666L58.89375 194.26666ZM61.3 192.01666L62.409374 191.92291Q62.534374 192.73541 62.971874 193.14166Q63.425 193.54791 64.06563 193.54791Q64.81563 193.54791 65.34688 192.96979Q65.87813 192.39166 65.87813 191.45416Q65.87813 190.54791 65.3625 190.03229Q64.8625 189.50104 64.03438 189.50104Q63.534374 189.50104 63.1125 189.73541Q62.70625 189.96979 62.471874 190.32916L61.4875 190.20416L62.315624 185.79791L66.59688 185.79791L66.59688 186.79791L63.159374 186.79791L62.70625 189.11041Q63.471874 188.56354 64.31563 188.56354Q65.44063 188.56354 66.20625 189.34479Q66.9875 190.12604 66.9875 191.36041Q66.9875 192.51666 66.31563 193.37604Q65.4875 194.40729 64.06563 194.40729Q62.89375 194.40729 62.14375 193.75104Q61.409374 193.09479 61.3 192.01666ZM68.3 190.03229Q68.3 188.50104 68.6125 187.57916Q68.925 186.64166 69.53438 186.14166Q70.15938 185.64166 71.09688 185.64166Q71.78438 185.64166 72.3 185.92291Q72.83125 186.20416 73.175 186.73541Q73.51875 187.25104 73.70625 188.00104Q73.89375 188.75104 73.89375 190.03229Q73.89375 191.54791 73.58125 192.46979Q73.28438 193.39166 72.65938 193.90729Q72.05 194.40729 71.09688 194.40729Q69.8625 194.40729 69.14375 193.51666Q68.3 192.45416 68.3 190.03229ZM69.37813 190.03229Q69.37813 192.14166 69.87813 192.84479Q70.37813 193.54791 71.09688 193.54791Q71.83125 193.54791 72.31563 192.84479Q72.81563 192.14166 72.81563 190.03229Q72.81563 187.90729 72.31563 187.21979Q71.83125 186.51666 71.08125 186.51666Q70.3625 186.51666 69.925 187.12604Q69.37813 187.90729 69.37813 190.03229Z" fill-rule="nonzero"/><path fill="#000000" d="M51.3 126.06563Q51.3 124.53438 51.6125 123.6125Q51.925 122.675 52.534374 122.175Q53.159374 121.675 54.096874 121.675Q54.784374 121.675 55.3 121.95625Q55.83125 122.2375 56.175 122.76875Q56.51875 123.28438 56.70625 124.03438Q56.89375 124.78438 56.89375 126.06563Q56.89375 127.58125 56.58125 128.50313Q56.284374 129.425 55.659374 129.94063Q55.05 130.44063 54.096874 130.44063Q52.8625 130.44063 52.14375 129.55Q51.3 128.4875 51.3 126.06563ZM52.378124 126.06563Q52.378124 128.175 52.878124 128.87813Q53.378124 129.58125 54.096874 129.58125Q54.83125 129.58125 55.315624 128.87813Q55.815624 128.175 55.815624 126.06563Q55.815624 123.94063 55.315624 123.25313Q54.83125 122.55 54.08125 122.55Q53.3625 122.55 52.925 123.15938Q52.378124 123.94063 52.378124 126.06563ZM58.89375 130.3L58.89375 129.09688L60.096874 129.09688L60.096874 130.3L58.89375 130.3ZM61.3625 122.83125L61.3625 121.81563L66.925 121.81563L66.925 122.64375Q66.1125 123.51875 65.3 124.97188Q64.50313 126.40938 64.06563 127.94063Q63.7375 129.01875 63.659374 130.3L62.565624 130.3Q62.58125 129.28438 62.95625 127.84688Q63.346874 126.40938 64.05 125.08125Q64.76875 123.75313 65.58125 122.83125L61.3625 122.83125ZM68.3 128.05L69.40938 127.95625Q69.53438 128.76875 69.97188 129.175Q70.425 129.58125 71.06563 129.58125Q71.81563 129.58125 72.34688 129.00313Q72.87813 128.425 72.87813 127.4875Q72.87813 126.58125 72.3625 126.06563Q71.8625 125.53438 71.03438 125.53438Q70.53438 125.53438 70.1125 125.76875Q69.70625 126.00313 69.47188 126.3625L68.4875 126.2375L69.31563 121.83125L73.59688 121.83125L73.59688 122.83125L70.15938 122.83125L69.70625 125.14375Q70.47188 124.59688 71.31563 124.59688Q72.44063 124.59688 73.20625 125.37813Q73.9875 126.15938 73.9875 127.39375Q73.9875 128.55 73.31563 129.40938Q72.4875 130.44063 71.06563 130.44063Q69.89375 130.44063 69.14375 129.78438Q68.40938 129.12813 68.3 128.05Z" fill-rule="nonzero"/><path fill="#000000" d="M55.26875 66.333336L54.221874 66.333336L54.221874 59.614586Q53.83125 59.97396 53.20625 60.34896Q52.596874 60.708336 52.1125 60.88021L52.1125 59.864586Q52.9875 59.44271 53.64375 58.864586Q54.315624 58.270836 54.596874 57.708336L55.26875 57.708336L55.26875 66.333336ZM58.89375 66.333336L58.89375 65.13021L60.096874 65.13021L60.096874 66.333336L58.89375 66.333336ZM61.3 62.09896Q61.3 60.56771 61.6125 59.645836Q61.925 58.708336 62.534374 58.208336Q63.159374 57.708336 64.09688 57.708336Q64.78438 57.708336 65.3 57.989586Q65.83125 58.270836 66.175 58.802086Q66.51875 59.31771 66.70625 60.06771Q66.89375 60.81771 66.89375 62.09896Q66.89375 63.614586 66.58125 64.53646Q66.28438 65.458336 65.65938 65.97396Q65.05 66.47396 64.09688 66.47396Q62.8625 66.47396 62.14375 65.583336Q61.3 64.520836 61.3 62.09896ZM62.378124 62.09896Q62.378124 64.208336 62.878124 64.91146Q63.378124 65.614586 64.09688 65.614586Q64.83125 65.614586 65.31563 64.91146Q65.81563 64.208336 65.81563 62.09896Q65.81563 59.97396 65.31563 59.28646Q64.83125 58.583336 64.08125 58.583336Q63.3625 58.583336 62.925 59.19271Q62.378124 59.97396 62.378124 62.09896ZM68.3 62.09896Q68.3 60.56771 68.6125 59.645836Q68.925 58.708336 69.53438 58.208336Q70.15938 57.708336 71.09688 57.708336Q71.78438 57.708336 72.3 57.989586Q72.83125 58.270836 73.175 58.802086Q73.51875 59.31771 73.70625 60.06771Q73.89375 60.81771 73.89375 62.09896Q73.89375 63.614586 73.58125 64.53646Q73.28438 65.458336 72.65938 65.97396Q72.05 66.47396 71.09688 66.47396Q69.8625 66.47396 69.14375 65.583336Q68.3 64.520836 68.3 62.09896ZM69.37813 62.09896Q69.37813 64.208336 69.87813 64.91146Q70.37813 65.614586 71.09688 65.614586Q71.83125 65.614586 72.31563 64.91146Q72.81563 64.208336 72.81563 62.09896Q72.81563 59.97396 72.31563 59.28646Q71.83125 58.583336 71.08125 58.583336Q70.3625 58.583336 69.925 59.19271Q69.37813 59.97396 69.37813 62.09896Z" fill-rule="nonzero"/><path fill="#757575" d="M20.378124 37.8L20.378124 23.4875L30.7375 23.4875L30.7375 25.175L22.284374 25.175L22.284374 29.55L30.190624 29.55L30.190624 31.2375L22.284374 31.2375L22.284374 36.1125L31.065624 36.1125L31.065624 37.8L20.378124 37.8ZM39.89375 36.51875Q38.909374 37.346874 38.003124 37.690624Q37.096874 38.034374 36.065624 38.034374Q34.3625 38.034374 33.440624 37.20625Q32.51875 36.3625 32.51875 35.065624Q32.51875 34.3 32.8625 33.675Q33.221874 33.05 33.784374 32.675Q34.346874 32.284374 35.05 32.08125Q35.565624 31.95625 36.6125 31.815624Q38.7375 31.565624 39.7375 31.221874Q39.753124 30.8625 39.753124 30.753124Q39.753124 29.690624 39.253124 29.2375Q38.58125 28.64375 37.253124 28.64375Q36.003124 28.64375 35.409374 29.08125Q34.83125 29.51875 34.55 30.628124L32.83125 30.39375Q33.065624 29.284374 33.596874 28.6125Q34.128124 27.925 35.14375 27.565624Q36.159374 27.190624 37.503124 27.190624Q38.83125 27.190624 39.659374 27.503124Q40.4875 27.815624 40.878124 28.3Q41.26875 28.76875 41.425 29.4875Q41.51875 29.940624 41.51875 31.1125L41.51875 33.45625Q41.51875 35.909374 41.628124 36.565624Q41.7375 37.20625 42.08125 37.8L40.2375 37.8Q39.971874 37.253124 39.89375 36.51875ZM39.7375 32.596874Q38.784374 32.9875 36.8625 33.253124Q35.784374 33.409374 35.33125 33.6125Q34.89375 33.8 34.64375 34.175Q34.39375 34.55 34.39375 35.01875Q34.39375 35.721874 34.925 36.190624Q35.45625 36.659374 36.4875 36.659374Q37.503124 36.659374 38.284374 36.221874Q39.08125 35.76875 39.45625 35.003124Q39.7375 34.39375 39.7375 33.2375L39.7375 32.596874ZM43.409374 34.70625L45.159374 34.425Q45.3 35.471874 45.971874 36.034374Q46.64375 36.58125 47.846874 36.58125Q49.05 36.58125 49.628124 36.096874Q50.221874 35.596874 50.221874 34.940624Q50.221874 34.346874 49.70625 34.003124Q49.346874 33.76875 47.909374 33.409374Q45.971874 32.909374 45.221874 32.565624Q44.4875 32.20625 44.096874 31.58125Q43.70625 30.940624 43.70625 30.175Q43.70625 29.4875 44.01875 28.89375Q44.346874 28.3 44.89375 27.909374Q45.3 27.6125 46.003124 27.409374Q46.721874 27.190624 47.534374 27.190624Q48.753124 27.190624 49.675 27.55Q50.596874 27.89375 51.034374 28.503124Q51.471874 29.096874 51.64375 30.096874L49.925 30.33125Q49.8 29.534374 49.2375 29.096874Q48.675 28.64375 47.659374 28.64375Q46.440624 28.64375 45.925 29.05Q45.409374 29.440624 45.409374 29.971874Q45.409374 30.315624 45.628124 30.596874Q45.83125 30.878124 46.3 31.065624Q46.565624 31.159374 47.846874 31.503124Q49.721874 32.003124 50.45625 32.33125Q51.190624 32.64375 51.6125 33.253124Q52.034374 33.846874 52.034374 34.753124Q52.034374 35.628124 51.51875 36.409374Q51.003124 37.190624 50.034374 37.6125Q49.065624 38.034374 47.846874 38.034374Q45.83125 38.034374 44.76875 37.190624Q43.70625 36.346874 43.409374 34.70625ZM61.221874 34.45625L63.034374 34.690624Q62.6125 36.26875 61.440624 37.159374Q60.284374 38.034374 58.471874 38.034374Q56.20625 38.034374 54.8625 36.64375Q53.534374 35.2375 53.534374 32.70625Q53.534374 30.08125 54.878124 28.64375Q56.221874 27.190624 58.378124 27.190624Q60.45625 27.190624 61.76875 28.6125Q63.096874 30.01875 63.096874 32.596874Q63.096874 32.753124 63.08125 33.065624L55.346874 33.065624Q55.440624 34.76875 56.315624 35.675Q57.190624 36.58125 58.4875 36.58125Q59.45625 36.58125 60.128124 36.08125Q60.815624 35.565624 61.221874 34.45625ZM55.440624 31.6125L61.2375 31.6125Q61.128124 30.315624 60.58125 29.659374Q59.7375 28.64375 58.39375 28.64375Q57.190624 28.64375 56.3625 29.45625Q55.534374 30.253124 55.440624 31.6125ZM64.76875 30.83125Q64.76875 27.26875 66.675 25.253124Q68.59688 23.221874 71.62813 23.221874Q73.6125 23.221874 75.19063 24.175Q76.78438 25.128124 77.6125 26.83125Q78.45625 28.51875 78.45625 30.659374Q78.45625 32.83125 77.58125 34.55Q76.70625 36.26875 75.08125 37.159374Q73.47188 38.05 71.6125 38.05Q69.59688 38.05 68.00313 37.08125Q66.40938 36.096874 65.58125 34.409374Q64.76875 32.70625 64.76875 30.83125ZM66.72188 30.8625Q66.72188 33.440624 68.1125 34.940624Q69.50313 36.425 71.59688 36.425Q73.7375 36.425 75.1125 34.925Q76.50313 33.409374 76.50313 30.64375Q76.50313 28.909374 75.90938 27.6125Q75.33125 26.3 74.19063 25.58125Q73.05 24.8625 71.62813 24.8625Q69.62813 24.8625 68.175 26.253124Q66.72188 27.628124 66.72188 30.8625ZM87.90938 37.8L87.90938 36.26875Q86.70625 38.034374 84.62813 38.034374Q83.70625 38.034374 82.90938 37.690624Q82.1125 37.33125 81.72188 36.8Q81.34688 36.26875 81.19063 35.4875Q81.08125 34.971874 81.08125 33.846874L81.08125 27.425L82.83125 27.425L82.83125 33.175Q82.83125 34.55 82.94063 35.034374Q83.1125 35.721874 83.64375 36.128124Q84.19063 36.51875 84.97188 36.51875Q85.76875 36.51875 86.45625 36.1125Q87.15938 35.70625 87.44063 35.01875Q87.7375 34.315624 87.7375 32.9875L87.7375 27.425L89.4875 27.425L89.4875 37.8L87.90938 37.8ZM94.95625 36.221874L95.20625 37.784374Q94.47188 37.940624 93.87813 37.940624Q92.925 37.940624 92.39375 37.64375Q91.87813 37.33125 91.65938 36.846874Q91.44063 36.346874 91.44063 34.76875L91.44063 28.8L90.15938 28.8L90.15938 27.425L91.44063 27.425L91.44063 24.8625L93.19063 23.8L93.19063 27.425L94.95625 27.425L94.95625 28.8L93.19063 28.8L93.19063 34.8625Q93.19063 35.6125 93.28438 35.83125Q93.37813 36.034374 93.58125 36.175Q93.8 36.3 94.19063 36.3Q94.47188 36.3 94.95625 36.221874ZM108.19063 36.26875Q109.51875 37.175 110.62813 37.596874L110.06563 38.909374Q108.51875 38.3625 106.9875 37.159374Q105.39375 38.05 103.47188 38.05Q101.53438 38.05 99.94063 37.1125Q98.3625 36.175 97.50313 34.471874Q96.65938 32.76875 96.65938 30.64375Q96.65938 28.51875 97.51875 26.784374Q98.37813 25.05 99.95625 24.14375Q101.55 23.221874 103.51875 23.221874Q105.50313 23.221874 107.08125 24.175Q108.675 25.1125 109.50313 26.815624Q110.34688 28.503124 110.34688 30.628124Q110.34688 32.39375 109.81563 33.815624Q109.28438 35.221874 108.19063 36.26875ZM104.01875 33.846874Q105.65938 34.3 106.72188 35.20625Q108.39375 33.690624 108.39375 30.628124Q108.39375 28.89375 107.8 27.596874Q107.22188 26.3 106.08125 25.58125Q104.94063 24.8625 103.51875 24.8625Q101.40938 24.8625 100.00313 26.315624Q98.6125 27.753124 98.6125 30.64375Q98.6125 33.440624 99.9875 34.940624Q101.37813 36.425 103.51875 36.425Q104.53438 36.425 105.44063 36.034374Q104.55 35.471874 103.56563 35.221874L104.01875 33.846874ZM119.90938 37.8L119.90938 36.26875Q118.70625 38.034374 116.62813 38.034374Q115.70625 38.034374 114.90938 37.690624Q114.1125 37.33125 113.72188 36.8Q113.34688 36.26875 113.19063 35.4875Q113.08125 34.971874 113.08125 33.846874L113.08125 27.425L114.83125 27.425L114.83125 33.175Q114.83125 34.55 114.94063 35.034374Q115.1125 35.721874 115.64375 36.128124Q116.19063 36.51875 116.97188 36.51875Q117.76875 36.51875 118.45625 36.1125Q119.15938 35.70625 119.44063 35.01875Q119.7375 34.315624 119.7375 32.9875L119.7375 27.425L121.4875 27.425L121.4875 37.8L119.90938 37.8ZM123.12813 25.503124L123.12813 23.4875L124.89375 23.4875L124.89375 25.503124L123.12813 25.503124ZM123.12813 37.8L123.12813 27.425L124.89375 27.425L124.89375 37.8L123.12813 37.8ZM127.1125 37.8L127.1125 27.425L128.70625 27.425L128.70625 28.909374Q129.84688 27.190624 132.00313 27.190624Q132.94063 27.190624 133.72188 27.534374Q134.51875 27.8625 134.90938 28.409374Q135.3 28.95625 135.45625 29.70625Q135.55 30.20625 135.55 31.425L135.55 37.8L133.78438 37.8L133.78438 31.4875Q133.78438 30.409374 133.58125 29.878124Q133.37813 29.346874 132.84688 29.034374Q132.33125 28.721874 131.62813 28.721874Q130.50313 28.721874 129.69063 29.440624Q128.87813 30.14375 128.87813 32.128124L128.87813 37.8L127.1125 37.8ZM140.95625 36.221874L141.20625 37.784374Q140.47188 37.940624 139.87813 37.940624Q138.925 37.940624 138.39375 37.64375Q137.87813 37.33125 137.65938 36.846874Q137.44063 36.346874 137.44063 34.76875L137.44063 28.8L136.15938 28.8L136.15938 27.425L137.44063 27.425L137.44063 24.8625L139.19063 23.8L139.19063 27.425L140.95625 27.425L140.95625 28.8L139.19063 28.8L139.19063 34.8625Q139.19063 35.6125 139.28438 35.83125Q139.37813 36.034374 139.58125 36.175Q139.8 36.3 140.19063 36.3Q140.47188 36.3 140.95625 36.221874ZM143.12813 25.503124L143.12813 23.4875L144.89375 23.4875L144.89375 25.503124L143.12813 25.503124ZM143.12813 37.8L143.12813 27.425L144.89375 27.425L144.89375 37.8L143.12813 37.8ZM153.89375 34.003124L155.6125 34.221874Q155.33125 36.01875 154.15938 37.034374Q153.00313 38.034374 151.3 38.034374Q149.175 38.034374 147.87813 36.64375Q146.58125 35.253124 146.58125 32.659374Q146.58125 30.971874 147.12813 29.721874Q147.69063 28.45625 148.83125 27.83125Q149.97188 27.190624 151.31563 27.190624Q153.00313 27.190624 154.06563 28.05Q155.14375 28.909374 155.45625 30.471874L153.7375 30.7375Q153.50313 29.690624 152.87813 29.175Q152.25313 28.64375 151.37813 28.64375Q150.05 28.64375 149.22188 29.596874Q148.39375 30.55 148.39375 32.596874Q148.39375 34.690624 149.19063 35.64375Q149.9875 36.58125 151.28438 36.58125Q152.31563 36.58125 153.00313 35.95625Q153.70625 35.315624 153.89375 34.003124Z" fill-rule="nonzero"/></svg>