<svg version="1.1" viewBox="0.0 0.0 608.0 376.0" fill="none" stroke="none" stroke-linecap="square" stroke-miterlimit="10" width="608" height="376" xmlns:xlink="http://www.w3.org/1999/xlink" xmlns="http://www.w3.org/2000/svg"><path fill="#ffffff" d="M0 0L608.0 0L608.0 376.0L0 376.0L0 0Z" fill-rule="nonzero"/><path stroke="#cccccc" stroke-width="1.0" stroke-linecap="butt" d="M84.5 318.5L589.5 318.5" fill-rule="nonzero"/><path stroke="#cccccc" stroke-width="1.0" stroke-linecap="butt" d="M84.5 232.5L589.5 232.5" fill-rule="nonzero"/><path stroke="#cccccc" stroke-width="1.0" stroke-linecap="butt" d="M84.5 147.5L589.5 147.5" fill-rule="nonzero"/><path stroke="#cccccc" stroke-width="1.0" stroke-linecap="butt" d="M84.5 62.5L589.5 62.5" fill-rule="nonzero"/><path stroke="#000000" stroke-width="1.0" stroke-linecap="butt" d="M84.5 318.5L84.5 62.5" fill-rule="nonzero"/><clipPath id="id_0"><path d="M84.8 62.333332L589.2 62.333332L589.2 318.2L84.8 318.2L84.8 62.333332Z" clip-rule="nonzero"/></clipPath><path stroke="#4285f4" stroke-width="2.0" stroke-linecap="butt" clip-path="url(#id_0)" d="M87.29703 275.55554C87.29703 275.55554 90.6264 275.58588 92.29109 275.64163C93.95577 275.6974 95.62046 275.78262 97.28515 275.89005C98.94984 275.99744 100.614525 276.1319 102.279205 276.28607C103.94389 276.44022 105.60858 276.619 107.27327 276.815C108.93795 277.01102 110.60264 277.22916 112.26733 277.46213C113.932014 277.69507 115.5967 277.94772 117.26138 278.2127C118.92607 278.4777 120.59076 278.75992 122.25545 279.05203C123.920135 279.34415 125.584816 279.65106 127.249504 279.96542C128.91418 280.27975 130.57887 280.60645 132.24356 280.9381C133.90825 281.26978 135.57294 281.6113 137.23763 281.95538C138.90231 282.29947 140.567 282.65097 142.23169 283.00256C143.89636 283.35413 145.56105 283.7107 147.22574 284.06488C148.89043 284.41907 150.55511 284.7758 152.2198 285.1277C153.88449 285.47955 155.54918 285.8315 157.21387 286.17618C158.87856 286.52087 160.54323 286.86316 162.20792 287.1957C163.8726 287.5283 165.5373 287.85602 167.20198 288.17154C168.86667 288.4871 170.53136 288.79535 172.19604 289.08896C173.86073 289.38257 175.5254 289.66644 177.1901 289.93323C178.85478 290.2 180.51947 290.4546 182.18416 290.68964C183.84885 290.92468 185.51353 291.14508 187.17822 291.3435C188.84291 291.5419 190.50758 291.7232 192.17227 291.88007C193.83696 292.0369 195.50165 292.1742 197.16634 292.2846C198.83102 292.395 200.49571 292.4834 202.1604 292.54245C203.82509 292.60147 205.48976 292.63605 207.15445 292.63882C208.81914 292.6416 210.48383 292.61746 212.14851 292.55905C213.8132 292.50067 215.47789 292.4129 217.14258 292.28842C218.80727 292.16394 220.47195 292.00766 222.13663 291.8122C223.80132 291.61673 225.466 291.38702 227.13069 291.11566C228.79538 290.8443 230.46007 290.53625 232.12476 290.1841C233.78944 289.83194 235.45413 289.44064 237.1188 289.0028C238.7835 288.56494 240.44818 288.08548 242.11287 287.55704C243.77756 287.0286 245.44225 286.45605 247.10693 285.8321C248.77162 285.20813 250.43631 284.53766 252.10098 283.81326C253.76567 283.0889 255.43036 282.31552 257.09506 281.48584C258.75974 280.65613 260.4244 279.775 262.0891 278.83505C263.75378 277.89514 265.4185 276.9013 267.08316 275.84625C268.74786 274.79117 270.41254 273.67978 272.07724 272.50467C273.7419 271.32956 275.4066 270.09567 277.0713 268.79562C278.73596 267.49557 280.40067 266.13428 282.06534 264.70438C283.73004 263.27448 285.3947 261.78088 287.05942 260.21622C288.7241 258.65155 290.3888 257.02075 292.05347 255.31642C293.71814 253.6121 295.38284 251.83917 297.04752 249.9903C298.71222 248.1414 300.3769 246.22145 302.0416 244.22308C303.70627 242.22473 305.37097 240.15285 307.03564 238.0001C308.70032 235.84737 310.36502 233.61865 312.0297 231.30663C313.6944 228.9946 315.35907 226.60416 317.02377 224.12793C318.68845 221.65172 320.35315 219.09462 322.01782 216.44931C323.6825 213.80399 325.3472 211.07535 327.01187 208.25603C328.67657 205.4367 330.34125 202.53162 332.00595 199.53339C333.67062 196.53516 335.33533 193.35558 337.0 190.26666C338.66467 187.17776 340.32938 183.99817 341.99405 180.99994C343.65875 178.00171 345.32343 175.09662 346.98813 172.2773C348.6528 169.45798 350.3175 166.72934 351.98218 164.08403C353.64685 161.4387 355.31155 158.88162 356.97623 156.4054C358.64093 153.92918 360.3056 151.53873 361.9703 149.2267C363.63498 146.91467 365.29968 144.68597 366.96436 142.53323C368.62903 140.38048 370.29373 138.30861 371.9584 136.31024C373.6231 134.31187 375.28778 132.39194 376.95248 130.54305C378.61716 128.69415 380.28186 126.92123 381.94653 125.21691C383.6112 123.51259 385.2759 121.881775 386.94058 120.317116C388.6053 118.752464 390.26996 117.25886 391.93466 115.82896C393.59933 114.399055 395.26404 113.037766 396.9287 111.73771C398.5934 110.43766 400.2581 109.203766 401.92276 108.02866C403.58746 106.85355 405.25214 105.74215 406.91684 104.68709C408.5815 103.63203 410.24622 102.63821 411.9109 101.69827C413.5756 100.75835 415.24026 99.87721 416.90494 99.04751C418.56964 98.217804 420.2343 97.44444 421.89902 96.72007C423.5637 95.99569 425.2284 95.325195 426.89307 94.70123C428.55777 94.07728 430.22244 93.504745 431.88712 92.976295C433.55182 92.447845 435.2165 91.96838 436.8812 91.53054C438.54587 91.09269 440.21057 90.70138 441.87524 90.349236C443.53995 89.99709 445.20462 89.689026 446.8693 89.41767C448.534 89.146324 450.19867 88.916595 451.86337 88.72114C453.52805 88.52567 455.19275 88.369385 456.85742 88.24491C458.52213 88.12043 460.1868 88.03267 461.85147 87.97427C463.51617 87.91587 465.18085 87.89173 466.84555 87.89451C468.51022 87.89728 470.17493 87.93186 471.8396 87.9909C473.5043 88.049934 475.16898 88.13833 476.83365 88.248726C478.49835 88.35912 480.16302 88.49643 481.82773 88.65328C483.4924 88.810135 485.1571 88.99144 486.82178 89.18984C488.48648 89.38824 490.15115 89.60864 491.81583 89.84369C493.48053 90.07873 495.1452 90.33332 496.8099 90.600105C498.47458 90.86688 500.13928 91.150764 501.80396 91.444374C503.46866 91.73799 505.13333 92.04624 506.79803 92.361786C508.4627 92.67732 510.12738 93.00505 511.79208 93.33761C513.4568 93.670166 515.12146 94.01247 516.78613 94.35714C518.4508 94.70181 520.11554 95.05377 521.7802 95.405655C523.4449 95.75754 525.10956 96.11425 526.77423 96.46844C528.43896 96.822624 530.10364 97.17919 531.7683 97.53078C533.433 97.88236 535.0977 98.23387 536.7624 98.57795C538.42706 98.92202 540.09174 99.26357 541.7564 99.59523C543.42114 99.926895 545.0858 100.25358 546.7505 100.567924C548.41516 100.88226 550.0799 101.18917 551.74457 101.48129C553.40924 101.77341 555.0739 102.05564 556.7386 102.320625C558.4033 102.58562 560.068 102.838264 561.73267 103.07121C563.39734 103.30416 565.0621 103.52232 566.72675 103.71833C568.3914 103.91434 570.0561 104.0931 571.72076 104.24726C573.3855 104.40142 575.0502 104.53589 576.71484 104.643295C578.3795 104.7507 580.04425 104.83595 581.7089 104.8917C583.3736 104.94745 586.70294 104.977776 586.70294 104.977776" fill-rule="nonzero"/><path fill="#000000" fill-opacity="0.0" clip-path="url(#id_0)" d="M90.29703 275.55554C90.29703 277.2124 88.95388 278.55554 87.29703 278.55554C85.640175 278.55554 84.29703 277.2124 84.29703 275.55554C84.29703 273.8987 85.640175 272.55554 87.29703 272.55554C88.95388 272.55554 90.29703 273.8987 90.29703 275.55554Z" fill-rule="nonzero"/><path fill="#000000" fill-opacity="0.0" clip-path="url(#id_0)" d="M95.29109 275.64163C95.29109 277.2985 93.947945 278.64163 92.29109 278.64163C90.63423 278.64163 89.29109 277.2985 89.29109 275.64163C89.29109 273.98477 90.63423 272.64163 92.29109 272.64163C93.947945 272.64163 95.29109 273.98477 95.29109 275.64163Z" fill-rule="nonzero"/><path fill="#000000" fill-opacity="0.0" clip-path="url(#id_0)" d="M100.28515 275.89005C100.28515 277.5469 98.942 278.89005 97.28515 278.89005C95.628296 278.89005 94.28515 277.5469 94.28515 275.89005C94.28515 274.2332 95.628296 272.89005 97.28515 272.89005C98.942 272.89005 100.28515 274.2332 100.28515 275.89005Z" fill-rule="nonzero"/><path fill="#000000" fill-opacity="0.0" clip-path="url(#id_0)" d="M105.279205 276.28607C105.279205 277.94293 103.936066 279.28607 102.279205 279.28607C100.62235 279.28607 99.279205 277.94293 99.279205 276.28607C99.279205 274.6292 100.62235 273.28607 102.279205 273.28607C103.936066 273.28607 105.279205 274.6292 105.279205 276.28607Z" fill-rule="nonzero"/><path fill="#000000" fill-opacity="0.0" clip-path="url(#id_0)" d="M110.27327 276.815C110.27327 278.47186 108.93012 279.815 107.27327 279.815C105.61641 279.815 104.27327 278.47186 104.27327 276.815C104.27327 275.15814 105.61641 273.815 107.27327 273.815C108.93012 273.815 110.27327 275.15814 110.27327 276.815Z" fill-rule="nonzero"/><path fill="#000000" fill-opacity="0.0" clip-path="url(#id_0)" d="M115.26733 277.46213C115.26733 279.119 113.92418 280.46213 112.26733 280.46213C110.61047 280.46213 109.26733 279.119 109.26733 277.46213C109.26733 275.80527 110.61047 274.46213 112.26733 274.46213C113.92418 274.46213 115.26733 275.80527 115.26733 277.46213Z" fill-rule="nonzero"/><path fill="#000000" fill-opacity="0.0" clip-path="url(#id_0)" d="M120.26138 278.2127C120.26138 279.86957 118.91824 281.2127 117.26138 281.2127C115.60453 281.2127 114.26138 279.86957 114.26138 278.2127C114.26138 276.55585 115.60453 275.2127 117.26138 275.2127C118.91824 275.2127 120.26138 276.55585 120.26138 278.2127Z" fill-rule="nonzero"/><path fill="#000000" fill-opacity="0.0" clip-path="url(#id_0)" d="M125.25545 279.05203C125.25545 280.7089 123.9123 282.05203 122.25545 282.05203C120.598595 282.05203 119.25545 280.7089 119.25545 279.05203C119.25545 277.39517 120.598595 276.05203 122.25545 276.05203C123.9123 276.05203 125.25545 277.39517 125.25545 279.05203Z" fill-rule="nonzero"/><path fill="#000000" fill-opacity="0.0" clip-path="url(#id_0)" d="M130.24951 279.96542C130.24951 281.62225 128.90636 282.96542 127.249504 282.96542C125.59265 282.96542 124.249504 281.62225 124.249504 279.96542C124.249504 278.30856 125.59265 276.96542 127.249504 276.96542C128.90636 276.96542 130.24951 278.30856 130.24951 279.96542Z" fill-rule="nonzero"/><path fill="#000000" fill-opacity="0.0" clip-path="url(#id_0)" d="M135.24356 280.9381C135.24356 282.59494 133.90042 283.9381 132.24356 283.9381C130.58672 283.9381 129.24356 282.59494 129.24356 280.9381C129.24356 279.28125 130.58672 277.9381 132.24356 277.9381C133.90042 277.9381 135.24356 279.28125 135.24356 280.9381Z" fill-rule="nonzero"/><path fill="#000000" fill-opacity="0.0" clip-path="url(#id_0)" d="M140.23763 281.95538C140.23763 283.61224 138.89449 284.95538 137.23763 284.95538C135.58076 284.95538 134.23763 283.61224 134.23763 281.95538C134.23763 280.29852 135.58076 278.95538 137.23763 278.95538C138.89449 278.95538 140.23763 280.29852 140.23763 281.95538Z" fill-rule="nonzero"/><path fill="#000000" fill-opacity="0.0" clip-path="url(#id_0)" d="M145.23169 283.00256C145.23169 284.65942 143.88853 286.00256 142.23169 286.00256C140.57483 286.00256 139.23169 284.65942 139.23169 283.00256C139.23169 281.3457 140.57483 280.00256 142.23169 280.00256C143.88853 280.00256 145.23169 281.3457 145.23169 283.00256Z" fill-rule="nonzero"/><path fill="#000000" fill-opacity="0.0" clip-path="url(#id_0)" d="M150.22574 284.06488C150.22574 285.72174 148.8826 287.06488 147.22574 287.06488C145.5689 287.06488 144.22574 285.72174 144.22574 284.06488C144.22574 282.40805 145.5689 281.06488 147.22574 281.06488C148.8826 281.06488 150.22574 282.40805 150.22574 284.06488Z" fill-rule="nonzero"/><path fill="#000000" fill-opacity="0.0" clip-path="url(#id_0)" d="M155.2198 285.1277C155.2198 286.78455 153.87666 288.1277 152.2198 288.1277C150.56294 288.1277 149.2198 286.78455 149.2198 285.1277C149.2198 283.47083 150.56294 282.1277 152.2198 282.1277C153.87666 282.1277 155.2198 283.47083 155.2198 285.1277Z" fill-rule="nonzero"/><path fill="#000000" fill-opacity="0.0" clip-path="url(#id_0)" d="M160.21387 286.17618C160.21387 287.83304 158.87071 289.17618 157.21387 289.17618C155.557 289.17618 154.21387 287.83304 154.21387 286.17618C154.21387 284.51935 155.557 283.17618 157.21387 283.17618C158.87071 283.17618 160.21387 284.51935 160.21387 286.17618Z" fill-rule="nonzero"/><path fill="#000000" fill-opacity="0.0" clip-path="url(#id_0)" d="M165.20792 287.1957C165.20792 288.85257 163.86478 290.1957 162.20792 290.1957C160.55107 290.1957 159.20792 288.85257 159.20792 287.1957C159.20792 285.53888 160.55107 284.1957 162.20792 284.1957C163.86478 284.1957 165.20792 285.53888 165.20792 287.1957Z" fill-rule="nonzero"/><path fill="#000000" fill-opacity="0.0" clip-path="url(#id_0)" d="M170.20198 288.17154C170.20198 289.8284 168.85884 291.17154 167.20198 291.17154C165.54512 291.17154 164.20198 289.8284 164.20198 288.17154C164.20198 286.5147 165.54512 285.17154 167.20198 285.17154C168.85884 285.17154 170.20198 286.5147 170.20198 288.17154Z" fill-rule="nonzero"/><path fill="#000000" fill-opacity="0.0" clip-path="url(#id_0)" d="M175.19604 289.08896C175.19604 290.74582 173.85289 292.08896 172.19604 292.08896C170.53918 292.08896 169.19604 290.74582 169.19604 289.08896C169.19604 287.4321 170.53918 286.08896 172.19604 286.08896C173.85289 286.08896 175.19604 287.4321 175.19604 289.08896Z" fill-rule="nonzero"/><path fill="#000000" fill-opacity="0.0" clip-path="url(#id_0)" d="M180.1901 289.93323C180.1901 291.5901 178.84695 292.93323 177.1901 292.93323C175.53325 292.93323 174.1901 291.5901 174.1901 289.93323C174.1901 288.27637 175.53325 286.93323 177.1901 286.93323C178.84695 286.93323 180.1901 288.27637 180.1901 289.93323Z" fill-rule="nonzero"/><path fill="#000000" fill-opacity="0.0" clip-path="url(#id_0)" d="M185.18416 290.68964C185.18416 292.3465 183.84102 293.68964 182.18416 293.68964C180.5273 293.68964 179.18416 292.3465 179.18416 290.68964C179.18416 289.0328 180.5273 287.68964 182.18416 287.68964C183.84102 287.68964 185.18416 289.0328 185.18416 290.68964Z" fill-rule="nonzero"/><path fill="#000000" fill-opacity="0.0" clip-path="url(#id_0)" d="M190.17822 291.3435C190.17822 293.00034 188.83507 294.3435 187.17822 294.3435C185.52136 294.3435 184.17822 293.00034 184.17822 291.3435C184.17822 289.68665 185.52136 288.3435 187.17822 288.3435C188.83507 288.3435 190.17822 289.68665 190.17822 291.3435Z" fill-rule="nonzero"/><path fill="#000000" fill-opacity="0.0" clip-path="url(#id_0)" d="M195.17227 291.88007C195.17227 293.5369 193.82913 294.88007 192.17227 294.88007C190.51543 294.88007 189.17227 293.5369 189.17227 291.88007C189.17227 290.2232 190.51543 288.88007 192.17227 288.88007C193.82913 288.88007 195.17227 290.2232 195.17227 291.88007Z" fill-rule="nonzero"/><path fill="#000000" fill-opacity="0.0" clip-path="url(#id_0)" d="M200.16634 292.2846C200.16634 293.94147 198.8232 295.2846 197.16634 295.2846C195.50948 295.2846 194.16634 293.94147 194.16634 292.2846C194.16634 290.62775 195.50948 289.2846 197.16634 289.2846C198.8232 289.2846 200.16634 290.62775 200.16634 292.2846Z" fill-rule="nonzero"/><path fill="#000000" fill-opacity="0.0" clip-path="url(#id_0)" d="M205.1604 292.54245C205.1604 294.19928 203.81725 295.54245 202.1604 295.54245C200.50354 295.54245 199.1604 294.19928 199.1604 292.54245C199.1604 290.8856 200.50354 289.54245 202.1604 289.54245C203.81725 289.54245 205.1604 290.8856 205.1604 292.54245Z" fill-rule="nonzero"/><path fill="#000000" fill-opacity="0.0" clip-path="url(#id_0)" d="M210.15445 292.63882C210.15445 294.2957 208.81131 295.63882 207.15445 295.63882C205.4976 295.63882 204.15445 294.2957 204.15445 292.63882C204.15445 290.98196 205.4976 289.63882 207.15445 289.63882C208.81131 289.63882 210.15445 290.98196 210.15445 292.63882Z" fill-rule="nonzero"/><path fill="#000000" fill-opacity="0.0" clip-path="url(#id_0)" d="M215.14851 292.55905C215.14851 294.2159 213.80537 295.55905 212.14851 295.55905C210.49165 295.55905 209.14851 294.2159 209.14851 292.55905C209.14851 290.90222 210.49165 289.55905 212.14851 289.55905C213.80537 289.55905 215.14851 290.90222 215.14851 292.55905Z" fill-rule="nonzero"/><path fill="#000000" fill-opacity="0.0" clip-path="url(#id_0)" d="M220.14258 292.28842C220.14258 293.94528 218.79942 295.28842 217.14258 295.28842C215.48572 295.28842 214.14258 293.94528 214.14258 292.28842C214.14258 290.63156 215.48572 289.28842 217.14258 289.28842C218.79942 289.28842 220.14258 290.63156 220.14258 292.28842Z" fill-rule="nonzero"/><path fill="#000000" fill-opacity="0.0" clip-path="url(#id_0)" d="M225.13663 291.8122C225.13663 293.46906 223.79349 294.8122 222.13663 294.8122C220.47978 294.8122 219.13663 293.46906 219.13663 291.8122C219.13663 290.15533 220.47978 288.8122 222.13663 288.8122C223.79349 288.8122 225.13663 290.15533 225.13663 291.8122Z" fill-rule="nonzero"/><path fill="#000000" fill-opacity="0.0" clip-path="url(#id_0)" d="M230.13069 291.11566C230.13069 292.77252 228.78755 294.11566 227.13069 294.11566C225.47385 294.11566 224.13069 292.77252 224.13069 291.11566C224.13069 289.4588 225.47385 288.11566 227.13069 288.11566C228.78755 288.11566 230.13069 289.4588 230.13069 291.11566Z" fill-rule="nonzero"/><path fill="#000000" fill-opacity="0.0" clip-path="url(#id_0)" d="M235.12476 290.1841C235.12476 291.84094 233.7816 293.1841 232.12476 293.1841C230.4679 293.1841 229.12476 291.84094 229.12476 290.1841C229.12476 288.52725 230.4679 287.1841 232.12476 287.1841C233.7816 287.1841 235.12476 288.52725 235.12476 290.1841Z" fill-rule="nonzero"/><path fill="#000000" fill-opacity="0.0" clip-path="url(#id_0)" d="M240.1188 289.0028C240.1188 290.65964 238.77567 292.0028 237.1188 292.0028C235.46196 292.0028 234.1188 290.65964 234.1188 289.0028C234.1188 287.34595 235.46196 286.0028 237.1188 286.0028C238.77567 286.0028 240.1188 287.34595 240.1188 289.0028Z" fill-rule="nonzero"/><path fill="#000000" fill-opacity="0.0" clip-path="url(#id_0)" d="M245.11287 287.55704C245.11287 289.2139 243.76973 290.55704 242.11287 290.55704C240.45602 290.55704 239.11287 289.2139 239.11287 287.55704C239.11287 285.90018 240.45602 284.55704 242.11287 284.55704C243.76973 284.55704 245.11287 285.90018 245.11287 287.55704Z" fill-rule="nonzero"/><path fill="#000000" fill-opacity="0.0" clip-path="url(#id_0)" d="M250.10693 285.8321C250.10693 287.48895 248.76378 288.8321 247.10693 288.8321C245.45007 288.8321 244.10693 287.48895 244.10693 285.8321C244.10693 284.17523 245.45007 282.8321 247.10693 282.8321C248.76378 282.8321 250.10693 284.17523 250.10693 285.8321Z" fill-rule="nonzero"/><path fill="#000000" fill-opacity="0.0" clip-path="url(#id_0)" d="M255.10098 283.81326C255.10098 285.47012 253.75784 286.81326 252.10098 286.81326C250.44414 286.81326 249.10098 285.47012 249.10098 283.81326C249.10098 282.1564 250.44414 280.81326 252.10098 280.81326C253.75784 280.81326 255.10098 282.1564 255.10098 283.81326Z" fill-rule="nonzero"/><path fill="#000000" fill-opacity="0.0" clip-path="url(#id_0)" d="M260.09506 281.48584C260.09506 283.14267 258.7519 284.48584 257.09506 284.48584C255.4382 284.48584 254.09505 283.14267 254.09505 281.48584C254.09505 279.82898 255.4382 278.48584 257.09506 278.48584C258.7519 278.48584 260.09506 279.82898 260.09506 281.48584Z" fill-rule="nonzero"/><path fill="#000000" fill-opacity="0.0" clip-path="url(#id_0)" d="M265.0891 278.83505C265.0891 280.4919 263.74597 281.83505 262.0891 281.83505C260.43225 281.83505 259.0891 280.4919 259.0891 278.83505C259.0891 277.1782 260.43225 275.83505 262.0891 275.83505C263.74597 275.83505 265.0891 277.1782 265.0891 278.83505Z" fill-rule="nonzero"/><path fill="#000000" fill-opacity="0.0" clip-path="url(#id_0)" d="M270.08316 275.84625C270.08316 277.5031 268.74002 278.84625 267.08316 278.84625C265.4263 278.84625 264.08316 277.5031 264.08316 275.84625C264.08316 274.1894 265.4263 272.84625 267.08316 272.84625C268.74002 272.84625 270.08316 274.1894 270.08316 275.84625Z" fill-rule="nonzero"/><path fill="#000000" fill-opacity="0.0" clip-path="url(#id_0)" d="M275.07724 272.50467C275.07724 274.16153 273.73407 275.50467 272.07724 275.50467C270.42038 275.50467 269.07724 274.16153 269.07724 272.50467C269.07724 270.8478 270.42038 269.50467 272.07724 269.50467C273.73407 269.50467 275.07724 270.8478 275.07724 272.50467Z" fill-rule="nonzero"/><path fill="#000000" fill-opacity="0.0" clip-path="url(#id_0)" d="M280.0713 268.79562C280.0713 270.45248 278.72815 271.79562 277.0713 271.79562C275.41443 271.79562 274.0713 270.45248 274.0713 268.79562C274.0713 267.13876 275.41443 265.79562 277.0713 265.79562C278.72815 265.79562 280.0713 267.13876 280.0713 268.79562Z" fill-rule="nonzero"/><path fill="#000000" fill-opacity="0.0" clip-path="url(#id_0)" d="M285.06534 264.70438C285.06534 266.36124 283.7222 267.70438 282.06534 267.70438C280.40848 267.70438 279.06534 266.36124 279.06534 264.70438C279.06534 263.04752 280.40848 261.70438 282.06534 261.70438C283.7222 261.70438 285.06534 263.04752 285.06534 264.70438Z" fill-rule="nonzero"/><path fill="#000000" fill-opacity="0.0" clip-path="url(#id_0)" d="M290.05942 260.21622C290.05942 261.87308 288.71625 263.21622 287.05942 263.21622C285.40256 263.21622 284.05942 261.87308 284.05942 260.21622C284.05942 258.55936 285.40256 257.21622 287.05942 257.21622C288.71625 257.21622 290.05942 258.55936 290.05942 260.21622Z" fill-rule="nonzero"/><path fill="#000000" fill-opacity="0.0" clip-path="url(#id_0)" d="M295.05347 255.31642C295.05347 256.97327 293.71033 258.31644 292.05347 258.31644C290.3966 258.31644 289.05347 256.97327 289.05347 255.31642C289.05347 253.65958 290.3966 252.31642 292.05347 252.31642C293.71033 252.31642 295.05347 253.65958 295.05347 255.31642Z" fill-rule="nonzero"/><path fill="#000000" fill-opacity="0.0" clip-path="url(#id_0)" d="M300.04752 249.9903C300.04752 251.64714 298.70438 252.9903 297.04752 252.9903C295.39066 252.9903 294.04752 251.64714 294.04752 249.9903C294.04752 248.33344 295.39066 246.9903 297.04752 246.9903C298.70438 246.9903 300.04752 248.33344 300.04752 249.9903Z" fill-rule="nonzero"/><path fill="#000000" fill-opacity="0.0" clip-path="url(#id_0)" d="M305.0416 244.22308C305.0416 245.87994 303.69843 247.22308 302.0416 247.22308C300.38474 247.22308 299.0416 245.87994 299.0416 244.22308C299.0416 242.56624 300.38474 241.22308 302.0416 241.22308C303.69843 241.22308 305.0416 242.56624 305.0416 244.22308Z" fill-rule="nonzero"/><path fill="#000000" fill-opacity="0.0" clip-path="url(#id_0)" d="M310.03564 238.0001C310.03564 239.65697 308.6925 241.0001 307.03564 241.0001C305.37878 241.0001 304.03564 239.65697 304.03564 238.0001C304.03564 236.34325 305.37878 235.0001 307.03564 235.0001C308.6925 235.0001 310.03564 236.34325 310.03564 238.0001Z" fill-rule="nonzero"/><path fill="#000000" fill-opacity="0.0" clip-path="url(#id_0)" d="M315.0297 231.30663C315.0297 232.96349 313.68655 234.30663 312.0297 234.30663C310.37286 234.30663 309.0297 232.96349 309.0297 231.30663C309.0297 229.64978 310.37286 228.30663 312.0297 228.30663C313.68655 228.30663 315.0297 229.64978 315.0297 231.30663Z" fill-rule="nonzero"/><path fill="#000000" fill-opacity="0.0" clip-path="url(#id_0)" d="M320.02377 224.12793C320.02377 225.78479 318.6806 227.12793 317.02377 227.12793C315.3669 227.12793 314.02377 225.78479 314.02377 224.12793C314.02377 222.47108 315.3669 221.12793 317.02377 221.12793C318.6806 221.12793 320.02377 222.47108 320.02377 224.12793Z" fill-rule="nonzero"/><path fill="#000000" fill-opacity="0.0" clip-path="url(#id_0)" d="M325.01782 216.44931C325.01782 218.10616 323.67468 219.44931 322.01782 219.44931C320.36096 219.44931 319.01782 218.10616 319.01782 216.44931C319.01782 214.79245 320.36096 213.44931 322.01782 213.44931C323.67468 213.44931 325.01782 214.79245 325.01782 216.44931Z" fill-rule="nonzero"/><path fill="#000000" fill-opacity="0.0" clip-path="url(#id_0)" d="M330.01187 208.25603C330.01187 209.91289 328.66873 211.25603 327.01187 211.25603C325.35504 211.25603 324.01187 209.91289 324.01187 208.25603C324.01187 206.59918 325.35504 205.25603 327.01187 205.25603C328.66873 205.25603 330.01187 206.59918 330.01187 208.25603Z" fill-rule="nonzero"/><path fill="#000000" fill-opacity="0.0" clip-path="url(#id_0)" d="M335.00595 199.53339C335.00595 201.19025 333.66278 202.53339 332.00595 202.53339C330.3491 202.53339 329.00595 201.19025 329.00595 199.53339C329.00595 197.87654 330.3491 196.53339 332.00595 196.53339C333.66278 196.53339 335.00595 197.87654 335.00595 199.53339Z" fill-rule="nonzero"/><path fill="#000000" fill-opacity="0.0" clip-path="url(#id_0)" d="M340.0 190.26666C340.0 191.92352 338.65686 193.26666 337.0 193.26666C335.34314 193.26666 334.0 191.92352 334.0 190.26666C334.0 188.60982 335.34314 187.26666 337.0 187.26666C338.65686 187.26666 340.0 188.60982 340.0 190.26666Z" fill-rule="nonzero"/><path fill="#000000" fill-opacity="0.0" clip-path="url(#id_0)" d="M344.99405 180.99994C344.99405 182.6568 343.6509 183.99994 341.99405 183.99994C340.33722 183.99994 338.99405 182.6568 338.99405 180.99994C338.99405 179.3431 340.33722 177.99994 341.99405 177.99994C343.6509 177.99994 344.99405 179.3431 344.99405 180.99994Z" fill-rule="nonzero"/><path fill="#000000" fill-opacity="0.0" clip-path="url(#id_0)" d="M349.98813 172.2773C349.98813 173.93416 348.64496 175.2773 346.98813 175.2773C345.33127 175.2773 343.98813 173.93416 343.98813 172.2773C343.98813 170.62045 345.33127 169.2773 346.98813 169.2773C348.64496 169.2773 349.98813 170.62045 349.98813 172.2773Z" fill-rule="nonzero"/><path fill="#000000" fill-opacity="0.0" clip-path="url(#id_0)" d="M354.98218 164.08403C354.98218 165.74088 353.63904 167.08403 351.98218 167.08403C350.32532 167.08403 348.98218 165.74088 348.98218 164.08403C348.98218 162.42717 350.32532 161.08403 351.98218 161.08403C353.63904 161.08403 354.98218 162.42717 354.98218 164.08403Z" fill-rule="nonzero"/><path fill="#000000" fill-opacity="0.0" clip-path="url(#id_0)" d="M359.97623 156.4054C359.97623 158.06226 358.6331 159.4054 356.97623 159.4054C355.3194 159.4054 353.97623 158.06226 353.97623 156.4054C353.97623 154.74855 355.3194 153.4054 356.97623 153.4054C358.6331 153.4054 359.97623 154.74855 359.97623 156.4054Z" fill-rule="nonzero"/><path fill="#000000" fill-opacity="0.0" clip-path="url(#id_0)" d="M364.9703 149.2267C364.9703 150.88356 363.62714 152.2267 361.9703 152.2267C360.31345 152.2267 358.9703 150.88356 358.9703 149.2267C358.9703 147.56985 360.31345 146.2267 361.9703 146.2267C363.62714 146.2267 364.9703 147.56985 364.9703 149.2267Z" fill-rule="nonzero"/><path fill="#000000" fill-opacity="0.0" clip-path="url(#id_0)" d="M369.96436 142.53323C369.96436 144.19008 368.62122 145.53323 366.96436 145.53323C365.3075 145.53323 363.96436 144.19008 363.96436 142.53323C363.96436 140.87637 365.3075 139.53323 366.96436 139.53323C368.62122 139.53323 369.96436 140.87637 369.96436 142.53323Z" fill-rule="nonzero"/><path fill="#000000" fill-opacity="0.0" clip-path="url(#id_0)" d="M374.9584 136.31024C374.9584 137.9671 373.61526 139.31024 371.9584 139.31024C370.30157 139.31024 368.9584 137.9671 368.9584 136.31024C368.9584 134.6534 370.30157 133.31024 371.9584 133.31024C373.61526 133.31024 374.9584 134.6534 374.9584 136.31024Z" fill-rule="nonzero"/><path fill="#000000" fill-opacity="0.0" clip-path="url(#id_0)" d="M379.95248 130.54305C379.95248 132.1999 378.60934 133.54305 376.95248 133.54305C375.29562 133.54305 373.95248 132.1999 373.95248 130.54305C373.95248 128.88618 375.29562 127.543045 376.95248 127.543045C378.60934 127.543045 379.95248 128.88618 379.95248 130.54305Z" fill-rule="nonzero"/><path fill="#000000" fill-opacity="0.0" clip-path="url(#id_0)" d="M384.94653 125.21691C384.94653 126.873764 383.6034 128.2169 381.94653 128.2169C380.28967 128.2169 378.94653 126.873764 378.94653 125.21691C378.94653 123.56005 380.28967 122.21691 381.94653 122.21691C383.6034 122.21691 384.94653 123.56005 384.94653 125.21691Z" fill-rule="nonzero"/><path fill="#000000" fill-opacity="0.0" clip-path="url(#id_0)" d="M389.94058 120.317116C389.94058 121.973976 388.59744 123.317116 386.94058 123.317116C385.28375 123.317116 383.94058 121.973976 383.94058 120.317116C383.94058 118.66026 385.28375 117.317116 386.94058 117.317116C388.59744 117.317116 389.94058 118.66026 389.94058 120.317116Z" fill-rule="nonzero"/><path fill="#000000" fill-opacity="0.0" clip-path="url(#id_0)" d="M394.93466 115.82896C394.93466 117.48582 393.59152 118.82896 391.93466 118.82896C390.2778 118.82896 388.93466 117.48582 388.93466 115.82896C388.93466 114.172104 390.2778 112.82896 391.93466 112.82896C393.59152 112.82896 394.93466 114.172104 394.93466 115.82896Z" fill-rule="nonzero"/><path fill="#000000" fill-opacity="0.0" clip-path="url(#id_0)" d="M399.9287 111.73771C399.9287 113.39457 398.58557 114.73771 396.9287 114.73771C395.27185 114.73771 393.9287 113.39457 393.9287 111.73771C393.9287 110.08086 395.27185 108.73771 396.9287 108.73771C398.58557 108.73771 399.9287 110.08086 399.9287 111.73771Z" fill-rule="nonzero"/><path fill="#000000" fill-opacity="0.0" clip-path="url(#id_0)" d="M404.92276 108.02866C404.92276 109.68552 403.57962 111.02866 401.92276 111.02866C400.26593 111.02866 398.92276 109.68552 398.92276 108.02866C398.92276 106.3718 400.26593 105.02866 401.92276 105.02866C403.57962 105.02866 404.92276 106.3718 404.92276 108.02866Z" fill-rule="nonzero"/><path fill="#000000" fill-opacity="0.0" clip-path="url(#id_0)" d="M409.91684 104.68709C409.91684 106.34394 408.5737 107.68709 406.91684 107.68709C405.25998 107.68709 403.91684 106.34394 403.91684 104.68709C403.91684 103.030235 405.25998 101.68709 406.91684 101.68709C408.5737 101.68709 409.91684 103.030235 409.91684 104.68709Z" fill-rule="nonzero"/><path fill="#000000" fill-opacity="0.0" clip-path="url(#id_0)" d="M414.9109 101.69827C414.9109 103.35513 413.56775 104.69827 411.9109 104.69827C410.25403 104.69827 408.9109 103.35513 408.9109 101.69827C408.9109 100.04142 410.25403 98.69827 411.9109 98.69827C413.56775 98.69827 414.9109 100.04142 414.9109 101.69827Z" fill-rule="nonzero"/><path fill="#000000" fill-opacity="0.0" clip-path="url(#id_0)" d="M419.90494 99.04751C419.90494 100.70436 418.5618 102.04751 416.90494 102.04751C415.2481 102.04751 413.90494 100.70436 413.90494 99.04751C413.90494 97.390656 415.2481 96.04751 416.90494 96.04751C418.5618 96.04751 419.90494 97.390656 419.90494 99.04751Z" fill-rule="nonzero"/><path fill="#000000" fill-opacity="0.0" clip-path="url(#id_0)" d="M424.89902 96.72007C424.89902 98.37692 423.55588 99.72007 421.89902 99.72007C420.24216 99.72007 418.89902 98.37692 418.89902 96.72007C418.89902 95.06321 420.24216 93.72007 421.89902 93.72007C423.55588 93.72007 424.89902 95.06321 424.89902 96.72007Z" fill-rule="nonzero"/><path fill="#000000" fill-opacity="0.0" clip-path="url(#id_0)" d="M429.89307 94.70123C429.89307 96.35809 428.54993 97.70123 426.89307 97.70123C425.2362 97.70123 423.89307 96.35809 423.89307 94.70123C423.89307 93.04438 425.2362 91.70123 426.89307 91.70123C428.54993 91.70123 429.89307 93.04438 429.89307 94.70123Z" fill-rule="nonzero"/><path fill="#000000" fill-opacity="0.0" clip-path="url(#id_0)" d="M434.88712 92.976295C434.88712 94.633156 433.54398 95.976295 431.88712 95.976295C430.2303 95.976295 428.88712 94.633156 428.88712 92.976295C428.88712 91.31944 430.2303 89.976295 431.88712 89.976295C433.54398 89.976295 434.88712 91.31944 434.88712 92.976295Z" fill-rule="nonzero"/><path fill="#000000" fill-opacity="0.0" clip-path="url(#id_0)" d="M439.8812 91.53054C439.8812 93.18739 438.53806 94.53054 436.8812 94.53054C435.22433 94.53054 433.8812 93.18739 433.8812 91.53054C433.8812 89.87368 435.22433 88.53054 436.8812 88.53054C438.53806 88.53054 439.8812 89.87368 439.8812 91.53054Z" fill-rule="nonzero"/><path fill="#000000" fill-opacity="0.0" clip-path="url(#id_0)" d="M444.87524 90.349236C444.87524 92.00609 443.5321 93.349236 441.87524 93.349236C440.21838 93.349236 438.87524 92.00609 438.87524 90.349236C438.87524 88.69238 440.21838 87.349236 441.87524 87.349236C443.5321 87.349236 444.87524 88.69238 444.87524 90.349236Z" fill-rule="nonzero"/><path fill="#000000" fill-opacity="0.0" clip-path="url(#id_0)" d="M449.8693 89.41767C449.8693 91.07453 448.52615 92.41767 446.8693 92.41767C445.21246 92.41767 443.8693 91.07453 443.8693 89.41767C443.8693 87.76082 445.21246 86.41767 446.8693 86.41767C448.52615 86.41767 449.8693 87.76082 449.8693 89.41767Z" fill-rule="nonzero"/><path fill="#000000" fill-opacity="0.0" clip-path="url(#id_0)" d="M454.86337 88.72114C454.86337 90.37799 453.52023 91.72114 451.86337 91.72114C450.2065 91.72114 448.86337 90.37799 448.86337 88.72114C448.86337 87.064285 450.2065 85.72114 451.86337 85.72114C453.52023 85.72114 454.86337 87.064285 454.86337 88.72114Z" fill-rule="nonzero"/><path fill="#000000" fill-opacity="0.0" clip-path="url(#id_0)" d="M459.85742 88.24491C459.85742 89.901764 458.51428 91.24491 456.85742 91.24491C455.20056 91.24491 453.85742 89.901764 453.85742 88.24491C453.85742 86.58805 455.20056 85.24491 456.85742 85.24491C458.51428 85.24491 459.85742 86.58805 459.85742 88.24491Z" fill-rule="nonzero"/><path fill="#000000" fill-opacity="0.0" clip-path="url(#id_0)" d="M464.85147 87.97427C464.85147 89.63113 463.50833 90.97427 461.85147 90.97427C460.19464 90.97427 458.85147 89.63113 458.85147 87.97427C458.85147 86.31741 460.19464 84.97427 461.85147 84.97427C463.50833 84.97427 464.85147 86.31741 464.85147 87.97427Z" fill-rule="nonzero"/><path fill="#000000" fill-opacity="0.0" clip-path="url(#id_0)" d="M469.84555 87.89451C469.84555 89.55136 468.5024 90.89451 466.84555 90.89451C465.1887 90.89451 463.84555 89.55136 463.84555 87.89451C463.84555 86.23765 465.1887 84.89451 466.84555 84.89451C468.5024 84.89451 469.84555 86.23765 469.84555 87.89451Z" fill-rule="nonzero"/><path fill="#000000" fill-opacity="0.0" clip-path="url(#id_0)" d="M474.8396 87.9909C474.8396 89.64775 473.49646 90.9909 471.8396 90.9909C470.18274 90.9909 468.8396 89.64775 468.8396 87.9909C468.8396 86.334045 470.18274 84.9909 471.8396 84.9909C473.49646 84.9909 474.8396 86.334045 474.8396 87.9909Z" fill-rule="nonzero"/><path fill="#000000" fill-opacity="0.0" clip-path="url(#id_0)" d="M479.83365 88.248726C479.83365 89.90559 478.4905 91.248726 476.83365 91.248726C475.17682 91.248726 473.83365 89.90559 473.83365 88.248726C473.83365 86.59187 475.17682 85.248726 476.83365 85.248726C478.4905 85.248726 479.83365 86.59187 479.83365 88.248726Z" fill-rule="nonzero"/><path fill="#000000" fill-opacity="0.0" clip-path="url(#id_0)" d="M484.82773 88.65328C484.82773 90.310135 483.4846 91.65328 481.82773 91.65328C480.17087 91.65328 478.82773 90.310135 478.82773 88.65328C478.82773 86.99643 480.17087 85.65328 481.82773 85.65328C483.4846 85.65328 484.82773 86.99643 484.82773 88.65328Z" fill-rule="nonzero"/><path fill="#000000" fill-opacity="0.0" clip-path="url(#id_0)" d="M489.82178 89.18984C489.82178 90.846695 488.47864 92.18984 486.82178 92.18984C485.16492 92.18984 483.82178 90.846695 483.82178 89.18984C483.82178 87.53298 485.16492 86.18984 486.82178 86.18984C488.47864 86.18984 489.82178 87.53298 489.82178 89.18984Z" fill-rule="nonzero"/><path fill="#000000" fill-opacity="0.0" clip-path="url(#id_0)" d="M494.81583 89.84369C494.81583 91.50054 493.4727 92.84369 491.81583 92.84369C490.159 92.84369 488.81583 91.50054 488.81583 89.84369C488.81583 88.18683 490.159 86.84369 491.81583 86.84369C493.4727 86.84369 494.81583 88.18683 494.81583 89.84369Z" fill-rule="nonzero"/><path fill="#000000" fill-opacity="0.0" clip-path="url(#id_0)" d="M499.8099 90.600105C499.8099 92.25696 498.46677 93.600105 496.8099 93.600105C495.15305 93.600105 493.8099 92.25696 493.8099 90.600105C493.8099 88.94325 495.15305 87.600105 496.8099 87.600105C498.46677 87.600105 499.8099 88.94325 499.8099 90.600105Z" fill-rule="nonzero"/><path fill="#000000" fill-opacity="0.0" clip-path="url(#id_0)" d="M504.80396 91.444374C504.80396 93.10123 503.46082 94.444374 501.80396 94.444374C500.1471 94.444374 498.80396 93.10123 498.80396 91.444374C498.80396 89.78752 500.1471 88.444374 501.80396 88.444374C503.46082 88.444374 504.80396 89.78752 504.80396 91.444374Z" fill-rule="nonzero"/><path fill="#000000" fill-opacity="0.0" clip-path="url(#id_0)" d="M509.79803 92.361786C509.79803 94.01864 508.45486 95.361786 506.79803 95.361786C505.14117 95.361786 503.79803 94.01864 503.79803 92.361786C503.79803 90.704926 505.14117 89.361786 506.79803 89.361786C508.45486 89.361786 509.79803 90.704926 509.79803 92.361786Z" fill-rule="nonzero"/><path fill="#000000" fill-opacity="0.0" clip-path="url(#id_0)" d="M514.79205 93.33761C514.79205 94.99446 513.4489 96.33761 511.79208 96.33761C510.13522 96.33761 508.79208 94.99446 508.79208 93.33761C508.79208 91.680756 510.13522 90.33761 511.79208 90.33761C513.4489 90.33761 514.79205 91.680756 514.79205 93.33761Z" fill-rule="nonzero"/><path fill="#000000" fill-opacity="0.0" clip-path="url(#id_0)" d="M519.78613 94.35714C519.78613 96.01399 518.443 97.35714 516.78613 97.35714C515.1293 97.35714 513.78613 96.01399 513.78613 94.35714C513.78613 92.70029 515.1293 91.35714 516.78613 91.35714C518.443 91.35714 519.78613 92.70029 519.78613 94.35714Z" fill-rule="nonzero"/><path fill="#000000" fill-opacity="0.0" clip-path="url(#id_0)" d="M524.7802 95.405655C524.7802 97.06251 523.4371 98.405655 521.7802 98.405655C520.12335 98.405655 518.7802 97.06251 518.7802 95.405655C518.7802 93.7488 520.12335 92.405655 521.7802 92.405655C523.4371 92.405655 524.7802 93.7488 524.7802 95.405655Z" fill-rule="nonzero"/><path fill="#000000" fill-opacity="0.0" clip-path="url(#id_0)" d="M529.77423 96.46844C529.77423 98.1253 528.4311 99.46844 526.77423 99.46844C525.11743 99.46844 523.77423 98.1253 523.77423 96.46844C523.77423 94.811584 525.11743 93.46844 526.77423 93.46844C528.4311 93.46844 529.77423 94.811584 529.77423 96.46844Z" fill-rule="nonzero"/><path fill="#000000" fill-opacity="0.0" clip-path="url(#id_0)" d="M534.7683 97.53078C534.7683 99.18763 533.4252 100.53078 531.7683 100.53078C530.11145 100.53078 528.7683 99.18763 528.7683 97.53078C528.7683 95.873924 530.11145 94.53078 531.7683 94.53078C533.4252 94.53078 534.7683 95.873924 534.7683 97.53078Z" fill-rule="nonzero"/><path fill="#000000" fill-opacity="0.0" clip-path="url(#id_0)" d="M539.7624 98.57795C539.7624 100.2348 538.41925 101.57795 536.7624 101.57795C535.1055 101.57795 533.7624 100.2348 533.7624 98.57795C533.7624 96.92109 535.1055 95.57795 536.7624 95.57795C538.41925 95.57795 539.7624 96.92109 539.7624 98.57795Z" fill-rule="nonzero"/><path fill="#000000" fill-opacity="0.0" clip-path="url(#id_0)" d="M544.7564 99.59523C544.7564 101.25209 543.41327 102.59523 541.7564 102.59523C540.0996 102.59523 538.7564 101.25209 538.7564 99.59523C538.7564 97.93838 540.0996 96.59523 541.7564 96.59523C543.41327 96.59523 544.7564 97.93838 544.7564 99.59523Z" fill-rule="nonzero"/><path fill="#000000" fill-opacity="0.0" clip-path="url(#id_0)" d="M549.7505 100.567924C549.7505 102.22478 548.40735 103.567924 546.7505 103.567924C545.0936 103.567924 543.7505 102.22478 543.7505 100.567924C543.7505 98.911064 545.0936 97.567924 546.7505 97.567924C548.40735 97.567924 549.7505 98.911064 549.7505 100.567924Z" fill-rule="nonzero"/><path fill="#000000" fill-opacity="0.0" clip-path="url(#id_0)" d="M554.74457 101.48129C554.74457 103.138145 553.4014 104.48129 551.74457 104.48129C550.0877 104.48129 548.74457 103.138145 548.74457 101.48129C548.74457 99.82444 550.0877 98.48129 551.74457 98.48129C553.4014 98.48129 554.74457 99.82444 554.74457 101.48129Z" fill-rule="nonzero"/><path fill="#000000" fill-opacity="0.0" clip-path="url(#id_0)" d="M559.7386 102.320625C559.7386 103.977486 558.39545 105.320625 556.7386 105.320625C555.0818 105.320625 553.7386 103.977486 553.7386 102.320625C553.7386 100.66377 555.0818 99.320625 556.7386 99.320625C558.39545 99.320625 559.7386 100.66377 559.7386 102.320625Z" fill-rule="nonzero"/><path fill="#000000" fill-opacity="0.0" clip-path="url(#id_0)" d="M564.73267 103.07121C564.73267 104.728065 563.3895 106.07121 561.73267 106.07121C560.0758 106.07121 558.73267 104.728065 558.73267 103.07121C558.73267 101.41436 560.0758 100.07121 561.73267 100.07121C563.3895 100.07121 564.73267 101.41436 564.73267 103.07121Z" fill-rule="nonzero"/><path fill="#000000" fill-opacity="0.0" clip-path="url(#id_0)" d="M569.72675 103.71833C569.72675 105.37518 568.3836 106.71833 566.72675 106.71833C565.0699 106.71833 563.72675 105.37518 563.72675 103.71833C563.72675 102.06148 565.0699 100.71833 566.72675 100.71833C568.3836 100.71833 569.72675 102.06148 569.72675 103.71833Z" fill-rule="nonzero"/><path fill="#000000" fill-opacity="0.0" clip-path="url(#id_0)" d="M574.72076 104.24726C574.72076 105.90412 573.3776 107.24726 571.72076 107.24726C570.06396 107.24726 568.72076 105.90412 568.72076 104.24726C568.72076 102.59041 570.06396 101.24726 571.72076 101.24726C573.3776 101.24726 574.72076 102.59041 574.72076 104.24726Z" fill-rule="nonzero"/><path fill="#000000" fill-opacity="0.0" clip-path="url(#id_0)" d="M579.71484 104.643295C579.71484 106.30015 578.3717 107.643295 576.71484 107.643295C575.058 107.643295 573.71484 106.30015 573.71484 104.643295C573.71484 102.98644 575.058 101.643295 576.71484 101.643295C578.3717 101.643295 579.71484 102.98644 579.71484 104.643295Z" fill-rule="nonzero"/><path fill="#000000" fill-opacity="0.0" clip-path="url(#id_0)" d="M584.7089 104.8917C584.7089 106.54856 583.3658 107.8917 581.7089 107.8917C580.05206 107.8917 578.7089 106.54856 578.7089 104.8917C578.7089 103.23485 580.05206 101.8917 581.7089 101.8917C583.3658 101.8917 584.7089 103.23485 584.7089 104.8917Z" fill-rule="nonzero"/><path fill="#000000" fill-opacity="0.0" clip-path="url(#id_0)" d="M589.70294 104.977776C589.70294 106.63463 588.3598 107.977776 586.70294 107.977776C585.04614 107.977776 583.70294 106.63463 583.70294 104.977776C583.70294 103.32092 585.04614 101.977776 586.70294 101.977776C588.3598 101.977776 589.70294 103.32092 589.70294 104.977776Z" fill-rule="nonzero"/><path fill="#000000" d="M338.59375 353.2625L338.75 354.1844Q338.29688 354.27814 337.95312 354.27814Q337.375 354.27814 337.0625 354.10626Q336.75 353.91876 336.60938 353.6219Q336.48438 353.325 336.48438 352.3719L336.48438 348.79376L335.71875 348.79376L335.71875 347.98126L336.48438 347.98126L336.48438 346.4344L337.53125 345.8094L337.53125 347.98126L338.59375 347.98126L338.59375 348.79376L337.53125 348.79376L337.53125 352.4344Q337.53125 352.8875 337.57812 353.0125Q337.64062 353.1375 337.76562 353.21564Q337.89062 353.29376 338.125 353.29376Q338.3125 353.29376 338.59375 353.2625Z" fill-rule="nonzero"/><path fill="#000000" d="M29.800013 192.67291L26.565638 190.40729L23.581263 192.50104L23.581263 191.18854L25.034388 190.23541Q25.456263 189.96979 25.737513 189.79791Q25.346888 189.54791 25.050013 189.32916L23.581263 188.28229L23.581263 187.01666L26.503138 189.17291L29.800013 186.86041L29.800013 188.14166L27.862513 189.42291L27.346888 189.76666L29.800013 191.40729L29.800013 192.67291Z" fill-rule="nonzero"/><path fill="#000000" d="M51.175 319.6219L51.175 318.5594L54.425 318.5594L54.425 319.6219L51.175 319.6219ZM55.3 317.96564Q55.3 316.4344 55.6125 315.5125Q55.925 314.575 56.534374 314.075Q57.159374 313.575 58.096874 313.575Q58.784374 313.575 59.3 313.85626Q59.83125 314.1375 60.175 314.66876Q60.51875 315.1844 60.70625 315.9344Q60.89375 316.6844 60.89375 317.96564Q60.89375 319.48126 60.58125 320.40314Q60.284374 321.325 59.659374 321.84064Q59.05 322.34064 58.096874 322.34064Q56.8625 322.34064 56.14375 321.45Q55.3 320.3875 55.3 317.96564ZM56.378124 317.96564Q56.378124 320.075 56.878124 320.77814Q57.378124 321.48126 58.096874 321.48126Q58.83125 321.48126 59.315624 320.77814Q59.815624 320.075 59.815624 317.96564Q59.815624 315.84064 59.315624 315.15314Q58.83125 314.45 58.08125 314.45Q57.3625 314.45 56.925 315.0594Q56.378124 315.84064 56.378124 317.96564ZM62.89375 322.2L62.89375 320.9969L64.09688 320.9969L64.09688 322.2L62.89375 322.2ZM70.84688 321.1844L70.84688 322.2L65.15938 322.2Q65.15938 321.825 65.28438 321.46564Q65.50313 320.8875 65.97188 320.325Q66.45625 319.7625 67.3625 319.02814Q68.76875 317.8719 69.25313 317.2Q69.75313 316.52814 69.75313 315.9344Q69.75313 315.3094 69.3 314.8875Q68.84688 314.45 68.12813 314.45Q67.3625 314.45 66.90938 314.90314Q66.45625 315.35626 66.44063 316.16876L65.3625 316.0594Q65.47188 314.84064 66.19063 314.21564Q66.925 313.575 68.15938 313.575Q69.39375 313.575 70.1125 314.2625Q70.83125 314.95 70.83125 315.96564Q70.83125 316.48126 70.6125 316.98126Q70.40938 317.46564 69.90938 318.02814Q69.425 318.575 68.3 319.52814Q67.34688 320.325 67.06563 320.6219Q66.8 320.90314 66.62813 321.1844L70.84688 321.1844ZM72.3 319.95L73.40938 319.85626Q73.53438 320.66876 73.97188 321.075Q74.425 321.48126 75.06563 321.48126Q75.81563 321.48126 76.34688 320.90314Q76.87813 320.325 76.87813 319.3875Q76.87813 318.48126 76.3625 317.96564Q75.8625 317.4344 75.03438 317.4344Q74.53438 317.4344 74.1125 317.66876Q73.70625 317.90314 73.47188 318.2625L72.4875 318.1375L73.31563 313.73126L77.59688 313.73126L77.59688 314.73126L74.15938 314.73126L73.70625 317.04376Q74.47188 316.4969 75.31563 316.4969Q76.44063 316.4969 77.20625 317.27814Q77.9875 318.0594 77.9875 319.29376Q77.9875 320.45 77.31563 321.3094Q76.4875 322.34064 75.06563 322.34064Q73.89375 322.34064 73.14375 321.6844Q72.40938 321.02814 72.3 319.95Z" fill-rule="nonzero"/><path fill="#000000" d="M55.3 232.67674Q55.3 231.1455 55.6125 230.22362Q55.925 229.28612 56.534374 228.78612Q57.159374 228.28612 58.096874 228.28612Q58.784374 228.28612 59.3 228.56737Q59.83125 228.84862 60.175 229.37987Q60.51875 229.8955 60.70625 230.6455Q60.89375 231.3955 60.89375 232.67674Q60.89375 234.19237 60.58125 235.11424Q60.284374 236.03612 59.659374 236.55174Q59.05 237.05174 58.096874 237.05174Q56.8625 237.05174 56.14375 236.16112Q55.3 235.09862 55.3 232.67674ZM56.378124 232.67674Q56.378124 234.78612 56.878124 235.48924Q57.378124 236.19237 58.096874 236.19237Q58.83125 236.19237 59.315624 235.48924Q59.815624 234.78612 59.815624 232.67674Q59.815624 230.55174 59.315624 229.86424Q58.83125 229.16112 58.08125 229.16112Q57.3625 229.16112 56.925 229.7705Q56.378124 230.55174 56.378124 232.67674ZM62.89375 236.91112L62.89375 235.708L64.09688 235.708L64.09688 236.91112L62.89375 236.91112ZM70.84688 235.8955L70.84688 236.91112L65.15938 236.91112Q65.15938 236.53612 65.28438 236.17674Q65.50313 235.59862 65.97188 235.03612Q66.45625 234.47362 67.3625 233.73924Q68.76875 232.583 69.25313 231.91112Q69.75313 231.23924 69.75313 230.6455Q69.75313 230.0205 69.3 229.59862Q68.84688 229.16112 68.12813 229.16112Q67.3625 229.16112 66.90938 229.61424Q66.45625 230.06737 66.44063 230.87987L65.3625 230.7705Q65.47188 229.55174 66.19063 228.92674Q66.925 228.28612 68.15938 228.28612Q69.39375 228.28612 70.1125 228.97362Q70.83125 229.66112 70.83125 230.67674Q70.83125 231.19237 70.6125 231.69237Q70.40938 232.17674 69.90938 232.73924Q69.425 233.28612 68.3 234.23924Q67.34688 235.03612 67.06563 235.333Q66.8 235.61424 66.62813 235.8955L70.84688 235.8955ZM72.3 234.66112L73.40938 234.56737Q73.53438 235.37987 73.97188 235.78612Q74.425 236.19237 75.06563 236.19237Q75.81563 236.19237 76.34688 235.61424Q76.87813 235.03612 76.87813 234.09862Q76.87813 233.19237 76.3625 232.67674Q75.8625 232.1455 75.03438 232.1455Q74.53438 232.1455 74.1125 232.37987Q73.70625 232.61424 73.47188 232.97362L72.4875 232.84862L73.31563 228.44237L77.59688 228.44237L77.59688 229.44237L74.15938 229.44237L73.70625 231.75487Q74.47188 231.208 75.31563 231.208Q76.44063 231.208 77.20625 231.98924Q77.9875 232.7705 77.9875 234.00487Q77.9875 235.16112 77.31563 236.0205Q76.4875 237.05174 75.06563 237.05174Q73.89375 237.05174 73.14375 236.3955Q72.40938 235.73924 72.3 234.66112Z" fill-rule="nonzero"/><path fill="#000000" d="M55.3 147.38785Q55.3 145.8566 55.6125 144.93472Q55.925 143.99722 56.534374 143.49722Q57.159374 142.99722 58.096874 142.99722Q58.784374 142.99722 59.3 143.27847Q59.83125 143.55972 60.175 144.09097Q60.51875 144.6066 60.70625 145.3566Q60.89375 146.1066 60.89375 147.38785Q60.89375 148.90347 60.58125 149.82535Q60.284374 150.74722 59.659374 151.26285Q59.05 151.76285 58.096874 151.76285Q56.8625 151.76285 56.14375 150.87222Q55.3 149.80972 55.3 147.38785ZM56.378124 147.38785Q56.378124 149.49722 56.878124 150.20035Q57.378124 150.90347 58.096874 150.90347Q58.83125 150.90347 59.315624 150.20035Q59.815624 149.49722 59.815624 147.38785Q59.815624 145.26285 59.315624 144.57535Q58.83125 143.87222 58.08125 143.87222Q57.3625 143.87222 56.925 144.4816Q56.378124 145.26285 56.378124 147.38785ZM62.89375 151.62222L62.89375 150.4191L64.09688 150.4191L64.09688 151.62222L62.89375 151.62222ZM65.3625 144.15347L65.3625 143.13785L70.925 143.13785L70.925 143.96597Q70.1125 144.84097 69.3 146.2941Q68.50313 147.7316 68.06563 149.26285Q67.7375 150.34097 67.65938 151.62222L66.56563 151.62222Q66.58125 150.6066 66.95625 149.1691Q67.34688 147.7316 68.05 146.40347Q68.76875 145.07535 69.58125 144.15347L65.3625 144.15347ZM72.3 149.37222L73.40938 149.27847Q73.53438 150.09097 73.97188 150.49722Q74.425 150.90347 75.06563 150.90347Q75.81563 150.90347 76.34688 150.32535Q76.87813 149.74722 76.87813 148.80972Q76.87813 147.90347 76.3625 147.38785Q75.8625 146.8566 75.03438 146.8566Q74.53438 146.8566 74.1125 147.09097Q73.70625 147.32535 73.47188 147.68472L72.4875 147.55972L73.31563 143.15347L77.59688 143.15347L77.59688 144.15347L74.15938 144.15347L73.70625 146.46597Q74.47188 145.9191 75.31563 145.9191Q76.44063 145.9191 77.20625 146.70035Q77.9875 147.4816 77.9875 148.71597Q77.9875 149.87222 77.31563 150.7316Q76.4875 151.76285 75.06563 151.76285Q73.89375 151.76285 73.14375 151.1066Q72.40938 150.45035 72.3 149.37222Z" fill-rule="nonzero"/><path fill="#000000" d="M59.26875 66.333336L58.221874 66.333336L58.221874 59.614586Q57.83125 59.97396 57.20625 60.34896Q56.596874 60.708336 56.1125 60.88021L56.1125 59.864586Q56.9875 59.44271 57.64375 58.864586Q58.315624 58.270836 58.596874 57.708336L59.26875 57.708336L59.26875 66.333336ZM62.89375 66.333336L62.89375 65.13021L64.09688 65.13021L64.09688 66.333336L62.89375 66.333336ZM70.84688 65.31771L70.84688 66.333336L65.15938 66.333336Q65.15938 65.958336 65.28438 65.59896Q65.50313 65.020836 65.97188 64.458336Q66.45625 63.895836 67.3625 63.16146Q68.76875 62.00521 69.25313 61.333336Q69.75313 60.66146 69.75313 60.06771Q69.75313 59.44271 69.3 59.020836Q68.84688 58.583336 68.12813 58.583336Q67.3625 58.583336 66.90938 59.03646Q66.45625 59.489586 66.44063 60.302086L65.3625 60.19271Q65.47188 58.97396 66.19063 58.34896Q66.925 57.708336 68.15938 57.708336Q69.39375 57.708336 70.1125 58.395836Q70.83125 59.083336 70.83125 60.09896Q70.83125 60.614586 70.6125 61.114586Q70.40938 61.59896 69.90938 62.16146Q69.425 62.708336 68.3 63.66146Q67.34688 64.458336 67.06563 64.75521Q66.8 65.03646 66.62813 65.31771L70.84688 65.31771ZM72.3 64.083336L73.40938 63.989586Q73.53438 64.802086 73.97188 65.208336Q74.425 65.614586 75.06563 65.614586Q75.81563 65.614586 76.34688 65.03646Q76.87813 64.458336 76.87813 63.520836Q76.87813 62.614586 76.3625 62.09896Q75.8625 61.56771 75.03438 61.56771Q74.53438 61.56771 74.1125 61.802086Q73.70625 62.03646 73.47188 62.395836L72.4875 62.270836L73.31563 57.864586L77.59688 57.864586L77.59688 58.864586L74.15938 58.864586L73.70625 61.177086Q74.47188 60.63021 75.31563 60.63021Q76.44063 60.63021 77.20625 61.41146Q77.9875 62.19271 77.9875 63.427086Q77.9875 64.583336 77.31563 65.44271Q76.4875 66.47396 75.06563 66.47396Q73.89375 66.47396 73.14375 65.81771Q72.40938 65.16146 72.3 64.083336Z" fill-rule="nonzero"/><path fill="#757575" d="M20.378124 37.8L20.378124 23.4875L30.7375 23.4875L30.7375 25.175L22.284374 25.175L22.284374 29.55L30.190624 29.55L30.190624 31.2375L22.284374 31.2375L22.284374 36.1125L31.065624 36.1125L31.065624 37.8L20.378124 37.8ZM39.89375 36.51875Q38.909374 37.346874 38.003124 37.690624Q37.096874 38.034374 36.065624 38.034374Q34.3625 38.034374 33.440624 37.20625Q32.51875 36.3625 32.51875 35.065624Q32.51875 34.3 32.8625 33.675Q33.221874 33.05 33.784374 32.675Q34.346874 32.284374 35.05 32.08125Q35.565624 31.95625 36.6125 31.815624Q38.7375 31.565624 39.7375 31.221874Q39.753124 30.8625 39.753124 30.753124Q39.753124 29.690624 39.253124 29.2375Q38.58125 28.64375 37.253124 28.64375Q36.003124 28.64375 35.409374 29.08125Q34.83125 29.51875 34.55 30.628124L32.83125 30.39375Q33.065624 29.284374 33.596874 28.6125Q34.128124 27.925 35.14375 27.565624Q36.159374 27.190624 37.503124 27.190624Q38.83125 27.190624 39.659374 27.503124Q40.4875 27.815624 40.878124 28.3Q41.26875 28.76875 41.425 29.4875Q41.51875 29.940624 41.51875 31.1125L41.51875 33.45625Q41.51875 35.909374 41.628124 36.565624Q41.7375 37.20625 42.08125 37.8L40.2375 37.8Q39.971874 37.253124 39.89375 36.51875ZM39.7375 32.596874Q38.784374 32.9875 36.8625 33.253124Q35.784374 33.409374 35.33125 33.6125Q34.89375 33.8 34.64375 34.175Q34.39375 34.55 34.39375 35.01875Q34.39375 35.721874 34.925 36.190624Q35.45625 36.659374 36.4875 36.659374Q37.503124 36.659374 38.284374 36.221874Q39.08125 35.76875 39.45625 35.003124Q39.7375 34.39375 39.7375 33.2375L39.7375 32.596874ZM43.409374 34.70625L45.159374 34.425Q45.3 35.471874 45.971874 36.034374Q46.64375 36.58125 47.846874 36.58125Q49.05 36.58125 49.628124 36.096874Q50.221874 35.596874 50.221874 34.940624Q50.221874 34.346874 49.70625 34.003124Q49.346874 33.76875 47.909374 33.409374Q45.971874 32.909374 45.221874 32.565624Q44.4875 32.20625 44.096874 31.58125Q43.70625 30.940624 43.70625 30.175Q43.70625 29.4875 44.01875 28.89375Q44.346874 28.3 44.89375 27.909374Q45.3 27.6125 46.003124 27.409374Q46.721874 27.190624 47.534374 27.190624Q48.753124 27.190624 49.675 27.55Q50.596874 27.89375 51.034374 28.503124Q51.471874 29.096874 51.64375 30.096874L49.925 30.33125Q49.8 29.534374 49.2375 29.096874Q48.675 28.64375 47.659374 28.64375Q46.440624 28.64375 45.925 29.05Q45.409374 29.440624 45.409374 29.971874Q45.409374 30.315624 45.628124 30.596874Q45.83125 30.878124 46.3 31.065624Q46.565624 31.159374 47.846874 31.503124Q49.721874 32.003124 50.45625 32.33125Q51.190624 32.64375 51.6125 33.253124Q52.034374 33.846874 52.034374 34.753124Q52.034374 35.628124 51.51875 36.409374Q51.003124 37.190624 50.034374 37.6125Q49.065624 38.034374 47.846874 38.034374Q45.83125 38.034374 44.76875 37.190624Q43.70625 36.346874 43.409374 34.70625ZM61.221874 34.45625L63.034374 34.690624Q62.6125 36.26875 61.440624 37.159374Q60.284374 38.034374 58.471874 38.034374Q56.20625 38.034374 54.8625 36.64375Q53.534374 35.2375 53.534374 32.70625Q53.534374 30.08125 54.878124 28.64375Q56.221874 27.190624 58.378124 27.190624Q60.45625 27.190624 61.76875 28.6125Q63.096874 30.01875 63.096874 32.596874Q63.096874 32.753124 63.08125 33.065624L55.346874 33.065624Q55.440624 34.76875 56.315624 35.675Q57.190624 36.58125 58.4875 36.58125Q59.45625 36.58125 60.128124 36.08125Q60.815624 35.565624 61.221874 34.45625ZM55.440624 31.6125L61.2375 31.6125Q61.128124 30.315624 60.58125 29.659374Q59.7375 28.64375 58.39375 28.64375Q57.190624 28.64375 56.3625 29.45625Q55.534374 30.253124 55.440624 31.6125ZM65.65938 37.8L65.65938 23.4875L67.56563 23.4875L67.56563 37.8L65.65938 37.8ZM71.1125 37.8L71.1125 27.425L72.70625 27.425L72.70625 28.909374Q73.84688 27.190624 76.00313 27.190624Q76.94063 27.190624 77.72188 27.534374Q78.51875 27.8625 78.90938 28.409374Q79.3 28.95625 79.45625 29.70625Q79.55 30.20625 79.55 31.425L79.55 37.8L77.78438 37.8L77.78438 31.4875Q77.78438 30.409374 77.58125 29.878124Q77.37813 29.346874 76.84688 29.034374Q76.33125 28.721874 75.62813 28.721874Q74.50313 28.721874 73.69063 29.440624Q72.87813 30.14375 72.87813 32.128124L72.87813 37.8L71.1125 37.8ZM80.76875 30.83125Q80.76875 27.26875 82.675 25.253124Q84.59688 23.221874 87.62813 23.221874Q89.6125 23.221874 91.19063 24.175Q92.78438 25.128124 93.6125 26.83125Q94.45625 28.51875 94.45625 30.659374Q94.45625 32.83125 93.58125 34.55Q92.70625 36.26875 91.08125 37.159374Q89.47188 38.05 87.6125 38.05Q85.59688 38.05 84.00313 37.08125Q82.40938 36.096874 81.58125 34.409374Q80.76875 32.70625 80.76875 30.83125ZM82.72188 30.8625Q82.72188 33.440624 84.1125 34.940624Q85.50313 36.425 87.59688 36.425Q89.7375 36.425 91.1125 34.925Q92.50313 33.409374 92.50313 30.64375Q92.50313 28.909374 91.90938 27.6125Q91.33125 26.3 90.19063 25.58125Q89.05 24.8625 87.62813 24.8625Q85.62813 24.8625 84.175 26.253124Q82.72188 27.628124 82.72188 30.8625ZM103.90938 37.8L103.90938 36.26875Q102.70625 38.034374 100.62813 38.034374Q99.70625 38.034374 98.90938 37.690624Q98.1125 37.33125 97.72188 36.8Q97.34688 36.26875 97.19063 35.4875Q97.08125 34.971874 97.08125 33.846874L97.08125 27.425L98.83125 27.425L98.83125 33.175Q98.83125 34.55 98.94063 35.034374Q99.1125 35.721874 99.64375 36.128124Q100.19063 36.51875 100.97188 36.51875Q101.76875 36.51875 102.45625 36.1125Q103.15938 35.70625 103.44063 35.01875Q103.7375 34.315624 103.7375 32.9875L103.7375 27.425L105.4875 27.425L105.4875 37.8L103.90938 37.8ZM110.95625 36.221874L111.20625 37.784374Q110.47188 37.940624 109.87813 37.940624Q108.925 37.940624 108.39375 37.64375Q107.87813 37.33125 107.65938 36.846874Q107.44063 36.346874 107.44063 34.76875L107.44063 28.8L106.15938 28.8L106.15938 27.425L107.44063 27.425L107.44063 24.8625L109.19063 23.8L109.19063 27.425L110.95625 27.425L110.95625 28.8L109.19063 28.8L109.19063 34.8625Q109.19063 35.6125 109.28438 35.83125Q109.37813 36.034374 109.58125 36.175Q109.8 36.3 110.19063 36.3Q110.47188 36.3 110.95625 36.221874ZM113.26875 37.8L113.26875 23.4875L118.64375 23.4875Q120.28438 23.4875 121.26875 23.925Q122.25313 24.346874 122.81563 25.253124Q123.37813 26.159374 123.37813 27.14375Q123.37813 28.065624 122.87813 28.878124Q122.39375 29.690624 121.37813 30.175Q122.675 30.565624 123.37813 31.4875Q124.08125 32.39375 124.08125 33.64375Q124.08125 34.659374 123.64375 35.51875Q123.22188 36.378124 122.59688 36.846874Q121.97188 37.315624 121.03438 37.565624Q120.09688 37.8 118.72188 37.8L113.26875 37.8ZM115.15938 29.503124L118.25313 29.503124Q119.51875 29.503124 120.06563 29.33125Q120.78438 29.1125 121.14375 28.628124Q121.51875 28.128124 121.51875 27.3625Q121.51875 26.659374 121.175 26.1125Q120.83125 25.565624 120.19063 25.378124Q119.56563 25.175 118.01875 25.175L115.15938 25.175L115.15938 29.503124ZM115.15938 36.1125L118.72188 36.1125Q119.64375 36.1125 120.01875 36.034374Q120.675 35.925 121.1125 35.659374Q121.55 35.378124 121.83125 34.8625Q122.1125 34.33125 122.1125 33.64375Q122.1125 32.846874 121.70625 32.253124Q121.3 31.659374 120.56563 31.425Q119.83125 31.190624 118.47188 31.190624L115.15938 31.190624L115.15938 36.1125ZM132.89375 36.51875Q131.90938 37.346874 131.00313 37.690624Q130.09688 38.034374 129.06563 38.034374Q127.3625 38.034374 126.44063 37.20625Q125.51875 36.3625 125.51875 35.065624Q125.51875 34.3 125.8625 33.675Q126.22188 33.05 126.78438 32.675Q127.34688 32.284374 128.05 32.08125Q128.56563 31.95625 129.6125 31.815624Q131.7375 31.565624 132.7375 31.221874Q132.75313 30.8625 132.75313 30.753124Q132.75313 29.690624 132.25313 29.2375Q131.58125 28.64375 130.25313 28.64375Q129.00313 28.64375 128.40938 29.08125Q127.83125 29.51875 127.55 30.628124L125.83125 30.39375Q126.06563 29.284374 126.59688 28.6125Q127.12813 27.925 128.14375 27.565624Q129.15938 27.190624 130.50313 27.190624Q131.83125 27.190624 132.65938 27.503124Q133.4875 27.815624 133.87813 28.3Q134.26875 28.76875 134.425 29.4875Q134.51875 29.940624 134.51875 31.1125L134.51875 33.45625Q134.51875 35.909374 134.62813 36.565624Q134.7375 37.20625 135.08125 37.8L133.2375 37.8Q132.97188 37.253124 132.89375 36.51875ZM132.7375 32.596874Q131.78438 32.9875 129.8625 33.253124Q128.78438 33.409374 128.33125 33.6125Q127.89375 33.8 127.64375 34.175Q127.39375 34.55 127.39375 35.01875Q127.39375 35.721874 127.925 36.190624Q128.45625 36.659374 129.4875 36.659374Q130.50313 36.659374 131.28438 36.221874Q132.08125 35.76875 132.45625 35.003124Q132.7375 34.39375 132.7375 33.2375L132.7375 32.596874ZM143.89375 34.003124L145.6125 34.221874Q145.33125 36.01875 144.15938 37.034374Q143.00313 38.034374 141.3 38.034374Q139.175 38.034374 137.87813 36.64375Q136.58125 35.253124 136.58125 32.659374Q136.58125 30.971874 137.12813 29.721874Q137.69063 28.45625 138.83125 27.83125Q139.97188 27.190624 141.31563 27.190624Q143.00313 27.190624 144.06563 28.05Q145.14375 28.909374 145.45625 30.471874L143.7375 30.7375Q143.50313 29.690624 142.87813 29.175Q142.25313 28.64375 141.37813 28.64375Q140.05 28.64375 139.22188 29.596874Q138.39375 30.55 138.39375 32.596874Q138.39375 34.690624 139.19063 35.64375Q139.9875 36.58125 141.28438 36.58125Q142.31563 36.58125 143.00313 35.95625Q143.70625 35.315624 143.89375 34.003124ZM147.12813 37.8L147.12813 23.4875L148.89375 23.4875L148.89375 31.64375L153.05 27.425L155.31563 27.425L151.3625 31.26875L155.72188 37.8L153.55 37.8L150.12813 32.503124L148.89375 33.690624L148.89375 37.8L147.12813 37.8Z" fill-rule="nonzero"/></svg>