<svg version="1.1" viewBox="0.0 0.0 608.0 376.0" fill="none" stroke="none" stroke-linecap="square" stroke-miterlimit="10" width="608" height="376" xmlns:xlink="http://www.w3.org/1999/xlink" xmlns="http://www.w3.org/2000/svg"><path fill="#ffffff" d="M0 0L608.0 0L608.0 376.0L0 376.0L0 0Z" fill-rule="nonzero"/><path stroke="#333333" stroke-width="1.0" stroke-linecap="butt" d="M80.5 318.5L589.5 318.5" fill-rule="nonzero"/><path stroke="#cccccc" stroke-width="1.0" stroke-linecap="butt" d="M80.5 254.5L589.5 254.5" fill-rule="nonzero"/><path stroke="#cccccc" stroke-width="1.0" stroke-linecap="butt" d="M80.5 190.5L589.5 190.5" fill-rule="nonzero"/><path stroke="#cccccc" stroke-width="1.0" stroke-linecap="butt" d="M80.5 126.5L589.5 126.5" fill-rule="nonzero"/><path stroke="#cccccc" stroke-width="1.0" stroke-linecap="butt" d="M80.5 62.5L589.5 62.5" fill-rule="nonzero"/><path stroke="#000000" stroke-width="1.0" stroke-linecap="butt" d="M80.5 318.5L80.5 62.5" fill-rule="nonzero"/><clipPath id="id_0"><path d="M80.8 62.333332L589.2 62.333332L589.2 318.2L80.8 318.2L80.8 62.333332Z" clip-rule="nonzero"/></clipPath><path stroke="#4285f4" stroke-width="2.0" stroke-linecap="butt" clip-path="url(#id_0)" d="M83.31683 318.2C83.31683 318.2 86.67261 317.98004 88.350494 317.9322C90.02838 317.88437 91.70627 317.91962 93.384155 317.91296C95.06205 317.90634 96.73994 317.89948 98.41782 317.89236C100.09571 317.88525 101.7736 317.87793 103.451485 317.8703C105.12937 317.86267 106.80726 317.8548 108.485146 317.84662C110.16303 317.83847 111.84093 317.83002 113.518814 317.82126C115.1967 317.8125 116.87459 317.80347 118.552475 317.7941C120.23036 317.7847 121.90825 317.77502 123.586136 317.76495C125.26402 317.75488 126.94192 317.7445 128.6198 317.73373C130.29768 317.72293 131.97557 317.71182 133.65347 317.70026C135.33136 317.6887 137.00925 317.6768 138.68713 317.6644C140.36502 317.652 142.04291 317.63922 143.7208 317.62595C145.39868 317.61267 147.07657 317.59897 148.75446 317.58475C150.43234 317.57053 152.11023 317.55585 153.78812 317.5406C155.466 317.52533 157.14389 317.5096 158.82178 317.49326C160.49966 317.47693 162.17755 317.46005 163.85544 317.44254C165.53334 317.42502 167.21123 317.40695 168.88911 317.38818C170.567 317.3694 172.24489 317.35004 173.92278 317.3299C175.60066 317.30978 177.27855 317.289 178.95644 317.26746C180.63432 317.24588 182.31221 317.22363 183.9901 317.20053C185.66798 317.1774 187.34587 317.15356 189.02376 317.12878C190.70164 317.104 192.37953 317.07846 194.05742 317.0519C195.73532 317.02536 197.41321 316.99796 199.0911 316.96948C200.76898 316.94104 202.44687 316.91168 204.12476 316.88116C205.80264 316.85068 207.48053 316.8192 209.15842 316.78653C210.8363 316.75385 212.51419 316.7201 214.19208 316.68506C215.86996 316.65005 217.54785 316.6139 219.22574 316.57635C220.90363 316.5388 222.58151 316.50003 224.2594 316.4598C225.93729 316.41956 227.61519 316.37802 229.29308 316.3349C230.97096 316.29178 232.64885 316.24725 234.32674 316.20105C236.00462 316.15482 237.68251 316.10712 239.3604 316.05756C241.03828 316.00803 242.71617 315.9569 244.39406 315.9038C246.07195 315.8507 247.74983 315.7959 249.42772 315.73898C251.1056 315.6821 252.7835 315.62335 254.46138 315.56235C256.13928 315.50137 257.81717 315.43842 259.49506 315.37305C261.17294 315.30768 262.85083 315.2402 264.52872 315.17014C266.2066 315.1001 267.8845 315.02777 269.56238 314.9527C271.24026 314.8776 272.91815 314.80008 274.59604 314.7196C276.27393 314.63913 277.9518 314.55606 279.6297 314.46982C281.3076 314.38354 282.98547 314.29453 284.66336 314.2021C286.34125 314.10965 288.01913 314.01422 289.69702 313.91513C291.3749 313.81607 293.0528 313.7138 294.73068 313.6076C296.40857 313.5014 298.08646 313.3918 299.76434 313.27798C301.44223 313.16418 303.12012 313.0467 304.79803 312.9247C306.47592 312.80273 308.1538 312.67682 309.8317 312.54608C311.50958 312.41534 313.18747 312.28043 314.86536 312.1403C316.54324 312.00018 318.22113 311.85553 319.89902 311.70535C321.5769 311.55518 323.2548 311.40018 324.93268 311.23923C326.61057 311.07828 328.28845 310.91214 329.96634 310.73962C331.64423 310.5671 333.3221 310.38907 335.0 310.20416C336.6779 310.0193 338.35577 309.82843 340.03366 309.63028C341.71155 309.43213 343.38943 309.22757 345.06732 309.0152C346.7452 308.80283 348.4231 308.5836 350.10098 308.356C351.77887 308.12836 353.45676 307.8934 355.13464 307.64944C356.81253 307.40546 358.49042 307.15366 360.1683 306.89218C361.8462 306.6307 363.52408 306.36084 365.20197 306.0806C366.87988 305.80035 368.55777 305.51108 370.23566 305.21072C371.91354 304.91037 373.59143 304.60037 375.26932 304.27844C376.9472 303.95654 378.6251 303.62427 380.30298 303.27924C381.98087 302.93423 383.65875 302.57812 385.33664 302.20834C387.01453 301.83856 388.6924 301.45688 390.3703 301.06055C392.0482 300.66425 393.72607 300.25516 395.40396 299.8304C397.08185 299.40564 398.75974 298.9672 400.43762 298.51196C402.1155 298.0567 403.7934 297.5868 405.47128 297.09888C407.14917 296.61093 408.82706 296.10733 410.50494 295.58438C412.18283 295.06143 413.86072 294.52164 415.5386 293.96115C417.2165 293.4007 418.89438 292.82217 420.57227 292.22147C422.25015 291.62076 423.92804 291.00073 425.60593 290.3569C427.2838 289.71307 428.96173 289.04852 430.63962 288.3585C432.3175 287.66846 433.9954 286.95624 435.67328 286.21667C437.35117 285.4771 439.02905 284.71375 440.70694 283.9211C442.38483 283.12848 444.0627 282.31033 445.7406 281.4608C447.4185 280.61127 449.09637 279.7344 450.77426 278.82388C452.45215 277.9134 454.13004 276.9736 455.80792 275.99774C457.4858 275.02188 459.1637 274.01465 460.84158 272.96875C462.51947 271.92282 464.19736 270.8433 465.87524 269.72232C467.55313 268.60135 469.23102 267.44434 470.9089 266.24292C472.5868 265.0415 474.26468 263.80145 475.94257 262.5138C477.62045 261.22614 479.29834 259.89706 480.97623 258.517C482.6541 257.1369 484.332 255.71246 486.0099 254.23334C487.68777 252.75421 489.36566 251.22751 491.04358 249.64223C492.72147 248.05693 494.39935 246.42067 496.07724 244.72159C497.75513 243.02252 499.433 241.26881 501.1109 239.4478C502.7888 237.62677 504.46667 235.7472 506.14456 233.79547C507.82245 231.84375 509.50034 229.82927 511.17822 227.73747C512.8561 225.64568 514.534 223.4866 516.21185 221.24466C517.8898 219.00273 519.5676 216.68869 521.24554 214.28584C522.92346 211.883 524.6013 209.40288 526.27924 206.82756C527.9571 204.25226 529.635 201.59413 531.31287 198.83398C532.9908 196.07382 534.66864 193.22491 536.34656 190.26666C538.0244 187.30841 539.70233 184.25502 541.3802 181.08444C543.0581 177.91386 544.73596 174.64133 546.4139 171.2432C548.09174 167.84505 549.76965 164.33763 551.4475 160.69559C553.1254 157.05356 554.8033 153.2944 556.4812 149.39096C558.15906 145.48752 559.837 141.45854 561.51483 137.27495C563.19275 133.09134 564.8706 128.77321 566.5485 124.28933C568.2264 119.80545 569.9043 115.17738 571.58215 110.37169C573.2601 105.56599 574.9379 100.60575 576.61584 95.45513C578.2937 90.304504 579.9716 84.98826 581.6495 79.46796C583.3274 73.94766 586.68317 62.333332 586.68317 62.333332" fill-rule="nonzero"/><path fill="#000000" fill-opacity="0.0" clip-path="url(#id_0)" d="M86.31683 318.2C86.31683 319.85684 84.97369 321.2 83.31683 321.2C81.65998 321.2 80.31683 319.85684 80.31683 318.2C80.31683 316.54315 81.65998 315.2 83.31683 315.2C84.97369 315.2 86.31683 316.54315 86.31683 318.2Z" fill-rule="nonzero"/><path fill="#000000" fill-opacity="0.0" clip-path="url(#id_0)" d="M91.350494 317.9322C91.350494 319.58905 90.00735 320.9322 88.350494 320.9322C86.69364 320.9322 85.350494 319.58905 85.350494 317.9322C85.350494 316.27533 86.69364 314.9322 88.350494 314.9322C90.00735 314.9322 91.350494 316.27533 91.350494 317.9322Z" fill-rule="nonzero"/><path fill="#000000" fill-opacity="0.0" clip-path="url(#id_0)" d="M96.384155 317.91296C96.384155 319.56982 95.041016 320.91296 93.384155 320.91296C91.7273 320.91296 90.384155 319.56982 90.384155 317.91296C90.384155 316.25613 91.7273 314.91296 93.384155 314.91296C95.041016 314.91296 96.384155 316.25613 96.384155 317.91296Z" fill-rule="nonzero"/><path fill="#000000" fill-opacity="0.0" clip-path="url(#id_0)" d="M101.41782 317.89236C101.41782 319.54922 100.07468 320.89236 98.41782 320.89236C96.76097 320.89236 95.41782 319.54922 95.41782 317.89236C95.41782 316.23553 96.76097 314.89236 98.41782 314.89236C100.07468 314.89236 101.41782 316.23553 101.41782 317.89236Z" fill-rule="nonzero"/><path fill="#000000" fill-opacity="0.0" clip-path="url(#id_0)" d="M106.451485 317.8703C106.451485 319.52716 105.10834 320.8703 103.451485 320.8703C101.79463 320.8703 100.451485 319.52716 100.451485 317.8703C100.451485 316.21344 101.79463 314.8703 103.451485 314.8703C105.10834 314.8703 106.451485 316.21344 106.451485 317.8703Z" fill-rule="nonzero"/><path fill="#000000" fill-opacity="0.0" clip-path="url(#id_0)" d="M111.485146 317.84662C111.485146 319.50348 110.142006 320.84662 108.485146 320.84662C106.82829 320.84662 105.485146 319.50348 105.485146 317.84662C105.485146 316.1898 106.82829 314.84662 108.485146 314.84662C110.142006 314.84662 111.485146 316.1898 111.485146 317.84662Z" fill-rule="nonzero"/><path fill="#000000" fill-opacity="0.0" clip-path="url(#id_0)" d="M116.518814 317.82126C116.518814 319.47812 115.17567 320.82126 113.518814 320.82126C111.86196 320.82126 110.518814 319.47812 110.518814 317.82126C110.518814 316.16443 111.86196 314.82126 113.518814 314.82126C115.17567 314.82126 116.518814 316.16443 116.518814 317.82126Z" fill-rule="nonzero"/><path fill="#000000" fill-opacity="0.0" clip-path="url(#id_0)" d="M121.552475 317.7941C121.552475 319.45093 120.20933 320.7941 118.552475 320.7941C116.89562 320.7941 115.552475 319.45093 115.552475 317.7941C115.552475 316.13724 116.89562 314.7941 118.552475 314.7941C120.20933 314.7941 121.552475 316.13724 121.552475 317.7941Z" fill-rule="nonzero"/><path fill="#000000" fill-opacity="0.0" clip-path="url(#id_0)" d="M126.586136 317.76495C126.586136 319.4218 125.243 320.76495 123.586136 320.76495C121.92928 320.76495 120.586136 319.4218 120.586136 317.76495C120.586136 316.1081 121.92928 314.76495 123.586136 314.76495C125.243 314.76495 126.586136 316.1081 126.586136 317.76495Z" fill-rule="nonzero"/><path fill="#000000" fill-opacity="0.0" clip-path="url(#id_0)" d="M131.6198 317.73373C131.6198 319.3906 130.27666 320.73373 128.6198 320.73373C126.962944 320.73373 125.619804 319.3906 125.619804 317.73373C125.619804 316.07687 126.962944 314.73373 128.6198 314.73373C130.27666 314.73373 131.6198 316.07687 131.6198 317.73373Z" fill-rule="nonzero"/><path fill="#000000" fill-opacity="0.0" clip-path="url(#id_0)" d="M136.65347 317.70026C136.65347 319.35712 135.31032 320.70026 133.65347 320.70026C131.99661 320.70026 130.65347 319.35712 130.65347 317.70026C130.65347 316.0434 131.99661 314.70026 133.65347 314.70026C135.31032 314.70026 136.65347 316.0434 136.65347 317.70026Z" fill-rule="nonzero"/><path fill="#000000" fill-opacity="0.0" clip-path="url(#id_0)" d="M141.68713 317.6644C141.68713 319.32126 140.34398 320.6644 138.68713 320.6644C137.03027 320.6644 135.68713 319.32126 135.68713 317.6644C135.68713 316.00754 137.03027 314.6644 138.68713 314.6644C140.34398 314.6644 141.68713 316.00754 141.68713 317.6644Z" fill-rule="nonzero"/><path fill="#000000" fill-opacity="0.0" clip-path="url(#id_0)" d="M146.7208 317.62595C146.7208 319.2828 145.37764 320.62595 143.7208 320.62595C142.06393 320.62595 140.7208 319.2828 140.7208 317.62595C140.7208 315.9691 142.06393 314.62595 143.7208 314.62595C145.37764 314.62595 146.7208 315.9691 146.7208 317.62595Z" fill-rule="nonzero"/><path fill="#000000" fill-opacity="0.0" clip-path="url(#id_0)" d="M151.75446 317.58475C151.75446 319.2416 150.41132 320.58475 148.75446 320.58475C147.0976 320.58475 145.75446 319.2416 145.75446 317.58475C145.75446 315.9279 147.0976 314.58475 148.75446 314.58475C150.41132 314.58475 151.75446 315.9279 151.75446 317.58475Z" fill-rule="nonzero"/><path fill="#000000" fill-opacity="0.0" clip-path="url(#id_0)" d="M156.78812 317.5406C156.78812 319.19745 155.44498 320.5406 153.78812 320.5406C152.13127 320.5406 150.78812 319.19745 150.78812 317.5406C150.78812 315.88373 152.13127 314.5406 153.78812 314.5406C155.44498 314.5406 156.78812 315.88373 156.78812 317.5406Z" fill-rule="nonzero"/><path fill="#000000" fill-opacity="0.0" clip-path="url(#id_0)" d="M161.82178 317.49326C161.82178 319.15012 160.47864 320.49326 158.82178 320.49326C157.16493 320.49326 155.82178 319.15012 155.82178 317.49326C155.82178 315.8364 157.16493 314.49326 158.82178 314.49326C160.47864 314.49326 161.82178 315.8364 161.82178 317.49326Z" fill-rule="nonzero"/><path fill="#000000" fill-opacity="0.0" clip-path="url(#id_0)" d="M166.85544 317.44254C166.85544 319.0994 165.5123 320.44254 163.85544 320.44254C162.1986 320.44254 160.85544 319.0994 160.85544 317.44254C160.85544 315.78568 162.1986 314.44254 163.85544 314.44254C165.5123 314.44254 166.85544 315.78568 166.85544 317.44254Z" fill-rule="nonzero"/><path fill="#000000" fill-opacity="0.0" clip-path="url(#id_0)" d="M171.88911 317.38818C171.88911 319.045 170.54596 320.38818 168.88911 320.38818C167.23225 320.38818 165.88911 319.045 165.88911 317.38818C165.88911 315.73132 167.23225 314.38818 168.88911 314.38818C170.54596 314.38818 171.88911 315.73132 171.88911 317.38818Z" fill-rule="nonzero"/><path fill="#000000" fill-opacity="0.0" clip-path="url(#id_0)" d="M176.92278 317.3299C176.92278 318.98676 175.57962 320.3299 173.92278 320.3299C172.26591 320.3299 170.92278 318.98676 170.92278 317.3299C170.92278 315.67303 172.26591 314.3299 173.92278 314.3299C175.57962 314.3299 176.92278 315.67303 176.92278 317.3299Z" fill-rule="nonzero"/><path fill="#000000" fill-opacity="0.0" clip-path="url(#id_0)" d="M181.95644 317.26746C181.95644 318.92432 180.6133 320.26746 178.95644 320.26746C177.29958 320.26746 175.95644 318.92432 175.95644 317.26746C175.95644 315.6106 177.29958 314.26746 178.95644 314.26746C180.6133 314.26746 181.95644 315.6106 181.95644 317.26746Z" fill-rule="nonzero"/><path fill="#000000" fill-opacity="0.0" clip-path="url(#id_0)" d="M186.9901 317.20053C186.9901 318.85736 185.64696 320.20053 183.9901 320.20053C182.33325 320.20053 180.9901 318.85736 180.9901 317.20053C180.9901 315.54367 182.33325 314.20053 183.9901 314.20053C185.64696 314.20053 186.9901 315.54367 186.9901 317.20053Z" fill-rule="nonzero"/><path fill="#000000" fill-opacity="0.0" clip-path="url(#id_0)" d="M192.02376 317.12878C192.02376 318.78564 190.68062 320.12878 189.02376 320.12878C187.36691 320.12878 186.02376 318.78564 186.02376 317.12878C186.02376 315.47192 187.36691 314.12878 189.02376 314.12878C190.68062 314.12878 192.02376 315.47192 192.02376 317.12878Z" fill-rule="nonzero"/><path fill="#000000" fill-opacity="0.0" clip-path="url(#id_0)" d="M197.05742 317.0519C197.05742 318.70874 195.71428 320.0519 194.05742 320.0519C192.40057 320.0519 191.05742 318.70874 191.05742 317.0519C191.05742 315.39505 192.40057 314.0519 194.05742 314.0519C195.71428 314.0519 197.05742 315.39505 197.05742 317.0519Z" fill-rule="nonzero"/><path fill="#000000" fill-opacity="0.0" clip-path="url(#id_0)" d="M202.0911 316.96948C202.0911 318.62634 200.74794 319.96948 199.0911 319.96948C197.43423 319.96948 196.0911 318.62634 196.0911 316.96948C196.0911 315.31265 197.43423 313.96948 199.0911 313.96948C200.74794 313.96948 202.0911 315.31265 202.0911 316.96948Z" fill-rule="nonzero"/><path fill="#000000" fill-opacity="0.0" clip-path="url(#id_0)" d="M207.12476 316.88116C207.12476 318.53802 205.7816 319.88116 204.12476 319.88116C202.4679 319.88116 201.12476 318.53802 201.12476 316.88116C201.12476 315.22433 202.4679 313.88116 204.12476 313.88116C205.7816 313.88116 207.12476 315.22433 207.12476 316.88116Z" fill-rule="nonzero"/><path fill="#000000" fill-opacity="0.0" clip-path="url(#id_0)" d="M212.15842 316.78653C212.15842 318.4434 210.81528 319.78653 209.15842 319.78653C207.50156 319.78653 206.15842 318.4434 206.15842 316.78653C206.15842 315.12967 207.50156 313.78653 209.15842 313.78653C210.81528 313.78653 212.15842 315.12967 212.15842 316.78653Z" fill-rule="nonzero"/><path fill="#000000" fill-opacity="0.0" clip-path="url(#id_0)" d="M217.19208 316.68506C217.19208 318.34192 215.84894 319.68506 214.19208 319.68506C212.53523 319.68506 211.19208 318.34192 211.19208 316.68506C211.19208 315.02823 212.53523 313.68506 214.19208 313.68506C215.84894 313.68506 217.19208 315.02823 217.19208 316.68506Z" fill-rule="nonzero"/><path fill="#000000" fill-opacity="0.0" clip-path="url(#id_0)" d="M222.22574 316.57635C222.22574 318.2332 220.8826 319.57635 219.22574 319.57635C217.5689 319.57635 216.22574 318.2332 216.22574 316.57635C216.22574 314.9195 217.5689 313.57635 219.22574 313.57635C220.8826 313.57635 222.22574 314.9195 222.22574 316.57635Z" fill-rule="nonzero"/><path fill="#000000" fill-opacity="0.0" clip-path="url(#id_0)" d="M227.2594 316.4598C227.2594 318.11667 225.91626 319.4598 224.2594 319.4598C222.60255 319.4598 221.2594 318.11667 221.2594 316.4598C221.2594 314.80295 222.60255 313.4598 224.2594 313.4598C225.91626 313.4598 227.2594 314.80295 227.2594 316.4598Z" fill-rule="nonzero"/><path fill="#000000" fill-opacity="0.0" clip-path="url(#id_0)" d="M232.29308 316.3349C232.29308 317.99176 230.94992 319.3349 229.29308 319.3349C227.63622 319.3349 226.29308 317.99176 226.29308 316.3349C226.29308 314.67804 227.63622 313.3349 229.29308 313.3349C230.94992 313.3349 232.29308 314.67804 232.29308 316.3349Z" fill-rule="nonzero"/><path fill="#000000" fill-opacity="0.0" clip-path="url(#id_0)" d="M237.32674 316.20105C237.32674 317.8579 235.98358 319.20105 234.32674 319.20105C232.66988 319.20105 231.32674 317.8579 231.32674 316.20105C231.32674 314.5442 232.66988 313.20105 234.32674 313.20105C235.98358 313.20105 237.32674 314.5442 237.32674 316.20105Z" fill-rule="nonzero"/><path fill="#000000" fill-opacity="0.0" clip-path="url(#id_0)" d="M242.3604 316.05756C242.3604 317.71442 241.01726 319.05756 239.3604 319.05756C237.70354 319.05756 236.3604 317.71442 236.3604 316.05756C236.3604 314.40073 237.70354 313.05756 239.3604 313.05756C241.01726 313.05756 242.3604 314.40073 242.3604 316.05756Z" fill-rule="nonzero"/><path fill="#000000" fill-opacity="0.0" clip-path="url(#id_0)" d="M247.39406 315.9038C247.39406 317.56067 246.05092 318.9038 244.39406 318.9038C242.7372 318.9038 241.39406 317.56067 241.39406 315.9038C241.39406 314.24695 242.7372 312.9038 244.39406 312.9038C246.05092 312.9038 247.39406 314.24695 247.39406 315.9038Z" fill-rule="nonzero"/><path fill="#000000" fill-opacity="0.0" clip-path="url(#id_0)" d="M252.42772 315.73898C252.42772 317.39584 251.08458 318.73898 249.42772 318.73898C247.77087 318.73898 246.42772 317.39584 246.42772 315.73898C246.42772 314.08215 247.77087 312.73898 249.42772 312.73898C251.08458 312.73898 252.42772 314.08215 252.42772 315.73898Z" fill-rule="nonzero"/><path fill="#000000" fill-opacity="0.0" clip-path="url(#id_0)" d="M257.4614 315.56235C257.4614 317.2192 256.11826 318.56235 254.46138 318.56235C252.80453 318.56235 251.46138 317.2192 251.46138 315.56235C251.46138 313.90552 252.80453 312.56235 254.46138 312.56235C256.11826 312.56235 257.4614 313.90552 257.4614 315.56235Z" fill-rule="nonzero"/><path fill="#000000" fill-opacity="0.0" clip-path="url(#id_0)" d="M262.49506 315.37305C262.49506 317.0299 261.15192 318.37305 259.49506 318.37305C257.8382 318.37305 256.49506 317.0299 256.49506 315.37305C256.49506 313.7162 257.8382 312.37305 259.49506 312.37305C261.15192 312.37305 262.49506 313.7162 262.49506 315.37305Z" fill-rule="nonzero"/><path fill="#000000" fill-opacity="0.0" clip-path="url(#id_0)" d="M267.52872 315.17014C267.52872 316.827 266.18558 318.17014 264.52872 318.17014C262.87186 318.17014 261.52872 316.827 261.52872 315.17014C261.52872 313.5133 262.87186 312.17014 264.52872 312.17014C266.18558 312.17014 267.52872 313.5133 267.52872 315.17014Z" fill-rule="nonzero"/><path fill="#000000" fill-opacity="0.0" clip-path="url(#id_0)" d="M272.56238 314.9527C272.56238 316.60953 271.21924 317.9527 269.56238 317.9527C267.90552 317.9527 266.56238 316.60953 266.56238 314.9527C266.56238 313.29584 267.90552 311.9527 269.56238 311.9527C271.21924 311.9527 272.56238 313.29584 272.56238 314.9527Z" fill-rule="nonzero"/><path fill="#000000" fill-opacity="0.0" clip-path="url(#id_0)" d="M277.59604 314.7196C277.59604 316.37646 276.2529 317.7196 274.59604 317.7196C272.93918 317.7196 271.59604 316.37646 271.59604 314.7196C271.59604 313.06274 272.93918 311.7196 274.59604 311.7196C276.2529 311.7196 277.59604 313.06274 277.59604 314.7196Z" fill-rule="nonzero"/><path fill="#000000" fill-opacity="0.0" clip-path="url(#id_0)" d="M282.6297 314.46982C282.6297 316.12668 281.28656 317.46982 279.6297 317.46982C277.97284 317.46982 276.6297 316.12668 276.6297 314.46982C276.6297 312.81296 277.97284 311.46982 279.6297 311.46982C281.28656 311.46982 282.6297 312.81296 282.6297 314.46982Z" fill-rule="nonzero"/><path fill="#000000" fill-opacity="0.0" clip-path="url(#id_0)" d="M287.66336 314.2021C287.66336 315.85895 286.32022 317.2021 284.66336 317.2021C283.0065 317.2021 281.66336 315.85895 281.66336 314.2021C281.66336 312.54523 283.0065 311.2021 284.66336 311.2021C286.32022 311.2021 287.66336 312.54523 287.66336 314.2021Z" fill-rule="nonzero"/><path fill="#000000" fill-opacity="0.0" clip-path="url(#id_0)" d="M292.69702 313.91513C292.69702 315.572 291.35388 316.91513 289.69702 316.91513C288.04016 316.91513 286.69702 315.572 286.69702 313.91513C286.69702 312.25827 288.04016 310.91513 289.69702 310.91513C291.35388 310.91513 292.69702 312.25827 292.69702 313.91513Z" fill-rule="nonzero"/><path fill="#000000" fill-opacity="0.0" clip-path="url(#id_0)" d="M297.73068 313.6076C297.73068 315.26447 296.38754 316.6076 294.73068 316.6076C293.07385 316.6076 291.73068 315.26447 291.73068 313.6076C291.73068 311.95074 293.07385 310.6076 294.73068 310.6076C296.38754 310.6076 297.73068 311.95074 297.73068 313.6076Z" fill-rule="nonzero"/><path fill="#000000" fill-opacity="0.0" clip-path="url(#id_0)" d="M302.76434 313.27798C302.76434 314.93484 301.4212 316.27798 299.76434 316.27798C298.1075 316.27798 296.76434 314.93484 296.76434 313.27798C296.76434 311.62112 298.1075 310.27798 299.76434 310.27798C301.4212 310.27798 302.76434 311.62112 302.76434 313.27798Z" fill-rule="nonzero"/><path fill="#000000" fill-opacity="0.0" clip-path="url(#id_0)" d="M307.79803 312.9247C307.79803 314.58157 306.45486 315.9247 304.79803 315.9247C303.14117 315.9247 301.79803 314.58157 301.79803 312.9247C301.79803 311.26785 303.14117 309.9247 304.79803 309.9247C306.45486 309.9247 307.79803 311.26785 307.79803 312.9247Z" fill-rule="nonzero"/><path fill="#000000" fill-opacity="0.0" clip-path="url(#id_0)" d="M312.8317 312.54608C312.8317 314.20294 311.48853 315.54608 309.8317 315.54608C308.17484 315.54608 306.8317 314.20294 306.8317 312.54608C306.8317 310.88925 308.17484 309.54608 309.8317 309.54608C311.48853 309.54608 312.8317 310.88925 312.8317 312.54608Z" fill-rule="nonzero"/><path fill="#000000" fill-opacity="0.0" clip-path="url(#id_0)" d="M317.86536 312.1403C317.86536 313.79715 316.5222 315.1403 314.86536 315.1403C313.2085 315.1403 311.86536 313.79715 311.86536 312.1403C311.86536 310.48343 313.2085 309.1403 314.86536 309.1403C316.5222 309.1403 317.86536 310.48343 317.86536 312.1403Z" fill-rule="nonzero"/><path fill="#000000" fill-opacity="0.0" clip-path="url(#id_0)" d="M322.89902 311.70535C322.89902 313.3622 321.55588 314.70535 319.89902 314.70535C318.24216 314.70535 316.89902 313.3622 316.89902 311.70535C316.89902 310.04852 318.24216 308.70535 319.89902 308.70535C321.55588 308.70535 322.89902 310.04852 322.89902 311.70535Z" fill-rule="nonzero"/><path fill="#000000" fill-opacity="0.0" clip-path="url(#id_0)" d="M327.93268 311.23923C327.93268 312.8961 326.58954 314.23923 324.93268 314.23923C323.27582 314.23923 321.93268 312.8961 321.93268 311.23923C321.93268 309.58237 323.27582 308.23923 324.93268 308.23923C326.58954 308.23923 327.93268 309.58237 327.93268 311.23923Z" fill-rule="nonzero"/><path fill="#000000" fill-opacity="0.0" clip-path="url(#id_0)" d="M332.96634 310.73962C332.96634 312.39648 331.6232 313.73962 329.96634 313.73962C328.30948 313.73962 326.96634 312.39648 326.96634 310.73962C326.96634 309.08276 328.30948 307.73962 329.96634 307.73962C331.6232 307.73962 332.96634 309.08276 332.96634 310.73962Z" fill-rule="nonzero"/><path fill="#000000" fill-opacity="0.0" clip-path="url(#id_0)" d="M338.0 310.20416C338.0 311.86102 336.65686 313.20416 335.0 313.20416C333.34314 313.20416 332.0 311.86102 332.0 310.20416C332.0 308.5473 333.34314 307.20416 335.0 307.20416C336.65686 307.20416 338.0 308.5473 338.0 310.20416Z" fill-rule="nonzero"/><path fill="#000000" fill-opacity="0.0" clip-path="url(#id_0)" d="M343.03366 309.63028C343.03366 311.28714 341.69052 312.63028 340.03366 312.63028C338.3768 312.63028 337.03366 311.28714 337.03366 309.63028C337.03366 307.97342 338.3768 306.63028 340.03366 306.63028C341.69052 306.63028 343.03366 307.97342 343.03366 309.63028Z" fill-rule="nonzero"/><path fill="#000000" fill-opacity="0.0" clip-path="url(#id_0)" d="M348.06732 309.0152C348.06732 310.67206 346.72418 312.0152 345.06732 312.0152C343.41046 312.0152 342.06732 310.67206 342.06732 309.0152C342.06732 307.35834 343.41046 306.0152 345.06732 306.0152C346.72418 306.0152 348.06732 307.35834 348.06732 309.0152Z" fill-rule="nonzero"/><path fill="#000000" fill-opacity="0.0" clip-path="url(#id_0)" d="M353.10098 308.356C353.10098 310.01282 351.75784 311.356 350.10098 311.356C348.44412 311.356 347.10098 310.01282 347.10098 308.356C347.10098 306.69913 348.44412 305.356 350.10098 305.356C351.75784 305.356 353.10098 306.69913 353.10098 308.356Z" fill-rule="nonzero"/><path fill="#000000" fill-opacity="0.0" clip-path="url(#id_0)" d="M358.13464 307.64944C358.13464 309.30627 356.7915 310.64944 355.13464 310.64944C353.4778 310.64944 352.13464 309.30627 352.13464 307.64944C352.13464 305.99258 353.4778 304.64944 355.13464 304.64944C356.7915 304.64944 358.13464 305.99258 358.13464 307.64944Z" fill-rule="nonzero"/><path fill="#000000" fill-opacity="0.0" clip-path="url(#id_0)" d="M363.1683 306.89218C363.1683 308.54904 361.82516 309.89218 360.1683 309.89218C358.51147 309.89218 357.1683 308.54904 357.1683 306.89218C357.1683 305.23532 358.51147 303.89218 360.1683 303.89218C361.82516 303.89218 363.1683 305.23532 363.1683 306.89218Z" fill-rule="nonzero"/><path fill="#000000" fill-opacity="0.0" clip-path="url(#id_0)" d="M368.20197 306.0806C368.20197 307.73743 366.85883 309.0806 365.20197 309.0806C363.54514 309.0806 362.20197 307.73743 362.20197 306.0806C362.20197 304.42374 363.54514 303.0806 365.20197 303.0806C366.85883 303.0806 368.20197 304.42374 368.20197 306.0806Z" fill-rule="nonzero"/><path fill="#000000" fill-opacity="0.0" clip-path="url(#id_0)" d="M373.23566 305.21072C373.23566 306.86758 371.8925 308.21072 370.23566 308.21072C368.5788 308.21072 367.23566 306.86758 367.23566 305.21072C367.23566 303.55386 368.5788 302.21072 370.23566 302.21072C371.8925 302.21072 373.23566 303.55386 373.23566 305.21072Z" fill-rule="nonzero"/><path fill="#000000" fill-opacity="0.0" clip-path="url(#id_0)" d="M378.26932 304.27844C378.26932 305.9353 376.92615 307.27844 375.26932 307.27844C373.61246 307.27844 372.26932 305.9353 372.26932 304.27844C372.26932 302.62158 373.61246 301.27844 375.26932 301.27844C376.92615 301.27844 378.26932 302.62158 378.26932 304.27844Z" fill-rule="nonzero"/><path fill="#000000" fill-opacity="0.0" clip-path="url(#id_0)" d="M383.30298 303.27924C383.30298 304.9361 381.95984 306.27924 380.30298 306.27924C378.64612 306.27924 377.30298 304.9361 377.30298 303.27924C377.30298 301.6224 378.64612 300.27924 380.30298 300.27924C381.95984 300.27924 383.30298 301.6224 383.30298 303.27924Z" fill-rule="nonzero"/><path fill="#000000" fill-opacity="0.0" clip-path="url(#id_0)" d="M388.33664 302.20834C388.33664 303.86517 386.9935 305.20834 385.33664 305.20834C383.67978 305.20834 382.33664 303.86517 382.33664 302.20834C382.33664 300.55148 383.67978 299.20834 385.33664 299.20834C386.9935 299.20834 388.33664 300.55148 388.33664 302.20834Z" fill-rule="nonzero"/><path fill="#000000" fill-opacity="0.0" clip-path="url(#id_0)" d="M393.3703 301.06055C393.3703 302.7174 392.02716 304.06055 390.3703 304.06055C388.71344 304.06055 387.3703 302.7174 387.3703 301.06055C387.3703 299.40372 388.71344 298.06055 390.3703 298.06055C392.02716 298.06055 393.3703 299.40372 393.3703 301.06055Z" fill-rule="nonzero"/><path fill="#000000" fill-opacity="0.0" clip-path="url(#id_0)" d="M398.40396 299.8304C398.40396 301.48724 397.06082 302.8304 395.40396 302.8304C393.7471 302.8304 392.40396 301.48724 392.40396 299.8304C392.40396 298.17355 393.7471 296.8304 395.40396 296.8304C397.06082 296.8304 398.40396 298.17355 398.40396 299.8304Z" fill-rule="nonzero"/><path fill="#000000" fill-opacity="0.0" clip-path="url(#id_0)" d="M403.43762 298.51196C403.43762 300.1688 402.09448 301.51196 400.43762 301.51196C398.78076 301.51196 397.43762 300.1688 397.43762 298.51196C397.43762 296.8551 398.78076 295.51196 400.43762 295.51196C402.09448 295.51196 403.43762 296.8551 403.43762 298.51196Z" fill-rule="nonzero"/><path fill="#000000" fill-opacity="0.0" clip-path="url(#id_0)" d="M408.47128 297.09888C408.47128 298.75574 407.12814 300.09888 405.47128 300.09888C403.81442 300.09888 402.47128 298.75574 402.47128 297.09888C402.47128 295.44202 403.81442 294.09888 405.47128 294.09888C407.12814 294.09888 408.47128 295.44202 408.47128 297.09888Z" fill-rule="nonzero"/><path fill="#000000" fill-opacity="0.0" clip-path="url(#id_0)" d="M413.50494 295.58438C413.50494 297.2412 412.1618 298.58438 410.50494 298.58438C408.84808 298.58438 407.50494 297.2412 407.50494 295.58438C407.50494 293.92752 408.84808 292.58438 410.50494 292.58438C412.1618 292.58438 413.50494 293.92752 413.50494 295.58438Z" fill-rule="nonzero"/><path fill="#000000" fill-opacity="0.0" clip-path="url(#id_0)" d="M418.5386 293.96115C418.5386 295.618 417.19547 296.96115 415.5386 296.96115C413.88174 296.96115 412.5386 295.618 412.5386 293.96115C412.5386 292.30432 413.88174 290.96115 415.5386 290.96115C417.19547 290.96115 418.5386 292.30432 418.5386 293.96115Z" fill-rule="nonzero"/><path fill="#000000" fill-opacity="0.0" clip-path="url(#id_0)" d="M423.57227 292.22147C423.57227 293.87833 422.22913 295.22147 420.57227 295.22147C418.91544 295.22147 417.57227 293.87833 417.57227 292.22147C417.57227 290.5646 418.91544 289.22147 420.57227 289.22147C422.22913 289.22147 423.57227 290.5646 423.57227 292.22147Z" fill-rule="nonzero"/><path fill="#000000" fill-opacity="0.0" clip-path="url(#id_0)" d="M428.60593 290.3569C428.60593 292.01373 427.2628 293.3569 425.60593 293.3569C423.9491 293.3569 422.60593 292.01373 422.60593 290.3569C422.60593 288.70004 423.9491 287.3569 425.60593 287.3569C427.2628 287.3569 428.60593 288.70004 428.60593 290.3569Z" fill-rule="nonzero"/><path fill="#000000" fill-opacity="0.0" clip-path="url(#id_0)" d="M433.63962 288.3585C433.63962 290.01535 432.29645 291.3585 430.63962 291.3585C428.98276 291.3585 427.63962 290.01535 427.63962 288.3585C427.63962 286.70163 428.98276 285.3585 430.63962 285.3585C432.29645 285.3585 433.63962 286.70163 433.63962 288.3585Z" fill-rule="nonzero"/><path fill="#000000" fill-opacity="0.0" clip-path="url(#id_0)" d="M438.67328 286.21667C438.67328 287.87354 437.3301 289.21667 435.67328 289.21667C434.01642 289.21667 432.67328 287.87354 432.67328 286.21667C432.67328 284.5598 434.01642 283.21667 435.67328 283.21667C437.3301 283.21667 438.67328 284.5598 438.67328 286.21667Z" fill-rule="nonzero"/><path fill="#000000" fill-opacity="0.0" clip-path="url(#id_0)" d="M443.70694 283.9211C443.70694 285.57797 442.3638 286.9211 440.70694 286.9211C439.05008 286.9211 437.70694 285.57797 437.70694 283.9211C437.70694 282.26425 439.05008 280.9211 440.70694 280.9211C442.3638 280.9211 443.70694 282.26425 443.70694 283.9211Z" fill-rule="nonzero"/><path fill="#000000" fill-opacity="0.0" clip-path="url(#id_0)" d="M448.7406 281.4608C448.7406 283.11765 447.39746 284.4608 445.7406 284.4608C444.08374 284.4608 442.7406 283.11765 442.7406 281.4608C442.7406 279.80396 444.08374 278.4608 445.7406 278.4608C447.39746 278.4608 448.7406 279.80396 448.7406 281.4608Z" fill-rule="nonzero"/><path fill="#000000" fill-opacity="0.0" clip-path="url(#id_0)" d="M453.77426 278.82388C453.77426 280.48074 452.43112 281.82388 450.77426 281.82388C449.1174 281.82388 447.77426 280.48074 447.77426 278.82388C447.77426 277.16705 449.1174 275.82388 450.77426 275.82388C452.43112 275.82388 453.77426 277.16705 453.77426 278.82388Z" fill-rule="nonzero"/><path fill="#000000" fill-opacity="0.0" clip-path="url(#id_0)" d="M458.80792 275.99774C458.80792 277.6546 457.46478 278.99774 455.80792 278.99774C454.15106 278.99774 452.80792 277.6546 452.80792 275.99774C452.80792 274.34088 454.15106 272.99774 455.80792 272.99774C457.46478 272.99774 458.80792 274.34088 458.80792 275.99774Z" fill-rule="nonzero"/><path fill="#000000" fill-opacity="0.0" clip-path="url(#id_0)" d="M463.84158 272.96875C463.84158 274.62558 462.49844 275.96875 460.84158 275.96875C459.18472 275.96875 457.84158 274.62558 457.84158 272.96875C457.84158 271.3119 459.18472 269.96875 460.84158 269.96875C462.49844 269.96875 463.84158 271.3119 463.84158 272.96875Z" fill-rule="nonzero"/><path fill="#000000" fill-opacity="0.0" clip-path="url(#id_0)" d="M468.87524 269.72232C468.87524 271.37918 467.5321 272.72232 465.87524 272.72232C464.21838 272.72232 462.87524 271.37918 462.87524 269.72232C462.87524 268.0655 464.21838 266.72232 465.87524 266.72232C467.5321 266.72232 468.87524 268.0655 468.87524 269.72232Z" fill-rule="nonzero"/><path fill="#000000" fill-opacity="0.0" clip-path="url(#id_0)" d="M473.9089 266.24292C473.9089 267.89978 472.56577 269.24292 470.9089 269.24292C469.25204 269.24292 467.9089 267.89978 467.9089 266.24292C467.9089 264.58606 469.25204 263.24292 470.9089 263.24292C472.56577 263.24292 473.9089 264.58606 473.9089 266.24292Z" fill-rule="nonzero"/><path fill="#000000" fill-opacity="0.0" clip-path="url(#id_0)" d="M478.94257 262.5138C478.94257 264.17062 477.59943 265.5138 475.94257 265.5138C474.2857 265.5138 472.94257 264.17062 472.94257 262.5138C472.94257 260.85693 474.2857 259.5138 475.94257 259.5138C477.59943 259.5138 478.94257 260.85693 478.94257 262.5138Z" fill-rule="nonzero"/><path fill="#000000" fill-opacity="0.0" clip-path="url(#id_0)" d="M483.97623 258.517C483.97623 260.17386 482.6331 261.517 480.97623 261.517C479.3194 261.517 477.97623 260.17386 477.97623 258.517C477.97623 256.86014 479.3194 255.51698 480.97623 255.51698C482.6331 255.51698 483.97623 256.86014 483.97623 258.517Z" fill-rule="nonzero"/><path fill="#000000" fill-opacity="0.0" clip-path="url(#id_0)" d="M489.0099 254.23334C489.0099 255.89018 487.66675 257.23334 486.0099 257.23334C484.35306 257.23334 483.0099 255.89018 483.0099 254.23334C483.0099 252.57648 484.35306 251.23334 486.0099 251.23334C487.66675 251.23334 489.0099 252.57648 489.0099 254.23334Z" fill-rule="nonzero"/><path fill="#000000" fill-opacity="0.0" clip-path="url(#id_0)" d="M494.04358 249.64223C494.04358 251.29907 492.7004 252.64223 491.04358 252.64223C489.38672 252.64223 488.04358 251.29907 488.04358 249.64223C488.04358 247.98537 489.38672 246.64223 491.04358 246.64223C492.7004 246.64223 494.04358 247.98537 494.04358 249.64223Z" fill-rule="nonzero"/><path fill="#000000" fill-opacity="0.0" clip-path="url(#id_0)" d="M499.07724 244.72159C499.07724 246.37845 497.73407 247.72159 496.07724 247.72159C494.42038 247.72159 493.07724 246.37845 493.07724 244.72159C493.07724 243.06474 494.42038 241.72159 496.07724 241.72159C497.73407 241.72159 499.07724 243.06474 499.07724 244.72159Z" fill-rule="nonzero"/><path fill="#000000" fill-opacity="0.0" clip-path="url(#id_0)" d="M504.1109 239.4478C504.1109 241.10464 502.76773 242.4478 501.1109 242.4478C499.45404 242.4478 498.1109 241.10464 498.1109 239.4478C498.1109 237.79094 499.45404 236.4478 501.1109 236.4478C502.76773 236.4478 504.1109 237.79094 504.1109 239.4478Z" fill-rule="nonzero"/><path fill="#000000" fill-opacity="0.0" clip-path="url(#id_0)" d="M509.14456 233.79547C509.14456 235.45233 507.80142 236.79547 506.14456 236.79547C504.4877 236.79547 503.14456 235.45233 503.14456 233.79547C503.14456 232.13863 504.4877 230.79547 506.14456 230.79547C507.80142 230.79547 509.14456 232.13863 509.14456 233.79547Z" fill-rule="nonzero"/><path fill="#000000" fill-opacity="0.0" clip-path="url(#id_0)" d="M514.1782 227.73747C514.1782 229.39433 512.8351 230.73747 511.17822 230.73747C509.52136 230.73747 508.17822 229.39433 508.17822 227.73747C508.17822 226.08061 509.52136 224.73747 511.17822 224.73747C512.8351 224.73747 514.1782 226.08061 514.1782 227.73747Z" fill-rule="nonzero"/><path fill="#000000" fill-opacity="0.0" clip-path="url(#id_0)" d="M519.21185 221.24466C519.21185 222.90152 517.8687 224.24466 516.21185 224.24466C514.55505 224.24466 513.21185 222.90152 513.21185 221.24466C513.21185 219.58781 514.55505 218.24466 516.21185 218.24466C517.8687 218.24466 519.21185 219.58781 519.21185 221.24466Z" fill-rule="nonzero"/><path fill="#000000" fill-opacity="0.0" clip-path="url(#id_0)" d="M524.24554 214.28584C524.24554 215.9427 522.9024 217.28584 521.24554 217.28584C519.5887 217.28584 518.24554 215.9427 518.24554 214.28584C518.24554 212.62898 519.5887 211.28584 521.24554 211.28584C522.9024 211.28584 524.24554 212.62898 524.24554 214.28584Z" fill-rule="nonzero"/><path fill="#000000" fill-opacity="0.0" clip-path="url(#id_0)" d="M529.27924 206.82756C529.27924 208.48442 527.93604 209.82756 526.27924 209.82756C524.6224 209.82756 523.27924 208.48442 523.27924 206.82756C523.27924 205.17072 524.6224 203.82756 526.27924 203.82756C527.93604 203.82756 529.27924 205.17072 529.27924 206.82756Z" fill-rule="nonzero"/><path fill="#000000" fill-opacity="0.0" clip-path="url(#id_0)" d="M534.31287 198.83398C534.31287 200.49083 532.9697 201.83398 531.31287 201.83398C529.656 201.83398 528.31287 200.49083 528.31287 198.83398C528.31287 197.17712 529.656 195.83398 531.31287 195.83398C532.9697 195.83398 534.31287 197.17712 534.31287 198.83398Z" fill-rule="nonzero"/><path fill="#000000" fill-opacity="0.0" clip-path="url(#id_0)" d="M539.34656 190.26666C539.34656 191.92352 538.0034 193.26666 536.34656 193.26666C534.6897 193.26666 533.34656 191.92352 533.34656 190.26666C533.34656 188.60982 534.6897 187.26666 536.34656 187.26666C538.0034 187.26666 539.34656 188.60982 539.34656 190.26666Z" fill-rule="nonzero"/><path fill="#000000" fill-opacity="0.0" clip-path="url(#id_0)" d="M544.3802 181.08444C544.3802 182.7413 543.03705 184.08444 541.3802 184.08444C539.7233 184.08444 538.3802 182.7413 538.3802 181.08444C538.3802 179.4276 539.7233 178.08444 541.3802 178.08444C543.03705 178.08444 544.3802 179.4276 544.3802 181.08444Z" fill-rule="nonzero"/><path fill="#000000" fill-opacity="0.0" clip-path="url(#id_0)" d="M549.4139 171.2432C549.4139 172.90004 548.07074 174.2432 546.4139 174.2432C544.757 174.2432 543.4139 172.90004 543.4139 171.2432C543.4139 169.58633 544.757 168.2432 546.4139 168.2432C548.07074 168.2432 549.4139 169.58633 549.4139 171.2432Z" fill-rule="nonzero"/><path fill="#000000" fill-opacity="0.0" clip-path="url(#id_0)" d="M554.4475 160.69559C554.4475 162.35245 553.1044 163.69559 551.4475 163.69559C549.79065 163.69559 548.4475 162.35245 548.4475 160.69559C548.4475 159.03874 549.79065 157.69559 551.4475 157.69559C553.1044 157.69559 554.4475 159.03874 554.4475 160.69559Z" fill-rule="nonzero"/><path fill="#000000" fill-opacity="0.0" clip-path="url(#id_0)" d="M559.4812 149.39096C559.4812 151.0478 558.13806 152.39096 556.4812 152.39096C554.82434 152.39096 553.4812 151.0478 553.4812 149.39096C553.4812 147.7341 554.82434 146.39096 556.4812 146.39096C558.13806 146.39096 559.4812 147.7341 559.4812 149.39096Z" fill-rule="nonzero"/><path fill="#000000" fill-opacity="0.0" clip-path="url(#id_0)" d="M564.51483 137.27495C564.51483 138.9318 563.1717 140.27495 561.51483 140.27495C559.858 140.27495 558.51483 138.9318 558.51483 137.27495C558.51483 135.61809 559.858 134.27495 561.51483 134.27495C563.1717 134.27495 564.51483 135.61809 564.51483 137.27495Z" fill-rule="nonzero"/><path fill="#000000" fill-opacity="0.0" clip-path="url(#id_0)" d="M569.5485 124.28933C569.5485 125.94618 568.2054 127.28933 566.5485 127.28933C564.89166 127.28933 563.5485 125.94618 563.5485 124.28933C563.5485 122.63248 564.89166 121.28933 566.5485 121.28933C568.2054 121.28933 569.5485 122.63248 569.5485 124.28933Z" fill-rule="nonzero"/><path fill="#000000" fill-opacity="0.0" clip-path="url(#id_0)" d="M574.58215 110.37169C574.58215 112.02854 573.239 113.37169 571.58215 113.37169C569.92535 113.37169 568.58215 112.02854 568.58215 110.37169C568.58215 108.714836 569.92535 107.37169 571.58215 107.37169C573.239 107.37169 574.58215 108.714836 574.58215 110.37169Z" fill-rule="nonzero"/><path fill="#000000" fill-opacity="0.0" clip-path="url(#id_0)" d="M579.61584 95.45513C579.61584 97.111984 578.2727 98.45513 576.61584 98.45513C574.959 98.45513 573.61584 97.111984 573.61584 95.45513C573.61584 93.79827 574.959 92.45513 576.61584 92.45513C578.2727 92.45513 579.61584 93.79827 579.61584 95.45513Z" fill-rule="nonzero"/><path fill="#000000" fill-opacity="0.0" clip-path="url(#id_0)" d="M584.6495 79.46796C584.6495 81.12481 583.30634 82.46796 581.6495 82.46796C579.9927 82.46796 578.6495 81.12481 578.6495 79.46796C578.6495 77.811104 579.9927 76.46796 581.6495 76.46796C583.30634 76.46796 584.6495 77.811104 584.6495 79.46796Z" fill-rule="nonzero"/><path fill="#000000" fill-opacity="0.0" clip-path="url(#id_0)" d="M589.68317 62.333332C589.68317 63.99019 588.34 65.333336 586.68317 65.333336C585.0263 65.333336 583.68317 63.99019 583.68317 62.333332C583.68317 60.67648 585.0263 59.333332 586.68317 59.333332C588.34 59.333332 589.68317 60.67648 589.68317 62.333332Z" fill-rule="nonzero"/><path fill="#000000" d="M336.59375 353.2625L336.75 354.1844Q336.29688 354.27814 335.95312 354.27814Q335.375 354.27814 335.0625 354.10626Q334.75 353.91876 334.60938 353.6219Q334.48438 353.325 334.48438 352.3719L334.48438 348.79376L333.71875 348.79376L333.71875 347.98126L334.48438 347.98126L334.48438 346.4344L335.53125 345.8094L335.53125 347.98126L336.59375 347.98126L336.59375 348.79376L335.53125 348.79376L335.53125 352.4344Q335.53125 352.8875 335.57812 353.0125Q335.64062 353.1375 335.76562 353.21564Q335.89062 353.29376 336.125 353.29376Q336.3125 353.29376 336.59375 353.2625Z" fill-rule="nonzero"/><path fill="#000000" d="M29.800013 192.67291L26.565638 190.40729L23.581263 192.50104L23.581263 191.18854L25.034388 190.23541Q25.456263 189.96979 25.737513 189.79791Q25.346888 189.54791 25.050013 189.32916L23.581263 188.28229L23.581263 187.01666L26.503138 189.17291L29.800013 186.86041L29.800013 188.14166L27.862513 189.42291L27.346888 189.76666L29.800013 191.40729L29.800013 192.67291Z" fill-rule="nonzero"/><path fill="#000000" d="M51.3 317.96564Q51.3 316.4344 51.6125 315.5125Q51.925 314.575 52.534374 314.075Q53.159374 313.575 54.096874 313.575Q54.784374 313.575 55.3 313.85626Q55.83125 314.1375 56.175 314.66876Q56.51875 315.1844 56.70625 315.9344Q56.89375 316.6844 56.89375 317.96564Q56.89375 319.48126 56.58125 320.40314Q56.284374 321.325 55.659374 321.84064Q55.05 322.34064 54.096874 322.34064Q52.8625 322.34064 52.14375 321.45Q51.3 320.3875 51.3 317.96564ZM52.378124 317.96564Q52.378124 320.075 52.878124 320.77814Q53.378124 321.48126 54.096874 321.48126Q54.83125 321.48126 55.315624 320.77814Q55.815624 320.075 55.815624 317.96564Q55.815624 315.84064 55.315624 315.15314Q54.83125 314.45 54.08125 314.45Q53.3625 314.45 52.925 315.0594Q52.378124 315.84064 52.378124 317.96564ZM58.89375 322.2L58.89375 320.9969L60.096874 320.9969L60.096874 322.2L58.89375 322.2ZM61.3 317.96564Q61.3 316.4344 61.6125 315.5125Q61.925 314.575 62.534374 314.075Q63.159374 313.575 64.09688 313.575Q64.78438 313.575 65.3 313.85626Q65.83125 314.1375 66.175 314.66876Q66.51875 315.1844 66.70625 315.9344Q66.89375 316.6844 66.89375 317.96564Q66.89375 319.48126 66.58125 320.40314Q66.28438 321.325 65.65938 321.84064Q65.05 322.34064 64.09688 322.34064Q62.8625 322.34064 62.14375 321.45Q61.3 320.3875 61.3 317.96564ZM62.378124 317.96564Q62.378124 320.075 62.878124 320.77814Q63.378124 321.48126 64.09688 321.48126Q64.83125 321.48126 65.31563 320.77814Q65.81563 320.075 65.81563 317.96564Q65.81563 315.84064 65.31563 315.15314Q64.83125 314.45 64.08125 314.45Q63.3625 314.45 62.925 315.0594Q62.378124 315.84064 62.378124 317.96564ZM68.3 317.96564Q68.3 316.4344 68.6125 315.5125Q68.925 314.575 69.53438 314.075Q70.15938 313.575 71.09688 313.575Q71.78438 313.575 72.3 313.85626Q72.83125 314.1375 73.175 314.66876Q73.51875 315.1844 73.70625 315.9344Q73.89375 316.6844 73.89375 317.96564Q73.89375 319.48126 73.58125 320.40314Q73.28438 321.325 72.65938 321.84064Q72.05 322.34064 71.09688 322.34064Q69.8625 322.34064 69.14375 321.45Q68.3 320.3875 68.3 317.96564ZM69.37813 317.96564Q69.37813 320.075 69.87813 320.77814Q70.37813 321.48126 71.09688 321.48126Q71.83125 321.48126 72.31563 320.77814Q72.81563 320.075 72.81563 317.96564Q72.81563 315.84064 72.31563 315.15314Q71.83125 314.45 71.08125 314.45Q70.3625 314.45 69.925 315.0594Q69.37813 315.84064 69.37813 317.96564Z" fill-rule="nonzero"/><path fill="#000000" d="M51.3 253.99896Q51.3 252.46771 51.6125 251.54584Q51.925 250.60834 52.534374 250.10834Q53.159374 249.60834 54.096874 249.60834Q54.784374 249.60834 55.3 249.88959Q55.83125 250.17084 56.175 250.70209Q56.51875 251.21771 56.70625 251.96771Q56.89375 252.71771 56.89375 253.99896Q56.89375 255.51459 56.58125 256.43646Q56.284374 257.35834 55.659374 257.87396Q55.05 258.37396 54.096874 258.37396Q52.8625 258.37396 52.14375 257.48334Q51.3 256.42084 51.3 253.99896ZM52.378124 253.99896Q52.378124 256.10834 52.878124 256.81146Q53.378124 257.5146 54.096874 257.5146Q54.83125 257.5146 55.315624 256.81146Q55.815624 256.10834 55.815624 253.99896Q55.815624 251.87396 55.315624 251.18646Q54.83125 250.48334 54.08125 250.48334Q53.3625 250.48334 52.925 251.09271Q52.378124 251.87396 52.378124 253.99896ZM58.89375 258.23334L58.89375 257.0302L60.096874 257.0302L60.096874 258.23334L58.89375 258.23334ZM66.84688 257.2177L66.84688 258.23334L61.159374 258.23334Q61.159374 257.85834 61.284374 257.49896Q61.503124 256.92084 61.971874 256.35834Q62.45625 255.79584 63.3625 255.06146Q64.76875 253.90521 65.25313 253.23334Q65.75313 252.56146 65.75313 251.96771Q65.75313 251.34271 65.3 250.92084Q64.84688 250.48334 64.12813 250.48334Q63.3625 250.48334 62.909374 250.93646Q62.45625 251.38959 62.440624 252.20209L61.3625 252.09271Q61.471874 250.87396 62.190624 250.24896Q62.925 249.60834 64.15938 249.60834Q65.39375 249.60834 66.1125 250.29584Q66.83125 250.98334 66.83125 251.99896Q66.83125 252.51459 66.6125 253.01459Q66.40938 253.49896 65.90938 254.06146Q65.425 254.60834 64.3 255.56146Q63.346874 256.35834 63.065624 256.6552Q62.8 256.93646 62.628124 257.2177L66.84688 257.2177ZM68.3 255.98334L69.40938 255.88959Q69.53438 256.7021 69.97188 257.10834Q70.425 257.5146 71.06563 257.5146Q71.81563 257.5146 72.34688 256.93646Q72.87813 256.35834 72.87813 255.42084Q72.87813 254.51459 72.3625 253.99896Q71.8625 253.46771 71.03438 253.46771Q70.53438 253.46771 70.1125 253.70209Q69.70625 253.93646 69.47188 254.29584L68.4875 254.17084L69.31563 249.76459L73.59688 249.76459L73.59688 250.76459L70.15938 250.76459L69.70625 253.07709Q70.47188 252.53021 71.31563 252.53021Q72.44063 252.53021 73.20625 253.31146Q73.9875 254.09271 73.9875 255.32709Q73.9875 256.48334 73.31563 257.3427Q72.4875 258.37396 71.06563 258.37396Q69.89375 258.37396 69.14375 257.7177Q68.40938 257.06146 68.3 255.98334Z" fill-rule="nonzero"/><path fill="#000000" d="M51.3 190.03229Q51.3 188.50104 51.6125 187.57916Q51.925 186.64166 52.534374 186.14166Q53.159374 185.64166 54.096874 185.64166Q54.784374 185.64166 55.3 185.92291Q55.83125 186.20416 56.175 186.73541Q56.51875 187.25104 56.70625 188.00104Q56.89375 188.75104 56.89375 190.03229Q56.89375 191.54791 56.58125 192.46979Q56.284374 193.39166 55.659374 193.90729Q55.05 194.40729 54.096874 194.40729Q52.8625 194.40729 52.14375 193.51666Q51.3 192.45416 51.3 190.03229ZM52.378124 190.03229Q52.378124 192.14166 52.878124 192.84479Q53.378124 193.54791 54.096874 193.54791Q54.83125 193.54791 55.315624 192.84479Q55.815624 192.14166 55.815624 190.03229Q55.815624 187.90729 55.315624 187.21979Q54.83125 186.51666 54.08125 186.51666Q53.3625 186.51666 52.925 187.12604Q52.378124 187.90729 52.378124 190.03229ZM58.89375 194.26666L58.89375 193.06354L60.096874 193.06354L60.096874 194.26666L58.89375 194.26666ZM61.3 192.01666L62.409374 191.92291Q62.534374 192.73541 62.971874 193.14166Q63.425 193.54791 64.06563 193.54791Q64.81563 193.54791 65.34688 192.96979Q65.87813 192.39166 65.87813 191.45416Q65.87813 190.54791 65.3625 190.03229Q64.8625 189.50104 64.03438 189.50104Q63.534374 189.50104 63.1125 189.73541Q62.70625 189.96979 62.471874 190.32916L61.4875 190.20416L62.315624 185.79791L66.59688 185.79791L66.59688 186.79791L63.159374 186.79791L62.70625 189.11041Q63.471874 188.56354 64.31563 188.56354Q65.44063 188.56354 66.20625 189.34479Q66.9875 190.12604 66.9875 191.36041Q66.9875 192.51666 66.31563 193.37604Q65.4875 194.40729 64.06563 194.40729Q62.89375 194.40729 62.14375 193.75104Q61.409374 193.09479 61.3 192.01666ZM68.3 190.03229Q68.3 188.50104 68.6125 187.57916Q68.925 186.64166 69.53438 186.14166Q70.15938 185.64166 71.09688 185.64166Q71.78438 185.64166 72.3 185.92291Q72.83125 186.20416 73.175 186.73541Q73.51875 187.25104 73.70625 188.00104Q73.89375 188.75104 73.89375 190.03229Q73.89375 191.54791 73.58125 192.46979Q73.28438 193.39166 72.65938 193.90729Q72.05 194.40729 71.09688 194.40729Q69.8625 194.40729 69.14375 193.51666Q68.3 192.45416 68.3 190.03229ZM69.37813 190.03229Q69.37813 192.14166 69.87813 192.84479Q70.37813 193.54791 71.09688 193.54791Q71.83125 193.54791 72.31563 192.84479Q72.81563 192.14166 72.81563 190.03229Q72.81563 187.90729 72.31563 187.21979Q71.83125 186.51666 71.08125 186.51666Q70.3625 186.51666 69.925 187.12604Q69.37813 187.90729 69.37813 190.03229Z" fill-rule="nonzero"/><path fill="#000000" d="M51.3 126.06563Q51.3 124.53438 51.6125 123.6125Q51.925 122.675 52.534374 122.175Q53.159374 121.675 54.096874 121.675Q54.784374 121.675 55.3 121.95625Q55.83125 122.2375 56.175 122.76875Q56.51875 123.28438 56.70625 124.03438Q56.89375 124.78438 56.89375 126.06563Q56.89375 127.58125 56.58125 128.50313Q56.284374 129.425 55.659374 129.94063Q55.05 130.44063 54.096874 130.44063Q52.8625 130.44063 52.14375 129.55Q51.3 128.4875 51.3 126.06563ZM52.378124 126.06563Q52.378124 128.175 52.878124 128.87813Q53.378124 129.58125 54.096874 129.58125Q54.83125 129.58125 55.315624 128.87813Q55.815624 128.175 55.815624 126.06563Q55.815624 123.94063 55.315624 123.25313Q54.83125 122.55 54.08125 122.55Q53.3625 122.55 52.925 123.15938Q52.378124 123.94063 52.378124 126.06563ZM58.89375 130.3L58.89375 129.09688L60.096874 129.09688L60.096874 130.3L58.89375 130.3ZM61.3625 122.83125L61.3625 121.81563L66.925 121.81563L66.925 122.64375Q66.1125 123.51875 65.3 124.97188Q64.50313 126.40938 64.06563 127.94063Q63.7375 129.01875 63.659374 130.3L62.565624 130.3Q62.58125 129.28438 62.95625 127.84688Q63.346874 126.40938 64.05 125.08125Q64.76875 123.75313 65.58125 122.83125L61.3625 122.83125ZM68.3 128.05L69.40938 127.95625Q69.53438 128.76875 69.97188 129.175Q70.425 129.58125 71.06563 129.58125Q71.81563 129.58125 72.34688 129.00313Q72.87813 128.425 72.87813 127.4875Q72.87813 126.58125 72.3625 126.06563Q71.8625 125.53438 71.03438 125.53438Q70.53438 125.53438 70.1125 125.76875Q69.70625 126.00313 69.47188 126.3625L68.4875 126.2375L69.31563 121.83125L73.59688 121.83125L73.59688 122.83125L70.15938 122.83125L69.70625 125.14375Q70.47188 124.59688 71.31563 124.59688Q72.44063 124.59688 73.20625 125.37813Q73.9875 126.15938 73.9875 127.39375Q73.9875 128.55 73.31563 129.40938Q72.4875 130.44063 71.06563 130.44063Q69.89375 130.44063 69.14375 129.78438Q68.40938 129.12813 68.3 128.05Z" fill-rule="nonzero"/><path fill="#000000" d="M55.26875 66.333336L54.221874 66.333336L54.221874 59.614586Q53.83125 59.97396 53.20625 60.34896Q52.596874 60.708336 52.1125 60.88021L52.1125 59.864586Q52.9875 59.44271 53.64375 58.864586Q54.315624 58.270836 54.596874 57.708336L55.26875 57.708336L55.26875 66.333336ZM58.89375 66.333336L58.89375 65.13021L60.096874 65.13021L60.096874 66.333336L58.89375 66.333336ZM61.3 62.09896Q61.3 60.56771 61.6125 59.645836Q61.925 58.708336 62.534374 58.208336Q63.159374 57.708336 64.09688 57.708336Q64.78438 57.708336 65.3 57.989586Q65.83125 58.270836 66.175 58.802086Q66.51875 59.31771 66.70625 60.06771Q66.89375 60.81771 66.89375 62.09896Q66.89375 63.614586 66.58125 64.53646Q66.28438 65.458336 65.65938 65.97396Q65.05 66.47396 64.09688 66.47396Q62.8625 66.47396 62.14375 65.583336Q61.3 64.520836 61.3 62.09896ZM62.378124 62.09896Q62.378124 64.208336 62.878124 64.91146Q63.378124 65.614586 64.09688 65.614586Q64.83125 65.614586 65.31563 64.91146Q65.81563 64.208336 65.81563 62.09896Q65.81563 59.97396 65.31563 59.28646Q64.83125 58.583336 64.08125 58.583336Q63.3625 58.583336 62.925 59.19271Q62.378124 59.97396 62.378124 62.09896ZM68.3 62.09896Q68.3 60.56771 68.6125 59.645836Q68.925 58.708336 69.53438 58.208336Q70.15938 57.708336 71.09688 57.708336Q71.78438 57.708336 72.3 57.989586Q72.83125 58.270836 73.175 58.802086Q73.51875 59.31771 73.70625 60.06771Q73.89375 60.81771 73.89375 62.09896Q73.89375 63.614586 73.58125 64.53646Q73.28438 65.458336 72.65938 65.97396Q72.05 66.47396 71.09688 66.47396Q69.8625 66.47396 69.14375 65.583336Q68.3 64.520836 68.3 62.09896ZM69.37813 62.09896Q69.37813 64.208336 69.87813 64.91146Q70.37813 65.614586 71.09688 65.614586Q71.83125 65.614586 72.31563 64.91146Q72.81563 64.208336 72.81563 62.09896Q72.81563 59.97396 72.31563 59.28646Q71.83125 58.583336 71.08125 58.583336Q70.3625 58.583336 69.925 59.19271Q69.37813 59.97396 69.37813 62.09896Z" fill-rule="nonzero"/><path fill="#757575" d="M20.378124 37.8L20.378124 23.4875L30.7375 23.4875L30.7375 25.175L22.284374 25.175L22.284374 29.55L30.190624 29.55L30.190624 31.2375L22.284374 31.2375L22.284374 36.1125L31.065624 36.1125L31.065624 37.8L20.378124 37.8ZM39.89375 36.51875Q38.909374 37.346874 38.003124 37.690624Q37.096874 38.034374 36.065624 38.034374Q34.3625 38.034374 33.440624 37.20625Q32.51875 36.3625 32.51875 35.065624Q32.51875 34.3 32.8625 33.675Q33.221874 33.05 33.784374 32.675Q34.346874 32.284374 35.05 32.08125Q35.565624 31.95625 36.6125 31.815624Q38.7375 31.565624 39.7375 31.221874Q39.753124 30.8625 39.753124 30.753124Q39.753124 29.690624 39.253124 29.2375Q38.58125 28.64375 37.253124 28.64375Q36.003124 28.64375 35.409374 29.08125Q34.83125 29.51875 34.55 30.628124L32.83125 30.39375Q33.065624 29.284374 33.596874 28.6125Q34.128124 27.925 35.14375 27.565624Q36.159374 27.190624 37.503124 27.190624Q38.83125 27.190624 39.659374 27.503124Q40.4875 27.815624 40.878124 28.3Q41.26875 28.76875 41.425 29.4875Q41.51875 29.940624 41.51875 31.1125L41.51875 33.45625Q41.51875 35.909374 41.628124 36.565624Q41.7375 37.20625 42.08125 37.8L40.2375 37.8Q39.971874 37.253124 39.89375 36.51875ZM39.7375 32.596874Q38.784374 32.9875 36.8625 33.253124Q35.784374 33.409374 35.33125 33.6125Q34.89375 33.8 34.64375 34.175Q34.39375 34.55 34.39375 35.01875Q34.39375 35.721874 34.925 36.190624Q35.45625 36.659374 36.4875 36.659374Q37.503124 36.659374 38.284374 36.221874Q39.08125 35.76875 39.45625 35.003124Q39.7375 34.39375 39.7375 33.2375L39.7375 32.596874ZM43.409374 34.70625L45.159374 34.425Q45.3 35.471874 45.971874 36.034374Q46.64375 36.58125 47.846874 36.58125Q49.05 36.58125 49.628124 36.096874Q50.221874 35.596874 50.221874 34.940624Q50.221874 34.346874 49.70625 34.003124Q49.346874 33.76875 47.909374 33.409374Q45.971874 32.909374 45.221874 32.565624Q44.4875 32.20625 44.096874 31.58125Q43.70625 30.940624 43.70625 30.175Q43.70625 29.4875 44.01875 28.89375Q44.346874 28.3 44.89375 27.909374Q45.3 27.6125 46.003124 27.409374Q46.721874 27.190624 47.534374 27.190624Q48.753124 27.190624 49.675 27.55Q50.596874 27.89375 51.034374 28.503124Q51.471874 29.096874 51.64375 30.096874L49.925 30.33125Q49.8 29.534374 49.2375 29.096874Q48.675 28.64375 47.659374 28.64375Q46.440624 28.64375 45.925 29.05Q45.409374 29.440624 45.409374 29.971874Q45.409374 30.315624 45.628124 30.596874Q45.83125 30.878124 46.3 31.065624Q46.565624 31.159374 47.846874 31.503124Q49.721874 32.003124 50.45625 32.33125Q51.190624 32.64375 51.6125 33.253124Q52.034374 33.846874 52.034374 34.753124Q52.034374 35.628124 51.51875 36.409374Q51.003124 37.190624 50.034374 37.6125Q49.065624 38.034374 47.846874 38.034374Q45.83125 38.034374 44.76875 37.190624Q43.70625 36.346874 43.409374 34.70625ZM61.221874 34.45625L63.034374 34.690624Q62.6125 36.26875 61.440624 37.159374Q60.284374 38.034374 58.471874 38.034374Q56.20625 38.034374 54.8625 36.64375Q53.534374 35.2375 53.534374 32.70625Q53.534374 30.08125 54.878124 28.64375Q56.221874 27.190624 58.378124 27.190624Q60.45625 27.190624 61.76875 28.6125Q63.096874 30.01875 63.096874 32.596874Q63.096874 32.753124 63.08125 33.065624L55.346874 33.065624Q55.440624 34.76875 56.315624 35.675Q57.190624 36.58125 58.4875 36.58125Q59.45625 36.58125 60.128124 36.08125Q60.815624 35.565624 61.221874 34.45625ZM55.440624 31.6125L61.2375 31.6125Q61.128124 30.315624 60.58125 29.659374Q59.7375 28.64375 58.39375 28.64375Q57.190624 28.64375 56.3625 29.45625Q55.534374 30.253124 55.440624 31.6125ZM65.65938 37.8L65.65938 23.4875L67.56563 23.4875L67.56563 37.8L65.65938 37.8ZM71.1125 37.8L71.1125 27.425L72.70625 27.425L72.70625 28.909374Q73.84688 27.190624 76.00313 27.190624Q76.94063 27.190624 77.72188 27.534374Q78.51875 27.8625 78.90938 28.409374Q79.3 28.95625 79.45625 29.70625Q79.55 30.20625 79.55 31.425L79.55 37.8L77.78438 37.8L77.78438 31.4875Q77.78438 30.409374 77.58125 29.878124Q77.37813 29.346874 76.84688 29.034374Q76.33125 28.721874 75.62813 28.721874Q74.50313 28.721874 73.69063 29.440624Q72.87813 30.14375 72.87813 32.128124L72.87813 37.8L71.1125 37.8ZM81.37813 37.8L81.37813 23.4875L91.7375 23.4875L91.7375 25.175L83.28438 25.175L83.28438 29.55L91.19063 29.55L91.19063 31.2375L83.28438 31.2375L83.28438 36.1125L92.06563 36.1125L92.06563 37.8L81.37813 37.8ZM92.94063 37.8L96.7375 32.409374L93.2375 27.425L95.425 27.425L97.01875 29.8625Q97.47188 30.55 97.7375 31.01875Q98.175 30.378124 98.53438 29.878124L100.28438 27.425L102.37813 27.425L98.8 32.315624L102.65938 37.8L100.50313 37.8L98.3625 34.58125L97.8 33.70625L95.08125 37.8L92.94063 37.8ZM103.1125 41.76875L103.1125 27.425L104.72188 27.425L104.72188 28.76875Q105.28438 27.9875 105.9875 27.596874Q106.70625 27.190624 107.72188 27.190624Q109.05 27.190624 110.06563 27.878124Q111.08125 28.565624 111.59688 29.815624Q112.12813 31.05 112.12813 32.534374Q112.12813 34.128124 111.55 35.409374Q110.9875 36.675 109.89375 37.3625Q108.8 38.034374 107.59688 38.034374Q106.72188 38.034374 106.01875 37.659374Q105.33125 37.284374 104.87813 36.721874L104.87813 41.76875L103.1125 41.76875ZM104.70625 32.675Q104.70625 34.675 105.51875 35.628124Q106.33125 36.58125 107.4875 36.58125Q108.65938 36.58125 109.4875 35.596874Q110.33125 34.6125 110.33125 32.51875Q110.33125 30.55 109.50313 29.565624Q108.69063 28.565624 107.56563 28.565624Q106.44063 28.565624 105.56563 29.628124Q104.70625 30.675 104.70625 32.675ZM113.47188 32.6125Q113.47188 29.7375 115.06563 28.346874Q116.40938 27.190624 118.33125 27.190624Q120.47188 27.190624 121.81563 28.596874Q123.175 30.003124 123.175 32.471874Q123.175 34.471874 122.58125 35.628124Q121.9875 36.76875 120.83125 37.409374Q119.69063 38.034374 118.33125 38.034374Q116.14375 38.034374 114.8 36.64375Q113.47188 35.2375 113.47188 32.6125ZM115.26875 32.6125Q115.26875 34.6125 116.12813 35.596874Q117.00313 36.58125 118.33125 36.58125Q119.64375 36.58125 120.50313 35.596874Q121.37813 34.596874 121.37813 32.55Q121.37813 30.628124 120.50313 29.64375Q119.62813 28.64375 118.33125 28.64375Q117.00313 28.64375 116.12813 29.64375Q115.26875 30.628124 115.26875 32.6125ZM125.1125 37.8L125.1125 27.425L126.70625 27.425L126.70625 28.909374Q127.84688 27.190624 130.00313 27.190624Q130.94063 27.190624 131.72188 27.534374Q132.51875 27.8625 132.90938 28.409374Q133.3 28.95625 133.45625 29.70625Q133.55 30.20625 133.55 31.425L133.55 37.8L131.78438 37.8L131.78438 31.4875Q131.78438 30.409374 131.58125 29.878124Q131.37813 29.346874 130.84688 29.034374Q130.33125 28.721874 129.62813 28.721874Q128.50313 28.721874 127.69063 29.440624Q126.87813 30.14375 126.87813 32.128124L126.87813 37.8L125.1125 37.8ZM142.22188 34.45625L144.03438 34.690624Q143.6125 36.26875 142.44063 37.159374Q141.28438 38.034374 139.47188 38.034374Q137.20625 38.034374 135.8625 36.64375Q134.53438 35.2375 134.53438 32.70625Q134.53438 30.08125 135.87813 28.64375Q137.22188 27.190624 139.37813 27.190624Q141.45625 27.190624 142.76875 28.6125Q144.09688 30.01875 144.09688 32.596874Q144.09688 32.753124 144.08125 33.065624L136.34688 33.065624Q136.44063 34.76875 137.31563 35.675Q138.19063 36.58125 139.4875 36.58125Q140.45625 36.58125 141.12813 36.08125Q141.81563 35.565624 142.22188 34.45625ZM136.44063 31.6125L142.2375 31.6125Q142.12813 30.315624 141.58125 29.659374Q140.7375 28.64375 139.39375 28.64375Q138.19063 28.64375 137.3625 29.45625Q136.53438 30.253124 136.44063 31.6125ZM146.1125 37.8L146.1125 27.425L147.70625 27.425L147.70625 28.909374Q148.84688 27.190624 151.00313 27.190624Q151.94063 27.190624 152.72188 27.534374Q153.51875 27.8625 153.90938 28.409374Q154.3 28.95625 154.45625 29.70625Q154.55 30.20625 154.55 31.425L154.55 37.8L152.78438 37.8L152.78438 31.4875Q152.78438 30.409374 152.58125 29.878124Q152.37813 29.346874 151.84688 29.034374Q151.33125 28.721874 150.62813 28.721874Q149.50313 28.721874 148.69063 29.440624Q147.87813 30.14375 147.87813 32.128124L147.87813 37.8L146.1125 37.8ZM159.95625 36.221874L160.20625 37.784374Q159.47188 37.940624 158.87813 37.940624Q157.925 37.940624 157.39375 37.64375Q156.87813 37.33125 156.65938 36.846874Q156.44063 36.346874 156.44063 34.76875L156.44063 28.8L155.15938 28.8L155.15938 27.425L156.44063 27.425L156.44063 24.8625L158.19063 23.8L158.19063 27.425L159.95625 27.425L159.95625 28.8L158.19063 28.8L158.19063 34.8625Q158.19063 35.6125 158.28438 35.83125Q158.37813 36.034374 158.58125 36.175Q158.8 36.3 159.19063 36.3Q159.47188 36.3 159.95625 36.221874ZM162.12813 25.503124L162.12813 23.4875L163.89375 23.4875L163.89375 25.503124L162.12813 25.503124ZM162.12813 37.8L162.12813 27.425L163.89375 27.425L163.89375 37.8L162.12813 37.8ZM172.89375 36.51875Q171.90938 37.346874 171.00313 37.690624Q170.09688 38.034374 169.06563 38.034374Q167.3625 38.034374 166.44063 37.20625Q165.51875 36.3625 165.51875 35.065624Q165.51875 34.3 165.8625 33.675Q166.22188 33.05 166.78438 32.675Q167.34688 32.284374 168.05 32.08125Q168.56563 31.95625 169.6125 31.815624Q171.7375 31.565624 172.7375 31.221874Q172.75313 30.8625 172.75313 30.753124Q172.75313 29.690624 172.25313 29.2375Q171.58125 28.64375 170.25313 28.64375Q169.00313 28.64375 168.40938 29.08125Q167.83125 29.51875 167.55 30.628124L165.83125 30.39375Q166.06563 29.284374 166.59688 28.6125Q167.12813 27.925 168.14375 27.565624Q169.15938 27.190624 170.50313 27.190624Q171.83125 27.190624 172.65938 27.503124Q173.4875 27.815624 173.87813 28.3Q174.26875 28.76875 174.425 29.4875Q174.51875 29.940624 174.51875 31.1125L174.51875 33.45625Q174.51875 35.909374 174.62813 36.565624Q174.7375 37.20625 175.08125 37.8L173.2375 37.8Q172.97188 37.253124 172.89375 36.51875ZM172.7375 32.596874Q171.78438 32.9875 169.8625 33.253124Q168.78438 33.409374 168.33125 33.6125Q167.89375 33.8 167.64375 34.175Q167.39375 34.55 167.39375 35.01875Q167.39375 35.721874 167.925 36.190624Q168.45625 36.659374 169.4875 36.659374Q170.50313 36.659374 171.28438 36.221874Q172.08125 35.76875 172.45625 35.003124Q172.7375 34.39375 172.7375 33.2375L172.7375 32.596874ZM177.08125 37.8L177.08125 23.4875L178.83125 23.4875L178.83125 37.8L177.08125 37.8Z" fill-rule="nonzero"/></svg>