<svg version="1.1" viewBox="0.0 0.0 608.0 376.0" fill="none" stroke="none" stroke-linecap="square" stroke-miterlimit="10" width="608" height="376" xmlns:xlink="http://www.w3.org/1999/xlink" xmlns="http://www.w3.org/2000/svg"><path fill="#ffffff" d="M0 0L608.0 0L608.0 376.0L0 376.0L0 0Z" fill-rule="nonzero"/><path stroke="#333333" stroke-width="1.0" stroke-linecap="butt" d="M80.5 318.5L589.5 318.5" fill-rule="nonzero"/><path stroke="#cccccc" stroke-width="1.0" stroke-linecap="butt" d="M80.5 254.5L589.5 254.5" fill-rule="nonzero"/><path stroke="#cccccc" stroke-width="1.0" stroke-linecap="butt" d="M80.5 190.5L589.5 190.5" fill-rule="nonzero"/><path stroke="#cccccc" stroke-width="1.0" stroke-linecap="butt" d="M80.5 126.5L589.5 126.5" fill-rule="nonzero"/><path stroke="#cccccc" stroke-width="1.0" stroke-linecap="butt" d="M80.5 62.5L589.5 62.5" fill-rule="nonzero"/><path stroke="#000000" stroke-width="1.0" stroke-linecap="butt" d="M80.5 318.5L80.5 62.5" fill-rule="nonzero"/><clipPath id="id_0"><path d="M80.8 62.333332L589.2 62.333332L589.2 318.2L80.8 318.2L80.8 62.333332Z" clip-rule="nonzero"/></clipPath><path stroke="#4285f4" stroke-width="2.0" stroke-linecap="butt" clip-path="url(#id_0)" d="M83.31683 318.2C83.31683 318.2 86.67261 311.4284 88.350494 308.11783C90.02838 304.80725 91.70627 301.54785 93.384155 298.3366C95.06205 295.12534 96.73994 291.96423 98.41782 288.85025C100.09571 285.7363 101.7736 282.67145 103.451485 279.6528C105.12937 276.63416 106.80726 273.66364 108.485146 270.73834C110.16303 267.81302 111.84093 264.93488 113.518814 262.10095C115.1967 259.26706 116.87459 256.47934 118.552475 253.73491C120.23036 250.99048 121.90825 248.29126 123.586136 245.63441C125.26402 242.97755 126.94192 240.36496 128.6198 237.7938C130.29768 235.22264 131.97557 232.69478 133.65347 230.20746C135.33136 227.72012 137.00925 225.27516 138.68713 222.86981C140.36502 220.46446 142.04291 218.10057 143.7208 215.77539C145.39868 213.45021 147.07657 211.16556 148.75446 208.91873C150.43234 206.67192 152.11023 204.46472 153.78812 202.2945C155.466 200.12425 157.14389 197.99274 158.82178 195.89734C160.49966 193.80193 162.17755 191.74435 163.85544 189.72202C165.53334 187.69969 167.21123 185.71432 168.88911 183.76335C170.567 181.8124 172.24489 179.89752 173.92278 178.01622C175.60066 176.13492 177.27855 174.28886 178.95644 172.47554C180.63432 170.66223 182.31221 168.88332 183.9901 167.13632C185.66798 165.38933 187.34587 163.6759 189.02376 161.9936C190.70164 160.31131 192.37953 158.66174 194.05742 157.04253C195.73532 155.4233 197.41321 153.836 199.0911 152.27824C200.76898 150.7205 202.44687 149.19388 204.12476 147.69601C205.80264 146.19817 207.48053 144.73065 209.15842 143.29115C210.8363 141.85164 212.51419 140.44168 214.19208 139.05899C215.86996 137.67628 217.54785 136.32237 219.22574 134.99496C220.90363 133.66756 222.58151 132.36818 224.2594 131.09457C225.93729 129.82097 227.61519 128.57463 229.29308 127.353355C230.97096 126.13208 232.64885 124.937325 234.32674 123.76692C236.00462 122.59652 237.68251 121.451904 239.3604 120.33094C241.03828 119.20998 242.71617 118.11408 244.39406 117.041145C246.07195 115.968216 247.74983 114.91963 249.42772 113.89333C251.1056 112.867035 252.7835 111.864395 254.46138 110.883354C256.13928 109.90232 257.81717 108.94425 259.49506 108.00713C261.17294 107.070015 262.85083 106.155174 264.52872 105.260635C266.2066 104.3661 267.8845 103.49317 269.56238 102.63991C271.24026 101.786644 272.91815 100.95433 274.59604 100.14105C276.27393 99.327774 277.9518 98.53479 279.6297 97.76022C281.3076 96.98566 282.98547 96.23075 284.66336 95.49365C286.34125 94.75655 288.01913 94.03848 289.69702 93.33762C291.3749 92.63676 293.0528 91.95431 294.73068 91.288475C296.40857 90.62264 298.08646 89.97461 299.76434 89.34262C301.44223 88.71063 303.12012 88.09585 304.79803 87.49653C306.47592 86.89722 308.1538 86.314514 309.8317 85.746735C311.50958 85.17895 313.18747 84.6272 314.86536 84.08982C316.54324 83.55244 318.22113 83.030525 319.89902 82.522446C321.5769 82.01436 323.2548 81.521194 324.93268 81.04132C326.61057 80.561455 328.28845 80.09595 329.96634 79.64323C331.64423 79.190506 333.3221 78.75162 335.0 78.325C336.6779 77.898384 338.35577 77.48507 340.03366 77.083534C341.71155 76.68201 343.38943 76.29326 345.06732 75.9158C346.7452 75.538345 348.4231 75.17317 350.10098 74.81881C351.77887 74.464455 353.45676 74.12187 355.13464 73.78965C356.81253 73.45743 358.49042 73.1365 360.1683 72.82546C361.8462 72.514435 363.52408 72.21422 365.20197 71.92346C366.87988 71.6327 368.55777 71.352295 370.23566 71.0809C371.91354 70.80952 373.59143 70.54803 375.26932 70.29513C376.9472 70.04223 378.6251 69.79878 380.30298 69.563515C381.98087 69.32825 383.65875 69.102 385.33664 68.88352C387.01453 68.66505 388.6924 68.45516 390.3703 68.252655C392.0482 68.050156 393.72607 67.85583 395.40396 67.6685C397.08185 67.48117 398.75974 67.30162 400.43762 67.128685C402.1155 66.95576 403.7934 66.79021 405.47128 66.63091C407.14917 66.47162 408.82706 66.31932 410.50494 66.172935C412.18283 66.02654 413.86072 65.88677 415.5386 65.75257C417.2165 65.61837 418.89438 65.490425 420.57227 65.36771C422.25015 65.244995 423.92804 65.12819 425.60593 65.01629C427.2838 64.90439 428.96173 64.79806 430.63962 64.69631C432.3175 64.594574 433.9954 64.49807 435.67328 64.40585C437.35117 64.31364 439.02905 64.22633 440.70694 64.14303C442.38483 64.05972 444.0627 63.981018 445.7406 63.906033C447.4185 63.831047 449.09637 63.760357 450.77426 63.693115C452.45215 63.625874 454.13004 63.562634 455.80792 63.502583C457.4858 63.44253 459.1637 63.386204 460.84158 63.332813C462.51947 63.279423 464.19736 63.22948 465.87524 63.182236C467.55313 63.134995 469.23102 63.09094 470.9089 63.049355C472.5868 63.007767 474.26468 62.969116 475.94257 62.932716C477.62045 62.896317 479.29834 62.86261 480.97623 62.830944C482.6541 62.79928 484.332 62.77008 486.0099 62.74272C487.68777 62.71536 489.36566 62.690247 491.04358 62.666782C492.72147 62.64332 494.39935 62.62189 496.07724 62.601933C497.75513 62.581974 499.433 62.563854 501.1109 62.547035C502.7888 62.530216 504.46667 62.515045 506.14456 62.50102C507.82245 62.486988 509.50034 62.47443 511.17822 62.462868C512.8561 62.4513 514.534 62.441036 516.21185 62.431625C517.8898 62.42222 519.5676 62.41395 521.24554 62.40641C522.92346 62.398872 524.6013 62.392326 526.27924 62.38639C527.9571 62.380455 529.635 62.375374 531.31287 62.370796C532.9908 62.366215 534.66864 62.362366 536.34656 62.35892C538.0244 62.355473 539.70233 62.35264 541.3802 62.35012C543.0581 62.347603 544.73596 62.34559 546.4139 62.343815C548.09174 62.34204 549.76965 62.34067 551.4475 62.339478C553.1254 62.338284 554.8033 62.337406 556.4812 62.33665C558.15906 62.33589 559.837 62.335377 561.51483 62.334934C563.19275 62.334488 564.8706 62.33422 566.5485 62.33399C568.2264 62.333755 569.9043 62.33364 571.58215 62.33354C573.2601 62.33344 574.9379 62.33341 576.61584 62.333374C578.2937 62.33334 579.9716 62.333344 581.6495 62.333336C583.3274 62.33333 586.68317 62.333332 586.68317 62.333332" fill-rule="nonzero"/><path fill="#000000" fill-opacity="0.0" clip-path="url(#id_0)" d="M86.31683 318.2C86.31683 319.85684 84.97369 321.2 83.31683 321.2C81.65998 321.2 80.31683 319.85684 80.31683 318.2C80.31683 316.54315 81.65998 315.2 83.31683 315.2C84.97369 315.2 86.31683 316.54315 86.31683 318.2Z" fill-rule="nonzero"/><path fill="#000000" fill-opacity="0.0" clip-path="url(#id_0)" d="M91.350494 308.11783C91.350494 309.7747 90.00735 311.11783 88.350494 311.11783C86.69364 311.11783 85.350494 309.7747 85.350494 308.11783C85.350494 306.46097 86.69364 305.11783 88.350494 305.11783C90.00735 305.11783 91.350494 306.46097 91.350494 308.11783Z" fill-rule="nonzero"/><path fill="#000000" fill-opacity="0.0" clip-path="url(#id_0)" d="M96.384155 298.3366C96.384155 299.99347 95.041016 301.3366 93.384155 301.3366C91.7273 301.3366 90.384155 299.99347 90.384155 298.3366C90.384155 296.67975 91.7273 295.3366 93.384155 295.3366C95.041016 295.3366 96.384155 296.67975 96.384155 298.3366Z" fill-rule="nonzero"/><path fill="#000000" fill-opacity="0.0" clip-path="url(#id_0)" d="M101.41782 288.85025C101.41782 290.5071 100.07468 291.85025 98.41782 291.85025C96.76097 291.85025 95.41782 290.5071 95.41782 288.85025C95.41782 287.1934 96.76097 285.85025 98.41782 285.85025C100.07468 285.85025 101.41782 287.1934 101.41782 288.85025Z" fill-rule="nonzero"/><path fill="#000000" fill-opacity="0.0" clip-path="url(#id_0)" d="M106.451485 279.6528C106.451485 281.30966 105.10834 282.6528 103.451485 282.6528C101.79463 282.6528 100.451485 281.30966 100.451485 279.6528C100.451485 277.99594 101.79463 276.6528 103.451485 276.6528C105.10834 276.6528 106.451485 277.99594 106.451485 279.6528Z" fill-rule="nonzero"/><path fill="#000000" fill-opacity="0.0" clip-path="url(#id_0)" d="M111.485146 270.73834C111.485146 272.39517 110.142006 273.73834 108.485146 273.73834C106.82829 273.73834 105.485146 272.39517 105.485146 270.73834C105.485146 269.08148 106.82829 267.73834 108.485146 267.73834C110.142006 267.73834 111.485146 269.08148 111.485146 270.73834Z" fill-rule="nonzero"/><path fill="#000000" fill-opacity="0.0" clip-path="url(#id_0)" d="M116.518814 262.10095C116.518814 263.7578 115.17567 265.10095 113.518814 265.10095C111.86196 265.10095 110.518814 263.7578 110.518814 262.10095C110.518814 260.44412 111.86196 259.10095 113.518814 259.10095C115.17567 259.10095 116.518814 260.44412 116.518814 262.10095Z" fill-rule="nonzero"/><path fill="#000000" fill-opacity="0.0" clip-path="url(#id_0)" d="M121.552475 253.73491C121.552475 255.39177 120.20933 256.7349 118.552475 256.7349C116.89562 256.7349 115.552475 255.39177 115.552475 253.73491C115.552475 252.07805 116.89562 250.73491 118.552475 250.73491C120.20933 250.73491 121.552475 252.07805 121.552475 253.73491Z" fill-rule="nonzero"/><path fill="#000000" fill-opacity="0.0" clip-path="url(#id_0)" d="M126.586136 245.63441C126.586136 247.29126 125.243 248.63441 123.586136 248.63441C121.92928 248.63441 120.586136 247.29126 120.586136 245.63441C120.586136 243.97755 121.92928 242.63441 123.586136 242.63441C125.243 242.63441 126.586136 243.97755 126.586136 245.63441Z" fill-rule="nonzero"/><path fill="#000000" fill-opacity="0.0" clip-path="url(#id_0)" d="M131.6198 237.7938C131.6198 239.45065 130.27666 240.7938 128.6198 240.7938C126.962944 240.7938 125.619804 239.45065 125.619804 237.7938C125.619804 236.13695 126.962944 234.7938 128.6198 234.7938C130.27666 234.7938 131.6198 236.13695 131.6198 237.7938Z" fill-rule="nonzero"/><path fill="#000000" fill-opacity="0.0" clip-path="url(#id_0)" d="M136.65347 230.20746C136.65347 231.8643 135.31032 233.20746 133.65347 233.20746C131.99661 233.20746 130.65347 231.8643 130.65347 230.20746C130.65347 228.5506 131.99661 227.20746 133.65347 227.20746C135.31032 227.20746 136.65347 228.5506 136.65347 230.20746Z" fill-rule="nonzero"/><path fill="#000000" fill-opacity="0.0" clip-path="url(#id_0)" d="M141.68713 222.86981C141.68713 224.52667 140.34398 225.86981 138.68713 225.86981C137.03027 225.86981 135.68713 224.52667 135.68713 222.86981C135.68713 221.21297 137.03027 219.86981 138.68713 219.86981C140.34398 219.86981 141.68713 221.21297 141.68713 222.86981Z" fill-rule="nonzero"/><path fill="#000000" fill-opacity="0.0" clip-path="url(#id_0)" d="M146.7208 215.77539C146.7208 217.43224 145.37764 218.77539 143.7208 218.77539C142.06393 218.77539 140.7208 217.43224 140.7208 215.77539C140.7208 214.11853 142.06393 212.77539 143.7208 212.77539C145.37764 212.77539 146.7208 214.11853 146.7208 215.77539Z" fill-rule="nonzero"/><path fill="#000000" fill-opacity="0.0" clip-path="url(#id_0)" d="M151.75446 208.91873C151.75446 210.57559 150.41132 211.91873 148.75446 211.91873C147.0976 211.91873 145.75446 210.57559 145.75446 208.91873C145.75446 207.26189 147.0976 205.91873 148.75446 205.91873C150.41132 205.91873 151.75446 207.26189 151.75446 208.91873Z" fill-rule="nonzero"/><path fill="#000000" fill-opacity="0.0" clip-path="url(#id_0)" d="M156.78812 202.2945C156.78812 203.95134 155.44498 205.2945 153.78812 205.2945C152.13127 205.2945 150.78812 203.95134 150.78812 202.2945C150.78812 200.63763 152.13127 199.2945 153.78812 199.2945C155.44498 199.2945 156.78812 200.63763 156.78812 202.2945Z" fill-rule="nonzero"/><path fill="#000000" fill-opacity="0.0" clip-path="url(#id_0)" d="M161.82178 195.89734C161.82178 197.55418 160.47864 198.89734 158.82178 198.89734C157.16493 198.89734 155.82178 197.55418 155.82178 195.89734C155.82178 194.24048 157.16493 192.89734 158.82178 192.89734C160.47864 192.89734 161.82178 194.24048 161.82178 195.89734Z" fill-rule="nonzero"/><path fill="#000000" fill-opacity="0.0" clip-path="url(#id_0)" d="M166.85544 189.72202C166.85544 191.37888 165.5123 192.72202 163.85544 192.72202C162.1986 192.72202 160.85544 191.37888 160.85544 189.72202C160.85544 188.06517 162.1986 186.72202 163.85544 186.72202C165.5123 186.72202 166.85544 188.06517 166.85544 189.72202Z" fill-rule="nonzero"/><path fill="#000000" fill-opacity="0.0" clip-path="url(#id_0)" d="M171.88911 183.76335C171.88911 185.42021 170.54596 186.76335 168.88911 186.76335C167.23225 186.76335 165.88911 185.42021 165.88911 183.76335C165.88911 182.1065 167.23225 180.76335 168.88911 180.76335C170.54596 180.76335 171.88911 182.1065 171.88911 183.76335Z" fill-rule="nonzero"/><path fill="#000000" fill-opacity="0.0" clip-path="url(#id_0)" d="M176.92278 178.01622C176.92278 179.67308 175.57962 181.01622 173.92278 181.01622C172.26591 181.01622 170.92278 179.67308 170.92278 178.01622C170.92278 176.35936 172.26591 175.01622 173.92278 175.01622C175.57962 175.01622 176.92278 176.35936 176.92278 178.01622Z" fill-rule="nonzero"/><path fill="#000000" fill-opacity="0.0" clip-path="url(#id_0)" d="M181.95644 172.47554C181.95644 174.1324 180.6133 175.47554 178.95644 175.47554C177.29958 175.47554 175.95644 174.1324 175.95644 172.47554C175.95644 170.8187 177.29958 169.47554 178.95644 169.47554C180.6133 169.47554 181.95644 170.8187 181.95644 172.47554Z" fill-rule="nonzero"/><path fill="#000000" fill-opacity="0.0" clip-path="url(#id_0)" d="M186.9901 167.13632C186.9901 168.79317 185.64696 170.13632 183.9901 170.13632C182.33325 170.13632 180.9901 168.79317 180.9901 167.13632C180.9901 165.47946 182.33325 164.13632 183.9901 164.13632C185.64696 164.13632 186.9901 165.47946 186.9901 167.13632Z" fill-rule="nonzero"/><path fill="#000000" fill-opacity="0.0" clip-path="url(#id_0)" d="M192.02376 161.9936C192.02376 163.65047 190.68062 164.9936 189.02376 164.9936C187.36691 164.9936 186.02376 163.65047 186.02376 161.9936C186.02376 160.33675 187.36691 158.9936 189.02376 158.9936C190.68062 158.9936 192.02376 160.33675 192.02376 161.9936Z" fill-rule="nonzero"/><path fill="#000000" fill-opacity="0.0" clip-path="url(#id_0)" d="M197.05742 157.04253C197.05742 158.69937 195.71428 160.04253 194.05742 160.04253C192.40057 160.04253 191.05742 158.69937 191.05742 157.04253C191.05742 155.38567 192.40057 154.04253 194.05742 154.04253C195.71428 154.04253 197.05742 155.38567 197.05742 157.04253Z" fill-rule="nonzero"/><path fill="#000000" fill-opacity="0.0" clip-path="url(#id_0)" d="M202.0911 152.27824C202.0911 153.9351 200.74794 155.27824 199.0911 155.27824C197.43423 155.27824 196.0911 153.9351 196.0911 152.27824C196.0911 150.6214 197.43423 149.27824 199.0911 149.27824C200.74794 149.27824 202.0911 150.6214 202.0911 152.27824Z" fill-rule="nonzero"/><path fill="#000000" fill-opacity="0.0" clip-path="url(#id_0)" d="M207.12476 147.69601C207.12476 149.35287 205.7816 150.69601 204.12476 150.69601C202.4679 150.69601 201.12476 149.35287 201.12476 147.69601C201.12476 146.03917 202.4679 144.69601 204.12476 144.69601C205.7816 144.69601 207.12476 146.03917 207.12476 147.69601Z" fill-rule="nonzero"/><path fill="#000000" fill-opacity="0.0" clip-path="url(#id_0)" d="M212.15842 143.29115C212.15842 144.948 210.81528 146.29115 209.15842 146.29115C207.50156 146.29115 206.15842 144.948 206.15842 143.29115C206.15842 141.6343 207.50156 140.29115 209.15842 140.29115C210.81528 140.29115 212.15842 141.6343 212.15842 143.29115Z" fill-rule="nonzero"/><path fill="#000000" fill-opacity="0.0" clip-path="url(#id_0)" d="M217.19208 139.05899C217.19208 140.71584 215.84894 142.05899 214.19208 142.05899C212.53523 142.05899 211.19208 140.71584 211.19208 139.05899C211.19208 137.40213 212.53523 136.05899 214.19208 136.05899C215.84894 136.05899 217.19208 137.40213 217.19208 139.05899Z" fill-rule="nonzero"/><path fill="#000000" fill-opacity="0.0" clip-path="url(#id_0)" d="M222.22574 134.99496C222.22574 136.65182 220.8826 137.99496 219.22574 137.99496C217.5689 137.99496 216.22574 136.65182 216.22574 134.99496C216.22574 133.3381 217.5689 131.99496 219.22574 131.99496C220.8826 131.99496 222.22574 133.3381 222.22574 134.99496Z" fill-rule="nonzero"/><path fill="#000000" fill-opacity="0.0" clip-path="url(#id_0)" d="M227.2594 131.09457C227.2594 132.75143 225.91626 134.09457 224.2594 134.09457C222.60255 134.09457 221.2594 132.75143 221.2594 131.09457C221.2594 129.43771 222.60255 128.09457 224.2594 128.09457C225.91626 128.09457 227.2594 129.43771 227.2594 131.09457Z" fill-rule="nonzero"/><path fill="#000000" fill-opacity="0.0" clip-path="url(#id_0)" d="M232.29308 127.353355C232.29308 129.01021 230.94992 130.35335 229.29308 130.35335C227.63622 130.35335 226.29308 129.01021 226.29308 127.353355C226.29308 125.6965 227.63622 124.353355 229.29308 124.353355C230.94992 124.353355 232.29308 125.6965 232.29308 127.353355Z" fill-rule="nonzero"/><path fill="#000000" fill-opacity="0.0" clip-path="url(#id_0)" d="M237.32674 123.76692C237.32674 125.423775 235.98358 126.76692 234.32674 126.76692C232.66988 126.76692 231.32674 125.423775 231.32674 123.76692C231.32674 122.11007 232.66988 120.76692 234.32674 120.76692C235.98358 120.76692 237.32674 122.11007 237.32674 123.76692Z" fill-rule="nonzero"/><path fill="#000000" fill-opacity="0.0" clip-path="url(#id_0)" d="M242.3604 120.33094C242.3604 121.98779 241.01726 123.33094 239.3604 123.33094C237.70354 123.33094 236.3604 121.98779 236.3604 120.33094C236.3604 118.67409 237.70354 117.33094 239.3604 117.33094C241.01726 117.33094 242.3604 118.67409 242.3604 120.33094Z" fill-rule="nonzero"/><path fill="#000000" fill-opacity="0.0" clip-path="url(#id_0)" d="M247.39406 117.041145C247.39406 118.698 246.05092 120.041145 244.39406 120.041145C242.7372 120.041145 241.39406 118.698 241.39406 117.041145C241.39406 115.38429 242.7372 114.041145 244.39406 114.041145C246.05092 114.041145 247.39406 115.38429 247.39406 117.041145Z" fill-rule="nonzero"/><path fill="#000000" fill-opacity="0.0" clip-path="url(#id_0)" d="M252.42772 113.89333C252.42772 115.550186 251.08458 116.89333 249.42772 116.89333C247.77087 116.89333 246.42772 115.550186 246.42772 113.89333C246.42772 112.23648 247.77087 110.89333 249.42772 110.89333C251.08458 110.89333 252.42772 112.23648 252.42772 113.89333Z" fill-rule="nonzero"/><path fill="#000000" fill-opacity="0.0" clip-path="url(#id_0)" d="M257.4614 110.883354C257.4614 112.540215 256.11826 113.883354 254.46138 113.883354C252.80453 113.883354 251.46138 112.540215 251.46138 110.883354C251.46138 109.2265 252.80453 107.883354 254.46138 107.883354C256.11826 107.883354 257.4614 109.2265 257.4614 110.883354Z" fill-rule="nonzero"/><path fill="#000000" fill-opacity="0.0" clip-path="url(#id_0)" d="M262.49506 108.00713C262.49506 109.66399 261.15192 111.00713 259.49506 111.00713C257.8382 111.00713 256.49506 109.66399 256.49506 108.00713C256.49506 106.35028 257.8382 105.00713 259.49506 105.00713C261.15192 105.00713 262.49506 106.35028 262.49506 108.00713Z" fill-rule="nonzero"/><path fill="#000000" fill-opacity="0.0" clip-path="url(#id_0)" d="M267.52872 105.260635C267.52872 106.91749 266.18558 108.260635 264.52872 108.260635C262.87186 108.260635 261.52872 106.91749 261.52872 105.260635C261.52872 103.60378 262.87186 102.260635 264.52872 102.260635C266.18558 102.260635 267.52872 103.60378 267.52872 105.260635Z" fill-rule="nonzero"/><path fill="#000000" fill-opacity="0.0" clip-path="url(#id_0)" d="M272.56238 102.63991C272.56238 104.29676 271.21924 105.63991 269.56238 105.63991C267.90552 105.63991 266.56238 104.29676 266.56238 102.63991C266.56238 100.983055 267.90552 99.63991 269.56238 99.63991C271.21924 99.63991 272.56238 100.983055 272.56238 102.63991Z" fill-rule="nonzero"/><path fill="#000000" fill-opacity="0.0" clip-path="url(#id_0)" d="M277.59604 100.14105C277.59604 101.797905 276.2529 103.14105 274.59604 103.14105C272.93918 103.14105 271.59604 101.797905 271.59604 100.14105C271.59604 98.4842 272.93918 97.14105 274.59604 97.14105C276.2529 97.14105 277.59604 98.4842 277.59604 100.14105Z" fill-rule="nonzero"/><path fill="#000000" fill-opacity="0.0" clip-path="url(#id_0)" d="M282.6297 97.76022C282.6297 99.417076 281.28656 100.76022 279.6297 100.76022C277.97284 100.76022 276.6297 99.417076 276.6297 97.76022C276.6297 96.10337 277.97284 94.76022 279.6297 94.76022C281.28656 94.76022 282.6297 96.10337 282.6297 97.76022Z" fill-rule="nonzero"/><path fill="#000000" fill-opacity="0.0" clip-path="url(#id_0)" d="M287.66336 95.49365C287.66336 97.150505 286.32022 98.49365 284.66336 98.49365C283.0065 98.49365 281.66336 97.150505 281.66336 95.49365C281.66336 93.8368 283.0065 92.49365 284.66336 92.49365C286.32022 92.49365 287.66336 93.8368 287.66336 95.49365Z" fill-rule="nonzero"/><path fill="#000000" fill-opacity="0.0" clip-path="url(#id_0)" d="M292.69702 93.33762C292.69702 94.99448 291.35388 96.33762 289.69702 96.33762C288.04016 96.33762 286.69702 94.99448 286.69702 93.33762C286.69702 91.68076 288.04016 90.33762 289.69702 90.33762C291.35388 90.33762 292.69702 91.68076 292.69702 93.33762Z" fill-rule="nonzero"/><path fill="#000000" fill-opacity="0.0" clip-path="url(#id_0)" d="M297.73068 91.288475C297.73068 92.94533 296.38754 94.288475 294.73068 94.288475C293.07385 94.288475 291.73068 92.94533 291.73068 91.288475C291.73068 89.63162 293.07385 88.288475 294.73068 88.288475C296.38754 88.288475 297.73068 89.63162 297.73068 91.288475Z" fill-rule="nonzero"/><path fill="#000000" fill-opacity="0.0" clip-path="url(#id_0)" d="M302.76434 89.34262C302.76434 90.99947 301.4212 92.34262 299.76434 92.34262C298.1075 92.34262 296.76434 90.99947 296.76434 89.34262C296.76434 87.68577 298.1075 86.34262 299.76434 86.34262C301.4212 86.34262 302.76434 87.68577 302.76434 89.34262Z" fill-rule="nonzero"/><path fill="#000000" fill-opacity="0.0" clip-path="url(#id_0)" d="M307.79803 87.49653C307.79803 89.15338 306.45486 90.49653 304.79803 90.49653C303.14117 90.49653 301.79803 89.15338 301.79803 87.49653C301.79803 85.839676 303.14117 84.49653 304.79803 84.49653C306.45486 84.49653 307.79803 85.839676 307.79803 87.49653Z" fill-rule="nonzero"/><path fill="#000000" fill-opacity="0.0" clip-path="url(#id_0)" d="M312.8317 85.746735C312.8317 87.40359 311.48853 88.746735 309.8317 88.746735C308.17484 88.746735 306.8317 87.40359 306.8317 85.746735C306.8317 84.08988 308.17484 82.746735 309.8317 82.746735C311.48853 82.746735 312.8317 84.08988 312.8317 85.746735Z" fill-rule="nonzero"/><path fill="#000000" fill-opacity="0.0" clip-path="url(#id_0)" d="M317.86536 84.08982C317.86536 85.74667 316.5222 87.08982 314.86536 87.08982C313.2085 87.08982 311.86536 85.74667 311.86536 84.08982C311.86536 82.43297 313.2085 81.08982 314.86536 81.08982C316.5222 81.08982 317.86536 82.43297 317.86536 84.08982Z" fill-rule="nonzero"/><path fill="#000000" fill-opacity="0.0" clip-path="url(#id_0)" d="M322.89902 82.522446C322.89902 84.1793 321.55588 85.522446 319.89902 85.522446C318.24216 85.522446 316.89902 84.1793 316.89902 82.522446C316.89902 80.86559 318.24216 79.522446 319.89902 79.522446C321.55588 79.522446 322.89902 80.86559 322.89902 82.522446Z" fill-rule="nonzero"/><path fill="#000000" fill-opacity="0.0" clip-path="url(#id_0)" d="M327.93268 81.04132C327.93268 82.69817 326.58954 84.04132 324.93268 84.04132C323.27582 84.04132 321.93268 82.69817 321.93268 81.04132C321.93268 79.38447 323.27582 78.04132 324.93268 78.04132C326.58954 78.04132 327.93268 79.38447 327.93268 81.04132Z" fill-rule="nonzero"/><path fill="#000000" fill-opacity="0.0" clip-path="url(#id_0)" d="M332.96634 79.64323C332.96634 81.30008 331.6232 82.64323 329.96634 82.64323C328.30948 82.64323 326.96634 81.30008 326.96634 79.64323C326.96634 77.986374 328.30948 76.64323 329.96634 76.64323C331.6232 76.64323 332.96634 77.986374 332.96634 79.64323Z" fill-rule="nonzero"/><path fill="#000000" fill-opacity="0.0" clip-path="url(#id_0)" d="M338.0 78.325C338.0 79.98186 336.65686 81.325 335.0 81.325C333.34314 81.325 332.0 79.98186 332.0 78.325C332.0 76.668144 333.34314 75.325 335.0 75.325C336.65686 75.325 338.0 76.668144 338.0 78.325Z" fill-rule="nonzero"/><path fill="#000000" fill-opacity="0.0" clip-path="url(#id_0)" d="M343.03366 77.083534C343.03366 78.740395 341.69052 80.083534 340.03366 80.083534C338.3768 80.083534 337.03366 78.740395 337.03366 77.083534C337.03366 75.42668 338.3768 74.083534 340.03366 74.083534C341.69052 74.083534 343.03366 75.42668 343.03366 77.083534Z" fill-rule="nonzero"/><path fill="#000000" fill-opacity="0.0" clip-path="url(#id_0)" d="M348.06732 75.9158C348.06732 77.572655 346.72418 78.9158 345.06732 78.9158C343.41046 78.9158 342.06732 77.572655 342.06732 75.9158C342.06732 74.25895 343.41046 72.9158 345.06732 72.9158C346.72418 72.9158 348.06732 74.25895 348.06732 75.9158Z" fill-rule="nonzero"/><path fill="#000000" fill-opacity="0.0" clip-path="url(#id_0)" d="M353.10098 74.81881C353.10098 76.47566 351.75784 77.81881 350.10098 77.81881C348.44412 77.81881 347.10098 76.47566 347.10098 74.81881C347.10098 73.16196 348.44412 71.81881 350.10098 71.81881C351.75784 71.81881 353.10098 73.16196 353.10098 74.81881Z" fill-rule="nonzero"/><path fill="#000000" fill-opacity="0.0" clip-path="url(#id_0)" d="M358.13464 73.78965C358.13464 75.4465 356.7915 76.78965 355.13464 76.78965C353.4778 76.78965 352.13464 75.4465 352.13464 73.78965C352.13464 72.1328 353.4778 70.78965 355.13464 70.78965C356.7915 70.78965 358.13464 72.1328 358.13464 73.78965Z" fill-rule="nonzero"/><path fill="#000000" fill-opacity="0.0" clip-path="url(#id_0)" d="M363.1683 72.82546C363.1683 74.48232 361.82516 75.82546 360.1683 75.82546C358.51147 75.82546 357.1683 74.48232 357.1683 72.82546C357.1683 71.16861 358.51147 69.82546 360.1683 69.82546C361.82516 69.82546 363.1683 71.16861 363.1683 72.82546Z" fill-rule="nonzero"/><path fill="#000000" fill-opacity="0.0" clip-path="url(#id_0)" d="M368.20197 71.92346C368.20197 73.580315 366.85883 74.92346 365.20197 74.92346C363.54514 74.92346 362.20197 73.580315 362.20197 71.92346C362.20197 70.26661 363.54514 68.92346 365.20197 68.92346C366.85883 68.92346 368.20197 70.26661 368.20197 71.92346Z" fill-rule="nonzero"/><path fill="#000000" fill-opacity="0.0" clip-path="url(#id_0)" d="M373.23566 71.0809C373.23566 72.73776 371.8925 74.0809 370.23566 74.0809C368.5788 74.0809 367.23566 72.73776 367.23566 71.0809C367.23566 69.42405 368.5788 68.0809 370.23566 68.0809C371.8925 68.0809 373.23566 69.42405 373.23566 71.0809Z" fill-rule="nonzero"/><path fill="#000000" fill-opacity="0.0" clip-path="url(#id_0)" d="M378.26932 70.29513C378.26932 71.95198 376.92615 73.29513 375.26932 73.29513C373.61246 73.29513 372.26932 71.95198 372.26932 70.29513C372.26932 68.638275 373.61246 67.29513 375.26932 67.29513C376.92615 67.29513 378.26932 68.638275 378.26932 70.29513Z" fill-rule="nonzero"/><path fill="#000000" fill-opacity="0.0" clip-path="url(#id_0)" d="M383.30298 69.563515C383.30298 71.22037 381.95984 72.563515 380.30298 72.563515C378.64612 72.563515 377.30298 71.22037 377.30298 69.563515C377.30298 67.90666 378.64612 66.563515 380.30298 66.563515C381.95984 66.563515 383.30298 67.90666 383.30298 69.563515Z" fill-rule="nonzero"/><path fill="#000000" fill-opacity="0.0" clip-path="url(#id_0)" d="M388.33664 68.88352C388.33664 70.540375 386.9935 71.88352 385.33664 71.88352C383.67978 71.88352 382.33664 70.540375 382.33664 68.88352C382.33664 67.22667 383.67978 65.88352 385.33664 65.88352C386.9935 65.88352 388.33664 67.22667 388.33664 68.88352Z" fill-rule="nonzero"/><path fill="#000000" fill-opacity="0.0" clip-path="url(#id_0)" d="M393.3703 68.252655C393.3703 69.909515 392.02716 71.252655 390.3703 71.252655C388.71344 71.252655 387.3703 69.909515 387.3703 68.252655C387.3703 66.5958 388.71344 65.252655 390.3703 65.252655C392.02716 65.252655 393.3703 66.5958 393.3703 68.252655Z" fill-rule="nonzero"/><path fill="#000000" fill-opacity="0.0" clip-path="url(#id_0)" d="M398.40396 67.6685C398.40396 69.325356 397.06082 70.6685 395.40396 70.6685C393.7471 70.6685 392.40396 69.325356 392.40396 67.6685C392.40396 66.01165 393.7471 64.6685 395.40396 64.6685C397.06082 64.6685 398.40396 66.01165 398.40396 67.6685Z" fill-rule="nonzero"/><path fill="#000000" fill-opacity="0.0" clip-path="url(#id_0)" d="M403.43762 67.128685C403.43762 68.78554 402.09448 70.128685 400.43762 70.128685C398.78076 70.128685 397.43762 68.78554 397.43762 67.128685C397.43762 65.47183 398.78076 64.128685 400.43762 64.128685C402.09448 64.128685 403.43762 65.47183 403.43762 67.128685Z" fill-rule="nonzero"/><path fill="#000000" fill-opacity="0.0" clip-path="url(#id_0)" d="M408.47128 66.63091C408.47128 68.287766 407.12814 69.63091 405.47128 69.63091C403.81442 69.63091 402.47128 68.287766 402.47128 66.63091C402.47128 64.97406 403.81442 63.63091 405.47128 63.63091C407.12814 63.63091 408.47128 64.97406 408.47128 66.63091Z" fill-rule="nonzero"/><path fill="#000000" fill-opacity="0.0" clip-path="url(#id_0)" d="M413.50494 66.172935C413.50494 67.82979 412.1618 69.172935 410.50494 69.172935C408.84808 69.172935 407.50494 67.82979 407.50494 66.172935C407.50494 64.516075 408.84808 63.17293 410.50494 63.17293C412.1618 63.17293 413.50494 64.516075 413.50494 66.172935Z" fill-rule="nonzero"/><path fill="#000000" fill-opacity="0.0" clip-path="url(#id_0)" d="M418.5386 65.75257C418.5386 67.409424 417.19547 68.75257 415.5386 68.75257C413.88174 68.75257 412.5386 67.409424 412.5386 65.75257C412.5386 64.09572 413.88174 62.75257 415.5386 62.75257C417.19547 62.75257 418.5386 64.09572 418.5386 65.75257Z" fill-rule="nonzero"/><path fill="#000000" fill-opacity="0.0" clip-path="url(#id_0)" d="M423.57227 65.36771C423.57227 67.02457 422.22913 68.36771 420.57227 68.36771C418.91544 68.36771 417.57227 67.02457 417.57227 65.36771C417.57227 63.710857 418.91544 62.36771 420.57227 62.36771C422.22913 62.36771 423.57227 63.710857 423.57227 65.36771Z" fill-rule="nonzero"/><path fill="#000000" fill-opacity="0.0" clip-path="url(#id_0)" d="M428.60593 65.01629C428.60593 66.67314 427.2628 68.01629 425.60593 68.01629C423.9491 68.01629 422.60593 66.67314 422.60593 65.01629C422.60593 63.359436 423.9491 62.01629 425.60593 62.01629C427.2628 62.01629 428.60593 63.359436 428.60593 65.01629Z" fill-rule="nonzero"/><path fill="#000000" fill-opacity="0.0" clip-path="url(#id_0)" d="M433.63962 64.69631C433.63962 66.35317 432.29645 67.69631 430.63962 67.69631C428.98276 67.69631 427.63962 66.35317 427.63962 64.69631C427.63962 63.039463 428.98276 61.696316 430.63962 61.696316C432.29645 61.696316 433.63962 63.039463 433.63962 64.69631Z" fill-rule="nonzero"/><path fill="#000000" fill-opacity="0.0" clip-path="url(#id_0)" d="M438.67328 64.40585C438.67328 66.062706 437.3301 67.40585 435.67328 67.40585C434.01642 67.40585 432.67328 66.062706 432.67328 64.40585C432.67328 62.749 434.01642 61.405853 435.67328 61.405853C437.3301 61.405853 438.67328 62.749 438.67328 64.40585Z" fill-rule="nonzero"/><path fill="#000000" fill-opacity="0.0" clip-path="url(#id_0)" d="M443.70694 64.14303C443.70694 65.79988 442.3638 67.14303 440.70694 67.14303C439.05008 67.14303 437.70694 65.79988 437.70694 64.14303C437.70694 62.486176 439.05008 61.14303 440.70694 61.14303C442.3638 61.14303 443.70694 62.486176 443.70694 64.14303Z" fill-rule="nonzero"/><path fill="#000000" fill-opacity="0.0" clip-path="url(#id_0)" d="M448.7406 63.906033C448.7406 65.56289 447.39746 66.90604 445.7406 66.90604C444.08374 66.90604 442.7406 65.56289 442.7406 63.906033C442.7406 62.24918 444.08374 60.906033 445.7406 60.906033C447.39746 60.906033 448.7406 62.24918 448.7406 63.906033Z" fill-rule="nonzero"/><path fill="#000000" fill-opacity="0.0" clip-path="url(#id_0)" d="M453.77426 63.693115C453.77426 65.34997 452.43112 66.693115 450.77426 66.693115C449.1174 66.693115 447.77426 65.34997 447.77426 63.693115C447.77426 62.03626 449.1174 60.693115 450.77426 60.693115C452.43112 60.693115 453.77426 62.03626 453.77426 63.693115Z" fill-rule="nonzero"/><path fill="#000000" fill-opacity="0.0" clip-path="url(#id_0)" d="M458.80792 63.502583C458.80792 65.15944 457.46478 66.50259 455.80792 66.50259C454.15106 66.50259 452.80792 65.15944 452.80792 63.502583C452.80792 61.84573 454.15106 60.502583 455.80792 60.502583C457.46478 60.502583 458.80792 61.84573 458.80792 63.502583Z" fill-rule="nonzero"/><path fill="#000000" fill-opacity="0.0" clip-path="url(#id_0)" d="M463.84158 63.332813C463.84158 64.98967 462.49844 66.33281 460.84158 66.33281C459.18472 66.33281 457.84158 64.98967 457.84158 63.332813C457.84158 61.675957 459.18472 60.332813 460.84158 60.332813C462.49844 60.332813 463.84158 61.675957 463.84158 63.332813Z" fill-rule="nonzero"/><path fill="#000000" fill-opacity="0.0" clip-path="url(#id_0)" d="M468.87524 63.182236C468.87524 64.83909 467.5321 66.182236 465.87524 66.182236C464.21838 66.182236 462.87524 64.83909 462.87524 63.182236C462.87524 61.525383 464.21838 60.182236 465.87524 60.182236C467.5321 60.182236 468.87524 61.525383 468.87524 63.182236Z" fill-rule="nonzero"/><path fill="#000000" fill-opacity="0.0" clip-path="url(#id_0)" d="M473.9089 63.049355C473.9089 64.70621 472.56577 66.049355 470.9089 66.049355C469.25204 66.049355 467.9089 64.70621 467.9089 63.049355C467.9089 61.392498 469.25204 60.049355 470.9089 60.049355C472.56577 60.049355 473.9089 61.392498 473.9089 63.049355Z" fill-rule="nonzero"/><path fill="#000000" fill-opacity="0.0" clip-path="url(#id_0)" d="M478.94257 62.932716C478.94257 64.58957 477.59943 65.93272 475.94257 65.93272C474.2857 65.93272 472.94257 64.58957 472.94257 62.932716C472.94257 61.275864 474.2857 59.932716 475.94257 59.932716C477.59943 59.932716 478.94257 61.275864 478.94257 62.932716Z" fill-rule="nonzero"/><path fill="#000000" fill-opacity="0.0" clip-path="url(#id_0)" d="M483.97623 62.830944C483.97623 64.4878 482.6331 65.83095 480.97623 65.83095C479.3194 65.83095 477.97623 64.4878 477.97623 62.830944C477.97623 61.17409 479.3194 59.830944 480.97623 59.830944C482.6331 59.830944 483.97623 61.17409 483.97623 62.830944Z" fill-rule="nonzero"/><path fill="#000000" fill-opacity="0.0" clip-path="url(#id_0)" d="M489.0099 62.74272C489.0099 64.399574 487.66675 65.74272 486.0099 65.74272C484.35306 65.74272 483.0099 64.399574 483.0099 62.74272C483.0099 61.085865 484.35306 59.74272 486.0099 59.74272C487.66675 59.74272 489.0099 61.085865 489.0099 62.74272Z" fill-rule="nonzero"/><path fill="#000000" fill-opacity="0.0" clip-path="url(#id_0)" d="M494.04358 62.666782C494.04358 64.32364 492.7004 65.66678 491.04358 65.66678C489.38672 65.66678 488.04358 64.32364 488.04358 62.666782C488.04358 61.009926 489.38672 59.666782 491.04358 59.666782C492.7004 59.666782 494.04358 61.009926 494.04358 62.666782Z" fill-rule="nonzero"/><path fill="#000000" fill-opacity="0.0" clip-path="url(#id_0)" d="M499.07724 62.601933C499.07724 64.25879 497.73407 65.60193 496.07724 65.60193C494.42038 65.60193 493.07724 64.25879 493.07724 62.601933C493.07724 60.945076 494.42038 59.601933 496.07724 59.601933C497.73407 59.601933 499.07724 60.945076 499.07724 62.601933Z" fill-rule="nonzero"/><path fill="#000000" fill-opacity="0.0" clip-path="url(#id_0)" d="M504.1109 62.547035C504.1109 64.20389 502.76773 65.547035 501.1109 65.547035C499.45404 65.547035 498.1109 64.20389 498.1109 62.547035C498.1109 60.890182 499.45404 59.547035 501.1109 59.547035C502.76773 59.547035 504.1109 60.890182 504.1109 62.547035Z" fill-rule="nonzero"/><path fill="#000000" fill-opacity="0.0" clip-path="url(#id_0)" d="M509.14456 62.50102C509.14456 64.157875 507.80142 65.501015 506.14456 65.501015C504.4877 65.501015 503.14456 64.157875 503.14456 62.50102C503.14456 60.844162 504.4877 59.50102 506.14456 59.50102C507.80142 59.50102 509.14456 60.844162 509.14456 62.50102Z" fill-rule="nonzero"/><path fill="#000000" fill-opacity="0.0" clip-path="url(#id_0)" d="M514.1782 62.462868C514.1782 64.11972 512.8351 65.46287 511.17822 65.46287C509.52136 65.46287 508.17822 64.11972 508.17822 62.462868C508.17822 60.80601 509.52136 59.462868 511.17822 59.462868C512.8351 59.462868 514.1782 60.80601 514.1782 62.462868Z" fill-rule="nonzero"/><path fill="#000000" fill-opacity="0.0" clip-path="url(#id_0)" d="M519.21185 62.431625C519.21185 64.08848 517.8687 65.431625 516.21185 65.431625C514.55505 65.431625 513.21185 64.08848 513.21185 62.431625C513.21185 60.774773 514.55505 59.431625 516.21185 59.431625C517.8687 59.431625 519.21185 60.774773 519.21185 62.431625Z" fill-rule="nonzero"/><path fill="#000000" fill-opacity="0.0" clip-path="url(#id_0)" d="M524.24554 62.40641C524.24554 64.06326 522.9024 65.40641 521.24554 65.40641C519.5887 65.40641 518.24554 64.06326 518.24554 62.40641C518.24554 60.749557 519.5887 59.40641 521.24554 59.40641C522.9024 59.40641 524.24554 60.749557 524.24554 62.40641Z" fill-rule="nonzero"/><path fill="#000000" fill-opacity="0.0" clip-path="url(#id_0)" d="M529.27924 62.38639C529.27924 64.04324 527.93604 65.38639 526.27924 65.38639C524.6224 65.38639 523.27924 64.04324 523.27924 62.38639C523.27924 60.729534 524.6224 59.38639 526.27924 59.38639C527.93604 59.38639 529.27924 60.729534 529.27924 62.38639Z" fill-rule="nonzero"/><path fill="#000000" fill-opacity="0.0" clip-path="url(#id_0)" d="M534.31287 62.370796C534.31287 64.02765 532.9697 65.3708 531.31287 65.3708C529.656 65.3708 528.31287 64.02765 528.31287 62.370796C528.31287 60.71394 529.656 59.370796 531.31287 59.370796C532.9697 59.370796 534.31287 60.71394 534.31287 62.370796Z" fill-rule="nonzero"/><path fill="#000000" fill-opacity="0.0" clip-path="url(#id_0)" d="M539.34656 62.35892C539.34656 64.01578 538.0034 65.35892 536.34656 65.35892C534.6897 65.35892 533.34656 64.01578 533.34656 62.35892C533.34656 60.702065 534.6897 59.35892 536.34656 59.35892C538.0034 59.35892 539.34656 60.702065 539.34656 62.35892Z" fill-rule="nonzero"/><path fill="#000000" fill-opacity="0.0" clip-path="url(#id_0)" d="M544.3802 62.35012C544.3802 64.00697 543.03705 65.35012 541.3802 65.35012C539.7233 65.35012 538.3802 64.00697 538.3802 62.35012C538.3802 60.693268 539.7233 59.35012 541.3802 59.35012C543.03705 59.35012 544.3802 60.693268 544.3802 62.35012Z" fill-rule="nonzero"/><path fill="#000000" fill-opacity="0.0" clip-path="url(#id_0)" d="M549.4139 62.343815C549.4139 64.00067 548.07074 65.34381 546.4139 65.34381C544.757 65.34381 543.4139 64.00067 543.4139 62.343815C543.4139 60.68696 544.757 59.343815 546.4139 59.343815C548.07074 59.343815 549.4139 60.68696 549.4139 62.343815Z" fill-rule="nonzero"/><path fill="#000000" fill-opacity="0.0" clip-path="url(#id_0)" d="M554.4475 62.339478C554.4475 63.99633 553.1044 65.33948 551.4475 65.33948C549.79065 65.33948 548.4475 63.99633 548.4475 62.339478C548.4475 60.68262 549.79065 59.339478 551.4475 59.339478C553.1044 59.339478 554.4475 60.68262 554.4475 62.339478Z" fill-rule="nonzero"/><path fill="#000000" fill-opacity="0.0" clip-path="url(#id_0)" d="M559.4812 62.33665C559.4812 63.993504 558.13806 65.33665 556.4812 65.33665C554.82434 65.33665 553.4812 63.993504 553.4812 62.33665C553.4812 60.679794 554.82434 59.33665 556.4812 59.33665C558.13806 59.33665 559.4812 60.679794 559.4812 62.33665Z" fill-rule="nonzero"/><path fill="#000000" fill-opacity="0.0" clip-path="url(#id_0)" d="M564.51483 62.334934C564.51483 63.991787 563.1717 65.33493 561.51483 65.33493C559.858 65.33493 558.51483 63.991787 558.51483 62.334934C558.51483 60.678078 559.858 59.334934 561.51483 59.334934C563.1717 59.334934 564.51483 60.678078 564.51483 62.334934Z" fill-rule="nonzero"/><path fill="#000000" fill-opacity="0.0" clip-path="url(#id_0)" d="M569.5485 62.33399C569.5485 63.99084 568.2054 65.33399 566.5485 65.33399C564.89166 65.33399 563.5485 63.99084 563.5485 62.33399C563.5485 60.677135 564.89166 59.33399 566.5485 59.33399C568.2054 59.33399 569.5485 60.677135 569.5485 62.33399Z" fill-rule="nonzero"/><path fill="#000000" fill-opacity="0.0" clip-path="url(#id_0)" d="M574.58215 62.33354C574.58215 63.990395 573.239 65.33354 571.58215 65.33354C569.92535 65.33354 568.58215 63.990395 568.58215 62.33354C568.58215 60.676685 569.92535 59.33354 571.58215 59.33354C573.239 59.33354 574.58215 60.676685 574.58215 62.33354Z" fill-rule="nonzero"/><path fill="#000000" fill-opacity="0.0" clip-path="url(#id_0)" d="M579.61584 62.333374C579.61584 63.990227 578.2727 65.333374 576.61584 65.333374C574.959 65.333374 573.61584 63.990227 573.61584 62.333374C573.61584 60.67652 574.959 59.333374 576.61584 59.333374C578.2727 59.333374 579.61584 60.67652 579.61584 62.333374Z" fill-rule="nonzero"/><path fill="#000000" fill-opacity="0.0" clip-path="url(#id_0)" d="M584.6495 62.333336C584.6495 63.99019 583.30634 65.333336 581.6495 65.333336C579.9927 65.333336 578.6495 63.99019 578.6495 62.333336C578.6495 60.676483 579.9927 59.333336 581.6495 59.333336C583.30634 59.333336 584.6495 60.676483 584.6495 62.333336Z" fill-rule="nonzero"/><path fill="#000000" fill-opacity="0.0" clip-path="url(#id_0)" d="M589.68317 62.333332C589.68317 63.99019 588.34 65.333336 586.68317 65.333336C585.0263 65.333336 583.68317 63.99019 583.68317 62.333332C583.68317 60.67648 585.0263 59.333332 586.68317 59.333332C588.34 59.333332 589.68317 60.67648 589.68317 62.333332Z" fill-rule="nonzero"/><path fill="#000000" d="M336.59375 353.2625L336.75 354.1844Q336.29688 354.27814 335.95312 354.27814Q335.375 354.27814 335.0625 354.10626Q334.75 353.91876 334.60938 353.6219Q334.48438 353.325 334.48438 352.3719L334.48438 348.79376L333.71875 348.79376L333.71875 347.98126L334.48438 347.98126L334.48438 346.4344L335.53125 345.8094L335.53125 347.98126L336.59375 347.98126L336.59375 348.79376L335.53125 348.79376L335.53125 352.4344Q335.53125 352.8875 335.57812 353.0125Q335.64062 353.1375 335.76562 353.21564Q335.89062 353.29376 336.125 353.29376Q336.3125 353.29376 336.59375 353.2625Z" fill-rule="nonzero"/><path fill="#000000" d="M29.800013 192.67291L26.565638 190.40729L23.581263 192.50104L23.581263 191.18854L25.034388 190.23541Q25.456263 189.96979 25.737513 189.79791Q25.346888 189.54791 25.050013 189.32916L23.581263 188.28229L23.581263 187.01666L26.503138 189.17291L29.800013 186.86041L29.800013 188.14166L27.862513 189.42291L27.346888 189.76666L29.800013 191.40729L29.800013 192.67291Z" fill-rule="nonzero"/><path fill="#000000" d="M51.3 317.96564Q51.3 316.4344 51.6125 315.5125Q51.925 314.575 52.534374 314.075Q53.159374 313.575 54.096874 313.575Q54.784374 313.575 55.3 313.85626Q55.83125 314.1375 56.175 314.66876Q56.51875 315.1844 56.70625 315.9344Q56.89375 316.6844 56.89375 317.96564Q56.89375 319.48126 56.58125 320.40314Q56.284374 321.325 55.659374 321.84064Q55.05 322.34064 54.096874 322.34064Q52.8625 322.34064 52.14375 321.45Q51.3 320.3875 51.3 317.96564ZM52.378124 317.96564Q52.378124 320.075 52.878124 320.77814Q53.378124 321.48126 54.096874 321.48126Q54.83125 321.48126 55.315624 320.77814Q55.815624 320.075 55.815624 317.96564Q55.815624 315.84064 55.315624 315.15314Q54.83125 314.45 54.08125 314.45Q53.3625 314.45 52.925 315.0594Q52.378124 315.84064 52.378124 317.96564ZM58.89375 322.2L58.89375 320.9969L60.096874 320.9969L60.096874 322.2L58.89375 322.2ZM61.3 317.96564Q61.3 316.4344 61.6125 315.5125Q61.925 314.575 62.534374 314.075Q63.159374 313.575 64.09688 313.575Q64.78438 313.575 65.3 313.85626Q65.83125 314.1375 66.175 314.66876Q66.51875 315.1844 66.70625 315.9344Q66.89375 316.6844 66.89375 317.96564Q66.89375 319.48126 66.58125 320.40314Q66.28438 321.325 65.65938 321.84064Q65.05 322.34064 64.09688 322.34064Q62.8625 322.34064 62.14375 321.45Q61.3 320.3875 61.3 317.96564ZM62.378124 317.96564Q62.378124 320.075 62.878124 320.77814Q63.378124 321.48126 64.09688 321.48126Q64.83125 321.48126 65.31563 320.77814Q65.81563 320.075 65.81563 317.96564Q65.81563 315.84064 65.31563 315.15314Q64.83125 314.45 64.08125 314.45Q63.3625 314.45 62.925 315.0594Q62.378124 315.84064 62.378124 317.96564ZM68.3 317.96564Q68.3 316.4344 68.6125 315.5125Q68.925 314.575 69.53438 314.075Q70.15938 313.575 71.09688 313.575Q71.78438 313.575 72.3 313.85626Q72.83125 314.1375 73.175 314.66876Q73.51875 315.1844 73.70625 315.9344Q73.89375 316.6844 73.89375 317.96564Q73.89375 319.48126 73.58125 320.40314Q73.28438 321.325 72.65938 321.84064Q72.05 322.34064 71.09688 322.34064Q69.8625 322.34064 69.14375 321.45Q68.3 320.3875 68.3 317.96564ZM69.37813 317.96564Q69.37813 320.075 69.87813 320.77814Q70.37813 321.48126 71.09688 321.48126Q71.83125 321.48126 72.31563 320.77814Q72.81563 320.075 72.81563 317.96564Q72.81563 315.84064 72.31563 315.15314Q71.83125 314.45 71.08125 314.45Q70.3625 314.45 69.925 315.0594Q69.37813 315.84064 69.37813 317.96564Z" fill-rule="nonzero"/><path fill="#000000" d="M51.3 253.99896Q51.3 252.46771 51.6125 251.54584Q51.925 250.60834 52.534374 250.10834Q53.159374 249.60834 54.096874 249.60834Q54.784374 249.60834 55.3 249.88959Q55.83125 250.17084 56.175 250.70209Q56.51875 251.21771 56.70625 251.96771Q56.89375 252.71771 56.89375 253.99896Q56.89375 255.51459 56.58125 256.43646Q56.284374 257.35834 55.659374 257.87396Q55.05 258.37396 54.096874 258.37396Q52.8625 258.37396 52.14375 257.48334Q51.3 256.42084 51.3 253.99896ZM52.378124 253.99896Q52.378124 256.10834 52.878124 256.81146Q53.378124 257.5146 54.096874 257.5146Q54.83125 257.5146 55.315624 256.81146Q55.815624 256.10834 55.815624 253.99896Q55.815624 251.87396 55.315624 251.18646Q54.83125 250.48334 54.08125 250.48334Q53.3625 250.48334 52.925 251.09271Q52.378124 251.87396 52.378124 253.99896ZM58.89375 258.23334L58.89375 257.0302L60.096874 257.0302L60.096874 258.23334L58.89375 258.23334ZM66.84688 257.2177L66.84688 258.23334L61.159374 258.23334Q61.159374 257.85834 61.284374 257.49896Q61.503124 256.92084 61.971874 256.35834Q62.45625 255.79584 63.3625 255.06146Q64.76875 253.90521 65.25313 253.23334Q65.75313 252.56146 65.75313 251.96771Q65.75313 251.34271 65.3 250.92084Q64.84688 250.48334 64.12813 250.48334Q63.3625 250.48334 62.909374 250.93646Q62.45625 251.38959 62.440624 252.20209L61.3625 252.09271Q61.471874 250.87396 62.190624 250.24896Q62.925 249.60834 64.15938 249.60834Q65.39375 249.60834 66.1125 250.29584Q66.83125 250.98334 66.83125 251.99896Q66.83125 252.51459 66.6125 253.01459Q66.40938 253.49896 65.90938 254.06146Q65.425 254.60834 64.3 255.56146Q63.346874 256.35834 63.065624 256.6552Q62.8 256.93646 62.628124 257.2177L66.84688 257.2177ZM68.3 255.98334L69.40938 255.88959Q69.53438 256.7021 69.97188 257.10834Q70.425 257.5146 71.06563 257.5146Q71.81563 257.5146 72.34688 256.93646Q72.87813 256.35834 72.87813 255.42084Q72.87813 254.51459 72.3625 253.99896Q71.8625 253.46771 71.03438 253.46771Q70.53438 253.46771 70.1125 253.70209Q69.70625 253.93646 69.47188 254.29584L68.4875 254.17084L69.31563 249.76459L73.59688 249.76459L73.59688 250.76459L70.15938 250.76459L69.70625 253.07709Q70.47188 252.53021 71.31563 252.53021Q72.44063 252.53021 73.20625 253.31146Q73.9875 254.09271 73.9875 255.32709Q73.9875 256.48334 73.31563 257.3427Q72.4875 258.37396 71.06563 258.37396Q69.89375 258.37396 69.14375 257.7177Q68.40938 257.06146 68.3 255.98334Z" fill-rule="nonzero"/><path fill="#000000" d="M51.3 190.03229Q51.3 188.50104 51.6125 187.57916Q51.925 186.64166 52.534374 186.14166Q53.159374 185.64166 54.096874 185.64166Q54.784374 185.64166 55.3 185.92291Q55.83125 186.20416 56.175 186.73541Q56.51875 187.25104 56.70625 188.00104Q56.89375 188.75104 56.89375 190.03229Q56.89375 191.54791 56.58125 192.46979Q56.284374 193.39166 55.659374 193.90729Q55.05 194.40729 54.096874 194.40729Q52.8625 194.40729 52.14375 193.51666Q51.3 192.45416 51.3 190.03229ZM52.378124 190.03229Q52.378124 192.14166 52.878124 192.84479Q53.378124 193.54791 54.096874 193.54791Q54.83125 193.54791 55.315624 192.84479Q55.815624 192.14166 55.815624 190.03229Q55.815624 187.90729 55.315624 187.21979Q54.83125 186.51666 54.08125 186.51666Q53.3625 186.51666 52.925 187.12604Q52.378124 187.90729 52.378124 190.03229ZM58.89375 194.26666L58.89375 193.06354L60.096874 193.06354L60.096874 194.26666L58.89375 194.26666ZM61.3 192.01666L62.409374 191.92291Q62.534374 192.73541 62.971874 193.14166Q63.425 193.54791 64.06563 193.54791Q64.81563 193.54791 65.34688 192.96979Q65.87813 192.39166 65.87813 191.45416Q65.87813 190.54791 65.3625 190.03229Q64.8625 189.50104 64.03438 189.50104Q63.534374 189.50104 63.1125 189.73541Q62.70625 189.96979 62.471874 190.32916L61.4875 190.20416L62.315624 185.79791L66.59688 185.79791L66.59688 186.79791L63.159374 186.79791L62.70625 189.11041Q63.471874 188.56354 64.31563 188.56354Q65.44063 188.56354 66.20625 189.34479Q66.9875 190.12604 66.9875 191.36041Q66.9875 192.51666 66.31563 193.37604Q65.4875 194.40729 64.06563 194.40729Q62.89375 194.40729 62.14375 193.75104Q61.409374 193.09479 61.3 192.01666ZM68.3 190.03229Q68.3 188.50104 68.6125 187.57916Q68.925 186.64166 69.53438 186.14166Q70.15938 185.64166 71.09688 185.64166Q71.78438 185.64166 72.3 185.92291Q72.83125 186.20416 73.175 186.73541Q73.51875 187.25104 73.70625 188.00104Q73.89375 188.75104 73.89375 190.03229Q73.89375 191.54791 73.58125 192.46979Q73.28438 193.39166 72.65938 193.90729Q72.05 194.40729 71.09688 194.40729Q69.8625 194.40729 69.14375 193.51666Q68.3 192.45416 68.3 190.03229ZM69.37813 190.03229Q69.37813 192.14166 69.87813 192.84479Q70.37813 193.54791 71.09688 193.54791Q71.83125 193.54791 72.31563 192.84479Q72.81563 192.14166 72.81563 190.03229Q72.81563 187.90729 72.31563 187.21979Q71.83125 186.51666 71.08125 186.51666Q70.3625 186.51666 69.925 187.12604Q69.37813 187.90729 69.37813 190.03229Z" fill-rule="nonzero"/><path fill="#000000" d="M51.3 126.06563Q51.3 124.53438 51.6125 123.6125Q51.925 122.675 52.534374 122.175Q53.159374 121.675 54.096874 121.675Q54.784374 121.675 55.3 121.95625Q55.83125 122.2375 56.175 122.76875Q56.51875 123.28438 56.70625 124.03438Q56.89375 124.78438 56.89375 126.06563Q56.89375 127.58125 56.58125 128.50313Q56.284374 129.425 55.659374 129.94063Q55.05 130.44063 54.096874 130.44063Q52.8625 130.44063 52.14375 129.55Q51.3 128.4875 51.3 126.06563ZM52.378124 126.06563Q52.378124 128.175 52.878124 128.87813Q53.378124 129.58125 54.096874 129.58125Q54.83125 129.58125 55.315624 128.87813Q55.815624 128.175 55.815624 126.06563Q55.815624 123.94063 55.315624 123.25313Q54.83125 122.55 54.08125 122.55Q53.3625 122.55 52.925 123.15938Q52.378124 123.94063 52.378124 126.06563ZM58.89375 130.3L58.89375 129.09688L60.096874 129.09688L60.096874 130.3L58.89375 130.3ZM61.3625 122.83125L61.3625 121.81563L66.925 121.81563L66.925 122.64375Q66.1125 123.51875 65.3 124.97188Q64.50313 126.40938 64.06563 127.94063Q63.7375 129.01875 63.659374 130.3L62.565624 130.3Q62.58125 129.28438 62.95625 127.84688Q63.346874 126.40938 64.05 125.08125Q64.76875 123.75313 65.58125 122.83125L61.3625 122.83125ZM68.3 128.05L69.40938 127.95625Q69.53438 128.76875 69.97188 129.175Q70.425 129.58125 71.06563 129.58125Q71.81563 129.58125 72.34688 129.00313Q72.87813 128.425 72.87813 127.4875Q72.87813 126.58125 72.3625 126.06563Q71.8625 125.53438 71.03438 125.53438Q70.53438 125.53438 70.1125 125.76875Q69.70625 126.00313 69.47188 126.3625L68.4875 126.2375L69.31563 121.83125L73.59688 121.83125L73.59688 122.83125L70.15938 122.83125L69.70625 125.14375Q70.47188 124.59688 71.31563 124.59688Q72.44063 124.59688 73.20625 125.37813Q73.9875 126.15938 73.9875 127.39375Q73.9875 128.55 73.31563 129.40938Q72.4875 130.44063 71.06563 130.44063Q69.89375 130.44063 69.14375 129.78438Q68.40938 129.12813 68.3 128.05Z" fill-rule="nonzero"/><path fill="#000000" d="M55.26875 66.333336L54.221874 66.333336L54.221874 59.614586Q53.83125 59.97396 53.20625 60.34896Q52.596874 60.708336 52.1125 60.88021L52.1125 59.864586Q52.9875 59.44271 53.64375 58.864586Q54.315624 58.270836 54.596874 57.708336L55.26875 57.708336L55.26875 66.333336ZM58.89375 66.333336L58.89375 65.13021L60.096874 65.13021L60.096874 66.333336L58.89375 66.333336ZM61.3 62.09896Q61.3 60.56771 61.6125 59.645836Q61.925 58.708336 62.534374 58.208336Q63.159374 57.708336 64.09688 57.708336Q64.78438 57.708336 65.3 57.989586Q65.83125 58.270836 66.175 58.802086Q66.51875 59.31771 66.70625 60.06771Q66.89375 60.81771 66.89375 62.09896Q66.89375 63.614586 66.58125 64.53646Q66.28438 65.458336 65.65938 65.97396Q65.05 66.47396 64.09688 66.47396Q62.8625 66.47396 62.14375 65.583336Q61.3 64.520836 61.3 62.09896ZM62.378124 62.09896Q62.378124 64.208336 62.878124 64.91146Q63.378124 65.614586 64.09688 65.614586Q64.83125 65.614586 65.31563 64.91146Q65.81563 64.208336 65.81563 62.09896Q65.81563 59.97396 65.31563 59.28646Q64.83125 58.583336 64.08125 58.583336Q63.3625 58.583336 62.925 59.19271Q62.378124 59.97396 62.378124 62.09896ZM68.3 62.09896Q68.3 60.56771 68.6125 59.645836Q68.925 58.708336 69.53438 58.208336Q70.15938 57.708336 71.09688 57.708336Q71.78438 57.708336 72.3 57.989586Q72.83125 58.270836 73.175 58.802086Q73.51875 59.31771 73.70625 60.06771Q73.89375 60.81771 73.89375 62.09896Q73.89375 63.614586 73.58125 64.53646Q73.28438 65.458336 72.65938 65.97396Q72.05 66.47396 71.09688 66.47396Q69.8625 66.47396 69.14375 65.583336Q68.3 64.520836 68.3 62.09896ZM69.37813 62.09896Q69.37813 64.208336 69.87813 64.91146Q70.37813 65.614586 71.09688 65.614586Q71.83125 65.614586 72.31563 64.91146Q72.81563 64.208336 72.81563 62.09896Q72.81563 59.97396 72.31563 59.28646Q71.83125 58.583336 71.08125 58.583336Q70.3625 58.583336 69.925 59.19271Q69.37813 59.97396 69.37813 62.09896Z" fill-rule="nonzero"/><path fill="#757575" d="M20.378124 37.8L20.378124 23.4875L30.7375 23.4875L30.7375 25.175L22.284374 25.175L22.284374 29.55L30.190624 29.55L30.190624 31.2375L22.284374 31.2375L22.284374 36.1125L31.065624 36.1125L31.065624 37.8L20.378124 37.8ZM39.89375 36.51875Q38.909374 37.346874 38.003124 37.690624Q37.096874 38.034374 36.065624 38.034374Q34.3625 38.034374 33.440624 37.20625Q32.51875 36.3625 32.51875 35.065624Q32.51875 34.3 32.8625 33.675Q33.221874 33.05 33.784374 32.675Q34.346874 32.284374 35.05 32.08125Q35.565624 31.95625 36.6125 31.815624Q38.7375 31.565624 39.7375 31.221874Q39.753124 30.8625 39.753124 30.753124Q39.753124 29.690624 39.253124 29.2375Q38.58125 28.64375 37.253124 28.64375Q36.003124 28.64375 35.409374 29.08125Q34.83125 29.51875 34.55 30.628124L32.83125 30.39375Q33.065624 29.284374 33.596874 28.6125Q34.128124 27.925 35.14375 27.565624Q36.159374 27.190624 37.503124 27.190624Q38.83125 27.190624 39.659374 27.503124Q40.4875 27.815624 40.878124 28.3Q41.26875 28.76875 41.425 29.4875Q41.51875 29.940624 41.51875 31.1125L41.51875 33.45625Q41.51875 35.909374 41.628124 36.565624Q41.7375 37.20625 42.08125 37.8L40.2375 37.8Q39.971874 37.253124 39.89375 36.51875ZM39.7375 32.596874Q38.784374 32.9875 36.8625 33.253124Q35.784374 33.409374 35.33125 33.6125Q34.89375 33.8 34.64375 34.175Q34.39375 34.55 34.39375 35.01875Q34.39375 35.721874 34.925 36.190624Q35.45625 36.659374 36.4875 36.659374Q37.503124 36.659374 38.284374 36.221874Q39.08125 35.76875 39.45625 35.003124Q39.7375 34.39375 39.7375 33.2375L39.7375 32.596874ZM43.409374 34.70625L45.159374 34.425Q45.3 35.471874 45.971874 36.034374Q46.64375 36.58125 47.846874 36.58125Q49.05 36.58125 49.628124 36.096874Q50.221874 35.596874 50.221874 34.940624Q50.221874 34.346874 49.70625 34.003124Q49.346874 33.76875 47.909374 33.409374Q45.971874 32.909374 45.221874 32.565624Q44.4875 32.20625 44.096874 31.58125Q43.70625 30.940624 43.70625 30.175Q43.70625 29.4875 44.01875 28.89375Q44.346874 28.3 44.89375 27.909374Q45.3 27.6125 46.003124 27.409374Q46.721874 27.190624 47.534374 27.190624Q48.753124 27.190624 49.675 27.55Q50.596874 27.89375 51.034374 28.503124Q51.471874 29.096874 51.64375 30.096874L49.925 30.33125Q49.8 29.534374 49.2375 29.096874Q48.675 28.64375 47.659374 28.64375Q46.440624 28.64375 45.925 29.05Q45.409374 29.440624 45.409374 29.971874Q45.409374 30.315624 45.628124 30.596874Q45.83125 30.878124 46.3 31.065624Q46.565624 31.159374 47.846874 31.503124Q49.721874 32.003124 50.45625 32.33125Q51.190624 32.64375 51.6125 33.253124Q52.034374 33.846874 52.034374 34.753124Q52.034374 35.628124 51.51875 36.409374Q51.003124 37.190624 50.034374 37.6125Q49.065624 38.034374 47.846874 38.034374Q45.83125 38.034374 44.76875 37.190624Q43.70625 36.346874 43.409374 34.70625ZM61.221874 34.45625L63.034374 34.690624Q62.6125 36.26875 61.440624 37.159374Q60.284374 38.034374 58.471874 38.034374Q56.20625 38.034374 54.8625 36.64375Q53.534374 35.2375 53.534374 32.70625Q53.534374 30.08125 54.878124 28.64375Q56.221874 27.190624 58.378124 27.190624Q60.45625 27.190624 61.76875 28.6125Q63.096874 30.01875 63.096874 32.596874Q63.096874 32.753124 63.08125 33.065624L55.346874 33.065624Q55.440624 34.76875 56.315624 35.675Q57.190624 36.58125 58.4875 36.58125Q59.45625 36.58125 60.128124 36.08125Q60.815624 35.565624 61.221874 34.45625ZM55.440624 31.6125L61.2375 31.6125Q61.128124 30.315624 60.58125 29.659374Q59.7375 28.64375 58.39375 28.64375Q57.190624 28.64375 56.3625 29.45625Q55.534374 30.253124 55.440624 31.6125ZM64.76875 30.83125Q64.76875 27.26875 66.675 25.253124Q68.59688 23.221874 71.62813 23.221874Q73.6125 23.221874 75.19063 24.175Q76.78438 25.128124 77.6125 26.83125Q78.45625 28.51875 78.45625 30.659374Q78.45625 32.83125 77.58125 34.55Q76.70625 36.26875 75.08125 37.159374Q73.47188 38.05 71.6125 38.05Q69.59688 38.05 68.00313 37.08125Q66.40938 36.096874 65.58125 34.409374Q64.76875 32.70625 64.76875 30.83125ZM66.72188 30.8625Q66.72188 33.440624 68.1125 34.940624Q69.50313 36.425 71.59688 36.425Q73.7375 36.425 75.1125 34.925Q76.50313 33.409374 76.50313 30.64375Q76.50313 28.909374 75.90938 27.6125Q75.33125 26.3 74.19063 25.58125Q73.05 24.8625 71.62813 24.8625Q69.62813 24.8625 68.175 26.253124Q66.72188 27.628124 66.72188 30.8625ZM87.90938 37.8L87.90938 36.26875Q86.70625 38.034374 84.62813 38.034374Q83.70625 38.034374 82.90938 37.690624Q82.1125 37.33125 81.72188 36.8Q81.34688 36.26875 81.19063 35.4875Q81.08125 34.971874 81.08125 33.846874L81.08125 27.425L82.83125 27.425L82.83125 33.175Q82.83125 34.55 82.94063 35.034374Q83.1125 35.721874 83.64375 36.128124Q84.19063 36.51875 84.97188 36.51875Q85.76875 36.51875 86.45625 36.1125Q87.15938 35.70625 87.44063 35.01875Q87.7375 34.315624 87.7375 32.9875L87.7375 27.425L89.4875 27.425L89.4875 37.8L87.90938 37.8ZM94.95625 36.221874L95.20625 37.784374Q94.47188 37.940624 93.87813 37.940624Q92.925 37.940624 92.39375 37.64375Q91.87813 37.33125 91.65938 36.846874Q91.44063 36.346874 91.44063 34.76875L91.44063 28.8L90.15938 28.8L90.15938 27.425L91.44063 27.425L91.44063 24.8625L93.19063 23.8L93.19063 27.425L94.95625 27.425L94.95625 28.8L93.19063 28.8L93.19063 34.8625Q93.19063 35.6125 93.28438 35.83125Q93.37813 36.034374 93.58125 36.175Q93.8 36.3 94.19063 36.3Q94.47188 36.3 94.95625 36.221874ZM108.19063 36.26875Q109.51875 37.175 110.62813 37.596874L110.06563 38.909374Q108.51875 38.3625 106.9875 37.159374Q105.39375 38.05 103.47188 38.05Q101.53438 38.05 99.94063 37.1125Q98.3625 36.175 97.50313 34.471874Q96.65938 32.76875 96.65938 30.64375Q96.65938 28.51875 97.51875 26.784374Q98.37813 25.05 99.95625 24.14375Q101.55 23.221874 103.51875 23.221874Q105.50313 23.221874 107.08125 24.175Q108.675 25.1125 109.50313 26.815624Q110.34688 28.503124 110.34688 30.628124Q110.34688 32.39375 109.81563 33.815624Q109.28438 35.221874 108.19063 36.26875ZM104.01875 33.846874Q105.65938 34.3 106.72188 35.20625Q108.39375 33.690624 108.39375 30.628124Q108.39375 28.89375 107.8 27.596874Q107.22188 26.3 106.08125 25.58125Q104.94063 24.8625 103.51875 24.8625Q101.40938 24.8625 100.00313 26.315624Q98.6125 27.753124 98.6125 30.64375Q98.6125 33.440624 99.9875 34.940624Q101.37813 36.425 103.51875 36.425Q104.53438 36.425 105.44063 36.034374Q104.55 35.471874 103.56563 35.221874L104.01875 33.846874ZM119.90938 37.8L119.90938 36.26875Q118.70625 38.034374 116.62813 38.034374Q115.70625 38.034374 114.90938 37.690624Q114.1125 37.33125 113.72188 36.8Q113.34688 36.26875 113.19063 35.4875Q113.08125 34.971874 113.08125 33.846874L113.08125 27.425L114.83125 27.425L114.83125 33.175Q114.83125 34.55 114.94063 35.034374Q115.1125 35.721874 115.64375 36.128124Q116.19063 36.51875 116.97188 36.51875Q117.76875 36.51875 118.45625 36.1125Q119.15938 35.70625 119.44063 35.01875Q119.7375 34.315624 119.7375 32.9875L119.7375 27.425L121.4875 27.425L121.4875 37.8L119.90938 37.8ZM129.89375 36.51875Q128.90938 37.346874 128.00313 37.690624Q127.09688 38.034374 126.06563 38.034374Q124.3625 38.034374 123.44063 37.20625Q122.51875 36.3625 122.51875 35.065624Q122.51875 34.3 122.8625 33.675Q123.22188 33.05 123.78438 32.675Q124.34688 32.284374 125.05 32.08125Q125.56563 31.95625 126.6125 31.815624Q128.7375 31.565624 129.7375 31.221874Q129.75313 30.8625 129.75313 30.753124Q129.75313 29.690624 129.25313 29.2375Q128.58125 28.64375 127.25313 28.64375Q126.00313 28.64375 125.40938 29.08125Q124.83125 29.51875 124.55 30.628124L122.83125 30.39375Q123.06563 29.284374 123.59688 28.6125Q124.12813 27.925 125.14375 27.565624Q126.15938 27.190624 127.50313 27.190624Q128.83125 27.190624 129.65938 27.503124Q130.4875 27.815624 130.87813 28.3Q131.26875 28.76875 131.425 29.4875Q131.51875 29.940624 131.51875 31.1125L131.51875 33.45625Q131.51875 35.909374 131.62813 36.565624Q131.7375 37.20625 132.08125 37.8L130.2375 37.8Q129.97188 37.253124 129.89375 36.51875ZM129.7375 32.596874Q128.78438 32.9875 126.8625 33.253124Q125.78438 33.409374 125.33125 33.6125Q124.89375 33.8 124.64375 34.175Q124.39375 34.55 124.39375 35.01875Q124.39375 35.721874 124.925 36.190624Q125.45625 36.659374 126.4875 36.659374Q127.50313 36.659374 128.28438 36.221874Q129.08125 35.76875 129.45625 35.003124Q129.7375 34.39375 129.7375 33.2375L129.7375 32.596874ZM134.09688 37.8L134.09688 27.425L135.675 27.425L135.675 29.003124Q136.28438 27.89375 136.8 27.55Q137.31563 27.190624 137.925 27.190624Q138.81563 27.190624 139.7375 27.753124L139.12813 29.39375Q138.4875 29.003124 137.84688 29.003124Q137.26875 29.003124 136.8 29.3625Q136.34688 29.70625 136.14375 30.315624Q135.8625 31.253124 135.8625 32.3625L135.8625 37.8L134.09688 37.8ZM144.95625 36.221874L145.20625 37.784374Q144.47188 37.940624 143.87813 37.940624Q142.925 37.940624 142.39375 37.64375Q141.87813 37.33125 141.65938 36.846874Q141.44063 36.346874 141.44063 34.76875L141.44063 28.8L140.15938 28.8L140.15938 27.425L141.44063 27.425L141.44063 24.8625L143.19063 23.8L143.19063 27.425L144.95625 27.425L144.95625 28.8L143.19063 28.8L143.19063 34.8625Q143.19063 35.6125 143.28438 35.83125Q143.37813 36.034374 143.58125 36.175Q143.8 36.3 144.19063 36.3Q144.47188 36.3 144.95625 36.221874ZM147.12813 25.503124L147.12813 23.4875L148.89375 23.4875L148.89375 25.503124L147.12813 25.503124ZM147.12813 37.8L147.12813 27.425L148.89375 27.425L148.89375 37.8L147.12813 37.8ZM157.89375 34.003124L159.6125 34.221874Q159.33125 36.01875 158.15938 37.034374Q157.00313 38.034374 155.3 38.034374Q153.175 38.034374 151.87813 36.64375Q150.58125 35.253124 150.58125 32.659374Q150.58125 30.971874 151.12813 29.721874Q151.69063 28.45625 152.83125 27.83125Q153.97188 27.190624 155.31563 27.190624Q157.00313 27.190624 158.06563 28.05Q159.14375 28.909374 159.45625 30.471874L157.7375 30.7375Q157.50313 29.690624 156.87813 29.175Q156.25313 28.64375 155.37813 28.64375Q154.05 28.64375 153.22188 29.596874Q152.39375 30.55 152.39375 32.596874Q152.39375 34.690624 153.19063 35.64375Q153.9875 36.58125 155.28438 36.58125Q156.31563 36.58125 157.00313 35.95625Q157.70625 35.315624 157.89375 34.003124Z" fill-rule="nonzero"/></svg>