<svg version="1.1" viewBox="0.0 0.0 608.0 376.0" fill="none" stroke="none" stroke-linecap="square" stroke-miterlimit="10" width="608" height="376" xmlns:xlink="http://www.w3.org/1999/xlink" xmlns="http://www.w3.org/2000/svg"><path fill="#ffffff" d="M0 0L608.0 0L608.0 376.0L0 376.0L0 0Z" fill-rule="nonzero"/><path stroke="#333333" stroke-width="1.0" stroke-linecap="butt" d="M80.5 318.5L589.5 318.5" fill-rule="nonzero"/><path stroke="#cccccc" stroke-width="1.0" stroke-linecap="butt" d="M80.5 254.5L589.5 254.5" fill-rule="nonzero"/><path stroke="#cccccc" stroke-width="1.0" stroke-linecap="butt" d="M80.5 190.5L589.5 190.5" fill-rule="nonzero"/><path stroke="#cccccc" stroke-width="1.0" stroke-linecap="butt" d="M80.5 126.5L589.5 126.5" fill-rule="nonzero"/><path stroke="#cccccc" stroke-width="1.0" stroke-linecap="butt" d="M80.5 62.5L589.5 62.5" fill-rule="nonzero"/><path stroke="#000000" stroke-width="1.0" stroke-linecap="butt" d="M80.5 318.5L80.5 62.5" fill-rule="nonzero"/><clipPath id="id_0"><path d="M80.8 62.333332L589.2 62.333332L589.2 318.2L80.8 318.2L80.8 62.333332Z" clip-rule="nonzero"/></clipPath><path stroke="#4285f4" stroke-width="2.0" stroke-linecap="butt" clip-path="url(#id_0)" d="M83.31683 318.2C83.31683 318.2 86.67261 318.2 88.350494 318.2C90.02838 318.2 91.70627 318.2 93.384155 318.19998C95.06205 318.19998 96.73994 318.19998 98.41782 318.1999C100.09571 318.19983 101.7736 318.19977 103.451485 318.1996C105.12937 318.19937 106.80726 318.1992 108.485146 318.19873C110.16303 318.19827 111.84093 318.19775 113.518814 318.1968C115.1967 318.1959 116.87459 318.19482 118.552475 318.1931C120.23036 318.1914 121.90825 318.18945 123.586136 318.18658C125.26402 318.18372 126.94192 318.18042 128.6198 318.1758C130.29768 318.17123 131.97557 318.16602 133.65347 318.15906C135.33136 318.1521 137.00925 318.14423 138.68713 318.13406C140.36502 318.1239 142.04291 318.1125 143.7208 318.09814C145.39868 318.0838 147.07657 318.06772 148.75446 318.048C150.43234 318.0283 152.11023 318.0063 153.78812 317.97983C155.466 317.95334 157.14389 317.92398 158.82178 317.88913C160.49966 317.85428 162.17755 317.8158 163.85544 317.77072C165.53334 317.72565 167.21123 317.67612 168.88911 317.61874C170.567 317.56134 172.24489 317.4985 173.92278 317.42642C175.60066 317.35437 177.27855 317.27573 178.95644 317.1863C180.63432 317.0969 182.31221 316.99966 183.9901 316.88995C185.66798 316.78024 187.34587 316.66132 189.02376 316.528C190.70164 316.3947 192.37953 316.25067 194.05742 316.09018C195.73532 315.9297 197.41321 315.7567 199.0911 315.56503C200.76898 315.37338 202.44687 315.16736 204.12476 314.94022C205.80264 314.71304 207.48053 314.46945 209.15842 314.2021C210.8363 313.9347 212.51419 313.64865 214.19208 313.33594C215.86996 313.0232 217.54785 312.68936 219.22574 312.32574C220.90363 311.96216 222.58151 311.57477 224.2594 311.1543C225.93729 310.73386 227.61519 310.28674 229.29308 309.803C230.97096 309.31927 232.64885 308.80582 234.32674 308.2519C236.00462 307.698 237.68251 307.11105 239.3604 306.4796C241.03828 305.84818 242.71617 305.1801 244.39406 304.46326C246.07195 303.7464 247.74983 302.98914 249.42772 302.1785C251.1056 301.36783 252.7835 300.51273 254.46138 299.59933C256.13928 298.68597 257.81717 297.72382 259.49506 296.69824C261.17294 295.67267 262.85083 294.59375 264.52872 293.44595C266.2066 292.29816 267.8845 291.09213 269.56238 289.81152C271.24026 288.53088 272.91815 287.18686 274.59604 285.76218C276.27393 284.3375 277.9518 282.84396 279.6297 281.26343C281.3076 279.68286 282.98547 278.0277 284.66336 276.2788C286.34125 274.5299 288.01913 272.70035 289.69702 270.77002C291.3749 268.83966 293.0528 266.8223 294.73068 264.69675C296.40857 262.5712 298.08646 260.3519 299.76434 258.0167C301.44223 255.68149 303.12012 253.24551 304.79803 250.6855C306.47592 248.12549 308.1538 245.4573 309.8317 242.65665C311.50958 239.85599 313.18747 236.9394 314.86536 233.8815C316.54324 230.8236 318.22113 227.6417 319.89902 224.30922C321.5769 220.97673 323.2548 217.5118 324.93268 213.88666C326.61057 210.26152 328.28845 206.49506 329.96634 202.5584C331.64423 198.62173 333.3221 194.3639 335.0 190.26666C336.6779 186.16942 338.35577 181.9116 340.03366 177.97493C341.71155 174.03827 343.38943 170.27182 345.06732 166.64668C346.7452 163.02155 348.4231 159.5566 350.10098 156.22412C351.77887 152.89165 353.45676 149.70973 355.13464 146.65182C356.81253 143.59392 358.49042 140.67735 360.1683 137.8767C361.8462 135.07602 363.52408 132.40785 365.20197 129.84784C366.87988 127.28783 368.55777 124.85184 370.23566 122.51663C371.91354 120.18142 373.59143 117.962135 375.26932 115.83658C376.9472 113.71103 378.6251 111.69366 380.30298 109.76332C381.98087 107.83298 383.65875 106.003426 385.33664 104.254524C387.01453 102.50563 388.6924 100.85048 390.3703 99.26992C392.0482 97.689354 393.72607 96.19584 395.40396 94.77116C397.08185 93.34647 398.75974 92.00246 400.43762 90.721825C402.1155 89.44119 403.7934 88.23517 405.47128 87.08738C407.14917 85.93959 408.82706 84.86066 410.50494 83.83509C412.18283 82.809525 413.86072 81.84737 415.5386 80.93399C417.2165 80.020615 418.89438 79.1655 420.57227 78.35484C422.25015 77.54419 423.92804 76.78693 425.60593 76.07007C427.2838 75.35322 428.96173 74.685165 430.63962 74.05373C432.3175 73.42229 433.9954 72.83533 435.67328 72.28143C437.35117 71.72753 439.02905 71.21406 440.70694 70.73032C442.38483 70.24659 444.0627 69.799484 445.7406 69.37903C447.4185 68.95857 449.09637 68.57119 450.77426 68.20759C452.45215 67.84398 454.13004 67.51013 455.80792 67.19741C457.4858 66.88469 459.1637 66.59863 460.84158 66.33125C462.51947 66.063866 464.19736 65.82029 465.87524 65.593124C467.55313 65.36597 469.23102 65.15995 470.9089 64.968285C472.5868 64.77663 474.26468 64.60366 475.94257 64.44316C477.62045 64.28267 479.29834 64.13861 480.97623 64.00531C482.6541 63.872013 484.332 63.753086 486.0099 63.64337C487.68777 63.533653 489.36566 63.436428 491.04358 63.347015C492.72147 63.257603 494.39935 63.178967 496.07724 63.106895C497.75513 63.03483 499.433 62.971985 501.1109 62.914604C502.7888 62.857224 504.46667 62.80767 506.14456 62.762608C507.82245 62.71754 509.50034 62.67906 511.17822 62.64421C512.8561 62.609364 514.534 62.57999 516.21185 62.553513C517.8898 62.52703 519.5676 62.505054 521.24554 62.485336C522.92346 62.46562 524.6013 62.449547 526.27924 62.435204C527.9571 62.420856 529.635 62.40942 531.31287 62.399265C532.9908 62.38911 534.66864 62.381233 536.34656 62.37427C538.0244 62.367313 539.70233 62.362095 541.3802 62.357506C543.0581 62.35292 544.73596 62.34963 546.4139 62.34675C548.09174 62.343864 549.76965 62.34192 551.4475 62.340214C553.1254 62.33851 554.8033 62.337452 556.4812 62.336517C558.15906 62.335583 559.837 62.33507 561.51483 62.334614C563.19275 62.334152 564.8706 62.33395 566.5485 62.33375C568.2264 62.333557 569.9043 62.3335 571.58215 62.33343C573.2601 62.333366 574.9379 62.333363 576.61584 62.333347C578.2937 62.33333 579.9716 62.333336 581.6495 62.333332C583.3274 62.333332 586.68317 62.333332 586.68317 62.333332" fill-rule="nonzero"/><path fill="#000000" fill-opacity="0.0" clip-path="url(#id_0)" d="M86.31683 318.2C86.31683 319.85684 84.97369 321.2 83.31683 321.2C81.65998 321.2 80.31683 319.85684 80.31683 318.2C80.31683 316.54315 81.65998 315.2 83.31683 315.2C84.97369 315.2 86.31683 316.54315 86.31683 318.2Z" fill-rule="nonzero"/><path fill="#000000" fill-opacity="0.0" clip-path="url(#id_0)" d="M91.350494 318.2C91.350494 319.85684 90.00735 321.2 88.350494 321.2C86.69364 321.2 85.350494 319.85684 85.350494 318.2C85.350494 316.54315 86.69364 315.2 88.350494 315.2C90.00735 315.2 91.350494 316.54315 91.350494 318.2Z" fill-rule="nonzero"/><path fill="#000000" fill-opacity="0.0" clip-path="url(#id_0)" d="M96.384155 318.19998C96.384155 319.85684 95.041016 321.19998 93.384155 321.19998C91.7273 321.19998 90.384155 319.85684 90.384155 318.19998C90.384155 316.54312 91.7273 315.19998 93.384155 315.19998C95.041016 315.19998 96.384155 316.54312 96.384155 318.19998Z" fill-rule="nonzero"/><path fill="#000000" fill-opacity="0.0" clip-path="url(#id_0)" d="M101.41782 318.1999C101.41782 319.85675 100.07468 321.1999 98.41782 321.1999C96.76097 321.1999 95.41782 319.85675 95.41782 318.1999C95.41782 316.54306 96.76097 315.1999 98.41782 315.1999C100.07468 315.1999 101.41782 316.54306 101.41782 318.1999Z" fill-rule="nonzero"/><path fill="#000000" fill-opacity="0.0" clip-path="url(#id_0)" d="M106.451485 318.1996C106.451485 319.85645 105.10834 321.1996 103.451485 321.1996C101.79463 321.1996 100.451485 319.85645 100.451485 318.1996C100.451485 316.54272 101.79463 315.1996 103.451485 315.1996C105.10834 315.1996 106.451485 316.54272 106.451485 318.1996Z" fill-rule="nonzero"/><path fill="#000000" fill-opacity="0.0" clip-path="url(#id_0)" d="M111.485146 318.19873C111.485146 319.85556 110.142006 321.19873 108.485146 321.19873C106.82829 321.19873 105.485146 319.85556 105.485146 318.19873C105.485146 316.54187 106.82829 315.19873 108.485146 315.19873C110.142006 315.19873 111.485146 316.54187 111.485146 318.19873Z" fill-rule="nonzero"/><path fill="#000000" fill-opacity="0.0" clip-path="url(#id_0)" d="M116.518814 318.1968C116.518814 319.85367 115.17567 321.1968 113.518814 321.1968C111.86196 321.1968 110.518814 319.85367 110.518814 318.1968C110.518814 316.53995 111.86196 315.1968 113.518814 315.1968C115.17567 315.1968 116.518814 316.53995 116.518814 318.1968Z" fill-rule="nonzero"/><path fill="#000000" fill-opacity="0.0" clip-path="url(#id_0)" d="M121.552475 318.1931C121.552475 319.84998 120.20933 321.1931 118.552475 321.1931C116.89562 321.1931 115.552475 319.84998 115.552475 318.1931C115.552475 316.53625 116.89562 315.1931 118.552475 315.1931C120.20933 315.1931 121.552475 316.53625 121.552475 318.1931Z" fill-rule="nonzero"/><path fill="#000000" fill-opacity="0.0" clip-path="url(#id_0)" d="M126.586136 318.18658C126.586136 319.84344 125.243 321.18658 123.586136 321.18658C121.92928 321.18658 120.586136 319.84344 120.586136 318.18658C120.586136 316.52972 121.92928 315.18658 123.586136 315.18658C125.243 315.18658 126.586136 316.52972 126.586136 318.18658Z" fill-rule="nonzero"/><path fill="#000000" fill-opacity="0.0" clip-path="url(#id_0)" d="M131.6198 318.1758C131.6198 319.83267 130.27666 321.1758 128.6198 321.1758C126.962944 321.1758 125.619804 319.83267 125.619804 318.1758C125.619804 316.51898 126.962944 315.1758 128.6198 315.1758C130.27666 315.1758 131.6198 316.51898 131.6198 318.1758Z" fill-rule="nonzero"/><path fill="#000000" fill-opacity="0.0" clip-path="url(#id_0)" d="M136.65347 318.15906C136.65347 319.81592 135.31032 321.15906 133.65347 321.15906C131.99661 321.15906 130.65347 319.81592 130.65347 318.15906C130.65347 316.5022 131.99661 315.15906 133.65347 315.15906C135.31032 315.15906 136.65347 316.5022 136.65347 318.15906Z" fill-rule="nonzero"/><path fill="#000000" fill-opacity="0.0" clip-path="url(#id_0)" d="M141.68713 318.13406C141.68713 319.79092 140.34398 321.13406 138.68713 321.13406C137.03027 321.13406 135.68713 319.79092 135.68713 318.13406C135.68713 316.4772 137.03027 315.13406 138.68713 315.13406C140.34398 315.13406 141.68713 316.4772 141.68713 318.13406Z" fill-rule="nonzero"/><path fill="#000000" fill-opacity="0.0" clip-path="url(#id_0)" d="M146.7208 318.09814C146.7208 319.75497 145.37764 321.09814 143.7208 321.09814C142.06393 321.09814 140.7208 319.75497 140.7208 318.09814C140.7208 316.44128 142.06393 315.09814 143.7208 315.09814C145.37764 315.09814 146.7208 316.44128 146.7208 318.09814Z" fill-rule="nonzero"/><path fill="#000000" fill-opacity="0.0" clip-path="url(#id_0)" d="M151.75446 318.048C151.75446 319.70486 150.41132 321.048 148.75446 321.048C147.0976 321.048 145.75446 319.70486 145.75446 318.048C145.75446 316.39114 147.0976 315.048 148.75446 315.048C150.41132 315.048 151.75446 316.39114 151.75446 318.048Z" fill-rule="nonzero"/><path fill="#000000" fill-opacity="0.0" clip-path="url(#id_0)" d="M156.78812 317.97983C156.78812 319.6367 155.44498 320.97983 153.78812 320.97983C152.13127 320.97983 150.78812 319.6367 150.78812 317.97983C150.78812 316.32297 152.13127 314.97983 153.78812 314.97983C155.44498 314.97983 156.78812 316.32297 156.78812 317.97983Z" fill-rule="nonzero"/><path fill="#000000" fill-opacity="0.0" clip-path="url(#id_0)" d="M161.82178 317.88913C161.82178 319.546 160.47864 320.88913 158.82178 320.88913C157.16493 320.88913 155.82178 319.546 155.82178 317.88913C155.82178 316.23227 157.16493 314.88913 158.82178 314.88913C160.47864 314.88913 161.82178 316.23227 161.82178 317.88913Z" fill-rule="nonzero"/><path fill="#000000" fill-opacity="0.0" clip-path="url(#id_0)" d="M166.85544 317.77072C166.85544 319.42758 165.5123 320.77072 163.85544 320.77072C162.1986 320.77072 160.85544 319.42758 160.85544 317.77072C160.85544 316.11386 162.1986 314.77072 163.85544 314.77072C165.5123 314.77072 166.85544 316.11386 166.85544 317.77072Z" fill-rule="nonzero"/><path fill="#000000" fill-opacity="0.0" clip-path="url(#id_0)" d="M171.88911 317.61874C171.88911 319.27557 170.54596 320.61874 168.88911 320.61874C167.23225 320.61874 165.88911 319.27557 165.88911 317.61874C165.88911 315.96188 167.23225 314.61874 168.88911 314.61874C170.54596 314.61874 171.88911 315.96188 171.88911 317.61874Z" fill-rule="nonzero"/><path fill="#000000" fill-opacity="0.0" clip-path="url(#id_0)" d="M176.92278 317.42642C176.92278 319.08328 175.57962 320.42642 173.92278 320.42642C172.26591 320.42642 170.92278 319.08328 170.92278 317.42642C170.92278 315.7696 172.26591 314.42642 173.92278 314.42642C175.57962 314.42642 176.92278 315.7696 176.92278 317.42642Z" fill-rule="nonzero"/><path fill="#000000" fill-opacity="0.0" clip-path="url(#id_0)" d="M181.95644 317.1863C181.95644 318.84317 180.6133 320.1863 178.95644 320.1863C177.29958 320.1863 175.95644 318.84317 175.95644 317.1863C175.95644 315.52945 177.29958 314.1863 178.95644 314.1863C180.6133 314.1863 181.95644 315.52945 181.95644 317.1863Z" fill-rule="nonzero"/><path fill="#000000" fill-opacity="0.0" clip-path="url(#id_0)" d="M186.9901 316.88995C186.9901 318.5468 185.64696 319.88995 183.9901 319.88995C182.33325 319.88995 180.9901 318.5468 180.9901 316.88995C180.9901 315.2331 182.33325 313.88995 183.9901 313.88995C185.64696 313.88995 186.9901 315.2331 186.9901 316.88995Z" fill-rule="nonzero"/><path fill="#000000" fill-opacity="0.0" clip-path="url(#id_0)" d="M192.02376 316.528C192.02376 318.18488 190.68062 319.528 189.02376 319.528C187.36691 319.528 186.02376 318.18488 186.02376 316.528C186.02376 314.87115 187.36691 313.528 189.02376 313.528C190.68062 313.528 192.02376 314.87115 192.02376 316.528Z" fill-rule="nonzero"/><path fill="#000000" fill-opacity="0.0" clip-path="url(#id_0)" d="M197.05742 316.09018C197.05742 317.74704 195.71428 319.09018 194.05742 319.09018C192.40057 319.09018 191.05742 317.74704 191.05742 316.09018C191.05742 314.43332 192.40057 313.09018 194.05742 313.09018C195.71428 313.09018 197.05742 314.43332 197.05742 316.09018Z" fill-rule="nonzero"/><path fill="#000000" fill-opacity="0.0" clip-path="url(#id_0)" d="M202.0911 315.56503C202.0911 317.2219 200.74794 318.56503 199.0911 318.56503C197.43423 318.56503 196.0911 317.2219 196.0911 315.56503C196.0911 313.9082 197.43423 312.56503 199.0911 312.56503C200.74794 312.56503 202.0911 313.9082 202.0911 315.56503Z" fill-rule="nonzero"/><path fill="#000000" fill-opacity="0.0" clip-path="url(#id_0)" d="M207.12476 314.94022C207.12476 316.59708 205.7816 317.94022 204.12476 317.94022C202.4679 317.94022 201.12476 316.59708 201.12476 314.94022C201.12476 313.28336 202.4679 311.94022 204.12476 311.94022C205.7816 311.94022 207.12476 313.28336 207.12476 314.94022Z" fill-rule="nonzero"/><path fill="#000000" fill-opacity="0.0" clip-path="url(#id_0)" d="M212.15842 314.2021C212.15842 315.85895 210.81528 317.2021 209.15842 317.2021C207.50156 317.2021 206.15842 315.85895 206.15842 314.2021C206.15842 312.54523 207.50156 311.2021 209.15842 311.2021C210.81528 311.2021 212.15842 312.54523 212.15842 314.2021Z" fill-rule="nonzero"/><path fill="#000000" fill-opacity="0.0" clip-path="url(#id_0)" d="M217.19208 313.33594C217.19208 314.99277 215.84894 316.33594 214.19208 316.33594C212.53523 316.33594 211.19208 314.99277 211.19208 313.33594C211.19208 311.67908 212.53523 310.33594 214.19208 310.33594C215.84894 310.33594 217.19208 311.67908 217.19208 313.33594Z" fill-rule="nonzero"/><path fill="#000000" fill-opacity="0.0" clip-path="url(#id_0)" d="M222.22574 312.32574C222.22574 313.9826 220.8826 315.32574 219.22574 315.32574C217.5689 315.32574 216.22574 313.9826 216.22574 312.32574C216.22574 310.66888 217.5689 309.32574 219.22574 309.32574C220.8826 309.32574 222.22574 310.66888 222.22574 312.32574Z" fill-rule="nonzero"/><path fill="#000000" fill-opacity="0.0" clip-path="url(#id_0)" d="M227.2594 311.1543C227.2594 312.81116 225.91626 314.1543 224.2594 314.1543C222.60255 314.1543 221.2594 312.81116 221.2594 311.1543C221.2594 309.49744 222.60255 308.1543 224.2594 308.1543C225.91626 308.1543 227.2594 309.49744 227.2594 311.1543Z" fill-rule="nonzero"/><path fill="#000000" fill-opacity="0.0" clip-path="url(#id_0)" d="M232.29308 309.803C232.29308 311.45987 230.94992 312.803 229.29308 312.803C227.63622 312.803 226.29308 311.45987 226.29308 309.803C226.29308 308.14615 227.63622 306.803 229.29308 306.803C230.94992 306.803 232.29308 308.14615 232.29308 309.803Z" fill-rule="nonzero"/><path fill="#000000" fill-opacity="0.0" clip-path="url(#id_0)" d="M237.32674 308.2519C237.32674 309.90875 235.98358 311.2519 234.32674 311.2519C232.66988 311.2519 231.32674 309.90875 231.32674 308.2519C231.32674 306.59506 232.66988 305.2519 234.32674 305.2519C235.98358 305.2519 237.32674 306.59506 237.32674 308.2519Z" fill-rule="nonzero"/><path fill="#000000" fill-opacity="0.0" clip-path="url(#id_0)" d="M242.3604 306.4796C242.3604 308.13647 241.01726 309.4796 239.3604 309.4796C237.70354 309.4796 236.3604 308.13647 236.3604 306.4796C236.3604 304.82275 237.70354 303.4796 239.3604 303.4796C241.01726 303.4796 242.3604 304.82275 242.3604 306.4796Z" fill-rule="nonzero"/><path fill="#000000" fill-opacity="0.0" clip-path="url(#id_0)" d="M247.39406 304.46326C247.39406 306.12012 246.05092 307.46326 244.39406 307.46326C242.7372 307.46326 241.39406 306.12012 241.39406 304.46326C241.39406 302.8064 242.7372 301.46326 244.39406 301.46326C246.05092 301.46326 247.39406 302.8064 247.39406 304.46326Z" fill-rule="nonzero"/><path fill="#000000" fill-opacity="0.0" clip-path="url(#id_0)" d="M252.42772 302.1785C252.42772 303.83536 251.08458 305.1785 249.42772 305.1785C247.77087 305.1785 246.42772 303.83536 246.42772 302.1785C246.42772 300.52164 247.77087 299.1785 249.42772 299.1785C251.08458 299.1785 252.42772 300.52164 252.42772 302.1785Z" fill-rule="nonzero"/><path fill="#000000" fill-opacity="0.0" clip-path="url(#id_0)" d="M257.4614 299.59933C257.4614 301.2562 256.11826 302.59933 254.46138 302.59933C252.80453 302.59933 251.46138 301.2562 251.46138 299.59933C251.46138 297.94247 252.80453 296.59933 254.46138 296.59933C256.11826 296.59933 257.4614 297.94247 257.4614 299.59933Z" fill-rule="nonzero"/><path fill="#000000" fill-opacity="0.0" clip-path="url(#id_0)" d="M262.49506 296.69824C262.49506 298.3551 261.15192 299.69824 259.49506 299.69824C257.8382 299.69824 256.49506 298.3551 256.49506 296.69824C256.49506 295.04138 257.8382 293.69824 259.49506 293.69824C261.15192 293.69824 262.49506 295.04138 262.49506 296.69824Z" fill-rule="nonzero"/><path fill="#000000" fill-opacity="0.0" clip-path="url(#id_0)" d="M267.52872 293.44595C267.52872 295.1028 266.18558 296.44595 264.52872 296.44595C262.87186 296.44595 261.52872 295.1028 261.52872 293.44595C261.52872 291.7891 262.87186 290.44595 264.52872 290.44595C266.18558 290.44595 267.52872 291.7891 267.52872 293.44595Z" fill-rule="nonzero"/><path fill="#000000" fill-opacity="0.0" clip-path="url(#id_0)" d="M272.56238 289.81152C272.56238 291.46835 271.21924 292.81152 269.56238 292.81152C267.90552 292.81152 266.56238 291.46835 266.56238 289.81152C266.56238 288.15466 267.90552 286.81152 269.56238 286.81152C271.21924 286.81152 272.56238 288.15466 272.56238 289.81152Z" fill-rule="nonzero"/><path fill="#000000" fill-opacity="0.0" clip-path="url(#id_0)" d="M277.59604 285.76218C277.59604 287.41904 276.2529 288.76218 274.59604 288.76218C272.93918 288.76218 271.59604 287.41904 271.59604 285.76218C271.59604 284.10532 272.93918 282.76218 274.59604 282.76218C276.2529 282.76218 277.59604 284.10532 277.59604 285.76218Z" fill-rule="nonzero"/><path fill="#000000" fill-opacity="0.0" clip-path="url(#id_0)" d="M282.6297 281.26343C282.6297 282.92026 281.28656 284.26343 279.6297 284.26343C277.97284 284.26343 276.6297 282.92026 276.6297 281.26343C276.6297 279.60657 277.97284 278.26343 279.6297 278.26343C281.28656 278.26343 282.6297 279.60657 282.6297 281.26343Z" fill-rule="nonzero"/><path fill="#000000" fill-opacity="0.0" clip-path="url(#id_0)" d="M287.66336 276.2788C287.66336 277.93567 286.32022 279.2788 284.66336 279.2788C283.0065 279.2788 281.66336 277.93567 281.66336 276.2788C281.66336 274.62195 283.0065 273.2788 284.66336 273.2788C286.32022 273.2788 287.66336 274.62195 287.66336 276.2788Z" fill-rule="nonzero"/><path fill="#000000" fill-opacity="0.0" clip-path="url(#id_0)" d="M292.69702 270.77002C292.69702 272.42688 291.35388 273.77002 289.69702 273.77002C288.04016 273.77002 286.69702 272.42688 286.69702 270.77002C286.69702 269.11316 288.04016 267.77002 289.69702 267.77002C291.35388 267.77002 292.69702 269.11316 292.69702 270.77002Z" fill-rule="nonzero"/><path fill="#000000" fill-opacity="0.0" clip-path="url(#id_0)" d="M297.73068 264.69675C297.73068 266.3536 296.38754 267.69675 294.73068 267.69675C293.07385 267.69675 291.73068 266.3536 291.73068 264.69675C291.73068 263.0399 293.07385 261.69675 294.73068 261.69675C296.38754 261.69675 297.73068 263.0399 297.73068 264.69675Z" fill-rule="nonzero"/><path fill="#000000" fill-opacity="0.0" clip-path="url(#id_0)" d="M302.76434 258.0167C302.76434 259.67355 301.4212 261.0167 299.76434 261.0167C298.1075 261.0167 296.76434 259.67355 296.76434 258.0167C296.76434 256.35986 298.1075 255.01671 299.76434 255.01671C301.4212 255.01671 302.76434 256.35986 302.76434 258.0167Z" fill-rule="nonzero"/><path fill="#000000" fill-opacity="0.0" clip-path="url(#id_0)" d="M307.79803 250.6855C307.79803 252.34235 306.45486 253.6855 304.79803 253.6855C303.14117 253.6855 301.79803 252.34235 301.79803 250.6855C301.79803 249.02864 303.14117 247.6855 304.79803 247.6855C306.45486 247.6855 307.79803 249.02864 307.79803 250.6855Z" fill-rule="nonzero"/><path fill="#000000" fill-opacity="0.0" clip-path="url(#id_0)" d="M312.8317 242.65665C312.8317 244.3135 311.48853 245.65665 309.8317 245.65665C308.17484 245.65665 306.8317 244.3135 306.8317 242.65665C306.8317 240.99979 308.17484 239.65665 309.8317 239.65665C311.48853 239.65665 312.8317 240.99979 312.8317 242.65665Z" fill-rule="nonzero"/><path fill="#000000" fill-opacity="0.0" clip-path="url(#id_0)" d="M317.86536 233.8815C317.86536 235.53836 316.5222 236.8815 314.86536 236.8815C313.2085 236.8815 311.86536 235.53836 311.86536 233.8815C311.86536 232.22466 313.2085 230.8815 314.86536 230.8815C316.5222 230.8815 317.86536 232.22466 317.86536 233.8815Z" fill-rule="nonzero"/><path fill="#000000" fill-opacity="0.0" clip-path="url(#id_0)" d="M322.89902 224.30922C322.89902 225.96606 321.55588 227.30922 319.89902 227.30922C318.24216 227.30922 316.89902 225.96606 316.89902 224.30922C316.89902 222.65236 318.24216 221.30922 319.89902 221.30922C321.55588 221.30922 322.89902 222.65236 322.89902 224.30922Z" fill-rule="nonzero"/><path fill="#000000" fill-opacity="0.0" clip-path="url(#id_0)" d="M327.93268 213.88666C327.93268 215.5435 326.58954 216.88666 324.93268 216.88666C323.27582 216.88666 321.93268 215.5435 321.93268 213.88666C321.93268 212.2298 323.27582 210.88666 324.93268 210.88666C326.58954 210.88666 327.93268 212.2298 327.93268 213.88666Z" fill-rule="nonzero"/><path fill="#000000" fill-opacity="0.0" clip-path="url(#id_0)" d="M332.96634 202.5584C332.96634 204.21526 331.6232 205.5584 329.96634 205.5584C328.30948 205.5584 326.96634 204.21526 326.96634 202.5584C326.96634 200.90155 328.30948 199.5584 329.96634 199.5584C331.6232 199.5584 332.96634 200.90155 332.96634 202.5584Z" fill-rule="nonzero"/><path fill="#000000" fill-opacity="0.0" clip-path="url(#id_0)" d="M338.0 190.26666C338.0 191.92352 336.65686 193.26666 335.0 193.26666C333.34314 193.26666 332.0 191.92352 332.0 190.26666C332.0 188.60982 333.34314 187.26666 335.0 187.26666C336.65686 187.26666 338.0 188.60982 338.0 190.26666Z" fill-rule="nonzero"/><path fill="#000000" fill-opacity="0.0" clip-path="url(#id_0)" d="M343.03366 177.97493C343.03366 179.63179 341.69052 180.97493 340.03366 180.97493C338.3768 180.97493 337.03366 179.63179 337.03366 177.97493C337.03366 176.31808 338.3768 174.97493 340.03366 174.97493C341.69052 174.97493 343.03366 176.31808 343.03366 177.97493Z" fill-rule="nonzero"/><path fill="#000000" fill-opacity="0.0" clip-path="url(#id_0)" d="M348.06732 166.64668C348.06732 168.30353 346.72418 169.64668 345.06732 169.64668C343.41046 169.64668 342.06732 168.30353 342.06732 166.64668C342.06732 164.98982 343.41046 163.64668 345.06732 163.64668C346.72418 163.64668 348.06732 164.98982 348.06732 166.64668Z" fill-rule="nonzero"/><path fill="#000000" fill-opacity="0.0" clip-path="url(#id_0)" d="M353.10098 156.22412C353.10098 157.88098 351.75784 159.22412 350.10098 159.22412C348.44412 159.22412 347.10098 157.88098 347.10098 156.22412C347.10098 154.56726 348.44412 153.22412 350.10098 153.22412C351.75784 153.22412 353.10098 154.56726 353.10098 156.22412Z" fill-rule="nonzero"/><path fill="#000000" fill-opacity="0.0" clip-path="url(#id_0)" d="M358.13464 146.65182C358.13464 148.30869 356.7915 149.65182 355.13464 149.65182C353.4778 149.65182 352.13464 148.30869 352.13464 146.65182C352.13464 144.99498 353.4778 143.65182 355.13464 143.65182C356.7915 143.65182 358.13464 144.99498 358.13464 146.65182Z" fill-rule="nonzero"/><path fill="#000000" fill-opacity="0.0" clip-path="url(#id_0)" d="M363.1683 137.8767C363.1683 139.53354 361.82516 140.8767 360.1683 140.8767C358.51147 140.8767 357.1683 139.53354 357.1683 137.8767C357.1683 136.21983 358.51147 134.8767 360.1683 134.8767C361.82516 134.8767 363.1683 136.21983 363.1683 137.8767Z" fill-rule="nonzero"/><path fill="#000000" fill-opacity="0.0" clip-path="url(#id_0)" d="M368.20197 129.84784C368.20197 131.50468 366.85883 132.84784 365.20197 132.84784C363.54514 132.84784 362.20197 131.50468 362.20197 129.84784C362.20197 128.19098 363.54514 126.84784 365.20197 126.84784C366.85883 126.84784 368.20197 128.19098 368.20197 129.84784Z" fill-rule="nonzero"/><path fill="#000000" fill-opacity="0.0" clip-path="url(#id_0)" d="M373.23566 122.51663C373.23566 124.173485 371.8925 125.51663 370.23566 125.51663C368.5788 125.51663 367.23566 124.173485 367.23566 122.51663C367.23566 120.85977 368.5788 119.51663 370.23566 119.51663C371.8925 119.51663 373.23566 120.85977 373.23566 122.51663Z" fill-rule="nonzero"/><path fill="#000000" fill-opacity="0.0" clip-path="url(#id_0)" d="M378.26932 115.83658C378.26932 117.49344 376.92615 118.83658 375.26932 118.83658C373.61246 118.83658 372.26932 117.49344 372.26932 115.83658C372.26932 114.179726 373.61246 112.83658 375.26932 112.83658C376.92615 112.83658 378.26932 114.179726 378.26932 115.83658Z" fill-rule="nonzero"/><path fill="#000000" fill-opacity="0.0" clip-path="url(#id_0)" d="M383.30298 109.76332C383.30298 111.42017 381.95984 112.76332 380.30298 112.76332C378.64612 112.76332 377.30298 111.42017 377.30298 109.76332C377.30298 108.10646 378.64612 106.76332 380.30298 106.76332C381.95984 106.76332 383.30298 108.10646 383.30298 109.76332Z" fill-rule="nonzero"/><path fill="#000000" fill-opacity="0.0" clip-path="url(#id_0)" d="M388.33664 104.254524C388.33664 105.911385 386.9935 107.254524 385.33664 107.254524C383.67978 107.254524 382.33664 105.911385 382.33664 104.254524C382.33664 102.59767 383.67978 101.254524 385.33664 101.254524C386.9935 101.254524 388.33664 102.59767 388.33664 104.254524Z" fill-rule="nonzero"/><path fill="#000000" fill-opacity="0.0" clip-path="url(#id_0)" d="M393.3703 99.26992C393.3703 100.92677 392.02716 102.26992 390.3703 102.26992C388.71344 102.26992 387.3703 100.92677 387.3703 99.26992C387.3703 97.61306 388.71344 96.26992 390.3703 96.26992C392.02716 96.26992 393.3703 97.61306 393.3703 99.26992Z" fill-rule="nonzero"/><path fill="#000000" fill-opacity="0.0" clip-path="url(#id_0)" d="M398.40396 94.77116C398.40396 96.42801 397.06082 97.77116 395.40396 97.77116C393.7471 97.77116 392.40396 96.42801 392.40396 94.77116C392.40396 93.1143 393.7471 91.77116 395.40396 91.77116C397.06082 91.77116 398.40396 93.1143 398.40396 94.77116Z" fill-rule="nonzero"/><path fill="#000000" fill-opacity="0.0" clip-path="url(#id_0)" d="M403.43762 90.721825C403.43762 92.37868 402.09448 93.721825 400.43762 93.721825C398.78076 93.721825 397.43762 92.37868 397.43762 90.721825C397.43762 89.06497 398.78076 87.721825 400.43762 87.721825C402.09448 87.721825 403.43762 89.06497 403.43762 90.721825Z" fill-rule="nonzero"/><path fill="#000000" fill-opacity="0.0" clip-path="url(#id_0)" d="M408.47128 87.08738C408.47128 88.74423 407.12814 90.08738 405.47128 90.08738C403.81442 90.08738 402.47128 88.74423 402.47128 87.08738C402.47128 85.43053 403.81442 84.08738 405.47128 84.08738C407.12814 84.08738 408.47128 85.43053 408.47128 87.08738Z" fill-rule="nonzero"/><path fill="#000000" fill-opacity="0.0" clip-path="url(#id_0)" d="M413.50494 83.83509C413.50494 85.49194 412.1618 86.83509 410.50494 86.83509C408.84808 86.83509 407.50494 85.49194 407.50494 83.83509C407.50494 82.17824 408.84808 80.83509 410.50494 80.83509C412.1618 80.83509 413.50494 82.17824 413.50494 83.83509Z" fill-rule="nonzero"/><path fill="#000000" fill-opacity="0.0" clip-path="url(#id_0)" d="M418.5386 80.93399C418.5386 82.59084 417.19547 83.93399 415.5386 83.93399C413.88174 83.93399 412.5386 82.59084 412.5386 80.93399C412.5386 79.27714 413.88174 77.93399 415.5386 77.93399C417.19547 77.93399 418.5386 79.27714 418.5386 80.93399Z" fill-rule="nonzero"/><path fill="#000000" fill-opacity="0.0" clip-path="url(#id_0)" d="M423.57227 78.35484C423.57227 80.011696 422.22913 81.35484 420.57227 81.35484C418.91544 81.35484 417.57227 80.011696 417.57227 78.35484C417.57227 76.69799 418.91544 75.35484 420.57227 75.35484C422.22913 75.35484 423.57227 76.69799 423.57227 78.35484Z" fill-rule="nonzero"/><path fill="#000000" fill-opacity="0.0" clip-path="url(#id_0)" d="M428.60593 76.07007C428.60593 77.72692 427.2628 79.07007 425.60593 79.07007C423.9491 79.07007 422.60593 77.72692 422.60593 76.07007C422.60593 74.413216 423.9491 73.07007 425.60593 73.07007C427.2628 73.07007 428.60593 74.413216 428.60593 76.07007Z" fill-rule="nonzero"/><path fill="#000000" fill-opacity="0.0" clip-path="url(#id_0)" d="M433.63962 74.05373C433.63962 75.71058 432.29645 77.05373 430.63962 77.05373C428.98276 77.05373 427.63962 75.71058 427.63962 74.05373C427.63962 72.39687 428.98276 71.05373 430.63962 71.05373C432.29645 71.05373 433.63962 72.39687 433.63962 74.05373Z" fill-rule="nonzero"/><path fill="#000000" fill-opacity="0.0" clip-path="url(#id_0)" d="M438.67328 72.28143C438.67328 73.938286 437.3301 75.28143 435.67328 75.28143C434.01642 75.28143 432.67328 73.938286 432.67328 72.28143C432.67328 70.62457 434.01642 69.28143 435.67328 69.28143C437.3301 69.28143 438.67328 70.62457 438.67328 72.28143Z" fill-rule="nonzero"/><path fill="#000000" fill-opacity="0.0" clip-path="url(#id_0)" d="M443.70694 70.73032C443.70694 72.38718 442.3638 73.73032 440.70694 73.73032C439.05008 73.73032 437.70694 72.38718 437.70694 70.73032C437.70694 69.07347 439.05008 67.73032 440.70694 67.73032C442.3638 67.73032 443.70694 69.07347 443.70694 70.73032Z" fill-rule="nonzero"/><path fill="#000000" fill-opacity="0.0" clip-path="url(#id_0)" d="M448.7406 69.37903C448.7406 71.03588 447.39746 72.37903 445.7406 72.37903C444.08374 72.37903 442.7406 71.03588 442.7406 69.37903C442.7406 67.722176 444.08374 66.37903 445.7406 66.37903C447.39746 66.37903 448.7406 67.722176 448.7406 69.37903Z" fill-rule="nonzero"/><path fill="#000000" fill-opacity="0.0" clip-path="url(#id_0)" d="M453.77426 68.20759C453.77426 69.86444 452.43112 71.20759 450.77426 71.20759C449.1174 71.20759 447.77426 69.86444 447.77426 68.20759C447.77426 66.55073 449.1174 65.20759 450.77426 65.20759C452.43112 65.20759 453.77426 66.55073 453.77426 68.20759Z" fill-rule="nonzero"/><path fill="#000000" fill-opacity="0.0" clip-path="url(#id_0)" d="M458.80792 67.19741C458.80792 68.85426 457.46478 70.19741 455.80792 70.19741C454.15106 70.19741 452.80792 68.85426 452.80792 67.19741C452.80792 65.54056 454.15106 64.19741 455.80792 64.19741C457.46478 64.19741 458.80792 65.54056 458.80792 67.19741Z" fill-rule="nonzero"/><path fill="#000000" fill-opacity="0.0" clip-path="url(#id_0)" d="M463.84158 66.33125C463.84158 67.988106 462.49844 69.33125 460.84158 69.33125C459.18472 69.33125 457.84158 67.988106 457.84158 66.33125C457.84158 64.67439 459.18472 63.33125 460.84158 63.33125C462.49844 63.33125 463.84158 64.67439 463.84158 66.33125Z" fill-rule="nonzero"/><path fill="#000000" fill-opacity="0.0" clip-path="url(#id_0)" d="M468.87524 65.593124C468.87524 67.24998 467.5321 68.593124 465.87524 68.593124C464.21838 68.593124 462.87524 67.24998 462.87524 65.593124C462.87524 63.93627 464.21838 62.593124 465.87524 62.593124C467.5321 62.593124 468.87524 63.93627 468.87524 65.593124Z" fill-rule="nonzero"/><path fill="#000000" fill-opacity="0.0" clip-path="url(#id_0)" d="M473.9089 64.968285C473.9089 66.62514 472.56577 67.968285 470.9089 67.968285C469.25204 67.968285 467.9089 66.62514 467.9089 64.968285C467.9089 63.31143 469.25204 61.968285 470.9089 61.968285C472.56577 61.968285 473.9089 63.31143 473.9089 64.968285Z" fill-rule="nonzero"/><path fill="#000000" fill-opacity="0.0" clip-path="url(#id_0)" d="M478.94257 64.44316C478.94257 66.10001 477.59943 67.44316 475.94257 67.44316C474.2857 67.44316 472.94257 66.10001 472.94257 64.44316C472.94257 62.78631 474.2857 61.44316 475.94257 61.44316C477.59943 61.44316 478.94257 62.78631 478.94257 64.44316Z" fill-rule="nonzero"/><path fill="#000000" fill-opacity="0.0" clip-path="url(#id_0)" d="M483.97623 64.00531C483.97623 65.66216 482.6331 67.00531 480.97623 67.00531C479.3194 67.00531 477.97623 65.66216 477.97623 64.00531C477.97623 62.348457 479.3194 61.00531 480.97623 61.00531C482.6331 61.00531 483.97623 62.348457 483.97623 64.00531Z" fill-rule="nonzero"/><path fill="#000000" fill-opacity="0.0" clip-path="url(#id_0)" d="M489.0099 63.64337C489.0099 65.300224 487.66675 66.64337 486.0099 66.64337C484.35306 66.64337 483.0099 65.300224 483.0099 63.64337C483.0099 61.986515 484.35306 60.64337 486.0099 60.64337C487.66675 60.64337 489.0099 61.986515 489.0099 63.64337Z" fill-rule="nonzero"/><path fill="#000000" fill-opacity="0.0" clip-path="url(#id_0)" d="M494.04358 63.347015C494.04358 65.00387 492.7004 66.347015 491.04358 66.347015C489.38672 66.347015 488.04358 65.00387 488.04358 63.347015C488.04358 61.690163 489.38672 60.347015 491.04358 60.347015C492.7004 60.347015 494.04358 61.690163 494.04358 63.347015Z" fill-rule="nonzero"/><path fill="#000000" fill-opacity="0.0" clip-path="url(#id_0)" d="M499.07724 63.106895C499.07724 64.76375 497.73407 66.106895 496.07724 66.106895C494.42038 66.106895 493.07724 64.76375 493.07724 63.106895C493.07724 61.450043 494.42038 60.106895 496.07724 60.106895C497.73407 60.106895 499.07724 61.450043 499.07724 63.106895Z" fill-rule="nonzero"/><path fill="#000000" fill-opacity="0.0" clip-path="url(#id_0)" d="M504.1109 62.914604C504.1109 64.57146 502.76773 65.914604 501.1109 65.914604C499.45404 65.914604 498.1109 64.57146 498.1109 62.914604C498.1109 61.25775 499.45404 59.914604 501.1109 59.914604C502.76773 59.914604 504.1109 61.25775 504.1109 62.914604Z" fill-rule="nonzero"/><path fill="#000000" fill-opacity="0.0" clip-path="url(#id_0)" d="M509.14456 62.762608C509.14456 64.419464 507.80142 65.7626 506.14456 65.7626C504.4877 65.7626 503.14456 64.419464 503.14456 62.762608C503.14456 61.10575 504.4877 59.762608 506.14456 59.762608C507.80142 59.762608 509.14456 61.10575 509.14456 62.762608Z" fill-rule="nonzero"/><path fill="#000000" fill-opacity="0.0" clip-path="url(#id_0)" d="M514.1782 62.64421C514.1782 64.30106 512.8351 65.64421 511.17822 65.64421C509.52136 65.64421 508.17822 64.30106 508.17822 62.64421C508.17822 60.98736 509.52136 59.64421 511.17822 59.64421C512.8351 59.64421 514.1782 60.98736 514.1782 62.64421Z" fill-rule="nonzero"/><path fill="#000000" fill-opacity="0.0" clip-path="url(#id_0)" d="M519.21185 62.553513C519.21185 64.210365 517.8687 65.55351 516.21185 65.55351C514.55505 65.55351 513.21185 64.210365 513.21185 62.553513C513.21185 60.896656 514.55505 59.553513 516.21185 59.553513C517.8687 59.553513 519.21185 60.896656 519.21185 62.553513Z" fill-rule="nonzero"/><path fill="#000000" fill-opacity="0.0" clip-path="url(#id_0)" d="M524.24554 62.485336C524.24554 64.14219 522.9024 65.48534 521.24554 65.48534C519.5887 65.48534 518.24554 64.14219 518.24554 62.485336C518.24554 60.82848 519.5887 59.485336 521.24554 59.485336C522.9024 59.485336 524.24554 60.82848 524.24554 62.485336Z" fill-rule="nonzero"/><path fill="#000000" fill-opacity="0.0" clip-path="url(#id_0)" d="M529.27924 62.435204C529.27924 64.09206 527.93604 65.4352 526.27924 65.4352C524.6224 65.4352 523.27924 64.09206 523.27924 62.435204C523.27924 60.778347 524.6224 59.435204 526.27924 59.435204C527.93604 59.435204 529.27924 60.778347 529.27924 62.435204Z" fill-rule="nonzero"/><path fill="#000000" fill-opacity="0.0" clip-path="url(#id_0)" d="M534.31287 62.399265C534.31287 64.05612 532.9697 65.39927 531.31287 65.39927C529.656 65.39927 528.31287 64.05612 528.31287 62.399265C528.31287 60.742413 529.656 59.399265 531.31287 59.399265C532.9697 59.399265 534.31287 60.742413 534.31287 62.399265Z" fill-rule="nonzero"/><path fill="#000000" fill-opacity="0.0" clip-path="url(#id_0)" d="M539.34656 62.37427C539.34656 64.03113 538.0034 65.374275 536.34656 65.374275C534.6897 65.374275 533.34656 64.03113 533.34656 62.37427C533.34656 60.71742 534.6897 59.37427 536.34656 59.37427C538.0034 59.37427 539.34656 60.71742 539.34656 62.37427Z" fill-rule="nonzero"/><path fill="#000000" fill-opacity="0.0" clip-path="url(#id_0)" d="M544.3802 62.357506C544.3802 64.01436 543.03705 65.357506 541.3802 65.357506C539.7233 65.357506 538.3802 64.01436 538.3802 62.357506C538.3802 60.700653 539.7233 59.357506 541.3802 59.357506C543.03705 59.357506 544.3802 60.700653 544.3802 62.357506Z" fill-rule="nonzero"/><path fill="#000000" fill-opacity="0.0" clip-path="url(#id_0)" d="M549.4139 62.34675C549.4139 64.0036 548.07074 65.34675 546.4139 65.34675C544.757 65.34675 543.4139 64.0036 543.4139 62.34675C543.4139 60.689896 544.757 59.34675 546.4139 59.34675C548.07074 59.34675 549.4139 60.689896 549.4139 62.34675Z" fill-rule="nonzero"/><path fill="#000000" fill-opacity="0.0" clip-path="url(#id_0)" d="M554.4475 62.340214C554.4475 63.997066 553.1044 65.34022 551.4475 65.34022C549.79065 65.34022 548.4475 63.997066 548.4475 62.340214C548.4475 60.68336 549.79065 59.340214 551.4475 59.340214C553.1044 59.340214 554.4475 60.68336 554.4475 62.340214Z" fill-rule="nonzero"/><path fill="#000000" fill-opacity="0.0" clip-path="url(#id_0)" d="M559.4812 62.336517C559.4812 63.99337 558.13806 65.33652 556.4812 65.33652C554.82434 65.33652 553.4812 63.99337 553.4812 62.336517C553.4812 60.67966 554.82434 59.336517 556.4812 59.336517C558.13806 59.336517 559.4812 60.67966 559.4812 62.336517Z" fill-rule="nonzero"/><path fill="#000000" fill-opacity="0.0" clip-path="url(#id_0)" d="M564.51483 62.334614C564.51483 63.991467 563.1717 65.33461 561.51483 65.33461C559.858 65.33461 558.51483 63.991467 558.51483 62.334614C558.51483 60.677757 559.858 59.334614 561.51483 59.334614C563.1717 59.334614 564.51483 60.677757 564.51483 62.334614Z" fill-rule="nonzero"/><path fill="#000000" fill-opacity="0.0" clip-path="url(#id_0)" d="M569.5485 62.33375C569.5485 63.99061 568.2054 65.333755 566.5485 65.333755C564.89166 65.333755 563.5485 63.99061 563.5485 62.33375C563.5485 60.6769 564.89166 59.33375 566.5485 59.33375C568.2054 59.33375 569.5485 60.6769 569.5485 62.33375Z" fill-rule="nonzero"/><path fill="#000000" fill-opacity="0.0" clip-path="url(#id_0)" d="M574.58215 62.33343C574.58215 63.990288 573.239 65.333435 571.58215 65.333435C569.92535 65.333435 568.58215 63.990288 568.58215 62.33343C568.58215 60.67658 569.92535 59.33343 571.58215 59.33343C573.239 59.33343 574.58215 60.67658 574.58215 62.33343Z" fill-rule="nonzero"/><path fill="#000000" fill-opacity="0.0" clip-path="url(#id_0)" d="M579.61584 62.333347C579.61584 63.9902 578.2727 65.33334 576.61584 65.33334C574.959 65.33334 573.61584 63.9902 573.61584 62.333347C573.61584 60.67649 574.959 59.333347 576.61584 59.333347C578.2727 59.333347 579.61584 60.67649 579.61584 62.333347Z" fill-rule="nonzero"/><path fill="#000000" fill-opacity="0.0" clip-path="url(#id_0)" d="M584.6495 62.333332C584.6495 63.99019 583.30634 65.333336 581.6495 65.333336C579.9927 65.333336 578.6495 63.99019 578.6495 62.333332C578.6495 60.67648 579.9927 59.333332 581.6495 59.333332C583.30634 59.333332 584.6495 60.67648 584.6495 62.333332Z" fill-rule="nonzero"/><path fill="#000000" fill-opacity="0.0" clip-path="url(#id_0)" d="M589.68317 62.333332C589.68317 63.99019 588.34 65.333336 586.68317 65.333336C585.0263 65.333336 583.68317 63.99019 583.68317 62.333332C583.68317 60.67648 585.0263 59.333332 586.68317 59.333332C588.34 59.333332 589.68317 60.67648 589.68317 62.333332Z" fill-rule="nonzero"/><path fill="#000000" d="M336.59375 353.2625L336.75 354.1844Q336.29688 354.27814 335.95312 354.27814Q335.375 354.27814 335.0625 354.10626Q334.75 353.91876 334.60938 353.6219Q334.48438 353.325 334.48438 352.3719L334.48438 348.79376L333.71875 348.79376L333.71875 347.98126L334.48438 347.98126L334.48438 346.4344L335.53125 345.8094L335.53125 347.98126L336.59375 347.98126L336.59375 348.79376L335.53125 348.79376L335.53125 352.4344Q335.53125 352.8875 335.57812 353.0125Q335.64062 353.1375 335.76562 353.21564Q335.89062 353.29376 336.125 353.29376Q336.3125 353.29376 336.59375 353.2625Z" fill-rule="nonzero"/><path fill="#000000" d="M29.800013 192.67291L26.565638 190.40729L23.581263 192.50104L23.581263 191.18854L25.034388 190.23541Q25.456263 189.96979 25.737513 189.79791Q25.346888 189.54791 25.050013 189.32916L23.581263 188.28229L23.581263 187.01666L26.503138 189.17291L29.800013 186.86041L29.800013 188.14166L27.862513 189.42291L27.346888 189.76666L29.800013 191.40729L29.800013 192.67291Z" fill-rule="nonzero"/><path fill="#000000" d="M51.3 317.96564Q51.3 316.4344 51.6125 315.5125Q51.925 314.575 52.534374 314.075Q53.159374 313.575 54.096874 313.575Q54.784374 313.575 55.3 313.85626Q55.83125 314.1375 56.175 314.66876Q56.51875 315.1844 56.70625 315.9344Q56.89375 316.6844 56.89375 317.96564Q56.89375 319.48126 56.58125 320.40314Q56.284374 321.325 55.659374 321.84064Q55.05 322.34064 54.096874 322.34064Q52.8625 322.34064 52.14375 321.45Q51.3 320.3875 51.3 317.96564ZM52.378124 317.96564Q52.378124 320.075 52.878124 320.77814Q53.378124 321.48126 54.096874 321.48126Q54.83125 321.48126 55.315624 320.77814Q55.815624 320.075 55.815624 317.96564Q55.815624 315.84064 55.315624 315.15314Q54.83125 314.45 54.08125 314.45Q53.3625 314.45 52.925 315.0594Q52.378124 315.84064 52.378124 317.96564ZM58.89375 322.2L58.89375 320.9969L60.096874 320.9969L60.096874 322.2L58.89375 322.2ZM61.3 317.96564Q61.3 316.4344 61.6125 315.5125Q61.925 314.575 62.534374 314.075Q63.159374 313.575 64.09688 313.575Q64.78438 313.575 65.3 313.85626Q65.83125 314.1375 66.175 314.66876Q66.51875 315.1844 66.70625 315.9344Q66.89375 316.6844 66.89375 317.96564Q66.89375 319.48126 66.58125 320.40314Q66.28438 321.325 65.65938 321.84064Q65.05 322.34064 64.09688 322.34064Q62.8625 322.34064 62.14375 321.45Q61.3 320.3875 61.3 317.96564ZM62.378124 317.96564Q62.378124 320.075 62.878124 320.77814Q63.378124 321.48126 64.09688 321.48126Q64.83125 321.48126 65.31563 320.77814Q65.81563 320.075 65.81563 317.96564Q65.81563 315.84064 65.31563 315.15314Q64.83125 314.45 64.08125 314.45Q63.3625 314.45 62.925 315.0594Q62.378124 315.84064 62.378124 317.96564ZM68.3 317.96564Q68.3 316.4344 68.6125 315.5125Q68.925 314.575 69.53438 314.075Q70.15938 313.575 71.09688 313.575Q71.78438 313.575 72.3 313.85626Q72.83125 314.1375 73.175 314.66876Q73.51875 315.1844 73.70625 315.9344Q73.89375 316.6844 73.89375 317.96564Q73.89375 319.48126 73.58125 320.40314Q73.28438 321.325 72.65938 321.84064Q72.05 322.34064 71.09688 322.34064Q69.8625 322.34064 69.14375 321.45Q68.3 320.3875 68.3 317.96564ZM69.37813 317.96564Q69.37813 320.075 69.87813 320.77814Q70.37813 321.48126 71.09688 321.48126Q71.83125 321.48126 72.31563 320.77814Q72.81563 320.075 72.81563 317.96564Q72.81563 315.84064 72.31563 315.15314Q71.83125 314.45 71.08125 314.45Q70.3625 314.45 69.925 315.0594Q69.37813 315.84064 69.37813 317.96564Z" fill-rule="nonzero"/><path fill="#000000" d="M51.3 253.99896Q51.3 252.46771 51.6125 251.54584Q51.925 250.60834 52.534374 250.10834Q53.159374 249.60834 54.096874 249.60834Q54.784374 249.60834 55.3 249.88959Q55.83125 250.17084 56.175 250.70209Q56.51875 251.21771 56.70625 251.96771Q56.89375 252.71771 56.89375 253.99896Q56.89375 255.51459 56.58125 256.43646Q56.284374 257.35834 55.659374 257.87396Q55.05 258.37396 54.096874 258.37396Q52.8625 258.37396 52.14375 257.48334Q51.3 256.42084 51.3 253.99896ZM52.378124 253.99896Q52.378124 256.10834 52.878124 256.81146Q53.378124 257.5146 54.096874 257.5146Q54.83125 257.5146 55.315624 256.81146Q55.815624 256.10834 55.815624 253.99896Q55.815624 251.87396 55.315624 251.18646Q54.83125 250.48334 54.08125 250.48334Q53.3625 250.48334 52.925 251.09271Q52.378124 251.87396 52.378124 253.99896ZM58.89375 258.23334L58.89375 257.0302L60.096874 257.0302L60.096874 258.23334L58.89375 258.23334ZM66.84688 257.2177L66.84688 258.23334L61.159374 258.23334Q61.159374 257.85834 61.284374 257.49896Q61.503124 256.92084 61.971874 256.35834Q62.45625 255.79584 63.3625 255.06146Q64.76875 253.90521 65.25313 253.23334Q65.75313 252.56146 65.75313 251.96771Q65.75313 251.34271 65.3 250.92084Q64.84688 250.48334 64.12813 250.48334Q63.3625 250.48334 62.909374 250.93646Q62.45625 251.38959 62.440624 252.20209L61.3625 252.09271Q61.471874 250.87396 62.190624 250.24896Q62.925 249.60834 64.15938 249.60834Q65.39375 249.60834 66.1125 250.29584Q66.83125 250.98334 66.83125 251.99896Q66.83125 252.51459 66.6125 253.01459Q66.40938 253.49896 65.90938 254.06146Q65.425 254.60834 64.3 255.56146Q63.346874 256.35834 63.065624 256.6552Q62.8 256.93646 62.628124 257.2177L66.84688 257.2177ZM68.3 255.98334L69.40938 255.88959Q69.53438 256.7021 69.97188 257.10834Q70.425 257.5146 71.06563 257.5146Q71.81563 257.5146 72.34688 256.93646Q72.87813 256.35834 72.87813 255.42084Q72.87813 254.51459 72.3625 253.99896Q71.8625 253.46771 71.03438 253.46771Q70.53438 253.46771 70.1125 253.70209Q69.70625 253.93646 69.47188 254.29584L68.4875 254.17084L69.31563 249.76459L73.59688 249.76459L73.59688 250.76459L70.15938 250.76459L69.70625 253.07709Q70.47188 252.53021 71.31563 252.53021Q72.44063 252.53021 73.20625 253.31146Q73.9875 254.09271 73.9875 255.32709Q73.9875 256.48334 73.31563 257.3427Q72.4875 258.37396 71.06563 258.37396Q69.89375 258.37396 69.14375 257.7177Q68.40938 257.06146 68.3 255.98334Z" fill-rule="nonzero"/><path fill="#000000" d="M51.3 190.03229Q51.3 188.50104 51.6125 187.57916Q51.925 186.64166 52.534374 186.14166Q53.159374 185.64166 54.096874 185.64166Q54.784374 185.64166 55.3 185.92291Q55.83125 186.20416 56.175 186.73541Q56.51875 187.25104 56.70625 188.00104Q56.89375 188.75104 56.89375 190.03229Q56.89375 191.54791 56.58125 192.46979Q56.284374 193.39166 55.659374 193.90729Q55.05 194.40729 54.096874 194.40729Q52.8625 194.40729 52.14375 193.51666Q51.3 192.45416 51.3 190.03229ZM52.378124 190.03229Q52.378124 192.14166 52.878124 192.84479Q53.378124 193.54791 54.096874 193.54791Q54.83125 193.54791 55.315624 192.84479Q55.815624 192.14166 55.815624 190.03229Q55.815624 187.90729 55.315624 187.21979Q54.83125 186.51666 54.08125 186.51666Q53.3625 186.51666 52.925 187.12604Q52.378124 187.90729 52.378124 190.03229ZM58.89375 194.26666L58.89375 193.06354L60.096874 193.06354L60.096874 194.26666L58.89375 194.26666ZM61.3 192.01666L62.409374 191.92291Q62.534374 192.73541 62.971874 193.14166Q63.425 193.54791 64.06563 193.54791Q64.81563 193.54791 65.34688 192.96979Q65.87813 192.39166 65.87813 191.45416Q65.87813 190.54791 65.3625 190.03229Q64.8625 189.50104 64.03438 189.50104Q63.534374 189.50104 63.1125 189.73541Q62.70625 189.96979 62.471874 190.32916L61.4875 190.20416L62.315624 185.79791L66.59688 185.79791L66.59688 186.79791L63.159374 186.79791L62.70625 189.11041Q63.471874 188.56354 64.31563 188.56354Q65.44063 188.56354 66.20625 189.34479Q66.9875 190.12604 66.9875 191.36041Q66.9875 192.51666 66.31563 193.37604Q65.4875 194.40729 64.06563 194.40729Q62.89375 194.40729 62.14375 193.75104Q61.409374 193.09479 61.3 192.01666ZM68.3 190.03229Q68.3 188.50104 68.6125 187.57916Q68.925 186.64166 69.53438 186.14166Q70.15938 185.64166 71.09688 185.64166Q71.78438 185.64166 72.3 185.92291Q72.83125 186.20416 73.175 186.73541Q73.51875 187.25104 73.70625 188.00104Q73.89375 188.75104 73.89375 190.03229Q73.89375 191.54791 73.58125 192.46979Q73.28438 193.39166 72.65938 193.90729Q72.05 194.40729 71.09688 194.40729Q69.8625 194.40729 69.14375 193.51666Q68.3 192.45416 68.3 190.03229ZM69.37813 190.03229Q69.37813 192.14166 69.87813 192.84479Q70.37813 193.54791 71.09688 193.54791Q71.83125 193.54791 72.31563 192.84479Q72.81563 192.14166 72.81563 190.03229Q72.81563 187.90729 72.31563 187.21979Q71.83125 186.51666 71.08125 186.51666Q70.3625 186.51666 69.925 187.12604Q69.37813 187.90729 69.37813 190.03229Z" fill-rule="nonzero"/><path fill="#000000" d="M51.3 126.06563Q51.3 124.53438 51.6125 123.6125Q51.925 122.675 52.534374 122.175Q53.159374 121.675 54.096874 121.675Q54.784374 121.675 55.3 121.95625Q55.83125 122.2375 56.175 122.76875Q56.51875 123.28438 56.70625 124.03438Q56.89375 124.78438 56.89375 126.06563Q56.89375 127.58125 56.58125 128.50313Q56.284374 129.425 55.659374 129.94063Q55.05 130.44063 54.096874 130.44063Q52.8625 130.44063 52.14375 129.55Q51.3 128.4875 51.3 126.06563ZM52.378124 126.06563Q52.378124 128.175 52.878124 128.87813Q53.378124 129.58125 54.096874 129.58125Q54.83125 129.58125 55.315624 128.87813Q55.815624 128.175 55.815624 126.06563Q55.815624 123.94063 55.315624 123.25313Q54.83125 122.55 54.08125 122.55Q53.3625 122.55 52.925 123.15938Q52.378124 123.94063 52.378124 126.06563ZM58.89375 130.3L58.89375 129.09688L60.096874 129.09688L60.096874 130.3L58.89375 130.3ZM61.3625 122.83125L61.3625 121.81563L66.925 121.81563L66.925 122.64375Q66.1125 123.51875 65.3 124.97188Q64.50313 126.40938 64.06563 127.94063Q63.7375 129.01875 63.659374 130.3L62.565624 130.3Q62.58125 129.28438 62.95625 127.84688Q63.346874 126.40938 64.05 125.08125Q64.76875 123.75313 65.58125 122.83125L61.3625 122.83125ZM68.3 128.05L69.40938 127.95625Q69.53438 128.76875 69.97188 129.175Q70.425 129.58125 71.06563 129.58125Q71.81563 129.58125 72.34688 129.00313Q72.87813 128.425 72.87813 127.4875Q72.87813 126.58125 72.3625 126.06563Q71.8625 125.53438 71.03438 125.53438Q70.53438 125.53438 70.1125 125.76875Q69.70625 126.00313 69.47188 126.3625L68.4875 126.2375L69.31563 121.83125L73.59688 121.83125L73.59688 122.83125L70.15938 122.83125L69.70625 125.14375Q70.47188 124.59688 71.31563 124.59688Q72.44063 124.59688 73.20625 125.37813Q73.9875 126.15938 73.9875 127.39375Q73.9875 128.55 73.31563 129.40938Q72.4875 130.44063 71.06563 130.44063Q69.89375 130.44063 69.14375 129.78438Q68.40938 129.12813 68.3 128.05Z" fill-rule="nonzero"/><path fill="#000000" d="M55.26875 66.333336L54.221874 66.333336L54.221874 59.614586Q53.83125 59.97396 53.20625 60.34896Q52.596874 60.708336 52.1125 60.88021L52.1125 59.864586Q52.9875 59.44271 53.64375 58.864586Q54.315624 58.270836 54.596874 57.708336L55.26875 57.708336L55.26875 66.333336ZM58.89375 66.333336L58.89375 65.13021L60.096874 65.13021L60.096874 66.333336L58.89375 66.333336ZM61.3 62.09896Q61.3 60.56771 61.6125 59.645836Q61.925 58.708336 62.534374 58.208336Q63.159374 57.708336 64.09688 57.708336Q64.78438 57.708336 65.3 57.989586Q65.83125 58.270836 66.175 58.802086Q66.51875 59.31771 66.70625 60.06771Q66.89375 60.81771 66.89375 62.09896Q66.89375 63.614586 66.58125 64.53646Q66.28438 65.458336 65.65938 65.97396Q65.05 66.47396 64.09688 66.47396Q62.8625 66.47396 62.14375 65.583336Q61.3 64.520836 61.3 62.09896ZM62.378124 62.09896Q62.378124 64.208336 62.878124 64.91146Q63.378124 65.614586 64.09688 65.614586Q64.83125 65.614586 65.31563 64.91146Q65.81563 64.208336 65.81563 62.09896Q65.81563 59.97396 65.31563 59.28646Q64.83125 58.583336 64.08125 58.583336Q63.3625 58.583336 62.925 59.19271Q62.378124 59.97396 62.378124 62.09896ZM68.3 62.09896Q68.3 60.56771 68.6125 59.645836Q68.925 58.708336 69.53438 58.208336Q70.15938 57.708336 71.09688 57.708336Q71.78438 57.708336 72.3 57.989586Q72.83125 58.270836 73.175 58.802086Q73.51875 59.31771 73.70625 60.06771Q73.89375 60.81771 73.89375 62.09896Q73.89375 63.614586 73.58125 64.53646Q73.28438 65.458336 72.65938 65.97396Q72.05 66.47396 71.09688 66.47396Q69.8625 66.47396 69.14375 65.583336Q68.3 64.520836 68.3 62.09896ZM69.37813 62.09896Q69.37813 64.208336 69.87813 64.91146Q70.37813 65.614586 71.09688 65.614586Q71.83125 65.614586 72.31563 64.91146Q72.81563 64.208336 72.81563 62.09896Q72.81563 59.97396 72.31563 59.28646Q71.83125 58.583336 71.08125 58.583336Q70.3625 58.583336 69.925 59.19271Q69.37813 59.97396 69.37813 62.09896Z" fill-rule="nonzero"/><path fill="#757575" d="M20.378124 37.8L20.378124 23.4875L30.7375 23.4875L30.7375 25.175L22.284374 25.175L22.284374 29.55L30.190624 29.55L30.190624 31.2375L22.284374 31.2375L22.284374 36.1125L31.065624 36.1125L31.065624 37.8L20.378124 37.8ZM39.89375 36.51875Q38.909374 37.346874 38.003124 37.690624Q37.096874 38.034374 36.065624 38.034374Q34.3625 38.034374 33.440624 37.20625Q32.51875 36.3625 32.51875 35.065624Q32.51875 34.3 32.8625 33.675Q33.221874 33.05 33.784374 32.675Q34.346874 32.284374 35.05 32.08125Q35.565624 31.95625 36.6125 31.815624Q38.7375 31.565624 39.7375 31.221874Q39.753124 30.8625 39.753124 30.753124Q39.753124 29.690624 39.253124 29.2375Q38.58125 28.64375 37.253124 28.64375Q36.003124 28.64375 35.409374 29.08125Q34.83125 29.51875 34.55 30.628124L32.83125 30.39375Q33.065624 29.284374 33.596874 28.6125Q34.128124 27.925 35.14375 27.565624Q36.159374 27.190624 37.503124 27.190624Q38.83125 27.190624 39.659374 27.503124Q40.4875 27.815624 40.878124 28.3Q41.26875 28.76875 41.425 29.4875Q41.51875 29.940624 41.51875 31.1125L41.51875 33.45625Q41.51875 35.909374 41.628124 36.565624Q41.7375 37.20625 42.08125 37.8L40.2375 37.8Q39.971874 37.253124 39.89375 36.51875ZM39.7375 32.596874Q38.784374 32.9875 36.8625 33.253124Q35.784374 33.409374 35.33125 33.6125Q34.89375 33.8 34.64375 34.175Q34.39375 34.55 34.39375 35.01875Q34.39375 35.721874 34.925 36.190624Q35.45625 36.659374 36.4875 36.659374Q37.503124 36.659374 38.284374 36.221874Q39.08125 35.76875 39.45625 35.003124Q39.7375 34.39375 39.7375 33.2375L39.7375 32.596874ZM43.409374 34.70625L45.159374 34.425Q45.3 35.471874 45.971874 36.034374Q46.64375 36.58125 47.846874 36.58125Q49.05 36.58125 49.628124 36.096874Q50.221874 35.596874 50.221874 34.940624Q50.221874 34.346874 49.70625 34.003124Q49.346874 33.76875 47.909374 33.409374Q45.971874 32.909374 45.221874 32.565624Q44.4875 32.20625 44.096874 31.58125Q43.70625 30.940624 43.70625 30.175Q43.70625 29.4875 44.01875 28.89375Q44.346874 28.3 44.89375 27.909374Q45.3 27.6125 46.003124 27.409374Q46.721874 27.190624 47.534374 27.190624Q48.753124 27.190624 49.675 27.55Q50.596874 27.89375 51.034374 28.503124Q51.471874 29.096874 51.64375 30.096874L49.925 30.33125Q49.8 29.534374 49.2375 29.096874Q48.675 28.64375 47.659374 28.64375Q46.440624 28.64375 45.925 29.05Q45.409374 29.440624 45.409374 29.971874Q45.409374 30.315624 45.628124 30.596874Q45.83125 30.878124 46.3 31.065624Q46.565624 31.159374 47.846874 31.503124Q49.721874 32.003124 50.45625 32.33125Q51.190624 32.64375 51.6125 33.253124Q52.034374 33.846874 52.034374 34.753124Q52.034374 35.628124 51.51875 36.409374Q51.003124 37.190624 50.034374 37.6125Q49.065624 38.034374 47.846874 38.034374Q45.83125 38.034374 44.76875 37.190624Q43.70625 36.346874 43.409374 34.70625ZM61.221874 34.45625L63.034374 34.690624Q62.6125 36.26875 61.440624 37.159374Q60.284374 38.034374 58.471874 38.034374Q56.20625 38.034374 54.8625 36.64375Q53.534374 35.2375 53.534374 32.70625Q53.534374 30.08125 54.878124 28.64375Q56.221874 27.190624 58.378124 27.190624Q60.45625 27.190624 61.76875 28.6125Q63.096874 30.01875 63.096874 32.596874Q63.096874 32.753124 63.08125 33.065624L55.346874 33.065624Q55.440624 34.76875 56.315624 35.675Q57.190624 36.58125 58.4875 36.58125Q59.45625 36.58125 60.128124 36.08125Q60.815624 35.565624 61.221874 34.45625ZM55.440624 31.6125L61.2375 31.6125Q61.128124 30.315624 60.58125 29.659374Q59.7375 28.64375 58.39375 28.64375Q57.190624 28.64375 56.3625 29.45625Q55.534374 30.253124 55.440624 31.6125ZM65.65938 37.8L65.65938 23.4875L67.56563 23.4875L67.56563 37.8L65.65938 37.8ZM71.1125 37.8L71.1125 27.425L72.70625 27.425L72.70625 28.909374Q73.84688 27.190624 76.00313 27.190624Q76.94063 27.190624 77.72188 27.534374Q78.51875 27.8625 78.90938 28.409374Q79.3 28.95625 79.45625 29.70625Q79.55 30.20625 79.55 31.425L79.55 37.8L77.78438 37.8L77.78438 31.4875Q77.78438 30.409374 77.58125 29.878124Q77.37813 29.346874 76.84688 29.034374Q76.33125 28.721874 75.62813 28.721874Q74.50313 28.721874 73.69063 29.440624Q72.87813 30.14375 72.87813 32.128124L72.87813 37.8L71.1125 37.8ZM80.76875 30.83125Q80.76875 27.26875 82.675 25.253124Q84.59688 23.221874 87.62813 23.221874Q89.6125 23.221874 91.19063 24.175Q92.78438 25.128124 93.6125 26.83125Q94.45625 28.51875 94.45625 30.659374Q94.45625 32.83125 93.58125 34.55Q92.70625 36.26875 91.08125 37.159374Q89.47188 38.05 87.6125 38.05Q85.59688 38.05 84.00313 37.08125Q82.40938 36.096874 81.58125 34.409374Q80.76875 32.70625 80.76875 30.83125ZM82.72188 30.8625Q82.72188 33.440624 84.1125 34.940624Q85.50313 36.425 87.59688 36.425Q89.7375 36.425 91.1125 34.925Q92.50313 33.409374 92.50313 30.64375Q92.50313 28.909374 91.90938 27.6125Q91.33125 26.3 90.19063 25.58125Q89.05 24.8625 87.62813 24.8625Q85.62813 24.8625 84.175 26.253124Q82.72188 27.628124 82.72188 30.8625ZM103.90938 37.8L103.90938 36.26875Q102.70625 38.034374 100.62813 38.034374Q99.70625 38.034374 98.90938 37.690624Q98.1125 37.33125 97.72188 36.8Q97.34688 36.26875 97.19063 35.4875Q97.08125 34.971874 97.08125 33.846874L97.08125 27.425L98.83125 27.425L98.83125 33.175Q98.83125 34.55 98.94063 35.034374Q99.1125 35.721874 99.64375 36.128124Q100.19063 36.51875 100.97188 36.51875Q101.76875 36.51875 102.45625 36.1125Q103.15938 35.70625 103.44063 35.01875Q103.7375 34.315624 103.7375 32.9875L103.7375 27.425L105.4875 27.425L105.4875 37.8L103.90938 37.8ZM110.95625 36.221874L111.20625 37.784374Q110.47188 37.940624 109.87813 37.940624Q108.925 37.940624 108.39375 37.64375Q107.87813 37.33125 107.65938 36.846874Q107.44063 36.346874 107.44063 34.76875L107.44063 28.8L106.15938 28.8L106.15938 27.425L107.44063 27.425L107.44063 24.8625L109.19063 23.8L109.19063 27.425L110.95625 27.425L110.95625 28.8L109.19063 28.8L109.19063 34.8625Q109.19063 35.6125 109.28438 35.83125Q109.37813 36.034374 109.58125 36.175Q109.8 36.3 110.19063 36.3Q110.47188 36.3 110.95625 36.221874ZM124.19063 36.26875Q125.51875 37.175 126.62813 37.596874L126.06563 38.909374Q124.51875 38.3625 122.9875 37.159374Q121.39375 38.05 119.47188 38.05Q117.53438 38.05 115.94063 37.1125Q114.3625 36.175 113.50313 34.471874Q112.65938 32.76875 112.65938 30.64375Q112.65938 28.51875 113.51875 26.784374Q114.37813 25.05 115.95625 24.14375Q117.55 23.221874 119.51875 23.221874Q121.50313 23.221874 123.08125 24.175Q124.675 25.1125 125.50313 26.815624Q126.34688 28.503124 126.34688 30.628124Q126.34688 32.39375 125.81563 33.815624Q125.28438 35.221874 124.19063 36.26875ZM120.01875 33.846874Q121.65938 34.3 122.72188 35.20625Q124.39375 33.690624 124.39375 30.628124Q124.39375 28.89375 123.8 27.596874Q123.22188 26.3 122.08125 25.58125Q120.94063 24.8625 119.51875 24.8625Q117.40938 24.8625 116.00313 26.315624Q114.6125 27.753124 114.6125 30.64375Q114.6125 33.440624 115.9875 34.940624Q117.37813 36.425 119.51875 36.425Q120.53438 36.425 121.44063 36.034374Q120.55 35.471874 119.56563 35.221874L120.01875 33.846874ZM135.90938 37.8L135.90938 36.26875Q134.70625 38.034374 132.62813 38.034374Q131.70625 38.034374 130.90938 37.690624Q130.1125 37.33125 129.72188 36.8Q129.34688 36.26875 129.19063 35.4875Q129.08125 34.971874 129.08125 33.846874L129.08125 27.425L130.83125 27.425L130.83125 33.175Q130.83125 34.55 130.94063 35.034374Q131.1125 35.721874 131.64375 36.128124Q132.19063 36.51875 132.97188 36.51875Q133.76875 36.51875 134.45625 36.1125Q135.15938 35.70625 135.44063 35.01875Q135.7375 34.315624 135.7375 32.9875L135.7375 27.425L137.4875 27.425L137.4875 37.8L135.90938 37.8ZM139.12813 25.503124L139.12813 23.4875L140.89375 23.4875L140.89375 25.503124L139.12813 25.503124ZM139.12813 37.8L139.12813 27.425L140.89375 27.425L140.89375 37.8L139.12813 37.8ZM143.1125 37.8L143.1125 27.425L144.70625 27.425L144.70625 28.909374Q145.84688 27.190624 148.00313 27.190624Q148.94063 27.190624 149.72188 27.534374Q150.51875 27.8625 150.90938 28.409374Q151.3 28.95625 151.45625 29.70625Q151.55 30.20625 151.55 31.425L151.55 37.8L149.78438 37.8L149.78438 31.4875Q149.78438 30.409374 149.58125 29.878124Q149.37813 29.346874 148.84688 29.034374Q148.33125 28.721874 147.62813 28.721874Q146.50313 28.721874 145.69063 29.440624Q144.87813 30.14375 144.87813 32.128124L144.87813 37.8L143.1125 37.8ZM156.95625 36.221874L157.20625 37.784374Q156.47188 37.940624 155.87813 37.940624Q154.925 37.940624 154.39375 37.64375Q153.87813 37.33125 153.65938 36.846874Q153.44063 36.346874 153.44063 34.76875L153.44063 28.8L152.15938 28.8L152.15938 27.425L153.44063 27.425L153.44063 24.8625L155.19063 23.8L155.19063 27.425L156.95625 27.425L156.95625 28.8L155.19063 28.8L155.19063 34.8625Q155.19063 35.6125 155.28438 35.83125Q155.37813 36.034374 155.58125 36.175Q155.8 36.3 156.19063 36.3Q156.47188 36.3 156.95625 36.221874ZM159.12813 25.503124L159.12813 23.4875L160.89375 23.4875L160.89375 25.503124L159.12813 25.503124ZM159.12813 37.8L159.12813 27.425L160.89375 27.425L160.89375 37.8L159.12813 37.8ZM169.89375 34.003124L171.6125 34.221874Q171.33125 36.01875 170.15938 37.034374Q169.00313 38.034374 167.3 38.034374Q165.175 38.034374 163.87813 36.64375Q162.58125 35.253124 162.58125 32.659374Q162.58125 30.971874 163.12813 29.721874Q163.69063 28.45625 164.83125 27.83125Q165.97188 27.190624 167.31563 27.190624Q169.00313 27.190624 170.06563 28.05Q171.14375 28.909374 171.45625 30.471874L169.7375 30.7375Q169.50313 29.690624 168.87813 29.175Q168.25313 28.64375 167.37813 28.64375Q166.05 28.64375 165.22188 29.596874Q164.39375 30.55 164.39375 32.596874Q164.39375 34.690624 165.19063 35.64375Q165.9875 36.58125 167.28438 36.58125Q168.31563 36.58125 169.00313 35.95625Q169.70625 35.315624 169.89375 34.003124Z" fill-rule="nonzero"/></svg>