<svg version="1.1" viewBox="0.0 0.0 608.0 376.0" fill="none" stroke="none" stroke-linecap="square" stroke-miterlimit="10" width="608" height="376" xmlns:xlink="http://www.w3.org/1999/xlink" xmlns="http://www.w3.org/2000/svg"><path fill="#ffffff" d="M0 0L608.0 0L608.0 376.0L0 376.0L0 0Z" fill-rule="nonzero"/><path stroke="#333333" stroke-width="1.0" stroke-linecap="butt" d="M80.5 318.5L589.5 318.5" fill-rule="nonzero"/><path stroke="#cccccc" stroke-width="1.0" stroke-linecap="butt" d="M80.5 254.5L589.5 254.5" fill-rule="nonzero"/><path stroke="#cccccc" stroke-width="1.0" stroke-linecap="butt" d="M80.5 190.5L589.5 190.5" fill-rule="nonzero"/><path stroke="#cccccc" stroke-width="1.0" stroke-linecap="butt" d="M80.5 126.5L589.5 126.5" fill-rule="nonzero"/><path stroke="#cccccc" stroke-width="1.0" stroke-linecap="butt" d="M80.5 62.5L589.5 62.5" fill-rule="nonzero"/><path stroke="#000000" stroke-width="1.0" stroke-linecap="butt" d="M80.5 318.5L80.5 62.5" fill-rule="nonzero"/><clipPath id="id_0"><path d="M80.8 62.333332L589.2 62.333332L589.2 318.2L80.8 318.2L80.8 62.333332Z" clip-rule="nonzero"/></clipPath><path stroke="#4285f4" stroke-width="2.0" stroke-linecap="butt" clip-path="url(#id_0)" d="M83.31683 318.2C83.31683 318.2 86.67261 318.20007 88.350494 318.19974C90.02838 318.1994 91.70627 318.19907 93.384155 318.19797C95.06205 318.19684 96.73994 318.19547 98.41782 318.19308C100.09571 318.1907 101.7736 318.1878 103.451485 318.18362C105.12937 318.17944 106.80726 318.1745 108.485146 318.16803C110.16303 318.16153 111.84093 318.15402 113.518814 318.14474C115.1967 318.13544 116.87459 318.12485 118.552475 318.11224C120.23036 318.0996 121.90825 318.08545 123.586136 318.069C125.26402 318.05252 126.94192 318.03427 128.6198 318.01346C130.29768 317.99268 131.97557 317.96982 133.65347 317.94412C135.33136 317.91846 137.00925 317.89047 138.68713 317.85944C140.36502 317.8284 142.04291 317.7948 143.7208 317.75787C145.39868 317.72095 147.07657 317.68118 148.75446 317.63785C150.43234 317.59454 152.11023 317.54813 153.78812 317.4979C155.466 317.44766 157.14389 317.3941 158.82178 317.33646C160.49966 317.2788 162.17755 317.21756 163.85544 317.15198C165.53334 317.0864 167.21123 317.01697 168.88911 316.94293C170.567 316.8689 172.24489 316.79077 173.92278 316.7078C175.60066 316.6248 177.27855 316.53748 178.95644 316.445C180.63432 316.35257 182.31221 316.2555 183.9901 316.15308C185.66798 316.05063 187.34587 315.94333 189.02376 315.8304C190.70164 315.7175 192.37953 315.59946 194.05742 315.47552C195.73532 315.3516 197.41321 315.22232 199.0911 315.08688C200.76898 314.95145 202.44687 314.81036 204.12476 314.6629C205.80264 314.51544 207.48053 314.3621 209.15842 314.2021C210.8363 314.04208 212.51419 313.87595 214.19208 313.70288C215.86996 313.52985 217.54785 313.3504 219.22574 313.1638C220.90363 312.97717 222.58151 312.7839 224.2594 312.58322C225.93729 312.38254 227.61519 312.17493 229.29308 311.95966C230.97096 311.7444 232.64885 311.52197 234.32674 311.2916C236.00462 311.06125 237.68251 310.82346 239.3604 310.57748C241.03828 310.3315 242.71617 310.07785 244.39406 309.81577C246.07195 309.55368 247.74983 309.28363 249.42772 309.0049C251.1056 308.7262 252.7835 308.43927 254.46138 308.1434C256.13928 307.84753 257.81717 307.54324 259.49506 307.2297C261.17294 306.9162 262.85083 306.59396 264.52872 306.2623C266.2066 305.9306 267.8845 305.58997 269.56238 305.2396C271.24026 304.88922 272.91815 304.52963 274.59604 304.1601C276.27393 303.79053 277.9518 303.4115 279.6297 303.02225C281.3076 302.633 282.98547 302.234 284.66336 301.82452C286.34125 301.41507 288.01913 300.9956 289.69702 300.5654C291.3749 300.13522 293.0528 299.6948 294.73068 299.24335C296.40857 298.79193 298.08646 298.33 299.76434 297.8568C301.44223 297.38364 303.12012 296.8997 304.79803 296.40427C306.47592 295.9088 308.1538 295.40237 309.8317 294.88416C311.50958 294.36594 313.18747 293.83646 314.86536 293.29495C316.54324 292.75345 318.22113 292.20044 319.89902 291.63516C321.5769 291.06985 323.2548 290.4928 324.93268 289.9032C326.61057 289.3136 328.28845 288.71198 329.96634 288.09753C331.64423 287.48312 333.3221 286.8564 335.0 286.21667C336.6779 285.5769 338.35577 284.92462 340.03366 284.25903C341.71155 283.59344 343.38943 282.91504 345.06732 282.2231C346.7452 281.53116 348.4231 280.82614 350.10098 280.10733C351.77887 279.38852 353.45676 278.6564 355.13464 277.91022C356.81253 277.16403 358.49042 276.40427 360.1683 275.6302C361.8462 274.8561 363.52408 274.0682 365.20197 273.26572C366.87988 272.46323 368.55777 271.64667 370.23566 270.81528C371.91354 269.9839 373.59143 269.13815 375.26932 268.27734C376.9472 267.41653 378.6251 266.5411 380.30298 265.65036C381.98087 264.7596 383.65875 263.854 385.33664 262.9328C387.01453 262.0116 388.6924 261.0753 390.3703 260.12314C392.0482 259.17096 393.72607 258.20346 395.40396 257.21982C397.08185 256.23618 398.75974 255.23692 400.43762 254.22131C402.1155 253.20569 403.7934 252.17421 405.47128 251.12608C407.14917 250.07797 408.82706 249.01373 410.50494 247.93262C412.18283 246.8515 413.86072 245.754 415.5386 244.63936C417.2165 243.52472 418.89438 242.39345 420.57227 241.24477C422.25015 240.0961 423.92804 238.93054 425.60593 237.74733C427.2838 236.56412 428.96173 235.36377 430.63962 234.1455C432.3175 232.92723 433.9954 231.69156 435.67328 230.43773C437.35117 229.1839 439.02905 227.91241 440.70694 226.62251C442.38483 225.3326 444.0627 224.02478 445.7406 222.69827C447.4185 221.37178 449.09637 220.02711 450.77426 218.66351C452.45215 217.29991 454.13004 215.9179 455.80792 214.5167C457.4858 213.11548 459.1637 211.69559 460.84158 210.25626C462.51947 208.81691 464.19736 207.35864 465.87524 205.88068C467.55313 204.40271 469.23102 202.90555 470.9089 201.38843C472.5868 199.8713 474.26468 198.33475 475.94257 196.77795C477.62045 195.22118 479.29834 193.6447 480.97623 192.04776C482.6541 190.4508 484.332 188.8339 486.0099 187.19627C487.68777 185.55864 489.36566 183.90079 491.04358 182.22197C492.72147 180.54314 494.39935 178.84384 496.07724 177.1233C497.75513 175.40277 499.433 173.66151 501.1109 171.89877C502.7888 170.13602 504.46667 168.35228 506.14456 166.5468C507.82245 164.74132 509.50034 162.91461 511.17822 161.06589C512.8561 159.21716 514.534 157.34694 516.21185 155.45447C517.8898 153.562 519.5676 151.64777 521.24554 149.71103C522.92346 147.77429 524.6013 145.81555 526.27924 143.83403C527.9571 141.85251 529.635 139.84874 531.31287 137.82193C532.9908 135.79512 534.66864 133.7458 536.34656 131.6732C538.0244 129.6006 539.70233 127.50522 541.3802 125.3863C543.0581 123.26738 544.73596 121.125435 546.4139 118.959694C548.09174 116.79395 549.76965 114.604935 551.4475 112.39185C553.1254 110.17878 554.8033 107.94216 556.4812 105.681244C558.15906 103.42032 559.837 101.1356 561.51483 98.82632C563.19275 96.51704 564.8706 94.1837 566.5485 91.82555C568.2264 89.4674 569.9043 87.08494 571.58215 84.6774C573.2601 82.26987 574.9379 79.83777 576.61584 77.38034C578.2937 74.92291 579.9716 72.44067 581.6495 69.93283C583.3274 67.424995 586.68317 62.333332 586.68317 62.333332" fill-rule="nonzero"/><path fill="#000000" fill-opacity="0.0" clip-path="url(#id_0)" d="M86.31683 318.2C86.31683 319.85684 84.97369 321.2 83.31683 321.2C81.65998 321.2 80.31683 319.85684 80.31683 318.2C80.31683 316.54315 81.65998 315.2 83.31683 315.2C84.97369 315.2 86.31683 316.54315 86.31683 318.2Z" fill-rule="nonzero"/><path fill="#000000" fill-opacity="0.0" clip-path="url(#id_0)" d="M91.350494 318.19974C91.350494 319.8566 90.00735 321.19974 88.350494 321.19974C86.69364 321.19974 85.350494 319.8566 85.350494 318.19974C85.350494 316.54288 86.69364 315.19974 88.350494 315.19974C90.00735 315.19974 91.350494 316.54288 91.350494 318.19974Z" fill-rule="nonzero"/><path fill="#000000" fill-opacity="0.0" clip-path="url(#id_0)" d="M96.384155 318.19797C96.384155 319.8548 95.041016 321.19797 93.384155 321.19797C91.7273 321.19797 90.384155 319.8548 90.384155 318.19797C90.384155 316.5411 91.7273 315.19797 93.384155 315.19797C95.041016 315.19797 96.384155 316.5411 96.384155 318.19797Z" fill-rule="nonzero"/><path fill="#000000" fill-opacity="0.0" clip-path="url(#id_0)" d="M101.41782 318.19308C101.41782 319.84995 100.07468 321.19308 98.41782 321.19308C96.76097 321.19308 95.41782 319.84995 95.41782 318.19308C95.41782 316.53622 96.76097 315.19308 98.41782 315.19308C100.07468 315.19308 101.41782 316.53622 101.41782 318.19308Z" fill-rule="nonzero"/><path fill="#000000" fill-opacity="0.0" clip-path="url(#id_0)" d="M106.451485 318.18362C106.451485 319.84048 105.10834 321.18362 103.451485 321.18362C101.79463 321.18362 100.451485 319.84048 100.451485 318.18362C100.451485 316.52676 101.79463 315.18362 103.451485 315.18362C105.10834 315.18362 106.451485 316.52676 106.451485 318.18362Z" fill-rule="nonzero"/><path fill="#000000" fill-opacity="0.0" clip-path="url(#id_0)" d="M111.485146 318.16803C111.485146 319.82486 110.142006 321.16803 108.485146 321.16803C106.82829 321.16803 105.485146 319.82486 105.485146 318.16803C105.485146 316.51117 106.82829 315.16803 108.485146 315.16803C110.142006 315.16803 111.485146 316.51117 111.485146 318.16803Z" fill-rule="nonzero"/><path fill="#000000" fill-opacity="0.0" clip-path="url(#id_0)" d="M116.518814 318.14474C116.518814 319.80157 115.17567 321.14474 113.518814 321.14474C111.86196 321.14474 110.518814 319.80157 110.518814 318.14474C110.518814 316.48788 111.86196 315.14474 113.518814 315.14474C115.17567 315.14474 116.518814 316.48788 116.518814 318.14474Z" fill-rule="nonzero"/><path fill="#000000" fill-opacity="0.0" clip-path="url(#id_0)" d="M121.552475 318.11224C121.552475 319.7691 120.20933 321.11224 118.552475 321.11224C116.89562 321.11224 115.552475 319.7691 115.552475 318.11224C115.552475 316.45538 116.89562 315.11224 118.552475 315.11224C120.20933 315.11224 121.552475 316.45538 121.552475 318.11224Z" fill-rule="nonzero"/><path fill="#000000" fill-opacity="0.0" clip-path="url(#id_0)" d="M126.586136 318.069C126.586136 319.72586 125.243 321.069 123.586136 321.069C121.92928 321.069 120.586136 319.72586 120.586136 318.069C120.586136 316.41214 121.92928 315.069 123.586136 315.069C125.243 315.069 126.586136 316.41214 126.586136 318.069Z" fill-rule="nonzero"/><path fill="#000000" fill-opacity="0.0" clip-path="url(#id_0)" d="M131.6198 318.01346C131.6198 319.67032 130.27666 321.01346 128.6198 321.01346C126.962944 321.01346 125.619804 319.67032 125.619804 318.01346C125.619804 316.35663 126.962944 315.01346 128.6198 315.01346C130.27666 315.01346 131.6198 316.35663 131.6198 318.01346Z" fill-rule="nonzero"/><path fill="#000000" fill-opacity="0.0" clip-path="url(#id_0)" d="M136.65347 317.94412C136.65347 319.60098 135.31032 320.94412 133.65347 320.94412C131.99661 320.94412 130.65347 319.60098 130.65347 317.94412C130.65347 316.2873 131.99661 314.94412 133.65347 314.94412C135.31032 314.94412 136.65347 316.2873 136.65347 317.94412Z" fill-rule="nonzero"/><path fill="#000000" fill-opacity="0.0" clip-path="url(#id_0)" d="M141.68713 317.85944C141.68713 319.5163 140.34398 320.85944 138.68713 320.85944C137.03027 320.85944 135.68713 319.5163 135.68713 317.85944C135.68713 316.20258 137.03027 314.85944 138.68713 314.85944C140.34398 314.85944 141.68713 316.20258 141.68713 317.85944Z" fill-rule="nonzero"/><path fill="#000000" fill-opacity="0.0" clip-path="url(#id_0)" d="M146.7208 317.75787C146.7208 319.4147 145.37764 320.75787 143.7208 320.75787C142.06393 320.75787 140.7208 319.4147 140.7208 317.75787C140.7208 316.101 142.06393 314.75787 143.7208 314.75787C145.37764 314.75787 146.7208 316.101 146.7208 317.75787Z" fill-rule="nonzero"/><path fill="#000000" fill-opacity="0.0" clip-path="url(#id_0)" d="M151.75446 317.63785C151.75446 319.2947 150.41132 320.63785 148.75446 320.63785C147.0976 320.63785 145.75446 319.2947 145.75446 317.63785C145.75446 315.98102 147.0976 314.63785 148.75446 314.63785C150.41132 314.63785 151.75446 315.98102 151.75446 317.63785Z" fill-rule="nonzero"/><path fill="#000000" fill-opacity="0.0" clip-path="url(#id_0)" d="M156.78812 317.4979C156.78812 319.15475 155.44498 320.4979 153.78812 320.4979C152.13127 320.4979 150.78812 319.15475 150.78812 317.4979C150.78812 315.84103 152.13127 314.4979 153.78812 314.4979C155.44498 314.4979 156.78812 315.84103 156.78812 317.4979Z" fill-rule="nonzero"/><path fill="#000000" fill-opacity="0.0" clip-path="url(#id_0)" d="M161.82178 317.33646C161.82178 318.99332 160.47864 320.33646 158.82178 320.33646C157.16493 320.33646 155.82178 318.99332 155.82178 317.33646C155.82178 315.6796 157.16493 314.33646 158.82178 314.33646C160.47864 314.33646 161.82178 315.6796 161.82178 317.33646Z" fill-rule="nonzero"/><path fill="#000000" fill-opacity="0.0" clip-path="url(#id_0)" d="M166.85544 317.15198C166.85544 318.80884 165.5123 320.15198 163.85544 320.15198C162.1986 320.15198 160.85544 318.80884 160.85544 317.15198C160.85544 315.49512 162.1986 314.15198 163.85544 314.15198C165.5123 314.15198 166.85544 315.49512 166.85544 317.15198Z" fill-rule="nonzero"/><path fill="#000000" fill-opacity="0.0" clip-path="url(#id_0)" d="M171.88911 316.94293C171.88911 318.5998 170.54596 319.94293 168.88911 319.94293C167.23225 319.94293 165.88911 318.5998 165.88911 316.94293C165.88911 315.28607 167.23225 313.94293 168.88911 313.94293C170.54596 313.94293 171.88911 315.28607 171.88911 316.94293Z" fill-rule="nonzero"/><path fill="#000000" fill-opacity="0.0" clip-path="url(#id_0)" d="M176.92278 316.7078C176.92278 318.36465 175.57962 319.7078 173.92278 319.7078C172.26591 319.7078 170.92278 318.36465 170.92278 316.7078C170.92278 315.05093 172.26591 313.7078 173.92278 313.7078C175.57962 313.7078 176.92278 315.05093 176.92278 316.7078Z" fill-rule="nonzero"/><path fill="#000000" fill-opacity="0.0" clip-path="url(#id_0)" d="M181.95644 316.445C181.95644 318.10187 180.6133 319.445 178.95644 319.445C177.29958 319.445 175.95644 318.10187 175.95644 316.445C175.95644 314.78815 177.29958 313.445 178.95644 313.445C180.6133 313.445 181.95644 314.78815 181.95644 316.445Z" fill-rule="nonzero"/><path fill="#000000" fill-opacity="0.0" clip-path="url(#id_0)" d="M186.9901 316.15308C186.9901 317.8099 185.64696 319.15308 183.9901 319.15308C182.33325 319.15308 180.9901 317.8099 180.9901 316.15308C180.9901 314.49622 182.33325 313.15308 183.9901 313.15308C185.64696 313.15308 186.9901 314.49622 186.9901 316.15308Z" fill-rule="nonzero"/><path fill="#000000" fill-opacity="0.0" clip-path="url(#id_0)" d="M192.02376 315.8304C192.02376 317.48727 190.68062 318.8304 189.02376 318.8304C187.36691 318.8304 186.02376 317.48727 186.02376 315.8304C186.02376 314.17355 187.36691 312.8304 189.02376 312.8304C190.68062 312.8304 192.02376 314.17355 192.02376 315.8304Z" fill-rule="nonzero"/><path fill="#000000" fill-opacity="0.0" clip-path="url(#id_0)" d="M197.05742 315.47552C197.05742 317.1324 195.71428 318.47552 194.05742 318.47552C192.40057 318.47552 191.05742 317.1324 191.05742 315.47552C191.05742 313.81866 192.40057 312.47552 194.05742 312.47552C195.71428 312.47552 197.05742 313.81866 197.05742 315.47552Z" fill-rule="nonzero"/><path fill="#000000" fill-opacity="0.0" clip-path="url(#id_0)" d="M202.0911 315.08688C202.0911 316.7437 200.74794 318.08688 199.0911 318.08688C197.43423 318.08688 196.0911 316.7437 196.0911 315.08688C196.0911 313.43002 197.43423 312.08688 199.0911 312.08688C200.74794 312.08688 202.0911 313.43002 202.0911 315.08688Z" fill-rule="nonzero"/><path fill="#000000" fill-opacity="0.0" clip-path="url(#id_0)" d="M207.12476 314.6629C207.12476 316.31976 205.7816 317.6629 204.12476 317.6629C202.4679 317.6629 201.12476 316.31976 201.12476 314.6629C201.12476 313.00604 202.4679 311.6629 204.12476 311.6629C205.7816 311.6629 207.12476 313.00604 207.12476 314.6629Z" fill-rule="nonzero"/><path fill="#000000" fill-opacity="0.0" clip-path="url(#id_0)" d="M212.15842 314.2021C212.15842 315.85895 210.81528 317.2021 209.15842 317.2021C207.50156 317.2021 206.15842 315.85895 206.15842 314.2021C206.15842 312.54523 207.50156 311.2021 209.15842 311.2021C210.81528 311.2021 212.15842 312.54523 212.15842 314.2021Z" fill-rule="nonzero"/><path fill="#000000" fill-opacity="0.0" clip-path="url(#id_0)" d="M217.19208 313.70288C217.19208 315.35974 215.84894 316.70288 214.19208 316.70288C212.53523 316.70288 211.19208 315.35974 211.19208 313.70288C211.19208 312.04602 212.53523 310.70288 214.19208 310.70288C215.84894 310.70288 217.19208 312.04602 217.19208 313.70288Z" fill-rule="nonzero"/><path fill="#000000" fill-opacity="0.0" clip-path="url(#id_0)" d="M222.22574 313.1638C222.22574 314.82062 220.8826 316.1638 219.22574 316.1638C217.5689 316.1638 216.22574 314.82062 216.22574 313.1638C216.22574 311.50693 217.5689 310.1638 219.22574 310.1638C220.8826 310.1638 222.22574 311.50693 222.22574 313.1638Z" fill-rule="nonzero"/><path fill="#000000" fill-opacity="0.0" clip-path="url(#id_0)" d="M227.2594 312.58322C227.2594 314.24008 225.91626 315.58322 224.2594 315.58322C222.60255 315.58322 221.2594 314.24008 221.2594 312.58322C221.2594 310.92636 222.60255 309.58322 224.2594 309.58322C225.91626 309.58322 227.2594 310.92636 227.2594 312.58322Z" fill-rule="nonzero"/><path fill="#000000" fill-opacity="0.0" clip-path="url(#id_0)" d="M232.29308 311.95966C232.29308 313.61652 230.94992 314.95966 229.29308 314.95966C227.63622 314.95966 226.29308 313.61652 226.29308 311.95966C226.29308 310.30283 227.63622 308.95966 229.29308 308.95966C230.94992 308.95966 232.29308 310.30283 232.29308 311.95966Z" fill-rule="nonzero"/><path fill="#000000" fill-opacity="0.0" clip-path="url(#id_0)" d="M237.32674 311.2916C237.32674 312.94846 235.98358 314.2916 234.32674 314.2916C232.66988 314.2916 231.32674 312.94846 231.32674 311.2916C231.32674 309.63474 232.66988 308.2916 234.32674 308.2916C235.98358 308.2916 237.32674 309.63474 237.32674 311.2916Z" fill-rule="nonzero"/><path fill="#000000" fill-opacity="0.0" clip-path="url(#id_0)" d="M242.3604 310.57748C242.3604 312.23434 241.01726 313.57748 239.3604 313.57748C237.70354 313.57748 236.3604 312.23434 236.3604 310.57748C236.3604 308.92062 237.70354 307.57748 239.3604 307.57748C241.01726 307.57748 242.3604 308.92062 242.3604 310.57748Z" fill-rule="nonzero"/><path fill="#000000" fill-opacity="0.0" clip-path="url(#id_0)" d="M247.39406 309.81577C247.39406 311.47263 246.05092 312.81577 244.39406 312.81577C242.7372 312.81577 241.39406 311.47263 241.39406 309.81577C241.39406 308.1589 242.7372 306.81577 244.39406 306.81577C246.05092 306.81577 247.39406 308.1589 247.39406 309.81577Z" fill-rule="nonzero"/><path fill="#000000" fill-opacity="0.0" clip-path="url(#id_0)" d="M252.42772 309.0049C252.42772 310.66177 251.08458 312.0049 249.42772 312.0049C247.77087 312.0049 246.42772 310.66177 246.42772 309.0049C246.42772 307.34805 247.77087 306.0049 249.42772 306.0049C251.08458 306.0049 252.42772 307.34805 252.42772 309.0049Z" fill-rule="nonzero"/><path fill="#000000" fill-opacity="0.0" clip-path="url(#id_0)" d="M257.4614 308.1434C257.4614 309.80026 256.11826 311.1434 254.46138 311.1434C252.80453 311.1434 251.46138 309.80026 251.46138 308.1434C251.46138 306.48657 252.80453 305.1434 254.46138 305.1434C256.11826 305.1434 257.4614 306.48657 257.4614 308.1434Z" fill-rule="nonzero"/><path fill="#000000" fill-opacity="0.0" clip-path="url(#id_0)" d="M262.49506 307.2297C262.49506 308.88657 261.15192 310.2297 259.49506 310.2297C257.8382 310.2297 256.49506 308.88657 256.49506 307.2297C256.49506 305.57288 257.8382 304.2297 259.49506 304.2297C261.15192 304.2297 262.49506 305.57288 262.49506 307.2297Z" fill-rule="nonzero"/><path fill="#000000" fill-opacity="0.0" clip-path="url(#id_0)" d="M267.52872 306.2623C267.52872 307.91913 266.18558 309.2623 264.52872 309.2623C262.87186 309.2623 261.52872 307.91913 261.52872 306.2623C261.52872 304.60544 262.87186 303.2623 264.52872 303.2623C266.18558 303.2623 267.52872 304.60544 267.52872 306.2623Z" fill-rule="nonzero"/><path fill="#000000" fill-opacity="0.0" clip-path="url(#id_0)" d="M272.56238 305.2396C272.56238 306.89645 271.21924 308.2396 269.56238 308.2396C267.90552 308.2396 266.56238 306.89645 266.56238 305.2396C266.56238 303.58273 267.90552 302.2396 269.56238 302.2396C271.21924 302.2396 272.56238 303.58273 272.56238 305.2396Z" fill-rule="nonzero"/><path fill="#000000" fill-opacity="0.0" clip-path="url(#id_0)" d="M277.59604 304.1601C277.59604 305.81693 276.2529 307.1601 274.59604 307.1601C272.93918 307.1601 271.59604 305.81693 271.59604 304.1601C271.59604 302.50323 272.93918 301.1601 274.59604 301.1601C276.2529 301.1601 277.59604 302.50323 277.59604 304.1601Z" fill-rule="nonzero"/><path fill="#000000" fill-opacity="0.0" clip-path="url(#id_0)" d="M282.6297 303.02225C282.6297 304.6791 281.28656 306.02225 279.6297 306.02225C277.97284 306.02225 276.6297 304.6791 276.6297 303.02225C276.6297 301.3654 277.97284 300.02225 279.6297 300.02225C281.28656 300.02225 282.6297 301.3654 282.6297 303.02225Z" fill-rule="nonzero"/><path fill="#000000" fill-opacity="0.0" clip-path="url(#id_0)" d="M287.66336 301.82452C287.66336 303.48138 286.32022 304.82452 284.66336 304.82452C283.0065 304.82452 281.66336 303.48138 281.66336 301.82452C281.66336 300.1677 283.0065 298.82452 284.66336 298.82452C286.32022 298.82452 287.66336 300.1677 287.66336 301.82452Z" fill-rule="nonzero"/><path fill="#000000" fill-opacity="0.0" clip-path="url(#id_0)" d="M292.69702 300.5654C292.69702 302.22226 291.35388 303.5654 289.69702 303.5654C288.04016 303.5654 286.69702 302.22226 286.69702 300.5654C286.69702 298.90857 288.04016 297.5654 289.69702 297.5654C291.35388 297.5654 292.69702 298.90857 292.69702 300.5654Z" fill-rule="nonzero"/><path fill="#000000" fill-opacity="0.0" clip-path="url(#id_0)" d="M297.73068 299.24335C297.73068 300.9002 296.38754 302.24335 294.73068 302.24335C293.07385 302.24335 291.73068 300.9002 291.73068 299.24335C291.73068 297.5865 293.07385 296.24335 294.73068 296.24335C296.38754 296.24335 297.73068 297.5865 297.73068 299.24335Z" fill-rule="nonzero"/><path fill="#000000" fill-opacity="0.0" clip-path="url(#id_0)" d="M302.76434 297.8568C302.76434 299.51367 301.4212 300.8568 299.76434 300.8568C298.1075 300.8568 296.76434 299.51367 296.76434 297.8568C296.76434 296.19995 298.1075 294.8568 299.76434 294.8568C301.4212 294.8568 302.76434 296.19995 302.76434 297.8568Z" fill-rule="nonzero"/><path fill="#000000" fill-opacity="0.0" clip-path="url(#id_0)" d="M307.79803 296.40427C307.79803 298.0611 306.45486 299.40427 304.79803 299.40427C303.14117 299.40427 301.79803 298.0611 301.79803 296.40427C301.79803 294.7474 303.14117 293.40427 304.79803 293.40427C306.45486 293.40427 307.79803 294.7474 307.79803 296.40427Z" fill-rule="nonzero"/><path fill="#000000" fill-opacity="0.0" clip-path="url(#id_0)" d="M312.8317 294.88416C312.8317 296.54102 311.48853 297.88416 309.8317 297.88416C308.17484 297.88416 306.8317 296.54102 306.8317 294.88416C306.8317 293.2273 308.17484 291.88416 309.8317 291.88416C311.48853 291.88416 312.8317 293.2273 312.8317 294.88416Z" fill-rule="nonzero"/><path fill="#000000" fill-opacity="0.0" clip-path="url(#id_0)" d="M317.86536 293.29495C317.86536 294.9518 316.5222 296.29495 314.86536 296.29495C313.2085 296.29495 311.86536 294.9518 311.86536 293.29495C311.86536 291.63812 313.2085 290.29495 314.86536 290.29495C316.5222 290.29495 317.86536 291.63812 317.86536 293.29495Z" fill-rule="nonzero"/><path fill="#000000" fill-opacity="0.0" clip-path="url(#id_0)" d="M322.89902 291.63516C322.89902 293.29202 321.55588 294.63516 319.89902 294.63516C318.24216 294.63516 316.89902 293.29202 316.89902 291.63516C316.89902 289.9783 318.24216 288.63516 319.89902 288.63516C321.55588 288.63516 322.89902 289.9783 322.89902 291.63516Z" fill-rule="nonzero"/><path fill="#000000" fill-opacity="0.0" clip-path="url(#id_0)" d="M327.93268 289.9032C327.93268 291.56006 326.58954 292.9032 324.93268 292.9032C323.27582 292.9032 321.93268 291.56006 321.93268 289.9032C321.93268 288.24634 323.27582 286.9032 324.93268 286.9032C326.58954 286.9032 327.93268 288.24634 327.93268 289.9032Z" fill-rule="nonzero"/><path fill="#000000" fill-opacity="0.0" clip-path="url(#id_0)" d="M332.96634 288.09753C332.96634 289.7544 331.6232 291.09753 329.96634 291.09753C328.30948 291.09753 326.96634 289.7544 326.96634 288.09753C326.96634 286.44067 328.30948 285.09753 329.96634 285.09753C331.6232 285.09753 332.96634 286.44067 332.96634 288.09753Z" fill-rule="nonzero"/><path fill="#000000" fill-opacity="0.0" clip-path="url(#id_0)" d="M338.0 286.21667C338.0 287.87354 336.65686 289.21667 335.0 289.21667C333.34314 289.21667 332.0 287.87354 332.0 286.21667C332.0 284.5598 333.34314 283.21667 335.0 283.21667C336.65686 283.21667 338.0 284.5598 338.0 286.21667Z" fill-rule="nonzero"/><path fill="#000000" fill-opacity="0.0" clip-path="url(#id_0)" d="M343.03366 284.25903C343.03366 285.9159 341.69052 287.25903 340.03366 287.25903C338.3768 287.25903 337.03366 285.9159 337.03366 284.25903C337.03366 282.60217 338.3768 281.25903 340.03366 281.25903C341.69052 281.25903 343.03366 282.60217 343.03366 284.25903Z" fill-rule="nonzero"/><path fill="#000000" fill-opacity="0.0" clip-path="url(#id_0)" d="M348.06732 282.2231C348.06732 283.87994 346.72418 285.2231 345.06732 285.2231C343.41046 285.2231 342.06732 283.87994 342.06732 282.2231C342.06732 280.56625 343.41046 279.2231 345.06732 279.2231C346.72418 279.2231 348.06732 280.56625 348.06732 282.2231Z" fill-rule="nonzero"/><path fill="#000000" fill-opacity="0.0" clip-path="url(#id_0)" d="M353.10098 280.10733C353.10098 281.7642 351.75784 283.10733 350.10098 283.10733C348.44412 283.10733 347.10098 281.7642 347.10098 280.10733C347.10098 278.45047 348.44412 277.10733 350.10098 277.10733C351.75784 277.10733 353.10098 278.45047 353.10098 280.10733Z" fill-rule="nonzero"/><path fill="#000000" fill-opacity="0.0" clip-path="url(#id_0)" d="M358.13464 277.91022C358.13464 279.56708 356.7915 280.91022 355.13464 280.91022C353.4778 280.91022 352.13464 279.56708 352.13464 277.91022C352.13464 276.25336 353.4778 274.91022 355.13464 274.91022C356.7915 274.91022 358.13464 276.25336 358.13464 277.91022Z" fill-rule="nonzero"/><path fill="#000000" fill-opacity="0.0" clip-path="url(#id_0)" d="M363.1683 275.6302C363.1683 277.28705 361.82516 278.6302 360.1683 278.6302C358.51147 278.6302 357.1683 277.28705 357.1683 275.6302C357.1683 273.97333 358.51147 272.6302 360.1683 272.6302C361.82516 272.6302 363.1683 273.97333 363.1683 275.6302Z" fill-rule="nonzero"/><path fill="#000000" fill-opacity="0.0" clip-path="url(#id_0)" d="M368.20197 273.26572C368.20197 274.92258 366.85883 276.26572 365.20197 276.26572C363.54514 276.26572 362.20197 274.92258 362.20197 273.26572C362.20197 271.60886 363.54514 270.26572 365.20197 270.26572C366.85883 270.26572 368.20197 271.60886 368.20197 273.26572Z" fill-rule="nonzero"/><path fill="#000000" fill-opacity="0.0" clip-path="url(#id_0)" d="M373.23566 270.81528C373.23566 272.47214 371.8925 273.81528 370.23566 273.81528C368.5788 273.81528 367.23566 272.47214 367.23566 270.81528C367.23566 269.15842 368.5788 267.81528 370.23566 267.81528C371.8925 267.81528 373.23566 269.15842 373.23566 270.81528Z" fill-rule="nonzero"/><path fill="#000000" fill-opacity="0.0" clip-path="url(#id_0)" d="M378.26932 268.27734C378.26932 269.9342 376.92615 271.27734 375.26932 271.27734C373.61246 271.27734 372.26932 269.9342 372.26932 268.27734C372.26932 266.62048 373.61246 265.27734 375.26932 265.27734C376.92615 265.27734 378.26932 266.62048 378.26932 268.27734Z" fill-rule="nonzero"/><path fill="#000000" fill-opacity="0.0" clip-path="url(#id_0)" d="M383.30298 265.65036C383.30298 267.30722 381.95984 268.65036 380.30298 268.65036C378.64612 268.65036 377.30298 267.30722 377.30298 265.65036C377.30298 263.9935 378.64612 262.65036 380.30298 262.65036C381.95984 262.65036 383.30298 263.9935 383.30298 265.65036Z" fill-rule="nonzero"/><path fill="#000000" fill-opacity="0.0" clip-path="url(#id_0)" d="M388.33664 262.9328C388.33664 264.58966 386.9935 265.9328 385.33664 265.9328C383.67978 265.9328 382.33664 264.58966 382.33664 262.9328C382.33664 261.27594 383.67978 259.9328 385.33664 259.9328C386.9935 259.9328 388.33664 261.27594 388.33664 262.9328Z" fill-rule="nonzero"/><path fill="#000000" fill-opacity="0.0" clip-path="url(#id_0)" d="M393.3703 260.12314C393.3703 261.77997 392.02716 263.12314 390.3703 263.12314C388.71344 263.12314 387.3703 261.77997 387.3703 260.12314C387.3703 258.46628 388.71344 257.12314 390.3703 257.12314C392.02716 257.12314 393.3703 258.46628 393.3703 260.12314Z" fill-rule="nonzero"/><path fill="#000000" fill-opacity="0.0" clip-path="url(#id_0)" d="M398.40396 257.21982C398.40396 258.87668 397.06082 260.21982 395.40396 260.21982C393.7471 260.21982 392.40396 258.87668 392.40396 257.21982C392.40396 255.56296 393.7471 254.2198 395.40396 254.2198C397.06082 254.2198 398.40396 255.56296 398.40396 257.21982Z" fill-rule="nonzero"/><path fill="#000000" fill-opacity="0.0" clip-path="url(#id_0)" d="M403.43762 254.22131C403.43762 255.87816 402.09448 257.2213 400.43762 257.2213C398.78076 257.2213 397.43762 255.87816 397.43762 254.22131C397.43762 252.56445 398.78076 251.22131 400.43762 251.22131C402.09448 251.22131 403.43762 252.56445 403.43762 254.22131Z" fill-rule="nonzero"/><path fill="#000000" fill-opacity="0.0" clip-path="url(#id_0)" d="M408.47128 251.12608C408.47128 252.78294 407.12814 254.12608 405.47128 254.12608C403.81442 254.12608 402.47128 252.78294 402.47128 251.12608C402.47128 249.46924 403.81442 248.12608 405.47128 248.12608C407.12814 248.12608 408.47128 249.46924 408.47128 251.12608Z" fill-rule="nonzero"/><path fill="#000000" fill-opacity="0.0" clip-path="url(#id_0)" d="M413.50494 247.93262C413.50494 249.58948 412.1618 250.93262 410.50494 250.93262C408.84808 250.93262 407.50494 249.58948 407.50494 247.93262C407.50494 246.27576 408.84808 244.93262 410.50494 244.93262C412.1618 244.93262 413.50494 246.27576 413.50494 247.93262Z" fill-rule="nonzero"/><path fill="#000000" fill-opacity="0.0" clip-path="url(#id_0)" d="M418.5386 244.63936C418.5386 246.2962 417.19547 247.63936 415.5386 247.63936C413.88174 247.63936 412.5386 246.2962 412.5386 244.63936C412.5386 242.9825 413.88174 241.63936 415.5386 241.63936C417.19547 241.63936 418.5386 242.9825 418.5386 244.63936Z" fill-rule="nonzero"/><path fill="#000000" fill-opacity="0.0" clip-path="url(#id_0)" d="M423.57227 241.24477C423.57227 242.90163 422.22913 244.24477 420.57227 244.24477C418.91544 244.24477 417.57227 242.90163 417.57227 241.24477C417.57227 239.58792 418.91544 238.24477 420.57227 238.24477C422.22913 238.24477 423.57227 239.58792 423.57227 241.24477Z" fill-rule="nonzero"/><path fill="#000000" fill-opacity="0.0" clip-path="url(#id_0)" d="M428.60593 237.74733C428.60593 239.40419 427.2628 240.74733 425.60593 240.74733C423.9491 240.74733 422.60593 239.40419 422.60593 237.74733C422.60593 236.09048 423.9491 234.74733 425.60593 234.74733C427.2628 234.74733 428.60593 236.09048 428.60593 237.74733Z" fill-rule="nonzero"/><path fill="#000000" fill-opacity="0.0" clip-path="url(#id_0)" d="M433.63962 234.1455C433.63962 235.80235 432.29645 237.1455 430.63962 237.1455C428.98276 237.1455 427.63962 235.80235 427.63962 234.1455C427.63962 232.48865 428.98276 231.1455 430.63962 231.1455C432.29645 231.1455 433.63962 232.48865 433.63962 234.1455Z" fill-rule="nonzero"/><path fill="#000000" fill-opacity="0.0" clip-path="url(#id_0)" d="M438.67328 230.43773C438.67328 232.09459 437.3301 233.43773 435.67328 233.43773C434.01642 233.43773 432.67328 232.09459 432.67328 230.43773C432.67328 228.78088 434.01642 227.43773 435.67328 227.43773C437.3301 227.43773 438.67328 228.78088 438.67328 230.43773Z" fill-rule="nonzero"/><path fill="#000000" fill-opacity="0.0" clip-path="url(#id_0)" d="M443.70694 226.62251C443.70694 228.27936 442.3638 229.62251 440.70694 229.62251C439.05008 229.62251 437.70694 228.27936 437.70694 226.62251C437.70694 224.96565 439.05008 223.62251 440.70694 223.62251C442.3638 223.62251 443.70694 224.96565 443.70694 226.62251Z" fill-rule="nonzero"/><path fill="#000000" fill-opacity="0.0" clip-path="url(#id_0)" d="M448.7406 222.69827C448.7406 224.35513 447.39746 225.69827 445.7406 225.69827C444.08374 225.69827 442.7406 224.35513 442.7406 222.69827C442.7406 221.04143 444.08374 219.69827 445.7406 219.69827C447.39746 219.69827 448.7406 221.04143 448.7406 222.69827Z" fill-rule="nonzero"/><path fill="#000000" fill-opacity="0.0" clip-path="url(#id_0)" d="M453.77426 218.66351C453.77426 220.32037 452.43112 221.66351 450.77426 221.66351C449.1174 221.66351 447.77426 220.32037 447.77426 218.66351C447.77426 217.00667 449.1174 215.66351 450.77426 215.66351C452.43112 215.66351 453.77426 217.00667 453.77426 218.66351Z" fill-rule="nonzero"/><path fill="#000000" fill-opacity="0.0" clip-path="url(#id_0)" d="M458.80792 214.5167C458.80792 216.17354 457.46478 217.5167 455.80792 217.5167C454.15106 217.5167 452.80792 216.17354 452.80792 214.5167C452.80792 212.85983 454.15106 211.5167 455.80792 211.5167C457.46478 211.5167 458.80792 212.85983 458.80792 214.5167Z" fill-rule="nonzero"/><path fill="#000000" fill-opacity="0.0" clip-path="url(#id_0)" d="M463.84158 210.25626C463.84158 211.9131 462.49844 213.25626 460.84158 213.25626C459.18472 213.25626 457.84158 211.9131 457.84158 210.25626C457.84158 208.5994 459.18472 207.25626 460.84158 207.25626C462.49844 207.25626 463.84158 208.5994 463.84158 210.25626Z" fill-rule="nonzero"/><path fill="#000000" fill-opacity="0.0" clip-path="url(#id_0)" d="M468.87524 205.88068C468.87524 207.53752 467.5321 208.88068 465.87524 208.88068C464.21838 208.88068 462.87524 207.53752 462.87524 205.88068C462.87524 204.22382 464.21838 202.88068 465.87524 202.88068C467.5321 202.88068 468.87524 204.22382 468.87524 205.88068Z" fill-rule="nonzero"/><path fill="#000000" fill-opacity="0.0" clip-path="url(#id_0)" d="M473.9089 201.38843C473.9089 203.04527 472.56577 204.38843 470.9089 204.38843C469.25204 204.38843 467.9089 203.04527 467.9089 201.38843C467.9089 199.73157 469.25204 198.38843 470.9089 198.38843C472.56577 198.38843 473.9089 199.73157 473.9089 201.38843Z" fill-rule="nonzero"/><path fill="#000000" fill-opacity="0.0" clip-path="url(#id_0)" d="M478.94257 196.77795C478.94257 198.43481 477.59943 199.77795 475.94257 199.77795C474.2857 199.77795 472.94257 198.43481 472.94257 196.77795C472.94257 195.12111 474.2857 193.77795 475.94257 193.77795C477.59943 193.77795 478.94257 195.12111 478.94257 196.77795Z" fill-rule="nonzero"/><path fill="#000000" fill-opacity="0.0" clip-path="url(#id_0)" d="M483.97623 192.04776C483.97623 193.7046 482.6331 195.04776 480.97623 195.04776C479.3194 195.04776 477.97623 193.7046 477.97623 192.04776C477.97623 190.3909 479.3194 189.04776 480.97623 189.04776C482.6331 189.04776 483.97623 190.3909 483.97623 192.04776Z" fill-rule="nonzero"/><path fill="#000000" fill-opacity="0.0" clip-path="url(#id_0)" d="M489.0099 187.19627C489.0099 188.85312 487.66675 190.19627 486.0099 190.19627C484.35306 190.19627 483.0099 188.85312 483.0099 187.19627C483.0099 185.53941 484.35306 184.19627 486.0099 184.19627C487.66675 184.19627 489.0099 185.53941 489.0099 187.19627Z" fill-rule="nonzero"/><path fill="#000000" fill-opacity="0.0" clip-path="url(#id_0)" d="M494.04358 182.22197C494.04358 183.87881 492.7004 185.22197 491.04358 185.22197C489.38672 185.22197 488.04358 183.87881 488.04358 182.22197C488.04358 180.56511 489.38672 179.22197 491.04358 179.22197C492.7004 179.22197 494.04358 180.56511 494.04358 182.22197Z" fill-rule="nonzero"/><path fill="#000000" fill-opacity="0.0" clip-path="url(#id_0)" d="M499.07724 177.1233C499.07724 178.78017 497.73407 180.1233 496.07724 180.1233C494.42038 180.1233 493.07724 178.78017 493.07724 177.1233C493.07724 175.46645 494.42038 174.1233 496.07724 174.1233C497.73407 174.1233 499.07724 175.46645 499.07724 177.1233Z" fill-rule="nonzero"/><path fill="#000000" fill-opacity="0.0" clip-path="url(#id_0)" d="M504.1109 171.89877C504.1109 173.55562 502.76773 174.89877 501.1109 174.89877C499.45404 174.89877 498.1109 173.55562 498.1109 171.89877C498.1109 170.24191 499.45404 168.89877 501.1109 168.89877C502.76773 168.89877 504.1109 170.24191 504.1109 171.89877Z" fill-rule="nonzero"/><path fill="#000000" fill-opacity="0.0" clip-path="url(#id_0)" d="M509.14456 166.5468C509.14456 168.20366 507.80142 169.5468 506.14456 169.5468C504.4877 169.5468 503.14456 168.20366 503.14456 166.5468C503.14456 164.88995 504.4877 163.5468 506.14456 163.5468C507.80142 163.5468 509.14456 164.88995 509.14456 166.5468Z" fill-rule="nonzero"/><path fill="#000000" fill-opacity="0.0" clip-path="url(#id_0)" d="M514.1782 161.06589C514.1782 162.72273 512.8351 164.06589 511.17822 164.06589C509.52136 164.06589 508.17822 162.72273 508.17822 161.06589C508.17822 159.40903 509.52136 158.06589 511.17822 158.06589C512.8351 158.06589 514.1782 159.40903 514.1782 161.06589Z" fill-rule="nonzero"/><path fill="#000000" fill-opacity="0.0" clip-path="url(#id_0)" d="M519.21185 155.45447C519.21185 157.11133 517.8687 158.45447 516.21185 158.45447C514.55505 158.45447 513.21185 157.11133 513.21185 155.45447C513.21185 153.79762 514.55505 152.45447 516.21185 152.45447C517.8687 152.45447 519.21185 153.79762 519.21185 155.45447Z" fill-rule="nonzero"/><path fill="#000000" fill-opacity="0.0" clip-path="url(#id_0)" d="M524.24554 149.71103C524.24554 151.36789 522.9024 152.71103 521.24554 152.71103C519.5887 152.71103 518.24554 151.36789 518.24554 149.71103C518.24554 148.05418 519.5887 146.71103 521.24554 146.71103C522.9024 146.71103 524.24554 148.05418 524.24554 149.71103Z" fill-rule="nonzero"/><path fill="#000000" fill-opacity="0.0" clip-path="url(#id_0)" d="M529.27924 143.83403C529.27924 145.49089 527.93604 146.83403 526.27924 146.83403C524.6224 146.83403 523.27924 145.49089 523.27924 143.83403C523.27924 142.17717 524.6224 140.83403 526.27924 140.83403C527.93604 140.83403 529.27924 142.17717 529.27924 143.83403Z" fill-rule="nonzero"/><path fill="#000000" fill-opacity="0.0" clip-path="url(#id_0)" d="M534.31287 137.82193C534.31287 139.47879 532.9697 140.82193 531.31287 140.82193C529.656 140.82193 528.31287 139.47879 528.31287 137.82193C528.31287 136.16508 529.656 134.82193 531.31287 134.82193C532.9697 134.82193 534.31287 136.16508 534.31287 137.82193Z" fill-rule="nonzero"/><path fill="#000000" fill-opacity="0.0" clip-path="url(#id_0)" d="M539.34656 131.6732C539.34656 133.33005 538.0034 134.6732 536.34656 134.6732C534.6897 134.6732 533.34656 133.33005 533.34656 131.6732C533.34656 130.01634 534.6897 128.6732 536.34656 128.6732C538.0034 128.6732 539.34656 130.01634 539.34656 131.6732Z" fill-rule="nonzero"/><path fill="#000000" fill-opacity="0.0" clip-path="url(#id_0)" d="M544.3802 125.3863C544.3802 127.04315 543.03705 128.3863 541.3802 128.3863C539.7233 128.3863 538.3802 127.04315 538.3802 125.3863C538.3802 123.72945 539.7233 122.3863 541.3802 122.3863C543.03705 122.3863 544.3802 123.72945 544.3802 125.3863Z" fill-rule="nonzero"/><path fill="#000000" fill-opacity="0.0" clip-path="url(#id_0)" d="M549.4139 118.959694C549.4139 120.616554 548.07074 121.959694 546.4139 121.959694C544.757 121.959694 543.4139 120.616554 543.4139 118.959694C543.4139 117.30284 544.757 115.959694 546.4139 115.959694C548.07074 115.959694 549.4139 117.30284 549.4139 118.959694Z" fill-rule="nonzero"/><path fill="#000000" fill-opacity="0.0" clip-path="url(#id_0)" d="M554.4475 112.39185C554.4475 114.048706 553.1044 115.39185 551.4475 115.39185C549.79065 115.39185 548.4475 114.048706 548.4475 112.39185C548.4475 110.735 549.79065 109.39185 551.4475 109.39185C553.1044 109.39185 554.4475 110.735 554.4475 112.39185Z" fill-rule="nonzero"/><path fill="#000000" fill-opacity="0.0" clip-path="url(#id_0)" d="M559.4812 105.681244C559.4812 107.3381 558.13806 108.681244 556.4812 108.681244C554.82434 108.681244 553.4812 107.3381 553.4812 105.681244C553.4812 104.02438 554.82434 102.681244 556.4812 102.681244C558.13806 102.681244 559.4812 104.02438 559.4812 105.681244Z" fill-rule="nonzero"/><path fill="#000000" fill-opacity="0.0" clip-path="url(#id_0)" d="M564.51483 98.82632C564.51483 100.48317 563.1717 101.82632 561.51483 101.82632C559.858 101.82632 558.51483 100.48317 558.51483 98.82632C558.51483 97.169464 559.858 95.82632 561.51483 95.82632C563.1717 95.82632 564.51483 97.169464 564.51483 98.82632Z" fill-rule="nonzero"/><path fill="#000000" fill-opacity="0.0" clip-path="url(#id_0)" d="M569.5485 91.82555C569.5485 93.48241 568.2054 94.82555 566.5485 94.82555C564.89166 94.82555 563.5485 93.48241 563.5485 91.82555C563.5485 90.16869 564.89166 88.82555 566.5485 88.82555C568.2054 88.82555 569.5485 90.16869 569.5485 91.82555Z" fill-rule="nonzero"/><path fill="#000000" fill-opacity="0.0" clip-path="url(#id_0)" d="M574.58215 84.6774C574.58215 86.33426 573.239 87.6774 571.58215 87.6774C569.92535 87.6774 568.58215 86.33426 568.58215 84.6774C568.58215 83.020546 569.92535 81.6774 571.58215 81.6774C573.239 81.6774 574.58215 83.020546 574.58215 84.6774Z" fill-rule="nonzero"/><path fill="#000000" fill-opacity="0.0" clip-path="url(#id_0)" d="M579.61584 77.38034C579.61584 79.03719 578.2727 80.38034 576.61584 80.38034C574.959 80.38034 573.61584 79.03719 573.61584 77.38034C573.61584 75.72349 574.959 74.38034 576.61584 74.38034C578.2727 74.38034 579.61584 75.72349 579.61584 77.38034Z" fill-rule="nonzero"/><path fill="#000000" fill-opacity="0.0" clip-path="url(#id_0)" d="M584.6495 69.93283C584.6495 71.58968 583.30634 72.93283 581.6495 72.93283C579.9927 72.93283 578.6495 71.58968 578.6495 69.93283C578.6495 68.27598 579.9927 66.93283 581.6495 66.93283C583.30634 66.93283 584.6495 68.27598 584.6495 69.93283Z" fill-rule="nonzero"/><path fill="#000000" fill-opacity="0.0" clip-path="url(#id_0)" d="M589.68317 62.333332C589.68317 63.99019 588.34 65.333336 586.68317 65.333336C585.0263 65.333336 583.68317 63.99019 583.68317 62.333332C583.68317 60.67648 585.0263 59.333332 586.68317 59.333332C588.34 59.333332 589.68317 60.67648 589.68317 62.333332Z" fill-rule="nonzero"/><path fill="#000000" d="M336.59375 353.2625L336.75 354.1844Q336.29688 354.27814 335.95312 354.27814Q335.375 354.27814 335.0625 354.10626Q334.75 353.91876 334.60938 353.6219Q334.48438 353.325 334.48438 352.3719L334.48438 348.79376L333.71875 348.79376L333.71875 347.98126L334.48438 347.98126L334.48438 346.4344L335.53125 345.8094L335.53125 347.98126L336.59375 347.98126L336.59375 348.79376L335.53125 348.79376L335.53125 352.4344Q335.53125 352.8875 335.57812 353.0125Q335.64062 353.1375 335.76562 353.21564Q335.89062 353.29376 336.125 353.29376Q336.3125 353.29376 336.59375 353.2625Z" fill-rule="nonzero"/><path fill="#000000" d="M29.800013 192.67291L26.565638 190.40729L23.581263 192.50104L23.581263 191.18854L25.034388 190.23541Q25.456263 189.96979 25.737513 189.79791Q25.346888 189.54791 25.050013 189.32916L23.581263 188.28229L23.581263 187.01666L26.503138 189.17291L29.800013 186.86041L29.800013 188.14166L27.862513 189.42291L27.346888 189.76666L29.800013 191.40729L29.800013 192.67291Z" fill-rule="nonzero"/><path fill="#000000" d="M51.3 317.96564Q51.3 316.4344 51.6125 315.5125Q51.925 314.575 52.534374 314.075Q53.159374 313.575 54.096874 313.575Q54.784374 313.575 55.3 313.85626Q55.83125 314.1375 56.175 314.66876Q56.51875 315.1844 56.70625 315.9344Q56.89375 316.6844 56.89375 317.96564Q56.89375 319.48126 56.58125 320.40314Q56.284374 321.325 55.659374 321.84064Q55.05 322.34064 54.096874 322.34064Q52.8625 322.34064 52.14375 321.45Q51.3 320.3875 51.3 317.96564ZM52.378124 317.96564Q52.378124 320.075 52.878124 320.77814Q53.378124 321.48126 54.096874 321.48126Q54.83125 321.48126 55.315624 320.77814Q55.815624 320.075 55.815624 317.96564Q55.815624 315.84064 55.315624 315.15314Q54.83125 314.45 54.08125 314.45Q53.3625 314.45 52.925 315.0594Q52.378124 315.84064 52.378124 317.96564ZM58.89375 322.2L58.89375 320.9969L60.096874 320.9969L60.096874 322.2L58.89375 322.2ZM61.3 317.96564Q61.3 316.4344 61.6125 315.5125Q61.925 314.575 62.534374 314.075Q63.159374 313.575 64.09688 313.575Q64.78438 313.575 65.3 313.85626Q65.83125 314.1375 66.175 314.66876Q66.51875 315.1844 66.70625 315.9344Q66.89375 316.6844 66.89375 317.96564Q66.89375 319.48126 66.58125 320.40314Q66.28438 321.325 65.65938 321.84064Q65.05 322.34064 64.09688 322.34064Q62.8625 322.34064 62.14375 321.45Q61.3 320.3875 61.3 317.96564ZM62.378124 317.96564Q62.378124 320.075 62.878124 320.77814Q63.378124 321.48126 64.09688 321.48126Q64.83125 321.48126 65.31563 320.77814Q65.81563 320.075 65.81563 317.96564Q65.81563 315.84064 65.31563 315.15314Q64.83125 314.45 64.08125 314.45Q63.3625 314.45 62.925 315.0594Q62.378124 315.84064 62.378124 317.96564ZM68.3 317.96564Q68.3 316.4344 68.6125 315.5125Q68.925 314.575 69.53438 314.075Q70.15938 313.575 71.09688 313.575Q71.78438 313.575 72.3 313.85626Q72.83125 314.1375 73.175 314.66876Q73.51875 315.1844 73.70625 315.9344Q73.89375 316.6844 73.89375 317.96564Q73.89375 319.48126 73.58125 320.40314Q73.28438 321.325 72.65938 321.84064Q72.05 322.34064 71.09688 322.34064Q69.8625 322.34064 69.14375 321.45Q68.3 320.3875 68.3 317.96564ZM69.37813 317.96564Q69.37813 320.075 69.87813 320.77814Q70.37813 321.48126 71.09688 321.48126Q71.83125 321.48126 72.31563 320.77814Q72.81563 320.075 72.81563 317.96564Q72.81563 315.84064 72.31563 315.15314Q71.83125 314.45 71.08125 314.45Q70.3625 314.45 69.925 315.0594Q69.37813 315.84064 69.37813 317.96564Z" fill-rule="nonzero"/><path fill="#000000" d="M51.3 253.99896Q51.3 252.46771 51.6125 251.54584Q51.925 250.60834 52.534374 250.10834Q53.159374 249.60834 54.096874 249.60834Q54.784374 249.60834 55.3 249.88959Q55.83125 250.17084 56.175 250.70209Q56.51875 251.21771 56.70625 251.96771Q56.89375 252.71771 56.89375 253.99896Q56.89375 255.51459 56.58125 256.43646Q56.284374 257.35834 55.659374 257.87396Q55.05 258.37396 54.096874 258.37396Q52.8625 258.37396 52.14375 257.48334Q51.3 256.42084 51.3 253.99896ZM52.378124 253.99896Q52.378124 256.10834 52.878124 256.81146Q53.378124 257.5146 54.096874 257.5146Q54.83125 257.5146 55.315624 256.81146Q55.815624 256.10834 55.815624 253.99896Q55.815624 251.87396 55.315624 251.18646Q54.83125 250.48334 54.08125 250.48334Q53.3625 250.48334 52.925 251.09271Q52.378124 251.87396 52.378124 253.99896ZM58.89375 258.23334L58.89375 257.0302L60.096874 257.0302L60.096874 258.23334L58.89375 258.23334ZM66.84688 257.2177L66.84688 258.23334L61.159374 258.23334Q61.159374 257.85834 61.284374 257.49896Q61.503124 256.92084 61.971874 256.35834Q62.45625 255.79584 63.3625 255.06146Q64.76875 253.90521 65.25313 253.23334Q65.75313 252.56146 65.75313 251.96771Q65.75313 251.34271 65.3 250.92084Q64.84688 250.48334 64.12813 250.48334Q63.3625 250.48334 62.909374 250.93646Q62.45625 251.38959 62.440624 252.20209L61.3625 252.09271Q61.471874 250.87396 62.190624 250.24896Q62.925 249.60834 64.15938 249.60834Q65.39375 249.60834 66.1125 250.29584Q66.83125 250.98334 66.83125 251.99896Q66.83125 252.51459 66.6125 253.01459Q66.40938 253.49896 65.90938 254.06146Q65.425 254.60834 64.3 255.56146Q63.346874 256.35834 63.065624 256.6552Q62.8 256.93646 62.628124 257.2177L66.84688 257.2177ZM68.3 255.98334L69.40938 255.88959Q69.53438 256.7021 69.97188 257.10834Q70.425 257.5146 71.06563 257.5146Q71.81563 257.5146 72.34688 256.93646Q72.87813 256.35834 72.87813 255.42084Q72.87813 254.51459 72.3625 253.99896Q71.8625 253.46771 71.03438 253.46771Q70.53438 253.46771 70.1125 253.70209Q69.70625 253.93646 69.47188 254.29584L68.4875 254.17084L69.31563 249.76459L73.59688 249.76459L73.59688 250.76459L70.15938 250.76459L69.70625 253.07709Q70.47188 252.53021 71.31563 252.53021Q72.44063 252.53021 73.20625 253.31146Q73.9875 254.09271 73.9875 255.32709Q73.9875 256.48334 73.31563 257.3427Q72.4875 258.37396 71.06563 258.37396Q69.89375 258.37396 69.14375 257.7177Q68.40938 257.06146 68.3 255.98334Z" fill-rule="nonzero"/><path fill="#000000" d="M51.3 190.03229Q51.3 188.50104 51.6125 187.57916Q51.925 186.64166 52.534374 186.14166Q53.159374 185.64166 54.096874 185.64166Q54.784374 185.64166 55.3 185.92291Q55.83125 186.20416 56.175 186.73541Q56.51875 187.25104 56.70625 188.00104Q56.89375 188.75104 56.89375 190.03229Q56.89375 191.54791 56.58125 192.46979Q56.284374 193.39166 55.659374 193.90729Q55.05 194.40729 54.096874 194.40729Q52.8625 194.40729 52.14375 193.51666Q51.3 192.45416 51.3 190.03229ZM52.378124 190.03229Q52.378124 192.14166 52.878124 192.84479Q53.378124 193.54791 54.096874 193.54791Q54.83125 193.54791 55.315624 192.84479Q55.815624 192.14166 55.815624 190.03229Q55.815624 187.90729 55.315624 187.21979Q54.83125 186.51666 54.08125 186.51666Q53.3625 186.51666 52.925 187.12604Q52.378124 187.90729 52.378124 190.03229ZM58.89375 194.26666L58.89375 193.06354L60.096874 193.06354L60.096874 194.26666L58.89375 194.26666ZM61.3 192.01666L62.409374 191.92291Q62.534374 192.73541 62.971874 193.14166Q63.425 193.54791 64.06563 193.54791Q64.81563 193.54791 65.34688 192.96979Q65.87813 192.39166 65.87813 191.45416Q65.87813 190.54791 65.3625 190.03229Q64.8625 189.50104 64.03438 189.50104Q63.534374 189.50104 63.1125 189.73541Q62.70625 189.96979 62.471874 190.32916L61.4875 190.20416L62.315624 185.79791L66.59688 185.79791L66.59688 186.79791L63.159374 186.79791L62.70625 189.11041Q63.471874 188.56354 64.31563 188.56354Q65.44063 188.56354 66.20625 189.34479Q66.9875 190.12604 66.9875 191.36041Q66.9875 192.51666 66.31563 193.37604Q65.4875 194.40729 64.06563 194.40729Q62.89375 194.40729 62.14375 193.75104Q61.409374 193.09479 61.3 192.01666ZM68.3 190.03229Q68.3 188.50104 68.6125 187.57916Q68.925 186.64166 69.53438 186.14166Q70.15938 185.64166 71.09688 185.64166Q71.78438 185.64166 72.3 185.92291Q72.83125 186.20416 73.175 186.73541Q73.51875 187.25104 73.70625 188.00104Q73.89375 188.75104 73.89375 190.03229Q73.89375 191.54791 73.58125 192.46979Q73.28438 193.39166 72.65938 193.90729Q72.05 194.40729 71.09688 194.40729Q69.8625 194.40729 69.14375 193.51666Q68.3 192.45416 68.3 190.03229ZM69.37813 190.03229Q69.37813 192.14166 69.87813 192.84479Q70.37813 193.54791 71.09688 193.54791Q71.83125 193.54791 72.31563 192.84479Q72.81563 192.14166 72.81563 190.03229Q72.81563 187.90729 72.31563 187.21979Q71.83125 186.51666 71.08125 186.51666Q70.3625 186.51666 69.925 187.12604Q69.37813 187.90729 69.37813 190.03229Z" fill-rule="nonzero"/><path fill="#000000" d="M51.3 126.06563Q51.3 124.53438 51.6125 123.6125Q51.925 122.675 52.534374 122.175Q53.159374 121.675 54.096874 121.675Q54.784374 121.675 55.3 121.95625Q55.83125 122.2375 56.175 122.76875Q56.51875 123.28438 56.70625 124.03438Q56.89375 124.78438 56.89375 126.06563Q56.89375 127.58125 56.58125 128.50313Q56.284374 129.425 55.659374 129.94063Q55.05 130.44063 54.096874 130.44063Q52.8625 130.44063 52.14375 129.55Q51.3 128.4875 51.3 126.06563ZM52.378124 126.06563Q52.378124 128.175 52.878124 128.87813Q53.378124 129.58125 54.096874 129.58125Q54.83125 129.58125 55.315624 128.87813Q55.815624 128.175 55.815624 126.06563Q55.815624 123.94063 55.315624 123.25313Q54.83125 122.55 54.08125 122.55Q53.3625 122.55 52.925 123.15938Q52.378124 123.94063 52.378124 126.06563ZM58.89375 130.3L58.89375 129.09688L60.096874 129.09688L60.096874 130.3L58.89375 130.3ZM61.3625 122.83125L61.3625 121.81563L66.925 121.81563L66.925 122.64375Q66.1125 123.51875 65.3 124.97188Q64.50313 126.40938 64.06563 127.94063Q63.7375 129.01875 63.659374 130.3L62.565624 130.3Q62.58125 129.28438 62.95625 127.84688Q63.346874 126.40938 64.05 125.08125Q64.76875 123.75313 65.58125 122.83125L61.3625 122.83125ZM68.3 128.05L69.40938 127.95625Q69.53438 128.76875 69.97188 129.175Q70.425 129.58125 71.06563 129.58125Q71.81563 129.58125 72.34688 129.00313Q72.87813 128.425 72.87813 127.4875Q72.87813 126.58125 72.3625 126.06563Q71.8625 125.53438 71.03438 125.53438Q70.53438 125.53438 70.1125 125.76875Q69.70625 126.00313 69.47188 126.3625L68.4875 126.2375L69.31563 121.83125L73.59688 121.83125L73.59688 122.83125L70.15938 122.83125L69.70625 125.14375Q70.47188 124.59688 71.31563 124.59688Q72.44063 124.59688 73.20625 125.37813Q73.9875 126.15938 73.9875 127.39375Q73.9875 128.55 73.31563 129.40938Q72.4875 130.44063 71.06563 130.44063Q69.89375 130.44063 69.14375 129.78438Q68.40938 129.12813 68.3 128.05Z" fill-rule="nonzero"/><path fill="#000000" d="M55.26875 66.333336L54.221874 66.333336L54.221874 59.614586Q53.83125 59.97396 53.20625 60.34896Q52.596874 60.708336 52.1125 60.88021L52.1125 59.864586Q52.9875 59.44271 53.64375 58.864586Q54.315624 58.270836 54.596874 57.708336L55.26875 57.708336L55.26875 66.333336ZM58.89375 66.333336L58.89375 65.13021L60.096874 65.13021L60.096874 66.333336L58.89375 66.333336ZM61.3 62.09896Q61.3 60.56771 61.6125 59.645836Q61.925 58.708336 62.534374 58.208336Q63.159374 57.708336 64.09688 57.708336Q64.78438 57.708336 65.3 57.989586Q65.83125 58.270836 66.175 58.802086Q66.51875 59.31771 66.70625 60.06771Q66.89375 60.81771 66.89375 62.09896Q66.89375 63.614586 66.58125 64.53646Q66.28438 65.458336 65.65938 65.97396Q65.05 66.47396 64.09688 66.47396Q62.8625 66.47396 62.14375 65.583336Q61.3 64.520836 61.3 62.09896ZM62.378124 62.09896Q62.378124 64.208336 62.878124 64.91146Q63.378124 65.614586 64.09688 65.614586Q64.83125 65.614586 65.31563 64.91146Q65.81563 64.208336 65.81563 62.09896Q65.81563 59.97396 65.31563 59.28646Q64.83125 58.583336 64.08125 58.583336Q63.3625 58.583336 62.925 59.19271Q62.378124 59.97396 62.378124 62.09896ZM68.3 62.09896Q68.3 60.56771 68.6125 59.645836Q68.925 58.708336 69.53438 58.208336Q70.15938 57.708336 71.09688 57.708336Q71.78438 57.708336 72.3 57.989586Q72.83125 58.270836 73.175 58.802086Q73.51875 59.31771 73.70625 60.06771Q73.89375 60.81771 73.89375 62.09896Q73.89375 63.614586 73.58125 64.53646Q73.28438 65.458336 72.65938 65.97396Q72.05 66.47396 71.09688 66.47396Q69.8625 66.47396 69.14375 65.583336Q68.3 64.520836 68.3 62.09896ZM69.37813 62.09896Q69.37813 64.208336 69.87813 64.91146Q70.37813 65.614586 71.09688 65.614586Q71.83125 65.614586 72.31563 64.91146Q72.81563 64.208336 72.81563 62.09896Q72.81563 59.97396 72.31563 59.28646Q71.83125 58.583336 71.08125 58.583336Q70.3625 58.583336 69.925 59.19271Q69.37813 59.97396 69.37813 62.09896Z" fill-rule="nonzero"/><path fill="#757575" d="M20.378124 37.8L20.378124 23.4875L30.7375 23.4875L30.7375 25.175L22.284374 25.175L22.284374 29.55L30.190624 29.55L30.190624 31.2375L22.284374 31.2375L22.284374 36.1125L31.065624 36.1125L31.065624 37.8L20.378124 37.8ZM39.89375 36.51875Q38.909374 37.346874 38.003124 37.690624Q37.096874 38.034374 36.065624 38.034374Q34.3625 38.034374 33.440624 37.20625Q32.51875 36.3625 32.51875 35.065624Q32.51875 34.3 32.8625 33.675Q33.221874 33.05 33.784374 32.675Q34.346874 32.284374 35.05 32.08125Q35.565624 31.95625 36.6125 31.815624Q38.7375 31.565624 39.7375 31.221874Q39.753124 30.8625 39.753124 30.753124Q39.753124 29.690624 39.253124 29.2375Q38.58125 28.64375 37.253124 28.64375Q36.003124 28.64375 35.409374 29.08125Q34.83125 29.51875 34.55 30.628124L32.83125 30.39375Q33.065624 29.284374 33.596874 28.6125Q34.128124 27.925 35.14375 27.565624Q36.159374 27.190624 37.503124 27.190624Q38.83125 27.190624 39.659374 27.503124Q40.4875 27.815624 40.878124 28.3Q41.26875 28.76875 41.425 29.4875Q41.51875 29.940624 41.51875 31.1125L41.51875 33.45625Q41.51875 35.909374 41.628124 36.565624Q41.7375 37.20625 42.08125 37.8L40.2375 37.8Q39.971874 37.253124 39.89375 36.51875ZM39.7375 32.596874Q38.784374 32.9875 36.8625 33.253124Q35.784374 33.409374 35.33125 33.6125Q34.89375 33.8 34.64375 34.175Q34.39375 34.55 34.39375 35.01875Q34.39375 35.721874 34.925 36.190624Q35.45625 36.659374 36.4875 36.659374Q37.503124 36.659374 38.284374 36.221874Q39.08125 35.76875 39.45625 35.003124Q39.7375 34.39375 39.7375 33.2375L39.7375 32.596874ZM43.409374 34.70625L45.159374 34.425Q45.3 35.471874 45.971874 36.034374Q46.64375 36.58125 47.846874 36.58125Q49.05 36.58125 49.628124 36.096874Q50.221874 35.596874 50.221874 34.940624Q50.221874 34.346874 49.70625 34.003124Q49.346874 33.76875 47.909374 33.409374Q45.971874 32.909374 45.221874 32.565624Q44.4875 32.20625 44.096874 31.58125Q43.70625 30.940624 43.70625 30.175Q43.70625 29.4875 44.01875 28.89375Q44.346874 28.3 44.89375 27.909374Q45.3 27.6125 46.003124 27.409374Q46.721874 27.190624 47.534374 27.190624Q48.753124 27.190624 49.675 27.55Q50.596874 27.89375 51.034374 28.503124Q51.471874 29.096874 51.64375 30.096874L49.925 30.33125Q49.8 29.534374 49.2375 29.096874Q48.675 28.64375 47.659374 28.64375Q46.440624 28.64375 45.925 29.05Q45.409374 29.440624 45.409374 29.971874Q45.409374 30.315624 45.628124 30.596874Q45.83125 30.878124 46.3 31.065624Q46.565624 31.159374 47.846874 31.503124Q49.721874 32.003124 50.45625 32.33125Q51.190624 32.64375 51.6125 33.253124Q52.034374 33.846874 52.034374 34.753124Q52.034374 35.628124 51.51875 36.409374Q51.003124 37.190624 50.034374 37.6125Q49.065624 38.034374 47.846874 38.034374Q45.83125 38.034374 44.76875 37.190624Q43.70625 36.346874 43.409374 34.70625ZM61.221874 34.45625L63.034374 34.690624Q62.6125 36.26875 61.440624 37.159374Q60.284374 38.034374 58.471874 38.034374Q56.20625 38.034374 54.8625 36.64375Q53.534374 35.2375 53.534374 32.70625Q53.534374 30.08125 54.878124 28.64375Q56.221874 27.190624 58.378124 27.190624Q60.45625 27.190624 61.76875 28.6125Q63.096874 30.01875 63.096874 32.596874Q63.096874 32.753124 63.08125 33.065624L55.346874 33.065624Q55.440624 34.76875 56.315624 35.675Q57.190624 36.58125 58.4875 36.58125Q59.45625 36.58125 60.128124 36.08125Q60.815624 35.565624 61.221874 34.45625ZM55.440624 31.6125L61.2375 31.6125Q61.128124 30.315624 60.58125 29.659374Q59.7375 28.64375 58.39375 28.64375Q57.190624 28.64375 56.3625 29.45625Q55.534374 30.253124 55.440624 31.6125ZM65.65938 37.8L65.65938 23.4875L67.56563 23.4875L67.56563 37.8L65.65938 37.8ZM71.1125 37.8L71.1125 27.425L72.70625 27.425L72.70625 28.909374Q73.84688 27.190624 76.00313 27.190624Q76.94063 27.190624 77.72188 27.534374Q78.51875 27.8625 78.90938 28.409374Q79.3 28.95625 79.45625 29.70625Q79.55 30.20625 79.55 31.425L79.55 37.8L77.78438 37.8L77.78438 31.4875Q77.78438 30.409374 77.58125 29.878124Q77.37813 29.346874 76.84688 29.034374Q76.33125 28.721874 75.62813 28.721874Q74.50313 28.721874 73.69063 29.440624Q72.87813 30.14375 72.87813 32.128124L72.87813 37.8L71.1125 37.8ZM91.56563 32.784374L93.45625 33.253124Q92.8625 35.596874 91.31563 36.83125Q89.76875 38.05 87.51875 38.05Q85.20625 38.05 83.75313 37.1125Q82.31563 36.159374 81.55 34.378124Q80.8 32.58125 80.8 30.534374Q80.8 28.3 81.64375 26.64375Q82.50313 24.971874 84.08125 24.1125Q85.65938 23.2375 87.55 23.2375Q89.70625 23.2375 91.15938 24.33125Q92.62813 25.425 93.20625 27.409374L91.34688 27.846874Q90.84688 26.284374 89.89375 25.58125Q88.95625 24.8625 87.51875 24.8625Q85.8625 24.8625 84.75313 25.659374Q83.64375 26.440624 83.19063 27.784374Q82.75313 29.1125 82.75313 30.51875Q82.75313 32.346874 83.28438 33.721874Q83.81563 35.08125 84.94063 35.753124Q86.06563 36.425 87.3625 36.425Q88.95625 36.425 90.06563 35.503124Q91.175 34.58125 91.56563 32.784374ZM101.90938 37.8L101.90938 36.26875Q100.70625 38.034374 98.62813 38.034374Q97.70625 38.034374 96.90938 37.690624Q96.1125 37.33125 95.72188 36.8Q95.34688 36.26875 95.19063 35.4875Q95.08125 34.971874 95.08125 33.846874L95.08125 27.425L96.83125 27.425L96.83125 33.175Q96.83125 34.55 96.94063 35.034374Q97.1125 35.721874 97.64375 36.128124Q98.19063 36.51875 98.97188 36.51875Q99.76875 36.51875 100.45625 36.1125Q101.15938 35.70625 101.44063 35.01875Q101.7375 34.315624 101.7375 32.9875L101.7375 27.425L103.4875 27.425L103.4875 37.8L101.90938 37.8ZM106.7375 37.8L105.1125 37.8L105.1125 23.4875L106.8625 23.4875L106.8625 28.596874Q107.9875 27.190624 109.70625 27.190624Q110.65938 27.190624 111.51875 27.58125Q112.37813 27.971874 112.925 28.675Q113.47188 29.3625 113.78438 30.346874Q114.09688 31.33125 114.09688 32.45625Q114.09688 35.128124 112.78438 36.58125Q111.47188 38.034374 109.62813 38.034374Q107.78438 38.034374 106.7375 36.503124L106.7375 37.8ZM106.72188 32.534374Q106.72188 34.39375 107.22188 35.2375Q108.06563 36.58125 109.47188 36.58125Q110.62813 36.58125 111.45625 35.58125Q112.3 34.58125 112.3 32.596874Q112.3 30.565624 111.4875 29.6125Q110.69063 28.64375 109.55 28.64375Q108.39375 28.64375 107.55 29.64375Q106.72188 30.64375 106.72188 32.534374ZM123.22188 34.45625L125.03438 34.690624Q124.6125 36.26875 123.44063 37.159374Q122.28438 38.034374 120.47188 38.034374Q118.20625 38.034374 116.8625 36.64375Q115.53438 35.2375 115.53438 32.70625Q115.53438 30.08125 116.87813 28.64375Q118.22188 27.190624 120.37813 27.190624Q122.45625 27.190624 123.76875 28.6125Q125.09688 30.01875 125.09688 32.596874Q125.09688 32.753124 125.08125 33.065624L117.34688 33.065624Q117.44063 34.76875 118.31563 35.675Q119.19063 36.58125 120.4875 36.58125Q121.45625 36.58125 122.12813 36.08125Q122.81563 35.565624 123.22188 34.45625ZM117.44063 31.6125L123.2375 31.6125Q123.12813 30.315624 122.58125 29.659374Q121.7375 28.64375 120.39375 28.64375Q119.19063 28.64375 118.3625 29.45625Q117.53438 30.253124 117.44063 31.6125Z" fill-rule="nonzero"/></svg>