<svg version="1.1" viewBox="0.0 0.0 608.0 376.0" fill="none" stroke="none" stroke-linecap="square" stroke-miterlimit="10" width="608" height="376" xmlns:xlink="http://www.w3.org/1999/xlink" xmlns="http://www.w3.org/2000/svg"><path fill="#ffffff" d="M0 0L608.0 0L608.0 376.0L0 376.0L0 0Z" fill-rule="nonzero"/><path stroke="#333333" stroke-width="1.0" stroke-linecap="butt" d="M80.5 318.5L589.5 318.5" fill-rule="nonzero"/><path stroke="#cccccc" stroke-width="1.0" stroke-linecap="butt" d="M80.5 254.5L589.5 254.5" fill-rule="nonzero"/><path stroke="#cccccc" stroke-width="1.0" stroke-linecap="butt" d="M80.5 190.5L589.5 190.5" fill-rule="nonzero"/><path stroke="#cccccc" stroke-width="1.0" stroke-linecap="butt" d="M80.5 126.5L589.5 126.5" fill-rule="nonzero"/><path stroke="#cccccc" stroke-width="1.0" stroke-linecap="butt" d="M80.5 62.5L589.5 62.5" fill-rule="nonzero"/><path stroke="#000000" stroke-width="1.0" stroke-linecap="butt" d="M80.5 318.5L80.5 62.5" fill-rule="nonzero"/><clipPath id="id_0"><path d="M80.8 62.333332L589.2 62.333332L589.2 318.2L80.8 318.2L80.8 62.333332Z" clip-rule="nonzero"/></clipPath><path stroke="#4285f4" stroke-width="2.0" stroke-linecap="butt" clip-path="url(#id_0)" d="M83.31683 318.2C83.31683 318.2 86.67261 314.79697 88.350494 313.10825C90.02838 311.41953 91.70627 309.73935 93.384155 308.0677C95.06205 306.39603 96.73994 304.73288 98.41782 303.07828C100.09571 301.42368 101.7736 299.7776 103.451485 298.14005C105.12937 296.5025 106.80726 294.87347 108.485146 293.253C110.16303 291.6325 111.84093 290.02054 113.518814 288.4171C115.1967 286.8137 116.87459 285.21878 118.552475 283.63242C120.23036 282.04605 121.90825 280.4682 123.586136 278.89886C125.26402 277.32956 126.94192 275.76877 128.6198 274.21652C130.29768 272.66428 131.97557 271.12054 133.65347 269.58533C135.33136 268.05014 137.00925 266.52347 138.68713 265.0053C140.36502 263.48718 142.04291 261.97757 143.7208 260.47647C145.39868 258.9754 147.07657 257.48285 148.75446 255.99881C150.43234 254.51479 152.11023 253.03929 153.78812 251.57233C155.466 250.10535 157.14389 248.64691 158.82178 247.197C160.49966 245.74709 162.17755 244.30571 163.85544 242.87285C165.53334 241.44 167.21123 240.01567 168.88911 238.59988C170.567 237.18408 172.24489 235.77682 173.92278 234.37808C175.60066 232.97934 177.27855 231.58913 178.95644 230.20746C180.63432 228.82578 182.31221 227.45262 183.9901 226.088C185.66798 224.72337 187.34587 223.36728 189.02376 222.01971C190.70164 220.67215 192.37953 219.33311 194.05742 218.00261C195.73532 216.6721 197.41321 215.35013 199.0911 214.03668C200.76898 212.72324 202.44687 211.4183 204.12476 210.12192C205.80264 208.82553 207.48053 207.53767 209.15842 206.25833C210.8363 204.979 212.51419 203.70819 214.19208 202.44592C215.86996 201.18364 217.54785 199.9299 219.22574 198.68468C220.90363 197.43947 222.58151 196.20277 224.2594 194.97461C225.93729 193.74646 227.61519 192.52682 229.29308 191.31572C230.97096 190.10461 232.64885 188.90204 234.32674 187.708C236.00462 186.51396 237.68251 185.32845 239.3604 184.15146C241.03828 182.97447 242.71617 181.80602 244.39406 180.64607C246.07195 179.48615 247.74983 178.33475 249.42772 177.19188C251.1056 176.04901 252.7835 174.91467 254.46138 173.78885C256.13928 172.66304 257.81717 171.54576 259.49506 170.437C261.17294 169.32825 262.85083 168.22801 264.52872 167.13632C266.2066 166.04462 267.8845 164.96146 269.56238 163.88681C271.24026 162.81218 272.91815 161.74606 274.59604 160.68848C276.27393 159.6309 277.9518 158.58185 279.6297 157.54132C281.3076 156.5008 282.98547 155.4688 284.66336 154.44533C286.34125 153.42186 288.01913 152.40692 289.69702 151.40051C291.3749 150.3941 293.0528 149.39622 294.73068 148.40688C296.40857 147.41753 298.08646 146.4367 299.76434 145.46442C301.44223 144.49213 303.12012 143.52835 304.79803 142.57312C306.47592 141.61789 308.1538 140.67117 309.8317 139.733C311.50958 138.79482 313.18747 137.86517 314.86536 136.94405C316.54324 136.02293 318.22113 135.11034 319.89902 134.20628C321.5769 133.30222 323.2548 132.40668 324.93268 131.51968C326.61057 130.63268 328.28845 129.7542 329.96634 128.88425C331.64423 128.01431 333.3221 127.152885 335.0 126.3C336.6779 125.44711 338.35577 124.60275 340.03366 123.76692C341.71155 122.93109 343.38943 122.10379 345.06732 121.28501C346.7452 120.46624 348.4231 119.656 350.10098 118.85428C351.77887 118.05257 353.45676 117.25938 355.13464 116.47472C356.81253 115.69006 358.49042 114.91393 360.1683 114.14633C361.8462 113.37873 363.52408 112.61966 365.20197 111.86912C366.87988 111.118576 368.55777 110.376564 370.23566 109.64308C371.91354 108.9096 373.59143 108.18464 375.26932 107.468216C376.9472 106.751785 378.6251 106.04389 380.30298 105.34452C381.98087 104.64515 383.65875 103.95431 385.33664 103.272C387.01453 102.58969 388.6924 101.91591 390.3703 101.250656C392.0482 100.5854 393.72607 99.92867 395.40396 99.28048C397.08185 98.632286 398.75974 97.992615 400.43762 97.36148C402.1155 96.73034 403.7934 96.107735 405.47128 95.49365C407.14917 94.87957 408.82706 94.274025 410.50494 93.677C412.18283 93.07998 413.86072 92.491486 415.5386 91.91152C417.2165 91.33156 418.89438 90.76012 420.57227 90.19721C422.25015 89.63431 423.92804 89.079926 425.60593 88.53408C427.2838 87.98823 428.96173 87.45091 430.63962 86.92212C432.3175 86.393326 433.9954 85.87307 435.67328 85.361336C437.35117 84.8496 439.02905 84.3464 440.70694 83.85172C442.38483 83.35705 444.0627 82.870895 445.7406 82.39328C447.4185 81.915665 449.09637 81.44657 450.77426 80.986015C452.45215 80.52545 454.13004 80.073425 455.80792 79.62992C457.4858 79.18642 459.1637 78.75144 460.84158 78.325C462.51947 77.89855 464.19736 77.48064 465.87524 77.07125C467.55313 76.661865 469.23102 76.26101 470.9089 75.86868C472.5868 75.47635 474.26468 75.09255 475.94257 74.71728C477.62045 74.34201 479.29834 73.975266 480.97623 73.61705C482.6541 73.25884 484.332 72.90916 486.0099 72.568C487.68777 72.226845 489.36566 71.89422 491.04358 71.57012C492.72147 71.246025 494.39935 70.93045 496.07724 70.62341C497.75513 70.316376 499.433 70.01786 501.1109 69.72788C502.7888 69.4379 504.46667 69.15644 506.14456 68.88352C507.82245 68.610596 509.50034 68.3462 511.17822 68.09033C512.8561 67.834465 514.534 67.58713 516.21185 67.34832C517.8898 67.10951 519.5676 66.879234 521.24554 66.65748C522.92346 66.43573 524.6013 66.2225 526.27924 66.017815C527.9571 65.81312 529.635 65.61696 531.31287 65.42932C532.9908 65.241684 534.66864 65.06258 536.34656 64.892C538.0244 64.72142 539.70233 64.55937 541.3802 64.40585C543.0581 64.252335 544.73596 64.107346 546.4139 63.97088C548.09174 63.83442 549.76965 63.706486 551.4475 63.58708C553.1254 63.467674 554.8033 63.3568 556.4812 63.25445C558.15906 63.152107 559.837 63.05829 561.51483 62.973C563.19275 62.88771 564.8706 62.81095 566.5485 62.74272C568.2264 62.674488 569.9043 62.614788 571.58215 62.563614C573.2601 62.51244 574.9379 62.469795 576.61584 62.43568C578.2937 62.401566 579.9716 62.375977 581.6495 62.35892C583.3274 62.34186 586.68317 62.333332 586.68317 62.333332" fill-rule="nonzero"/><path fill="#000000" fill-opacity="0.0" clip-path="url(#id_0)" d="M86.31683 318.2C86.31683 319.85684 84.97369 321.2 83.31683 321.2C81.65998 321.2 80.31683 319.85684 80.31683 318.2C80.31683 316.54315 81.65998 315.2 83.31683 315.2C84.97369 315.2 86.31683 316.54315 86.31683 318.2Z" fill-rule="nonzero"/><path fill="#000000" fill-opacity="0.0" clip-path="url(#id_0)" d="M91.350494 313.10825C91.350494 314.7651 90.00735 316.10825 88.350494 316.10825C86.69364 316.10825 85.350494 314.7651 85.350494 313.10825C85.350494 311.4514 86.69364 310.10825 88.350494 310.10825C90.00735 310.10825 91.350494 311.4514 91.350494 313.10825Z" fill-rule="nonzero"/><path fill="#000000" fill-opacity="0.0" clip-path="url(#id_0)" d="M96.384155 308.0677C96.384155 309.72455 95.041016 311.0677 93.384155 311.0677C91.7273 311.0677 90.384155 309.72455 90.384155 308.0677C90.384155 306.41083 91.7273 305.0677 93.384155 305.0677C95.041016 305.0677 96.384155 306.41083 96.384155 308.0677Z" fill-rule="nonzero"/><path fill="#000000" fill-opacity="0.0" clip-path="url(#id_0)" d="M101.41782 303.07828C101.41782 304.73514 100.07468 306.07828 98.41782 306.07828C96.76097 306.07828 95.41782 304.73514 95.41782 303.07828C95.41782 301.42142 96.76097 300.07828 98.41782 300.07828C100.07468 300.07828 101.41782 301.42142 101.41782 303.07828Z" fill-rule="nonzero"/><path fill="#000000" fill-opacity="0.0" clip-path="url(#id_0)" d="M106.451485 298.14005C106.451485 299.7969 105.10834 301.14005 103.451485 301.14005C101.79463 301.14005 100.451485 299.7969 100.451485 298.14005C100.451485 296.4832 101.79463 295.14005 103.451485 295.14005C105.10834 295.14005 106.451485 296.4832 106.451485 298.14005Z" fill-rule="nonzero"/><path fill="#000000" fill-opacity="0.0" clip-path="url(#id_0)" d="M111.485146 293.253C111.485146 294.90985 110.142006 296.253 108.485146 296.253C106.82829 296.253 105.485146 294.90985 105.485146 293.253C105.485146 291.59616 106.82829 290.253 108.485146 290.253C110.142006 290.253 111.485146 291.59616 111.485146 293.253Z" fill-rule="nonzero"/><path fill="#000000" fill-opacity="0.0" clip-path="url(#id_0)" d="M116.518814 288.4171C116.518814 290.07397 115.17567 291.4171 113.518814 291.4171C111.86196 291.4171 110.518814 290.07397 110.518814 288.4171C110.518814 286.76025 111.86196 285.4171 113.518814 285.4171C115.17567 285.4171 116.518814 286.76025 116.518814 288.4171Z" fill-rule="nonzero"/><path fill="#000000" fill-opacity="0.0" clip-path="url(#id_0)" d="M121.552475 283.63242C121.552475 285.28928 120.20933 286.63242 118.552475 286.63242C116.89562 286.63242 115.552475 285.28928 115.552475 283.63242C115.552475 281.97556 116.89562 280.63242 118.552475 280.63242C120.20933 280.63242 121.552475 281.97556 121.552475 283.63242Z" fill-rule="nonzero"/><path fill="#000000" fill-opacity="0.0" clip-path="url(#id_0)" d="M126.586136 278.89886C126.586136 280.55573 125.243 281.89886 123.586136 281.89886C121.92928 281.89886 120.586136 280.55573 120.586136 278.89886C120.586136 277.24203 121.92928 275.89886 123.586136 275.89886C125.243 275.89886 126.586136 277.24203 126.586136 278.89886Z" fill-rule="nonzero"/><path fill="#000000" fill-opacity="0.0" clip-path="url(#id_0)" d="M131.6198 274.21652C131.6198 275.87338 130.27666 277.21652 128.6198 277.21652C126.962944 277.21652 125.619804 275.87338 125.619804 274.21652C125.619804 272.55966 126.962944 271.21652 128.6198 271.21652C130.27666 271.21652 131.6198 272.55966 131.6198 274.21652Z" fill-rule="nonzero"/><path fill="#000000" fill-opacity="0.0" clip-path="url(#id_0)" d="M136.65347 269.58533C136.65347 271.2422 135.31032 272.58533 133.65347 272.58533C131.99661 272.58533 130.65347 271.2422 130.65347 269.58533C130.65347 267.92847 131.99661 266.58533 133.65347 266.58533C135.31032 266.58533 136.65347 267.92847 136.65347 269.58533Z" fill-rule="nonzero"/><path fill="#000000" fill-opacity="0.0" clip-path="url(#id_0)" d="M141.68713 265.0053C141.68713 266.66217 140.34398 268.0053 138.68713 268.0053C137.03027 268.0053 135.68713 266.66217 135.68713 265.0053C135.68713 263.34848 137.03027 262.0053 138.68713 262.0053C140.34398 262.0053 141.68713 263.34848 141.68713 265.0053Z" fill-rule="nonzero"/><path fill="#000000" fill-opacity="0.0" clip-path="url(#id_0)" d="M146.7208 260.47647C146.7208 262.13333 145.37764 263.47647 143.7208 263.47647C142.06393 263.47647 140.7208 262.13333 140.7208 260.47647C140.7208 258.8196 142.06393 257.47647 143.7208 257.47647C145.37764 257.47647 146.7208 258.8196 146.7208 260.47647Z" fill-rule="nonzero"/><path fill="#000000" fill-opacity="0.0" clip-path="url(#id_0)" d="M151.75446 255.99881C151.75446 257.65567 150.41132 258.9988 148.75446 258.9988C147.0976 258.9988 145.75446 257.65567 145.75446 255.99881C145.75446 254.34196 147.0976 252.99881 148.75446 252.99881C150.41132 252.99881 151.75446 254.34196 151.75446 255.99881Z" fill-rule="nonzero"/><path fill="#000000" fill-opacity="0.0" clip-path="url(#id_0)" d="M156.78812 251.57233C156.78812 253.22917 155.44498 254.57233 153.78812 254.57233C152.13127 254.57233 150.78812 253.22917 150.78812 251.57233C150.78812 249.91547 152.13127 248.57233 153.78812 248.57233C155.44498 248.57233 156.78812 249.91547 156.78812 251.57233Z" fill-rule="nonzero"/><path fill="#000000" fill-opacity="0.0" clip-path="url(#id_0)" d="M161.82178 247.197C161.82178 248.85385 160.47864 250.197 158.82178 250.197C157.16493 250.197 155.82178 248.85385 155.82178 247.197C155.82178 245.54015 157.16493 244.197 158.82178 244.197C160.47864 244.197 161.82178 245.54015 161.82178 247.197Z" fill-rule="nonzero"/><path fill="#000000" fill-opacity="0.0" clip-path="url(#id_0)" d="M166.85544 242.87285C166.85544 244.52971 165.5123 245.87285 163.85544 245.87285C162.1986 245.87285 160.85544 244.52971 160.85544 242.87285C160.85544 241.216 162.1986 239.87285 163.85544 239.87285C165.5123 239.87285 166.85544 241.216 166.85544 242.87285Z" fill-rule="nonzero"/><path fill="#000000" fill-opacity="0.0" clip-path="url(#id_0)" d="M171.88911 238.59988C171.88911 240.25673 170.54596 241.59988 168.88911 241.59988C167.23225 241.59988 165.88911 240.25673 165.88911 238.59988C165.88911 236.94302 167.23225 235.59988 168.88911 235.59988C170.54596 235.59988 171.88911 236.94302 171.88911 238.59988Z" fill-rule="nonzero"/><path fill="#000000" fill-opacity="0.0" clip-path="url(#id_0)" d="M176.92278 234.37808C176.92278 236.03493 175.57962 237.37808 173.92278 237.37808C172.26591 237.37808 170.92278 236.03493 170.92278 234.37808C170.92278 232.72122 172.26591 231.37808 173.92278 231.37808C175.57962 231.37808 176.92278 232.72122 176.92278 234.37808Z" fill-rule="nonzero"/><path fill="#000000" fill-opacity="0.0" clip-path="url(#id_0)" d="M181.95644 230.20746C181.95644 231.8643 180.6133 233.20746 178.95644 233.20746C177.29958 233.20746 175.95644 231.8643 175.95644 230.20746C175.95644 228.5506 177.29958 227.20746 178.95644 227.20746C180.6133 227.20746 181.95644 228.5506 181.95644 230.20746Z" fill-rule="nonzero"/><path fill="#000000" fill-opacity="0.0" clip-path="url(#id_0)" d="M186.9901 226.088C186.9901 227.74486 185.64696 229.088 183.9901 229.088C182.33325 229.088 180.9901 227.74486 180.9901 226.088C180.9901 224.43115 182.33325 223.088 183.9901 223.088C185.64696 223.088 186.9901 224.43115 186.9901 226.088Z" fill-rule="nonzero"/><path fill="#000000" fill-opacity="0.0" clip-path="url(#id_0)" d="M192.02376 222.01971C192.02376 223.67657 190.68062 225.01971 189.02376 225.01971C187.36691 225.01971 186.02376 223.67657 186.02376 222.01971C186.02376 220.36287 187.36691 219.01971 189.02376 219.01971C190.68062 219.01971 192.02376 220.36287 192.02376 222.01971Z" fill-rule="nonzero"/><path fill="#000000" fill-opacity="0.0" clip-path="url(#id_0)" d="M197.05742 218.00261C197.05742 219.65947 195.71428 221.00261 194.05742 221.00261C192.40057 221.00261 191.05742 219.65947 191.05742 218.00261C191.05742 216.34576 192.40057 215.00261 194.05742 215.00261C195.71428 215.00261 197.05742 216.34576 197.05742 218.00261Z" fill-rule="nonzero"/><path fill="#000000" fill-opacity="0.0" clip-path="url(#id_0)" d="M202.0911 214.03668C202.0911 215.69353 200.74794 217.03668 199.0911 217.03668C197.43423 217.03668 196.0911 215.69353 196.0911 214.03668C196.0911 212.37982 197.43423 211.03668 199.0911 211.03668C200.74794 211.03668 202.0911 212.37982 202.0911 214.03668Z" fill-rule="nonzero"/><path fill="#000000" fill-opacity="0.0" clip-path="url(#id_0)" d="M207.12476 210.12192C207.12476 211.77878 205.7816 213.12192 204.12476 213.12192C202.4679 213.12192 201.12476 211.77878 201.12476 210.12192C201.12476 208.46507 202.4679 207.12192 204.12476 207.12192C205.7816 207.12192 207.12476 208.46507 207.12476 210.12192Z" fill-rule="nonzero"/><path fill="#000000" fill-opacity="0.0" clip-path="url(#id_0)" d="M212.15842 206.25833C212.15842 207.91519 210.81528 209.25833 209.15842 209.25833C207.50156 209.25833 206.15842 207.91519 206.15842 206.25833C206.15842 204.60149 207.50156 203.25833 209.15842 203.25833C210.81528 203.25833 212.15842 204.60149 212.15842 206.25833Z" fill-rule="nonzero"/><path fill="#000000" fill-opacity="0.0" clip-path="url(#id_0)" d="M217.19208 202.44592C217.19208 204.10277 215.84894 205.44592 214.19208 205.44592C212.53523 205.44592 211.19208 204.10277 211.19208 202.44592C211.19208 200.78906 212.53523 199.44592 214.19208 199.44592C215.84894 199.44592 217.19208 200.78906 217.19208 202.44592Z" fill-rule="nonzero"/><path fill="#000000" fill-opacity="0.0" clip-path="url(#id_0)" d="M222.22574 198.68468C222.22574 200.34154 220.8826 201.68468 219.22574 201.68468C217.5689 201.68468 216.22574 200.34154 216.22574 198.68468C216.22574 197.02783 217.5689 195.68468 219.22574 195.68468C220.8826 195.68468 222.22574 197.02783 222.22574 198.68468Z" fill-rule="nonzero"/><path fill="#000000" fill-opacity="0.0" clip-path="url(#id_0)" d="M227.2594 194.97461C227.2594 196.63147 225.91626 197.97461 224.2594 197.97461C222.60255 197.97461 221.2594 196.63147 221.2594 194.97461C221.2594 193.31776 222.60255 191.97461 224.2594 191.97461C225.91626 191.97461 227.2594 193.31776 227.2594 194.97461Z" fill-rule="nonzero"/><path fill="#000000" fill-opacity="0.0" clip-path="url(#id_0)" d="M232.29308 191.31572C232.29308 192.97258 230.94992 194.31572 229.29308 194.31572C227.63622 194.31572 226.29308 192.97258 226.29308 191.31572C226.29308 189.65886 227.63622 188.31572 229.29308 188.31572C230.94992 188.31572 232.29308 189.65886 232.29308 191.31572Z" fill-rule="nonzero"/><path fill="#000000" fill-opacity="0.0" clip-path="url(#id_0)" d="M237.32674 187.708C237.32674 189.36485 235.98358 190.708 234.32674 190.708C232.66988 190.708 231.32674 189.36485 231.32674 187.708C231.32674 186.05115 232.66988 184.708 234.32674 184.708C235.98358 184.708 237.32674 186.05115 237.32674 187.708Z" fill-rule="nonzero"/><path fill="#000000" fill-opacity="0.0" clip-path="url(#id_0)" d="M242.3604 184.15146C242.3604 185.8083 241.01726 187.15146 239.3604 187.15146C237.70354 187.15146 236.3604 185.8083 236.3604 184.15146C236.3604 182.4946 237.70354 181.15146 239.3604 181.15146C241.01726 181.15146 242.3604 182.4946 242.3604 184.15146Z" fill-rule="nonzero"/><path fill="#000000" fill-opacity="0.0" clip-path="url(#id_0)" d="M247.39406 180.64607C247.39406 182.30293 246.05092 183.64607 244.39406 183.64607C242.7372 183.64607 241.39406 182.30293 241.39406 180.64607C241.39406 178.98923 242.7372 177.64607 244.39406 177.64607C246.05092 177.64607 247.39406 178.98923 247.39406 180.64607Z" fill-rule="nonzero"/><path fill="#000000" fill-opacity="0.0" clip-path="url(#id_0)" d="M252.42772 177.19188C252.42772 178.84874 251.08458 180.19188 249.42772 180.19188C247.77087 180.19188 246.42772 178.84874 246.42772 177.19188C246.42772 175.53502 247.77087 174.19188 249.42772 174.19188C251.08458 174.19188 252.42772 175.53502 252.42772 177.19188Z" fill-rule="nonzero"/><path fill="#000000" fill-opacity="0.0" clip-path="url(#id_0)" d="M257.4614 173.78885C257.4614 175.44571 256.11826 176.78885 254.46138 176.78885C252.80453 176.78885 251.46138 175.44571 251.46138 173.78885C251.46138 172.132 252.80453 170.78885 254.46138 170.78885C256.11826 170.78885 257.4614 172.132 257.4614 173.78885Z" fill-rule="nonzero"/><path fill="#000000" fill-opacity="0.0" clip-path="url(#id_0)" d="M262.49506 170.437C262.49506 172.09386 261.15192 173.437 259.49506 173.437C257.8382 173.437 256.49506 172.09386 256.49506 170.437C256.49506 168.78015 257.8382 167.437 259.49506 167.437C261.15192 167.437 262.49506 168.78015 262.49506 170.437Z" fill-rule="nonzero"/><path fill="#000000" fill-opacity="0.0" clip-path="url(#id_0)" d="M267.52872 167.13632C267.52872 168.79317 266.18558 170.13632 264.52872 170.13632C262.87186 170.13632 261.52872 168.79317 261.52872 167.13632C261.52872 165.47946 262.87186 164.13632 264.52872 164.13632C266.18558 164.13632 267.52872 165.47946 267.52872 167.13632Z" fill-rule="nonzero"/><path fill="#000000" fill-opacity="0.0" clip-path="url(#id_0)" d="M272.56238 163.88681C272.56238 165.54367 271.21924 166.88681 269.56238 166.88681C267.90552 166.88681 266.56238 165.54367 266.56238 163.88681C266.56238 162.22997 267.90552 160.88681 269.56238 160.88681C271.21924 160.88681 272.56238 162.22997 272.56238 163.88681Z" fill-rule="nonzero"/><path fill="#000000" fill-opacity="0.0" clip-path="url(#id_0)" d="M277.59604 160.68848C277.59604 162.34534 276.2529 163.68848 274.59604 163.68848C272.93918 163.68848 271.59604 162.34534 271.59604 160.68848C271.59604 159.03163 272.93918 157.68848 274.59604 157.68848C276.2529 157.68848 277.59604 159.03163 277.59604 160.68848Z" fill-rule="nonzero"/><path fill="#000000" fill-opacity="0.0" clip-path="url(#id_0)" d="M282.6297 157.54132C282.6297 159.19818 281.28656 160.54132 279.6297 160.54132C277.97284 160.54132 276.6297 159.19818 276.6297 157.54132C276.6297 155.88446 277.97284 154.54132 279.6297 154.54132C281.28656 154.54132 282.6297 155.88446 282.6297 157.54132Z" fill-rule="nonzero"/><path fill="#000000" fill-opacity="0.0" clip-path="url(#id_0)" d="M287.66336 154.44533C287.66336 156.10219 286.32022 157.44533 284.66336 157.44533C283.0065 157.44533 281.66336 156.10219 281.66336 154.44533C281.66336 152.78848 283.0065 151.44533 284.66336 151.44533C286.32022 151.44533 287.66336 152.78848 287.66336 154.44533Z" fill-rule="nonzero"/><path fill="#000000" fill-opacity="0.0" clip-path="url(#id_0)" d="M292.69702 151.40051C292.69702 153.05737 291.35388 154.40051 289.69702 154.40051C288.04016 154.40051 286.69702 153.05737 286.69702 151.40051C286.69702 149.74367 288.04016 148.40051 289.69702 148.40051C291.35388 148.40051 292.69702 149.74367 292.69702 151.40051Z" fill-rule="nonzero"/><path fill="#000000" fill-opacity="0.0" clip-path="url(#id_0)" d="M297.73068 148.40688C297.73068 150.06374 296.38754 151.40688 294.73068 151.40688C293.07385 151.40688 291.73068 150.06374 291.73068 148.40688C291.73068 146.75003 293.07385 145.40688 294.73068 145.40688C296.38754 145.40688 297.73068 146.75003 297.73068 148.40688Z" fill-rule="nonzero"/><path fill="#000000" fill-opacity="0.0" clip-path="url(#id_0)" d="M302.76434 145.46442C302.76434 147.12126 301.4212 148.46442 299.76434 148.46442C298.1075 148.46442 296.76434 147.12126 296.76434 145.46442C296.76434 143.80756 298.1075 142.46442 299.76434 142.46442C301.4212 142.46442 302.76434 143.80756 302.76434 145.46442Z" fill-rule="nonzero"/><path fill="#000000" fill-opacity="0.0" clip-path="url(#id_0)" d="M307.79803 142.57312C307.79803 144.22998 306.45486 145.57312 304.79803 145.57312C303.14117 145.57312 301.79803 144.22998 301.79803 142.57312C301.79803 140.91626 303.14117 139.57312 304.79803 139.57312C306.45486 139.57312 307.79803 140.91626 307.79803 142.57312Z" fill-rule="nonzero"/><path fill="#000000" fill-opacity="0.0" clip-path="url(#id_0)" d="M312.8317 139.733C312.8317 141.38985 311.48853 142.733 309.8317 142.733C308.17484 142.733 306.8317 141.38985 306.8317 139.733C306.8317 138.07614 308.17484 136.733 309.8317 136.733C311.48853 136.733 312.8317 138.07614 312.8317 139.733Z" fill-rule="nonzero"/><path fill="#000000" fill-opacity="0.0" clip-path="url(#id_0)" d="M317.86536 136.94405C317.86536 138.6009 316.5222 139.94405 314.86536 139.94405C313.2085 139.94405 311.86536 138.6009 311.86536 136.94405C311.86536 135.2872 313.2085 133.94405 314.86536 133.94405C316.5222 133.94405 317.86536 135.2872 317.86536 136.94405Z" fill-rule="nonzero"/><path fill="#000000" fill-opacity="0.0" clip-path="url(#id_0)" d="M322.89902 134.20628C322.89902 135.86313 321.55588 137.20628 319.89902 137.20628C318.24216 137.20628 316.89902 135.86313 316.89902 134.20628C316.89902 132.54942 318.24216 131.20628 319.89902 131.20628C321.55588 131.20628 322.89902 132.54942 322.89902 134.20628Z" fill-rule="nonzero"/><path fill="#000000" fill-opacity="0.0" clip-path="url(#id_0)" d="M327.93268 131.51968C327.93268 133.17653 326.58954 134.51968 324.93268 134.51968C323.27582 134.51968 321.93268 133.17653 321.93268 131.51968C321.93268 129.86282 323.27582 128.51968 324.93268 128.51968C326.58954 128.51968 327.93268 129.86282 327.93268 131.51968Z" fill-rule="nonzero"/><path fill="#000000" fill-opacity="0.0" clip-path="url(#id_0)" d="M332.96634 128.88425C332.96634 130.5411 331.6232 131.88425 329.96634 131.88425C328.30948 131.88425 326.96634 130.5411 326.96634 128.88425C326.96634 127.2274 328.30948 125.884254 329.96634 125.884254C331.6232 125.884254 332.96634 127.2274 332.96634 128.88425Z" fill-rule="nonzero"/><path fill="#000000" fill-opacity="0.0" clip-path="url(#id_0)" d="M338.0 126.3C338.0 127.956856 336.65686 129.3 335.0 129.3C333.34314 129.3 332.0 127.956856 332.0 126.3C332.0 124.64314 333.34314 123.3 335.0 123.3C336.65686 123.3 338.0 124.64314 338.0 126.3Z" fill-rule="nonzero"/><path fill="#000000" fill-opacity="0.0" clip-path="url(#id_0)" d="M343.03366 123.76692C343.03366 125.423775 341.69052 126.76692 340.03366 126.76692C338.3768 126.76692 337.03366 125.423775 337.03366 123.76692C337.03366 122.11007 338.3768 120.76692 340.03366 120.76692C341.69052 120.76692 343.03366 122.11007 343.03366 123.76692Z" fill-rule="nonzero"/><path fill="#000000" fill-opacity="0.0" clip-path="url(#id_0)" d="M348.06732 121.28501C348.06732 122.941864 346.72418 124.28501 345.06732 124.28501C343.41046 124.28501 342.06732 122.941864 342.06732 121.28501C342.06732 119.62816 343.41046 118.28501 345.06732 118.28501C346.72418 118.28501 348.06732 119.62816 348.06732 121.28501Z" fill-rule="nonzero"/><path fill="#000000" fill-opacity="0.0" clip-path="url(#id_0)" d="M353.10098 118.85428C353.10098 120.51113 351.75784 121.85428 350.10098 121.85428C348.44412 121.85428 347.10098 120.51113 347.10098 118.85428C347.10098 117.197426 348.44412 115.85428 350.10098 115.85428C351.75784 115.85428 353.10098 117.197426 353.10098 118.85428Z" fill-rule="nonzero"/><path fill="#000000" fill-opacity="0.0" clip-path="url(#id_0)" d="M358.13464 116.47472C358.13464 118.13158 356.7915 119.47472 355.13464 119.47472C353.4778 119.47472 352.13464 118.13158 352.13464 116.47472C352.13464 114.81786 353.4778 113.47472 355.13464 113.47472C356.7915 113.47472 358.13464 114.81786 358.13464 116.47472Z" fill-rule="nonzero"/><path fill="#000000" fill-opacity="0.0" clip-path="url(#id_0)" d="M363.1683 114.14633C363.1683 115.803185 361.82516 117.14633 360.1683 117.14633C358.51147 117.14633 357.1683 115.803185 357.1683 114.14633C357.1683 112.48948 358.51147 111.14633 360.1683 111.14633C361.82516 111.14633 363.1683 112.48948 363.1683 114.14633Z" fill-rule="nonzero"/><path fill="#000000" fill-opacity="0.0" clip-path="url(#id_0)" d="M368.20197 111.86912C368.20197 113.52597 366.85883 114.86912 365.20197 114.86912C363.54514 114.86912 362.20197 113.52597 362.20197 111.86912C362.20197 110.212265 363.54514 108.86912 365.20197 108.86912C366.85883 108.86912 368.20197 110.212265 368.20197 111.86912Z" fill-rule="nonzero"/><path fill="#000000" fill-opacity="0.0" clip-path="url(#id_0)" d="M373.23566 109.64308C373.23566 111.299934 371.8925 112.64308 370.23566 112.64308C368.5788 112.64308 367.23566 111.299934 367.23566 109.64308C367.23566 107.98623 368.5788 106.64308 370.23566 106.64308C371.8925 106.64308 373.23566 107.98623 373.23566 109.64308Z" fill-rule="nonzero"/><path fill="#000000" fill-opacity="0.0" clip-path="url(#id_0)" d="M378.26932 107.468216C378.26932 109.12507 376.92615 110.468216 375.26932 110.468216C373.61246 110.468216 372.26932 109.12507 372.26932 107.468216C372.26932 105.811356 373.61246 104.468216 375.26932 104.468216C376.92615 104.468216 378.26932 105.811356 378.26932 107.468216Z" fill-rule="nonzero"/><path fill="#000000" fill-opacity="0.0" clip-path="url(#id_0)" d="M383.30298 105.34452C383.30298 107.00137 381.95984 108.34452 380.30298 108.34452C378.64612 108.34452 377.30298 107.00137 377.30298 105.34452C377.30298 103.68767 378.64612 102.34452 380.30298 102.34452C381.95984 102.34452 383.30298 103.68767 383.30298 105.34452Z" fill-rule="nonzero"/><path fill="#000000" fill-opacity="0.0" clip-path="url(#id_0)" d="M388.33664 103.272C388.33664 104.928856 386.9935 106.272 385.33664 106.272C383.67978 106.272 382.33664 104.928856 382.33664 103.272C382.33664 101.61514 383.67978 100.272 385.33664 100.272C386.9935 100.272 388.33664 101.61514 388.33664 103.272Z" fill-rule="nonzero"/><path fill="#000000" fill-opacity="0.0" clip-path="url(#id_0)" d="M393.3703 101.250656C393.3703 102.90751 392.02716 104.250656 390.3703 104.250656C388.71344 104.250656 387.3703 102.90751 387.3703 101.250656C387.3703 99.593796 388.71344 98.250656 390.3703 98.250656C392.02716 98.250656 393.3703 99.593796 393.3703 101.250656Z" fill-rule="nonzero"/><path fill="#000000" fill-opacity="0.0" clip-path="url(#id_0)" d="M398.40396 99.28048C398.40396 100.93733 397.06082 102.28048 395.40396 102.28048C393.7471 102.28048 392.40396 100.93733 392.40396 99.28048C392.40396 97.62363 393.7471 96.28048 395.40396 96.28048C397.06082 96.28048 398.40396 97.62363 398.40396 99.28048Z" fill-rule="nonzero"/><path fill="#000000" fill-opacity="0.0" clip-path="url(#id_0)" d="M403.43762 97.36148C403.43762 99.01833 402.09448 100.36148 400.43762 100.36148C398.78076 100.36148 397.43762 99.01833 397.43762 97.36148C397.43762 95.70463 398.78076 94.36148 400.43762 94.36148C402.09448 94.36148 403.43762 95.70463 403.43762 97.36148Z" fill-rule="nonzero"/><path fill="#000000" fill-opacity="0.0" clip-path="url(#id_0)" d="M408.47128 95.49365C408.47128 97.150505 407.12814 98.49365 405.47128 98.49365C403.81442 98.49365 402.47128 97.150505 402.47128 95.49365C402.47128 93.8368 403.81442 92.49365 405.47128 92.49365C407.12814 92.49365 408.47128 93.8368 408.47128 95.49365Z" fill-rule="nonzero"/><path fill="#000000" fill-opacity="0.0" clip-path="url(#id_0)" d="M413.50494 93.677C413.50494 95.333855 412.1618 96.677 410.50494 96.677C408.84808 96.677 407.50494 95.333855 407.50494 93.677C407.50494 92.02015 408.84808 90.677 410.50494 90.677C412.1618 90.677 413.50494 92.02015 413.50494 93.677Z" fill-rule="nonzero"/><path fill="#000000" fill-opacity="0.0" clip-path="url(#id_0)" d="M418.5386 91.91152C418.5386 93.568375 417.19547 94.91152 415.5386 94.91152C413.88174 94.91152 412.5386 93.568375 412.5386 91.91152C412.5386 90.25467 413.88174 88.91152 415.5386 88.91152C417.19547 88.91152 418.5386 90.25467 418.5386 91.91152Z" fill-rule="nonzero"/><path fill="#000000" fill-opacity="0.0" clip-path="url(#id_0)" d="M423.57227 90.19721C423.57227 91.854065 422.22913 93.19721 420.57227 93.19721C418.91544 93.19721 417.57227 91.854065 417.57227 90.19721C417.57227 88.54036 418.91544 87.19721 420.57227 87.19721C422.22913 87.19721 423.57227 88.54036 423.57227 90.19721Z" fill-rule="nonzero"/><path fill="#000000" fill-opacity="0.0" clip-path="url(#id_0)" d="M428.60593 88.53408C428.60593 90.19093 427.2628 91.53408 425.60593 91.53408C423.9491 91.53408 422.60593 90.19093 422.60593 88.53408C422.60593 86.87723 423.9491 85.53408 425.60593 85.53408C427.2628 85.53408 428.60593 86.87723 428.60593 88.53408Z" fill-rule="nonzero"/><path fill="#000000" fill-opacity="0.0" clip-path="url(#id_0)" d="M433.63962 86.92212C433.63962 88.57897 432.29645 89.92212 430.63962 89.92212C428.98276 89.92212 427.63962 88.57897 427.63962 86.92212C427.63962 85.26527 428.98276 83.92212 430.63962 83.92212C432.29645 83.92212 433.63962 85.26527 433.63962 86.92212Z" fill-rule="nonzero"/><path fill="#000000" fill-opacity="0.0" clip-path="url(#id_0)" d="M438.67328 85.361336C438.67328 87.01819 437.3301 88.361336 435.67328 88.361336C434.01642 88.361336 432.67328 87.01819 432.67328 85.361336C432.67328 83.704475 434.01642 82.361336 435.67328 82.361336C437.3301 82.361336 438.67328 83.704475 438.67328 85.361336Z" fill-rule="nonzero"/><path fill="#000000" fill-opacity="0.0" clip-path="url(#id_0)" d="M443.70694 83.85172C443.70694 85.508575 442.3638 86.85172 440.70694 86.85172C439.05008 86.85172 437.70694 85.508575 437.70694 83.85172C437.70694 82.19486 439.05008 80.85172 440.70694 80.85172C442.3638 80.85172 443.70694 82.19486 443.70694 83.85172Z" fill-rule="nonzero"/><path fill="#000000" fill-opacity="0.0" clip-path="url(#id_0)" d="M448.7406 82.39328C448.7406 84.05013 447.39746 85.39328 445.7406 85.39328C444.08374 85.39328 442.7406 84.05013 442.7406 82.39328C442.7406 80.73643 444.08374 79.39328 445.7406 79.39328C447.39746 79.39328 448.7406 80.73643 448.7406 82.39328Z" fill-rule="nonzero"/><path fill="#000000" fill-opacity="0.0" clip-path="url(#id_0)" d="M453.77426 80.986015C453.77426 82.64287 452.43112 83.986015 450.77426 83.986015C449.1174 83.986015 447.77426 82.64287 447.77426 80.986015C447.77426 79.32916 449.1174 77.986015 450.77426 77.986015C452.43112 77.986015 453.77426 79.32916 453.77426 80.986015Z" fill-rule="nonzero"/><path fill="#000000" fill-opacity="0.0" clip-path="url(#id_0)" d="M458.80792 79.62992C458.80792 81.28677 457.46478 82.62992 455.80792 82.62992C454.15106 82.62992 452.80792 81.28677 452.80792 79.62992C452.80792 77.97307 454.15106 76.62992 455.80792 76.62992C457.46478 76.62992 458.80792 77.97307 458.80792 79.62992Z" fill-rule="nonzero"/><path fill="#000000" fill-opacity="0.0" clip-path="url(#id_0)" d="M463.84158 78.325C463.84158 79.98186 462.49844 81.325 460.84158 81.325C459.18472 81.325 457.84158 79.98186 457.84158 78.325C457.84158 76.668144 459.18472 75.325 460.84158 75.325C462.49844 75.325 463.84158 76.668144 463.84158 78.325Z" fill-rule="nonzero"/><path fill="#000000" fill-opacity="0.0" clip-path="url(#id_0)" d="M468.87524 77.07125C468.87524 78.72811 467.5321 80.07125 465.87524 80.07125C464.21838 80.07125 462.87524 78.72811 462.87524 77.07125C462.87524 75.4144 464.21838 74.07125 465.87524 74.07125C467.5321 74.07125 468.87524 75.4144 468.87524 77.07125Z" fill-rule="nonzero"/><path fill="#000000" fill-opacity="0.0" clip-path="url(#id_0)" d="M473.9089 75.86868C473.9089 77.525536 472.56577 78.86868 470.9089 78.86868C469.25204 78.86868 467.9089 77.525536 467.9089 75.86868C467.9089 74.21182 469.25204 72.86868 470.9089 72.86868C472.56577 72.86868 473.9089 74.21182 473.9089 75.86868Z" fill-rule="nonzero"/><path fill="#000000" fill-opacity="0.0" clip-path="url(#id_0)" d="M478.94257 74.71728C478.94257 76.37414 477.59943 77.71728 475.94257 77.71728C474.2857 77.71728 472.94257 76.37414 472.94257 74.71728C472.94257 73.060425 474.2857 71.71728 475.94257 71.71728C477.59943 71.71728 478.94257 73.060425 478.94257 74.71728Z" fill-rule="nonzero"/><path fill="#000000" fill-opacity="0.0" clip-path="url(#id_0)" d="M483.97623 73.61705C483.97623 75.27391 482.6331 76.61705 480.97623 76.61705C479.3194 76.61705 477.97623 75.27391 477.97623 73.61705C477.97623 71.9602 479.3194 70.61705 480.97623 70.61705C482.6331 70.61705 483.97623 71.9602 483.97623 73.61705Z" fill-rule="nonzero"/><path fill="#000000" fill-opacity="0.0" clip-path="url(#id_0)" d="M489.0099 72.568C489.0099 74.22485 487.66675 75.568 486.0099 75.568C484.35306 75.568 483.0099 74.22485 483.0099 72.568C483.0099 70.91115 484.35306 69.568 486.0099 69.568C487.66675 69.568 489.0099 70.91115 489.0099 72.568Z" fill-rule="nonzero"/><path fill="#000000" fill-opacity="0.0" clip-path="url(#id_0)" d="M494.04358 71.57012C494.04358 73.226974 492.7004 74.57012 491.04358 74.57012C489.38672 74.57012 488.04358 73.226974 488.04358 71.57012C488.04358 69.91327 489.38672 68.57012 491.04358 68.57012C492.7004 68.57012 494.04358 69.91327 494.04358 71.57012Z" fill-rule="nonzero"/><path fill="#000000" fill-opacity="0.0" clip-path="url(#id_0)" d="M499.07724 70.62341C499.07724 72.280266 497.73407 73.62341 496.07724 73.62341C494.42038 73.62341 493.07724 72.280266 493.07724 70.62341C493.07724 68.96656 494.42038 67.62341 496.07724 67.62341C497.73407 67.62341 499.07724 68.96656 499.07724 70.62341Z" fill-rule="nonzero"/><path fill="#000000" fill-opacity="0.0" clip-path="url(#id_0)" d="M504.1109 69.72788C504.1109 71.384735 502.76773 72.72788 501.1109 72.72788C499.45404 72.72788 498.1109 71.384735 498.1109 69.72788C498.1109 68.07102 499.45404 66.72788 501.1109 66.72788C502.76773 66.72788 504.1109 68.07102 504.1109 69.72788Z" fill-rule="nonzero"/><path fill="#000000" fill-opacity="0.0" clip-path="url(#id_0)" d="M509.14456 68.88352C509.14456 70.540375 507.80142 71.88352 506.14456 71.88352C504.4877 71.88352 503.14456 70.540375 503.14456 68.88352C503.14456 67.22667 504.4877 65.88352 506.14456 65.88352C507.80142 65.88352 509.14456 67.22667 509.14456 68.88352Z" fill-rule="nonzero"/><path fill="#000000" fill-opacity="0.0" clip-path="url(#id_0)" d="M514.1782 68.09033C514.1782 69.747185 512.8351 71.09033 511.17822 71.09033C509.52136 71.09033 508.17822 69.747185 508.17822 68.09033C508.17822 66.43348 509.52136 65.09033 511.17822 65.09033C512.8351 65.09033 514.1782 66.43348 514.1782 68.09033Z" fill-rule="nonzero"/><path fill="#000000" fill-opacity="0.0" clip-path="url(#id_0)" d="M519.21185 67.34832C519.21185 69.00517 517.8687 70.34832 516.21185 70.34832C514.55505 70.34832 513.21185 69.00517 513.21185 67.34832C513.21185 65.69147 514.55505 64.34832 516.21185 64.34832C517.8687 64.34832 519.21185 65.69147 519.21185 67.34832Z" fill-rule="nonzero"/><path fill="#000000" fill-opacity="0.0" clip-path="url(#id_0)" d="M524.24554 66.65748C524.24554 68.31433 522.9024 69.65748 521.24554 69.65748C519.5887 69.65748 518.24554 68.31433 518.24554 66.65748C518.24554 65.000626 519.5887 63.65748 521.24554 63.65748C522.9024 63.65748 524.24554 65.000626 524.24554 66.65748Z" fill-rule="nonzero"/><path fill="#000000" fill-opacity="0.0" clip-path="url(#id_0)" d="M529.27924 66.017815C529.27924 67.67467 527.93604 69.017815 526.27924 69.017815C524.6224 69.017815 523.27924 67.67467 523.27924 66.017815C523.27924 64.36096 524.6224 63.017815 526.27924 63.017815C527.93604 63.017815 529.27924 64.36096 529.27924 66.017815Z" fill-rule="nonzero"/><path fill="#000000" fill-opacity="0.0" clip-path="url(#id_0)" d="M534.31287 65.42932C534.31287 67.086174 532.9697 68.42932 531.31287 68.42932C529.656 68.42932 528.31287 67.086174 528.31287 65.42932C528.31287 63.772465 529.656 62.42932 531.31287 62.42932C532.9697 62.42932 534.31287 63.772465 534.31287 65.42932Z" fill-rule="nonzero"/><path fill="#000000" fill-opacity="0.0" clip-path="url(#id_0)" d="M539.34656 64.892C539.34656 66.54885 538.0034 67.892 536.34656 67.892C534.6897 67.892 533.34656 66.54885 533.34656 64.892C533.34656 63.235146 534.6897 61.892 536.34656 61.892C538.0034 61.892 539.34656 63.235146 539.34656 64.892Z" fill-rule="nonzero"/><path fill="#000000" fill-opacity="0.0" clip-path="url(#id_0)" d="M544.3802 64.40585C544.3802 66.062706 543.03705 67.40585 541.3802 67.40585C539.7233 67.40585 538.3802 66.062706 538.3802 64.40585C538.3802 62.749 539.7233 61.405853 541.3802 61.405853C543.03705 61.405853 544.3802 62.749 544.3802 64.40585Z" fill-rule="nonzero"/><path fill="#000000" fill-opacity="0.0" clip-path="url(#id_0)" d="M549.4139 63.97088C549.4139 65.62773 548.07074 66.97088 546.4139 66.97088C544.757 66.97088 543.4139 65.62773 543.4139 63.97088C543.4139 62.314026 544.757 60.97088 546.4139 60.97088C548.07074 60.97088 549.4139 62.314026 549.4139 63.97088Z" fill-rule="nonzero"/><path fill="#000000" fill-opacity="0.0" clip-path="url(#id_0)" d="M554.4475 63.58708C554.4475 65.243935 553.1044 66.58708 551.4475 66.58708C549.79065 66.58708 548.4475 65.243935 548.4475 63.58708C548.4475 61.930225 549.79065 60.58708 551.4475 60.58708C553.1044 60.58708 554.4475 61.930225 554.4475 63.58708Z" fill-rule="nonzero"/><path fill="#000000" fill-opacity="0.0" clip-path="url(#id_0)" d="M559.4812 63.25445C559.4812 64.91131 558.13806 66.254456 556.4812 66.254456C554.82434 66.254456 553.4812 64.91131 553.4812 63.25445C553.4812 61.5976 554.82434 60.25445 556.4812 60.25445C558.13806 60.25445 559.4812 61.5976 559.4812 63.25445Z" fill-rule="nonzero"/><path fill="#000000" fill-opacity="0.0" clip-path="url(#id_0)" d="M564.51483 62.973C564.51483 64.62985 563.1717 65.973 561.51483 65.973C559.858 65.973 558.51483 64.62985 558.51483 62.973C558.51483 61.316147 559.858 59.973 561.51483 59.973C563.1717 59.973 564.51483 61.316147 564.51483 62.973Z" fill-rule="nonzero"/><path fill="#000000" fill-opacity="0.0" clip-path="url(#id_0)" d="M569.5485 62.74272C569.5485 64.399574 568.2054 65.74272 566.5485 65.74272C564.89166 65.74272 563.5485 64.399574 563.5485 62.74272C563.5485 61.085865 564.89166 59.74272 566.5485 59.74272C568.2054 59.74272 569.5485 61.085865 569.5485 62.74272Z" fill-rule="nonzero"/><path fill="#000000" fill-opacity="0.0" clip-path="url(#id_0)" d="M574.58215 62.563614C574.58215 64.22047 573.239 65.563614 571.58215 65.563614C569.92535 65.563614 568.58215 64.22047 568.58215 62.563614C568.58215 60.906757 569.92535 59.563614 571.58215 59.563614C573.239 59.563614 574.58215 60.906757 574.58215 62.563614Z" fill-rule="nonzero"/><path fill="#000000" fill-opacity="0.0" clip-path="url(#id_0)" d="M579.61584 62.43568C579.61584 64.09254 578.2727 65.43568 576.61584 65.43568C574.959 65.43568 573.61584 64.09254 573.61584 62.43568C573.61584 60.778824 574.959 59.43568 576.61584 59.43568C578.2727 59.43568 579.61584 60.778824 579.61584 62.43568Z" fill-rule="nonzero"/><path fill="#000000" fill-opacity="0.0" clip-path="url(#id_0)" d="M584.6495 62.35892C584.6495 64.01578 583.30634 65.35892 581.6495 65.35892C579.9927 65.35892 578.6495 64.01578 578.6495 62.35892C578.6495 60.702065 579.9927 59.35892 581.6495 59.35892C583.30634 59.35892 584.6495 60.702065 584.6495 62.35892Z" fill-rule="nonzero"/><path fill="#000000" fill-opacity="0.0" clip-path="url(#id_0)" d="M589.68317 62.333332C589.68317 63.99019 588.34 65.333336 586.68317 65.333336C585.0263 65.333336 583.68317 63.99019 583.68317 62.333332C583.68317 60.67648 585.0263 59.333332 586.68317 59.333332C588.34 59.333332 589.68317 60.67648 589.68317 62.333332Z" fill-rule="nonzero"/><path fill="#000000" d="M336.59375 353.2625L336.75 354.1844Q336.29688 354.27814 335.95312 354.27814Q335.375 354.27814 335.0625 354.10626Q334.75 353.91876 334.60938 353.6219Q334.48438 353.325 334.48438 352.3719L334.48438 348.79376L333.71875 348.79376L333.71875 347.98126L334.48438 347.98126L334.48438 346.4344L335.53125 345.8094L335.53125 347.98126L336.59375 347.98126L336.59375 348.79376L335.53125 348.79376L335.53125 352.4344Q335.53125 352.8875 335.57812 353.0125Q335.64062 353.1375 335.76562 353.21564Q335.89062 353.29376 336.125 353.29376Q336.3125 353.29376 336.59375 353.2625Z" fill-rule="nonzero"/><path fill="#000000" d="M29.800013 192.67291L26.565638 190.40729L23.581263 192.50104L23.581263 191.18854L25.034388 190.23541Q25.456263 189.96979 25.737513 189.79791Q25.346888 189.54791 25.050013 189.32916L23.581263 188.28229L23.581263 187.01666L26.503138 189.17291L29.800013 186.86041L29.800013 188.14166L27.862513 189.42291L27.346888 189.76666L29.800013 191.40729L29.800013 192.67291Z" fill-rule="nonzero"/><path fill="#000000" d="M51.3 317.96564Q51.3 316.4344 51.6125 315.5125Q51.925 314.575 52.534374 314.075Q53.159374 313.575 54.096874 313.575Q54.784374 313.575 55.3 313.85626Q55.83125 314.1375 56.175 314.66876Q56.51875 315.1844 56.70625 315.9344Q56.89375 316.6844 56.89375 317.96564Q56.89375 319.48126 56.58125 320.40314Q56.284374 321.325 55.659374 321.84064Q55.05 322.34064 54.096874 322.34064Q52.8625 322.34064 52.14375 321.45Q51.3 320.3875 51.3 317.96564ZM52.378124 317.96564Q52.378124 320.075 52.878124 320.77814Q53.378124 321.48126 54.096874 321.48126Q54.83125 321.48126 55.315624 320.77814Q55.815624 320.075 55.815624 317.96564Q55.815624 315.84064 55.315624 315.15314Q54.83125 314.45 54.08125 314.45Q53.3625 314.45 52.925 315.0594Q52.378124 315.84064 52.378124 317.96564ZM58.89375 322.2L58.89375 320.9969L60.096874 320.9969L60.096874 322.2L58.89375 322.2ZM61.3 317.96564Q61.3 316.4344 61.6125 315.5125Q61.925 314.575 62.534374 314.075Q63.159374 313.575 64.09688 313.575Q64.78438 313.575 65.3 313.85626Q65.83125 314.1375 66.175 314.66876Q66.51875 315.1844 66.70625 315.9344Q66.89375 316.6844 66.89375 317.96564Q66.89375 319.48126 66.58125 320.40314Q66.28438 321.325 65.65938 321.84064Q65.05 322.34064 64.09688 322.34064Q62.8625 322.34064 62.14375 321.45Q61.3 320.3875 61.3 317.96564ZM62.378124 317.96564Q62.378124 320.075 62.878124 320.77814Q63.378124 321.48126 64.09688 321.48126Q64.83125 321.48126 65.31563 320.77814Q65.81563 320.075 65.81563 317.96564Q65.81563 315.84064 65.31563 315.15314Q64.83125 314.45 64.08125 314.45Q63.3625 314.45 62.925 315.0594Q62.378124 315.84064 62.378124 317.96564ZM68.3 317.96564Q68.3 316.4344 68.6125 315.5125Q68.925 314.575 69.53438 314.075Q70.15938 313.575 71.09688 313.575Q71.78438 313.575 72.3 313.85626Q72.83125 314.1375 73.175 314.66876Q73.51875 315.1844 73.70625 315.9344Q73.89375 316.6844 73.89375 317.96564Q73.89375 319.48126 73.58125 320.40314Q73.28438 321.325 72.65938 321.84064Q72.05 322.34064 71.09688 322.34064Q69.8625 322.34064 69.14375 321.45Q68.3 320.3875 68.3 317.96564ZM69.37813 317.96564Q69.37813 320.075 69.87813 320.77814Q70.37813 321.48126 71.09688 321.48126Q71.83125 321.48126 72.31563 320.77814Q72.81563 320.075 72.81563 317.96564Q72.81563 315.84064 72.31563 315.15314Q71.83125 314.45 71.08125 314.45Q70.3625 314.45 69.925 315.0594Q69.37813 315.84064 69.37813 317.96564Z" fill-rule="nonzero"/><path fill="#000000" d="M51.3 253.99896Q51.3 252.46771 51.6125 251.54584Q51.925 250.60834 52.534374 250.10834Q53.159374 249.60834 54.096874 249.60834Q54.784374 249.60834 55.3 249.88959Q55.83125 250.17084 56.175 250.70209Q56.51875 251.21771 56.70625 251.96771Q56.89375 252.71771 56.89375 253.99896Q56.89375 255.51459 56.58125 256.43646Q56.284374 257.35834 55.659374 257.87396Q55.05 258.37396 54.096874 258.37396Q52.8625 258.37396 52.14375 257.48334Q51.3 256.42084 51.3 253.99896ZM52.378124 253.99896Q52.378124 256.10834 52.878124 256.81146Q53.378124 257.5146 54.096874 257.5146Q54.83125 257.5146 55.315624 256.81146Q55.815624 256.10834 55.815624 253.99896Q55.815624 251.87396 55.315624 251.18646Q54.83125 250.48334 54.08125 250.48334Q53.3625 250.48334 52.925 251.09271Q52.378124 251.87396 52.378124 253.99896ZM58.89375 258.23334L58.89375 257.0302L60.096874 257.0302L60.096874 258.23334L58.89375 258.23334ZM66.84688 257.2177L66.84688 258.23334L61.159374 258.23334Q61.159374 257.85834 61.284374 257.49896Q61.503124 256.92084 61.971874 256.35834Q62.45625 255.79584 63.3625 255.06146Q64.76875 253.90521 65.25313 253.23334Q65.75313 252.56146 65.75313 251.96771Q65.75313 251.34271 65.3 250.92084Q64.84688 250.48334 64.12813 250.48334Q63.3625 250.48334 62.909374 250.93646Q62.45625 251.38959 62.440624 252.20209L61.3625 252.09271Q61.471874 250.87396 62.190624 250.24896Q62.925 249.60834 64.15938 249.60834Q65.39375 249.60834 66.1125 250.29584Q66.83125 250.98334 66.83125 251.99896Q66.83125 252.51459 66.6125 253.01459Q66.40938 253.49896 65.90938 254.06146Q65.425 254.60834 64.3 255.56146Q63.346874 256.35834 63.065624 256.6552Q62.8 256.93646 62.628124 257.2177L66.84688 257.2177ZM68.3 255.98334L69.40938 255.88959Q69.53438 256.7021 69.97188 257.10834Q70.425 257.5146 71.06563 257.5146Q71.81563 257.5146 72.34688 256.93646Q72.87813 256.35834 72.87813 255.42084Q72.87813 254.51459 72.3625 253.99896Q71.8625 253.46771 71.03438 253.46771Q70.53438 253.46771 70.1125 253.70209Q69.70625 253.93646 69.47188 254.29584L68.4875 254.17084L69.31563 249.76459L73.59688 249.76459L73.59688 250.76459L70.15938 250.76459L69.70625 253.07709Q70.47188 252.53021 71.31563 252.53021Q72.44063 252.53021 73.20625 253.31146Q73.9875 254.09271 73.9875 255.32709Q73.9875 256.48334 73.31563 257.3427Q72.4875 258.37396 71.06563 258.37396Q69.89375 258.37396 69.14375 257.7177Q68.40938 257.06146 68.3 255.98334Z" fill-rule="nonzero"/><path fill="#000000" d="M51.3 190.03229Q51.3 188.50104 51.6125 187.57916Q51.925 186.64166 52.534374 186.14166Q53.159374 185.64166 54.096874 185.64166Q54.784374 185.64166 55.3 185.92291Q55.83125 186.20416 56.175 186.73541Q56.51875 187.25104 56.70625 188.00104Q56.89375 188.75104 56.89375 190.03229Q56.89375 191.54791 56.58125 192.46979Q56.284374 193.39166 55.659374 193.90729Q55.05 194.40729 54.096874 194.40729Q52.8625 194.40729 52.14375 193.51666Q51.3 192.45416 51.3 190.03229ZM52.378124 190.03229Q52.378124 192.14166 52.878124 192.84479Q53.378124 193.54791 54.096874 193.54791Q54.83125 193.54791 55.315624 192.84479Q55.815624 192.14166 55.815624 190.03229Q55.815624 187.90729 55.315624 187.21979Q54.83125 186.51666 54.08125 186.51666Q53.3625 186.51666 52.925 187.12604Q52.378124 187.90729 52.378124 190.03229ZM58.89375 194.26666L58.89375 193.06354L60.096874 193.06354L60.096874 194.26666L58.89375 194.26666ZM61.3 192.01666L62.409374 191.92291Q62.534374 192.73541 62.971874 193.14166Q63.425 193.54791 64.06563 193.54791Q64.81563 193.54791 65.34688 192.96979Q65.87813 192.39166 65.87813 191.45416Q65.87813 190.54791 65.3625 190.03229Q64.8625 189.50104 64.03438 189.50104Q63.534374 189.50104 63.1125 189.73541Q62.70625 189.96979 62.471874 190.32916L61.4875 190.20416L62.315624 185.79791L66.59688 185.79791L66.59688 186.79791L63.159374 186.79791L62.70625 189.11041Q63.471874 188.56354 64.31563 188.56354Q65.44063 188.56354 66.20625 189.34479Q66.9875 190.12604 66.9875 191.36041Q66.9875 192.51666 66.31563 193.37604Q65.4875 194.40729 64.06563 194.40729Q62.89375 194.40729 62.14375 193.75104Q61.409374 193.09479 61.3 192.01666ZM68.3 190.03229Q68.3 188.50104 68.6125 187.57916Q68.925 186.64166 69.53438 186.14166Q70.15938 185.64166 71.09688 185.64166Q71.78438 185.64166 72.3 185.92291Q72.83125 186.20416 73.175 186.73541Q73.51875 187.25104 73.70625 188.00104Q73.89375 188.75104 73.89375 190.03229Q73.89375 191.54791 73.58125 192.46979Q73.28438 193.39166 72.65938 193.90729Q72.05 194.40729 71.09688 194.40729Q69.8625 194.40729 69.14375 193.51666Q68.3 192.45416 68.3 190.03229ZM69.37813 190.03229Q69.37813 192.14166 69.87813 192.84479Q70.37813 193.54791 71.09688 193.54791Q71.83125 193.54791 72.31563 192.84479Q72.81563 192.14166 72.81563 190.03229Q72.81563 187.90729 72.31563 187.21979Q71.83125 186.51666 71.08125 186.51666Q70.3625 186.51666 69.925 187.12604Q69.37813 187.90729 69.37813 190.03229Z" fill-rule="nonzero"/><path fill="#000000" d="M51.3 126.06563Q51.3 124.53438 51.6125 123.6125Q51.925 122.675 52.534374 122.175Q53.159374 121.675 54.096874 121.675Q54.784374 121.675 55.3 121.95625Q55.83125 122.2375 56.175 122.76875Q56.51875 123.28438 56.70625 124.03438Q56.89375 124.78438 56.89375 126.06563Q56.89375 127.58125 56.58125 128.50313Q56.284374 129.425 55.659374 129.94063Q55.05 130.44063 54.096874 130.44063Q52.8625 130.44063 52.14375 129.55Q51.3 128.4875 51.3 126.06563ZM52.378124 126.06563Q52.378124 128.175 52.878124 128.87813Q53.378124 129.58125 54.096874 129.58125Q54.83125 129.58125 55.315624 128.87813Q55.815624 128.175 55.815624 126.06563Q55.815624 123.94063 55.315624 123.25313Q54.83125 122.55 54.08125 122.55Q53.3625 122.55 52.925 123.15938Q52.378124 123.94063 52.378124 126.06563ZM58.89375 130.3L58.89375 129.09688L60.096874 129.09688L60.096874 130.3L58.89375 130.3ZM61.3625 122.83125L61.3625 121.81563L66.925 121.81563L66.925 122.64375Q66.1125 123.51875 65.3 124.97188Q64.50313 126.40938 64.06563 127.94063Q63.7375 129.01875 63.659374 130.3L62.565624 130.3Q62.58125 129.28438 62.95625 127.84688Q63.346874 126.40938 64.05 125.08125Q64.76875 123.75313 65.58125 122.83125L61.3625 122.83125ZM68.3 128.05L69.40938 127.95625Q69.53438 128.76875 69.97188 129.175Q70.425 129.58125 71.06563 129.58125Q71.81563 129.58125 72.34688 129.00313Q72.87813 128.425 72.87813 127.4875Q72.87813 126.58125 72.3625 126.06563Q71.8625 125.53438 71.03438 125.53438Q70.53438 125.53438 70.1125 125.76875Q69.70625 126.00313 69.47188 126.3625L68.4875 126.2375L69.31563 121.83125L73.59688 121.83125L73.59688 122.83125L70.15938 122.83125L69.70625 125.14375Q70.47188 124.59688 71.31563 124.59688Q72.44063 124.59688 73.20625 125.37813Q73.9875 126.15938 73.9875 127.39375Q73.9875 128.55 73.31563 129.40938Q72.4875 130.44063 71.06563 130.44063Q69.89375 130.44063 69.14375 129.78438Q68.40938 129.12813 68.3 128.05Z" fill-rule="nonzero"/><path fill="#000000" d="M55.26875 66.333336L54.221874 66.333336L54.221874 59.614586Q53.83125 59.97396 53.20625 60.34896Q52.596874 60.708336 52.1125 60.88021L52.1125 59.864586Q52.9875 59.44271 53.64375 58.864586Q54.315624 58.270836 54.596874 57.708336L55.26875 57.708336L55.26875 66.333336ZM58.89375 66.333336L58.89375 65.13021L60.096874 65.13021L60.096874 66.333336L58.89375 66.333336ZM61.3 62.09896Q61.3 60.56771 61.6125 59.645836Q61.925 58.708336 62.534374 58.208336Q63.159374 57.708336 64.09688 57.708336Q64.78438 57.708336 65.3 57.989586Q65.83125 58.270836 66.175 58.802086Q66.51875 59.31771 66.70625 60.06771Q66.89375 60.81771 66.89375 62.09896Q66.89375 63.614586 66.58125 64.53646Q66.28438 65.458336 65.65938 65.97396Q65.05 66.47396 64.09688 66.47396Q62.8625 66.47396 62.14375 65.583336Q61.3 64.520836 61.3 62.09896ZM62.378124 62.09896Q62.378124 64.208336 62.878124 64.91146Q63.378124 65.614586 64.09688 65.614586Q64.83125 65.614586 65.31563 64.91146Q65.81563 64.208336 65.81563 62.09896Q65.81563 59.97396 65.31563 59.28646Q64.83125 58.583336 64.08125 58.583336Q63.3625 58.583336 62.925 59.19271Q62.378124 59.97396 62.378124 62.09896ZM68.3 62.09896Q68.3 60.56771 68.6125 59.645836Q68.925 58.708336 69.53438 58.208336Q70.15938 57.708336 71.09688 57.708336Q71.78438 57.708336 72.3 57.989586Q72.83125 58.270836 73.175 58.802086Q73.51875 59.31771 73.70625 60.06771Q73.89375 60.81771 73.89375 62.09896Q73.89375 63.614586 73.58125 64.53646Q73.28438 65.458336 72.65938 65.97396Q72.05 66.47396 71.09688 66.47396Q69.8625 66.47396 69.14375 65.583336Q68.3 64.520836 68.3 62.09896ZM69.37813 62.09896Q69.37813 64.208336 69.87813 64.91146Q70.37813 65.614586 71.09688 65.614586Q71.83125 65.614586 72.31563 64.91146Q72.81563 64.208336 72.81563 62.09896Q72.81563 59.97396 72.31563 59.28646Q71.83125 58.583336 71.08125 58.583336Q70.3625 58.583336 69.925 59.19271Q69.37813 59.97396 69.37813 62.09896Z" fill-rule="nonzero"/><path fill="#757575" d="M20.378124 37.8L20.378124 23.4875L30.7375 23.4875L30.7375 25.175L22.284374 25.175L22.284374 29.55L30.190624 29.55L30.190624 31.2375L22.284374 31.2375L22.284374 36.1125L31.065624 36.1125L31.065624 37.8L20.378124 37.8ZM39.89375 36.51875Q38.909374 37.346874 38.003124 37.690624Q37.096874 38.034374 36.065624 38.034374Q34.3625 38.034374 33.440624 37.20625Q32.51875 36.3625 32.51875 35.065624Q32.51875 34.3 32.8625 33.675Q33.221874 33.05 33.784374 32.675Q34.346874 32.284374 35.05 32.08125Q35.565624 31.95625 36.6125 31.815624Q38.7375 31.565624 39.7375 31.221874Q39.753124 30.8625 39.753124 30.753124Q39.753124 29.690624 39.253124 29.2375Q38.58125 28.64375 37.253124 28.64375Q36.003124 28.64375 35.409374 29.08125Q34.83125 29.51875 34.55 30.628124L32.83125 30.39375Q33.065624 29.284374 33.596874 28.6125Q34.128124 27.925 35.14375 27.565624Q36.159374 27.190624 37.503124 27.190624Q38.83125 27.190624 39.659374 27.503124Q40.4875 27.815624 40.878124 28.3Q41.26875 28.76875 41.425 29.4875Q41.51875 29.940624 41.51875 31.1125L41.51875 33.45625Q41.51875 35.909374 41.628124 36.565624Q41.7375 37.20625 42.08125 37.8L40.2375 37.8Q39.971874 37.253124 39.89375 36.51875ZM39.7375 32.596874Q38.784374 32.9875 36.8625 33.253124Q35.784374 33.409374 35.33125 33.6125Q34.89375 33.8 34.64375 34.175Q34.39375 34.55 34.39375 35.01875Q34.39375 35.721874 34.925 36.190624Q35.45625 36.659374 36.4875 36.659374Q37.503124 36.659374 38.284374 36.221874Q39.08125 35.76875 39.45625 35.003124Q39.7375 34.39375 39.7375 33.2375L39.7375 32.596874ZM43.409374 34.70625L45.159374 34.425Q45.3 35.471874 45.971874 36.034374Q46.64375 36.58125 47.846874 36.58125Q49.05 36.58125 49.628124 36.096874Q50.221874 35.596874 50.221874 34.940624Q50.221874 34.346874 49.70625 34.003124Q49.346874 33.76875 47.909374 33.409374Q45.971874 32.909374 45.221874 32.565624Q44.4875 32.20625 44.096874 31.58125Q43.70625 30.940624 43.70625 30.175Q43.70625 29.4875 44.01875 28.89375Q44.346874 28.3 44.89375 27.909374Q45.3 27.6125 46.003124 27.409374Q46.721874 27.190624 47.534374 27.190624Q48.753124 27.190624 49.675 27.55Q50.596874 27.89375 51.034374 28.503124Q51.471874 29.096874 51.64375 30.096874L49.925 30.33125Q49.8 29.534374 49.2375 29.096874Q48.675 28.64375 47.659374 28.64375Q46.440624 28.64375 45.925 29.05Q45.409374 29.440624 45.409374 29.971874Q45.409374 30.315624 45.628124 30.596874Q45.83125 30.878124 46.3 31.065624Q46.565624 31.159374 47.846874 31.503124Q49.721874 32.003124 50.45625 32.33125Q51.190624 32.64375 51.6125 33.253124Q52.034374 33.846874 52.034374 34.753124Q52.034374 35.628124 51.51875 36.409374Q51.003124 37.190624 50.034374 37.6125Q49.065624 38.034374 47.846874 38.034374Q45.83125 38.034374 44.76875 37.190624Q43.70625 36.346874 43.409374 34.70625ZM61.221874 34.45625L63.034374 34.690624Q62.6125 36.26875 61.440624 37.159374Q60.284374 38.034374 58.471874 38.034374Q56.20625 38.034374 54.8625 36.64375Q53.534374 35.2375 53.534374 32.70625Q53.534374 30.08125 54.878124 28.64375Q56.221874 27.190624 58.378124 27.190624Q60.45625 27.190624 61.76875 28.6125Q63.096874 30.01875 63.096874 32.596874Q63.096874 32.753124 63.08125 33.065624L55.346874 33.065624Q55.440624 34.76875 56.315624 35.675Q57.190624 36.58125 58.4875 36.58125Q59.45625 36.58125 60.128124 36.08125Q60.815624 35.565624 61.221874 34.45625ZM55.440624 31.6125L61.2375 31.6125Q61.128124 30.315624 60.58125 29.659374Q59.7375 28.64375 58.39375 28.64375Q57.190624 28.64375 56.3625 29.45625Q55.534374 30.253124 55.440624 31.6125ZM64.76875 30.83125Q64.76875 27.26875 66.675 25.253124Q68.59688 23.221874 71.62813 23.221874Q73.6125 23.221874 75.19063 24.175Q76.78438 25.128124 77.6125 26.83125Q78.45625 28.51875 78.45625 30.659374Q78.45625 32.83125 77.58125 34.55Q76.70625 36.26875 75.08125 37.159374Q73.47188 38.05 71.6125 38.05Q69.59688 38.05 68.00313 37.08125Q66.40938 36.096874 65.58125 34.409374Q64.76875 32.70625 64.76875 30.83125ZM66.72188 30.8625Q66.72188 33.440624 68.1125 34.940624Q69.50313 36.425 71.59688 36.425Q73.7375 36.425 75.1125 34.925Q76.50313 33.409374 76.50313 30.64375Q76.50313 28.909374 75.90938 27.6125Q75.33125 26.3 74.19063 25.58125Q73.05 24.8625 71.62813 24.8625Q69.62813 24.8625 68.175 26.253124Q66.72188 27.628124 66.72188 30.8625ZM87.90938 37.8L87.90938 36.26875Q86.70625 38.034374 84.62813 38.034374Q83.70625 38.034374 82.90938 37.690624Q82.1125 37.33125 81.72188 36.8Q81.34688 36.26875 81.19063 35.4875Q81.08125 34.971874 81.08125 33.846874L81.08125 27.425L82.83125 27.425L82.83125 33.175Q82.83125 34.55 82.94063 35.034374Q83.1125 35.721874 83.64375 36.128124Q84.19063 36.51875 84.97188 36.51875Q85.76875 36.51875 86.45625 36.1125Q87.15938 35.70625 87.44063 35.01875Q87.7375 34.315624 87.7375 32.9875L87.7375 27.425L89.4875 27.425L89.4875 37.8L87.90938 37.8ZM94.95625 36.221874L95.20625 37.784374Q94.47188 37.940624 93.87813 37.940624Q92.925 37.940624 92.39375 37.64375Q91.87813 37.33125 91.65938 36.846874Q91.44063 36.346874 91.44063 34.76875L91.44063 28.8L90.15938 28.8L90.15938 27.425L91.44063 27.425L91.44063 24.8625L93.19063 23.8L93.19063 27.425L94.95625 27.425L94.95625 28.8L93.19063 28.8L93.19063 34.8625Q93.19063 35.6125 93.28438 35.83125Q93.37813 36.034374 93.58125 36.175Q93.8 36.3 94.19063 36.3Q94.47188 36.3 94.95625 36.221874ZM108.19063 36.26875Q109.51875 37.175 110.62813 37.596874L110.06563 38.909374Q108.51875 38.3625 106.9875 37.159374Q105.39375 38.05 103.47188 38.05Q101.53438 38.05 99.94063 37.1125Q98.3625 36.175 97.50313 34.471874Q96.65938 32.76875 96.65938 30.64375Q96.65938 28.51875 97.51875 26.784374Q98.37813 25.05 99.95625 24.14375Q101.55 23.221874 103.51875 23.221874Q105.50313 23.221874 107.08125 24.175Q108.675 25.1125 109.50313 26.815624Q110.34688 28.503124 110.34688 30.628124Q110.34688 32.39375 109.81563 33.815624Q109.28438 35.221874 108.19063 36.26875ZM104.01875 33.846874Q105.65938 34.3 106.72188 35.20625Q108.39375 33.690624 108.39375 30.628124Q108.39375 28.89375 107.8 27.596874Q107.22188 26.3 106.08125 25.58125Q104.94063 24.8625 103.51875 24.8625Q101.40938 24.8625 100.00313 26.315624Q98.6125 27.753124 98.6125 30.64375Q98.6125 33.440624 99.9875 34.940624Q101.37813 36.425 103.51875 36.425Q104.53438 36.425 105.44063 36.034374Q104.55 35.471874 103.56563 35.221874L104.01875 33.846874ZM119.90938 37.8L119.90938 36.26875Q118.70625 38.034374 116.62813 38.034374Q115.70625 38.034374 114.90938 37.690624Q114.1125 37.33125 113.72188 36.8Q113.34688 36.26875 113.19063 35.4875Q113.08125 34.971874 113.08125 33.846874L113.08125 27.425L114.83125 27.425L114.83125 33.175Q114.83125 34.55 114.94063 35.034374Q115.1125 35.721874 115.64375 36.128124Q116.19063 36.51875 116.97188 36.51875Q117.76875 36.51875 118.45625 36.1125Q119.15938 35.70625 119.44063 35.01875Q119.7375 34.315624 119.7375 32.9875L119.7375 27.425L121.4875 27.425L121.4875 37.8L119.90938 37.8ZM129.89375 36.51875Q128.90938 37.346874 128.00313 37.690624Q127.09688 38.034374 126.06563 38.034374Q124.3625 38.034374 123.44063 37.20625Q122.51875 36.3625 122.51875 35.065624Q122.51875 34.3 122.8625 33.675Q123.22188 33.05 123.78438 32.675Q124.34688 32.284374 125.05 32.08125Q125.56563 31.95625 126.6125 31.815624Q128.7375 31.565624 129.7375 31.221874Q129.75313 30.8625 129.75313 30.753124Q129.75313 29.690624 129.25313 29.2375Q128.58125 28.64375 127.25313 28.64375Q126.00313 28.64375 125.40938 29.08125Q124.83125 29.51875 124.55 30.628124L122.83125 30.39375Q123.06563 29.284374 123.59688 28.6125Q124.12813 27.925 125.14375 27.565624Q126.15938 27.190624 127.50313 27.190624Q128.83125 27.190624 129.65938 27.503124Q130.4875 27.815624 130.87813 28.3Q131.26875 28.76875 131.425 29.4875Q131.51875 29.940624 131.51875 31.1125L131.51875 33.45625Q131.51875 35.909374 131.62813 36.565624Q131.7375 37.20625 132.08125 37.8L130.2375 37.8Q129.97188 37.253124 129.89375 36.51875ZM129.7375 32.596874Q128.78438 32.9875 126.8625 33.253124Q125.78438 33.409374 125.33125 33.6125Q124.89375 33.8 124.64375 34.175Q124.39375 34.55 124.39375 35.01875Q124.39375 35.721874 124.925 36.190624Q125.45625 36.659374 126.4875 36.659374Q127.50313 36.659374 128.28438 36.221874Q129.08125 35.76875 129.45625 35.003124Q129.7375 34.39375 129.7375 33.2375L129.7375 32.596874ZM140.84688 37.8L140.84688 36.4875Q139.8625 38.034374 137.94063 38.034374Q136.70625 38.034374 135.65938 37.346874Q134.62813 36.659374 134.05 35.440624Q133.4875 34.221874 133.4875 32.628124Q133.4875 31.065624 134.00313 29.8Q134.51875 28.534374 135.55 27.8625Q136.59688 27.190624 137.8625 27.190624Q138.8 27.190624 139.53438 27.596874Q140.26875 27.9875 140.7375 28.6125L140.7375 23.4875L142.47188 23.4875L142.47188 37.8L140.84688 37.8ZM135.28438 32.628124Q135.28438 34.6125 136.12813 35.596874Q136.97188 36.58125 138.1125 36.58125Q139.26875 36.58125 140.06563 35.64375Q140.87813 34.70625 140.87813 32.76875Q140.87813 30.64375 140.05 29.64375Q139.2375 28.64375 138.03438 28.64375Q136.8625 28.64375 136.06563 29.6125Q135.28438 30.565624 135.28438 32.628124Z" fill-rule="nonzero"/></svg>