<svg version="1.1" viewBox="0.0 0.0 608.0 376.0" fill="none" stroke="none" stroke-linecap="square" stroke-miterlimit="10" width="608" height="376" xmlns:xlink="http://www.w3.org/1999/xlink" xmlns="http://www.w3.org/2000/svg"><path fill="#ffffff" d="M0 0L608.0 0L608.0 376.0L0 376.0L0 0Z" fill-rule="nonzero"/><path stroke="#333333" stroke-width="1.0" stroke-linecap="butt" d="M80.5 318.5L589.5 318.5" fill-rule="nonzero"/><path stroke="#cccccc" stroke-width="1.0" stroke-linecap="butt" d="M80.5 254.5L589.5 254.5" fill-rule="nonzero"/><path stroke="#cccccc" stroke-width="1.0" stroke-linecap="butt" d="M80.5 190.5L589.5 190.5" fill-rule="nonzero"/><path stroke="#cccccc" stroke-width="1.0" stroke-linecap="butt" d="M80.5 126.5L589.5 126.5" fill-rule="nonzero"/><path stroke="#cccccc" stroke-width="1.0" stroke-linecap="butt" d="M80.5 62.5L589.5 62.5" fill-rule="nonzero"/><path stroke="#000000" stroke-width="1.0" stroke-linecap="butt" d="M80.5 318.5L80.5 62.5" fill-rule="nonzero"/><clipPath id="id_0"><path d="M80.8 62.333332L589.2 62.333332L589.2 318.2L80.8 318.2L80.8 62.333332Z" clip-rule="nonzero"/></clipPath><path stroke="#4285f4" stroke-width="2.0" stroke-linecap="butt" clip-path="url(#id_0)" d="M83.31683 318.2C83.31683 318.2 86.67261 318.19574 88.350494 318.1872C90.02838 318.17868 91.70627 318.1659 93.384155 318.14883C95.06205 318.13174 96.73994 318.11044 98.41782 318.08484C100.09571 318.05923 101.7736 318.02936 103.451485 317.99524C105.12937 317.9611 106.80726 317.92267 108.485146 317.87997C110.16303 317.83728 111.84093 317.79028 113.518814 317.739C115.1967 317.68774 116.87459 317.6322 118.552475 317.57236C120.23036 317.5125 121.90825 317.44836 123.586136 317.3799C125.26402 317.31146 126.94192 317.2387 128.6198 317.16162C130.29768 317.08456 131.97557 317.00317 133.65347 316.91745C135.33136 316.83173 137.00925 316.7417 138.68713 316.6473C140.36502 316.5529 142.04291 316.45416 143.7208 316.35107C145.39868 316.248 147.07657 316.14053 148.75446 316.02872C150.43234 315.91687 152.11023 315.8007 153.78812 315.68008C155.466 315.5595 157.14389 315.43454 158.82178 315.3051C160.49966 315.17572 162.17755 315.04193 163.85544 314.9037C165.53334 314.7654 167.21123 314.62277 168.88911 314.47562C170.567 314.3285 172.24489 314.1769 173.92278 314.02084C175.60066 313.86475 177.27855 313.70422 178.95644 313.53915C180.63432 313.37408 182.31221 313.20456 183.9901 313.03046C185.66798 312.85635 187.34587 312.67773 189.02376 312.49454C190.70164 312.31134 192.37953 312.1236 194.05742 311.93124C195.73532 311.73886 197.41321 311.54196 199.0911 311.34036C200.76898 311.1388 202.44687 310.93262 204.12476 310.72177C205.80264 310.5109 207.48053 310.2954 209.15842 310.07516C210.8363 309.85495 212.51419 309.63007 214.19208 309.4004C215.86996 309.17072 217.54785 308.93637 219.22574 308.6972C220.90363 308.458 222.58151 308.2141 224.2594 307.96533C225.93729 307.71655 227.61519 307.463 229.29308 307.20456C230.97096 306.9461 232.64885 306.6828 234.32674 306.41458C236.00462 306.14633 237.68251 305.87323 239.3604 305.59512C241.03828 305.31702 242.71617 305.034 244.39406 304.7459C246.07195 304.45782 247.74983 304.16476 249.42772 303.86658C251.1056 303.56842 252.7835 303.26523 254.46138 302.95685C256.13928 302.64847 257.81717 302.33505 259.49506 302.01636C261.17294 301.69766 262.85083 301.37387 264.52872 301.04474C266.2066 300.7156 267.8845 300.3813 269.56238 300.0416C271.24026 299.7019 272.91815 299.35693 274.59604 299.00653C276.27393 298.65613 277.9518 298.3004 279.6297 297.93915C281.3076 297.5779 282.98547 297.21127 284.66336 296.83902C286.34125 296.46674 288.01913 296.08902 289.69702 295.70563C291.3749 295.3222 293.0528 294.93326 294.73068 294.5385C296.40857 294.14377 298.08646 293.7434 299.76434 293.33716C301.44223 292.9309 303.12012 292.51895 304.79803 292.10104C306.47592 291.6831 308.1538 291.25937 309.8317 290.82956C311.50958 290.39978 313.18747 289.96408 314.86536 289.5222C316.54324 289.0803 318.22113 288.63242 319.89902 288.17825C321.5769 287.72406 323.2548 287.2638 324.93268 286.7971C326.61057 286.33038 328.28845 285.8575 329.96634 285.37805C331.64423 284.8986 333.3221 284.4128 335.0 283.92038C336.6779 283.42792 338.35577 282.92902 340.03366 282.42328C341.71155 281.91757 343.38943 281.40527 345.06732 280.88602C346.7452 280.36673 348.4231 279.84076 350.10098 279.30768C351.77887 278.77457 353.45676 278.23462 355.13464 277.68735C356.81253 277.1401 358.49042 276.58585 360.1683 276.02414C361.8462 275.4624 363.52408 274.89352 365.20197 274.317C366.87988 273.74042 368.55777 273.15656 370.23566 272.56482C371.91354 271.97308 373.59143 271.37384 375.26932 270.76654C376.9472 270.1592 378.6251 269.54422 380.30298 268.9209C381.98087 268.2976 383.65875 267.6664 385.33664 267.02667C387.01453 266.38693 388.6924 265.73907 390.3703 265.08243C392.0482 264.42578 393.72607 263.76083 395.40396 263.0868C397.08185 262.41272 398.75974 261.73013 400.43762 261.03815C402.1155 260.34616 403.7934 259.64536 405.47128 258.93484C407.14917 258.22437 408.82706 257.5048 410.50494 256.77518C412.18283 256.04556 413.86072 255.30655 415.5386 254.55716C417.2165 253.80777 418.89438 253.04868 420.57227 252.2788C422.25015 251.50891 423.92804 250.729 425.60593 249.93787C427.2838 249.14674 428.96173 248.34521 430.63962 247.53203C432.3175 246.71883 433.9954 245.89484 435.67328 245.05869C437.35117 244.22252 439.02905 243.37515 440.70694 242.51508C442.38483 241.65498 444.0627 240.78323 445.7406 239.89816C447.4185 239.01309 449.09637 238.11588 450.77426 237.20468C452.45215 236.29349 454.13004 235.36958 455.80792 234.43102C457.4858 233.49243 459.1637 232.54056 460.84158 231.57323C462.51947 230.60588 464.19736 229.6246 465.87524 228.62698C467.55313 227.62936 469.23102 226.61708 470.9089 225.5875C472.5868 224.5579 474.26468 223.51288 475.94257 222.44945C477.62045 221.38603 479.29834 220.30629 480.97623 219.20694C482.6541 218.10759 484.332 216.99095 486.0099 215.85333C487.68777 214.71571 489.36566 213.55974 491.04358 212.3812C492.72147 211.20265 494.39935 210.00455 496.07724 208.78207C497.75513 207.55962 499.433 206.31622 501.1109 205.04639C502.7888 203.77657 504.46667 202.48427 506.14456 201.1631C507.82245 199.84195 509.50034 198.49655 511.17822 197.11946C512.8561 195.74237 514.534 194.339 516.21185 192.90057C517.8898 191.46213 519.5676 189.99506 521.24554 188.48883C522.92346 186.98262 524.6013 185.445 526.27924 183.86327C527.9571 182.28154 529.635 180.66515 531.31287 178.99843C532.9908 177.33173 534.66864 175.62646 536.34656 173.86302C538.0244 172.09958 539.70233 170.29291 541.3802 168.41777C543.0581 166.54262 544.73596 164.61855 546.4139 162.61218C548.09174 160.6058 549.76965 158.5435 551.4475 156.37956C553.1254 154.21562 554.8033 151.98715 556.4812 149.6285C558.15906 147.26985 559.837 144.83643 561.51483 142.22768C563.19275 139.61893 564.8706 136.92465 566.5485 133.976C568.2264 131.02734 569.9043 127.99008 571.58215 124.535774C573.2601 121.081474 574.9379 117.601494 576.61584 113.25016C578.2937 108.89882 579.9716 106.9139 581.6495 98.427765C583.3274 89.94163 586.68317 62.333332 586.68317 62.333332" fill-rule="nonzero"/><path fill="#000000" fill-opacity="0.0" clip-path="url(#id_0)" d="M86.31683 318.2C86.31683 319.85684 84.97369 321.2 83.31683 321.2C81.65998 321.2 80.31683 319.85684 80.31683 318.2C80.31683 316.54315 81.65998 315.2 83.31683 315.2C84.97369 315.2 86.31683 316.54315 86.31683 318.2Z" fill-rule="nonzero"/><path fill="#000000" fill-opacity="0.0" clip-path="url(#id_0)" d="M91.350494 318.1872C91.350494 319.84406 90.00735 321.1872 88.350494 321.1872C86.69364 321.1872 85.350494 319.84406 85.350494 318.1872C85.350494 316.53036 86.69364 315.1872 88.350494 315.1872C90.00735 315.1872 91.350494 316.53036 91.350494 318.1872Z" fill-rule="nonzero"/><path fill="#000000" fill-opacity="0.0" clip-path="url(#id_0)" d="M96.384155 318.14883C96.384155 319.80566 95.041016 321.14883 93.384155 321.14883C91.7273 321.14883 90.384155 319.80566 90.384155 318.14883C90.384155 316.49197 91.7273 315.14883 93.384155 315.14883C95.041016 315.14883 96.384155 316.49197 96.384155 318.14883Z" fill-rule="nonzero"/><path fill="#000000" fill-opacity="0.0" clip-path="url(#id_0)" d="M101.41782 318.08484C101.41782 319.7417 100.07468 321.08484 98.41782 321.08484C96.76097 321.08484 95.41782 319.7417 95.41782 318.08484C95.41782 316.42798 96.76097 315.08484 98.41782 315.08484C100.07468 315.08484 101.41782 316.42798 101.41782 318.08484Z" fill-rule="nonzero"/><path fill="#000000" fill-opacity="0.0" clip-path="url(#id_0)" d="M106.451485 317.99524C106.451485 319.65207 105.10834 320.99524 103.451485 320.99524C101.79463 320.99524 100.451485 319.65207 100.451485 317.99524C100.451485 316.33838 101.79463 314.99524 103.451485 314.99524C105.10834 314.99524 106.451485 316.33838 106.451485 317.99524Z" fill-rule="nonzero"/><path fill="#000000" fill-opacity="0.0" clip-path="url(#id_0)" d="M111.485146 317.87997C111.485146 319.53683 110.142006 320.87997 108.485146 320.87997C106.82829 320.87997 105.485146 319.53683 105.485146 317.87997C105.485146 316.2231 106.82829 314.87997 108.485146 314.87997C110.142006 314.87997 111.485146 316.2231 111.485146 317.87997Z" fill-rule="nonzero"/><path fill="#000000" fill-opacity="0.0" clip-path="url(#id_0)" d="M116.518814 317.739C116.518814 319.39587 115.17567 320.739 113.518814 320.739C111.86196 320.739 110.518814 319.39587 110.518814 317.739C110.518814 316.08218 111.86196 314.739 113.518814 314.739C115.17567 314.739 116.518814 316.08218 116.518814 317.739Z" fill-rule="nonzero"/><path fill="#000000" fill-opacity="0.0" clip-path="url(#id_0)" d="M121.552475 317.57236C121.552475 319.22922 120.20933 320.57236 118.552475 320.57236C116.89562 320.57236 115.552475 319.22922 115.552475 317.57236C115.552475 315.9155 116.89562 314.57236 118.552475 314.57236C120.20933 314.57236 121.552475 315.9155 121.552475 317.57236Z" fill-rule="nonzero"/><path fill="#000000" fill-opacity="0.0" clip-path="url(#id_0)" d="M126.586136 317.3799C126.586136 319.03677 125.243 320.3799 123.586136 320.3799C121.92928 320.3799 120.586136 319.03677 120.586136 317.3799C120.586136 315.72305 121.92928 314.3799 123.586136 314.3799C125.243 314.3799 126.586136 315.72305 126.586136 317.3799Z" fill-rule="nonzero"/><path fill="#000000" fill-opacity="0.0" clip-path="url(#id_0)" d="M131.6198 317.16162C131.6198 318.81848 130.27666 320.16162 128.6198 320.16162C126.962944 320.16162 125.619804 318.81848 125.619804 317.16162C125.619804 315.5048 126.962944 314.16162 128.6198 314.16162C130.27666 314.16162 131.6198 315.5048 131.6198 317.16162Z" fill-rule="nonzero"/><path fill="#000000" fill-opacity="0.0" clip-path="url(#id_0)" d="M136.65347 316.91745C136.65347 318.5743 135.31032 319.91745 133.65347 319.91745C131.99661 319.91745 130.65347 318.5743 130.65347 316.91745C130.65347 315.2606 131.99661 313.91745 133.65347 313.91745C135.31032 313.91745 136.65347 315.2606 136.65347 316.91745Z" fill-rule="nonzero"/><path fill="#000000" fill-opacity="0.0" clip-path="url(#id_0)" d="M141.68713 316.6473C141.68713 318.30414 140.34398 319.6473 138.68713 319.6473C137.03027 319.6473 135.68713 318.30414 135.68713 316.6473C135.68713 314.99045 137.03027 313.6473 138.68713 313.6473C140.34398 313.6473 141.68713 314.99045 141.68713 316.6473Z" fill-rule="nonzero"/><path fill="#000000" fill-opacity="0.0" clip-path="url(#id_0)" d="M146.7208 316.35107C146.7208 318.00793 145.37764 319.35107 143.7208 319.35107C142.06393 319.35107 140.7208 318.00793 140.7208 316.35107C140.7208 314.6942 142.06393 313.35107 143.7208 313.35107C145.37764 313.35107 146.7208 314.6942 146.7208 316.35107Z" fill-rule="nonzero"/><path fill="#000000" fill-opacity="0.0" clip-path="url(#id_0)" d="M151.75446 316.02872C151.75446 317.68558 150.41132 319.02872 148.75446 319.02872C147.0976 319.02872 145.75446 317.68558 145.75446 316.02872C145.75446 314.37186 147.0976 313.02872 148.75446 313.02872C150.41132 313.02872 151.75446 314.37186 151.75446 316.02872Z" fill-rule="nonzero"/><path fill="#000000" fill-opacity="0.0" clip-path="url(#id_0)" d="M156.78812 315.68008C156.78812 317.33694 155.44498 318.68008 153.78812 318.68008C152.13127 318.68008 150.78812 317.33694 150.78812 315.68008C150.78812 314.02325 152.13127 312.68008 153.78812 312.68008C155.44498 312.68008 156.78812 314.02325 156.78812 315.68008Z" fill-rule="nonzero"/><path fill="#000000" fill-opacity="0.0" clip-path="url(#id_0)" d="M161.82178 315.3051C161.82178 316.96198 160.47864 318.3051 158.82178 318.3051C157.16493 318.3051 155.82178 316.96198 155.82178 315.3051C155.82178 313.64825 157.16493 312.3051 158.82178 312.3051C160.47864 312.3051 161.82178 313.64825 161.82178 315.3051Z" fill-rule="nonzero"/><path fill="#000000" fill-opacity="0.0" clip-path="url(#id_0)" d="M166.85544 314.9037C166.85544 316.56052 165.5123 317.9037 163.85544 317.9037C162.1986 317.9037 160.85544 316.56052 160.85544 314.9037C160.85544 313.24683 162.1986 311.9037 163.85544 311.9037C165.5123 311.9037 166.85544 313.24683 166.85544 314.9037Z" fill-rule="nonzero"/><path fill="#000000" fill-opacity="0.0" clip-path="url(#id_0)" d="M171.88911 314.47562C171.88911 316.13248 170.54596 317.47562 168.88911 317.47562C167.23225 317.47562 165.88911 316.13248 165.88911 314.47562C165.88911 312.81876 167.23225 311.47562 168.88911 311.47562C170.54596 311.47562 171.88911 312.81876 171.88911 314.47562Z" fill-rule="nonzero"/><path fill="#000000" fill-opacity="0.0" clip-path="url(#id_0)" d="M176.92278 314.02084C176.92278 315.67767 175.57962 317.02084 173.92278 317.02084C172.26591 317.02084 170.92278 315.67767 170.92278 314.02084C170.92278 312.36398 172.26591 311.02084 173.92278 311.02084C175.57962 311.02084 176.92278 312.36398 176.92278 314.02084Z" fill-rule="nonzero"/><path fill="#000000" fill-opacity="0.0" clip-path="url(#id_0)" d="M181.95644 313.53915C181.95644 315.196 180.6133 316.53915 178.95644 316.53915C177.29958 316.53915 175.95644 315.196 175.95644 313.53915C175.95644 311.8823 177.29958 310.53915 178.95644 310.53915C180.6133 310.53915 181.95644 311.8823 181.95644 313.53915Z" fill-rule="nonzero"/><path fill="#000000" fill-opacity="0.0" clip-path="url(#id_0)" d="M186.9901 313.03046C186.9901 314.6873 185.64696 316.03046 183.9901 316.03046C182.33325 316.03046 180.9901 314.6873 180.9901 313.03046C180.9901 311.3736 182.33325 310.03046 183.9901 310.03046C185.64696 310.03046 186.9901 311.3736 186.9901 313.03046Z" fill-rule="nonzero"/><path fill="#000000" fill-opacity="0.0" clip-path="url(#id_0)" d="M192.02376 312.49454C192.02376 314.15137 190.68062 315.49454 189.02376 315.49454C187.36691 315.49454 186.02376 314.15137 186.02376 312.49454C186.02376 310.83768 187.36691 309.49454 189.02376 309.49454C190.68062 309.49454 192.02376 310.83768 192.02376 312.49454Z" fill-rule="nonzero"/><path fill="#000000" fill-opacity="0.0" clip-path="url(#id_0)" d="M197.05742 311.93124C197.05742 313.58807 195.71428 314.93124 194.05742 314.93124C192.40057 314.93124 191.05742 313.58807 191.05742 311.93124C191.05742 310.27438 192.40057 308.93124 194.05742 308.93124C195.71428 308.93124 197.05742 310.27438 197.05742 311.93124Z" fill-rule="nonzero"/><path fill="#000000" fill-opacity="0.0" clip-path="url(#id_0)" d="M202.0911 311.34036C202.0911 312.99722 200.74794 314.34036 199.0911 314.34036C197.43423 314.34036 196.0911 312.99722 196.0911 311.34036C196.0911 309.68353 197.43423 308.34036 199.0911 308.34036C200.74794 308.34036 202.0911 309.68353 202.0911 311.34036Z" fill-rule="nonzero"/><path fill="#000000" fill-opacity="0.0" clip-path="url(#id_0)" d="M207.12476 310.72177C207.12476 312.3786 205.7816 313.72177 204.12476 313.72177C202.4679 313.72177 201.12476 312.3786 201.12476 310.72177C201.12476 309.0649 202.4679 307.72177 204.12476 307.72177C205.7816 307.72177 207.12476 309.0649 207.12476 310.72177Z" fill-rule="nonzero"/><path fill="#000000" fill-opacity="0.0" clip-path="url(#id_0)" d="M212.15842 310.07516C212.15842 311.73203 210.81528 313.07516 209.15842 313.07516C207.50156 313.07516 206.15842 311.73203 206.15842 310.07516C206.15842 308.4183 207.50156 307.07516 209.15842 307.07516C210.81528 307.07516 212.15842 308.4183 212.15842 310.07516Z" fill-rule="nonzero"/><path fill="#000000" fill-opacity="0.0" clip-path="url(#id_0)" d="M217.19208 309.4004C217.19208 311.05725 215.84894 312.4004 214.19208 312.4004C212.53523 312.4004 211.19208 311.05725 211.19208 309.4004C211.19208 307.74353 212.53523 306.4004 214.19208 306.4004C215.84894 306.4004 217.19208 307.74353 217.19208 309.4004Z" fill-rule="nonzero"/><path fill="#000000" fill-opacity="0.0" clip-path="url(#id_0)" d="M222.22574 308.6972C222.22574 310.35403 220.8826 311.6972 219.22574 311.6972C217.5689 311.6972 216.22574 310.35403 216.22574 308.6972C216.22574 307.04034 217.5689 305.6972 219.22574 305.6972C220.8826 305.6972 222.22574 307.04034 222.22574 308.6972Z" fill-rule="nonzero"/><path fill="#000000" fill-opacity="0.0" clip-path="url(#id_0)" d="M227.2594 307.96533C227.2594 309.6222 225.91626 310.96533 224.2594 310.96533C222.60255 310.96533 221.2594 309.6222 221.2594 307.96533C221.2594 306.30847 222.60255 304.96533 224.2594 304.96533C225.91626 304.96533 227.2594 306.30847 227.2594 307.96533Z" fill-rule="nonzero"/><path fill="#000000" fill-opacity="0.0" clip-path="url(#id_0)" d="M232.29308 307.20456C232.29308 308.86142 230.94992 310.20456 229.29308 310.20456C227.63622 310.20456 226.29308 308.86142 226.29308 307.20456C226.29308 305.5477 227.63622 304.20456 229.29308 304.20456C230.94992 304.20456 232.29308 305.5477 232.29308 307.20456Z" fill-rule="nonzero"/><path fill="#000000" fill-opacity="0.0" clip-path="url(#id_0)" d="M237.32674 306.41458C237.32674 308.07144 235.98358 309.41458 234.32674 309.41458C232.66988 309.41458 231.32674 308.07144 231.32674 306.41458C231.32674 304.75772 232.66988 303.41458 234.32674 303.41458C235.98358 303.41458 237.32674 304.75772 237.32674 306.41458Z" fill-rule="nonzero"/><path fill="#000000" fill-opacity="0.0" clip-path="url(#id_0)" d="M242.3604 305.59512C242.3604 307.25198 241.01726 308.59512 239.3604 308.59512C237.70354 308.59512 236.3604 307.25198 236.3604 305.59512C236.3604 303.93826 237.70354 302.59512 239.3604 302.59512C241.01726 302.59512 242.3604 303.93826 242.3604 305.59512Z" fill-rule="nonzero"/><path fill="#000000" fill-opacity="0.0" clip-path="url(#id_0)" d="M247.39406 304.7459C247.39406 306.40277 246.05092 307.7459 244.39406 307.7459C242.7372 307.7459 241.39406 306.40277 241.39406 304.7459C241.39406 303.08905 242.7372 301.7459 244.39406 301.7459C246.05092 301.7459 247.39406 303.08905 247.39406 304.7459Z" fill-rule="nonzero"/><path fill="#000000" fill-opacity="0.0" clip-path="url(#id_0)" d="M252.42772 303.86658C252.42772 305.52344 251.08458 306.86658 249.42772 306.86658C247.77087 306.86658 246.42772 305.52344 246.42772 303.86658C246.42772 302.20975 247.77087 300.86658 249.42772 300.86658C251.08458 300.86658 252.42772 302.20975 252.42772 303.86658Z" fill-rule="nonzero"/><path fill="#000000" fill-opacity="0.0" clip-path="url(#id_0)" d="M257.4614 302.95685C257.4614 304.6137 256.11826 305.95685 254.46138 305.95685C252.80453 305.95685 251.46138 304.6137 251.46138 302.95685C251.46138 301.3 252.80453 299.95685 254.46138 299.95685C256.11826 299.95685 257.4614 301.3 257.4614 302.95685Z" fill-rule="nonzero"/><path fill="#000000" fill-opacity="0.0" clip-path="url(#id_0)" d="M262.49506 302.01636C262.49506 303.67322 261.15192 305.01636 259.49506 305.01636C257.8382 305.01636 256.49506 303.67322 256.49506 302.01636C256.49506 300.3595 257.8382 299.01636 259.49506 299.01636C261.15192 299.01636 262.49506 300.3595 262.49506 302.01636Z" fill-rule="nonzero"/><path fill="#000000" fill-opacity="0.0" clip-path="url(#id_0)" d="M267.52872 301.04474C267.52872 302.70157 266.18558 304.04474 264.52872 304.04474C262.87186 304.04474 261.52872 302.70157 261.52872 301.04474C261.52872 299.38788 262.87186 298.04474 264.52872 298.04474C266.18558 298.04474 267.52872 299.38788 267.52872 301.04474Z" fill-rule="nonzero"/><path fill="#000000" fill-opacity="0.0" clip-path="url(#id_0)" d="M272.56238 300.0416C272.56238 301.69846 271.21924 303.0416 269.56238 303.0416C267.90552 303.0416 266.56238 301.69846 266.56238 300.0416C266.56238 298.38474 267.90552 297.0416 269.56238 297.0416C271.21924 297.0416 272.56238 298.38474 272.56238 300.0416Z" fill-rule="nonzero"/><path fill="#000000" fill-opacity="0.0" clip-path="url(#id_0)" d="M277.59604 299.00653C277.59604 300.6634 276.2529 302.00653 274.59604 302.00653C272.93918 302.00653 271.59604 300.6634 271.59604 299.00653C271.59604 297.3497 272.93918 296.00653 274.59604 296.00653C276.2529 296.00653 277.59604 297.3497 277.59604 299.00653Z" fill-rule="nonzero"/><path fill="#000000" fill-opacity="0.0" clip-path="url(#id_0)" d="M282.6297 297.93915C282.6297 299.596 281.28656 300.93915 279.6297 300.93915C277.97284 300.93915 276.6297 299.596 276.6297 297.93915C276.6297 296.28232 277.97284 294.93915 279.6297 294.93915C281.28656 294.93915 282.6297 296.28232 282.6297 297.93915Z" fill-rule="nonzero"/><path fill="#000000" fill-opacity="0.0" clip-path="url(#id_0)" d="M287.66336 296.83902C287.66336 298.49585 286.32022 299.83902 284.66336 299.83902C283.0065 299.83902 281.66336 298.49585 281.66336 296.83902C281.66336 295.18216 283.0065 293.83902 284.66336 293.83902C286.32022 293.83902 287.66336 295.18216 287.66336 296.83902Z" fill-rule="nonzero"/><path fill="#000000" fill-opacity="0.0" clip-path="url(#id_0)" d="M292.69702 295.70563C292.69702 297.36246 291.35388 298.70563 289.69702 298.70563C288.04016 298.70563 286.69702 297.36246 286.69702 295.70563C286.69702 294.04877 288.04016 292.70563 289.69702 292.70563C291.35388 292.70563 292.69702 294.04877 292.69702 295.70563Z" fill-rule="nonzero"/><path fill="#000000" fill-opacity="0.0" clip-path="url(#id_0)" d="M297.73068 294.5385C297.73068 296.19534 296.38754 297.5385 294.73068 297.5385C293.07385 297.5385 291.73068 296.19534 291.73068 294.5385C291.73068 292.88165 293.07385 291.5385 294.73068 291.5385C296.38754 291.5385 297.73068 292.88165 297.73068 294.5385Z" fill-rule="nonzero"/><path fill="#000000" fill-opacity="0.0" clip-path="url(#id_0)" d="M302.76434 293.33716C302.76434 294.99402 301.4212 296.33716 299.76434 296.33716C298.1075 296.33716 296.76434 294.99402 296.76434 293.33716C296.76434 291.6803 298.1075 290.33716 299.76434 290.33716C301.4212 290.33716 302.76434 291.6803 302.76434 293.33716Z" fill-rule="nonzero"/><path fill="#000000" fill-opacity="0.0" clip-path="url(#id_0)" d="M307.79803 292.10104C307.79803 293.75787 306.45486 295.10104 304.79803 295.10104C303.14117 295.10104 301.79803 293.75787 301.79803 292.10104C301.79803 290.44418 303.14117 289.10104 304.79803 289.10104C306.45486 289.10104 307.79803 290.44418 307.79803 292.10104Z" fill-rule="nonzero"/><path fill="#000000" fill-opacity="0.0" clip-path="url(#id_0)" d="M312.8317 290.82956C312.8317 292.48642 311.48853 293.82956 309.8317 293.82956C308.17484 293.82956 306.8317 292.48642 306.8317 290.82956C306.8317 289.17273 308.17484 287.82956 309.8317 287.82956C311.48853 287.82956 312.8317 289.17273 312.8317 290.82956Z" fill-rule="nonzero"/><path fill="#000000" fill-opacity="0.0" clip-path="url(#id_0)" d="M317.86536 289.5222C317.86536 291.17905 316.5222 292.5222 314.86536 292.5222C313.2085 292.5222 311.86536 291.17905 311.86536 289.5222C311.86536 287.86533 313.2085 286.5222 314.86536 286.5222C316.5222 286.5222 317.86536 287.86533 317.86536 289.5222Z" fill-rule="nonzero"/><path fill="#000000" fill-opacity="0.0" clip-path="url(#id_0)" d="M322.89902 288.17825C322.89902 289.8351 321.55588 291.17825 319.89902 291.17825C318.24216 291.17825 316.89902 289.8351 316.89902 288.17825C316.89902 286.5214 318.24216 285.17825 319.89902 285.17825C321.55588 285.17825 322.89902 286.5214 322.89902 288.17825Z" fill-rule="nonzero"/><path fill="#000000" fill-opacity="0.0" clip-path="url(#id_0)" d="M327.93268 286.7971C327.93268 288.45395 326.58954 289.7971 324.93268 289.7971C323.27582 289.7971 321.93268 288.45395 321.93268 286.7971C321.93268 285.14023 323.27582 283.7971 324.93268 283.7971C326.58954 283.7971 327.93268 285.14023 327.93268 286.7971Z" fill-rule="nonzero"/><path fill="#000000" fill-opacity="0.0" clip-path="url(#id_0)" d="M332.96634 285.37805C332.96634 287.0349 331.6232 288.37805 329.96634 288.37805C328.30948 288.37805 326.96634 287.0349 326.96634 285.37805C326.96634 283.7212 328.30948 282.37805 329.96634 282.37805C331.6232 282.37805 332.96634 283.7212 332.96634 285.37805Z" fill-rule="nonzero"/><path fill="#000000" fill-opacity="0.0" clip-path="url(#id_0)" d="M338.0 283.92038C338.0 285.5772 336.65686 286.92038 335.0 286.92038C333.34314 286.92038 332.0 285.5772 332.0 283.92038C332.0 282.26352 333.34314 280.92038 335.0 280.92038C336.65686 280.92038 338.0 282.26352 338.0 283.92038Z" fill-rule="nonzero"/><path fill="#000000" fill-opacity="0.0" clip-path="url(#id_0)" d="M343.03366 282.42328C343.03366 284.08014 341.69052 285.42328 340.03366 285.42328C338.3768 285.42328 337.03366 284.08014 337.03366 282.42328C337.03366 280.76645 338.3768 279.42328 340.03366 279.42328C341.69052 279.42328 343.03366 280.76645 343.03366 282.42328Z" fill-rule="nonzero"/><path fill="#000000" fill-opacity="0.0" clip-path="url(#id_0)" d="M348.06732 280.88602C348.06732 282.54285 346.72418 283.88602 345.06732 283.88602C343.41046 283.88602 342.06732 282.54285 342.06732 280.88602C342.06732 279.22916 343.41046 277.88602 345.06732 277.88602C346.72418 277.88602 348.06732 279.22916 348.06732 280.88602Z" fill-rule="nonzero"/><path fill="#000000" fill-opacity="0.0" clip-path="url(#id_0)" d="M353.10098 279.30768C353.10098 280.9645 351.75784 282.30768 350.10098 282.30768C348.44412 282.30768 347.10098 280.9645 347.10098 279.30768C347.10098 277.65082 348.44412 276.30768 350.10098 276.30768C351.75784 276.30768 353.10098 277.65082 353.10098 279.30768Z" fill-rule="nonzero"/><path fill="#000000" fill-opacity="0.0" clip-path="url(#id_0)" d="M358.13464 277.68735C358.13464 279.3442 356.7915 280.68735 355.13464 280.68735C353.4778 280.68735 352.13464 279.3442 352.13464 277.68735C352.13464 276.0305 353.4778 274.68735 355.13464 274.68735C356.7915 274.68735 358.13464 276.0305 358.13464 277.68735Z" fill-rule="nonzero"/><path fill="#000000" fill-opacity="0.0" clip-path="url(#id_0)" d="M363.1683 276.02414C363.1683 277.68097 361.82516 279.02414 360.1683 279.02414C358.51147 279.02414 357.1683 277.68097 357.1683 276.02414C357.1683 274.36728 358.51147 273.02414 360.1683 273.02414C361.82516 273.02414 363.1683 274.36728 363.1683 276.02414Z" fill-rule="nonzero"/><path fill="#000000" fill-opacity="0.0" clip-path="url(#id_0)" d="M368.20197 274.317C368.20197 275.97382 366.85883 277.317 365.20197 277.317C363.54514 277.317 362.20197 275.97382 362.20197 274.317C362.20197 272.66013 363.54514 271.317 365.20197 271.317C366.85883 271.317 368.20197 272.66013 368.20197 274.317Z" fill-rule="nonzero"/><path fill="#000000" fill-opacity="0.0" clip-path="url(#id_0)" d="M373.23566 272.56482C373.23566 274.22168 371.8925 275.56482 370.23566 275.56482C368.5788 275.56482 367.23566 274.22168 367.23566 272.56482C367.23566 270.90796 368.5788 269.56482 370.23566 269.56482C371.8925 269.56482 373.23566 270.90796 373.23566 272.56482Z" fill-rule="nonzero"/><path fill="#000000" fill-opacity="0.0" clip-path="url(#id_0)" d="M378.26932 270.76654C378.26932 272.4234 376.92615 273.76654 375.26932 273.76654C373.61246 273.76654 372.26932 272.4234 372.26932 270.76654C372.26932 269.10968 373.61246 267.76654 375.26932 267.76654C376.92615 267.76654 378.26932 269.10968 378.26932 270.76654Z" fill-rule="nonzero"/><path fill="#000000" fill-opacity="0.0" clip-path="url(#id_0)" d="M383.30298 268.9209C383.30298 270.57776 381.95984 271.9209 380.30298 271.9209C378.64612 271.9209 377.30298 270.57776 377.30298 268.9209C377.30298 267.26407 378.64612 265.9209 380.30298 265.9209C381.95984 265.9209 383.30298 267.26407 383.30298 268.9209Z" fill-rule="nonzero"/><path fill="#000000" fill-opacity="0.0" clip-path="url(#id_0)" d="M388.33664 267.02667C388.33664 268.68353 386.9935 270.02667 385.33664 270.02667C383.67978 270.02667 382.33664 268.68353 382.33664 267.02667C382.33664 265.3698 383.67978 264.02667 385.33664 264.02667C386.9935 264.02667 388.33664 265.3698 388.33664 267.02667Z" fill-rule="nonzero"/><path fill="#000000" fill-opacity="0.0" clip-path="url(#id_0)" d="M393.3703 265.08243C393.3703 266.7393 392.02716 268.08243 390.3703 268.08243C388.71344 268.08243 387.3703 266.7393 387.3703 265.08243C387.3703 263.4256 388.71344 262.08243 390.3703 262.08243C392.02716 262.08243 393.3703 263.4256 393.3703 265.08243Z" fill-rule="nonzero"/><path fill="#000000" fill-opacity="0.0" clip-path="url(#id_0)" d="M398.40396 263.0868C398.40396 264.74365 397.06082 266.0868 395.40396 266.0868C393.7471 266.0868 392.40396 264.74365 392.40396 263.0868C392.40396 261.42993 393.7471 260.0868 395.40396 260.0868C397.06082 260.0868 398.40396 261.42993 398.40396 263.0868Z" fill-rule="nonzero"/><path fill="#000000" fill-opacity="0.0" clip-path="url(#id_0)" d="M403.43762 261.03815C403.43762 262.695 402.09448 264.03815 400.43762 264.03815C398.78076 264.03815 397.43762 262.695 397.43762 261.03815C397.43762 259.3813 398.78076 258.03815 400.43762 258.03815C402.09448 258.03815 403.43762 259.3813 403.43762 261.03815Z" fill-rule="nonzero"/><path fill="#000000" fill-opacity="0.0" clip-path="url(#id_0)" d="M408.47128 258.93484C408.47128 260.5917 407.12814 261.93484 405.47128 261.93484C403.81442 261.93484 402.47128 260.5917 402.47128 258.93484C402.47128 257.278 403.81442 255.93486 405.47128 255.93486C407.12814 255.93486 408.47128 257.278 408.47128 258.93484Z" fill-rule="nonzero"/><path fill="#000000" fill-opacity="0.0" clip-path="url(#id_0)" d="M413.50494 256.77518C413.50494 258.432 412.1618 259.77518 410.50494 259.77518C408.84808 259.77518 407.50494 258.432 407.50494 256.77518C407.50494 255.11832 408.84808 253.77516 410.50494 253.77516C412.1618 253.77516 413.50494 255.11832 413.50494 256.77518Z" fill-rule="nonzero"/><path fill="#000000" fill-opacity="0.0" clip-path="url(#id_0)" d="M418.5386 254.55716C418.5386 256.21402 417.19547 257.55716 415.5386 257.55716C413.88174 257.55716 412.5386 256.21402 412.5386 254.55716C412.5386 252.9003 413.88174 251.55716 415.5386 251.55716C417.19547 251.55716 418.5386 252.9003 418.5386 254.55716Z" fill-rule="nonzero"/><path fill="#000000" fill-opacity="0.0" clip-path="url(#id_0)" d="M423.57227 252.2788C423.57227 253.93565 422.22913 255.2788 420.57227 255.2788C418.91544 255.2788 417.57227 253.93565 417.57227 252.2788C417.57227 250.62193 418.91544 249.2788 420.57227 249.2788C422.22913 249.2788 423.57227 250.62193 423.57227 252.2788Z" fill-rule="nonzero"/><path fill="#000000" fill-opacity="0.0" clip-path="url(#id_0)" d="M428.60593 249.93787C428.60593 251.59473 427.2628 252.93787 425.60593 252.93787C423.9491 252.93787 422.60593 251.59473 422.60593 249.93787C422.60593 248.28102 423.9491 246.93787 425.60593 246.93787C427.2628 246.93787 428.60593 248.28102 428.60593 249.93787Z" fill-rule="nonzero"/><path fill="#000000" fill-opacity="0.0" clip-path="url(#id_0)" d="M433.63962 247.53203C433.63962 249.18887 432.29645 250.53203 430.63962 250.53203C428.98276 250.53203 427.63962 249.18887 427.63962 247.53203C427.63962 245.87517 428.98276 244.53203 430.63962 244.53203C432.29645 244.53203 433.63962 245.87517 433.63962 247.53203Z" fill-rule="nonzero"/><path fill="#000000" fill-opacity="0.0" clip-path="url(#id_0)" d="M438.67328 245.05869C438.67328 246.71553 437.3301 248.05869 435.67328 248.05869C434.01642 248.05869 432.67328 246.71553 432.67328 245.05869C432.67328 243.40182 434.01642 242.05869 435.67328 242.05869C437.3301 242.05869 438.67328 243.40182 438.67328 245.05869Z" fill-rule="nonzero"/><path fill="#000000" fill-opacity="0.0" clip-path="url(#id_0)" d="M443.70694 242.51508C443.70694 244.17192 442.3638 245.51508 440.70694 245.51508C439.05008 245.51508 437.70694 244.17192 437.70694 242.51508C437.70694 240.85822 439.05008 239.51508 440.70694 239.51508C442.3638 239.51508 443.70694 240.85822 443.70694 242.51508Z" fill-rule="nonzero"/><path fill="#000000" fill-opacity="0.0" clip-path="url(#id_0)" d="M448.7406 239.89816C448.7406 241.55502 447.39746 242.89816 445.7406 242.89816C444.08374 242.89816 442.7406 241.55502 442.7406 239.89816C442.7406 238.2413 444.08374 236.89816 445.7406 236.89816C447.39746 236.89816 448.7406 238.2413 448.7406 239.89816Z" fill-rule="nonzero"/><path fill="#000000" fill-opacity="0.0" clip-path="url(#id_0)" d="M453.77426 237.20468C453.77426 238.86153 452.43112 240.20468 450.77426 240.20468C449.1174 240.20468 447.77426 238.86153 447.77426 237.20468C447.77426 235.54782 449.1174 234.20468 450.77426 234.20468C452.43112 234.20468 453.77426 235.54782 453.77426 237.20468Z" fill-rule="nonzero"/><path fill="#000000" fill-opacity="0.0" clip-path="url(#id_0)" d="M458.80792 234.43102C458.80792 236.08786 457.46478 237.43102 455.80792 237.43102C454.15106 237.43102 452.80792 236.08786 452.80792 234.43102C452.80792 232.77415 454.15106 231.43102 455.80792 231.43102C457.46478 231.43102 458.80792 232.77415 458.80792 234.43102Z" fill-rule="nonzero"/><path fill="#000000" fill-opacity="0.0" clip-path="url(#id_0)" d="M463.84158 231.57323C463.84158 233.23009 462.49844 234.57323 460.84158 234.57323C459.18472 234.57323 457.84158 233.23009 457.84158 231.57323C457.84158 229.91637 459.18472 228.57323 460.84158 228.57323C462.49844 228.57323 463.84158 229.91637 463.84158 231.57323Z" fill-rule="nonzero"/><path fill="#000000" fill-opacity="0.0" clip-path="url(#id_0)" d="M468.87524 228.62698C468.87524 230.28384 467.5321 231.62698 465.87524 231.62698C464.21838 231.62698 462.87524 230.28384 462.87524 228.62698C462.87524 226.97012 464.21838 225.62698 465.87524 225.62698C467.5321 225.62698 468.87524 226.97012 468.87524 228.62698Z" fill-rule="nonzero"/><path fill="#000000" fill-opacity="0.0" clip-path="url(#id_0)" d="M473.9089 225.5875C473.9089 227.24435 472.56577 228.5875 470.9089 228.5875C469.25204 228.5875 467.9089 227.24435 467.9089 225.5875C467.9089 223.93065 469.25204 222.5875 470.9089 222.5875C472.56577 222.5875 473.9089 223.93065 473.9089 225.5875Z" fill-rule="nonzero"/><path fill="#000000" fill-opacity="0.0" clip-path="url(#id_0)" d="M478.94257 222.44945C478.94257 224.10631 477.59943 225.44945 475.94257 225.44945C474.2857 225.44945 472.94257 224.10631 472.94257 222.44945C472.94257 220.7926 474.2857 219.44945 475.94257 219.44945C477.59943 219.44945 478.94257 220.7926 478.94257 222.44945Z" fill-rule="nonzero"/><path fill="#000000" fill-opacity="0.0" clip-path="url(#id_0)" d="M483.97623 219.20694C483.97623 220.86378 482.6331 222.20694 480.97623 222.20694C479.3194 222.20694 477.97623 220.86378 477.97623 219.20694C477.97623 217.55008 479.3194 216.20694 480.97623 216.20694C482.6331 216.20694 483.97623 217.55008 483.97623 219.20694Z" fill-rule="nonzero"/><path fill="#000000" fill-opacity="0.0" clip-path="url(#id_0)" d="M489.0099 215.85333C489.0099 217.5102 487.66675 218.85333 486.0099 218.85333C484.35306 218.85333 483.0099 217.5102 483.0099 215.85333C483.0099 214.19647 484.35306 212.85333 486.0099 212.85333C487.66675 212.85333 489.0099 214.19647 489.0099 215.85333Z" fill-rule="nonzero"/><path fill="#000000" fill-opacity="0.0" clip-path="url(#id_0)" d="M494.04358 212.3812C494.04358 214.03804 492.7004 215.3812 491.04358 215.3812C489.38672 215.3812 488.04358 214.03804 488.04358 212.3812C488.04358 210.72433 489.38672 209.3812 491.04358 209.3812C492.7004 209.3812 494.04358 210.72433 494.04358 212.3812Z" fill-rule="nonzero"/><path fill="#000000" fill-opacity="0.0" clip-path="url(#id_0)" d="M499.07724 208.78207C499.07724 210.43893 497.73407 211.78207 496.07724 211.78207C494.42038 211.78207 493.07724 210.43893 493.07724 208.78207C493.07724 207.12523 494.42038 205.78207 496.07724 205.78207C497.73407 205.78207 499.07724 207.12523 499.07724 208.78207Z" fill-rule="nonzero"/><path fill="#000000" fill-opacity="0.0" clip-path="url(#id_0)" d="M504.1109 205.04639C504.1109 206.70325 502.76773 208.04639 501.1109 208.04639C499.45404 208.04639 498.1109 206.70325 498.1109 205.04639C498.1109 203.38954 499.45404 202.04639 501.1109 202.04639C502.76773 202.04639 504.1109 203.38954 504.1109 205.04639Z" fill-rule="nonzero"/><path fill="#000000" fill-opacity="0.0" clip-path="url(#id_0)" d="M509.14456 201.1631C509.14456 202.81996 507.80142 204.1631 506.14456 204.1631C504.4877 204.1631 503.14456 202.81996 503.14456 201.1631C503.14456 199.50626 504.4877 198.1631 506.14456 198.1631C507.80142 198.1631 509.14456 199.50626 509.14456 201.1631Z" fill-rule="nonzero"/><path fill="#000000" fill-opacity="0.0" clip-path="url(#id_0)" d="M514.1782 197.11946C514.1782 198.77632 512.8351 200.11946 511.17822 200.11946C509.52136 200.11946 508.17822 198.77632 508.17822 197.11946C508.17822 195.46262 509.52136 194.11946 511.17822 194.11946C512.8351 194.11946 514.1782 195.46262 514.1782 197.11946Z" fill-rule="nonzero"/><path fill="#000000" fill-opacity="0.0" clip-path="url(#id_0)" d="M519.21185 192.90057C519.21185 194.55742 517.8687 195.90057 516.21185 195.90057C514.55505 195.90057 513.21185 194.55742 513.21185 192.90057C513.21185 191.24371 514.55505 189.90057 516.21185 189.90057C517.8687 189.90057 519.21185 191.24371 519.21185 192.90057Z" fill-rule="nonzero"/><path fill="#000000" fill-opacity="0.0" clip-path="url(#id_0)" d="M524.24554 188.48883C524.24554 190.14569 522.9024 191.48883 521.24554 191.48883C519.5887 191.48883 518.24554 190.14569 518.24554 188.48883C518.24554 186.83199 519.5887 185.48883 521.24554 185.48883C522.9024 185.48883 524.24554 186.83199 524.24554 188.48883Z" fill-rule="nonzero"/><path fill="#000000" fill-opacity="0.0" clip-path="url(#id_0)" d="M529.27924 183.86327C529.27924 185.52013 527.93604 186.86327 526.27924 186.86327C524.6224 186.86327 523.27924 185.52013 523.27924 183.86327C523.27924 182.2064 524.6224 180.86327 526.27924 180.86327C527.93604 180.86327 529.27924 182.2064 529.27924 183.86327Z" fill-rule="nonzero"/><path fill="#000000" fill-opacity="0.0" clip-path="url(#id_0)" d="M534.31287 178.99843C534.31287 180.65529 532.9697 181.99843 531.31287 181.99843C529.656 181.99843 528.31287 180.65529 528.31287 178.99843C528.31287 177.34158 529.656 175.99843 531.31287 175.99843C532.9697 175.99843 534.31287 177.34158 534.31287 178.99843Z" fill-rule="nonzero"/><path fill="#000000" fill-opacity="0.0" clip-path="url(#id_0)" d="M539.34656 173.86302C539.34656 175.51988 538.0034 176.86302 536.34656 176.86302C534.6897 176.86302 533.34656 175.51988 533.34656 173.86302C533.34656 172.20618 534.6897 170.86302 536.34656 170.86302C538.0034 170.86302 539.34656 172.20618 539.34656 173.86302Z" fill-rule="nonzero"/><path fill="#000000" fill-opacity="0.0" clip-path="url(#id_0)" d="M544.3802 168.41777C544.3802 170.07462 543.03705 171.41777 541.3802 171.41777C539.7233 171.41777 538.3802 170.07462 538.3802 168.41777C538.3802 166.76091 539.7233 165.41777 541.3802 165.41777C543.03705 165.41777 544.3802 166.76091 544.3802 168.41777Z" fill-rule="nonzero"/><path fill="#000000" fill-opacity="0.0" clip-path="url(#id_0)" d="M549.4139 162.61218C549.4139 164.26903 548.07074 165.61218 546.4139 165.61218C544.757 165.61218 543.4139 164.26903 543.4139 162.61218C543.4139 160.95532 544.757 159.61218 546.4139 159.61218C548.07074 159.61218 549.4139 160.95532 549.4139 162.61218Z" fill-rule="nonzero"/><path fill="#000000" fill-opacity="0.0" clip-path="url(#id_0)" d="M554.4475 156.37956C554.4475 158.03642 553.1044 159.37956 551.4475 159.37956C549.79065 159.37956 548.4475 158.03642 548.4475 156.37956C548.4475 154.7227 549.79065 153.37956 551.4475 153.37956C553.1044 153.37956 554.4475 154.7227 554.4475 156.37956Z" fill-rule="nonzero"/><path fill="#000000" fill-opacity="0.0" clip-path="url(#id_0)" d="M559.4812 149.6285C559.4812 151.28535 558.13806 152.6285 556.4812 152.6285C554.82434 152.6285 553.4812 151.28535 553.4812 149.6285C553.4812 147.97165 554.82434 146.6285 556.4812 146.6285C558.13806 146.6285 559.4812 147.97165 559.4812 149.6285Z" fill-rule="nonzero"/><path fill="#000000" fill-opacity="0.0" clip-path="url(#id_0)" d="M564.51483 142.22768C564.51483 143.88452 563.1717 145.22768 561.51483 145.22768C559.858 145.22768 558.51483 143.88452 558.51483 142.22768C558.51483 140.57082 559.858 139.22768 561.51483 139.22768C563.1717 139.22768 564.51483 140.57082 564.51483 142.22768Z" fill-rule="nonzero"/><path fill="#000000" fill-opacity="0.0" clip-path="url(#id_0)" d="M569.5485 133.976C569.5485 135.63286 568.2054 136.976 566.5485 136.976C564.89166 136.976 563.5485 135.63286 563.5485 133.976C563.5485 132.31915 564.89166 130.976 566.5485 130.976C568.2054 130.976 569.5485 132.31915 569.5485 133.976Z" fill-rule="nonzero"/><path fill="#000000" fill-opacity="0.0" clip-path="url(#id_0)" d="M574.58215 124.535774C574.58215 126.192635 573.239 127.535774 571.58215 127.535774C569.92535 127.535774 568.58215 126.192635 568.58215 124.535774C568.58215 122.87892 569.92535 121.535774 571.58215 121.535774C573.239 121.535774 574.58215 122.87892 574.58215 124.535774Z" fill-rule="nonzero"/><path fill="#000000" fill-opacity="0.0" clip-path="url(#id_0)" d="M579.61584 113.25016C579.61584 114.90701 578.2727 116.25016 576.61584 116.25016C574.959 116.25016 573.61584 114.90701 573.61584 113.25016C573.61584 111.5933 574.959 110.25016 576.61584 110.25016C578.2727 110.25016 579.61584 111.5933 579.61584 113.25016Z" fill-rule="nonzero"/><path fill="#000000" fill-opacity="0.0" clip-path="url(#id_0)" d="M584.6495 98.427765C584.6495 100.084625 583.30634 101.427765 581.6495 101.427765C579.9927 101.427765 578.6495 100.084625 578.6495 98.427765C578.6495 96.77091 579.9927 95.427765 581.6495 95.427765C583.30634 95.427765 584.6495 96.77091 584.6495 98.427765Z" fill-rule="nonzero"/><path fill="#000000" fill-opacity="0.0" clip-path="url(#id_0)" d="M589.68317 62.333332C589.68317 63.99019 588.34 65.333336 586.68317 65.333336C585.0263 65.333336 583.68317 63.99019 583.68317 62.333332C583.68317 60.67648 585.0263 59.333332 586.68317 59.333332C588.34 59.333332 589.68317 60.67648 589.68317 62.333332Z" fill-rule="nonzero"/><path fill="#000000" d="M336.59375 353.2625L336.75 354.1844Q336.29688 354.27814 335.95312 354.27814Q335.375 354.27814 335.0625 354.10626Q334.75 353.91876 334.60938 353.6219Q334.48438 353.325 334.48438 352.3719L334.48438 348.79376L333.71875 348.79376L333.71875 347.98126L334.48438 347.98126L334.48438 346.4344L335.53125 345.8094L335.53125 347.98126L336.59375 347.98126L336.59375 348.79376L335.53125 348.79376L335.53125 352.4344Q335.53125 352.8875 335.57812 353.0125Q335.64062 353.1375 335.76562 353.21564Q335.89062 353.29376 336.125 353.29376Q336.3125 353.29376 336.59375 353.2625Z" fill-rule="nonzero"/><path fill="#000000" d="M29.800013 192.67291L26.565638 190.40729L23.581263 192.50104L23.581263 191.18854L25.034388 190.23541Q25.456263 189.96979 25.737513 189.79791Q25.346888 189.54791 25.050013 189.32916L23.581263 188.28229L23.581263 187.01666L26.503138 189.17291L29.800013 186.86041L29.800013 188.14166L27.862513 189.42291L27.346888 189.76666L29.800013 191.40729L29.800013 192.67291Z" fill-rule="nonzero"/><path fill="#000000" d="M51.3 317.96564Q51.3 316.4344 51.6125 315.5125Q51.925 314.575 52.534374 314.075Q53.159374 313.575 54.096874 313.575Q54.784374 313.575 55.3 313.85626Q55.83125 314.1375 56.175 314.66876Q56.51875 315.1844 56.70625 315.9344Q56.89375 316.6844 56.89375 317.96564Q56.89375 319.48126 56.58125 320.40314Q56.284374 321.325 55.659374 321.84064Q55.05 322.34064 54.096874 322.34064Q52.8625 322.34064 52.14375 321.45Q51.3 320.3875 51.3 317.96564ZM52.378124 317.96564Q52.378124 320.075 52.878124 320.77814Q53.378124 321.48126 54.096874 321.48126Q54.83125 321.48126 55.315624 320.77814Q55.815624 320.075 55.815624 317.96564Q55.815624 315.84064 55.315624 315.15314Q54.83125 314.45 54.08125 314.45Q53.3625 314.45 52.925 315.0594Q52.378124 315.84064 52.378124 317.96564ZM58.89375 322.2L58.89375 320.9969L60.096874 320.9969L60.096874 322.2L58.89375 322.2ZM61.3 317.96564Q61.3 316.4344 61.6125 315.5125Q61.925 314.575 62.534374 314.075Q63.159374 313.575 64.09688 313.575Q64.78438 313.575 65.3 313.85626Q65.83125 314.1375 66.175 314.66876Q66.51875 315.1844 66.70625 315.9344Q66.89375 316.6844 66.89375 317.96564Q66.89375 319.48126 66.58125 320.40314Q66.28438 321.325 65.65938 321.84064Q65.05 322.34064 64.09688 322.34064Q62.8625 322.34064 62.14375 321.45Q61.3 320.3875 61.3 317.96564ZM62.378124 317.96564Q62.378124 320.075 62.878124 320.77814Q63.378124 321.48126 64.09688 321.48126Q64.83125 321.48126 65.31563 320.77814Q65.81563 320.075 65.81563 317.96564Q65.81563 315.84064 65.31563 315.15314Q64.83125 314.45 64.08125 314.45Q63.3625 314.45 62.925 315.0594Q62.378124 315.84064 62.378124 317.96564ZM68.3 317.96564Q68.3 316.4344 68.6125 315.5125Q68.925 314.575 69.53438 314.075Q70.15938 313.575 71.09688 313.575Q71.78438 313.575 72.3 313.85626Q72.83125 314.1375 73.175 314.66876Q73.51875 315.1844 73.70625 315.9344Q73.89375 316.6844 73.89375 317.96564Q73.89375 319.48126 73.58125 320.40314Q73.28438 321.325 72.65938 321.84064Q72.05 322.34064 71.09688 322.34064Q69.8625 322.34064 69.14375 321.45Q68.3 320.3875 68.3 317.96564ZM69.37813 317.96564Q69.37813 320.075 69.87813 320.77814Q70.37813 321.48126 71.09688 321.48126Q71.83125 321.48126 72.31563 320.77814Q72.81563 320.075 72.81563 317.96564Q72.81563 315.84064 72.31563 315.15314Q71.83125 314.45 71.08125 314.45Q70.3625 314.45 69.925 315.0594Q69.37813 315.84064 69.37813 317.96564Z" fill-rule="nonzero"/><path fill="#000000" d="M51.3 253.99896Q51.3 252.46771 51.6125 251.54584Q51.925 250.60834 52.534374 250.10834Q53.159374 249.60834 54.096874 249.60834Q54.784374 249.60834 55.3 249.88959Q55.83125 250.17084 56.175 250.70209Q56.51875 251.21771 56.70625 251.96771Q56.89375 252.71771 56.89375 253.99896Q56.89375 255.51459 56.58125 256.43646Q56.284374 257.35834 55.659374 257.87396Q55.05 258.37396 54.096874 258.37396Q52.8625 258.37396 52.14375 257.48334Q51.3 256.42084 51.3 253.99896ZM52.378124 253.99896Q52.378124 256.10834 52.878124 256.81146Q53.378124 257.5146 54.096874 257.5146Q54.83125 257.5146 55.315624 256.81146Q55.815624 256.10834 55.815624 253.99896Q55.815624 251.87396 55.315624 251.18646Q54.83125 250.48334 54.08125 250.48334Q53.3625 250.48334 52.925 251.09271Q52.378124 251.87396 52.378124 253.99896ZM58.89375 258.23334L58.89375 257.0302L60.096874 257.0302L60.096874 258.23334L58.89375 258.23334ZM66.84688 257.2177L66.84688 258.23334L61.159374 258.23334Q61.159374 257.85834 61.284374 257.49896Q61.503124 256.92084 61.971874 256.35834Q62.45625 255.79584 63.3625 255.06146Q64.76875 253.90521 65.25313 253.23334Q65.75313 252.56146 65.75313 251.96771Q65.75313 251.34271 65.3 250.92084Q64.84688 250.48334 64.12813 250.48334Q63.3625 250.48334 62.909374 250.93646Q62.45625 251.38959 62.440624 252.20209L61.3625 252.09271Q61.471874 250.87396 62.190624 250.24896Q62.925 249.60834 64.15938 249.60834Q65.39375 249.60834 66.1125 250.29584Q66.83125 250.98334 66.83125 251.99896Q66.83125 252.51459 66.6125 253.01459Q66.40938 253.49896 65.90938 254.06146Q65.425 254.60834 64.3 255.56146Q63.346874 256.35834 63.065624 256.6552Q62.8 256.93646 62.628124 257.2177L66.84688 257.2177ZM68.3 255.98334L69.40938 255.88959Q69.53438 256.7021 69.97188 257.10834Q70.425 257.5146 71.06563 257.5146Q71.81563 257.5146 72.34688 256.93646Q72.87813 256.35834 72.87813 255.42084Q72.87813 254.51459 72.3625 253.99896Q71.8625 253.46771 71.03438 253.46771Q70.53438 253.46771 70.1125 253.70209Q69.70625 253.93646 69.47188 254.29584L68.4875 254.17084L69.31563 249.76459L73.59688 249.76459L73.59688 250.76459L70.15938 250.76459L69.70625 253.07709Q70.47188 252.53021 71.31563 252.53021Q72.44063 252.53021 73.20625 253.31146Q73.9875 254.09271 73.9875 255.32709Q73.9875 256.48334 73.31563 257.3427Q72.4875 258.37396 71.06563 258.37396Q69.89375 258.37396 69.14375 257.7177Q68.40938 257.06146 68.3 255.98334Z" fill-rule="nonzero"/><path fill="#000000" d="M51.3 190.03229Q51.3 188.50104 51.6125 187.57916Q51.925 186.64166 52.534374 186.14166Q53.159374 185.64166 54.096874 185.64166Q54.784374 185.64166 55.3 185.92291Q55.83125 186.20416 56.175 186.73541Q56.51875 187.25104 56.70625 188.00104Q56.89375 188.75104 56.89375 190.03229Q56.89375 191.54791 56.58125 192.46979Q56.284374 193.39166 55.659374 193.90729Q55.05 194.40729 54.096874 194.40729Q52.8625 194.40729 52.14375 193.51666Q51.3 192.45416 51.3 190.03229ZM52.378124 190.03229Q52.378124 192.14166 52.878124 192.84479Q53.378124 193.54791 54.096874 193.54791Q54.83125 193.54791 55.315624 192.84479Q55.815624 192.14166 55.815624 190.03229Q55.815624 187.90729 55.315624 187.21979Q54.83125 186.51666 54.08125 186.51666Q53.3625 186.51666 52.925 187.12604Q52.378124 187.90729 52.378124 190.03229ZM58.89375 194.26666L58.89375 193.06354L60.096874 193.06354L60.096874 194.26666L58.89375 194.26666ZM61.3 192.01666L62.409374 191.92291Q62.534374 192.73541 62.971874 193.14166Q63.425 193.54791 64.06563 193.54791Q64.81563 193.54791 65.34688 192.96979Q65.87813 192.39166 65.87813 191.45416Q65.87813 190.54791 65.3625 190.03229Q64.8625 189.50104 64.03438 189.50104Q63.534374 189.50104 63.1125 189.73541Q62.70625 189.96979 62.471874 190.32916L61.4875 190.20416L62.315624 185.79791L66.59688 185.79791L66.59688 186.79791L63.159374 186.79791L62.70625 189.11041Q63.471874 188.56354 64.31563 188.56354Q65.44063 188.56354 66.20625 189.34479Q66.9875 190.12604 66.9875 191.36041Q66.9875 192.51666 66.31563 193.37604Q65.4875 194.40729 64.06563 194.40729Q62.89375 194.40729 62.14375 193.75104Q61.409374 193.09479 61.3 192.01666ZM68.3 190.03229Q68.3 188.50104 68.6125 187.57916Q68.925 186.64166 69.53438 186.14166Q70.15938 185.64166 71.09688 185.64166Q71.78438 185.64166 72.3 185.92291Q72.83125 186.20416 73.175 186.73541Q73.51875 187.25104 73.70625 188.00104Q73.89375 188.75104 73.89375 190.03229Q73.89375 191.54791 73.58125 192.46979Q73.28438 193.39166 72.65938 193.90729Q72.05 194.40729 71.09688 194.40729Q69.8625 194.40729 69.14375 193.51666Q68.3 192.45416 68.3 190.03229ZM69.37813 190.03229Q69.37813 192.14166 69.87813 192.84479Q70.37813 193.54791 71.09688 193.54791Q71.83125 193.54791 72.31563 192.84479Q72.81563 192.14166 72.81563 190.03229Q72.81563 187.90729 72.31563 187.21979Q71.83125 186.51666 71.08125 186.51666Q70.3625 186.51666 69.925 187.12604Q69.37813 187.90729 69.37813 190.03229Z" fill-rule="nonzero"/><path fill="#000000" d="M51.3 126.06563Q51.3 124.53438 51.6125 123.6125Q51.925 122.675 52.534374 122.175Q53.159374 121.675 54.096874 121.675Q54.784374 121.675 55.3 121.95625Q55.83125 122.2375 56.175 122.76875Q56.51875 123.28438 56.70625 124.03438Q56.89375 124.78438 56.89375 126.06563Q56.89375 127.58125 56.58125 128.50313Q56.284374 129.425 55.659374 129.94063Q55.05 130.44063 54.096874 130.44063Q52.8625 130.44063 52.14375 129.55Q51.3 128.4875 51.3 126.06563ZM52.378124 126.06563Q52.378124 128.175 52.878124 128.87813Q53.378124 129.58125 54.096874 129.58125Q54.83125 129.58125 55.315624 128.87813Q55.815624 128.175 55.815624 126.06563Q55.815624 123.94063 55.315624 123.25313Q54.83125 122.55 54.08125 122.55Q53.3625 122.55 52.925 123.15938Q52.378124 123.94063 52.378124 126.06563ZM58.89375 130.3L58.89375 129.09688L60.096874 129.09688L60.096874 130.3L58.89375 130.3ZM61.3625 122.83125L61.3625 121.81563L66.925 121.81563L66.925 122.64375Q66.1125 123.51875 65.3 124.97188Q64.50313 126.40938 64.06563 127.94063Q63.7375 129.01875 63.659374 130.3L62.565624 130.3Q62.58125 129.28438 62.95625 127.84688Q63.346874 126.40938 64.05 125.08125Q64.76875 123.75313 65.58125 122.83125L61.3625 122.83125ZM68.3 128.05L69.40938 127.95625Q69.53438 128.76875 69.97188 129.175Q70.425 129.58125 71.06563 129.58125Q71.81563 129.58125 72.34688 129.00313Q72.87813 128.425 72.87813 127.4875Q72.87813 126.58125 72.3625 126.06563Q71.8625 125.53438 71.03438 125.53438Q70.53438 125.53438 70.1125 125.76875Q69.70625 126.00313 69.47188 126.3625L68.4875 126.2375L69.31563 121.83125L73.59688 121.83125L73.59688 122.83125L70.15938 122.83125L69.70625 125.14375Q70.47188 124.59688 71.31563 124.59688Q72.44063 124.59688 73.20625 125.37813Q73.9875 126.15938 73.9875 127.39375Q73.9875 128.55 73.31563 129.40938Q72.4875 130.44063 71.06563 130.44063Q69.89375 130.44063 69.14375 129.78438Q68.40938 129.12813 68.3 128.05Z" fill-rule="nonzero"/><path fill="#000000" d="M55.26875 66.333336L54.221874 66.333336L54.221874 59.614586Q53.83125 59.97396 53.20625 60.34896Q52.596874 60.708336 52.1125 60.88021L52.1125 59.864586Q52.9875 59.44271 53.64375 58.864586Q54.315624 58.270836 54.596874 57.708336L55.26875 57.708336L55.26875 66.333336ZM58.89375 66.333336L58.89375 65.13021L60.096874 65.13021L60.096874 66.333336L58.89375 66.333336ZM61.3 62.09896Q61.3 60.56771 61.6125 59.645836Q61.925 58.708336 62.534374 58.208336Q63.159374 57.708336 64.09688 57.708336Q64.78438 57.708336 65.3 57.989586Q65.83125 58.270836 66.175 58.802086Q66.51875 59.31771 66.70625 60.06771Q66.89375 60.81771 66.89375 62.09896Q66.89375 63.614586 66.58125 64.53646Q66.28438 65.458336 65.65938 65.97396Q65.05 66.47396 64.09688 66.47396Q62.8625 66.47396 62.14375 65.583336Q61.3 64.520836 61.3 62.09896ZM62.378124 62.09896Q62.378124 64.208336 62.878124 64.91146Q63.378124 65.614586 64.09688 65.614586Q64.83125 65.614586 65.31563 64.91146Q65.81563 64.208336 65.81563 62.09896Q65.81563 59.97396 65.31563 59.28646Q64.83125 58.583336 64.08125 58.583336Q63.3625 58.583336 62.925 59.19271Q62.378124 59.97396 62.378124 62.09896ZM68.3 62.09896Q68.3 60.56771 68.6125 59.645836Q68.925 58.708336 69.53438 58.208336Q70.15938 57.708336 71.09688 57.708336Q71.78438 57.708336 72.3 57.989586Q72.83125 58.270836 73.175 58.802086Q73.51875 59.31771 73.70625 60.06771Q73.89375 60.81771 73.89375 62.09896Q73.89375 63.614586 73.58125 64.53646Q73.28438 65.458336 72.65938 65.97396Q72.05 66.47396 71.09688 66.47396Q69.8625 66.47396 69.14375 65.583336Q68.3 64.520836 68.3 62.09896ZM69.37813 62.09896Q69.37813 64.208336 69.87813 64.91146Q70.37813 65.614586 71.09688 65.614586Q71.83125 65.614586 72.31563 64.91146Q72.81563 64.208336 72.81563 62.09896Q72.81563 59.97396 72.31563 59.28646Q71.83125 58.583336 71.08125 58.583336Q70.3625 58.583336 69.925 59.19271Q69.37813 59.97396 69.37813 62.09896Z" fill-rule="nonzero"/><path fill="#757575" d="M20.378124 37.8L20.378124 23.4875L30.7375 23.4875L30.7375 25.175L22.284374 25.175L22.284374 29.55L30.190624 29.55L30.190624 31.2375L22.284374 31.2375L22.284374 36.1125L31.065624 36.1125L31.065624 37.8L20.378124 37.8ZM39.89375 36.51875Q38.909374 37.346874 38.003124 37.690624Q37.096874 38.034374 36.065624 38.034374Q34.3625 38.034374 33.440624 37.20625Q32.51875 36.3625 32.51875 35.065624Q32.51875 34.3 32.8625 33.675Q33.221874 33.05 33.784374 32.675Q34.346874 32.284374 35.05 32.08125Q35.565624 31.95625 36.6125 31.815624Q38.7375 31.565624 39.7375 31.221874Q39.753124 30.8625 39.753124 30.753124Q39.753124 29.690624 39.253124 29.2375Q38.58125 28.64375 37.253124 28.64375Q36.003124 28.64375 35.409374 29.08125Q34.83125 29.51875 34.55 30.628124L32.83125 30.39375Q33.065624 29.284374 33.596874 28.6125Q34.128124 27.925 35.14375 27.565624Q36.159374 27.190624 37.503124 27.190624Q38.83125 27.190624 39.659374 27.503124Q40.4875 27.815624 40.878124 28.3Q41.26875 28.76875 41.425 29.4875Q41.51875 29.940624 41.51875 31.1125L41.51875 33.45625Q41.51875 35.909374 41.628124 36.565624Q41.7375 37.20625 42.08125 37.8L40.2375 37.8Q39.971874 37.253124 39.89375 36.51875ZM39.7375 32.596874Q38.784374 32.9875 36.8625 33.253124Q35.784374 33.409374 35.33125 33.6125Q34.89375 33.8 34.64375 34.175Q34.39375 34.55 34.39375 35.01875Q34.39375 35.721874 34.925 36.190624Q35.45625 36.659374 36.4875 36.659374Q37.503124 36.659374 38.284374 36.221874Q39.08125 35.76875 39.45625 35.003124Q39.7375 34.39375 39.7375 33.2375L39.7375 32.596874ZM43.409374 34.70625L45.159374 34.425Q45.3 35.471874 45.971874 36.034374Q46.64375 36.58125 47.846874 36.58125Q49.05 36.58125 49.628124 36.096874Q50.221874 35.596874 50.221874 34.940624Q50.221874 34.346874 49.70625 34.003124Q49.346874 33.76875 47.909374 33.409374Q45.971874 32.909374 45.221874 32.565624Q44.4875 32.20625 44.096874 31.58125Q43.70625 30.940624 43.70625 30.175Q43.70625 29.4875 44.01875 28.89375Q44.346874 28.3 44.89375 27.909374Q45.3 27.6125 46.003124 27.409374Q46.721874 27.190624 47.534374 27.190624Q48.753124 27.190624 49.675 27.55Q50.596874 27.89375 51.034374 28.503124Q51.471874 29.096874 51.64375 30.096874L49.925 30.33125Q49.8 29.534374 49.2375 29.096874Q48.675 28.64375 47.659374 28.64375Q46.440624 28.64375 45.925 29.05Q45.409374 29.440624 45.409374 29.971874Q45.409374 30.315624 45.628124 30.596874Q45.83125 30.878124 46.3 31.065624Q46.565624 31.159374 47.846874 31.503124Q49.721874 32.003124 50.45625 32.33125Q51.190624 32.64375 51.6125 33.253124Q52.034374 33.846874 52.034374 34.753124Q52.034374 35.628124 51.51875 36.409374Q51.003124 37.190624 50.034374 37.6125Q49.065624 38.034374 47.846874 38.034374Q45.83125 38.034374 44.76875 37.190624Q43.70625 36.346874 43.409374 34.70625ZM61.221874 34.45625L63.034374 34.690624Q62.6125 36.26875 61.440624 37.159374Q60.284374 38.034374 58.471874 38.034374Q56.20625 38.034374 54.8625 36.64375Q53.534374 35.2375 53.534374 32.70625Q53.534374 30.08125 54.878124 28.64375Q56.221874 27.190624 58.378124 27.190624Q60.45625 27.190624 61.76875 28.6125Q63.096874 30.01875 63.096874 32.596874Q63.096874 32.753124 63.08125 33.065624L55.346874 33.065624Q55.440624 34.76875 56.315624 35.675Q57.190624 36.58125 58.4875 36.58125Q59.45625 36.58125 60.128124 36.08125Q60.815624 35.565624 61.221874 34.45625ZM55.440624 31.6125L61.2375 31.6125Q61.128124 30.315624 60.58125 29.659374Q59.7375 28.64375 58.39375 28.64375Q57.190624 28.64375 56.3625 29.45625Q55.534374 30.253124 55.440624 31.6125ZM65.65938 37.8L65.65938 23.4875L67.56563 23.4875L67.56563 37.8L65.65938 37.8ZM71.1125 37.8L71.1125 27.425L72.70625 27.425L72.70625 28.909374Q73.84688 27.190624 76.00313 27.190624Q76.94063 27.190624 77.72188 27.534374Q78.51875 27.8625 78.90938 28.409374Q79.3 28.95625 79.45625 29.70625Q79.55 30.20625 79.55 31.425L79.55 37.8L77.78438 37.8L77.78438 31.4875Q77.78438 30.409374 77.58125 29.878124Q77.37813 29.346874 76.84688 29.034374Q76.33125 28.721874 75.62813 28.721874Q74.50313 28.721874 73.69063 29.440624Q72.87813 30.14375 72.87813 32.128124L72.87813 37.8L71.1125 37.8ZM91.56563 32.784374L93.45625 33.253124Q92.8625 35.596874 91.31563 36.83125Q89.76875 38.05 87.51875 38.05Q85.20625 38.05 83.75313 37.1125Q82.31563 36.159374 81.55 34.378124Q80.8 32.58125 80.8 30.534374Q80.8 28.3 81.64375 26.64375Q82.50313 24.971874 84.08125 24.1125Q85.65938 23.2375 87.55 23.2375Q89.70625 23.2375 91.15938 24.33125Q92.62813 25.425 93.20625 27.409374L91.34688 27.846874Q90.84688 26.284374 89.89375 25.58125Q88.95625 24.8625 87.51875 24.8625Q85.8625 24.8625 84.75313 25.659374Q83.64375 26.440624 83.19063 27.784374Q82.75313 29.1125 82.75313 30.51875Q82.75313 32.346874 83.28438 33.721874Q83.81563 35.08125 84.94063 35.753124Q86.06563 36.425 87.3625 36.425Q88.95625 36.425 90.06563 35.503124Q91.175 34.58125 91.56563 32.784374ZM95.12813 25.503124L95.12813 23.4875L96.89375 23.4875L96.89375 25.503124L95.12813 25.503124ZM95.12813 37.8L95.12813 27.425L96.89375 27.425L96.89375 37.8L95.12813 37.8ZM99.09688 37.8L99.09688 27.425L100.675 27.425L100.675 29.003124Q101.28438 27.89375 101.8 27.55Q102.31563 27.190624 102.925 27.190624Q103.81563 27.190624 104.7375 27.753124L104.12813 29.39375Q103.4875 29.003124 102.84688 29.003124Q102.26875 29.003124 101.8 29.3625Q101.34688 29.70625 101.14375 30.315624Q100.8625 31.253124 100.8625 32.3625L100.8625 37.8L99.09688 37.8ZM112.89375 34.003124L114.6125 34.221874Q114.33125 36.01875 113.15938 37.034374Q112.00313 38.034374 110.3 38.034374Q108.175 38.034374 106.87813 36.64375Q105.58125 35.253124 105.58125 32.659374Q105.58125 30.971874 106.12813 29.721874Q106.69063 28.45625 107.83125 27.83125Q108.97188 27.190624 110.31563 27.190624Q112.00313 27.190624 113.06563 28.05Q114.14375 28.909374 114.45625 30.471874L112.7375 30.7375Q112.50313 29.690624 111.87813 29.175Q111.25313 28.64375 110.37813 28.64375Q109.05 28.64375 108.22188 29.596874Q107.39375 30.55 107.39375 32.596874Q107.39375 34.690624 108.19063 35.64375Q108.9875 36.58125 110.28438 36.58125Q111.31563 36.58125 112.00313 35.95625Q112.70625 35.315624 112.89375 34.003124ZM122.90938 37.8L122.90938 36.26875Q121.70625 38.034374 119.62813 38.034374Q118.70625 38.034374 117.90938 37.690624Q117.1125 37.33125 116.72188 36.8Q116.34688 36.26875 116.19063 35.4875Q116.08125 34.971874 116.08125 33.846874L116.08125 27.425L117.83125 27.425L117.83125 33.175Q117.83125 34.55 117.94063 35.034374Q118.1125 35.721874 118.64375 36.128124Q119.19063 36.51875 119.97188 36.51875Q120.76875 36.51875 121.45625 36.1125Q122.15938 35.70625 122.44063 35.01875Q122.7375 34.315624 122.7375 32.9875L122.7375 27.425L124.4875 27.425L124.4875 37.8L122.90938 37.8ZM126.08125 37.8L126.08125 23.4875L127.83125 23.4875L127.83125 37.8L126.08125 37.8ZM136.89375 36.51875Q135.90938 37.346874 135.00313 37.690624Q134.09688 38.034374 133.06563 38.034374Q131.3625 38.034374 130.44063 37.20625Q129.51875 36.3625 129.51875 35.065624Q129.51875 34.3 129.8625 33.675Q130.22188 33.05 130.78438 32.675Q131.34688 32.284374 132.05 32.08125Q132.56563 31.95625 133.6125 31.815624Q135.7375 31.565624 136.7375 31.221874Q136.75313 30.8625 136.75313 30.753124Q136.75313 29.690624 136.25313 29.2375Q135.58125 28.64375 134.25313 28.64375Q133.00313 28.64375 132.40938 29.08125Q131.83125 29.51875 131.55 30.628124L129.83125 30.39375Q130.06563 29.284374 130.59688 28.6125Q131.12813 27.925 132.14375 27.565624Q133.15938 27.190624 134.50313 27.190624Q135.83125 27.190624 136.65938 27.503124Q137.4875 27.815624 137.87813 28.3Q138.26875 28.76875 138.425 29.4875Q138.51875 29.940624 138.51875 31.1125L138.51875 33.45625Q138.51875 35.909374 138.62813 36.565624Q138.7375 37.20625 139.08125 37.8L137.2375 37.8Q136.97188 37.253124 136.89375 36.51875ZM136.7375 32.596874Q135.78438 32.9875 133.8625 33.253124Q132.78438 33.409374 132.33125 33.6125Q131.89375 33.8 131.64375 34.175Q131.39375 34.55 131.39375 35.01875Q131.39375 35.721874 131.925 36.190624Q132.45625 36.659374 133.4875 36.659374Q134.50313 36.659374 135.28438 36.221874Q136.08125 35.76875 136.45625 35.003124Q136.7375 34.39375 136.7375 33.2375L136.7375 32.596874ZM141.09688 37.8L141.09688 27.425L142.675 27.425L142.675 29.003124Q143.28438 27.89375 143.8 27.55Q144.31563 27.190624 144.925 27.190624Q145.81563 27.190624 146.7375 27.753124L146.12813 29.39375Q145.4875 29.003124 144.84688 29.003124Q144.26875 29.003124 143.8 29.3625Q143.34688 29.70625 143.14375 30.315624Q142.8625 31.253124 142.8625 32.3625L142.8625 37.8L141.09688 37.8Z" fill-rule="nonzero"/></svg>