<svg version="1.1" viewBox="0.0 0.0 608.0 376.0" fill="none" stroke="none" stroke-linecap="square" stroke-miterlimit="10" width="608" height="376" xmlns:xlink="http://www.w3.org/1999/xlink" xmlns="http://www.w3.org/2000/svg"><path fill="#ffffff" d="M0 0L608.0 0L608.0 376.0L0 376.0L0 0Z" fill-rule="nonzero"/><path stroke="#333333" stroke-width="1.0" stroke-linecap="butt" d="M80.5 318.5L589.5 318.5" fill-rule="nonzero"/><path stroke="#cccccc" stroke-width="1.0" stroke-linecap="butt" d="M80.5 254.5L589.5 254.5" fill-rule="nonzero"/><path stroke="#cccccc" stroke-width="1.0" stroke-linecap="butt" d="M80.5 190.5L589.5 190.5" fill-rule="nonzero"/><path stroke="#cccccc" stroke-width="1.0" stroke-linecap="butt" d="M80.5 126.5L589.5 126.5" fill-rule="nonzero"/><path stroke="#cccccc" stroke-width="1.0" stroke-linecap="butt" d="M80.5 62.5L589.5 62.5" fill-rule="nonzero"/><path stroke="#000000" stroke-width="1.0" stroke-linecap="butt" d="M80.5 318.5L80.5 62.5" fill-rule="nonzero"/><clipPath id="id_0"><path d="M80.8 62.333332L589.2 62.333332L589.2 318.2L80.8 318.2L80.8 62.333332Z" clip-rule="nonzero"/></clipPath><path stroke="#4285f4" stroke-width="2.0" stroke-linecap="butt" clip-path="url(#id_0)" d="M83.31683 190.26666C83.31683 190.26666 86.67261 190.39566 88.350494 190.65367C90.02838 190.91167 91.70627 191.29866 93.384155 191.81467C95.06205 192.33066 96.73994 192.97566 98.41782 193.74965C100.09571 194.52365 101.7736 195.42665 103.451485 196.45863C105.12937 197.49063 106.80726 198.65163 108.485146 199.94162C110.16303 201.23161 111.84093 202.65062 113.518814 204.19861C115.1967 205.7466 116.87459 207.4236 118.552475 209.22958C120.23036 211.03558 121.90825 212.97057 123.586136 215.03456C125.26402 217.09856 126.94192 219.29153 128.6198 221.61353C130.29768 223.93552 131.97557 226.3865 133.65347 228.9665C135.33136 231.5465 137.00925 234.25548 138.68713 237.09346C140.36502 239.93146 142.04291 242.89844 143.7208 245.99443C145.39868 249.09041 147.07657 252.3154 148.75446 255.66939C150.43234 259.02338 152.11023 262.50635 153.78812 266.11835C155.466 269.73032 157.14389 273.4713 158.82178 277.34128C160.49966 281.21127 162.17755 285.21027 163.85544 289.33823C165.53334 293.46622 167.21123 297.7232 168.88911 302.1092C170.567 306.49518 172.24489 313.88864 173.92278 315.6541C175.60066 317.41962 177.27855 314.19675 178.95644 312.70206C180.63432 311.20737 182.31221 308.56235 183.9901 306.686C185.66798 304.80963 187.34587 303.0623 189.02376 301.44394C190.70164 299.82556 192.37953 298.3362 194.05742 296.97586C195.73532 295.6155 197.41321 294.38416 199.0911 293.2818C200.76898 292.1794 202.44687 291.20605 204.12476 290.3617C205.80264 289.51733 207.48053 288.80197 209.15842 288.21564C210.8363 287.62927 212.51419 287.1719 214.19208 286.84354C215.86996 286.51517 217.54785 286.31583 219.22574 286.24545C220.90363 286.17508 222.58151 286.23373 224.2594 286.42136C225.93729 286.609 227.61519 286.92563 229.29308 287.37128C230.97096 287.8169 232.64885 288.39154 234.32674 289.09515C236.00462 289.7988 237.68251 290.63144 239.3604 291.59308C241.03828 292.5547 242.71617 293.64532 244.39406 294.86496C246.07195 296.0846 247.74983 297.43323 249.42772 298.91086C251.1056 300.3885 252.7835 301.99512 254.46138 303.73074C256.13928 305.46637 257.81717 307.331 259.49506 309.32462C261.17294 311.31827 262.85083 314.5603 264.52872 315.6925C266.2066 316.8247 267.8845 316.48676 269.56238 316.1179C271.24026 315.74902 272.91815 314.2298 274.59604 313.47925C276.27393 312.72873 277.9518 312.10718 279.6297 311.61462C281.3076 311.1221 282.98547 310.75854 284.66336 310.524C286.34125 310.28946 288.01913 310.1839 289.69702 310.20737C291.3749 310.2308 293.0528 310.38327 294.73068 310.66473C296.40857 310.94617 298.08646 311.35663 299.76434 311.8961C301.44223 312.43555 303.12012 313.104 304.79803 313.90143C306.47592 314.69888 308.1538 316.1051 309.8317 316.6808C311.50958 317.2565 313.18747 317.4015 314.86536 317.35565C316.54324 317.30978 318.22113 316.59338 319.89902 316.40573C321.5769 316.2181 323.2548 316.15945 324.93268 316.22983C326.61057 316.3002 328.28845 337.82178 329.96634 316.8279C331.64423 295.83405 333.3221 211.42471 335.0 190.26666C336.6779 169.10863 338.35577 190.13766 340.03366 189.87967C341.71155 189.62167 343.38943 189.23466 345.06732 188.71867C346.7452 188.20268 348.4231 187.55768 350.10098 186.78368C351.77887 186.00969 353.45676 185.10669 355.13464 184.07469C356.81253 183.0427 358.49042 181.8817 360.1683 180.5917C361.8462 179.30171 363.52408 177.88272 365.20197 176.33473C366.87988 174.78673 368.55777 173.10974 370.23566 171.30374C371.91354 169.49776 373.59143 167.56276 375.26932 165.49878C376.9472 163.43478 378.6251 161.24179 380.30298 158.9198C381.98087 156.59781 383.65875 154.14682 385.33664 151.56683C387.01453 148.98685 388.6924 146.27786 390.3703 143.43987C392.0482 140.60188 393.72607 137.63489 395.40396 134.53891C397.08185 131.44292 398.75974 128.21794 400.43762 124.863945C402.1155 121.509964 403.7934 118.02698 405.47128 114.41499C407.14917 110.80301 408.82706 107.06203 410.50494 103.19204C412.18283 99.32206 413.86072 95.323074 415.5386 91.19509C417.2165 87.06711 418.89438 82.81013 420.57227 78.42415C422.25015 74.03817 423.92804 66.644684 425.60593 64.8792C427.2838 63.113728 428.96173 66.33658 430.63962 67.83127C432.3175 69.32596 433.9954 71.97098 435.67328 73.847336C437.35117 75.72369 439.02905 77.47105 440.70694 79.0894C442.38483 80.707756 444.0627 82.19711 445.7406 83.55747C447.4185 84.91783 449.09637 86.14919 450.77426 87.25155C452.45215 88.353905 454.13004 89.32726 455.80792 90.17162C457.4858 91.01598 459.1637 91.731346 460.84158 92.31771C462.51947 92.90407 464.19736 93.36143 465.87524 93.6898C467.55313 94.01816 469.23102 94.21752 470.9089 94.28788C472.5868 94.358246 474.26468 94.29961 475.94257 94.11198C477.62045 93.92434 479.29834 93.607704 480.97623 93.16207C482.6541 92.71643 484.332 92.1418 486.0099 91.43816C487.68777 90.734535 489.36566 89.9019 491.04358 88.94027C492.72147 87.97864 494.39935 86.88801 496.07724 85.66837C497.75513 84.448746 499.433 83.10011 501.1109 81.62248C502.7888 80.14485 504.46667 78.53822 506.14456 76.8026C507.82245 75.06696 509.50034 73.20234 511.17822 71.20871C512.8561 69.21508 514.534 65.97304 516.21185 64.84083C517.8898 63.70862 519.5676 64.04658 521.24554 64.41545C522.92346 64.784325 524.6013 66.30353 526.27924 67.05407C527.9571 67.80462 529.635 68.426155 531.31287 68.9187C532.9908 69.41125 534.66864 69.77479 536.34656 70.00933C538.0244 70.24388 539.70233 70.34943 541.3802 70.325966C543.0581 70.30251 544.73596 70.15006 546.4139 69.86861C548.09174 69.58715 549.76965 69.1767 551.4475 68.637245C553.1254 68.09779 554.8033 67.429344 556.4812 66.6319C558.15906 65.83444 559.837 64.42824 561.51483 63.852543C563.19275 63.27684 564.8706 63.13185 566.5485 63.177692C568.2264 63.223537 569.9043 63.939964 571.58215 64.1276C573.2601 64.31523 574.9379 64.37387 576.61584 64.303505C578.2937 64.23315 579.9716 64.03378 581.6495 63.705418C583.3274 63.377056 586.68317 62.333332 586.68317 62.333332" fill-rule="nonzero"/><path fill="#000000" fill-opacity="0.0" clip-path="url(#id_0)" d="M86.31683 190.26666C86.31683 191.92352 84.97369 193.26666 83.31683 193.26666C81.65998 193.26666 80.31683 191.92352 80.31683 190.26666C80.31683 188.60982 81.65998 187.26666 83.31683 187.26666C84.97369 187.26666 86.31683 188.60982 86.31683 190.26666Z" fill-rule="nonzero"/><path fill="#000000" fill-opacity="0.0" clip-path="url(#id_0)" d="M91.350494 190.65367C91.350494 192.31052 90.00735 193.65367 88.350494 193.65367C86.69364 193.65367 85.350494 192.31052 85.350494 190.65367C85.350494 188.99681 86.69364 187.65367 88.350494 187.65367C90.00735 187.65367 91.350494 188.99681 91.350494 190.65367Z" fill-rule="nonzero"/><path fill="#000000" fill-opacity="0.0" clip-path="url(#id_0)" d="M96.384155 191.81467C96.384155 193.47151 95.041016 194.81467 93.384155 194.81467C91.7273 194.81467 90.384155 193.47151 90.384155 191.81467C90.384155 190.1578 91.7273 188.81467 93.384155 188.81467C95.041016 188.81467 96.384155 190.1578 96.384155 191.81467Z" fill-rule="nonzero"/><path fill="#000000" fill-opacity="0.0" clip-path="url(#id_0)" d="M101.41782 193.74965C101.41782 195.40651 100.07468 196.74965 98.41782 196.74965C96.76097 196.74965 95.41782 195.40651 95.41782 193.74965C95.41782 192.0928 96.76097 190.74965 98.41782 190.74965C100.07468 190.74965 101.41782 192.0928 101.41782 193.74965Z" fill-rule="nonzero"/><path fill="#000000" fill-opacity="0.0" clip-path="url(#id_0)" d="M106.451485 196.45863C106.451485 198.1155 105.10834 199.45863 103.451485 199.45863C101.79463 199.45863 100.451485 198.1155 100.451485 196.45863C100.451485 194.80179 101.79463 193.45863 103.451485 193.45863C105.10834 193.45863 106.451485 194.80179 106.451485 196.45863Z" fill-rule="nonzero"/><path fill="#000000" fill-opacity="0.0" clip-path="url(#id_0)" d="M111.485146 199.94162C111.485146 201.59848 110.142006 202.94162 108.485146 202.94162C106.82829 202.94162 105.485146 201.59848 105.485146 199.94162C105.485146 198.28477 106.82829 196.94162 108.485146 196.94162C110.142006 196.94162 111.485146 198.28477 111.485146 199.94162Z" fill-rule="nonzero"/><path fill="#000000" fill-opacity="0.0" clip-path="url(#id_0)" d="M116.518814 204.19861C116.518814 205.85545 115.17567 207.19861 113.518814 207.19861C111.86196 207.19861 110.518814 205.85545 110.518814 204.19861C110.518814 202.54175 111.86196 201.19861 113.518814 201.19861C115.17567 201.19861 116.518814 202.54175 116.518814 204.19861Z" fill-rule="nonzero"/><path fill="#000000" fill-opacity="0.0" clip-path="url(#id_0)" d="M121.552475 209.22958C121.552475 210.88644 120.20933 212.22958 118.552475 212.22958C116.89562 212.22958 115.552475 210.88644 115.552475 209.22958C115.552475 207.57272 116.89562 206.22958 118.552475 206.22958C120.20933 206.22958 121.552475 207.57272 121.552475 209.22958Z" fill-rule="nonzero"/><path fill="#000000" fill-opacity="0.0" clip-path="url(#id_0)" d="M126.586136 215.03456C126.586136 216.69142 125.243 218.03456 123.586136 218.03456C121.92928 218.03456 120.586136 216.69142 120.586136 215.03456C120.586136 213.3777 121.92928 212.03456 123.586136 212.03456C125.243 212.03456 126.586136 213.3777 126.586136 215.03456Z" fill-rule="nonzero"/><path fill="#000000" fill-opacity="0.0" clip-path="url(#id_0)" d="M131.6198 221.61353C131.6198 223.27039 130.27666 224.61353 128.6198 224.61353C126.962944 224.61353 125.619804 223.27039 125.619804 221.61353C125.619804 219.95668 126.962944 218.61353 128.6198 218.61353C130.27666 218.61353 131.6198 219.95668 131.6198 221.61353Z" fill-rule="nonzero"/><path fill="#000000" fill-opacity="0.0" clip-path="url(#id_0)" d="M136.65347 228.9665C136.65347 230.62335 135.31032 231.9665 133.65347 231.9665C131.99661 231.9665 130.65347 230.62335 130.65347 228.9665C130.65347 227.30965 131.99661 225.9665 133.65347 225.9665C135.31032 225.9665 136.65347 227.30965 136.65347 228.9665Z" fill-rule="nonzero"/><path fill="#000000" fill-opacity="0.0" clip-path="url(#id_0)" d="M141.68713 237.09346C141.68713 238.75032 140.34398 240.09346 138.68713 240.09346C137.03027 240.09346 135.68713 238.75032 135.68713 237.09346C135.68713 235.43661 137.03027 234.09346 138.68713 234.09346C140.34398 234.09346 141.68713 235.43661 141.68713 237.09346Z" fill-rule="nonzero"/><path fill="#000000" fill-opacity="0.0" clip-path="url(#id_0)" d="M146.7208 245.99443C146.7208 247.65128 145.37764 248.99443 143.7208 248.99443C142.06393 248.99443 140.7208 247.65128 140.7208 245.99443C140.7208 244.33757 142.06393 242.99443 143.7208 242.99443C145.37764 242.99443 146.7208 244.33757 146.7208 245.99443Z" fill-rule="nonzero"/><path fill="#000000" fill-opacity="0.0" clip-path="url(#id_0)" d="M151.75446 255.66939C151.75446 257.32623 150.41132 258.66937 148.75446 258.66937C147.0976 258.66937 145.75446 257.32623 145.75446 255.66939C145.75446 254.01253 147.0976 252.66939 148.75446 252.66939C150.41132 252.66939 151.75446 254.01253 151.75446 255.66939Z" fill-rule="nonzero"/><path fill="#000000" fill-opacity="0.0" clip-path="url(#id_0)" d="M156.78812 266.11835C156.78812 267.7752 155.44498 269.11835 153.78812 269.11835C152.13127 269.11835 150.78812 267.7752 150.78812 266.11835C150.78812 264.4615 152.13127 263.11835 153.78812 263.11835C155.44498 263.11835 156.78812 264.4615 156.78812 266.11835Z" fill-rule="nonzero"/><path fill="#000000" fill-opacity="0.0" clip-path="url(#id_0)" d="M161.82178 277.34128C161.82178 278.99814 160.47864 280.34128 158.82178 280.34128C157.16493 280.34128 155.82178 278.99814 155.82178 277.34128C155.82178 275.68445 157.16493 274.34128 158.82178 274.34128C160.47864 274.34128 161.82178 275.68445 161.82178 277.34128Z" fill-rule="nonzero"/><path fill="#000000" fill-opacity="0.0" clip-path="url(#id_0)" d="M166.85544 289.33823C166.85544 290.9951 165.5123 292.33823 163.85544 292.33823C162.1986 292.33823 160.85544 290.9951 160.85544 289.33823C160.85544 287.6814 162.1986 286.33823 163.85544 286.33823C165.5123 286.33823 166.85544 287.6814 166.85544 289.33823Z" fill-rule="nonzero"/><path fill="#000000" fill-opacity="0.0" clip-path="url(#id_0)" d="M171.88911 302.1092C171.88911 303.76605 170.54596 305.1092 168.88911 305.1092C167.23225 305.1092 165.88911 303.76605 165.88911 302.1092C165.88911 300.45233 167.23225 299.1092 168.88911 299.1092C170.54596 299.1092 171.88911 300.45233 171.88911 302.1092Z" fill-rule="nonzero"/><path fill="#000000" fill-opacity="0.0" clip-path="url(#id_0)" d="M176.92278 315.6541C176.92278 317.31097 175.57962 318.6541 173.92278 318.6541C172.26591 318.6541 170.92278 317.31097 170.92278 315.6541C170.92278 313.99728 172.26591 312.6541 173.92278 312.6541C175.57962 312.6541 176.92278 313.99728 176.92278 315.6541Z" fill-rule="nonzero"/><path fill="#000000" fill-opacity="0.0" clip-path="url(#id_0)" d="M181.95644 312.70206C181.95644 314.35892 180.6133 315.70206 178.95644 315.70206C177.29958 315.70206 175.95644 314.35892 175.95644 312.70206C175.95644 311.0452 177.29958 309.70206 178.95644 309.70206C180.6133 309.70206 181.95644 311.0452 181.95644 312.70206Z" fill-rule="nonzero"/><path fill="#000000" fill-opacity="0.0" clip-path="url(#id_0)" d="M186.9901 306.686C186.9901 308.34286 185.64696 309.686 183.9901 309.686C182.33325 309.686 180.9901 308.34286 180.9901 306.686C180.9901 305.02914 182.33325 303.686 183.9901 303.686C185.64696 303.686 186.9901 305.02914 186.9901 306.686Z" fill-rule="nonzero"/><path fill="#000000" fill-opacity="0.0" clip-path="url(#id_0)" d="M192.02376 301.44394C192.02376 303.1008 190.68062 304.44394 189.02376 304.44394C187.36691 304.44394 186.02376 303.1008 186.02376 301.44394C186.02376 299.78708 187.36691 298.44394 189.02376 298.44394C190.68062 298.44394 192.02376 299.78708 192.02376 301.44394Z" fill-rule="nonzero"/><path fill="#000000" fill-opacity="0.0" clip-path="url(#id_0)" d="M197.05742 296.97586C197.05742 298.63272 195.71428 299.97586 194.05742 299.97586C192.40057 299.97586 191.05742 298.63272 191.05742 296.97586C191.05742 295.319 192.40057 293.97586 194.05742 293.97586C195.71428 293.97586 197.05742 295.319 197.05742 296.97586Z" fill-rule="nonzero"/><path fill="#000000" fill-opacity="0.0" clip-path="url(#id_0)" d="M202.0911 293.2818C202.0911 294.93863 200.74794 296.2818 199.0911 296.2818C197.43423 296.2818 196.0911 294.93863 196.0911 293.2818C196.0911 291.62494 197.43423 290.2818 199.0911 290.2818C200.74794 290.2818 202.0911 291.62494 202.0911 293.2818Z" fill-rule="nonzero"/><path fill="#000000" fill-opacity="0.0" clip-path="url(#id_0)" d="M207.12476 290.3617C207.12476 292.01855 205.7816 293.3617 204.12476 293.3617C202.4679 293.3617 201.12476 292.01855 201.12476 290.3617C201.12476 288.70486 202.4679 287.3617 204.12476 287.3617C205.7816 287.3617 207.12476 288.70486 207.12476 290.3617Z" fill-rule="nonzero"/><path fill="#000000" fill-opacity="0.0" clip-path="url(#id_0)" d="M212.15842 288.21564C212.15842 289.87247 210.81528 291.21564 209.15842 291.21564C207.50156 291.21564 206.15842 289.87247 206.15842 288.21564C206.15842 286.55878 207.50156 285.21564 209.15842 285.21564C210.81528 285.21564 212.15842 286.55878 212.15842 288.21564Z" fill-rule="nonzero"/><path fill="#000000" fill-opacity="0.0" clip-path="url(#id_0)" d="M217.19208 286.84354C217.19208 288.5004 215.84894 289.84354 214.19208 289.84354C212.53523 289.84354 211.19208 288.5004 211.19208 286.84354C211.19208 285.18668 212.53523 283.84354 214.19208 283.84354C215.84894 283.84354 217.19208 285.18668 217.19208 286.84354Z" fill-rule="nonzero"/><path fill="#000000" fill-opacity="0.0" clip-path="url(#id_0)" d="M222.22574 286.24545C222.22574 287.9023 220.8826 289.24545 219.22574 289.24545C217.5689 289.24545 216.22574 287.9023 216.22574 286.24545C216.22574 284.5886 217.5689 283.24545 219.22574 283.24545C220.8826 283.24545 222.22574 284.5886 222.22574 286.24545Z" fill-rule="nonzero"/><path fill="#000000" fill-opacity="0.0" clip-path="url(#id_0)" d="M227.2594 286.42136C227.2594 288.07822 225.91626 289.42136 224.2594 289.42136C222.60255 289.42136 221.2594 288.07822 221.2594 286.42136C221.2594 284.7645 222.60255 283.42136 224.2594 283.42136C225.91626 283.42136 227.2594 284.7645 227.2594 286.42136Z" fill-rule="nonzero"/><path fill="#000000" fill-opacity="0.0" clip-path="url(#id_0)" d="M232.29308 287.37128C232.29308 289.0281 230.94992 290.37128 229.29308 290.37128C227.63622 290.37128 226.29308 289.0281 226.29308 287.37128C226.29308 285.71442 227.63622 284.37128 229.29308 284.37128C230.94992 284.37128 232.29308 285.71442 232.29308 287.37128Z" fill-rule="nonzero"/><path fill="#000000" fill-opacity="0.0" clip-path="url(#id_0)" d="M237.32674 289.09515C237.32674 290.752 235.98358 292.09515 234.32674 292.09515C232.66988 292.09515 231.32674 290.752 231.32674 289.09515C231.32674 287.43832 232.66988 286.09515 234.32674 286.09515C235.98358 286.09515 237.32674 287.43832 237.32674 289.09515Z" fill-rule="nonzero"/><path fill="#000000" fill-opacity="0.0" clip-path="url(#id_0)" d="M242.3604 291.59308C242.3604 293.2499 241.01726 294.59308 239.3604 294.59308C237.70354 294.59308 236.3604 293.2499 236.3604 291.59308C236.3604 289.93622 237.70354 288.59308 239.3604 288.59308C241.01726 288.59308 242.3604 289.93622 242.3604 291.59308Z" fill-rule="nonzero"/><path fill="#000000" fill-opacity="0.0" clip-path="url(#id_0)" d="M247.39406 294.86496C247.39406 296.52182 246.05092 297.86496 244.39406 297.86496C242.7372 297.86496 241.39406 296.52182 241.39406 294.86496C241.39406 293.2081 242.7372 291.86496 244.39406 291.86496C246.05092 291.86496 247.39406 293.2081 247.39406 294.86496Z" fill-rule="nonzero"/><path fill="#000000" fill-opacity="0.0" clip-path="url(#id_0)" d="M252.42772 298.91086C252.42772 300.56772 251.08458 301.91086 249.42772 301.91086C247.77087 301.91086 246.42772 300.56772 246.42772 298.91086C246.42772 297.254 247.77087 295.91086 249.42772 295.91086C251.08458 295.91086 252.42772 297.254 252.42772 298.91086Z" fill-rule="nonzero"/><path fill="#000000" fill-opacity="0.0" clip-path="url(#id_0)" d="M257.4614 303.73074C257.4614 305.3876 256.11826 306.73074 254.46138 306.73074C252.80453 306.73074 251.46138 305.3876 251.46138 303.73074C251.46138 302.07388 252.80453 300.73074 254.46138 300.73074C256.11826 300.73074 257.4614 302.07388 257.4614 303.73074Z" fill-rule="nonzero"/><path fill="#000000" fill-opacity="0.0" clip-path="url(#id_0)" d="M262.49506 309.32462C262.49506 310.98148 261.15192 312.32462 259.49506 312.32462C257.8382 312.32462 256.49506 310.98148 256.49506 309.32462C256.49506 307.6678 257.8382 306.32462 259.49506 306.32462C261.15192 306.32462 262.49506 307.6678 262.49506 309.32462Z" fill-rule="nonzero"/><path fill="#000000" fill-opacity="0.0" clip-path="url(#id_0)" d="M267.52872 315.6925C267.52872 317.34937 266.18558 318.6925 264.52872 318.6925C262.87186 318.6925 261.52872 317.34937 261.52872 315.6925C261.52872 314.03564 262.87186 312.6925 264.52872 312.6925C266.18558 312.6925 267.52872 314.03564 267.52872 315.6925Z" fill-rule="nonzero"/><path fill="#000000" fill-opacity="0.0" clip-path="url(#id_0)" d="M272.56238 316.1179C272.56238 317.77475 271.21924 319.1179 269.56238 319.1179C267.90552 319.1179 266.56238 317.77475 266.56238 316.1179C266.56238 314.46103 267.90552 313.1179 269.56238 313.1179C271.21924 313.1179 272.56238 314.46103 272.56238 316.1179Z" fill-rule="nonzero"/><path fill="#000000" fill-opacity="0.0" clip-path="url(#id_0)" d="M277.59604 313.47925C277.59604 315.1361 276.2529 316.47925 274.59604 316.47925C272.93918 316.47925 271.59604 315.1361 271.59604 313.47925C271.59604 311.82242 272.93918 310.47925 274.59604 310.47925C276.2529 310.47925 277.59604 311.82242 277.59604 313.47925Z" fill-rule="nonzero"/><path fill="#000000" fill-opacity="0.0" clip-path="url(#id_0)" d="M282.6297 311.61462C282.6297 313.27148 281.28656 314.61462 279.6297 314.61462C277.97284 314.61462 276.6297 313.27148 276.6297 311.61462C276.6297 309.95776 277.97284 308.61462 279.6297 308.61462C281.28656 308.61462 282.6297 309.95776 282.6297 311.61462Z" fill-rule="nonzero"/><path fill="#000000" fill-opacity="0.0" clip-path="url(#id_0)" d="M287.66336 310.524C287.66336 312.18085 286.32022 313.524 284.66336 313.524C283.0065 313.524 281.66336 312.18085 281.66336 310.524C281.66336 308.86716 283.0065 307.524 284.66336 307.524C286.32022 307.524 287.66336 308.86716 287.66336 310.524Z" fill-rule="nonzero"/><path fill="#000000" fill-opacity="0.0" clip-path="url(#id_0)" d="M292.69702 310.20737C292.69702 311.86423 291.35388 313.20737 289.69702 313.20737C288.04016 313.20737 286.69702 311.86423 286.69702 310.20737C286.69702 308.5505 288.04016 307.20737 289.69702 307.20737C291.35388 307.20737 292.69702 308.5505 292.69702 310.20737Z" fill-rule="nonzero"/><path fill="#000000" fill-opacity="0.0" clip-path="url(#id_0)" d="M297.73068 310.66473C297.73068 312.3216 296.38754 313.66473 294.73068 313.66473C293.07385 313.66473 291.73068 312.3216 291.73068 310.66473C291.73068 309.00787 293.07385 307.66473 294.73068 307.66473C296.38754 307.66473 297.73068 309.00787 297.73068 310.66473Z" fill-rule="nonzero"/><path fill="#000000" fill-opacity="0.0" clip-path="url(#id_0)" d="M302.76434 311.8961C302.76434 313.55295 301.4212 314.8961 299.76434 314.8961C298.1075 314.8961 296.76434 313.55295 296.76434 311.8961C296.76434 310.23923 298.1075 308.8961 299.76434 308.8961C301.4212 308.8961 302.76434 310.23923 302.76434 311.8961Z" fill-rule="nonzero"/><path fill="#000000" fill-opacity="0.0" clip-path="url(#id_0)" d="M307.79803 313.90143C307.79803 315.5583 306.45486 316.90143 304.79803 316.90143C303.14117 316.90143 301.79803 315.5583 301.79803 313.90143C301.79803 312.2446 303.14117 310.90143 304.79803 310.90143C306.45486 310.90143 307.79803 312.2446 307.79803 313.90143Z" fill-rule="nonzero"/><path fill="#000000" fill-opacity="0.0" clip-path="url(#id_0)" d="M312.8317 316.6808C312.8317 318.33765 311.48853 319.6808 309.8317 319.6808C308.17484 319.6808 306.8317 318.33765 306.8317 316.6808C306.8317 315.02393 308.17484 313.6808 309.8317 313.6808C311.48853 313.6808 312.8317 315.02393 312.8317 316.6808Z" fill-rule="nonzero"/><path fill="#000000" fill-opacity="0.0" clip-path="url(#id_0)" d="M317.86536 317.35565C317.86536 319.01248 316.5222 320.35565 314.86536 320.35565C313.2085 320.35565 311.86536 319.01248 311.86536 317.35565C311.86536 315.6988 313.2085 314.35565 314.86536 314.35565C316.5222 314.35565 317.86536 315.6988 317.86536 317.35565Z" fill-rule="nonzero"/><path fill="#000000" fill-opacity="0.0" clip-path="url(#id_0)" d="M322.89902 316.40573C322.89902 318.0626 321.55588 319.40573 319.89902 319.40573C318.24216 319.40573 316.89902 318.0626 316.89902 316.40573C316.89902 314.74887 318.24216 313.40573 319.89902 313.40573C321.55588 313.40573 322.89902 314.74887 322.89902 316.40573Z" fill-rule="nonzero"/><path fill="#000000" fill-opacity="0.0" clip-path="url(#id_0)" d="M327.93268 316.22983C327.93268 317.8867 326.58954 319.22983 324.93268 319.22983C323.27582 319.22983 321.93268 317.8867 321.93268 316.22983C321.93268 314.57297 323.27582 313.22983 324.93268 313.22983C326.58954 313.22983 327.93268 314.57297 327.93268 316.22983Z" fill-rule="nonzero"/><path fill="#000000" fill-opacity="0.0" clip-path="url(#id_0)" d="M332.96634 316.8279C332.96634 318.48477 331.6232 319.8279 329.96634 319.8279C328.30948 319.8279 326.96634 318.48477 326.96634 316.8279C326.96634 315.17105 328.30948 313.8279 329.96634 313.8279C331.6232 313.8279 332.96634 315.17105 332.96634 316.8279Z" fill-rule="nonzero"/><path fill="#000000" fill-opacity="0.0" clip-path="url(#id_0)" d="M338.0 190.26666C338.0 191.92352 336.65686 193.26666 335.0 193.26666C333.34314 193.26666 332.0 191.92352 332.0 190.26666C332.0 188.60982 333.34314 187.26666 335.0 187.26666C336.65686 187.26666 338.0 188.60982 338.0 190.26666Z" fill-rule="nonzero"/><path fill="#000000" fill-opacity="0.0" clip-path="url(#id_0)" d="M343.03366 189.87967C343.03366 191.53653 341.69052 192.87967 340.03366 192.87967C338.3768 192.87967 337.03366 191.53653 337.03366 189.87967C337.03366 188.22281 338.3768 186.87967 340.03366 186.87967C341.69052 186.87967 343.03366 188.22281 343.03366 189.87967Z" fill-rule="nonzero"/><path fill="#000000" fill-opacity="0.0" clip-path="url(#id_0)" d="M348.06732 188.71867C348.06732 190.37553 346.72418 191.71867 345.06732 191.71867C343.41046 191.71867 342.06732 190.37553 342.06732 188.71867C342.06732 187.06181 343.41046 185.71867 345.06732 185.71867C346.72418 185.71867 348.06732 187.06181 348.06732 188.71867Z" fill-rule="nonzero"/><path fill="#000000" fill-opacity="0.0" clip-path="url(#id_0)" d="M353.10098 186.78368C353.10098 188.44054 351.75784 189.78368 350.10098 189.78368C348.44412 189.78368 347.10098 188.44054 347.10098 186.78368C347.10098 185.12683 348.44412 183.78368 350.10098 183.78368C351.75784 183.78368 353.10098 185.12683 353.10098 186.78368Z" fill-rule="nonzero"/><path fill="#000000" fill-opacity="0.0" clip-path="url(#id_0)" d="M358.13464 184.07469C358.13464 185.73155 356.7915 187.07469 355.13464 187.07469C353.4778 187.07469 352.13464 185.73155 352.13464 184.07469C352.13464 182.41785 353.4778 181.07469 355.13464 181.07469C356.7915 181.07469 358.13464 182.41785 358.13464 184.07469Z" fill-rule="nonzero"/><path fill="#000000" fill-opacity="0.0" clip-path="url(#id_0)" d="M363.1683 180.5917C363.1683 182.24857 361.82516 183.5917 360.1683 183.5917C358.51147 183.5917 357.1683 182.24857 357.1683 180.5917C357.1683 178.93486 358.51147 177.5917 360.1683 177.5917C361.82516 177.5917 363.1683 178.93486 363.1683 180.5917Z" fill-rule="nonzero"/><path fill="#000000" fill-opacity="0.0" clip-path="url(#id_0)" d="M368.20197 176.33473C368.20197 177.99158 366.85883 179.33473 365.20197 179.33473C363.54514 179.33473 362.20197 177.99158 362.20197 176.33473C362.20197 174.67787 363.54514 173.33473 365.20197 173.33473C366.85883 173.33473 368.20197 174.67787 368.20197 176.33473Z" fill-rule="nonzero"/><path fill="#000000" fill-opacity="0.0" clip-path="url(#id_0)" d="M373.23566 171.30374C373.23566 172.9606 371.8925 174.30374 370.23566 174.30374C368.5788 174.30374 367.23566 172.9606 367.23566 171.30374C367.23566 169.6469 368.5788 168.30374 370.23566 168.30374C371.8925 168.30374 373.23566 169.6469 373.23566 171.30374Z" fill-rule="nonzero"/><path fill="#000000" fill-opacity="0.0" clip-path="url(#id_0)" d="M378.26932 165.49878C378.26932 167.15562 376.92615 168.49878 375.26932 168.49878C373.61246 168.49878 372.26932 167.15562 372.26932 165.49878C372.26932 163.84192 373.61246 162.49878 375.26932 162.49878C376.92615 162.49878 378.26932 163.84192 378.26932 165.49878Z" fill-rule="nonzero"/><path fill="#000000" fill-opacity="0.0" clip-path="url(#id_0)" d="M383.30298 158.9198C383.30298 160.57666 381.95984 161.9198 380.30298 161.9198C378.64612 161.9198 377.30298 160.57666 377.30298 158.9198C377.30298 157.26295 378.64612 155.9198 380.30298 155.9198C381.95984 155.9198 383.30298 157.26295 383.30298 158.9198Z" fill-rule="nonzero"/><path fill="#000000" fill-opacity="0.0" clip-path="url(#id_0)" d="M388.33664 151.56683C388.33664 153.2237 386.9935 154.56683 385.33664 154.56683C383.67978 154.56683 382.33664 153.2237 382.33664 151.56683C382.33664 149.90997 383.67978 148.56683 385.33664 148.56683C386.9935 148.56683 388.33664 149.90997 388.33664 151.56683Z" fill-rule="nonzero"/><path fill="#000000" fill-opacity="0.0" clip-path="url(#id_0)" d="M393.3703 143.43987C393.3703 145.09673 392.02716 146.43987 390.3703 146.43987C388.71344 146.43987 387.3703 145.09673 387.3703 143.43987C387.3703 141.78302 388.71344 140.43987 390.3703 140.43987C392.02716 140.43987 393.3703 141.78302 393.3703 143.43987Z" fill-rule="nonzero"/><path fill="#000000" fill-opacity="0.0" clip-path="url(#id_0)" d="M398.40396 134.53891C398.40396 136.19576 397.06082 137.53891 395.40396 137.53891C393.7471 137.53891 392.40396 136.19576 392.40396 134.53891C392.40396 132.88205 393.7471 131.53891 395.40396 131.53891C397.06082 131.53891 398.40396 132.88205 398.40396 134.53891Z" fill-rule="nonzero"/><path fill="#000000" fill-opacity="0.0" clip-path="url(#id_0)" d="M403.43762 124.863945C403.43762 126.520805 402.09448 127.863945 400.43762 127.863945C398.78076 127.863945 397.43762 126.520805 397.43762 124.863945C397.43762 123.20709 398.78076 121.863945 400.43762 121.863945C402.09448 121.863945 403.43762 123.20709 403.43762 124.863945Z" fill-rule="nonzero"/><path fill="#000000" fill-opacity="0.0" clip-path="url(#id_0)" d="M408.47128 114.41499C408.47128 116.071846 407.12814 117.41499 405.47128 117.41499C403.81442 117.41499 402.47128 116.071846 402.47128 114.41499C402.47128 112.75814 403.81442 111.41499 405.47128 111.41499C407.12814 111.41499 408.47128 112.75814 408.47128 114.41499Z" fill-rule="nonzero"/><path fill="#000000" fill-opacity="0.0" clip-path="url(#id_0)" d="M413.50494 103.19204C413.50494 104.84889 412.1618 106.19204 410.50494 106.19204C408.84808 106.19204 407.50494 104.84889 407.50494 103.19204C407.50494 101.53519 408.84808 100.19204 410.50494 100.19204C412.1618 100.19204 413.50494 101.53519 413.50494 103.19204Z" fill-rule="nonzero"/><path fill="#000000" fill-opacity="0.0" clip-path="url(#id_0)" d="M418.5386 91.19509C418.5386 92.851944 417.19547 94.19509 415.5386 94.19509C413.88174 94.19509 412.5386 92.851944 412.5386 91.19509C412.5386 89.53824 413.88174 88.19509 415.5386 88.19509C417.19547 88.19509 418.5386 89.53824 418.5386 91.19509Z" fill-rule="nonzero"/><path fill="#000000" fill-opacity="0.0" clip-path="url(#id_0)" d="M423.57227 78.42415C423.57227 80.081 422.22913 81.42415 420.57227 81.42415C418.91544 81.42415 417.57227 80.081 417.57227 78.42415C417.57227 76.767296 418.91544 75.42415 420.57227 75.42415C422.22913 75.42415 423.57227 76.767296 423.57227 78.42415Z" fill-rule="nonzero"/><path fill="#000000" fill-opacity="0.0" clip-path="url(#id_0)" d="M428.60593 64.8792C428.60593 66.536064 427.2628 67.8792 425.60593 67.8792C423.9491 67.8792 422.60593 66.536064 422.60593 64.8792C422.60593 63.22235 423.9491 61.879208 425.60593 61.879208C427.2628 61.879208 428.60593 63.22235 428.60593 64.8792Z" fill-rule="nonzero"/><path fill="#000000" fill-opacity="0.0" clip-path="url(#id_0)" d="M433.63962 67.83127C433.63962 69.48812 432.29645 70.83127 430.63962 70.83127C428.98276 70.83127 427.63962 69.48812 427.63962 67.83127C427.63962 66.174416 428.98276 64.83127 430.63962 64.83127C432.29645 64.83127 433.63962 66.174416 433.63962 67.83127Z" fill-rule="nonzero"/><path fill="#000000" fill-opacity="0.0" clip-path="url(#id_0)" d="M438.67328 73.847336C438.67328 75.50419 437.3301 76.847336 435.67328 76.847336C434.01642 76.847336 432.67328 75.50419 432.67328 73.847336C432.67328 72.190475 434.01642 70.847336 435.67328 70.847336C437.3301 70.847336 438.67328 72.190475 438.67328 73.847336Z" fill-rule="nonzero"/><path fill="#000000" fill-opacity="0.0" clip-path="url(#id_0)" d="M443.70694 79.0894C443.70694 80.746254 442.3638 82.0894 440.70694 82.0894C439.05008 82.0894 437.70694 80.746254 437.70694 79.0894C437.70694 77.43255 439.05008 76.0894 440.70694 76.0894C442.3638 76.0894 443.70694 77.43255 443.70694 79.0894Z" fill-rule="nonzero"/><path fill="#000000" fill-opacity="0.0" clip-path="url(#id_0)" d="M448.7406 83.55747C448.7406 85.214325 447.39746 86.55747 445.7406 86.55747C444.08374 86.55747 442.7406 85.214325 442.7406 83.55747C442.7406 81.90062 444.08374 80.55747 445.7406 80.55747C447.39746 80.55747 448.7406 81.90062 448.7406 83.55747Z" fill-rule="nonzero"/><path fill="#000000" fill-opacity="0.0" clip-path="url(#id_0)" d="M453.77426 87.25155C453.77426 88.9084 452.43112 90.25155 450.77426 90.25155C449.1174 90.25155 447.77426 88.9084 447.77426 87.25155C447.77426 85.594696 449.1174 84.25155 450.77426 84.25155C452.43112 84.25155 453.77426 85.594696 453.77426 87.25155Z" fill-rule="nonzero"/><path fill="#000000" fill-opacity="0.0" clip-path="url(#id_0)" d="M458.80792 90.17162C458.80792 91.82848 457.46478 93.17162 455.80792 93.17162C454.15106 93.17162 452.80792 91.82848 452.80792 90.17162C452.80792 88.51477 454.15106 87.17162 455.80792 87.17162C457.46478 87.17162 458.80792 88.51477 458.80792 90.17162Z" fill-rule="nonzero"/><path fill="#000000" fill-opacity="0.0" clip-path="url(#id_0)" d="M463.84158 92.31771C463.84158 93.97456 462.49844 95.31771 460.84158 95.31771C459.18472 95.31771 457.84158 93.97456 457.84158 92.31771C457.84158 90.66085 459.18472 89.31771 460.84158 89.31771C462.49844 89.31771 463.84158 90.66085 463.84158 92.31771Z" fill-rule="nonzero"/><path fill="#000000" fill-opacity="0.0" clip-path="url(#id_0)" d="M468.87524 93.6898C468.87524 95.34665 467.5321 96.6898 465.87524 96.6898C464.21838 96.6898 462.87524 95.34665 462.87524 93.6898C462.87524 92.032936 464.21838 90.6898 465.87524 90.6898C467.5321 90.6898 468.87524 92.032936 468.87524 93.6898Z" fill-rule="nonzero"/><path fill="#000000" fill-opacity="0.0" clip-path="url(#id_0)" d="M473.9089 94.28788C473.9089 95.94473 472.56577 97.28788 470.9089 97.28788C469.25204 97.28788 467.9089 95.94473 467.9089 94.28788C467.9089 92.63103 469.25204 91.28788 470.9089 91.28788C472.56577 91.28788 473.9089 92.63103 473.9089 94.28788Z" fill-rule="nonzero"/><path fill="#000000" fill-opacity="0.0" clip-path="url(#id_0)" d="M478.94257 94.11198C478.94257 95.76883 477.59943 97.11198 475.94257 97.11198C474.2857 97.11198 472.94257 95.76883 472.94257 94.11198C472.94257 92.45512 474.2857 91.11198 475.94257 91.11198C477.59943 91.11198 478.94257 92.45512 478.94257 94.11198Z" fill-rule="nonzero"/><path fill="#000000" fill-opacity="0.0" clip-path="url(#id_0)" d="M483.97623 93.16207C483.97623 94.818924 482.6331 96.16207 480.97623 96.16207C479.3194 96.16207 477.97623 94.818924 477.97623 93.16207C477.97623 91.50521 479.3194 90.16207 480.97623 90.16207C482.6331 90.16207 483.97623 91.50521 483.97623 93.16207Z" fill-rule="nonzero"/><path fill="#000000" fill-opacity="0.0" clip-path="url(#id_0)" d="M489.0099 91.43816C489.0099 93.095024 487.66675 94.43816 486.0099 94.43816C484.35306 94.43816 483.0099 93.095024 483.0099 91.43816C483.0099 89.78131 484.35306 88.43816 486.0099 88.43816C487.66675 88.43816 489.0099 89.78131 489.0099 91.43816Z" fill-rule="nonzero"/><path fill="#000000" fill-opacity="0.0" clip-path="url(#id_0)" d="M494.04358 88.94027C494.04358 90.59712 492.7004 91.94027 491.04358 91.94027C489.38672 91.94027 488.04358 90.59712 488.04358 88.94027C488.04358 87.28342 489.38672 85.94027 491.04358 85.94027C492.7004 85.94027 494.04358 87.28342 494.04358 88.94027Z" fill-rule="nonzero"/><path fill="#000000" fill-opacity="0.0" clip-path="url(#id_0)" d="M499.07724 85.66837C499.07724 87.325226 497.73407 88.66837 496.07724 88.66837C494.42038 88.66837 493.07724 87.325226 493.07724 85.66837C493.07724 84.01152 494.42038 82.66837 496.07724 82.66837C497.73407 82.66837 499.07724 84.01152 499.07724 85.66837Z" fill-rule="nonzero"/><path fill="#000000" fill-opacity="0.0" clip-path="url(#id_0)" d="M504.1109 81.62248C504.1109 83.279335 502.76773 84.62248 501.1109 84.62248C499.45404 84.62248 498.1109 83.279335 498.1109 81.62248C498.1109 79.96563 499.45404 78.62248 501.1109 78.62248C502.76773 78.62248 504.1109 79.96563 504.1109 81.62248Z" fill-rule="nonzero"/><path fill="#000000" fill-opacity="0.0" clip-path="url(#id_0)" d="M509.14456 76.8026C509.14456 78.45945 507.80142 79.8026 506.14456 79.8026C504.4877 79.8026 503.14456 78.45945 503.14456 76.8026C503.14456 75.14574 504.4877 73.8026 506.14456 73.8026C507.80142 73.8026 509.14456 75.14574 509.14456 76.8026Z" fill-rule="nonzero"/><path fill="#000000" fill-opacity="0.0" clip-path="url(#id_0)" d="M514.1782 71.20871C514.1782 72.86556 512.8351 74.20871 511.17822 74.20871C509.52136 74.20871 508.17822 72.86556 508.17822 71.20871C508.17822 69.55186 509.52136 68.20871 511.17822 68.20871C512.8351 68.20871 514.1782 69.55186 514.1782 71.20871Z" fill-rule="nonzero"/><path fill="#000000" fill-opacity="0.0" clip-path="url(#id_0)" d="M519.21185 64.84083C519.21185 66.49768 517.8687 67.84083 516.21185 67.84083C514.55505 67.84083 513.21185 66.49768 513.21185 64.84083C513.21185 63.18397 514.55505 61.840828 516.21185 61.840828C517.8687 61.840828 519.21185 63.18397 519.21185 64.84083Z" fill-rule="nonzero"/><path fill="#000000" fill-opacity="0.0" clip-path="url(#id_0)" d="M524.24554 64.41545C524.24554 66.0723 522.9024 67.41545 521.24554 67.41545C519.5887 67.41545 518.24554 66.0723 518.24554 64.41545C518.24554 62.758595 519.5887 61.415447 521.24554 61.415447C522.9024 61.415447 524.24554 62.758595 524.24554 64.41545Z" fill-rule="nonzero"/><path fill="#000000" fill-opacity="0.0" clip-path="url(#id_0)" d="M529.27924 67.05407C529.27924 68.71093 527.93604 70.05407 526.27924 70.05407C524.6224 70.05407 523.27924 68.71093 523.27924 67.05407C523.27924 65.39722 524.6224 64.05407 526.27924 64.05407C527.93604 64.05407 529.27924 65.39722 529.27924 67.05407Z" fill-rule="nonzero"/><path fill="#000000" fill-opacity="0.0" clip-path="url(#id_0)" d="M534.31287 68.9187C534.31287 70.575554 532.9697 71.9187 531.31287 71.9187C529.656 71.9187 528.31287 70.575554 528.31287 68.9187C528.31287 67.26185 529.656 65.9187 531.31287 65.9187C532.9697 65.9187 534.31287 67.26185 534.31287 68.9187Z" fill-rule="nonzero"/><path fill="#000000" fill-opacity="0.0" clip-path="url(#id_0)" d="M539.34656 70.00933C539.34656 71.66619 538.0034 73.00933 536.34656 73.00933C534.6897 73.00933 533.34656 71.66619 533.34656 70.00933C533.34656 68.35248 534.6897 67.00933 536.34656 67.00933C538.0034 67.00933 539.34656 68.35248 539.34656 70.00933Z" fill-rule="nonzero"/><path fill="#000000" fill-opacity="0.0" clip-path="url(#id_0)" d="M544.3802 70.325966C544.3802 71.98283 543.03705 73.325966 541.3802 73.325966C539.7233 73.325966 538.3802 71.98283 538.3802 70.325966C538.3802 68.66911 539.7233 67.325966 541.3802 67.325966C543.03705 67.325966 544.3802 68.66911 544.3802 70.325966Z" fill-rule="nonzero"/><path fill="#000000" fill-opacity="0.0" clip-path="url(#id_0)" d="M549.4139 69.86861C549.4139 71.52546 548.07074 72.86861 546.4139 72.86861C544.757 72.86861 543.4139 71.52546 543.4139 69.86861C543.4139 68.211754 544.757 66.86861 546.4139 66.86861C548.07074 66.86861 549.4139 68.211754 549.4139 69.86861Z" fill-rule="nonzero"/><path fill="#000000" fill-opacity="0.0" clip-path="url(#id_0)" d="M554.4475 68.637245C554.4475 70.294106 553.1044 71.637245 551.4475 71.637245C549.79065 71.637245 548.4475 70.294106 548.4475 68.637245C548.4475 66.98039 549.79065 65.637245 551.4475 65.637245C553.1044 65.637245 554.4475 66.98039 554.4475 68.637245Z" fill-rule="nonzero"/><path fill="#000000" fill-opacity="0.0" clip-path="url(#id_0)" d="M559.4812 66.6319C559.4812 68.28875 558.13806 69.6319 556.4812 69.6319C554.82434 69.6319 553.4812 68.28875 553.4812 66.6319C553.4812 64.97504 554.82434 63.631893 556.4812 63.631893C558.13806 63.631893 559.4812 64.97504 559.4812 66.6319Z" fill-rule="nonzero"/><path fill="#000000" fill-opacity="0.0" clip-path="url(#id_0)" d="M564.51483 63.852543C564.51483 65.5094 563.1717 66.85254 561.51483 66.85254C559.858 66.85254 558.51483 65.5094 558.51483 63.852543C558.51483 62.195686 559.858 60.852543 561.51483 60.852543C563.1717 60.852543 564.51483 62.195686 564.51483 63.852543Z" fill-rule="nonzero"/><path fill="#000000" fill-opacity="0.0" clip-path="url(#id_0)" d="M569.5485 63.177692C569.5485 64.83455 568.2054 66.1777 566.5485 66.1777C564.89166 66.1777 563.5485 64.83455 563.5485 63.177692C563.5485 61.52084 564.89166 60.177692 566.5485 60.177692C568.2054 60.177692 569.5485 61.52084 569.5485 63.177692Z" fill-rule="nonzero"/><path fill="#000000" fill-opacity="0.0" clip-path="url(#id_0)" d="M574.58215 64.1276C574.58215 65.784454 573.239 67.1276 571.58215 67.1276C569.92535 67.1276 568.58215 65.784454 568.58215 64.1276C568.58215 62.470745 569.92535 61.127598 571.58215 61.127598C573.239 61.127598 574.58215 62.470745 574.58215 64.1276Z" fill-rule="nonzero"/><path fill="#000000" fill-opacity="0.0" clip-path="url(#id_0)" d="M579.61584 64.303505C579.61584 65.96036 578.2727 67.303505 576.61584 67.303505C574.959 67.303505 573.61584 65.96036 573.61584 64.303505C573.61584 62.646652 574.959 61.303505 576.61584 61.303505C578.2727 61.303505 579.61584 62.646652 579.61584 64.303505Z" fill-rule="nonzero"/><path fill="#000000" fill-opacity="0.0" clip-path="url(#id_0)" d="M584.6495 63.705418C584.6495 65.362274 583.30634 66.70542 581.6495 66.70542C579.9927 66.70542 578.6495 65.362274 578.6495 63.705418C578.6495 62.048565 579.9927 60.705418 581.6495 60.705418C583.30634 60.705418 584.6495 62.048565 584.6495 63.705418Z" fill-rule="nonzero"/><path fill="#000000" fill-opacity="0.0" clip-path="url(#id_0)" d="M589.68317 62.333332C589.68317 63.99019 588.34 65.333336 586.68317 65.333336C585.0263 65.333336 583.68317 63.99019 583.68317 62.333332C583.68317 60.67648 585.0263 59.333332 586.68317 59.333332C588.34 59.333332 589.68317 60.67648 589.68317 62.333332Z" fill-rule="nonzero"/><path fill="#000000" d="M336.59375 353.2625L336.75 354.1844Q336.29688 354.27814 335.95312 354.27814Q335.375 354.27814 335.0625 354.10626Q334.75 353.91876 334.60938 353.6219Q334.48438 353.325 334.48438 352.3719L334.48438 348.79376L333.71875 348.79376L333.71875 347.98126L334.48438 347.98126L334.48438 346.4344L335.53125 345.8094L335.53125 347.98126L336.59375 347.98126L336.59375 348.79376L335.53125 348.79376L335.53125 352.4344Q335.53125 352.8875 335.57812 353.0125Q335.64062 353.1375 335.76562 353.21564Q335.89062 353.29376 336.125 353.29376Q336.3125 353.29376 336.59375 353.2625Z" fill-rule="nonzero"/><path fill="#000000" d="M29.800013 192.67291L26.565638 190.40729L23.581263 192.50104L23.581263 191.18854L25.034388 190.23541Q25.456263 189.96979 25.737513 189.79791Q25.346888 189.54791 25.050013 189.32916L23.581263 188.28229L23.581263 187.01666L26.503138 189.17291L29.800013 186.86041L29.800013 188.14166L27.862513 189.42291L27.346888 189.76666L29.800013 191.40729L29.800013 192.67291Z" fill-rule="nonzero"/><path fill="#000000" d="M51.3 317.96564Q51.3 316.4344 51.6125 315.5125Q51.925 314.575 52.534374 314.075Q53.159374 313.575 54.096874 313.575Q54.784374 313.575 55.3 313.85626Q55.83125 314.1375 56.175 314.66876Q56.51875 315.1844 56.70625 315.9344Q56.89375 316.6844 56.89375 317.96564Q56.89375 319.48126 56.58125 320.40314Q56.284374 321.325 55.659374 321.84064Q55.05 322.34064 54.096874 322.34064Q52.8625 322.34064 52.14375 321.45Q51.3 320.3875 51.3 317.96564ZM52.378124 317.96564Q52.378124 320.075 52.878124 320.77814Q53.378124 321.48126 54.096874 321.48126Q54.83125 321.48126 55.315624 320.77814Q55.815624 320.075 55.815624 317.96564Q55.815624 315.84064 55.315624 315.15314Q54.83125 314.45 54.08125 314.45Q53.3625 314.45 52.925 315.0594Q52.378124 315.84064 52.378124 317.96564ZM58.89375 322.2L58.89375 320.9969L60.096874 320.9969L60.096874 322.2L58.89375 322.2ZM61.3 317.96564Q61.3 316.4344 61.6125 315.5125Q61.925 314.575 62.534374 314.075Q63.159374 313.575 64.09688 313.575Q64.78438 313.575 65.3 313.85626Q65.83125 314.1375 66.175 314.66876Q66.51875 315.1844 66.70625 315.9344Q66.89375 316.6844 66.89375 317.96564Q66.89375 319.48126 66.58125 320.40314Q66.28438 321.325 65.65938 321.84064Q65.05 322.34064 64.09688 322.34064Q62.8625 322.34064 62.14375 321.45Q61.3 320.3875 61.3 317.96564ZM62.378124 317.96564Q62.378124 320.075 62.878124 320.77814Q63.378124 321.48126 64.09688 321.48126Q64.83125 321.48126 65.31563 320.77814Q65.81563 320.075 65.81563 317.96564Q65.81563 315.84064 65.31563 315.15314Q64.83125 314.45 64.08125 314.45Q63.3625 314.45 62.925 315.0594Q62.378124 315.84064 62.378124 317.96564ZM68.3 317.96564Q68.3 316.4344 68.6125 315.5125Q68.925 314.575 69.53438 314.075Q70.15938 313.575 71.09688 313.575Q71.78438 313.575 72.3 313.85626Q72.83125 314.1375 73.175 314.66876Q73.51875 315.1844 73.70625 315.9344Q73.89375 316.6844 73.89375 317.96564Q73.89375 319.48126 73.58125 320.40314Q73.28438 321.325 72.65938 321.84064Q72.05 322.34064 71.09688 322.34064Q69.8625 322.34064 69.14375 321.45Q68.3 320.3875 68.3 317.96564ZM69.37813 317.96564Q69.37813 320.075 69.87813 320.77814Q70.37813 321.48126 71.09688 321.48126Q71.83125 321.48126 72.31563 320.77814Q72.81563 320.075 72.81563 317.96564Q72.81563 315.84064 72.31563 315.15314Q71.83125 314.45 71.08125 314.45Q70.3625 314.45 69.925 315.0594Q69.37813 315.84064 69.37813 317.96564Z" fill-rule="nonzero"/><path fill="#000000" d="M51.3 253.99896Q51.3 252.46771 51.6125 251.54584Q51.925 250.60834 52.534374 250.10834Q53.159374 249.60834 54.096874 249.60834Q54.784374 249.60834 55.3 249.88959Q55.83125 250.17084 56.175 250.70209Q56.51875 251.21771 56.70625 251.96771Q56.89375 252.71771 56.89375 253.99896Q56.89375 255.51459 56.58125 256.43646Q56.284374 257.35834 55.659374 257.87396Q55.05 258.37396 54.096874 258.37396Q52.8625 258.37396 52.14375 257.48334Q51.3 256.42084 51.3 253.99896ZM52.378124 253.99896Q52.378124 256.10834 52.878124 256.81146Q53.378124 257.5146 54.096874 257.5146Q54.83125 257.5146 55.315624 256.81146Q55.815624 256.10834 55.815624 253.99896Q55.815624 251.87396 55.315624 251.18646Q54.83125 250.48334 54.08125 250.48334Q53.3625 250.48334 52.925 251.09271Q52.378124 251.87396 52.378124 253.99896ZM58.89375 258.23334L58.89375 257.0302L60.096874 257.0302L60.096874 258.23334L58.89375 258.23334ZM66.84688 257.2177L66.84688 258.23334L61.159374 258.23334Q61.159374 257.85834 61.284374 257.49896Q61.503124 256.92084 61.971874 256.35834Q62.45625 255.79584 63.3625 255.06146Q64.76875 253.90521 65.25313 253.23334Q65.75313 252.56146 65.75313 251.96771Q65.75313 251.34271 65.3 250.92084Q64.84688 250.48334 64.12813 250.48334Q63.3625 250.48334 62.909374 250.93646Q62.45625 251.38959 62.440624 252.20209L61.3625 252.09271Q61.471874 250.87396 62.190624 250.24896Q62.925 249.60834 64.15938 249.60834Q65.39375 249.60834 66.1125 250.29584Q66.83125 250.98334 66.83125 251.99896Q66.83125 252.51459 66.6125 253.01459Q66.40938 253.49896 65.90938 254.06146Q65.425 254.60834 64.3 255.56146Q63.346874 256.35834 63.065624 256.6552Q62.8 256.93646 62.628124 257.2177L66.84688 257.2177ZM68.3 255.98334L69.40938 255.88959Q69.53438 256.7021 69.97188 257.10834Q70.425 257.5146 71.06563 257.5146Q71.81563 257.5146 72.34688 256.93646Q72.87813 256.35834 72.87813 255.42084Q72.87813 254.51459 72.3625 253.99896Q71.8625 253.46771 71.03438 253.46771Q70.53438 253.46771 70.1125 253.70209Q69.70625 253.93646 69.47188 254.29584L68.4875 254.17084L69.31563 249.76459L73.59688 249.76459L73.59688 250.76459L70.15938 250.76459L69.70625 253.07709Q70.47188 252.53021 71.31563 252.53021Q72.44063 252.53021 73.20625 253.31146Q73.9875 254.09271 73.9875 255.32709Q73.9875 256.48334 73.31563 257.3427Q72.4875 258.37396 71.06563 258.37396Q69.89375 258.37396 69.14375 257.7177Q68.40938 257.06146 68.3 255.98334Z" fill-rule="nonzero"/><path fill="#000000" d="M51.3 190.03229Q51.3 188.50104 51.6125 187.57916Q51.925 186.64166 52.534374 186.14166Q53.159374 185.64166 54.096874 185.64166Q54.784374 185.64166 55.3 185.92291Q55.83125 186.20416 56.175 186.73541Q56.51875 187.25104 56.70625 188.00104Q56.89375 188.75104 56.89375 190.03229Q56.89375 191.54791 56.58125 192.46979Q56.284374 193.39166 55.659374 193.90729Q55.05 194.40729 54.096874 194.40729Q52.8625 194.40729 52.14375 193.51666Q51.3 192.45416 51.3 190.03229ZM52.378124 190.03229Q52.378124 192.14166 52.878124 192.84479Q53.378124 193.54791 54.096874 193.54791Q54.83125 193.54791 55.315624 192.84479Q55.815624 192.14166 55.815624 190.03229Q55.815624 187.90729 55.315624 187.21979Q54.83125 186.51666 54.08125 186.51666Q53.3625 186.51666 52.925 187.12604Q52.378124 187.90729 52.378124 190.03229ZM58.89375 194.26666L58.89375 193.06354L60.096874 193.06354L60.096874 194.26666L58.89375 194.26666ZM61.3 192.01666L62.409374 191.92291Q62.534374 192.73541 62.971874 193.14166Q63.425 193.54791 64.06563 193.54791Q64.81563 193.54791 65.34688 192.96979Q65.87813 192.39166 65.87813 191.45416Q65.87813 190.54791 65.3625 190.03229Q64.8625 189.50104 64.03438 189.50104Q63.534374 189.50104 63.1125 189.73541Q62.70625 189.96979 62.471874 190.32916L61.4875 190.20416L62.315624 185.79791L66.59688 185.79791L66.59688 186.79791L63.159374 186.79791L62.70625 189.11041Q63.471874 188.56354 64.31563 188.56354Q65.44063 188.56354 66.20625 189.34479Q66.9875 190.12604 66.9875 191.36041Q66.9875 192.51666 66.31563 193.37604Q65.4875 194.40729 64.06563 194.40729Q62.89375 194.40729 62.14375 193.75104Q61.409374 193.09479 61.3 192.01666ZM68.3 190.03229Q68.3 188.50104 68.6125 187.57916Q68.925 186.64166 69.53438 186.14166Q70.15938 185.64166 71.09688 185.64166Q71.78438 185.64166 72.3 185.92291Q72.83125 186.20416 73.175 186.73541Q73.51875 187.25104 73.70625 188.00104Q73.89375 188.75104 73.89375 190.03229Q73.89375 191.54791 73.58125 192.46979Q73.28438 193.39166 72.65938 193.90729Q72.05 194.40729 71.09688 194.40729Q69.8625 194.40729 69.14375 193.51666Q68.3 192.45416 68.3 190.03229ZM69.37813 190.03229Q69.37813 192.14166 69.87813 192.84479Q70.37813 193.54791 71.09688 193.54791Q71.83125 193.54791 72.31563 192.84479Q72.81563 192.14166 72.81563 190.03229Q72.81563 187.90729 72.31563 187.21979Q71.83125 186.51666 71.08125 186.51666Q70.3625 186.51666 69.925 187.12604Q69.37813 187.90729 69.37813 190.03229Z" fill-rule="nonzero"/><path fill="#000000" d="M51.3 126.06563Q51.3 124.53438 51.6125 123.6125Q51.925 122.675 52.534374 122.175Q53.159374 121.675 54.096874 121.675Q54.784374 121.675 55.3 121.95625Q55.83125 122.2375 56.175 122.76875Q56.51875 123.28438 56.70625 124.03438Q56.89375 124.78438 56.89375 126.06563Q56.89375 127.58125 56.58125 128.50313Q56.284374 129.425 55.659374 129.94063Q55.05 130.44063 54.096874 130.44063Q52.8625 130.44063 52.14375 129.55Q51.3 128.4875 51.3 126.06563ZM52.378124 126.06563Q52.378124 128.175 52.878124 128.87813Q53.378124 129.58125 54.096874 129.58125Q54.83125 129.58125 55.315624 128.87813Q55.815624 128.175 55.815624 126.06563Q55.815624 123.94063 55.315624 123.25313Q54.83125 122.55 54.08125 122.55Q53.3625 122.55 52.925 123.15938Q52.378124 123.94063 52.378124 126.06563ZM58.89375 130.3L58.89375 129.09688L60.096874 129.09688L60.096874 130.3L58.89375 130.3ZM61.3625 122.83125L61.3625 121.81563L66.925 121.81563L66.925 122.64375Q66.1125 123.51875 65.3 124.97188Q64.50313 126.40938 64.06563 127.94063Q63.7375 129.01875 63.659374 130.3L62.565624 130.3Q62.58125 129.28438 62.95625 127.84688Q63.346874 126.40938 64.05 125.08125Q64.76875 123.75313 65.58125 122.83125L61.3625 122.83125ZM68.3 128.05L69.40938 127.95625Q69.53438 128.76875 69.97188 129.175Q70.425 129.58125 71.06563 129.58125Q71.81563 129.58125 72.34688 129.00313Q72.87813 128.425 72.87813 127.4875Q72.87813 126.58125 72.3625 126.06563Q71.8625 125.53438 71.03438 125.53438Q70.53438 125.53438 70.1125 125.76875Q69.70625 126.00313 69.47188 126.3625L68.4875 126.2375L69.31563 121.83125L73.59688 121.83125L73.59688 122.83125L70.15938 122.83125L69.70625 125.14375Q70.47188 124.59688 71.31563 124.59688Q72.44063 124.59688 73.20625 125.37813Q73.9875 126.15938 73.9875 127.39375Q73.9875 128.55 73.31563 129.40938Q72.4875 130.44063 71.06563 130.44063Q69.89375 130.44063 69.14375 129.78438Q68.40938 129.12813 68.3 128.05Z" fill-rule="nonzero"/><path fill="#000000" d="M55.26875 66.333336L54.221874 66.333336L54.221874 59.614586Q53.83125 59.97396 53.20625 60.34896Q52.596874 60.708336 52.1125 60.88021L52.1125 59.864586Q52.9875 59.44271 53.64375 58.864586Q54.315624 58.270836 54.596874 57.708336L55.26875 57.708336L55.26875 66.333336ZM58.89375 66.333336L58.89375 65.13021L60.096874 65.13021L60.096874 66.333336L58.89375 66.333336ZM61.3 62.09896Q61.3 60.56771 61.6125 59.645836Q61.925 58.708336 62.534374 58.208336Q63.159374 57.708336 64.09688 57.708336Q64.78438 57.708336 65.3 57.989586Q65.83125 58.270836 66.175 58.802086Q66.51875 59.31771 66.70625 60.06771Q66.89375 60.81771 66.89375 62.09896Q66.89375 63.614586 66.58125 64.53646Q66.28438 65.458336 65.65938 65.97396Q65.05 66.47396 64.09688 66.47396Q62.8625 66.47396 62.14375 65.583336Q61.3 64.520836 61.3 62.09896ZM62.378124 62.09896Q62.378124 64.208336 62.878124 64.91146Q63.378124 65.614586 64.09688 65.614586Q64.83125 65.614586 65.31563 64.91146Q65.81563 64.208336 65.81563 62.09896Q65.81563 59.97396 65.31563 59.28646Q64.83125 58.583336 64.08125 58.583336Q63.3625 58.583336 62.925 59.19271Q62.378124 59.97396 62.378124 62.09896ZM68.3 62.09896Q68.3 60.56771 68.6125 59.645836Q68.925 58.708336 69.53438 58.208336Q70.15938 57.708336 71.09688 57.708336Q71.78438 57.708336 72.3 57.989586Q72.83125 58.270836 73.175 58.802086Q73.51875 59.31771 73.70625 60.06771Q73.89375 60.81771 73.89375 62.09896Q73.89375 63.614586 73.58125 64.53646Q73.28438 65.458336 72.65938 65.97396Q72.05 66.47396 71.09688 66.47396Q69.8625 66.47396 69.14375 65.583336Q68.3 64.520836 68.3 62.09896ZM69.37813 62.09896Q69.37813 64.208336 69.87813 64.91146Q70.37813 65.614586 71.09688 65.614586Q71.83125 65.614586 72.31563 64.91146Q72.81563 64.208336 72.81563 62.09896Q72.81563 59.97396 72.31563 59.28646Q71.83125 58.583336 71.08125 58.583336Q70.3625 58.583336 69.925 59.19271Q69.37813 59.97396 69.37813 62.09896Z" fill-rule="nonzero"/><path fill="#757575" d="M20.378124 37.8L20.378124 23.4875L30.7375 23.4875L30.7375 25.175L22.284374 25.175L22.284374 29.55L30.190624 29.55L30.190624 31.2375L22.284374 31.2375L22.284374 36.1125L31.065624 36.1125L31.065624 37.8L20.378124 37.8ZM39.89375 36.51875Q38.909374 37.346874 38.003124 37.690624Q37.096874 38.034374 36.065624 38.034374Q34.3625 38.034374 33.440624 37.20625Q32.51875 36.3625 32.51875 35.065624Q32.51875 34.3 32.8625 33.675Q33.221874 33.05 33.784374 32.675Q34.346874 32.284374 35.05 32.08125Q35.565624 31.95625 36.6125 31.815624Q38.7375 31.565624 39.7375 31.221874Q39.753124 30.8625 39.753124 30.753124Q39.753124 29.690624 39.253124 29.2375Q38.58125 28.64375 37.253124 28.64375Q36.003124 28.64375 35.409374 29.08125Q34.83125 29.51875 34.55 30.628124L32.83125 30.39375Q33.065624 29.284374 33.596874 28.6125Q34.128124 27.925 35.14375 27.565624Q36.159374 27.190624 37.503124 27.190624Q38.83125 27.190624 39.659374 27.503124Q40.4875 27.815624 40.878124 28.3Q41.26875 28.76875 41.425 29.4875Q41.51875 29.940624 41.51875 31.1125L41.51875 33.45625Q41.51875 35.909374 41.628124 36.565624Q41.7375 37.20625 42.08125 37.8L40.2375 37.8Q39.971874 37.253124 39.89375 36.51875ZM39.7375 32.596874Q38.784374 32.9875 36.8625 33.253124Q35.784374 33.409374 35.33125 33.6125Q34.89375 33.8 34.64375 34.175Q34.39375 34.55 34.39375 35.01875Q34.39375 35.721874 34.925 36.190624Q35.45625 36.659374 36.4875 36.659374Q37.503124 36.659374 38.284374 36.221874Q39.08125 35.76875 39.45625 35.003124Q39.7375 34.39375 39.7375 33.2375L39.7375 32.596874ZM43.409374 34.70625L45.159374 34.425Q45.3 35.471874 45.971874 36.034374Q46.64375 36.58125 47.846874 36.58125Q49.05 36.58125 49.628124 36.096874Q50.221874 35.596874 50.221874 34.940624Q50.221874 34.346874 49.70625 34.003124Q49.346874 33.76875 47.909374 33.409374Q45.971874 32.909374 45.221874 32.565624Q44.4875 32.20625 44.096874 31.58125Q43.70625 30.940624 43.70625 30.175Q43.70625 29.4875 44.01875 28.89375Q44.346874 28.3 44.89375 27.909374Q45.3 27.6125 46.003124 27.409374Q46.721874 27.190624 47.534374 27.190624Q48.753124 27.190624 49.675 27.55Q50.596874 27.89375 51.034374 28.503124Q51.471874 29.096874 51.64375 30.096874L49.925 30.33125Q49.8 29.534374 49.2375 29.096874Q48.675 28.64375 47.659374 28.64375Q46.440624 28.64375 45.925 29.05Q45.409374 29.440624 45.409374 29.971874Q45.409374 30.315624 45.628124 30.596874Q45.83125 30.878124 46.3 31.065624Q46.565624 31.159374 47.846874 31.503124Q49.721874 32.003124 50.45625 32.33125Q51.190624 32.64375 51.6125 33.253124Q52.034374 33.846874 52.034374 34.753124Q52.034374 35.628124 51.51875 36.409374Q51.003124 37.190624 50.034374 37.6125Q49.065624 38.034374 47.846874 38.034374Q45.83125 38.034374 44.76875 37.190624Q43.70625 36.346874 43.409374 34.70625ZM61.221874 34.45625L63.034374 34.690624Q62.6125 36.26875 61.440624 37.159374Q60.284374 38.034374 58.471874 38.034374Q56.20625 38.034374 54.8625 36.64375Q53.534374 35.2375 53.534374 32.70625Q53.534374 30.08125 54.878124 28.64375Q56.221874 27.190624 58.378124 27.190624Q60.45625 27.190624 61.76875 28.6125Q63.096874 30.01875 63.096874 32.596874Q63.096874 32.753124 63.08125 33.065624L55.346874 33.065624Q55.440624 34.76875 56.315624 35.675Q57.190624 36.58125 58.4875 36.58125Q59.45625 36.58125 60.128124 36.08125Q60.815624 35.565624 61.221874 34.45625ZM55.440624 31.6125L61.2375 31.6125Q61.128124 30.315624 60.58125 29.659374Q59.7375 28.64375 58.39375 28.64375Q57.190624 28.64375 56.3625 29.45625Q55.534374 30.253124 55.440624 31.6125ZM65.65938 37.8L65.65938 23.4875L67.56563 23.4875L67.56563 37.8L65.65938 37.8ZM71.1125 37.8L71.1125 27.425L72.70625 27.425L72.70625 28.909374Q73.84688 27.190624 76.00313 27.190624Q76.94063 27.190624 77.72188 27.534374Q78.51875 27.8625 78.90938 28.409374Q79.3 28.95625 79.45625 29.70625Q79.55 30.20625 79.55 31.425L79.55 37.8L77.78438 37.8L77.78438 31.4875Q77.78438 30.409374 77.58125 29.878124Q77.37813 29.346874 76.84688 29.034374Q76.33125 28.721874 75.62813 28.721874Q74.50313 28.721874 73.69063 29.440624Q72.87813 30.14375 72.87813 32.128124L72.87813 37.8L71.1125 37.8ZM80.76875 30.83125Q80.76875 27.26875 82.675 25.253124Q84.59688 23.221874 87.62813 23.221874Q89.6125 23.221874 91.19063 24.175Q92.78438 25.128124 93.6125 26.83125Q94.45625 28.51875 94.45625 30.659374Q94.45625 32.83125 93.58125 34.55Q92.70625 36.26875 91.08125 37.159374Q89.47188 38.05 87.6125 38.05Q85.59688 38.05 84.00313 37.08125Q82.40938 36.096874 81.58125 34.409374Q80.76875 32.70625 80.76875 30.83125ZM82.72188 30.8625Q82.72188 33.440624 84.1125 34.940624Q85.50313 36.425 87.59688 36.425Q89.7375 36.425 91.1125 34.925Q92.50313 33.409374 92.50313 30.64375Q92.50313 28.909374 91.90938 27.6125Q91.33125 26.3 90.19063 25.58125Q89.05 24.8625 87.62813 24.8625Q85.62813 24.8625 84.175 26.253124Q82.72188 27.628124 82.72188 30.8625ZM103.90938 37.8L103.90938 36.26875Q102.70625 38.034374 100.62813 38.034374Q99.70625 38.034374 98.90938 37.690624Q98.1125 37.33125 97.72188 36.8Q97.34688 36.26875 97.19063 35.4875Q97.08125 34.971874 97.08125 33.846874L97.08125 27.425L98.83125 27.425L98.83125 33.175Q98.83125 34.55 98.94063 35.034374Q99.1125 35.721874 99.64375 36.128124Q100.19063 36.51875 100.97188 36.51875Q101.76875 36.51875 102.45625 36.1125Q103.15938 35.70625 103.44063 35.01875Q103.7375 34.315624 103.7375 32.9875L103.7375 27.425L105.4875 27.425L105.4875 37.8L103.90938 37.8ZM110.95625 36.221874L111.20625 37.784374Q110.47188 37.940624 109.87813 37.940624Q108.925 37.940624 108.39375 37.64375Q107.87813 37.33125 107.65938 36.846874Q107.44063 36.346874 107.44063 34.76875L107.44063 28.8L106.15938 28.8L106.15938 27.425L107.44063 27.425L107.44063 24.8625L109.19063 23.8L109.19063 27.425L110.95625 27.425L110.95625 28.8L109.19063 28.8L109.19063 34.8625Q109.19063 35.6125 109.28438 35.83125Q109.37813 36.034374 109.58125 36.175Q109.8 36.3 110.19063 36.3Q110.47188 36.3 110.95625 36.221874ZM113.26875 37.8L113.26875 23.4875L118.64375 23.4875Q120.28438 23.4875 121.26875 23.925Q122.25313 24.346874 122.81563 25.253124Q123.37813 26.159374 123.37813 27.14375Q123.37813 28.065624 122.87813 28.878124Q122.39375 29.690624 121.37813 30.175Q122.675 30.565624 123.37813 31.4875Q124.08125 32.39375 124.08125 33.64375Q124.08125 34.659374 123.64375 35.51875Q123.22188 36.378124 122.59688 36.846874Q121.97188 37.315624 121.03438 37.565624Q120.09688 37.8 118.72188 37.8L113.26875 37.8ZM115.15938 29.503124L118.25313 29.503124Q119.51875 29.503124 120.06563 29.33125Q120.78438 29.1125 121.14375 28.628124Q121.51875 28.128124 121.51875 27.3625Q121.51875 26.659374 121.175 26.1125Q120.83125 25.565624 120.19063 25.378124Q119.56563 25.175 118.01875 25.175L115.15938 25.175L115.15938 29.503124ZM115.15938 36.1125L118.72188 36.1125Q119.64375 36.1125 120.01875 36.034374Q120.675 35.925 121.1125 35.659374Q121.55 35.378124 121.83125 34.8625Q122.1125 34.33125 122.1125 33.64375Q122.1125 32.846874 121.70625 32.253124Q121.3 31.659374 120.56563 31.425Q119.83125 31.190624 118.47188 31.190624L115.15938 31.190624L115.15938 36.1125ZM125.47188 32.6125Q125.47188 29.7375 127.06563 28.346874Q128.40938 27.190624 130.33125 27.190624Q132.47188 27.190624 133.81563 28.596874Q135.175 30.003124 135.175 32.471874Q135.175 34.471874 134.58125 35.628124Q133.9875 36.76875 132.83125 37.409374Q131.69063 38.034374 130.33125 38.034374Q128.14375 38.034374 126.8 36.64375Q125.47188 35.2375 125.47188 32.6125ZM127.26875 32.6125Q127.26875 34.6125 128.12813 35.596874Q129.00313 36.58125 130.33125 36.58125Q131.64375 36.58125 132.50313 35.596874Q133.37813 34.596874 133.37813 32.55Q133.37813 30.628124 132.50313 29.64375Q131.62813 28.64375 130.33125 28.64375Q129.00313 28.64375 128.12813 29.64375Q127.26875 30.628124 127.26875 32.6125ZM143.90938 37.8L143.90938 36.26875Q142.70625 38.034374 140.62813 38.034374Q139.70625 38.034374 138.90938 37.690624Q138.1125 37.33125 137.72188 36.8Q137.34688 36.26875 137.19063 35.4875Q137.08125 34.971874 137.08125 33.846874L137.08125 27.425L138.83125 27.425L138.83125 33.175Q138.83125 34.55 138.94063 35.034374Q139.1125 35.721874 139.64375 36.128124Q140.19063 36.51875 140.97188 36.51875Q141.76875 36.51875 142.45625 36.1125Q143.15938 35.70625 143.44063 35.01875Q143.7375 34.315624 143.7375 32.9875L143.7375 27.425L145.4875 27.425L145.4875 37.8L143.90938 37.8ZM147.1125 37.8L147.1125 27.425L148.70625 27.425L148.70625 28.909374Q149.84688 27.190624 152.00313 27.190624Q152.94063 27.190624 153.72188 27.534374Q154.51875 27.8625 154.90938 28.409374Q155.3 28.95625 155.45625 29.70625Q155.55 30.20625 155.55 31.425L155.55 37.8L153.78438 37.8L153.78438 31.4875Q153.78438 30.409374 153.58125 29.878124Q153.37813 29.346874 152.84688 29.034374Q152.33125 28.721874 151.62813 28.721874Q150.50313 28.721874 149.69063 29.440624Q148.87813 30.14375 148.87813 32.128124L148.87813 37.8L147.1125 37.8ZM163.89375 34.003124L165.6125 34.221874Q165.33125 36.01875 164.15938 37.034374Q163.00313 38.034374 161.3 38.034374Q159.175 38.034374 157.87813 36.64375Q156.58125 35.253124 156.58125 32.659374Q156.58125 30.971874 157.12813 29.721874Q157.69063 28.45625 158.83125 27.83125Q159.97188 27.190624 161.31563 27.190624Q163.00313 27.190624 164.06563 28.05Q165.14375 28.909374 165.45625 30.471874L163.7375 30.7375Q163.50313 29.690624 162.87813 29.175Q162.25313 28.64375 161.37813 28.64375Q160.05 28.64375 159.22188 29.596874Q158.39375 30.55 158.39375 32.596874Q158.39375 34.690624 159.19063 35.64375Q159.9875 36.58125 161.28438 36.58125Q162.31563 36.58125 163.00313 35.95625Q163.70625 35.315624 163.89375 34.003124ZM174.22188 34.45625L176.03438 34.690624Q175.6125 36.26875 174.44063 37.159374Q173.28438 38.034374 171.47188 38.034374Q169.20625 38.034374 167.8625 36.64375Q166.53438 35.2375 166.53438 32.70625Q166.53438 30.08125 167.87813 28.64375Q169.22188 27.190624 171.37813 27.190624Q173.45625 27.190624 174.76875 28.6125Q176.09688 30.01875 176.09688 32.596874Q176.09688 32.753124 176.08125 33.065624L168.34688 33.065624Q168.44063 34.76875 169.31563 35.675Q170.19063 36.58125 171.4875 36.58125Q172.45625 36.58125 173.12813 36.08125Q173.81563 35.565624 174.22188 34.45625ZM168.44063 31.6125L174.2375 31.6125Q174.12813 30.315624 173.58125 29.659374Q172.7375 28.64375 171.39375 28.64375Q170.19063 28.64375 169.3625 29.45625Q168.53438 30.253124 168.44063 31.6125Z" fill-rule="nonzero"/></svg>