<svg version="1.1" viewBox="0.0 0.0 608.0 376.0" fill="none" stroke="none" stroke-linecap="square" stroke-miterlimit="10" width="608" height="376" xmlns:xlink="http://www.w3.org/1999/xlink" xmlns="http://www.w3.org/2000/svg"><path fill="#ffffff" d="M0 0L608.0 0L608.0 376.0L0 376.0L0 0Z" fill-rule="nonzero"/><path stroke="#333333" stroke-width="1.0" stroke-linecap="butt" d="M80.5 318.5L589.5 318.5" fill-rule="nonzero"/><path stroke="#cccccc" stroke-width="1.0" stroke-linecap="butt" d="M80.5 254.5L589.5 254.5" fill-rule="nonzero"/><path stroke="#cccccc" stroke-width="1.0" stroke-linecap="butt" d="M80.5 190.5L589.5 190.5" fill-rule="nonzero"/><path stroke="#cccccc" stroke-width="1.0" stroke-linecap="butt" d="M80.5 126.5L589.5 126.5" fill-rule="nonzero"/><path stroke="#cccccc" stroke-width="1.0" stroke-linecap="butt" d="M80.5 62.5L589.5 62.5" fill-rule="nonzero"/><path stroke="#000000" stroke-width="1.0" stroke-linecap="butt" d="M80.5 318.5L80.5 62.5" fill-rule="nonzero"/><clipPath id="id_0"><path d="M80.8 62.333332L589.2 62.333332L589.2 318.2L80.8 318.2L80.8 62.333332Z" clip-rule="nonzero"/></clipPath><path stroke="#4285f4" stroke-width="2.0" stroke-linecap="butt" clip-path="url(#id_0)" d="M83.31683 318.2C83.31683 318.2 86.67261 318.18948 88.350494 318.16843C90.02838 318.1474 91.70627 318.1158 93.384155 318.07373C95.06205 318.03168 96.73994 317.97906 98.41782 317.91595C100.09571 317.85284 101.7736 317.77924 103.451485 317.6951C105.12937 317.611 106.80726 317.51636 108.485146 317.41125C110.16303 317.30615 111.84093 317.19052 113.518814 317.06445C115.1967 316.9384 116.87459 316.80182 118.552475 316.65482C120.23036 316.5078 121.90825 316.3503 123.586136 316.1824C125.26402 316.0145 126.94192 315.83615 128.6198 315.6474C130.29768 315.45862 131.97557 315.25943 133.65347 315.04987C135.33136 314.8403 137.00925 314.6203 138.68713 314.38998C140.36502 314.15964 142.04291 313.9189 143.7208 313.6679C145.39868 313.41687 147.07657 313.1555 148.75446 312.88382C150.43234 312.61215 152.11023 312.33014 153.78812 312.0379C155.466 311.74567 157.14389 311.4431 158.82178 311.13037C160.49966 310.81766 162.17755 310.49463 163.85544 310.16147C165.53334 309.8283 167.21123 309.48492 168.88911 309.13144C170.567 308.77792 172.24489 308.41425 173.92278 308.04047C175.60066 307.66672 177.27855 307.2828 178.95644 306.88892C180.63432 306.495 182.31221 306.09097 183.9901 305.677C185.66798 305.26303 187.34587 304.839 189.02376 304.40503C190.70164 303.9711 192.37953 303.52716 194.05742 303.07336C195.73532 302.61957 197.41321 302.15582 199.0911 301.68228C200.76898 301.20874 202.44687 300.7253 204.12476 300.23215C205.80264 299.73898 207.48053 299.23596 209.15842 298.7233C210.8363 298.21063 212.51419 297.6882 214.19208 297.15616C215.86996 296.6241 217.54785 296.08234 219.22574 295.53107C220.90363 294.97977 222.58151 294.41882 224.2594 293.84842C225.93729 293.278 227.61519 292.69803 229.29308 292.10864C230.97096 291.5193 232.64885 290.9204 234.32674 290.3122C236.00462 289.704 237.68251 289.08636 239.3604 288.4595C241.03828 287.83264 242.71617 287.19638 244.39406 286.551C246.07195 285.9056 247.74983 285.25092 249.42772 284.5872C251.1056 283.92343 252.7835 283.25046 254.46138 282.5685C256.13928 281.8866 257.81717 281.1955 259.49506 280.49554C261.17294 279.79556 262.85083 279.08652 264.52872 278.3687C266.2066 277.65088 267.8845 276.92407 269.56238 276.18857C271.24026 275.45306 272.91815 274.70868 274.59604 273.9557C276.27393 273.2027 277.9518 272.4409 279.6297 271.67056C281.3076 270.90027 282.98547 270.12125 284.66336 269.3338C286.34125 268.5464 288.01913 267.75034 289.69702 266.94598C291.3749 266.14163 293.0528 265.32874 294.73068 264.50766C296.40857 263.68658 298.08646 262.8571 299.76434 262.01947C301.44223 261.18185 303.12012 260.3359 304.79803 259.482C306.47592 258.62805 308.1538 257.7659 309.8317 256.89587C311.50958 256.02585 313.18747 255.14769 314.86536 254.26175C316.54324 253.37582 318.22113 252.48189 319.89902 251.58028C321.5769 250.67867 323.2548 249.76917 324.93268 248.85211C326.61057 247.93504 328.28845 247.01021 329.96634 246.07791C331.64423 245.14563 333.3221 244.20567 335.0 243.25839C336.6779 242.31111 338.35577 241.35626 340.03366 240.39423C341.71155 239.43217 343.38943 238.46269 345.06732 237.48611C346.7452 236.50955 348.4231 235.52565 350.10098 234.5348C351.77887 233.54395 353.45676 232.54588 355.13464 231.541C356.81253 230.5361 358.49042 229.52412 360.1683 228.50545C361.8462 227.48676 363.52408 226.4611 365.20197 225.42888C366.87988 224.39665 368.55777 223.3576 370.23566 222.31209C371.91354 221.26657 373.59143 220.21436 375.26932 219.15582C376.9472 218.09727 378.6251 217.03217 380.30298 215.96086C381.98087 214.88956 383.65875 213.8118 385.33664 212.72798C387.01453 211.64418 388.6924 210.55405 390.3703 209.45801C392.0482 208.36197 393.72607 207.25974 395.40396 206.15173C397.08185 205.04373 398.75974 203.92967 400.43762 202.80997C402.1155 201.69028 403.7934 200.56467 405.47128 199.43355C407.14917 198.30244 408.82706 197.16554 410.50494 196.0233C412.18283 194.88106 413.86072 193.73317 415.5386 192.58006C417.2165 191.42696 418.89438 190.26836 420.57227 189.10469C422.25015 187.94102 423.92804 186.77199 425.60593 185.59804C427.2838 184.42409 428.96173 183.24492 430.63962 182.06097C432.3175 180.87703 433.9954 179.68802 435.67328 178.49437C437.35117 177.30072 439.02905 176.10216 440.70694 174.89911C442.38483 173.69604 444.0627 172.48822 445.7406 171.27606C447.4185 170.0639 449.09637 168.8471 450.77426 167.62614C452.45215 166.40517 454.13004 165.17972 455.80792 163.95024C457.4858 162.72076 459.1637 161.48695 460.84158 160.24927C462.51947 159.01158 464.19736 157.76971 465.87524 156.52414C467.55313 155.27855 469.23102 154.02895 470.9089 152.77576C472.5868 151.52258 474.26468 150.26553 475.94257 149.00508C477.62045 147.74461 479.29834 146.48044 480.97623 145.213C482.6541 143.94557 484.332 142.67458 486.0099 141.40048C487.68777 140.12639 489.36566 138.84889 491.04358 137.56845C492.72147 136.28801 494.39935 135.00432 496.07724 133.71786C497.75513 132.4314 499.433 131.14183 501.1109 129.84966C502.7888 128.55748 504.46667 127.26236 506.14456 125.96478C507.82245 124.66721 509.50034 123.36687 511.17822 122.064224C512.8561 120.76157 514.534 119.456314 516.21185 118.14892C517.8898 116.84152 519.5676 115.53167 521.24554 114.21984C522.92346 112.90802 524.6013 111.593895 526.27924 110.27797C527.9571 108.962036 529.635 107.64397 531.31287 106.32426C532.9908 105.00455 534.66864 103.68286 536.34656 102.359695C538.0244 101.03653 539.70233 99.711555 541.3802 98.38526C543.0581 97.05897 544.73596 95.731026 546.4139 94.40193C548.09174 93.07283 549.76965 91.742256 551.4475 90.41068C553.1254 89.07912 554.8033 87.74623 556.4812 86.41251C558.15906 85.0788 559.837 83.74393 561.51483 82.4084C563.19275 81.07287 564.8706 79.73635 566.5485 78.39934C568.2264 77.06232 569.9043 75.72448 571.58215 74.38631C573.2601 73.048134 574.9379 71.7093 576.61584 70.3703C578.2937 69.0313 579.9716 67.6918 581.6495 66.35231C583.3274 65.01282 586.68317 62.333332 586.68317 62.333332" fill-rule="nonzero"/><path fill="#000000" fill-opacity="0.0" clip-path="url(#id_0)" d="M86.31683 318.2C86.31683 319.85684 84.97369 321.2 83.31683 321.2C81.65998 321.2 80.31683 319.85684 80.31683 318.2C80.31683 316.54315 81.65998 315.2 83.31683 315.2C84.97369 315.2 86.31683 316.54315 86.31683 318.2Z" fill-rule="nonzero"/><path fill="#000000" fill-opacity="0.0" clip-path="url(#id_0)" d="M91.350494 318.16843C91.350494 319.8253 90.00735 321.16843 88.350494 321.16843C86.69364 321.16843 85.350494 319.8253 85.350494 318.16843C85.350494 316.51157 86.69364 315.16843 88.350494 315.16843C90.00735 315.16843 91.350494 316.51157 91.350494 318.16843Z" fill-rule="nonzero"/><path fill="#000000" fill-opacity="0.0" clip-path="url(#id_0)" d="M96.384155 318.07373C96.384155 319.7306 95.041016 321.07373 93.384155 321.07373C91.7273 321.07373 90.384155 319.7306 90.384155 318.07373C90.384155 316.4169 91.7273 315.07373 93.384155 315.07373C95.041016 315.07373 96.384155 316.4169 96.384155 318.07373Z" fill-rule="nonzero"/><path fill="#000000" fill-opacity="0.0" clip-path="url(#id_0)" d="M101.41782 317.91595C101.41782 319.5728 100.07468 320.91595 98.41782 320.91595C96.76097 320.91595 95.41782 319.5728 95.41782 317.91595C95.41782 316.2591 96.76097 314.91595 98.41782 314.91595C100.07468 314.91595 101.41782 316.2591 101.41782 317.91595Z" fill-rule="nonzero"/><path fill="#000000" fill-opacity="0.0" clip-path="url(#id_0)" d="M106.451485 317.6951C106.451485 319.35196 105.10834 320.6951 103.451485 320.6951C101.79463 320.6951 100.451485 319.35196 100.451485 317.6951C100.451485 316.03824 101.79463 314.6951 103.451485 314.6951C105.10834 314.6951 106.451485 316.03824 106.451485 317.6951Z" fill-rule="nonzero"/><path fill="#000000" fill-opacity="0.0" clip-path="url(#id_0)" d="M111.485146 317.41125C111.485146 319.0681 110.142006 320.41125 108.485146 320.41125C106.82829 320.41125 105.485146 319.0681 105.485146 317.41125C105.485146 315.7544 106.82829 314.41125 108.485146 314.41125C110.142006 314.41125 111.485146 315.7544 111.485146 317.41125Z" fill-rule="nonzero"/><path fill="#000000" fill-opacity="0.0" clip-path="url(#id_0)" d="M116.518814 317.06445C116.518814 318.7213 115.17567 320.06445 113.518814 320.06445C111.86196 320.06445 110.518814 318.7213 110.518814 317.06445C110.518814 315.4076 111.86196 314.06445 113.518814 314.06445C115.17567 314.06445 116.518814 315.4076 116.518814 317.06445Z" fill-rule="nonzero"/><path fill="#000000" fill-opacity="0.0" clip-path="url(#id_0)" d="M121.552475 316.65482C121.552475 318.31168 120.20933 319.65482 118.552475 319.65482C116.89562 319.65482 115.552475 318.31168 115.552475 316.65482C115.552475 314.99796 116.89562 313.65482 118.552475 313.65482C120.20933 313.65482 121.552475 314.99796 121.552475 316.65482Z" fill-rule="nonzero"/><path fill="#000000" fill-opacity="0.0" clip-path="url(#id_0)" d="M126.586136 316.1824C126.586136 317.83926 125.243 319.1824 123.586136 319.1824C121.92928 319.1824 120.586136 317.83926 120.586136 316.1824C120.586136 314.52557 121.92928 313.1824 123.586136 313.1824C125.243 313.1824 126.586136 314.52557 126.586136 316.1824Z" fill-rule="nonzero"/><path fill="#000000" fill-opacity="0.0" clip-path="url(#id_0)" d="M131.6198 315.6474C131.6198 317.30423 130.27666 318.6474 128.6198 318.6474C126.962944 318.6474 125.619804 317.30423 125.619804 315.6474C125.619804 313.99054 126.962944 312.6474 128.6198 312.6474C130.27666 312.6474 131.6198 313.99054 131.6198 315.6474Z" fill-rule="nonzero"/><path fill="#000000" fill-opacity="0.0" clip-path="url(#id_0)" d="M136.65347 315.04987C136.65347 316.70673 135.31032 318.04987 133.65347 318.04987C131.99661 318.04987 130.65347 316.70673 130.65347 315.04987C130.65347 313.393 131.99661 312.04987 133.65347 312.04987C135.31032 312.04987 136.65347 313.393 136.65347 315.04987Z" fill-rule="nonzero"/><path fill="#000000" fill-opacity="0.0" clip-path="url(#id_0)" d="M141.68713 314.38998C141.68713 316.0468 140.34398 317.38998 138.68713 317.38998C137.03027 317.38998 135.68713 316.0468 135.68713 314.38998C135.68713 312.73312 137.03027 311.38998 138.68713 311.38998C140.34398 311.38998 141.68713 312.73312 141.68713 314.38998Z" fill-rule="nonzero"/><path fill="#000000" fill-opacity="0.0" clip-path="url(#id_0)" d="M146.7208 313.6679C146.7208 315.32474 145.37764 316.6679 143.7208 316.6679C142.06393 316.6679 140.7208 315.32474 140.7208 313.6679C140.7208 312.01105 142.06393 310.6679 143.7208 310.6679C145.37764 310.6679 146.7208 312.01105 146.7208 313.6679Z" fill-rule="nonzero"/><path fill="#000000" fill-opacity="0.0" clip-path="url(#id_0)" d="M151.75446 312.88382C151.75446 314.54065 150.41132 315.88382 148.75446 315.88382C147.0976 315.88382 145.75446 314.54065 145.75446 312.88382C145.75446 311.22696 147.0976 309.88382 148.75446 309.88382C150.41132 309.88382 151.75446 311.22696 151.75446 312.88382Z" fill-rule="nonzero"/><path fill="#000000" fill-opacity="0.0" clip-path="url(#id_0)" d="M156.78812 312.0379C156.78812 313.69476 155.44498 315.0379 153.78812 315.0379C152.13127 315.0379 150.78812 313.69476 150.78812 312.0379C150.78812 310.38104 152.13127 309.0379 153.78812 309.0379C155.44498 309.0379 156.78812 310.38104 156.78812 312.0379Z" fill-rule="nonzero"/><path fill="#000000" fill-opacity="0.0" clip-path="url(#id_0)" d="M161.82178 311.13037C161.82178 312.78723 160.47864 314.13037 158.82178 314.13037C157.16493 314.13037 155.82178 312.78723 155.82178 311.13037C155.82178 309.47354 157.16493 308.13037 158.82178 308.13037C160.47864 308.13037 161.82178 309.47354 161.82178 311.13037Z" fill-rule="nonzero"/><path fill="#000000" fill-opacity="0.0" clip-path="url(#id_0)" d="M166.85544 310.16147C166.85544 311.81833 165.5123 313.16147 163.85544 313.16147C162.1986 313.16147 160.85544 311.81833 160.85544 310.16147C160.85544 308.50464 162.1986 307.16147 163.85544 307.16147C165.5123 307.16147 166.85544 308.50464 166.85544 310.16147Z" fill-rule="nonzero"/><path fill="#000000" fill-opacity="0.0" clip-path="url(#id_0)" d="M171.88911 309.13144C171.88911 310.78827 170.54596 312.13144 168.88911 312.13144C167.23225 312.13144 165.88911 310.78827 165.88911 309.13144C165.88911 307.47458 167.23225 306.13144 168.88911 306.13144C170.54596 306.13144 171.88911 307.47458 171.88911 309.13144Z" fill-rule="nonzero"/><path fill="#000000" fill-opacity="0.0" clip-path="url(#id_0)" d="M176.92278 308.04047C176.92278 309.69733 175.57962 311.04047 173.92278 311.04047C172.26591 311.04047 170.92278 309.69733 170.92278 308.04047C170.92278 306.38364 172.26591 305.04047 173.92278 305.04047C175.57962 305.04047 176.92278 306.38364 176.92278 308.04047Z" fill-rule="nonzero"/><path fill="#000000" fill-opacity="0.0" clip-path="url(#id_0)" d="M181.95644 306.88892C181.95644 308.54575 180.6133 309.88892 178.95644 309.88892C177.29958 309.88892 175.95644 308.54575 175.95644 306.88892C175.95644 305.23206 177.29958 303.88892 178.95644 303.88892C180.6133 303.88892 181.95644 305.23206 181.95644 306.88892Z" fill-rule="nonzero"/><path fill="#000000" fill-opacity="0.0" clip-path="url(#id_0)" d="M186.9901 305.677C186.9901 307.33386 185.64696 308.677 183.9901 308.677C182.33325 308.677 180.9901 307.33386 180.9901 305.677C180.9901 304.02014 182.33325 302.677 183.9901 302.677C185.64696 302.677 186.9901 304.02014 186.9901 305.677Z" fill-rule="nonzero"/><path fill="#000000" fill-opacity="0.0" clip-path="url(#id_0)" d="M192.02376 304.40503C192.02376 306.0619 190.68062 307.40503 189.02376 307.40503C187.36691 307.40503 186.02376 306.0619 186.02376 304.40503C186.02376 302.7482 187.36691 301.40503 189.02376 301.40503C190.68062 301.40503 192.02376 302.7482 192.02376 304.40503Z" fill-rule="nonzero"/><path fill="#000000" fill-opacity="0.0" clip-path="url(#id_0)" d="M197.05742 303.07336C197.05742 304.73022 195.71428 306.07336 194.05742 306.07336C192.40057 306.07336 191.05742 304.73022 191.05742 303.07336C191.05742 301.4165 192.40057 300.07336 194.05742 300.07336C195.71428 300.07336 197.05742 301.4165 197.05742 303.07336Z" fill-rule="nonzero"/><path fill="#000000" fill-opacity="0.0" clip-path="url(#id_0)" d="M202.0911 301.68228C202.0911 303.33914 200.74794 304.68228 199.0911 304.68228C197.43423 304.68228 196.0911 303.33914 196.0911 301.68228C196.0911 300.02542 197.43423 298.68228 199.0911 298.68228C200.74794 298.68228 202.0911 300.02542 202.0911 301.68228Z" fill-rule="nonzero"/><path fill="#000000" fill-opacity="0.0" clip-path="url(#id_0)" d="M207.12476 300.23215C207.12476 301.889 205.7816 303.23215 204.12476 303.23215C202.4679 303.23215 201.12476 301.889 201.12476 300.23215C201.12476 298.5753 202.4679 297.23215 204.12476 297.23215C205.7816 297.23215 207.12476 298.5753 207.12476 300.23215Z" fill-rule="nonzero"/><path fill="#000000" fill-opacity="0.0" clip-path="url(#id_0)" d="M212.15842 298.7233C212.15842 300.38016 210.81528 301.7233 209.15842 301.7233C207.50156 301.7233 206.15842 300.38016 206.15842 298.7233C206.15842 297.06647 207.50156 295.7233 209.15842 295.7233C210.81528 295.7233 212.15842 297.06647 212.15842 298.7233Z" fill-rule="nonzero"/><path fill="#000000" fill-opacity="0.0" clip-path="url(#id_0)" d="M217.19208 297.15616C217.19208 298.81302 215.84894 300.15616 214.19208 300.15616C212.53523 300.15616 211.19208 298.81302 211.19208 297.15616C211.19208 295.4993 212.53523 294.15616 214.19208 294.15616C215.84894 294.15616 217.19208 295.4993 217.19208 297.15616Z" fill-rule="nonzero"/><path fill="#000000" fill-opacity="0.0" clip-path="url(#id_0)" d="M222.22574 295.53107C222.22574 297.1879 220.8826 298.53107 219.22574 298.53107C217.5689 298.53107 216.22574 297.1879 216.22574 295.53107C216.22574 293.8742 217.5689 292.53107 219.22574 292.53107C220.8826 292.53107 222.22574 293.8742 222.22574 295.53107Z" fill-rule="nonzero"/><path fill="#000000" fill-opacity="0.0" clip-path="url(#id_0)" d="M227.2594 293.84842C227.2594 295.50528 225.91626 296.84842 224.2594 296.84842C222.60255 296.84842 221.2594 295.50528 221.2594 293.84842C221.2594 292.19156 222.60255 290.84842 224.2594 290.84842C225.91626 290.84842 227.2594 292.19156 227.2594 293.84842Z" fill-rule="nonzero"/><path fill="#000000" fill-opacity="0.0" clip-path="url(#id_0)" d="M232.29308 292.10864C232.29308 293.7655 230.94992 295.10864 229.29308 295.10864C227.63622 295.10864 226.29308 293.7655 226.29308 292.10864C226.29308 290.4518 227.63622 289.10864 229.29308 289.10864C230.94992 289.10864 232.29308 290.4518 232.29308 292.10864Z" fill-rule="nonzero"/><path fill="#000000" fill-opacity="0.0" clip-path="url(#id_0)" d="M237.32674 290.3122C237.32674 291.96906 235.98358 293.3122 234.32674 293.3122C232.66988 293.3122 231.32674 291.96906 231.32674 290.3122C231.32674 288.65533 232.66988 287.3122 234.32674 287.3122C235.98358 287.3122 237.32674 288.65533 237.32674 290.3122Z" fill-rule="nonzero"/><path fill="#000000" fill-opacity="0.0" clip-path="url(#id_0)" d="M242.3604 288.4595C242.3604 290.11636 241.01726 291.4595 239.3604 291.4595C237.70354 291.4595 236.3604 290.11636 236.3604 288.4595C236.3604 286.80264 237.70354 285.4595 239.3604 285.4595C241.01726 285.4595 242.3604 286.80264 242.3604 288.4595Z" fill-rule="nonzero"/><path fill="#000000" fill-opacity="0.0" clip-path="url(#id_0)" d="M247.39406 286.551C247.39406 288.20786 246.05092 289.551 244.39406 289.551C242.7372 289.551 241.39406 288.20786 241.39406 286.551C241.39406 284.89413 242.7372 283.551 244.39406 283.551C246.05092 283.551 247.39406 284.89413 247.39406 286.551Z" fill-rule="nonzero"/><path fill="#000000" fill-opacity="0.0" clip-path="url(#id_0)" d="M252.42772 284.5872C252.42772 286.24405 251.08458 287.5872 249.42772 287.5872C247.77087 287.5872 246.42772 286.24405 246.42772 284.5872C246.42772 282.93033 247.77087 281.5872 249.42772 281.5872C251.08458 281.5872 252.42772 282.93033 252.42772 284.5872Z" fill-rule="nonzero"/><path fill="#000000" fill-opacity="0.0" clip-path="url(#id_0)" d="M257.4614 282.5685C257.4614 284.22537 256.11826 285.5685 254.46138 285.5685C252.80453 285.5685 251.46138 284.22537 251.46138 282.5685C251.46138 280.91168 252.80453 279.5685 254.46138 279.5685C256.11826 279.5685 257.4614 280.91168 257.4614 282.5685Z" fill-rule="nonzero"/><path fill="#000000" fill-opacity="0.0" clip-path="url(#id_0)" d="M262.49506 280.49554C262.49506 282.15237 261.15192 283.49554 259.49506 283.49554C257.8382 283.49554 256.49506 282.15237 256.49506 280.49554C256.49506 278.83868 257.8382 277.49554 259.49506 277.49554C261.15192 277.49554 262.49506 278.83868 262.49506 280.49554Z" fill-rule="nonzero"/><path fill="#000000" fill-opacity="0.0" clip-path="url(#id_0)" d="M267.52872 278.3687C267.52872 280.02557 266.18558 281.3687 264.52872 281.3687C262.87186 281.3687 261.52872 280.02557 261.52872 278.3687C261.52872 276.71185 262.87186 275.3687 264.52872 275.3687C266.18558 275.3687 267.52872 276.71185 267.52872 278.3687Z" fill-rule="nonzero"/><path fill="#000000" fill-opacity="0.0" clip-path="url(#id_0)" d="M272.56238 276.18857C272.56238 277.84543 271.21924 279.18857 269.56238 279.18857C267.90552 279.18857 266.56238 277.84543 266.56238 276.18857C266.56238 274.5317 267.90552 273.18857 269.56238 273.18857C271.21924 273.18857 272.56238 274.5317 272.56238 276.18857Z" fill-rule="nonzero"/><path fill="#000000" fill-opacity="0.0" clip-path="url(#id_0)" d="M277.59604 273.9557C277.59604 275.61255 276.2529 276.9557 274.59604 276.9557C272.93918 276.9557 271.59604 275.61255 271.59604 273.9557C271.59604 272.29883 272.93918 270.9557 274.59604 270.9557C276.2529 270.9557 277.59604 272.29883 277.59604 273.9557Z" fill-rule="nonzero"/><path fill="#000000" fill-opacity="0.0" clip-path="url(#id_0)" d="M282.6297 271.67056C282.6297 273.32742 281.28656 274.67056 279.6297 274.67056C277.97284 274.67056 276.6297 273.32742 276.6297 271.67056C276.6297 270.01373 277.97284 268.67056 279.6297 268.67056C281.28656 268.67056 282.6297 270.01373 282.6297 271.67056Z" fill-rule="nonzero"/><path fill="#000000" fill-opacity="0.0" clip-path="url(#id_0)" d="M287.66336 269.3338C287.66336 270.99066 286.32022 272.3338 284.66336 272.3338C283.0065 272.3338 281.66336 270.99066 281.66336 269.3338C281.66336 267.67697 283.0065 266.3338 284.66336 266.3338C286.32022 266.3338 287.66336 267.67697 287.66336 269.3338Z" fill-rule="nonzero"/><path fill="#000000" fill-opacity="0.0" clip-path="url(#id_0)" d="M292.69702 266.94598C292.69702 268.60284 291.35388 269.94598 289.69702 269.94598C288.04016 269.94598 286.69702 268.60284 286.69702 266.94598C286.69702 265.28912 288.04016 263.94598 289.69702 263.94598C291.35388 263.94598 292.69702 265.28912 292.69702 266.94598Z" fill-rule="nonzero"/><path fill="#000000" fill-opacity="0.0" clip-path="url(#id_0)" d="M297.73068 264.50766C297.73068 266.16452 296.38754 267.50766 294.73068 267.50766C293.07385 267.50766 291.73068 266.16452 291.73068 264.50766C291.73068 262.8508 293.07385 261.50766 294.73068 261.50766C296.38754 261.50766 297.73068 262.8508 297.73068 264.50766Z" fill-rule="nonzero"/><path fill="#000000" fill-opacity="0.0" clip-path="url(#id_0)" d="M302.76434 262.01947C302.76434 263.6763 301.4212 265.01947 299.76434 265.01947C298.1075 265.01947 296.76434 263.6763 296.76434 262.01947C296.76434 260.3626 298.1075 259.01947 299.76434 259.01947C301.4212 259.01947 302.76434 260.3626 302.76434 262.01947Z" fill-rule="nonzero"/><path fill="#000000" fill-opacity="0.0" clip-path="url(#id_0)" d="M307.79803 259.482C307.79803 261.13885 306.45486 262.482 304.79803 262.482C303.14117 262.482 301.79803 261.13885 301.79803 259.482C301.79803 257.82513 303.14117 256.482 304.79803 256.482C306.45486 256.482 307.79803 257.82513 307.79803 259.482Z" fill-rule="nonzero"/><path fill="#000000" fill-opacity="0.0" clip-path="url(#id_0)" d="M312.8317 256.89587C312.8317 258.55273 311.48853 259.89587 309.8317 259.89587C308.17484 259.89587 306.8317 258.55273 306.8317 256.89587C306.8317 255.23901 308.17484 253.89587 309.8317 253.89587C311.48853 253.89587 312.8317 255.23901 312.8317 256.89587Z" fill-rule="nonzero"/><path fill="#000000" fill-opacity="0.0" clip-path="url(#id_0)" d="M317.86536 254.26175C317.86536 255.91861 316.5222 257.26175 314.86536 257.26175C313.2085 257.26175 311.86536 255.91861 311.86536 254.26175C311.86536 252.6049 313.2085 251.26175 314.86536 251.26175C316.5222 251.26175 317.86536 252.6049 317.86536 254.26175Z" fill-rule="nonzero"/><path fill="#000000" fill-opacity="0.0" clip-path="url(#id_0)" d="M322.89902 251.58028C322.89902 253.23714 321.55588 254.58028 319.89902 254.58028C318.24216 254.58028 316.89902 253.23714 316.89902 251.58028C316.89902 249.92342 318.24216 248.58028 319.89902 248.58028C321.55588 248.58028 322.89902 249.92342 322.89902 251.58028Z" fill-rule="nonzero"/><path fill="#000000" fill-opacity="0.0" clip-path="url(#id_0)" d="M327.93268 248.85211C327.93268 250.50896 326.58954 251.85211 324.93268 251.85211C323.27582 251.85211 321.93268 250.50896 321.93268 248.85211C321.93268 247.19525 323.27582 245.85211 324.93268 245.85211C326.58954 245.85211 327.93268 247.19525 327.93268 248.85211Z" fill-rule="nonzero"/><path fill="#000000" fill-opacity="0.0" clip-path="url(#id_0)" d="M332.96634 246.07791C332.96634 247.73477 331.6232 249.07791 329.96634 249.07791C328.30948 249.07791 326.96634 247.73477 326.96634 246.07791C326.96634 244.42107 328.30948 243.07791 329.96634 243.07791C331.6232 243.07791 332.96634 244.42107 332.96634 246.07791Z" fill-rule="nonzero"/><path fill="#000000" fill-opacity="0.0" clip-path="url(#id_0)" d="M338.0 243.25839C338.0 244.91524 336.65686 246.25839 335.0 246.25839C333.34314 246.25839 332.0 244.91524 332.0 243.25839C332.0 241.60153 333.34314 240.25839 335.0 240.25839C336.65686 240.25839 338.0 241.60153 338.0 243.25839Z" fill-rule="nonzero"/><path fill="#000000" fill-opacity="0.0" clip-path="url(#id_0)" d="M343.03366 240.39423C343.03366 242.05107 341.69052 243.39423 340.03366 243.39423C338.3768 243.39423 337.03366 242.05107 337.03366 240.39423C337.03366 238.73737 338.3768 237.39423 340.03366 237.39423C341.69052 237.39423 343.03366 238.73737 343.03366 240.39423Z" fill-rule="nonzero"/><path fill="#000000" fill-opacity="0.0" clip-path="url(#id_0)" d="M348.06732 237.48611C348.06732 239.14297 346.72418 240.48611 345.06732 240.48611C343.41046 240.48611 342.06732 239.14297 342.06732 237.48611C342.06732 235.82927 343.41046 234.48611 345.06732 234.48611C346.72418 234.48611 348.06732 235.82927 348.06732 237.48611Z" fill-rule="nonzero"/><path fill="#000000" fill-opacity="0.0" clip-path="url(#id_0)" d="M353.10098 234.5348C353.10098 236.19165 351.75784 237.5348 350.10098 237.5348C348.44412 237.5348 347.10098 236.19165 347.10098 234.5348C347.10098 232.87794 348.44412 231.5348 350.10098 231.5348C351.75784 231.5348 353.10098 232.87794 353.10098 234.5348Z" fill-rule="nonzero"/><path fill="#000000" fill-opacity="0.0" clip-path="url(#id_0)" d="M358.13464 231.541C358.13464 233.19785 356.7915 234.541 355.13464 234.541C353.4778 234.541 352.13464 233.19785 352.13464 231.541C352.13464 229.88414 353.4778 228.541 355.13464 228.541C356.7915 228.541 358.13464 229.88414 358.13464 231.541Z" fill-rule="nonzero"/><path fill="#000000" fill-opacity="0.0" clip-path="url(#id_0)" d="M363.1683 228.50545C363.1683 230.1623 361.82516 231.50545 360.1683 231.50545C358.51147 231.50545 357.1683 230.1623 357.1683 228.50545C357.1683 226.84859 358.51147 225.50545 360.1683 225.50545C361.82516 225.50545 363.1683 226.84859 363.1683 228.50545Z" fill-rule="nonzero"/><path fill="#000000" fill-opacity="0.0" clip-path="url(#id_0)" d="M368.20197 225.42888C368.20197 227.08574 366.85883 228.42888 365.20197 228.42888C363.54514 228.42888 362.20197 227.08574 362.20197 225.42888C362.20197 223.77203 363.54514 222.42888 365.20197 222.42888C366.85883 222.42888 368.20197 223.77203 368.20197 225.42888Z" fill-rule="nonzero"/><path fill="#000000" fill-opacity="0.0" clip-path="url(#id_0)" d="M373.23566 222.31209C373.23566 223.96895 371.8925 225.31209 370.23566 225.31209C368.5788 225.31209 367.23566 223.96895 367.23566 222.31209C367.23566 220.65523 368.5788 219.31209 370.23566 219.31209C371.8925 219.31209 373.23566 220.65523 373.23566 222.31209Z" fill-rule="nonzero"/><path fill="#000000" fill-opacity="0.0" clip-path="url(#id_0)" d="M378.26932 219.15582C378.26932 220.81267 376.92615 222.15582 375.26932 222.15582C373.61246 222.15582 372.26932 220.81267 372.26932 219.15582C372.26932 217.49896 373.61246 216.15582 375.26932 216.15582C376.92615 216.15582 378.26932 217.49896 378.26932 219.15582Z" fill-rule="nonzero"/><path fill="#000000" fill-opacity="0.0" clip-path="url(#id_0)" d="M383.30298 215.96086C383.30298 217.6177 381.95984 218.96086 380.30298 218.96086C378.64612 218.96086 377.30298 217.6177 377.30298 215.96086C377.30298 214.304 378.64612 212.96086 380.30298 212.96086C381.95984 212.96086 383.30298 214.304 383.30298 215.96086Z" fill-rule="nonzero"/><path fill="#000000" fill-opacity="0.0" clip-path="url(#id_0)" d="M388.33664 212.72798C388.33664 214.38484 386.9935 215.72798 385.33664 215.72798C383.67978 215.72798 382.33664 214.38484 382.33664 212.72798C382.33664 211.07114 383.67978 209.72798 385.33664 209.72798C386.9935 209.72798 388.33664 211.07114 388.33664 212.72798Z" fill-rule="nonzero"/><path fill="#000000" fill-opacity="0.0" clip-path="url(#id_0)" d="M393.3703 209.45801C393.3703 211.11487 392.02716 212.45801 390.3703 212.45801C388.71344 212.45801 387.3703 211.11487 387.3703 209.45801C387.3703 207.80116 388.71344 206.45801 390.3703 206.45801C392.02716 206.45801 393.3703 207.80116 393.3703 209.45801Z" fill-rule="nonzero"/><path fill="#000000" fill-opacity="0.0" clip-path="url(#id_0)" d="M398.40396 206.15173C398.40396 207.8086 397.06082 209.15173 395.40396 209.15173C393.7471 209.15173 392.40396 207.8086 392.40396 206.15173C392.40396 204.49487 393.7471 203.15173 395.40396 203.15173C397.06082 203.15173 398.40396 204.49487 398.40396 206.15173Z" fill-rule="nonzero"/><path fill="#000000" fill-opacity="0.0" clip-path="url(#id_0)" d="M403.43762 202.80997C403.43762 204.46683 402.09448 205.80997 400.43762 205.80997C398.78076 205.80997 397.43762 204.46683 397.43762 202.80997C397.43762 201.15312 398.78076 199.80997 400.43762 199.80997C402.09448 199.80997 403.43762 201.15312 403.43762 202.80997Z" fill-rule="nonzero"/><path fill="#000000" fill-opacity="0.0" clip-path="url(#id_0)" d="M408.47128 199.43355C408.47128 201.09041 407.12814 202.43355 405.47128 202.43355C403.81442 202.43355 402.47128 201.09041 402.47128 199.43355C402.47128 197.77669 403.81442 196.43355 405.47128 196.43355C407.12814 196.43355 408.47128 197.77669 408.47128 199.43355Z" fill-rule="nonzero"/><path fill="#000000" fill-opacity="0.0" clip-path="url(#id_0)" d="M413.50494 196.0233C413.50494 197.68016 412.1618 199.0233 410.50494 199.0233C408.84808 199.0233 407.50494 197.68016 407.50494 196.0233C407.50494 194.36644 408.84808 193.0233 410.50494 193.0233C412.1618 193.0233 413.50494 194.36644 413.50494 196.0233Z" fill-rule="nonzero"/><path fill="#000000" fill-opacity="0.0" clip-path="url(#id_0)" d="M418.5386 192.58006C418.5386 194.23692 417.19547 195.58006 415.5386 195.58006C413.88174 195.58006 412.5386 194.23692 412.5386 192.58006C412.5386 190.9232 413.88174 189.58006 415.5386 189.58006C417.19547 189.58006 418.5386 190.9232 418.5386 192.58006Z" fill-rule="nonzero"/><path fill="#000000" fill-opacity="0.0" clip-path="url(#id_0)" d="M423.57227 189.10469C423.57227 190.76155 422.22913 192.10469 420.57227 192.10469C418.91544 192.10469 417.57227 190.76155 417.57227 189.10469C417.57227 187.44783 418.91544 186.10469 420.57227 186.10469C422.22913 186.10469 423.57227 187.44783 423.57227 189.10469Z" fill-rule="nonzero"/><path fill="#000000" fill-opacity="0.0" clip-path="url(#id_0)" d="M428.60593 185.59804C428.60593 187.2549 427.2628 188.59804 425.60593 188.59804C423.9491 188.59804 422.60593 187.2549 422.60593 185.59804C422.60593 183.9412 423.9491 182.59804 425.60593 182.59804C427.2628 182.59804 428.60593 183.9412 428.60593 185.59804Z" fill-rule="nonzero"/><path fill="#000000" fill-opacity="0.0" clip-path="url(#id_0)" d="M433.63962 182.06097C433.63962 183.71783 432.29645 185.06097 430.63962 185.06097C428.98276 185.06097 427.63962 183.71783 427.63962 182.06097C427.63962 180.40411 428.98276 179.06097 430.63962 179.06097C432.29645 179.06097 433.63962 180.40411 433.63962 182.06097Z" fill-rule="nonzero"/><path fill="#000000" fill-opacity="0.0" clip-path="url(#id_0)" d="M438.67328 178.49437C438.67328 180.15123 437.3301 181.49437 435.67328 181.49437C434.01642 181.49437 432.67328 180.15123 432.67328 178.49437C432.67328 176.83751 434.01642 175.49437 435.67328 175.49437C437.3301 175.49437 438.67328 176.83751 438.67328 178.49437Z" fill-rule="nonzero"/><path fill="#000000" fill-opacity="0.0" clip-path="url(#id_0)" d="M443.70694 174.89911C443.70694 176.55595 442.3638 177.89911 440.70694 177.89911C439.05008 177.89911 437.70694 176.55595 437.70694 174.89911C437.70694 173.24225 439.05008 171.89911 440.70694 171.89911C442.3638 171.89911 443.70694 173.24225 443.70694 174.89911Z" fill-rule="nonzero"/><path fill="#000000" fill-opacity="0.0" clip-path="url(#id_0)" d="M448.7406 171.27606C448.7406 172.93292 447.39746 174.27606 445.7406 174.27606C444.08374 174.27606 442.7406 172.93292 442.7406 171.27606C442.7406 169.6192 444.08374 168.27606 445.7406 168.27606C447.39746 168.27606 448.7406 169.6192 448.7406 171.27606Z" fill-rule="nonzero"/><path fill="#000000" fill-opacity="0.0" clip-path="url(#id_0)" d="M453.77426 167.62614C453.77426 169.28299 452.43112 170.62614 450.77426 170.62614C449.1174 170.62614 447.77426 169.28299 447.77426 167.62614C447.77426 165.96928 449.1174 164.62614 450.77426 164.62614C452.43112 164.62614 453.77426 165.96928 453.77426 167.62614Z" fill-rule="nonzero"/><path fill="#000000" fill-opacity="0.0" clip-path="url(#id_0)" d="M458.80792 163.95024C458.80792 165.6071 457.46478 166.95024 455.80792 166.95024C454.15106 166.95024 452.80792 165.6071 452.80792 163.95024C452.80792 162.29338 454.15106 160.95024 455.80792 160.95024C457.46478 160.95024 458.80792 162.29338 458.80792 163.95024Z" fill-rule="nonzero"/><path fill="#000000" fill-opacity="0.0" clip-path="url(#id_0)" d="M463.84158 160.24927C463.84158 161.90613 462.49844 163.24927 460.84158 163.24927C459.18472 163.24927 457.84158 161.90613 457.84158 160.24927C457.84158 158.5924 459.18472 157.24927 460.84158 157.24927C462.49844 157.24927 463.84158 158.5924 463.84158 160.24927Z" fill-rule="nonzero"/><path fill="#000000" fill-opacity="0.0" clip-path="url(#id_0)" d="M468.87524 156.52414C468.87524 158.18098 467.5321 159.52414 465.87524 159.52414C464.21838 159.52414 462.87524 158.18098 462.87524 156.52414C462.87524 154.86728 464.21838 153.52414 465.87524 153.52414C467.5321 153.52414 468.87524 154.86728 468.87524 156.52414Z" fill-rule="nonzero"/><path fill="#000000" fill-opacity="0.0" clip-path="url(#id_0)" d="M473.9089 152.77576C473.9089 154.43262 472.56577 155.77576 470.9089 155.77576C469.25204 155.77576 467.9089 154.43262 467.9089 152.77576C467.9089 151.11891 469.25204 149.77576 470.9089 149.77576C472.56577 149.77576 473.9089 151.11891 473.9089 152.77576Z" fill-rule="nonzero"/><path fill="#000000" fill-opacity="0.0" clip-path="url(#id_0)" d="M478.94257 149.00508C478.94257 150.66193 477.59943 152.00508 475.94257 152.00508C474.2857 152.00508 472.94257 150.66193 472.94257 149.00508C472.94257 147.34822 474.2857 146.00508 475.94257 146.00508C477.59943 146.00508 478.94257 147.34822 478.94257 149.00508Z" fill-rule="nonzero"/><path fill="#000000" fill-opacity="0.0" clip-path="url(#id_0)" d="M483.97623 145.213C483.97623 146.86986 482.6331 148.213 480.97623 148.213C479.3194 148.213 477.97623 146.86986 477.97623 145.213C477.97623 143.55615 479.3194 142.213 480.97623 142.213C482.6331 142.213 483.97623 143.55615 483.97623 145.213Z" fill-rule="nonzero"/><path fill="#000000" fill-opacity="0.0" clip-path="url(#id_0)" d="M489.0099 141.40048C489.0099 143.05734 487.66675 144.40048 486.0099 144.40048C484.35306 144.40048 483.0099 143.05734 483.0099 141.40048C483.0099 139.74362 484.35306 138.40048 486.0099 138.40048C487.66675 138.40048 489.0099 139.74362 489.0099 141.40048Z" fill-rule="nonzero"/><path fill="#000000" fill-opacity="0.0" clip-path="url(#id_0)" d="M494.04358 137.56845C494.04358 139.22531 492.7004 140.56845 491.04358 140.56845C489.38672 140.56845 488.04358 139.22531 488.04358 137.56845C488.04358 135.91159 489.38672 134.56845 491.04358 134.56845C492.7004 134.56845 494.04358 135.91159 494.04358 137.56845Z" fill-rule="nonzero"/><path fill="#000000" fill-opacity="0.0" clip-path="url(#id_0)" d="M499.07724 133.71786C499.07724 135.37471 497.73407 136.71786 496.07724 136.71786C494.42038 136.71786 493.07724 135.37471 493.07724 133.71786C493.07724 132.061 494.42038 130.71786 496.07724 130.71786C497.73407 130.71786 499.07724 132.061 499.07724 133.71786Z" fill-rule="nonzero"/><path fill="#000000" fill-opacity="0.0" clip-path="url(#id_0)" d="M504.1109 129.84966C504.1109 131.5065 502.76773 132.84966 501.1109 132.84966C499.45404 132.84966 498.1109 131.5065 498.1109 129.84966C498.1109 128.1928 499.45404 126.84965 501.1109 126.84965C502.76773 126.84965 504.1109 128.1928 504.1109 129.84966Z" fill-rule="nonzero"/><path fill="#000000" fill-opacity="0.0" clip-path="url(#id_0)" d="M509.14456 125.96478C509.14456 127.62164 507.80142 128.96478 506.14456 128.96478C504.4877 128.96478 503.14456 127.62164 503.14456 125.96478C503.14456 124.30793 504.4877 122.96478 506.14456 122.96478C507.80142 122.96478 509.14456 124.30793 509.14456 125.96478Z" fill-rule="nonzero"/><path fill="#000000" fill-opacity="0.0" clip-path="url(#id_0)" d="M514.1782 122.064224C514.1782 123.72108 512.8351 125.064224 511.17822 125.064224C509.52136 125.064224 508.17822 123.72108 508.17822 122.064224C508.17822 120.407364 509.52136 119.064224 511.17822 119.064224C512.8351 119.064224 514.1782 120.407364 514.1782 122.064224Z" fill-rule="nonzero"/><path fill="#000000" fill-opacity="0.0" clip-path="url(#id_0)" d="M519.21185 118.14892C519.21185 119.80577 517.8687 121.14892 516.21185 121.14892C514.55505 121.14892 513.21185 119.80577 513.21185 118.14892C513.21185 116.492065 514.55505 115.14892 516.21185 115.14892C517.8687 115.14892 519.21185 116.492065 519.21185 118.14892Z" fill-rule="nonzero"/><path fill="#000000" fill-opacity="0.0" clip-path="url(#id_0)" d="M524.24554 114.21984C524.24554 115.87669 522.9024 117.21984 521.24554 117.21984C519.5887 117.21984 518.24554 115.87669 518.24554 114.21984C518.24554 112.56299 519.5887 111.21984 521.24554 111.21984C522.9024 111.21984 524.24554 112.56299 524.24554 114.21984Z" fill-rule="nonzero"/><path fill="#000000" fill-opacity="0.0" clip-path="url(#id_0)" d="M529.27924 110.27797C529.27924 111.93482 527.93604 113.27797 526.27924 113.27797C524.6224 113.27797 523.27924 111.93482 523.27924 110.27797C523.27924 108.62111 524.6224 107.27797 526.27924 107.27797C527.93604 107.27797 529.27924 108.62111 529.27924 110.27797Z" fill-rule="nonzero"/><path fill="#000000" fill-opacity="0.0" clip-path="url(#id_0)" d="M534.31287 106.32426C534.31287 107.98111 532.9697 109.32426 531.31287 109.32426C529.656 109.32426 528.31287 107.98111 528.31287 106.32426C528.31287 104.667404 529.656 103.32426 531.31287 103.32426C532.9697 103.32426 534.31287 104.667404 534.31287 106.32426Z" fill-rule="nonzero"/><path fill="#000000" fill-opacity="0.0" clip-path="url(#id_0)" d="M539.34656 102.359695C539.34656 104.016556 538.0034 105.359695 536.34656 105.359695C534.6897 105.359695 533.34656 104.016556 533.34656 102.359695C533.34656 100.70284 534.6897 99.359695 536.34656 99.359695C538.0034 99.359695 539.34656 100.70284 539.34656 102.359695Z" fill-rule="nonzero"/><path fill="#000000" fill-opacity="0.0" clip-path="url(#id_0)" d="M544.3802 98.38526C544.3802 100.042114 543.03705 101.38526 541.3802 101.38526C539.7233 101.38526 538.3802 100.042114 538.3802 98.38526C538.3802 96.72841 539.7233 95.38526 541.3802 95.38526C543.03705 95.38526 544.3802 96.72841 544.3802 98.38526Z" fill-rule="nonzero"/><path fill="#000000" fill-opacity="0.0" clip-path="url(#id_0)" d="M549.4139 94.40193C549.4139 96.058784 548.07074 97.40193 546.4139 97.40193C544.757 97.40193 543.4139 96.058784 543.4139 94.40193C543.4139 92.74508 544.757 91.40193 546.4139 91.40193C548.07074 91.40193 549.4139 92.74508 549.4139 94.40193Z" fill-rule="nonzero"/><path fill="#000000" fill-opacity="0.0" clip-path="url(#id_0)" d="M554.4475 90.41068C554.4475 92.06754 553.1044 93.41068 551.4475 93.41068C549.79065 93.41068 548.4475 92.06754 548.4475 90.41068C548.4475 88.75383 549.79065 87.41068 551.4475 87.41068C553.1044 87.41068 554.4475 88.75383 554.4475 90.41068Z" fill-rule="nonzero"/><path fill="#000000" fill-opacity="0.0" clip-path="url(#id_0)" d="M559.4812 86.41251C559.4812 88.06937 558.13806 89.41251 556.4812 89.41251C554.82434 89.41251 553.4812 88.06937 553.4812 86.41251C553.4812 84.75566 554.82434 83.41251 556.4812 83.41251C558.13806 83.41251 559.4812 84.75566 559.4812 86.41251Z" fill-rule="nonzero"/><path fill="#000000" fill-opacity="0.0" clip-path="url(#id_0)" d="M564.51483 82.4084C564.51483 84.065254 563.1717 85.4084 561.51483 85.4084C559.858 85.4084 558.51483 84.065254 558.51483 82.4084C558.51483 80.75155 559.858 79.4084 561.51483 79.4084C563.1717 79.4084 564.51483 80.75155 564.51483 82.4084Z" fill-rule="nonzero"/><path fill="#000000" fill-opacity="0.0" clip-path="url(#id_0)" d="M569.5485 78.39934C569.5485 80.05619 568.2054 81.39934 566.5485 81.39934C564.89166 81.39934 563.5485 80.05619 563.5485 78.39934C563.5485 76.74248 564.89166 75.39934 566.5485 75.39934C568.2054 75.39934 569.5485 76.74248 569.5485 78.39934Z" fill-rule="nonzero"/><path fill="#000000" fill-opacity="0.0" clip-path="url(#id_0)" d="M574.58215 74.38631C574.58215 76.04316 573.239 77.38631 571.58215 77.38631C569.92535 77.38631 568.58215 76.04316 568.58215 74.38631C568.58215 72.72945 569.92535 71.38631 571.58215 71.38631C573.239 71.38631 574.58215 72.72945 574.58215 74.38631Z" fill-rule="nonzero"/><path fill="#000000" fill-opacity="0.0" clip-path="url(#id_0)" d="M579.61584 70.3703C579.61584 72.02715 578.2727 73.3703 576.61584 73.3703C574.959 73.3703 573.61584 72.02715 573.61584 70.3703C573.61584 68.71345 574.959 67.3703 576.61584 67.3703C578.2727 67.3703 579.61584 68.71345 579.61584 70.3703Z" fill-rule="nonzero"/><path fill="#000000" fill-opacity="0.0" clip-path="url(#id_0)" d="M584.6495 66.35231C584.6495 68.00916 583.30634 69.35231 581.6495 69.35231C579.9927 69.35231 578.6495 68.00916 578.6495 66.35231C578.6495 64.69546 579.9927 63.352314 581.6495 63.352314C583.30634 63.352314 584.6495 64.69546 584.6495 66.35231Z" fill-rule="nonzero"/><path fill="#000000" fill-opacity="0.0" clip-path="url(#id_0)" d="M589.68317 62.333332C589.68317 63.99019 588.34 65.333336 586.68317 65.333336C585.0263 65.333336 583.68317 63.99019 583.68317 62.333332C583.68317 60.67648 585.0263 59.333332 586.68317 59.333332C588.34 59.333332 589.68317 60.67648 589.68317 62.333332Z" fill-rule="nonzero"/><path fill="#000000" d="M336.59375 353.2625L336.75 354.1844Q336.29688 354.27814 335.95312 354.27814Q335.375 354.27814 335.0625 354.10626Q334.75 353.91876 334.60938 353.6219Q334.48438 353.325 334.48438 352.3719L334.48438 348.79376L333.71875 348.79376L333.71875 347.98126L334.48438 347.98126L334.48438 346.4344L335.53125 345.8094L335.53125 347.98126L336.59375 347.98126L336.59375 348.79376L335.53125 348.79376L335.53125 352.4344Q335.53125 352.8875 335.57812 353.0125Q335.64062 353.1375 335.76562 353.21564Q335.89062 353.29376 336.125 353.29376Q336.3125 353.29376 336.59375 353.2625Z" fill-rule="nonzero"/><path fill="#000000" d="M29.800013 192.67291L26.565638 190.40729L23.581263 192.50104L23.581263 191.18854L25.034388 190.23541Q25.456263 189.96979 25.737513 189.79791Q25.346888 189.54791 25.050013 189.32916L23.581263 188.28229L23.581263 187.01666L26.503138 189.17291L29.800013 186.86041L29.800013 188.14166L27.862513 189.42291L27.346888 189.76666L29.800013 191.40729L29.800013 192.67291Z" fill-rule="nonzero"/><path fill="#000000" d="M51.3 317.96564Q51.3 316.4344 51.6125 315.5125Q51.925 314.575 52.534374 314.075Q53.159374 313.575 54.096874 313.575Q54.784374 313.575 55.3 313.85626Q55.83125 314.1375 56.175 314.66876Q56.51875 315.1844 56.70625 315.9344Q56.89375 316.6844 56.89375 317.96564Q56.89375 319.48126 56.58125 320.40314Q56.284374 321.325 55.659374 321.84064Q55.05 322.34064 54.096874 322.34064Q52.8625 322.34064 52.14375 321.45Q51.3 320.3875 51.3 317.96564ZM52.378124 317.96564Q52.378124 320.075 52.878124 320.77814Q53.378124 321.48126 54.096874 321.48126Q54.83125 321.48126 55.315624 320.77814Q55.815624 320.075 55.815624 317.96564Q55.815624 315.84064 55.315624 315.15314Q54.83125 314.45 54.08125 314.45Q53.3625 314.45 52.925 315.0594Q52.378124 315.84064 52.378124 317.96564ZM58.89375 322.2L58.89375 320.9969L60.096874 320.9969L60.096874 322.2L58.89375 322.2ZM61.3 317.96564Q61.3 316.4344 61.6125 315.5125Q61.925 314.575 62.534374 314.075Q63.159374 313.575 64.09688 313.575Q64.78438 313.575 65.3 313.85626Q65.83125 314.1375 66.175 314.66876Q66.51875 315.1844 66.70625 315.9344Q66.89375 316.6844 66.89375 317.96564Q66.89375 319.48126 66.58125 320.40314Q66.28438 321.325 65.65938 321.84064Q65.05 322.34064 64.09688 322.34064Q62.8625 322.34064 62.14375 321.45Q61.3 320.3875 61.3 317.96564ZM62.378124 317.96564Q62.378124 320.075 62.878124 320.77814Q63.378124 321.48126 64.09688 321.48126Q64.83125 321.48126 65.31563 320.77814Q65.81563 320.075 65.81563 317.96564Q65.81563 315.84064 65.31563 315.15314Q64.83125 314.45 64.08125 314.45Q63.3625 314.45 62.925 315.0594Q62.378124 315.84064 62.378124 317.96564ZM68.3 317.96564Q68.3 316.4344 68.6125 315.5125Q68.925 314.575 69.53438 314.075Q70.15938 313.575 71.09688 313.575Q71.78438 313.575 72.3 313.85626Q72.83125 314.1375 73.175 314.66876Q73.51875 315.1844 73.70625 315.9344Q73.89375 316.6844 73.89375 317.96564Q73.89375 319.48126 73.58125 320.40314Q73.28438 321.325 72.65938 321.84064Q72.05 322.34064 71.09688 322.34064Q69.8625 322.34064 69.14375 321.45Q68.3 320.3875 68.3 317.96564ZM69.37813 317.96564Q69.37813 320.075 69.87813 320.77814Q70.37813 321.48126 71.09688 321.48126Q71.83125 321.48126 72.31563 320.77814Q72.81563 320.075 72.81563 317.96564Q72.81563 315.84064 72.31563 315.15314Q71.83125 314.45 71.08125 314.45Q70.3625 314.45 69.925 315.0594Q69.37813 315.84064 69.37813 317.96564Z" fill-rule="nonzero"/><path fill="#000000" d="M51.3 253.99896Q51.3 252.46771 51.6125 251.54584Q51.925 250.60834 52.534374 250.10834Q53.159374 249.60834 54.096874 249.60834Q54.784374 249.60834 55.3 249.88959Q55.83125 250.17084 56.175 250.70209Q56.51875 251.21771 56.70625 251.96771Q56.89375 252.71771 56.89375 253.99896Q56.89375 255.51459 56.58125 256.43646Q56.284374 257.35834 55.659374 257.87396Q55.05 258.37396 54.096874 258.37396Q52.8625 258.37396 52.14375 257.48334Q51.3 256.42084 51.3 253.99896ZM52.378124 253.99896Q52.378124 256.10834 52.878124 256.81146Q53.378124 257.5146 54.096874 257.5146Q54.83125 257.5146 55.315624 256.81146Q55.815624 256.10834 55.815624 253.99896Q55.815624 251.87396 55.315624 251.18646Q54.83125 250.48334 54.08125 250.48334Q53.3625 250.48334 52.925 251.09271Q52.378124 251.87396 52.378124 253.99896ZM58.89375 258.23334L58.89375 257.0302L60.096874 257.0302L60.096874 258.23334L58.89375 258.23334ZM66.84688 257.2177L66.84688 258.23334L61.159374 258.23334Q61.159374 257.85834 61.284374 257.49896Q61.503124 256.92084 61.971874 256.35834Q62.45625 255.79584 63.3625 255.06146Q64.76875 253.90521 65.25313 253.23334Q65.75313 252.56146 65.75313 251.96771Q65.75313 251.34271 65.3 250.92084Q64.84688 250.48334 64.12813 250.48334Q63.3625 250.48334 62.909374 250.93646Q62.45625 251.38959 62.440624 252.20209L61.3625 252.09271Q61.471874 250.87396 62.190624 250.24896Q62.925 249.60834 64.15938 249.60834Q65.39375 249.60834 66.1125 250.29584Q66.83125 250.98334 66.83125 251.99896Q66.83125 252.51459 66.6125 253.01459Q66.40938 253.49896 65.90938 254.06146Q65.425 254.60834 64.3 255.56146Q63.346874 256.35834 63.065624 256.6552Q62.8 256.93646 62.628124 257.2177L66.84688 257.2177ZM68.3 255.98334L69.40938 255.88959Q69.53438 256.7021 69.97188 257.10834Q70.425 257.5146 71.06563 257.5146Q71.81563 257.5146 72.34688 256.93646Q72.87813 256.35834 72.87813 255.42084Q72.87813 254.51459 72.3625 253.99896Q71.8625 253.46771 71.03438 253.46771Q70.53438 253.46771 70.1125 253.70209Q69.70625 253.93646 69.47188 254.29584L68.4875 254.17084L69.31563 249.76459L73.59688 249.76459L73.59688 250.76459L70.15938 250.76459L69.70625 253.07709Q70.47188 252.53021 71.31563 252.53021Q72.44063 252.53021 73.20625 253.31146Q73.9875 254.09271 73.9875 255.32709Q73.9875 256.48334 73.31563 257.3427Q72.4875 258.37396 71.06563 258.37396Q69.89375 258.37396 69.14375 257.7177Q68.40938 257.06146 68.3 255.98334Z" fill-rule="nonzero"/><path fill="#000000" d="M51.3 190.03229Q51.3 188.50104 51.6125 187.57916Q51.925 186.64166 52.534374 186.14166Q53.159374 185.64166 54.096874 185.64166Q54.784374 185.64166 55.3 185.92291Q55.83125 186.20416 56.175 186.73541Q56.51875 187.25104 56.70625 188.00104Q56.89375 188.75104 56.89375 190.03229Q56.89375 191.54791 56.58125 192.46979Q56.284374 193.39166 55.659374 193.90729Q55.05 194.40729 54.096874 194.40729Q52.8625 194.40729 52.14375 193.51666Q51.3 192.45416 51.3 190.03229ZM52.378124 190.03229Q52.378124 192.14166 52.878124 192.84479Q53.378124 193.54791 54.096874 193.54791Q54.83125 193.54791 55.315624 192.84479Q55.815624 192.14166 55.815624 190.03229Q55.815624 187.90729 55.315624 187.21979Q54.83125 186.51666 54.08125 186.51666Q53.3625 186.51666 52.925 187.12604Q52.378124 187.90729 52.378124 190.03229ZM58.89375 194.26666L58.89375 193.06354L60.096874 193.06354L60.096874 194.26666L58.89375 194.26666ZM61.3 192.01666L62.409374 191.92291Q62.534374 192.73541 62.971874 193.14166Q63.425 193.54791 64.06563 193.54791Q64.81563 193.54791 65.34688 192.96979Q65.87813 192.39166 65.87813 191.45416Q65.87813 190.54791 65.3625 190.03229Q64.8625 189.50104 64.03438 189.50104Q63.534374 189.50104 63.1125 189.73541Q62.70625 189.96979 62.471874 190.32916L61.4875 190.20416L62.315624 185.79791L66.59688 185.79791L66.59688 186.79791L63.159374 186.79791L62.70625 189.11041Q63.471874 188.56354 64.31563 188.56354Q65.44063 188.56354 66.20625 189.34479Q66.9875 190.12604 66.9875 191.36041Q66.9875 192.51666 66.31563 193.37604Q65.4875 194.40729 64.06563 194.40729Q62.89375 194.40729 62.14375 193.75104Q61.409374 193.09479 61.3 192.01666ZM68.3 190.03229Q68.3 188.50104 68.6125 187.57916Q68.925 186.64166 69.53438 186.14166Q70.15938 185.64166 71.09688 185.64166Q71.78438 185.64166 72.3 185.92291Q72.83125 186.20416 73.175 186.73541Q73.51875 187.25104 73.70625 188.00104Q73.89375 188.75104 73.89375 190.03229Q73.89375 191.54791 73.58125 192.46979Q73.28438 193.39166 72.65938 193.90729Q72.05 194.40729 71.09688 194.40729Q69.8625 194.40729 69.14375 193.51666Q68.3 192.45416 68.3 190.03229ZM69.37813 190.03229Q69.37813 192.14166 69.87813 192.84479Q70.37813 193.54791 71.09688 193.54791Q71.83125 193.54791 72.31563 192.84479Q72.81563 192.14166 72.81563 190.03229Q72.81563 187.90729 72.31563 187.21979Q71.83125 186.51666 71.08125 186.51666Q70.3625 186.51666 69.925 187.12604Q69.37813 187.90729 69.37813 190.03229Z" fill-rule="nonzero"/><path fill="#000000" d="M51.3 126.06563Q51.3 124.53438 51.6125 123.6125Q51.925 122.675 52.534374 122.175Q53.159374 121.675 54.096874 121.675Q54.784374 121.675 55.3 121.95625Q55.83125 122.2375 56.175 122.76875Q56.51875 123.28438 56.70625 124.03438Q56.89375 124.78438 56.89375 126.06563Q56.89375 127.58125 56.58125 128.50313Q56.284374 129.425 55.659374 129.94063Q55.05 130.44063 54.096874 130.44063Q52.8625 130.44063 52.14375 129.55Q51.3 128.4875 51.3 126.06563ZM52.378124 126.06563Q52.378124 128.175 52.878124 128.87813Q53.378124 129.58125 54.096874 129.58125Q54.83125 129.58125 55.315624 128.87813Q55.815624 128.175 55.815624 126.06563Q55.815624 123.94063 55.315624 123.25313Q54.83125 122.55 54.08125 122.55Q53.3625 122.55 52.925 123.15938Q52.378124 123.94063 52.378124 126.06563ZM58.89375 130.3L58.89375 129.09688L60.096874 129.09688L60.096874 130.3L58.89375 130.3ZM61.3625 122.83125L61.3625 121.81563L66.925 121.81563L66.925 122.64375Q66.1125 123.51875 65.3 124.97188Q64.50313 126.40938 64.06563 127.94063Q63.7375 129.01875 63.659374 130.3L62.565624 130.3Q62.58125 129.28438 62.95625 127.84688Q63.346874 126.40938 64.05 125.08125Q64.76875 123.75313 65.58125 122.83125L61.3625 122.83125ZM68.3 128.05L69.40938 127.95625Q69.53438 128.76875 69.97188 129.175Q70.425 129.58125 71.06563 129.58125Q71.81563 129.58125 72.34688 129.00313Q72.87813 128.425 72.87813 127.4875Q72.87813 126.58125 72.3625 126.06563Q71.8625 125.53438 71.03438 125.53438Q70.53438 125.53438 70.1125 125.76875Q69.70625 126.00313 69.47188 126.3625L68.4875 126.2375L69.31563 121.83125L73.59688 121.83125L73.59688 122.83125L70.15938 122.83125L69.70625 125.14375Q70.47188 124.59688 71.31563 124.59688Q72.44063 124.59688 73.20625 125.37813Q73.9875 126.15938 73.9875 127.39375Q73.9875 128.55 73.31563 129.40938Q72.4875 130.44063 71.06563 130.44063Q69.89375 130.44063 69.14375 129.78438Q68.40938 129.12813 68.3 128.05Z" fill-rule="nonzero"/><path fill="#000000" d="M55.26875 66.333336L54.221874 66.333336L54.221874 59.614586Q53.83125 59.97396 53.20625 60.34896Q52.596874 60.708336 52.1125 60.88021L52.1125 59.864586Q52.9875 59.44271 53.64375 58.864586Q54.315624 58.270836 54.596874 57.708336L55.26875 57.708336L55.26875 66.333336ZM58.89375 66.333336L58.89375 65.13021L60.096874 65.13021L60.096874 66.333336L58.89375 66.333336ZM61.3 62.09896Q61.3 60.56771 61.6125 59.645836Q61.925 58.708336 62.534374 58.208336Q63.159374 57.708336 64.09688 57.708336Q64.78438 57.708336 65.3 57.989586Q65.83125 58.270836 66.175 58.802086Q66.51875 59.31771 66.70625 60.06771Q66.89375 60.81771 66.89375 62.09896Q66.89375 63.614586 66.58125 64.53646Q66.28438 65.458336 65.65938 65.97396Q65.05 66.47396 64.09688 66.47396Q62.8625 66.47396 62.14375 65.583336Q61.3 64.520836 61.3 62.09896ZM62.378124 62.09896Q62.378124 64.208336 62.878124 64.91146Q63.378124 65.614586 64.09688 65.614586Q64.83125 65.614586 65.31563 64.91146Q65.81563 64.208336 65.81563 62.09896Q65.81563 59.97396 65.31563 59.28646Q64.83125 58.583336 64.08125 58.583336Q63.3625 58.583336 62.925 59.19271Q62.378124 59.97396 62.378124 62.09896ZM68.3 62.09896Q68.3 60.56771 68.6125 59.645836Q68.925 58.708336 69.53438 58.208336Q70.15938 57.708336 71.09688 57.708336Q71.78438 57.708336 72.3 57.989586Q72.83125 58.270836 73.175 58.802086Q73.51875 59.31771 73.70625 60.06771Q73.89375 60.81771 73.89375 62.09896Q73.89375 63.614586 73.58125 64.53646Q73.28438 65.458336 72.65938 65.97396Q72.05 66.47396 71.09688 66.47396Q69.8625 66.47396 69.14375 65.583336Q68.3 64.520836 68.3 62.09896ZM69.37813 62.09896Q69.37813 64.208336 69.87813 64.91146Q70.37813 65.614586 71.09688 65.614586Q71.83125 65.614586 72.31563 64.91146Q72.81563 64.208336 72.81563 62.09896Q72.81563 59.97396 72.31563 59.28646Q71.83125 58.583336 71.08125 58.583336Q70.3625 58.583336 69.925 59.19271Q69.37813 59.97396 69.37813 62.09896Z" fill-rule="nonzero"/><path fill="#757575" d="M20.378124 37.8L20.378124 23.4875L30.7375 23.4875L30.7375 25.175L22.284374 25.175L22.284374 29.55L30.190624 29.55L30.190624 31.2375L22.284374 31.2375L22.284374 36.1125L31.065624 36.1125L31.065624 37.8L20.378124 37.8ZM39.89375 36.51875Q38.909374 37.346874 38.003124 37.690624Q37.096874 38.034374 36.065624 38.034374Q34.3625 38.034374 33.440624 37.20625Q32.51875 36.3625 32.51875 35.065624Q32.51875 34.3 32.8625 33.675Q33.221874 33.05 33.784374 32.675Q34.346874 32.284374 35.05 32.08125Q35.565624 31.95625 36.6125 31.815624Q38.7375 31.565624 39.7375 31.221874Q39.753124 30.8625 39.753124 30.753124Q39.753124 29.690624 39.253124 29.2375Q38.58125 28.64375 37.253124 28.64375Q36.003124 28.64375 35.409374 29.08125Q34.83125 29.51875 34.55 30.628124L32.83125 30.39375Q33.065624 29.284374 33.596874 28.6125Q34.128124 27.925 35.14375 27.565624Q36.159374 27.190624 37.503124 27.190624Q38.83125 27.190624 39.659374 27.503124Q40.4875 27.815624 40.878124 28.3Q41.26875 28.76875 41.425 29.4875Q41.51875 29.940624 41.51875 31.1125L41.51875 33.45625Q41.51875 35.909374 41.628124 36.565624Q41.7375 37.20625 42.08125 37.8L40.2375 37.8Q39.971874 37.253124 39.89375 36.51875ZM39.7375 32.596874Q38.784374 32.9875 36.8625 33.253124Q35.784374 33.409374 35.33125 33.6125Q34.89375 33.8 34.64375 34.175Q34.39375 34.55 34.39375 35.01875Q34.39375 35.721874 34.925 36.190624Q35.45625 36.659374 36.4875 36.659374Q37.503124 36.659374 38.284374 36.221874Q39.08125 35.76875 39.45625 35.003124Q39.7375 34.39375 39.7375 33.2375L39.7375 32.596874ZM43.409374 34.70625L45.159374 34.425Q45.3 35.471874 45.971874 36.034374Q46.64375 36.58125 47.846874 36.58125Q49.05 36.58125 49.628124 36.096874Q50.221874 35.596874 50.221874 34.940624Q50.221874 34.346874 49.70625 34.003124Q49.346874 33.76875 47.909374 33.409374Q45.971874 32.909374 45.221874 32.565624Q44.4875 32.20625 44.096874 31.58125Q43.70625 30.940624 43.70625 30.175Q43.70625 29.4875 44.01875 28.89375Q44.346874 28.3 44.89375 27.909374Q45.3 27.6125 46.003124 27.409374Q46.721874 27.190624 47.534374 27.190624Q48.753124 27.190624 49.675 27.55Q50.596874 27.89375 51.034374 28.503124Q51.471874 29.096874 51.64375 30.096874L49.925 30.33125Q49.8 29.534374 49.2375 29.096874Q48.675 28.64375 47.659374 28.64375Q46.440624 28.64375 45.925 29.05Q45.409374 29.440624 45.409374 29.971874Q45.409374 30.315624 45.628124 30.596874Q45.83125 30.878124 46.3 31.065624Q46.565624 31.159374 47.846874 31.503124Q49.721874 32.003124 50.45625 32.33125Q51.190624 32.64375 51.6125 33.253124Q52.034374 33.846874 52.034374 34.753124Q52.034374 35.628124 51.51875 36.409374Q51.003124 37.190624 50.034374 37.6125Q49.065624 38.034374 47.846874 38.034374Q45.83125 38.034374 44.76875 37.190624Q43.70625 36.346874 43.409374 34.70625ZM61.221874 34.45625L63.034374 34.690624Q62.6125 36.26875 61.440624 37.159374Q60.284374 38.034374 58.471874 38.034374Q56.20625 38.034374 54.8625 36.64375Q53.534374 35.2375 53.534374 32.70625Q53.534374 30.08125 54.878124 28.64375Q56.221874 27.190624 58.378124 27.190624Q60.45625 27.190624 61.76875 28.6125Q63.096874 30.01875 63.096874 32.596874Q63.096874 32.753124 63.08125 33.065624L55.346874 33.065624Q55.440624 34.76875 56.315624 35.675Q57.190624 36.58125 58.4875 36.58125Q59.45625 36.58125 60.128124 36.08125Q60.815624 35.565624 61.221874 34.45625ZM55.440624 31.6125L61.2375 31.6125Q61.128124 30.315624 60.58125 29.659374Q59.7375 28.64375 58.39375 28.64375Q57.190624 28.64375 56.3625 29.45625Q55.534374 30.253124 55.440624 31.6125ZM65.65938 37.8L65.65938 23.4875L67.56563 23.4875L67.56563 37.8L65.65938 37.8ZM71.1125 37.8L71.1125 27.425L72.70625 27.425L72.70625 28.909374Q73.84688 27.190624 76.00313 27.190624Q76.94063 27.190624 77.72188 27.534374Q78.51875 27.8625 78.90938 28.409374Q79.3 28.95625 79.45625 29.70625Q79.55 30.20625 79.55 31.425L79.55 37.8L77.78438 37.8L77.78438 31.4875Q77.78438 30.409374 77.58125 29.878124Q77.37813 29.346874 76.84688 29.034374Q76.33125 28.721874 75.62813 28.721874Q74.50313 28.721874 73.69063 29.440624Q72.87813 30.14375 72.87813 32.128124L72.87813 37.8L71.1125 37.8ZM80.70625 33.20625L82.4875 33.05Q82.6125 34.1125 83.06563 34.8Q83.53438 35.4875 84.50313 35.925Q85.4875 36.346874 86.72188 36.346874Q87.8 36.346874 88.62813 36.034374Q89.45625 35.70625 89.8625 35.14375Q90.26875 34.58125 90.26875 33.909374Q90.26875 33.2375 89.87813 32.7375Q89.4875 32.2375 88.59688 31.89375Q88.01875 31.659374 86.03438 31.190624Q84.06563 30.721874 83.28438 30.3Q82.25313 29.76875 81.75313 28.971874Q81.25313 28.175 81.25313 27.190624Q81.25313 26.096874 81.8625 25.159374Q82.47188 24.221874 83.65938 23.7375Q84.84688 23.2375 86.28438 23.2375Q87.87813 23.2375 89.09688 23.753124Q90.31563 24.26875 90.95625 25.26875Q91.6125 26.253124 91.65938 27.51875L89.84688 27.659374Q89.70625 26.3 88.8625 25.6125Q88.01875 24.909374 86.3625 24.909374Q84.64375 24.909374 83.84688 25.55Q83.06563 26.175 83.06563 27.05Q83.06563 27.83125 83.62813 28.33125Q84.175 28.83125 86.4875 29.346874Q88.8 29.8625 89.65938 30.253124Q90.90938 30.83125 91.50313 31.721874Q92.09688 32.596874 92.09688 33.753124Q92.09688 34.89375 91.44063 35.909374Q90.78438 36.925 89.55 37.4875Q88.33125 38.05 86.8 38.05Q84.8625 38.05 83.55 37.4875Q82.2375 36.909374 81.4875 35.76875Q80.7375 34.628124 80.70625 33.20625ZM94.12813 25.503124L94.12813 23.4875L95.89375 23.4875L95.89375 25.503124L94.12813 25.503124ZM94.12813 37.8L94.12813 27.425L95.89375 27.425L95.89375 37.8L94.12813 37.8ZM98.1125 37.8L98.1125 27.425L99.70625 27.425L99.70625 28.909374Q100.84688 27.190624 103.00313 27.190624Q103.94063 27.190624 104.72188 27.534374Q105.51875 27.8625 105.90938 28.409374Q106.3 28.95625 106.45625 29.70625Q106.55 30.20625 106.55 31.425L106.55 37.8L104.78438 37.8L104.78438 31.4875Q104.78438 30.409374 104.58125 29.878124Q104.37813 29.346874 103.84688 29.034374Q103.33125 28.721874 102.62813 28.721874Q101.50313 28.721874 100.69063 29.440624Q99.87813 30.14375 99.87813 32.128124L99.87813 37.8L98.1125 37.8ZM115.22188 34.45625L117.03438 34.690624Q116.6125 36.26875 115.44063 37.159374Q114.28438 38.034374 112.47188 38.034374Q110.20625 38.034374 108.8625 36.64375Q107.53438 35.2375 107.53438 32.70625Q107.53438 30.08125 108.87813 28.64375Q110.22188 27.190624 112.37813 27.190624Q114.45625 27.190624 115.76875 28.6125Q117.09688 30.01875 117.09688 32.596874Q117.09688 32.753124 117.08125 33.065624L109.34688 33.065624Q109.44063 34.76875 110.31563 35.675Q111.19063 36.58125 112.4875 36.58125Q113.45625 36.58125 114.12813 36.08125Q114.81563 35.565624 115.22188 34.45625ZM109.44063 31.6125L115.2375 31.6125Q115.12813 30.315624 114.58125 29.659374Q113.7375 28.64375 112.39375 28.64375Q111.19063 28.64375 110.3625 29.45625Q109.53438 30.253124 109.44063 31.6125Z" fill-rule="nonzero"/></svg>