<svg version="1.1" viewBox="0.0 0.0 608.0 376.0" fill="none" stroke="none" stroke-linecap="square" stroke-miterlimit="10" width="608" height="376" xmlns:xlink="http://www.w3.org/1999/xlink" xmlns="http://www.w3.org/2000/svg"><path fill="#ffffff" d="M0 0L608.0 0L608.0 376.0L0 376.0L0 0Z" fill-rule="nonzero"/><path stroke="#333333" stroke-width="1.0" stroke-linecap="butt" d="M80.5 318.5L589.5 318.5" fill-rule="nonzero"/><path stroke="#cccccc" stroke-width="1.0" stroke-linecap="butt" d="M80.5 254.5L589.5 254.5" fill-rule="nonzero"/><path stroke="#cccccc" stroke-width="1.0" stroke-linecap="butt" d="M80.5 190.5L589.5 190.5" fill-rule="nonzero"/><path stroke="#cccccc" stroke-width="1.0" stroke-linecap="butt" d="M80.5 126.5L589.5 126.5" fill-rule="nonzero"/><path stroke="#cccccc" stroke-width="1.0" stroke-linecap="butt" d="M80.5 62.5L589.5 62.5" fill-rule="nonzero"/><path stroke="#000000" stroke-width="1.0" stroke-linecap="butt" d="M80.5 318.5L80.5 62.5" fill-rule="nonzero"/><clipPath id="id_0"><path d="M80.8 62.333332L589.2 62.333332L589.2 318.2L80.8 318.2L80.8 62.333332Z" clip-rule="nonzero"/></clipPath><path stroke="#4285f4" stroke-width="2.0" stroke-linecap="butt" clip-path="url(#id_0)" d="M83.31683 318.2C83.31683 318.2 86.67261 318.1355 88.350494 318.0065C90.02838 317.8775 91.70627 317.684 93.384155 317.426C95.06205 317.168 96.73994 316.84552 98.41782 316.4585C100.09571 316.0715 101.7736 315.62003 103.451485 315.104C105.12937 314.588 106.80726 314.0075 108.485146 313.36252C110.16303 312.71753 111.84093 312.00803 113.518814 311.23404C115.1967 310.46002 116.87459 309.62155 118.552475 308.71854C120.23036 307.81555 121.90825 306.84805 123.586136 305.81604C125.26402 304.78406 126.94192 303.68756 128.6198 302.52658C130.29768 301.36557 131.97557 300.14008 133.65347 298.8501C135.33136 297.5601 137.00925 296.2056 138.68713 294.7866C140.36502 293.3676 142.04291 291.88412 143.7208 290.33612C145.39868 288.78812 147.07657 287.17563 148.75446 285.49863C150.43234 283.82166 152.11023 282.08017 153.78812 280.27417C155.466 278.46817 157.14389 276.5977 158.82178 274.6627C160.49966 272.7277 162.17755 270.7282 163.85544 268.6642C165.53334 266.60022 167.21123 264.47174 168.88911 262.27875C170.567 260.08575 172.24489 257.82825 173.92278 255.50627C175.60066 253.18428 177.27855 250.79779 178.95644 248.3468C180.63432 245.89581 182.31221 243.38033 183.9901 240.80034C185.66798 238.22034 187.34587 235.57585 189.02376 232.86687C190.70164 230.15788 192.37953 227.38438 194.05742 224.5464C195.73532 221.70842 197.41321 218.80592 199.0911 215.83894C200.76898 212.87195 202.44687 209.84047 204.12476 206.74448C205.80264 203.6485 207.48053 200.488 209.15842 197.26302C210.8363 194.03804 212.51419 190.74855 214.19208 187.39456C215.86996 184.04057 217.54785 180.62209 219.22574 177.13911C220.90363 173.65613 222.58151 170.10864 224.2594 166.49666C225.93729 162.88467 227.61519 159.20819 229.29308 155.4672C230.97096 151.72621 232.64885 147.92073 234.32674 144.05075C236.00462 140.18077 237.68251 136.24628 239.3604 132.2473C241.03828 128.24832 242.71617 124.18484 244.39406 120.056854C246.07195 115.92887 247.74983 111.73639 249.42772 107.47941C251.1056 103.22243 252.7835 98.90095 254.46138 94.51496C256.13928 90.12898 257.81717 85.678505 259.49506 81.16352C261.17294 76.64854 262.85083 69.83022 264.52872 67.42508C266.2066 65.019936 267.8845 65.74862 269.56238 66.73264C271.24026 67.71666 272.91815 71.19485 274.59604 73.3292C276.27393 75.463554 277.9518 77.53341 279.6297 79.538765C281.3076 81.54412 282.98547 83.48498 284.66336 85.361336C286.34125 87.237686 288.01913 89.049545 289.69702 90.7969C291.3749 92.54426 293.0528 94.22711 294.73068 95.84547C296.40857 97.46383 298.08646 99.017685 299.76434 100.50704C301.44223 101.9964 303.12012 103.42126 304.79803 104.78162C306.47592 106.14197 308.1538 107.43783 309.8317 108.66919C311.50958 109.90054 313.18747 111.067406 314.86536 112.16976C316.54324 113.272125 318.22113 114.30998 319.89902 115.28334C321.5769 116.2567 323.2548 117.16556 324.93268 118.00992C326.61057 118.85428 328.28845 119.63414 329.96634 120.3495C331.64423 121.064865 333.3221 121.71572 335.0 122.302086C336.6779 122.88844 338.35577 123.41031 340.03366 123.86767C341.71155 124.32503 343.38943 124.71789 345.06732 125.04626C346.7452 125.37462 348.4231 125.63848 350.10098 125.83784C351.77887 126.0372 353.45676 126.172066 355.13464 126.24243C356.81253 126.31279 358.49042 126.31866 360.1683 126.26002C361.8462 126.201385 363.52408 126.07825 365.20197 125.89061C366.87988 125.70298 368.55777 125.45084 370.23566 125.13421C371.91354 124.81757 373.59143 124.43644 375.26932 123.99081C376.9472 123.545166 378.6251 123.035034 380.30298 122.4604C381.98087 121.885765 383.65875 121.246635 385.33664 120.543C387.01453 119.83936 388.6924 119.071236 390.3703 118.2386C392.0482 117.40597 393.72607 116.508835 395.40396 115.5472C397.08185 114.58557 398.75974 113.55944 400.43762 112.46881C402.1155 111.378174 403.7934 110.223045 405.47128 109.00341C407.14917 107.78378 408.82706 106.49965 410.50494 105.151024C412.18283 103.80239 413.86072 102.38926 415.5386 100.91163C417.2165 99.434 418.89438 97.89187 420.57227 96.28524C422.25015 94.67861 423.92804 93.007484 425.60593 91.27185C427.2838 89.536224 428.96173 87.7361 430.63962 85.87147C432.3175 84.006836 433.9954 82.07771 435.67328 80.08408C437.35117 78.090454 439.02905 76.032326 440.70694 73.9097C442.38483 71.78707 444.0627 69.12019 445.7406 67.34832C447.4185 65.57645 449.09637 63.420235 450.77426 63.278442C452.45215 63.136646 454.13004 65.48902 455.80792 66.49757C457.4858 67.5061 459.1637 68.45015 460.84158 69.32969C462.51947 70.20923 464.19736 71.02427 465.87524 71.77481C467.55313 72.52535 469.23102 73.211395 470.9089 73.83294C472.5868 74.45448 474.26468 75.01153 475.94257 75.50407C477.62045 75.99661 479.29834 76.42466 480.97623 76.7882C482.6541 77.15174 484.332 77.45079 486.0099 77.68533C487.68777 77.919876 489.36566 78.08992 491.04358 78.195465C492.72147 78.30101 494.39935 78.34206 496.07724 78.3186C497.75513 78.29515 499.433 78.20719 501.1109 78.05474C502.7888 77.90229 504.46667 77.68533 506.14456 77.40388C507.82245 77.12243 509.50034 76.776474 511.17822 76.36602C512.8561 75.95557 514.534 75.48061 516.21185 74.94116C517.8898 74.40171 519.5676 73.79776 521.24554 73.12931C522.92346 72.46085 524.6013 71.727905 526.27924 70.93045C527.9571 70.133 529.635 69.27105 531.31287 68.344604C532.9908 67.41815 534.66864 66.347244 536.34656 65.37175C538.0244 64.396255 539.70233 62.7166 541.3802 62.49165C543.0581 62.2667 544.73596 63.57642 546.4139 64.02206C548.09174 64.46769 549.76965 64.84882 551.4475 65.16546C553.1254 65.48209 554.8033 65.73423 556.4812 65.92186C558.15906 66.1095 559.837 66.232635 561.51483 66.29127C563.19275 66.34991 564.8706 66.34404 566.5485 66.27368C568.2264 66.203316 569.9043 66.06845 571.58215 65.86909C573.2601 65.66973 574.9379 65.40587 576.61584 65.07751C578.2937 64.74914 579.9716 64.35628 581.6495 63.89892C583.3274 63.441555 586.68317 62.333332 586.68317 62.333332" fill-rule="nonzero"/><path fill="#000000" fill-opacity="0.0" clip-path="url(#id_0)" d="M86.31683 318.2C86.31683 319.85684 84.97369 321.2 83.31683 321.2C81.65998 321.2 80.31683 319.85684 80.31683 318.2C80.31683 316.54315 81.65998 315.2 83.31683 315.2C84.97369 315.2 86.31683 316.54315 86.31683 318.2Z" fill-rule="nonzero"/><path fill="#000000" fill-opacity="0.0" clip-path="url(#id_0)" d="M91.350494 318.0065C91.350494 319.66336 90.00735 321.0065 88.350494 321.0065C86.69364 321.0065 85.350494 319.66336 85.350494 318.0065C85.350494 316.34964 86.69364 315.0065 88.350494 315.0065C90.00735 315.0065 91.350494 316.34964 91.350494 318.0065Z" fill-rule="nonzero"/><path fill="#000000" fill-opacity="0.0" clip-path="url(#id_0)" d="M96.384155 317.426C96.384155 319.08286 95.041016 320.426 93.384155 320.426C91.7273 320.426 90.384155 319.08286 90.384155 317.426C90.384155 315.76913 91.7273 314.426 93.384155 314.426C95.041016 314.426 96.384155 315.76913 96.384155 317.426Z" fill-rule="nonzero"/><path fill="#000000" fill-opacity="0.0" clip-path="url(#id_0)" d="M101.41782 316.4585C101.41782 318.11536 100.07468 319.4585 98.41782 319.4585C96.76097 319.4585 95.41782 318.11536 95.41782 316.4585C95.41782 314.80167 96.76097 313.4585 98.41782 313.4585C100.07468 313.4585 101.41782 314.80167 101.41782 316.4585Z" fill-rule="nonzero"/><path fill="#000000" fill-opacity="0.0" clip-path="url(#id_0)" d="M106.451485 315.104C106.451485 316.76086 105.10834 318.104 103.451485 318.104C101.79463 318.104 100.451485 316.76086 100.451485 315.104C100.451485 313.44717 101.79463 312.104 103.451485 312.104C105.10834 312.104 106.451485 313.44717 106.451485 315.104Z" fill-rule="nonzero"/><path fill="#000000" fill-opacity="0.0" clip-path="url(#id_0)" d="M111.485146 313.36252C111.485146 315.01938 110.142006 316.36252 108.485146 316.36252C106.82829 316.36252 105.485146 315.01938 105.485146 313.36252C105.485146 311.70566 106.82829 310.36252 108.485146 310.36252C110.142006 310.36252 111.485146 311.70566 111.485146 313.36252Z" fill-rule="nonzero"/><path fill="#000000" fill-opacity="0.0" clip-path="url(#id_0)" d="M116.518814 311.23404C116.518814 312.89087 115.17567 314.23404 113.518814 314.23404C111.86196 314.23404 110.518814 312.89087 110.518814 311.23404C110.518814 309.57718 111.86196 308.23404 113.518814 308.23404C115.17567 308.23404 116.518814 309.57718 116.518814 311.23404Z" fill-rule="nonzero"/><path fill="#000000" fill-opacity="0.0" clip-path="url(#id_0)" d="M121.552475 308.71854C121.552475 310.3754 120.20933 311.71854 118.552475 311.71854C116.89562 311.71854 115.552475 310.3754 115.552475 308.71854C115.552475 307.06168 116.89562 305.71854 118.552475 305.71854C120.20933 305.71854 121.552475 307.06168 121.552475 308.71854Z" fill-rule="nonzero"/><path fill="#000000" fill-opacity="0.0" clip-path="url(#id_0)" d="M126.586136 305.81604C126.586136 307.4729 125.243 308.81604 123.586136 308.81604C121.92928 308.81604 120.586136 307.4729 120.586136 305.81604C120.586136 304.1592 121.92928 302.81604 123.586136 302.81604C125.243 302.81604 126.586136 304.1592 126.586136 305.81604Z" fill-rule="nonzero"/><path fill="#000000" fill-opacity="0.0" clip-path="url(#id_0)" d="M131.6198 302.52658C131.6198 304.1834 130.27666 305.52658 128.6198 305.52658C126.962944 305.52658 125.619804 304.1834 125.619804 302.52658C125.619804 300.86972 126.962944 299.52658 128.6198 299.52658C130.27666 299.52658 131.6198 300.86972 131.6198 302.52658Z" fill-rule="nonzero"/><path fill="#000000" fill-opacity="0.0" clip-path="url(#id_0)" d="M136.65347 298.8501C136.65347 300.50693 135.31032 301.8501 133.65347 301.8501C131.99661 301.8501 130.65347 300.50693 130.65347 298.8501C130.65347 297.19324 131.99661 295.8501 133.65347 295.8501C135.31032 295.8501 136.65347 297.19324 136.65347 298.8501Z" fill-rule="nonzero"/><path fill="#000000" fill-opacity="0.0" clip-path="url(#id_0)" d="M141.68713 294.7866C141.68713 296.44345 140.34398 297.7866 138.68713 297.7866C137.03027 297.7866 135.68713 296.44345 135.68713 294.7866C135.68713 293.12976 137.03027 291.7866 138.68713 291.7866C140.34398 291.7866 141.68713 293.12976 141.68713 294.7866Z" fill-rule="nonzero"/><path fill="#000000" fill-opacity="0.0" clip-path="url(#id_0)" d="M146.7208 290.33612C146.7208 291.99298 145.37764 293.33612 143.7208 293.33612C142.06393 293.33612 140.7208 291.99298 140.7208 290.33612C140.7208 288.67926 142.06393 287.33612 143.7208 287.33612C145.37764 287.33612 146.7208 288.67926 146.7208 290.33612Z" fill-rule="nonzero"/><path fill="#000000" fill-opacity="0.0" clip-path="url(#id_0)" d="M151.75446 285.49863C151.75446 287.1555 150.41132 288.49863 148.75446 288.49863C147.0976 288.49863 145.75446 287.1555 145.75446 285.49863C145.75446 283.8418 147.0976 282.49863 148.75446 282.49863C150.41132 282.49863 151.75446 283.8418 151.75446 285.49863Z" fill-rule="nonzero"/><path fill="#000000" fill-opacity="0.0" clip-path="url(#id_0)" d="M156.78812 280.27417C156.78812 281.93103 155.44498 283.27417 153.78812 283.27417C152.13127 283.27417 150.78812 281.93103 150.78812 280.27417C150.78812 278.6173 152.13127 277.27417 153.78812 277.27417C155.44498 277.27417 156.78812 278.6173 156.78812 280.27417Z" fill-rule="nonzero"/><path fill="#000000" fill-opacity="0.0" clip-path="url(#id_0)" d="M161.82178 274.6627C161.82178 276.31955 160.47864 277.6627 158.82178 277.6627C157.16493 277.6627 155.82178 276.31955 155.82178 274.6627C155.82178 273.00583 157.16493 271.6627 158.82178 271.6627C160.47864 271.6627 161.82178 273.00583 161.82178 274.6627Z" fill-rule="nonzero"/><path fill="#000000" fill-opacity="0.0" clip-path="url(#id_0)" d="M166.85544 268.6642C166.85544 270.32108 165.5123 271.6642 163.85544 271.6642C162.1986 271.6642 160.85544 270.32108 160.85544 268.6642C160.85544 267.00735 162.1986 265.6642 163.85544 265.6642C165.5123 265.6642 166.85544 267.00735 166.85544 268.6642Z" fill-rule="nonzero"/><path fill="#000000" fill-opacity="0.0" clip-path="url(#id_0)" d="M171.88911 262.27875C171.88911 263.9356 170.54596 265.27875 168.88911 265.27875C167.23225 265.27875 165.88911 263.9356 165.88911 262.27875C165.88911 260.6219 167.23225 259.27875 168.88911 259.27875C170.54596 259.27875 171.88911 260.6219 171.88911 262.27875Z" fill-rule="nonzero"/><path fill="#000000" fill-opacity="0.0" clip-path="url(#id_0)" d="M176.92278 255.50627C176.92278 257.16312 175.57962 258.50626 173.92278 258.50626C172.26591 258.50626 170.92278 257.16312 170.92278 255.50627C170.92278 253.84941 172.26591 252.50627 173.92278 252.50627C175.57962 252.50627 176.92278 253.84941 176.92278 255.50627Z" fill-rule="nonzero"/><path fill="#000000" fill-opacity="0.0" clip-path="url(#id_0)" d="M181.95644 248.3468C181.95644 250.00366 180.6133 251.3468 178.95644 251.3468C177.29958 251.3468 175.95644 250.00366 175.95644 248.3468C175.95644 246.68994 177.29958 245.3468 178.95644 245.3468C180.6133 245.3468 181.95644 246.68994 181.95644 248.3468Z" fill-rule="nonzero"/><path fill="#000000" fill-opacity="0.0" clip-path="url(#id_0)" d="M186.9901 240.80034C186.9901 242.45718 185.64696 243.80034 183.9901 243.80034C182.33325 243.80034 180.9901 242.45718 180.9901 240.80034C180.9901 239.14348 182.33325 237.80034 183.9901 237.80034C185.64696 237.80034 186.9901 239.14348 186.9901 240.80034Z" fill-rule="nonzero"/><path fill="#000000" fill-opacity="0.0" clip-path="url(#id_0)" d="M192.02376 232.86687C192.02376 234.52373 190.68062 235.86687 189.02376 235.86687C187.36691 235.86687 186.02376 234.52373 186.02376 232.86687C186.02376 231.21 187.36691 229.86687 189.02376 229.86687C190.68062 229.86687 192.02376 231.21 192.02376 232.86687Z" fill-rule="nonzero"/><path fill="#000000" fill-opacity="0.0" clip-path="url(#id_0)" d="M197.05742 224.5464C197.05742 226.20326 195.71428 227.5464 194.05742 227.5464C192.40057 227.5464 191.05742 226.20326 191.05742 224.5464C191.05742 222.88954 192.40057 221.5464 194.05742 221.5464C195.71428 221.5464 197.05742 222.88954 197.05742 224.5464Z" fill-rule="nonzero"/><path fill="#000000" fill-opacity="0.0" clip-path="url(#id_0)" d="M202.0911 215.83894C202.0911 217.49579 200.74794 218.83894 199.0911 218.83894C197.43423 218.83894 196.0911 217.49579 196.0911 215.83894C196.0911 214.18208 197.43423 212.83894 199.0911 212.83894C200.74794 212.83894 202.0911 214.18208 202.0911 215.83894Z" fill-rule="nonzero"/><path fill="#000000" fill-opacity="0.0" clip-path="url(#id_0)" d="M207.12476 206.74448C207.12476 208.40134 205.7816 209.74448 204.12476 209.74448C202.4679 209.74448 201.12476 208.40134 201.12476 206.74448C201.12476 205.08763 202.4679 203.74448 204.12476 203.74448C205.7816 203.74448 207.12476 205.08763 207.12476 206.74448Z" fill-rule="nonzero"/><path fill="#000000" fill-opacity="0.0" clip-path="url(#id_0)" d="M212.15842 197.26302C212.15842 198.91988 210.81528 200.26302 209.15842 200.26302C207.50156 200.26302 206.15842 198.91988 206.15842 197.26302C206.15842 195.60617 207.50156 194.26302 209.15842 194.26302C210.81528 194.26302 212.15842 195.60617 212.15842 197.26302Z" fill-rule="nonzero"/><path fill="#000000" fill-opacity="0.0" clip-path="url(#id_0)" d="M217.19208 187.39456C217.19208 189.05142 215.84894 190.39456 214.19208 190.39456C212.53523 190.39456 211.19208 189.05142 211.19208 187.39456C211.19208 185.73772 212.53523 184.39456 214.19208 184.39456C215.84894 184.39456 217.19208 185.73772 217.19208 187.39456Z" fill-rule="nonzero"/><path fill="#000000" fill-opacity="0.0" clip-path="url(#id_0)" d="M222.22574 177.13911C222.22574 178.79596 220.8826 180.13911 219.22574 180.13911C217.5689 180.13911 216.22574 178.79596 216.22574 177.13911C216.22574 175.48225 217.5689 174.13911 219.22574 174.13911C220.8826 174.13911 222.22574 175.48225 222.22574 177.13911Z" fill-rule="nonzero"/><path fill="#000000" fill-opacity="0.0" clip-path="url(#id_0)" d="M227.2594 166.49666C227.2594 168.1535 225.91626 169.49666 224.2594 169.49666C222.60255 169.49666 221.2594 168.1535 221.2594 166.49666C221.2594 164.8398 222.60255 163.49666 224.2594 163.49666C225.91626 163.49666 227.2594 164.8398 227.2594 166.49666Z" fill-rule="nonzero"/><path fill="#000000" fill-opacity="0.0" clip-path="url(#id_0)" d="M232.29308 155.4672C232.29308 157.12405 230.94992 158.4672 229.29308 158.4672C227.63622 158.4672 226.29308 157.12405 226.29308 155.4672C226.29308 153.81035 227.63622 152.4672 229.29308 152.4672C230.94992 152.4672 232.29308 153.81035 232.29308 155.4672Z" fill-rule="nonzero"/><path fill="#000000" fill-opacity="0.0" clip-path="url(#id_0)" d="M237.32674 144.05075C237.32674 145.70761 235.98358 147.05075 234.32674 147.05075C232.66988 147.05075 231.32674 145.70761 231.32674 144.05075C231.32674 142.39389 232.66988 141.05075 234.32674 141.05075C235.98358 141.05075 237.32674 142.39389 237.32674 144.05075Z" fill-rule="nonzero"/><path fill="#000000" fill-opacity="0.0" clip-path="url(#id_0)" d="M242.3604 132.2473C242.3604 133.90416 241.01726 135.2473 239.3604 135.2473C237.70354 135.2473 236.3604 133.90416 236.3604 132.2473C236.3604 130.59045 237.70354 129.2473 239.3604 129.2473C241.01726 129.2473 242.3604 130.59045 242.3604 132.2473Z" fill-rule="nonzero"/><path fill="#000000" fill-opacity="0.0" clip-path="url(#id_0)" d="M247.39406 120.056854C247.39406 121.71371 246.05092 123.056854 244.39406 123.056854C242.7372 123.056854 241.39406 121.71371 241.39406 120.056854C241.39406 118.4 242.7372 117.056854 244.39406 117.056854C246.05092 117.056854 247.39406 118.4 247.39406 120.056854Z" fill-rule="nonzero"/><path fill="#000000" fill-opacity="0.0" clip-path="url(#id_0)" d="M252.42772 107.47941C252.42772 109.13626 251.08458 110.47941 249.42772 110.47941C247.77087 110.47941 246.42772 109.13626 246.42772 107.47941C246.42772 105.822556 247.77087 104.47941 249.42772 104.47941C251.08458 104.47941 252.42772 105.822556 252.42772 107.47941Z" fill-rule="nonzero"/><path fill="#000000" fill-opacity="0.0" clip-path="url(#id_0)" d="M257.4614 94.51496C257.4614 96.171814 256.11826 97.51496 254.46138 97.51496C252.80453 97.51496 251.46138 96.171814 251.46138 94.51496C251.46138 92.85811 252.80453 91.51496 254.46138 91.51496C256.11826 91.51496 257.4614 92.85811 257.4614 94.51496Z" fill-rule="nonzero"/><path fill="#000000" fill-opacity="0.0" clip-path="url(#id_0)" d="M262.49506 81.16352C262.49506 82.82037 261.15192 84.16352 259.49506 84.16352C257.8382 84.16352 256.49506 82.82037 256.49506 81.16352C256.49506 79.50667 257.8382 78.16352 259.49506 78.16352C261.15192 78.16352 262.49506 79.50667 262.49506 81.16352Z" fill-rule="nonzero"/><path fill="#000000" fill-opacity="0.0" clip-path="url(#id_0)" d="M267.52872 67.42508C267.52872 69.08193 266.18558 70.42508 264.52872 70.42508C262.87186 70.42508 261.52872 69.08193 261.52872 67.42508C261.52872 65.76823 262.87186 64.42508 264.52872 64.42508C266.18558 64.42508 267.52872 65.76823 267.52872 67.42508Z" fill-rule="nonzero"/><path fill="#000000" fill-opacity="0.0" clip-path="url(#id_0)" d="M272.56238 66.73264C272.56238 68.389496 271.21924 69.73264 269.56238 69.73264C267.90552 69.73264 266.56238 68.389496 266.56238 66.73264C266.56238 65.07578 267.90552 63.73264 269.56238 63.73264C271.21924 63.73264 272.56238 65.07578 272.56238 66.73264Z" fill-rule="nonzero"/><path fill="#000000" fill-opacity="0.0" clip-path="url(#id_0)" d="M277.59604 73.3292C277.59604 74.98606 276.2529 76.3292 274.59604 76.3292C272.93918 76.3292 271.59604 74.98606 271.59604 73.3292C271.59604 71.67235 272.93918 70.3292 274.59604 70.3292C276.2529 70.3292 277.59604 71.67235 277.59604 73.3292Z" fill-rule="nonzero"/><path fill="#000000" fill-opacity="0.0" clip-path="url(#id_0)" d="M282.6297 79.538765C282.6297 81.195625 281.28656 82.538765 279.6297 82.538765C277.97284 82.538765 276.6297 81.195625 276.6297 79.538765C276.6297 77.88191 277.97284 76.538765 279.6297 76.538765C281.28656 76.538765 282.6297 77.88191 282.6297 79.538765Z" fill-rule="nonzero"/><path fill="#000000" fill-opacity="0.0" clip-path="url(#id_0)" d="M287.66336 85.361336C287.66336 87.01819 286.32022 88.361336 284.66336 88.361336C283.0065 88.361336 281.66336 87.01819 281.66336 85.361336C281.66336 83.704475 283.0065 82.361336 284.66336 82.361336C286.32022 82.361336 287.66336 83.704475 287.66336 85.361336Z" fill-rule="nonzero"/><path fill="#000000" fill-opacity="0.0" clip-path="url(#id_0)" d="M292.69702 90.7969C292.69702 92.45376 291.35388 93.7969 289.69702 93.7969C288.04016 93.7969 286.69702 92.45376 286.69702 90.7969C286.69702 89.140045 288.04016 87.7969 289.69702 87.7969C291.35388 87.7969 292.69702 89.140045 292.69702 90.7969Z" fill-rule="nonzero"/><path fill="#000000" fill-opacity="0.0" clip-path="url(#id_0)" d="M297.73068 95.84547C297.73068 97.50233 296.38754 98.84547 294.73068 98.84547C293.07385 98.84547 291.73068 97.50233 291.73068 95.84547C291.73068 94.188614 293.07385 92.84547 294.73068 92.84547C296.38754 92.84547 297.73068 94.188614 297.73068 95.84547Z" fill-rule="nonzero"/><path fill="#000000" fill-opacity="0.0" clip-path="url(#id_0)" d="M302.76434 100.50704C302.76434 102.163895 301.4212 103.50704 299.76434 103.50704C298.1075 103.50704 296.76434 102.163895 296.76434 100.50704C296.76434 98.85019 298.1075 97.50704 299.76434 97.50704C301.4212 97.50704 302.76434 98.85019 302.76434 100.50704Z" fill-rule="nonzero"/><path fill="#000000" fill-opacity="0.0" clip-path="url(#id_0)" d="M307.79803 104.78162C307.79803 106.43847 306.45486 107.78162 304.79803 107.78162C303.14117 107.78162 301.79803 106.43847 301.79803 104.78162C301.79803 103.124756 303.14117 101.78162 304.79803 101.78162C306.45486 101.78162 307.79803 103.124756 307.79803 104.78162Z" fill-rule="nonzero"/><path fill="#000000" fill-opacity="0.0" clip-path="url(#id_0)" d="M312.8317 108.66919C312.8317 110.32604 311.48853 111.66919 309.8317 111.66919C308.17484 111.66919 306.8317 110.32604 306.8317 108.66919C306.8317 107.01234 308.17484 105.66919 309.8317 105.66919C311.48853 105.66919 312.8317 107.01234 312.8317 108.66919Z" fill-rule="nonzero"/><path fill="#000000" fill-opacity="0.0" clip-path="url(#id_0)" d="M317.86536 112.16976C317.86536 113.826614 316.5222 115.16976 314.86536 115.16976C313.2085 115.16976 311.86536 113.826614 311.86536 112.16976C311.86536 110.51291 313.2085 109.16976 314.86536 109.16976C316.5222 109.16976 317.86536 110.51291 317.86536 112.16976Z" fill-rule="nonzero"/><path fill="#000000" fill-opacity="0.0" clip-path="url(#id_0)" d="M322.89902 115.28334C322.89902 116.94019 321.55588 118.28334 319.89902 118.28334C318.24216 118.28334 316.89902 116.94019 316.89902 115.28334C316.89902 113.62649 318.24216 112.28334 319.89902 112.28334C321.55588 112.28334 322.89902 113.62649 322.89902 115.28334Z" fill-rule="nonzero"/><path fill="#000000" fill-opacity="0.0" clip-path="url(#id_0)" d="M327.93268 118.00992C327.93268 119.66677 326.58954 121.00992 324.93268 121.00992C323.27582 121.00992 321.93268 119.66677 321.93268 118.00992C321.93268 116.353065 323.27582 115.00992 324.93268 115.00992C326.58954 115.00992 327.93268 116.353065 327.93268 118.00992Z" fill-rule="nonzero"/><path fill="#000000" fill-opacity="0.0" clip-path="url(#id_0)" d="M332.96634 120.3495C332.96634 122.006355 331.6232 123.3495 329.96634 123.3495C328.30948 123.3495 326.96634 122.006355 326.96634 120.3495C326.96634 118.69265 328.30948 117.3495 329.96634 117.3495C331.6232 117.3495 332.96634 118.69265 332.96634 120.3495Z" fill-rule="nonzero"/><path fill="#000000" fill-opacity="0.0" clip-path="url(#id_0)" d="M338.0 122.302086C338.0 123.95894 336.65686 125.302086 335.0 125.302086C333.34314 125.302086 332.0 123.95894 332.0 122.302086C332.0 120.645226 333.34314 119.302086 335.0 119.302086C336.65686 119.302086 338.0 120.645226 338.0 122.302086Z" fill-rule="nonzero"/><path fill="#000000" fill-opacity="0.0" clip-path="url(#id_0)" d="M343.03366 123.86767C343.03366 125.52452 341.69052 126.86767 340.03366 126.86767C338.3768 126.86767 337.03366 125.52452 337.03366 123.86767C337.03366 122.210815 338.3768 120.86767 340.03366 120.86767C341.69052 120.86767 343.03366 122.210815 343.03366 123.86767Z" fill-rule="nonzero"/><path fill="#000000" fill-opacity="0.0" clip-path="url(#id_0)" d="M348.06732 125.04626C348.06732 126.70311 346.72418 128.04625 345.06732 128.04625C343.41046 128.04625 342.06732 126.70311 342.06732 125.04626C342.06732 123.3894 343.41046 122.04626 345.06732 122.04626C346.72418 122.04626 348.06732 123.3894 348.06732 125.04626Z" fill-rule="nonzero"/><path fill="#000000" fill-opacity="0.0" clip-path="url(#id_0)" d="M353.10098 125.83784C353.10098 127.4947 351.75784 128.83784 350.10098 128.83784C348.44412 128.83784 347.10098 127.4947 347.10098 125.83784C347.10098 124.180984 348.44412 122.83784 350.10098 122.83784C351.75784 122.83784 353.10098 124.180984 353.10098 125.83784Z" fill-rule="nonzero"/><path fill="#000000" fill-opacity="0.0" clip-path="url(#id_0)" d="M358.13464 126.24243C358.13464 127.899284 356.7915 129.24243 355.13464 129.24243C353.4778 129.24243 352.13464 127.899284 352.13464 126.24243C352.13464 124.58558 353.4778 123.24243 355.13464 123.24243C356.7915 123.24243 358.13464 124.58558 358.13464 126.24243Z" fill-rule="nonzero"/><path fill="#000000" fill-opacity="0.0" clip-path="url(#id_0)" d="M363.1683 126.26002C363.1683 127.91688 361.82516 129.26003 360.1683 129.26003C358.51147 129.26003 357.1683 127.91688 357.1683 126.26002C357.1683 124.603165 358.51147 123.26002 360.1683 123.26002C361.82516 123.26002 363.1683 124.603165 363.1683 126.26002Z" fill-rule="nonzero"/><path fill="#000000" fill-opacity="0.0" clip-path="url(#id_0)" d="M368.20197 125.89061C368.20197 127.54747 366.85883 128.89061 365.20197 128.89061C363.54514 128.89061 362.20197 127.54747 362.20197 125.89061C362.20197 124.23376 363.54514 122.89061 365.20197 122.89061C366.85883 122.89061 368.20197 124.23376 368.20197 125.89061Z" fill-rule="nonzero"/><path fill="#000000" fill-opacity="0.0" clip-path="url(#id_0)" d="M373.23566 125.13421C373.23566 126.79106 371.8925 128.1342 370.23566 128.1342C368.5788 128.1342 367.23566 126.79106 367.23566 125.13421C367.23566 123.477356 368.5788 122.13421 370.23566 122.13421C371.8925 122.13421 373.23566 123.477356 373.23566 125.13421Z" fill-rule="nonzero"/><path fill="#000000" fill-opacity="0.0" clip-path="url(#id_0)" d="M378.26932 123.99081C378.26932 125.64766 376.92615 126.99081 375.26932 126.99081C373.61246 126.99081 372.26932 125.64766 372.26932 123.99081C372.26932 122.33395 373.61246 120.99081 375.26932 120.99081C376.92615 120.99081 378.26932 122.33395 378.26932 123.99081Z" fill-rule="nonzero"/><path fill="#000000" fill-opacity="0.0" clip-path="url(#id_0)" d="M383.30298 122.4604C383.30298 124.117256 381.95984 125.4604 380.30298 125.4604C378.64612 125.4604 377.30298 124.117256 377.30298 122.4604C377.30298 120.80354 378.64612 119.4604 380.30298 119.4604C381.95984 119.4604 383.30298 120.80354 383.30298 122.4604Z" fill-rule="nonzero"/><path fill="#000000" fill-opacity="0.0" clip-path="url(#id_0)" d="M388.33664 120.543C388.33664 122.19985 386.9935 123.543 385.33664 123.543C383.67978 123.543 382.33664 122.19985 382.33664 120.543C382.33664 118.88615 383.67978 117.543 385.33664 117.543C386.9935 117.543 388.33664 118.88615 388.33664 120.543Z" fill-rule="nonzero"/><path fill="#000000" fill-opacity="0.0" clip-path="url(#id_0)" d="M393.3703 118.2386C393.3703 119.895454 392.02716 121.2386 390.3703 121.2386C388.71344 121.2386 387.3703 119.895454 387.3703 118.2386C387.3703 116.58175 388.71344 115.2386 390.3703 115.2386C392.02716 115.2386 393.3703 116.58175 393.3703 118.2386Z" fill-rule="nonzero"/><path fill="#000000" fill-opacity="0.0" clip-path="url(#id_0)" d="M398.40396 115.5472C398.40396 117.204056 397.06082 118.5472 395.40396 118.5472C393.7471 118.5472 392.40396 117.204056 392.40396 115.5472C392.40396 113.89035 393.7471 112.5472 395.40396 112.5472C397.06082 112.5472 398.40396 113.89035 398.40396 115.5472Z" fill-rule="nonzero"/><path fill="#000000" fill-opacity="0.0" clip-path="url(#id_0)" d="M403.43762 112.46881C403.43762 114.12566 402.09448 115.46881 400.43762 115.46881C398.78076 115.46881 397.43762 114.12566 397.43762 112.46881C397.43762 110.81195 398.78076 109.46881 400.43762 109.46881C402.09448 109.46881 403.43762 110.81195 403.43762 112.46881Z" fill-rule="nonzero"/><path fill="#000000" fill-opacity="0.0" clip-path="url(#id_0)" d="M408.47128 109.00341C408.47128 110.66027 407.12814 112.00341 405.47128 112.00341C403.81442 112.00341 402.47128 110.66027 402.47128 109.00341C402.47128 107.34656 403.81442 106.00341 405.47128 106.00341C407.12814 106.00341 408.47128 107.34656 408.47128 109.00341Z" fill-rule="nonzero"/><path fill="#000000" fill-opacity="0.0" clip-path="url(#id_0)" d="M413.50494 105.151024C413.50494 106.80788 412.1618 108.151024 410.50494 108.151024C408.84808 108.151024 407.50494 106.80788 407.50494 105.151024C407.50494 103.49416 408.84808 102.151024 410.50494 102.151024C412.1618 102.151024 413.50494 103.49416 413.50494 105.151024Z" fill-rule="nonzero"/><path fill="#000000" fill-opacity="0.0" clip-path="url(#id_0)" d="M418.5386 100.91163C418.5386 102.56848 417.19547 103.91163 415.5386 103.91163C413.88174 103.91163 412.5386 102.56848 412.5386 100.91163C412.5386 99.254776 413.88174 97.91163 415.5386 97.91163C417.19547 97.91163 418.5386 99.254776 418.5386 100.91163Z" fill-rule="nonzero"/><path fill="#000000" fill-opacity="0.0" clip-path="url(#id_0)" d="M423.57227 96.28524C423.57227 97.94209 422.22913 99.28524 420.57227 99.28524C418.91544 99.28524 417.57227 97.94209 417.57227 96.28524C417.57227 94.62839 418.91544 93.28524 420.57227 93.28524C422.22913 93.28524 423.57227 94.62839 423.57227 96.28524Z" fill-rule="nonzero"/><path fill="#000000" fill-opacity="0.0" clip-path="url(#id_0)" d="M428.60593 91.27185C428.60593 92.92871 427.2628 94.27185 425.60593 94.27185C423.9491 94.27185 422.60593 92.92871 422.60593 91.27185C422.60593 89.615 423.9491 88.27185 425.60593 88.27185C427.2628 88.27185 428.60593 89.615 428.60593 91.27185Z" fill-rule="nonzero"/><path fill="#000000" fill-opacity="0.0" clip-path="url(#id_0)" d="M433.63962 85.87147C433.63962 87.52832 432.29645 88.87147 430.63962 88.87147C428.98276 88.87147 427.63962 87.52832 427.63962 85.87147C427.63962 84.214615 428.98276 82.87147 430.63962 82.87147C432.29645 82.87147 433.63962 84.214615 433.63962 85.87147Z" fill-rule="nonzero"/><path fill="#000000" fill-opacity="0.0" clip-path="url(#id_0)" d="M438.67328 80.08408C438.67328 81.74094 437.3301 83.08408 435.67328 83.08408C434.01642 83.08408 432.67328 81.74094 432.67328 80.08408C432.67328 78.42723 434.01642 77.08408 435.67328 77.08408C437.3301 77.08408 438.67328 78.42723 438.67328 80.08408Z" fill-rule="nonzero"/><path fill="#000000" fill-opacity="0.0" clip-path="url(#id_0)" d="M443.70694 73.9097C443.70694 75.56656 442.3638 76.9097 440.70694 76.9097C439.05008 76.9097 437.70694 75.56656 437.70694 73.9097C437.70694 72.252846 439.05008 70.9097 440.70694 70.9097C442.3638 70.9097 443.70694 72.252846 443.70694 73.9097Z" fill-rule="nonzero"/><path fill="#000000" fill-opacity="0.0" clip-path="url(#id_0)" d="M448.7406 67.34832C448.7406 69.00517 447.39746 70.34832 445.7406 70.34832C444.08374 70.34832 442.7406 69.00517 442.7406 67.34832C442.7406 65.69147 444.08374 64.34832 445.7406 64.34832C447.39746 64.34832 448.7406 65.69147 448.7406 67.34832Z" fill-rule="nonzero"/><path fill="#000000" fill-opacity="0.0" clip-path="url(#id_0)" d="M453.77426 63.278442C453.77426 64.935295 452.43112 66.27844 450.77426 66.27844C449.1174 66.27844 447.77426 64.935295 447.77426 63.278442C447.77426 61.621586 449.1174 60.278442 450.77426 60.278442C452.43112 60.278442 453.77426 61.621586 453.77426 63.278442Z" fill-rule="nonzero"/><path fill="#000000" fill-opacity="0.0" clip-path="url(#id_0)" d="M458.80792 66.49757C458.80792 68.15442 457.46478 69.49757 455.80792 69.49757C454.15106 69.49757 452.80792 68.15442 452.80792 66.49757C452.80792 64.840706 454.15106 63.497562 455.80792 63.497562C457.46478 63.497562 458.80792 64.840706 458.80792 66.49757Z" fill-rule="nonzero"/><path fill="#000000" fill-opacity="0.0" clip-path="url(#id_0)" d="M463.84158 69.32969C463.84158 70.98654 462.49844 72.32969 460.84158 72.32969C459.18472 72.32969 457.84158 70.98654 457.84158 69.32969C457.84158 67.67284 459.18472 66.32969 460.84158 66.32969C462.49844 66.32969 463.84158 67.67284 463.84158 69.32969Z" fill-rule="nonzero"/><path fill="#000000" fill-opacity="0.0" clip-path="url(#id_0)" d="M468.87524 71.77481C468.87524 73.43167 467.5321 74.77481 465.87524 74.77481C464.21838 74.77481 462.87524 73.43167 462.87524 71.77481C462.87524 70.11796 464.21838 68.77481 465.87524 68.77481C467.5321 68.77481 468.87524 70.11796 468.87524 71.77481Z" fill-rule="nonzero"/><path fill="#000000" fill-opacity="0.0" clip-path="url(#id_0)" d="M473.9089 73.83294C473.9089 75.48979 472.56577 76.83294 470.9089 76.83294C469.25204 76.83294 467.9089 75.48979 467.9089 73.83294C467.9089 72.17609 469.25204 70.83294 470.9089 70.83294C472.56577 70.83294 473.9089 72.17609 473.9089 73.83294Z" fill-rule="nonzero"/><path fill="#000000" fill-opacity="0.0" clip-path="url(#id_0)" d="M478.94257 75.50407C478.94257 77.16093 477.59943 78.50407 475.94257 78.50407C474.2857 78.50407 472.94257 77.16093 472.94257 75.50407C472.94257 73.84721 474.2857 72.50407 475.94257 72.50407C477.59943 72.50407 478.94257 73.84721 478.94257 75.50407Z" fill-rule="nonzero"/><path fill="#000000" fill-opacity="0.0" clip-path="url(#id_0)" d="M483.97623 76.7882C483.97623 78.44505 482.6331 79.7882 480.97623 79.7882C479.3194 79.7882 477.97623 78.44505 477.97623 76.7882C477.97623 75.13135 479.3194 73.7882 480.97623 73.7882C482.6331 73.7882 483.97623 75.13135 483.97623 76.7882Z" fill-rule="nonzero"/><path fill="#000000" fill-opacity="0.0" clip-path="url(#id_0)" d="M489.0099 77.68533C489.0099 79.342186 487.66675 80.68533 486.0099 80.68533C484.35306 80.68533 483.0099 79.342186 483.0099 77.68533C483.0099 76.02848 484.35306 74.68533 486.0099 74.68533C487.66675 74.68533 489.0099 76.02848 489.0099 77.68533Z" fill-rule="nonzero"/><path fill="#000000" fill-opacity="0.0" clip-path="url(#id_0)" d="M494.04358 78.195465C494.04358 79.852325 492.7004 81.195465 491.04358 81.195465C489.38672 81.195465 488.04358 79.852325 488.04358 78.195465C488.04358 76.53861 489.38672 75.195465 491.04358 75.195465C492.7004 75.195465 494.04358 76.53861 494.04358 78.195465Z" fill-rule="nonzero"/><path fill="#000000" fill-opacity="0.0" clip-path="url(#id_0)" d="M499.07724 78.3186C499.07724 79.97546 497.73407 81.3186 496.07724 81.3186C494.42038 81.3186 493.07724 79.97546 493.07724 78.3186C493.07724 76.66175 494.42038 75.3186 496.07724 75.3186C497.73407 75.3186 499.07724 76.66175 499.07724 78.3186Z" fill-rule="nonzero"/><path fill="#000000" fill-opacity="0.0" clip-path="url(#id_0)" d="M504.1109 78.05474C504.1109 79.71159 502.76773 81.05474 501.1109 81.05474C499.45404 81.05474 498.1109 79.71159 498.1109 78.05474C498.1109 76.39789 499.45404 75.05474 501.1109 75.05474C502.76773 75.05474 504.1109 76.39789 504.1109 78.05474Z" fill-rule="nonzero"/><path fill="#000000" fill-opacity="0.0" clip-path="url(#id_0)" d="M509.14456 77.40388C509.14456 79.06074 507.80142 80.40388 506.14456 80.40388C504.4877 80.40388 503.14456 79.06074 503.14456 77.40388C503.14456 75.747025 504.4877 74.40388 506.14456 74.40388C507.80142 74.40388 509.14456 75.747025 509.14456 77.40388Z" fill-rule="nonzero"/><path fill="#000000" fill-opacity="0.0" clip-path="url(#id_0)" d="M514.1782 76.36602C514.1782 78.02287 512.8351 79.36602 511.17822 79.36602C509.52136 79.36602 508.17822 78.02287 508.17822 76.36602C508.17822 74.70917 509.52136 73.36602 511.17822 73.36602C512.8351 73.36602 514.1782 74.70917 514.1782 76.36602Z" fill-rule="nonzero"/><path fill="#000000" fill-opacity="0.0" clip-path="url(#id_0)" d="M519.21185 74.94116C519.21185 76.598015 517.8687 77.94116 516.21185 77.94116C514.55505 77.94116 513.21185 76.598015 513.21185 74.94116C513.21185 73.28431 514.55505 71.94116 516.21185 71.94116C517.8687 71.94116 519.21185 73.28431 519.21185 74.94116Z" fill-rule="nonzero"/><path fill="#000000" fill-opacity="0.0" clip-path="url(#id_0)" d="M524.24554 73.12931C524.24554 74.78616 522.9024 76.12931 521.24554 76.12931C519.5887 76.12931 518.24554 74.78616 518.24554 73.12931C518.24554 71.47245 519.5887 70.12931 521.24554 70.12931C522.9024 70.12931 524.24554 71.47245 524.24554 73.12931Z" fill-rule="nonzero"/><path fill="#000000" fill-opacity="0.0" clip-path="url(#id_0)" d="M529.27924 70.93045C529.27924 72.58731 527.93604 73.93045 526.27924 73.93045C524.6224 73.93045 523.27924 72.58731 523.27924 70.93045C523.27924 69.2736 524.6224 67.93045 526.27924 67.93045C527.93604 67.93045 529.27924 69.2736 529.27924 70.93045Z" fill-rule="nonzero"/><path fill="#000000" fill-opacity="0.0" clip-path="url(#id_0)" d="M534.31287 68.344604C534.31287 70.00146 532.9697 71.344604 531.31287 71.344604C529.656 71.344604 528.31287 70.00146 528.31287 68.344604C528.31287 66.687744 529.656 65.344604 531.31287 65.344604C532.9697 65.344604 534.31287 66.687744 534.31287 68.344604Z" fill-rule="nonzero"/><path fill="#000000" fill-opacity="0.0" clip-path="url(#id_0)" d="M539.34656 65.37175C539.34656 67.0286 538.0034 68.37175 536.34656 68.37175C534.6897 68.37175 533.34656 67.0286 533.34656 65.37175C533.34656 63.714897 534.6897 62.37175 536.34656 62.37175C538.0034 62.37175 539.34656 63.714897 539.34656 65.37175Z" fill-rule="nonzero"/><path fill="#000000" fill-opacity="0.0" clip-path="url(#id_0)" d="M544.3802 62.49165C544.3802 64.148506 543.03705 65.49165 541.3802 65.49165C539.7233 65.49165 538.3802 64.148506 538.3802 62.49165C538.3802 60.834797 539.7233 59.49165 541.3802 59.49165C543.03705 59.49165 544.3802 60.834797 544.3802 62.49165Z" fill-rule="nonzero"/><path fill="#000000" fill-opacity="0.0" clip-path="url(#id_0)" d="M549.4139 64.02206C549.4139 65.67891 548.07074 67.02206 546.4139 67.02206C544.757 67.02206 543.4139 65.67891 543.4139 64.02206C543.4139 62.3652 544.757 61.022053 546.4139 61.022053C548.07074 61.022053 549.4139 62.3652 549.4139 64.02206Z" fill-rule="nonzero"/><path fill="#000000" fill-opacity="0.0" clip-path="url(#id_0)" d="M554.4475 65.16546C554.4475 66.82231 553.1044 68.16546 551.4475 68.16546C549.79065 68.16546 548.4475 66.82231 548.4475 65.16546C548.4475 63.508602 549.79065 62.16546 551.4475 62.16546C553.1044 62.16546 554.4475 63.508602 554.4475 65.16546Z" fill-rule="nonzero"/><path fill="#000000" fill-opacity="0.0" clip-path="url(#id_0)" d="M559.4812 65.92186C559.4812 67.57872 558.13806 68.92186 556.4812 68.92186C554.82434 68.92186 553.4812 67.57872 553.4812 65.92186C553.4812 64.26501 554.82434 62.921864 556.4812 62.921864C558.13806 62.921864 559.4812 64.26501 559.4812 65.92186Z" fill-rule="nonzero"/><path fill="#000000" fill-opacity="0.0" clip-path="url(#id_0)" d="M564.51483 66.29127C564.51483 67.94813 563.1717 69.29127 561.51483 69.29127C559.858 69.29127 558.51483 67.94813 558.51483 66.29127C558.51483 64.634415 559.858 63.29127 561.51483 63.29127C563.1717 63.29127 564.51483 64.634415 564.51483 66.29127Z" fill-rule="nonzero"/><path fill="#000000" fill-opacity="0.0" clip-path="url(#id_0)" d="M569.5485 66.27368C569.5485 67.930534 568.2054 69.27368 566.5485 69.27368C564.89166 69.27368 563.5485 67.930534 563.5485 66.27368C563.5485 64.61683 564.89166 63.27368 566.5485 63.27368C568.2054 63.27368 569.5485 64.61683 569.5485 66.27368Z" fill-rule="nonzero"/><path fill="#000000" fill-opacity="0.0" clip-path="url(#id_0)" d="M574.58215 65.86909C574.58215 67.52595 573.239 68.86909 571.58215 68.86909C569.92535 68.86909 568.58215 67.52595 568.58215 65.86909C568.58215 64.212234 569.92535 62.86909 571.58215 62.86909C573.239 62.86909 574.58215 64.212234 574.58215 65.86909Z" fill-rule="nonzero"/><path fill="#000000" fill-opacity="0.0" clip-path="url(#id_0)" d="M579.61584 65.07751C579.61584 66.73436 578.2727 68.07751 576.61584 68.07751C574.959 68.07751 573.61584 66.73436 573.61584 65.07751C573.61584 63.42065 574.959 62.077503 576.61584 62.077503C578.2727 62.077503 579.61584 63.42065 579.61584 65.07751Z" fill-rule="nonzero"/><path fill="#000000" fill-opacity="0.0" clip-path="url(#id_0)" d="M584.6495 63.89892C584.6495 65.55577 583.30634 66.89892 581.6495 66.89892C579.9927 66.89892 578.6495 65.55577 578.6495 63.89892C578.6495 62.24206 579.9927 60.89892 581.6495 60.89892C583.30634 60.89892 584.6495 62.24206 584.6495 63.89892Z" fill-rule="nonzero"/><path fill="#000000" fill-opacity="0.0" clip-path="url(#id_0)" d="M589.68317 62.333332C589.68317 63.99019 588.34 65.333336 586.68317 65.333336C585.0263 65.333336 583.68317 63.99019 583.68317 62.333332C583.68317 60.67648 585.0263 59.333332 586.68317 59.333332C588.34 59.333332 589.68317 60.67648 589.68317 62.333332Z" fill-rule="nonzero"/><path fill="#000000" d="M336.59375 353.2625L336.75 354.1844Q336.29688 354.27814 335.95312 354.27814Q335.375 354.27814 335.0625 354.10626Q334.75 353.91876 334.60938 353.6219Q334.48438 353.325 334.48438 352.3719L334.48438 348.79376L333.71875 348.79376L333.71875 347.98126L334.48438 347.98126L334.48438 346.4344L335.53125 345.8094L335.53125 347.98126L336.59375 347.98126L336.59375 348.79376L335.53125 348.79376L335.53125 352.4344Q335.53125 352.8875 335.57812 353.0125Q335.64062 353.1375 335.76562 353.21564Q335.89062 353.29376 336.125 353.29376Q336.3125 353.29376 336.59375 353.2625Z" fill-rule="nonzero"/><path fill="#000000" d="M29.800013 192.67291L26.565638 190.40729L23.581263 192.50104L23.581263 191.18854L25.034388 190.23541Q25.456263 189.96979 25.737513 189.79791Q25.346888 189.54791 25.050013 189.32916L23.581263 188.28229L23.581263 187.01666L26.503138 189.17291L29.800013 186.86041L29.800013 188.14166L27.862513 189.42291L27.346888 189.76666L29.800013 191.40729L29.800013 192.67291Z" fill-rule="nonzero"/><path fill="#000000" d="M51.3 317.96564Q51.3 316.4344 51.6125 315.5125Q51.925 314.575 52.534374 314.075Q53.159374 313.575 54.096874 313.575Q54.784374 313.575 55.3 313.85626Q55.83125 314.1375 56.175 314.66876Q56.51875 315.1844 56.70625 315.9344Q56.89375 316.6844 56.89375 317.96564Q56.89375 319.48126 56.58125 320.40314Q56.284374 321.325 55.659374 321.84064Q55.05 322.34064 54.096874 322.34064Q52.8625 322.34064 52.14375 321.45Q51.3 320.3875 51.3 317.96564ZM52.378124 317.96564Q52.378124 320.075 52.878124 320.77814Q53.378124 321.48126 54.096874 321.48126Q54.83125 321.48126 55.315624 320.77814Q55.815624 320.075 55.815624 317.96564Q55.815624 315.84064 55.315624 315.15314Q54.83125 314.45 54.08125 314.45Q53.3625 314.45 52.925 315.0594Q52.378124 315.84064 52.378124 317.96564ZM58.89375 322.2L58.89375 320.9969L60.096874 320.9969L60.096874 322.2L58.89375 322.2ZM61.3 317.96564Q61.3 316.4344 61.6125 315.5125Q61.925 314.575 62.534374 314.075Q63.159374 313.575 64.09688 313.575Q64.78438 313.575 65.3 313.85626Q65.83125 314.1375 66.175 314.66876Q66.51875 315.1844 66.70625 315.9344Q66.89375 316.6844 66.89375 317.96564Q66.89375 319.48126 66.58125 320.40314Q66.28438 321.325 65.65938 321.84064Q65.05 322.34064 64.09688 322.34064Q62.8625 322.34064 62.14375 321.45Q61.3 320.3875 61.3 317.96564ZM62.378124 317.96564Q62.378124 320.075 62.878124 320.77814Q63.378124 321.48126 64.09688 321.48126Q64.83125 321.48126 65.31563 320.77814Q65.81563 320.075 65.81563 317.96564Q65.81563 315.84064 65.31563 315.15314Q64.83125 314.45 64.08125 314.45Q63.3625 314.45 62.925 315.0594Q62.378124 315.84064 62.378124 317.96564ZM68.3 317.96564Q68.3 316.4344 68.6125 315.5125Q68.925 314.575 69.53438 314.075Q70.15938 313.575 71.09688 313.575Q71.78438 313.575 72.3 313.85626Q72.83125 314.1375 73.175 314.66876Q73.51875 315.1844 73.70625 315.9344Q73.89375 316.6844 73.89375 317.96564Q73.89375 319.48126 73.58125 320.40314Q73.28438 321.325 72.65938 321.84064Q72.05 322.34064 71.09688 322.34064Q69.8625 322.34064 69.14375 321.45Q68.3 320.3875 68.3 317.96564ZM69.37813 317.96564Q69.37813 320.075 69.87813 320.77814Q70.37813 321.48126 71.09688 321.48126Q71.83125 321.48126 72.31563 320.77814Q72.81563 320.075 72.81563 317.96564Q72.81563 315.84064 72.31563 315.15314Q71.83125 314.45 71.08125 314.45Q70.3625 314.45 69.925 315.0594Q69.37813 315.84064 69.37813 317.96564Z" fill-rule="nonzero"/><path fill="#000000" d="M51.3 253.99896Q51.3 252.46771 51.6125 251.54584Q51.925 250.60834 52.534374 250.10834Q53.159374 249.60834 54.096874 249.60834Q54.784374 249.60834 55.3 249.88959Q55.83125 250.17084 56.175 250.70209Q56.51875 251.21771 56.70625 251.96771Q56.89375 252.71771 56.89375 253.99896Q56.89375 255.51459 56.58125 256.43646Q56.284374 257.35834 55.659374 257.87396Q55.05 258.37396 54.096874 258.37396Q52.8625 258.37396 52.14375 257.48334Q51.3 256.42084 51.3 253.99896ZM52.378124 253.99896Q52.378124 256.10834 52.878124 256.81146Q53.378124 257.5146 54.096874 257.5146Q54.83125 257.5146 55.315624 256.81146Q55.815624 256.10834 55.815624 253.99896Q55.815624 251.87396 55.315624 251.18646Q54.83125 250.48334 54.08125 250.48334Q53.3625 250.48334 52.925 251.09271Q52.378124 251.87396 52.378124 253.99896ZM58.89375 258.23334L58.89375 257.0302L60.096874 257.0302L60.096874 258.23334L58.89375 258.23334ZM66.84688 257.2177L66.84688 258.23334L61.159374 258.23334Q61.159374 257.85834 61.284374 257.49896Q61.503124 256.92084 61.971874 256.35834Q62.45625 255.79584 63.3625 255.06146Q64.76875 253.90521 65.25313 253.23334Q65.75313 252.56146 65.75313 251.96771Q65.75313 251.34271 65.3 250.92084Q64.84688 250.48334 64.12813 250.48334Q63.3625 250.48334 62.909374 250.93646Q62.45625 251.38959 62.440624 252.20209L61.3625 252.09271Q61.471874 250.87396 62.190624 250.24896Q62.925 249.60834 64.15938 249.60834Q65.39375 249.60834 66.1125 250.29584Q66.83125 250.98334 66.83125 251.99896Q66.83125 252.51459 66.6125 253.01459Q66.40938 253.49896 65.90938 254.06146Q65.425 254.60834 64.3 255.56146Q63.346874 256.35834 63.065624 256.6552Q62.8 256.93646 62.628124 257.2177L66.84688 257.2177ZM68.3 255.98334L69.40938 255.88959Q69.53438 256.7021 69.97188 257.10834Q70.425 257.5146 71.06563 257.5146Q71.81563 257.5146 72.34688 256.93646Q72.87813 256.35834 72.87813 255.42084Q72.87813 254.51459 72.3625 253.99896Q71.8625 253.46771 71.03438 253.46771Q70.53438 253.46771 70.1125 253.70209Q69.70625 253.93646 69.47188 254.29584L68.4875 254.17084L69.31563 249.76459L73.59688 249.76459L73.59688 250.76459L70.15938 250.76459L69.70625 253.07709Q70.47188 252.53021 71.31563 252.53021Q72.44063 252.53021 73.20625 253.31146Q73.9875 254.09271 73.9875 255.32709Q73.9875 256.48334 73.31563 257.3427Q72.4875 258.37396 71.06563 258.37396Q69.89375 258.37396 69.14375 257.7177Q68.40938 257.06146 68.3 255.98334Z" fill-rule="nonzero"/><path fill="#000000" d="M51.3 190.03229Q51.3 188.50104 51.6125 187.57916Q51.925 186.64166 52.534374 186.14166Q53.159374 185.64166 54.096874 185.64166Q54.784374 185.64166 55.3 185.92291Q55.83125 186.20416 56.175 186.73541Q56.51875 187.25104 56.70625 188.00104Q56.89375 188.75104 56.89375 190.03229Q56.89375 191.54791 56.58125 192.46979Q56.284374 193.39166 55.659374 193.90729Q55.05 194.40729 54.096874 194.40729Q52.8625 194.40729 52.14375 193.51666Q51.3 192.45416 51.3 190.03229ZM52.378124 190.03229Q52.378124 192.14166 52.878124 192.84479Q53.378124 193.54791 54.096874 193.54791Q54.83125 193.54791 55.315624 192.84479Q55.815624 192.14166 55.815624 190.03229Q55.815624 187.90729 55.315624 187.21979Q54.83125 186.51666 54.08125 186.51666Q53.3625 186.51666 52.925 187.12604Q52.378124 187.90729 52.378124 190.03229ZM58.89375 194.26666L58.89375 193.06354L60.096874 193.06354L60.096874 194.26666L58.89375 194.26666ZM61.3 192.01666L62.409374 191.92291Q62.534374 192.73541 62.971874 193.14166Q63.425 193.54791 64.06563 193.54791Q64.81563 193.54791 65.34688 192.96979Q65.87813 192.39166 65.87813 191.45416Q65.87813 190.54791 65.3625 190.03229Q64.8625 189.50104 64.03438 189.50104Q63.534374 189.50104 63.1125 189.73541Q62.70625 189.96979 62.471874 190.32916L61.4875 190.20416L62.315624 185.79791L66.59688 185.79791L66.59688 186.79791L63.159374 186.79791L62.70625 189.11041Q63.471874 188.56354 64.31563 188.56354Q65.44063 188.56354 66.20625 189.34479Q66.9875 190.12604 66.9875 191.36041Q66.9875 192.51666 66.31563 193.37604Q65.4875 194.40729 64.06563 194.40729Q62.89375 194.40729 62.14375 193.75104Q61.409374 193.09479 61.3 192.01666ZM68.3 190.03229Q68.3 188.50104 68.6125 187.57916Q68.925 186.64166 69.53438 186.14166Q70.15938 185.64166 71.09688 185.64166Q71.78438 185.64166 72.3 185.92291Q72.83125 186.20416 73.175 186.73541Q73.51875 187.25104 73.70625 188.00104Q73.89375 188.75104 73.89375 190.03229Q73.89375 191.54791 73.58125 192.46979Q73.28438 193.39166 72.65938 193.90729Q72.05 194.40729 71.09688 194.40729Q69.8625 194.40729 69.14375 193.51666Q68.3 192.45416 68.3 190.03229ZM69.37813 190.03229Q69.37813 192.14166 69.87813 192.84479Q70.37813 193.54791 71.09688 193.54791Q71.83125 193.54791 72.31563 192.84479Q72.81563 192.14166 72.81563 190.03229Q72.81563 187.90729 72.31563 187.21979Q71.83125 186.51666 71.08125 186.51666Q70.3625 186.51666 69.925 187.12604Q69.37813 187.90729 69.37813 190.03229Z" fill-rule="nonzero"/><path fill="#000000" d="M51.3 126.06563Q51.3 124.53438 51.6125 123.6125Q51.925 122.675 52.534374 122.175Q53.159374 121.675 54.096874 121.675Q54.784374 121.675 55.3 121.95625Q55.83125 122.2375 56.175 122.76875Q56.51875 123.28438 56.70625 124.03438Q56.89375 124.78438 56.89375 126.06563Q56.89375 127.58125 56.58125 128.50313Q56.284374 129.425 55.659374 129.94063Q55.05 130.44063 54.096874 130.44063Q52.8625 130.44063 52.14375 129.55Q51.3 128.4875 51.3 126.06563ZM52.378124 126.06563Q52.378124 128.175 52.878124 128.87813Q53.378124 129.58125 54.096874 129.58125Q54.83125 129.58125 55.315624 128.87813Q55.815624 128.175 55.815624 126.06563Q55.815624 123.94063 55.315624 123.25313Q54.83125 122.55 54.08125 122.55Q53.3625 122.55 52.925 123.15938Q52.378124 123.94063 52.378124 126.06563ZM58.89375 130.3L58.89375 129.09688L60.096874 129.09688L60.096874 130.3L58.89375 130.3ZM61.3625 122.83125L61.3625 121.81563L66.925 121.81563L66.925 122.64375Q66.1125 123.51875 65.3 124.97188Q64.50313 126.40938 64.06563 127.94063Q63.7375 129.01875 63.659374 130.3L62.565624 130.3Q62.58125 129.28438 62.95625 127.84688Q63.346874 126.40938 64.05 125.08125Q64.76875 123.75313 65.58125 122.83125L61.3625 122.83125ZM68.3 128.05L69.40938 127.95625Q69.53438 128.76875 69.97188 129.175Q70.425 129.58125 71.06563 129.58125Q71.81563 129.58125 72.34688 129.00313Q72.87813 128.425 72.87813 127.4875Q72.87813 126.58125 72.3625 126.06563Q71.8625 125.53438 71.03438 125.53438Q70.53438 125.53438 70.1125 125.76875Q69.70625 126.00313 69.47188 126.3625L68.4875 126.2375L69.31563 121.83125L73.59688 121.83125L73.59688 122.83125L70.15938 122.83125L69.70625 125.14375Q70.47188 124.59688 71.31563 124.59688Q72.44063 124.59688 73.20625 125.37813Q73.9875 126.15938 73.9875 127.39375Q73.9875 128.55 73.31563 129.40938Q72.4875 130.44063 71.06563 130.44063Q69.89375 130.44063 69.14375 129.78438Q68.40938 129.12813 68.3 128.05Z" fill-rule="nonzero"/><path fill="#000000" d="M55.26875 66.333336L54.221874 66.333336L54.221874 59.614586Q53.83125 59.97396 53.20625 60.34896Q52.596874 60.708336 52.1125 60.88021L52.1125 59.864586Q52.9875 59.44271 53.64375 58.864586Q54.315624 58.270836 54.596874 57.708336L55.26875 57.708336L55.26875 66.333336ZM58.89375 66.333336L58.89375 65.13021L60.096874 65.13021L60.096874 66.333336L58.89375 66.333336ZM61.3 62.09896Q61.3 60.56771 61.6125 59.645836Q61.925 58.708336 62.534374 58.208336Q63.159374 57.708336 64.09688 57.708336Q64.78438 57.708336 65.3 57.989586Q65.83125 58.270836 66.175 58.802086Q66.51875 59.31771 66.70625 60.06771Q66.89375 60.81771 66.89375 62.09896Q66.89375 63.614586 66.58125 64.53646Q66.28438 65.458336 65.65938 65.97396Q65.05 66.47396 64.09688 66.47396Q62.8625 66.47396 62.14375 65.583336Q61.3 64.520836 61.3 62.09896ZM62.378124 62.09896Q62.378124 64.208336 62.878124 64.91146Q63.378124 65.614586 64.09688 65.614586Q64.83125 65.614586 65.31563 64.91146Q65.81563 64.208336 65.81563 62.09896Q65.81563 59.97396 65.31563 59.28646Q64.83125 58.583336 64.08125 58.583336Q63.3625 58.583336 62.925 59.19271Q62.378124 59.97396 62.378124 62.09896ZM68.3 62.09896Q68.3 60.56771 68.6125 59.645836Q68.925 58.708336 69.53438 58.208336Q70.15938 57.708336 71.09688 57.708336Q71.78438 57.708336 72.3 57.989586Q72.83125 58.270836 73.175 58.802086Q73.51875 59.31771 73.70625 60.06771Q73.89375 60.81771 73.89375 62.09896Q73.89375 63.614586 73.58125 64.53646Q73.28438 65.458336 72.65938 65.97396Q72.05 66.47396 71.09688 66.47396Q69.8625 66.47396 69.14375 65.583336Q68.3 64.520836 68.3 62.09896ZM69.37813 62.09896Q69.37813 64.208336 69.87813 64.91146Q70.37813 65.614586 71.09688 65.614586Q71.83125 65.614586 72.31563 64.91146Q72.81563 64.208336 72.81563 62.09896Q72.81563 59.97396 72.31563 59.28646Q71.83125 58.583336 71.08125 58.583336Q70.3625 58.583336 69.925 59.19271Q69.37813 59.97396 69.37813 62.09896Z" fill-rule="nonzero"/><path fill="#757575" d="M20.378124 37.8L20.378124 23.4875L30.7375 23.4875L30.7375 25.175L22.284374 25.175L22.284374 29.55L30.190624 29.55L30.190624 31.2375L22.284374 31.2375L22.284374 36.1125L31.065624 36.1125L31.065624 37.8L20.378124 37.8ZM39.89375 36.51875Q38.909374 37.346874 38.003124 37.690624Q37.096874 38.034374 36.065624 38.034374Q34.3625 38.034374 33.440624 37.20625Q32.51875 36.3625 32.51875 35.065624Q32.51875 34.3 32.8625 33.675Q33.221874 33.05 33.784374 32.675Q34.346874 32.284374 35.05 32.08125Q35.565624 31.95625 36.6125 31.815624Q38.7375 31.565624 39.7375 31.221874Q39.753124 30.8625 39.753124 30.753124Q39.753124 29.690624 39.253124 29.2375Q38.58125 28.64375 37.253124 28.64375Q36.003124 28.64375 35.409374 29.08125Q34.83125 29.51875 34.55 30.628124L32.83125 30.39375Q33.065624 29.284374 33.596874 28.6125Q34.128124 27.925 35.14375 27.565624Q36.159374 27.190624 37.503124 27.190624Q38.83125 27.190624 39.659374 27.503124Q40.4875 27.815624 40.878124 28.3Q41.26875 28.76875 41.425 29.4875Q41.51875 29.940624 41.51875 31.1125L41.51875 33.45625Q41.51875 35.909374 41.628124 36.565624Q41.7375 37.20625 42.08125 37.8L40.2375 37.8Q39.971874 37.253124 39.89375 36.51875ZM39.7375 32.596874Q38.784374 32.9875 36.8625 33.253124Q35.784374 33.409374 35.33125 33.6125Q34.89375 33.8 34.64375 34.175Q34.39375 34.55 34.39375 35.01875Q34.39375 35.721874 34.925 36.190624Q35.45625 36.659374 36.4875 36.659374Q37.503124 36.659374 38.284374 36.221874Q39.08125 35.76875 39.45625 35.003124Q39.7375 34.39375 39.7375 33.2375L39.7375 32.596874ZM43.409374 34.70625L45.159374 34.425Q45.3 35.471874 45.971874 36.034374Q46.64375 36.58125 47.846874 36.58125Q49.05 36.58125 49.628124 36.096874Q50.221874 35.596874 50.221874 34.940624Q50.221874 34.346874 49.70625 34.003124Q49.346874 33.76875 47.909374 33.409374Q45.971874 32.909374 45.221874 32.565624Q44.4875 32.20625 44.096874 31.58125Q43.70625 30.940624 43.70625 30.175Q43.70625 29.4875 44.01875 28.89375Q44.346874 28.3 44.89375 27.909374Q45.3 27.6125 46.003124 27.409374Q46.721874 27.190624 47.534374 27.190624Q48.753124 27.190624 49.675 27.55Q50.596874 27.89375 51.034374 28.503124Q51.471874 29.096874 51.64375 30.096874L49.925 30.33125Q49.8 29.534374 49.2375 29.096874Q48.675 28.64375 47.659374 28.64375Q46.440624 28.64375 45.925 29.05Q45.409374 29.440624 45.409374 29.971874Q45.409374 30.315624 45.628124 30.596874Q45.83125 30.878124 46.3 31.065624Q46.565624 31.159374 47.846874 31.503124Q49.721874 32.003124 50.45625 32.33125Q51.190624 32.64375 51.6125 33.253124Q52.034374 33.846874 52.034374 34.753124Q52.034374 35.628124 51.51875 36.409374Q51.003124 37.190624 50.034374 37.6125Q49.065624 38.034374 47.846874 38.034374Q45.83125 38.034374 44.76875 37.190624Q43.70625 36.346874 43.409374 34.70625ZM61.221874 34.45625L63.034374 34.690624Q62.6125 36.26875 61.440624 37.159374Q60.284374 38.034374 58.471874 38.034374Q56.20625 38.034374 54.8625 36.64375Q53.534374 35.2375 53.534374 32.70625Q53.534374 30.08125 54.878124 28.64375Q56.221874 27.190624 58.378124 27.190624Q60.45625 27.190624 61.76875 28.6125Q63.096874 30.01875 63.096874 32.596874Q63.096874 32.753124 63.08125 33.065624L55.346874 33.065624Q55.440624 34.76875 56.315624 35.675Q57.190624 36.58125 58.4875 36.58125Q59.45625 36.58125 60.128124 36.08125Q60.815624 35.565624 61.221874 34.45625ZM55.440624 31.6125L61.2375 31.6125Q61.128124 30.315624 60.58125 29.659374Q59.7375 28.64375 58.39375 28.64375Q57.190624 28.64375 56.3625 29.45625Q55.534374 30.253124 55.440624 31.6125ZM64.76875 30.83125Q64.76875 27.26875 66.675 25.253124Q68.59688 23.221874 71.62813 23.221874Q73.6125 23.221874 75.19063 24.175Q76.78438 25.128124 77.6125 26.83125Q78.45625 28.51875 78.45625 30.659374Q78.45625 32.83125 77.58125 34.55Q76.70625 36.26875 75.08125 37.159374Q73.47188 38.05 71.6125 38.05Q69.59688 38.05 68.00313 37.08125Q66.40938 36.096874 65.58125 34.409374Q64.76875 32.70625 64.76875 30.83125ZM66.72188 30.8625Q66.72188 33.440624 68.1125 34.940624Q69.50313 36.425 71.59688 36.425Q73.7375 36.425 75.1125 34.925Q76.50313 33.409374 76.50313 30.64375Q76.50313 28.909374 75.90938 27.6125Q75.33125 26.3 74.19063 25.58125Q73.05 24.8625 71.62813 24.8625Q69.62813 24.8625 68.175 26.253124Q66.72188 27.628124 66.72188 30.8625ZM87.90938 37.8L87.90938 36.26875Q86.70625 38.034374 84.62813 38.034374Q83.70625 38.034374 82.90938 37.690624Q82.1125 37.33125 81.72188 36.8Q81.34688 36.26875 81.19063 35.4875Q81.08125 34.971874 81.08125 33.846874L81.08125 27.425L82.83125 27.425L82.83125 33.175Q82.83125 34.55 82.94063 35.034374Q83.1125 35.721874 83.64375 36.128124Q84.19063 36.51875 84.97188 36.51875Q85.76875 36.51875 86.45625 36.1125Q87.15938 35.70625 87.44063 35.01875Q87.7375 34.315624 87.7375 32.9875L87.7375 27.425L89.4875 27.425L89.4875 37.8L87.90938 37.8ZM94.95625 36.221874L95.20625 37.784374Q94.47188 37.940624 93.87813 37.940624Q92.925 37.940624 92.39375 37.64375Q91.87813 37.33125 91.65938 36.846874Q91.44063 36.346874 91.44063 34.76875L91.44063 28.8L90.15938 28.8L90.15938 27.425L91.44063 27.425L91.44063 24.8625L93.19063 23.8L93.19063 27.425L94.95625 27.425L94.95625 28.8L93.19063 28.8L93.19063 34.8625Q93.19063 35.6125 93.28438 35.83125Q93.37813 36.034374 93.58125 36.175Q93.8 36.3 94.19063 36.3Q94.47188 36.3 94.95625 36.221874ZM97.26875 37.8L97.26875 23.4875L102.64375 23.4875Q104.28438 23.4875 105.26875 23.925Q106.25313 24.346874 106.81563 25.253124Q107.37813 26.159374 107.37813 27.14375Q107.37813 28.065624 106.87813 28.878124Q106.39375 29.690624 105.37813 30.175Q106.675 30.565624 107.37813 31.4875Q108.08125 32.39375 108.08125 33.64375Q108.08125 34.659374 107.64375 35.51875Q107.22188 36.378124 106.59688 36.846874Q105.97188 37.315624 105.03438 37.565624Q104.09688 37.8 102.72188 37.8L97.26875 37.8ZM99.15938 29.503124L102.25313 29.503124Q103.51875 29.503124 104.06563 29.33125Q104.78438 29.1125 105.14375 28.628124Q105.51875 28.128124 105.51875 27.3625Q105.51875 26.659374 105.175 26.1125Q104.83125 25.565624 104.19063 25.378124Q103.56563 25.175 102.01875 25.175L99.15938 25.175L99.15938 29.503124ZM99.15938 36.1125L102.72188 36.1125Q103.64375 36.1125 104.01875 36.034374Q104.675 35.925 105.1125 35.659374Q105.55 35.378124 105.83125 34.8625Q106.1125 34.33125 106.1125 33.64375Q106.1125 32.846874 105.70625 32.253124Q105.3 31.659374 104.56563 31.425Q103.83125 31.190624 102.47188 31.190624L99.15938 31.190624L99.15938 36.1125ZM109.47188 32.6125Q109.47188 29.7375 111.06563 28.346874Q112.40938 27.190624 114.33125 27.190624Q116.47188 27.190624 117.81563 28.596874Q119.175 30.003124 119.175 32.471874Q119.175 34.471874 118.58125 35.628124Q117.9875 36.76875 116.83125 37.409374Q115.69063 38.034374 114.33125 38.034374Q112.14375 38.034374 110.8 36.64375Q109.47188 35.2375 109.47188 32.6125ZM111.26875 32.6125Q111.26875 34.6125 112.12813 35.596874Q113.00313 36.58125 114.33125 36.58125Q115.64375 36.58125 116.50313 35.596874Q117.37813 34.596874 117.37813 32.55Q117.37813 30.628124 116.50313 29.64375Q115.62813 28.64375 114.33125 28.64375Q113.00313 28.64375 112.12813 29.64375Q111.26875 30.628124 111.26875 32.6125ZM127.90938 37.8L127.90938 36.26875Q126.70625 38.034374 124.62813 38.034374Q123.70625 38.034374 122.90938 37.690624Q122.1125 37.33125 121.72188 36.8Q121.34688 36.26875 121.19063 35.4875Q121.08125 34.971874 121.08125 33.846874L121.08125 27.425L122.83125 27.425L122.83125 33.175Q122.83125 34.55 122.94063 35.034374Q123.1125 35.721874 123.64375 36.128124Q124.19063 36.51875 124.97188 36.51875Q125.76875 36.51875 126.45625 36.1125Q127.15938 35.70625 127.44063 35.01875Q127.7375 34.315624 127.7375 32.9875L127.7375 27.425L129.4875 27.425L129.4875 37.8L127.90938 37.8ZM131.1125 37.8L131.1125 27.425L132.70625 27.425L132.70625 28.909374Q133.84688 27.190624 136.00313 27.190624Q136.94063 27.190624 137.72188 27.534374Q138.51875 27.8625 138.90938 28.409374Q139.3 28.95625 139.45625 29.70625Q139.55 30.20625 139.55 31.425L139.55 37.8L137.78438 37.8L137.78438 31.4875Q137.78438 30.409374 137.58125 29.878124Q137.37813 29.346874 136.84688 29.034374Q136.33125 28.721874 135.62813 28.721874Q134.50313 28.721874 133.69063 29.440624Q132.87813 30.14375 132.87813 32.128124L132.87813 37.8L131.1125 37.8ZM147.89375 34.003124L149.6125 34.221874Q149.33125 36.01875 148.15938 37.034374Q147.00313 38.034374 145.3 38.034374Q143.175 38.034374 141.87813 36.64375Q140.58125 35.253124 140.58125 32.659374Q140.58125 30.971874 141.12813 29.721874Q141.69063 28.45625 142.83125 27.83125Q143.97188 27.190624 145.31563 27.190624Q147.00313 27.190624 148.06563 28.05Q149.14375 28.909374 149.45625 30.471874L147.7375 30.7375Q147.50313 29.690624 146.87813 29.175Q146.25313 28.64375 145.37813 28.64375Q144.05 28.64375 143.22188 29.596874Q142.39375 30.55 142.39375 32.596874Q142.39375 34.690624 143.19063 35.64375Q143.9875 36.58125 145.28438 36.58125Q146.31563 36.58125 147.00313 35.95625Q147.70625 35.315624 147.89375 34.003124ZM158.22188 34.45625L160.03438 34.690624Q159.6125 36.26875 158.44063 37.159374Q157.28438 38.034374 155.47188 38.034374Q153.20625 38.034374 151.8625 36.64375Q150.53438 35.2375 150.53438 32.70625Q150.53438 30.08125 151.87813 28.64375Q153.22188 27.190624 155.37813 27.190624Q157.45625 27.190624 158.76875 28.6125Q160.09688 30.01875 160.09688 32.596874Q160.09688 32.753124 160.08125 33.065624L152.34688 33.065624Q152.44063 34.76875 153.31563 35.675Q154.19063 36.58125 155.4875 36.58125Q156.45625 36.58125 157.12813 36.08125Q157.81563 35.565624 158.22188 34.45625ZM152.44063 31.6125L158.2375 31.6125Q158.12813 30.315624 157.58125 29.659374Q156.7375 28.64375 155.39375 28.64375Q154.19063 28.64375 153.3625 29.45625Q152.53438 30.253124 152.44063 31.6125Z" fill-rule="nonzero"/></svg>