<svg version="1.1" viewBox="0.0 0.0 608.0 376.0" fill="none" stroke="none" stroke-linecap="square" stroke-miterlimit="10" width="608" height="376" xmlns:xlink="http://www.w3.org/1999/xlink" xmlns="http://www.w3.org/2000/svg"><path fill="#ffffff" d="M0 0L608.0 0L608.0 376.0L0 376.0L0 0Z" fill-rule="nonzero"/><path stroke="#333333" stroke-width="1.0" stroke-linecap="butt" d="M80.5 318.5L589.5 318.5" fill-rule="nonzero"/><path stroke="#cccccc" stroke-width="1.0" stroke-linecap="butt" d="M80.5 254.5L589.5 254.5" fill-rule="nonzero"/><path stroke="#cccccc" stroke-width="1.0" stroke-linecap="butt" d="M80.5 190.5L589.5 190.5" fill-rule="nonzero"/><path stroke="#cccccc" stroke-width="1.0" stroke-linecap="butt" d="M80.5 126.5L589.5 126.5" fill-rule="nonzero"/><path stroke="#cccccc" stroke-width="1.0" stroke-linecap="butt" d="M80.5 62.5L589.5 62.5" fill-rule="nonzero"/><path stroke="#000000" stroke-width="1.0" stroke-linecap="butt" d="M80.5 318.5L80.5 62.5" fill-rule="nonzero"/><clipPath id="id_0"><path d="M80.8 62.333332L589.2 62.333332L589.2 318.2L80.8 318.2L80.8 62.333332Z" clip-rule="nonzero"/></clipPath><path stroke="#4285f4" stroke-width="2.0" stroke-linecap="butt" clip-path="url(#id_0)" d="M83.31683 318.2C83.31683 318.2 86.67261 306.58566 88.350494 301.06537C90.02838 295.54507 91.70627 290.22882 93.384155 285.07822C95.06205 279.92758 96.73994 274.96735 98.41782 270.16165C100.09571 265.35596 101.7736 260.72787 103.451485 256.24402C105.12937 251.76013 106.80726 247.44199 108.485146 243.25839C110.16303 239.07478 111.84093 235.04582 113.518814 231.14238C115.1967 227.23894 116.87459 223.47978 118.552475 219.83774C120.23036 216.19571 121.90825 212.68828 123.586136 209.29015C125.26402 205.892 126.94192 202.61946 128.6198 199.44888C130.29768 196.2783 131.97557 193.22491 133.65347 190.26666C135.33136 187.30841 137.00925 184.4595 138.68713 181.69936C140.36502 178.93921 142.04291 176.28108 143.7208 173.70576C145.39868 171.13046 147.07657 168.65034 148.75446 166.24748C150.43234 163.84464 152.11023 161.53061 153.78812 159.28867C155.466 157.04674 157.14389 154.88766 158.82178 152.79587C160.49966 150.70406 162.17755 148.68958 163.85544 146.73785C165.53334 144.78613 167.21123 142.90656 168.88911 141.08554C170.567 139.26451 172.24489 137.5108 173.92278 135.81174C175.60066 134.11267 177.27855 132.4764 178.95644 130.89111C180.63432 129.30582 182.31221 127.77913 183.9901 126.3C185.66798 124.82087 187.34587 123.396416 189.02376 122.01634C190.70164 120.63627 192.37953 119.307205 194.05742 118.019554C195.73532 116.731895 197.41321 115.49184 199.0911 114.29041C200.76898 113.08899 202.44687 111.93197 204.12476 110.811005C205.80264 109.69003 207.48053 108.6105 209.15842 107.5646C210.8363 106.5187 212.51419 105.51145 214.19208 104.53559C215.86996 103.55974 217.54785 102.61994 219.22574 101.709435C220.90363 100.79893 222.58151 99.92207 224.2594 99.07253C225.93729 98.223 227.61519 97.40487 229.29308 96.61222C230.97096 95.81958 232.64885 95.05623 234.32674 94.316666C236.00462 93.5771 237.68251 92.864876 239.3604 92.174835C241.03828 91.4848 242.71617 90.82027 244.39406 90.176445C246.07195 89.532616 247.74983 88.91258 249.42772 88.311874C251.1056 87.71116 252.7835 87.13265 254.46138 86.57217C256.13928 86.01168 257.81717 85.47192 259.49506 84.94897C261.17294 84.42602 262.85083 83.92239 264.52872 83.43446C266.2066 82.94653 267.8845 82.47664 269.56238 82.021385C271.24026 81.56613 272.91815 81.1277 274.59604 80.702934C276.27393 80.27817 277.9518 79.8691 279.6297 79.47278C281.3076 79.076454 282.98547 78.69478 284.66336 78.325C286.34125 77.955215 288.01913 77.599106 289.69702 77.25409C291.3749 76.909065 293.0528 76.576805 294.73068 76.25489C296.40857 75.932976 298.08646 75.622955 299.76434 75.3226C301.44223 75.02225 303.12012 74.732994 304.79803 74.45275C306.47592 74.17251 308.1538 73.902626 309.8317 73.64115C311.50958 73.37968 313.18747 73.12786 314.86536 72.883896C316.54324 72.63993 318.22113 72.40498 319.89902 72.17736C321.5769 71.94973 323.2548 71.730515 324.93268 71.518135C326.61057 71.30575 328.28845 71.10122 329.96634 70.90305C331.64423 70.704895 333.3221 70.51406 335.0 70.32917C336.6779 70.14428 338.35577 69.96622 340.03366 69.79371C341.71155 69.6212 343.38943 69.45507 345.06732 69.29411C346.7452 69.133156 348.4231 68.97815 350.10098 68.827965C351.77887 68.67779 353.45676 68.533165 355.13464 68.39304C356.81253 68.25292 358.49042 68.11798 360.1683 67.98724C361.8462 67.85651 363.52408 67.7306 365.20197 67.60862C366.87988 67.48663 368.55777 67.36916 370.23566 67.25535C371.91354 67.14153 373.59143 67.03193 375.26932 66.925735C376.9472 66.81954 378.6251 66.71728 380.30298 66.618195C381.98087 66.51911 383.65875 66.4237 385.33664 66.33125C387.01453 66.23881 388.6924 66.14977 390.3703 66.06352C392.0482 65.977264 393.72607 65.8942 395.40396 65.81372C397.08185 65.733246 398.75974 65.65574 400.43762 65.58065C402.1155 65.50556 403.7934 65.43325 405.47128 65.36319C407.14917 65.29313 408.82706 65.225655 410.50494 65.160286C412.18283 65.09492 413.86072 65.03197 415.5386 64.97098C417.2165 64.90998 418.89438 64.85125 420.57227 64.79434C422.25015 64.737434 423.92804 64.68263 425.60593 64.62953C427.2838 64.57644 428.96173 64.52531 430.63962 64.47576C432.3175 64.42622 433.9954 64.37852 435.67328 64.33229C437.35117 64.28607 439.02905 64.241554 440.70694 64.198425C442.38483 64.1553 444.0627 64.11377 445.7406 64.073524C447.4185 64.03329 449.09637 63.994537 450.77426 63.956993C452.45215 63.91945 454.13004 63.88329 455.80792 63.84826C457.4858 63.81323 459.1637 63.779495 460.84158 63.74681C462.51947 63.714127 464.19736 63.68265 465.87524 63.652153C467.55313 63.62166 469.23102 63.59229 470.9089 63.563835C472.5868 63.53538 474.26468 63.50798 475.94257 63.481434C477.62045 63.454884 479.29834 63.429317 480.97623 63.40455C482.6541 63.37978 484.332 63.355923 486.0099 63.332813C487.68777 63.3097 489.36566 63.287445 491.04358 63.26588C492.72147 63.244316 494.39935 63.22355 496.07724 63.20343C497.75513 63.18331 499.433 63.163937 501.1109 63.145164C502.7888 63.12639 504.46667 63.10831 506.14456 63.090797C507.82245 63.07328 509.50034 63.056416 511.17822 63.040073C512.8561 63.02373 514.534 63.00799 516.21185 62.992744C517.8898 62.977497 519.5676 62.96281 521.24554 62.948586C522.92346 62.934357 524.6013 62.92066 526.27924 62.907383C527.9571 62.894108 529.635 62.881325 531.31287 62.868942C532.9908 62.856556 534.66864 62.844627 536.34656 62.833073C538.0244 62.821518 539.70233 62.81039 541.3802 62.799606C543.0581 62.788826 544.73596 62.778442 546.4139 62.768383C548.09174 62.758324 549.76965 62.748634 551.4475 62.739246C553.1254 62.729862 554.8033 62.72082 556.4812 62.712067C558.15906 62.70331 559.837 62.694874 561.51483 62.686703C563.19275 62.67853 564.8706 62.670662 566.5485 62.66304C568.2264 62.655415 569.9043 62.64807 571.58215 62.64096C573.2601 62.633846 574.9379 62.626995 576.61584 62.620358C578.2937 62.61372 579.9716 62.648975 581.6495 62.601135C583.3274 62.5533 586.68317 62.333332 586.68317 62.333332" fill-rule="nonzero"/><path fill="#000000" fill-opacity="0.0" clip-path="url(#id_0)" d="M86.31683 318.2C86.31683 319.85684 84.97369 321.2 83.31683 321.2C81.65998 321.2 80.31683 319.85684 80.31683 318.2C80.31683 316.54315 81.65998 315.2 83.31683 315.2C84.97369 315.2 86.31683 316.54315 86.31683 318.2Z" fill-rule="nonzero"/><path fill="#000000" fill-opacity="0.0" clip-path="url(#id_0)" d="M91.350494 301.06537C91.350494 302.72223 90.00735 304.06537 88.350494 304.06537C86.69364 304.06537 85.350494 302.72223 85.350494 301.06537C85.350494 299.4085 86.69364 298.06537 88.350494 298.06537C90.00735 298.06537 91.350494 299.4085 91.350494 301.06537Z" fill-rule="nonzero"/><path fill="#000000" fill-opacity="0.0" clip-path="url(#id_0)" d="M96.384155 285.07822C96.384155 286.73505 95.041016 288.07822 93.384155 288.07822C91.7273 288.07822 90.384155 286.73505 90.384155 285.07822C90.384155 283.42136 91.7273 282.07822 93.384155 282.07822C95.041016 282.07822 96.384155 283.42136 96.384155 285.07822Z" fill-rule="nonzero"/><path fill="#000000" fill-opacity="0.0" clip-path="url(#id_0)" d="M101.41782 270.16165C101.41782 271.8185 100.07468 273.16165 98.41782 273.16165C96.76097 273.16165 95.41782 271.8185 95.41782 270.16165C95.41782 268.5048 96.76097 267.16165 98.41782 267.16165C100.07468 267.16165 101.41782 268.5048 101.41782 270.16165Z" fill-rule="nonzero"/><path fill="#000000" fill-opacity="0.0" clip-path="url(#id_0)" d="M106.451485 256.24402C106.451485 257.90085 105.10834 259.24402 103.451485 259.24402C101.79463 259.24402 100.451485 257.90085 100.451485 256.24402C100.451485 254.58716 101.79463 253.244 103.451485 253.244C105.10834 253.244 106.451485 254.58716 106.451485 256.24402Z" fill-rule="nonzero"/><path fill="#000000" fill-opacity="0.0" clip-path="url(#id_0)" d="M111.485146 243.25839C111.485146 244.91524 110.142006 246.25839 108.485146 246.25839C106.82829 246.25839 105.485146 244.91524 105.485146 243.25839C105.485146 241.60153 106.82829 240.25839 108.485146 240.25839C110.142006 240.25839 111.485146 241.60153 111.485146 243.25839Z" fill-rule="nonzero"/><path fill="#000000" fill-opacity="0.0" clip-path="url(#id_0)" d="M116.518814 231.14238C116.518814 232.79924 115.17567 234.14238 113.518814 234.14238C111.86196 234.14238 110.518814 232.79924 110.518814 231.14238C110.518814 229.48552 111.86196 228.14238 113.518814 228.14238C115.17567 228.14238 116.518814 229.48552 116.518814 231.14238Z" fill-rule="nonzero"/><path fill="#000000" fill-opacity="0.0" clip-path="url(#id_0)" d="M121.552475 219.83774C121.552475 221.4946 120.20933 222.83774 118.552475 222.83774C116.89562 222.83774 115.552475 221.4946 115.552475 219.83774C115.552475 218.1809 116.89562 216.83774 118.552475 216.83774C120.20933 216.83774 121.552475 218.1809 121.552475 219.83774Z" fill-rule="nonzero"/><path fill="#000000" fill-opacity="0.0" clip-path="url(#id_0)" d="M126.586136 209.29015C126.586136 210.94699 125.243 212.29015 123.586136 212.29015C121.92928 212.29015 120.586136 210.94699 120.586136 209.29015C120.586136 207.63329 121.92928 206.29015 123.586136 206.29015C125.243 206.29015 126.586136 207.63329 126.586136 209.29015Z" fill-rule="nonzero"/><path fill="#000000" fill-opacity="0.0" clip-path="url(#id_0)" d="M131.6198 199.44888C131.6198 201.10574 130.27666 202.44888 128.6198 202.44888C126.962944 202.44888 125.619804 201.10574 125.619804 199.44888C125.619804 197.79204 126.962944 196.44888 128.6198 196.44888C130.27666 196.44888 131.6198 197.79204 131.6198 199.44888Z" fill-rule="nonzero"/><path fill="#000000" fill-opacity="0.0" clip-path="url(#id_0)" d="M136.65347 190.26666C136.65347 191.92352 135.31032 193.26666 133.65347 193.26666C131.99661 193.26666 130.65347 191.92352 130.65347 190.26666C130.65347 188.60982 131.99661 187.26666 133.65347 187.26666C135.31032 187.26666 136.65347 188.60982 136.65347 190.26666Z" fill-rule="nonzero"/><path fill="#000000" fill-opacity="0.0" clip-path="url(#id_0)" d="M141.68713 181.69936C141.68713 183.3562 140.34398 184.69936 138.68713 184.69936C137.03027 184.69936 135.68713 183.3562 135.68713 181.69936C135.68713 180.0425 137.03027 178.69936 138.68713 178.69936C140.34398 178.69936 141.68713 180.0425 141.68713 181.69936Z" fill-rule="nonzero"/><path fill="#000000" fill-opacity="0.0" clip-path="url(#id_0)" d="M146.7208 173.70576C146.7208 175.36263 145.37764 176.70576 143.7208 176.70576C142.06393 176.70576 140.7208 175.36263 140.7208 173.70576C140.7208 172.04892 142.06393 170.70576 143.7208 170.70576C145.37764 170.70576 146.7208 172.04892 146.7208 173.70576Z" fill-rule="nonzero"/><path fill="#000000" fill-opacity="0.0" clip-path="url(#id_0)" d="M151.75446 166.24748C151.75446 167.90434 150.41132 169.24748 148.75446 169.24748C147.0976 169.24748 145.75446 167.90434 145.75446 166.24748C145.75446 164.59064 147.0976 163.24748 148.75446 163.24748C150.41132 163.24748 151.75446 164.59064 151.75446 166.24748Z" fill-rule="nonzero"/><path fill="#000000" fill-opacity="0.0" clip-path="url(#id_0)" d="M156.78812 159.28867C156.78812 160.94553 155.44498 162.28867 153.78812 162.28867C152.13127 162.28867 150.78812 160.94553 150.78812 159.28867C150.78812 157.63182 152.13127 156.28867 153.78812 156.28867C155.44498 156.28867 156.78812 157.63182 156.78812 159.28867Z" fill-rule="nonzero"/><path fill="#000000" fill-opacity="0.0" clip-path="url(#id_0)" d="M161.82178 152.79587C161.82178 154.45271 160.47864 155.79587 158.82178 155.79587C157.16493 155.79587 155.82178 154.45271 155.82178 152.79587C155.82178 151.139 157.16493 149.79587 158.82178 149.79587C160.47864 149.79587 161.82178 151.139 161.82178 152.79587Z" fill-rule="nonzero"/><path fill="#000000" fill-opacity="0.0" clip-path="url(#id_0)" d="M166.85544 146.73785C166.85544 148.39471 165.5123 149.73785 163.85544 149.73785C162.1986 149.73785 160.85544 148.39471 160.85544 146.73785C160.85544 145.08101 162.1986 143.73785 163.85544 143.73785C165.5123 143.73785 166.85544 145.08101 166.85544 146.73785Z" fill-rule="nonzero"/><path fill="#000000" fill-opacity="0.0" clip-path="url(#id_0)" d="M171.88911 141.08554C171.88911 142.74239 170.54596 144.08554 168.88911 144.08554C167.23225 144.08554 165.88911 142.74239 165.88911 141.08554C165.88911 139.42868 167.23225 138.08554 168.88911 138.08554C170.54596 138.08554 171.88911 139.42868 171.88911 141.08554Z" fill-rule="nonzero"/><path fill="#000000" fill-opacity="0.0" clip-path="url(#id_0)" d="M176.92278 135.81174C176.92278 137.4686 175.57962 138.81174 173.92278 138.81174C172.26591 138.81174 170.92278 137.4686 170.92278 135.81174C170.92278 134.15488 172.26591 132.81174 173.92278 132.81174C175.57962 132.81174 176.92278 134.15488 176.92278 135.81174Z" fill-rule="nonzero"/><path fill="#000000" fill-opacity="0.0" clip-path="url(#id_0)" d="M181.95644 130.89111C181.95644 132.54796 180.6133 133.89111 178.95644 133.89111C177.29958 133.89111 175.95644 132.54796 175.95644 130.89111C175.95644 129.23425 177.29958 127.891106 178.95644 127.891106C180.6133 127.891106 181.95644 129.23425 181.95644 130.89111Z" fill-rule="nonzero"/><path fill="#000000" fill-opacity="0.0" clip-path="url(#id_0)" d="M186.9901 126.3C186.9901 127.956856 185.64696 129.3 183.9901 129.3C182.33325 129.3 180.9901 127.956856 180.9901 126.3C180.9901 124.64314 182.33325 123.3 183.9901 123.3C185.64696 123.3 186.9901 124.64314 186.9901 126.3Z" fill-rule="nonzero"/><path fill="#000000" fill-opacity="0.0" clip-path="url(#id_0)" d="M192.02376 122.01634C192.02376 123.673195 190.68062 125.01634 189.02376 125.01634C187.36691 125.01634 186.02376 123.673195 186.02376 122.01634C186.02376 120.35949 187.36691 119.01634 189.02376 119.01634C190.68062 119.01634 192.02376 120.35949 192.02376 122.01634Z" fill-rule="nonzero"/><path fill="#000000" fill-opacity="0.0" clip-path="url(#id_0)" d="M197.05742 118.019554C197.05742 119.67641 195.71428 121.019554 194.05742 121.019554C192.40057 121.019554 191.05742 119.67641 191.05742 118.019554C191.05742 116.36269 192.40057 115.019554 194.05742 115.019554C195.71428 115.019554 197.05742 116.36269 197.05742 118.019554Z" fill-rule="nonzero"/><path fill="#000000" fill-opacity="0.0" clip-path="url(#id_0)" d="M202.0911 114.29041C202.0911 115.947266 200.74794 117.29041 199.0911 117.29041C197.43423 117.29041 196.0911 115.947266 196.0911 114.29041C196.0911 112.63356 197.43423 111.29041 199.0911 111.29041C200.74794 111.29041 202.0911 112.63356 202.0911 114.29041Z" fill-rule="nonzero"/><path fill="#000000" fill-opacity="0.0" clip-path="url(#id_0)" d="M207.12476 110.811005C207.12476 112.46786 205.7816 113.811005 204.12476 113.811005C202.4679 113.811005 201.12476 112.46786 201.12476 110.811005C201.12476 109.154144 202.4679 107.811005 204.12476 107.811005C205.7816 107.811005 207.12476 109.154144 207.12476 110.811005Z" fill-rule="nonzero"/><path fill="#000000" fill-opacity="0.0" clip-path="url(#id_0)" d="M212.15842 107.5646C212.15842 109.22145 210.81528 110.5646 209.15842 110.5646C207.50156 110.5646 206.15842 109.22145 206.15842 107.5646C206.15842 105.907745 207.50156 104.5646 209.15842 104.5646C210.81528 104.5646 212.15842 105.907745 212.15842 107.5646Z" fill-rule="nonzero"/><path fill="#000000" fill-opacity="0.0" clip-path="url(#id_0)" d="M217.19208 104.53559C217.19208 106.19245 215.84894 107.53559 214.19208 107.53559C212.53523 107.53559 211.19208 106.19245 211.19208 104.53559C211.19208 102.87874 212.53523 101.53559 214.19208 101.53559C215.84894 101.53559 217.19208 102.87874 217.19208 104.53559Z" fill-rule="nonzero"/><path fill="#000000" fill-opacity="0.0" clip-path="url(#id_0)" d="M222.22574 101.709435C222.22574 103.36629 220.8826 104.709435 219.22574 104.709435C217.5689 104.709435 216.22574 103.36629 216.22574 101.709435C216.22574 100.05258 217.5689 98.709435 219.22574 98.709435C220.8826 98.709435 222.22574 100.05258 222.22574 101.709435Z" fill-rule="nonzero"/><path fill="#000000" fill-opacity="0.0" clip-path="url(#id_0)" d="M227.2594 99.07253C227.2594 100.72939 225.91626 102.07253 224.2594 102.07253C222.60255 102.07253 221.2594 100.72939 221.2594 99.07253C221.2594 97.41568 222.60255 96.07253 224.2594 96.07253C225.91626 96.07253 227.2594 97.41568 227.2594 99.07253Z" fill-rule="nonzero"/><path fill="#000000" fill-opacity="0.0" clip-path="url(#id_0)" d="M232.29308 96.61222C232.29308 98.26907 230.94992 99.61222 229.29308 99.61222C227.63622 99.61222 226.29308 98.26907 226.29308 96.61222C226.29308 94.95537 227.63622 93.61222 229.29308 93.61222C230.94992 93.61222 232.29308 94.95537 232.29308 96.61222Z" fill-rule="nonzero"/><path fill="#000000" fill-opacity="0.0" clip-path="url(#id_0)" d="M237.32674 94.316666C237.32674 95.97352 235.98358 97.316666 234.32674 97.316666C232.66988 97.316666 231.32674 95.97352 231.32674 94.316666C231.32674 92.65981 232.66988 91.316666 234.32674 91.316666C235.98358 91.316666 237.32674 92.65981 237.32674 94.316666Z" fill-rule="nonzero"/><path fill="#000000" fill-opacity="0.0" clip-path="url(#id_0)" d="M242.3604 92.174835C242.3604 93.831696 241.01726 95.174835 239.3604 95.174835C237.70354 95.174835 236.3604 93.831696 236.3604 92.174835C236.3604 90.51798 237.70354 89.174835 239.3604 89.174835C241.01726 89.174835 242.3604 90.51798 242.3604 92.174835Z" fill-rule="nonzero"/><path fill="#000000" fill-opacity="0.0" clip-path="url(#id_0)" d="M247.39406 90.176445C247.39406 91.8333 246.05092 93.176445 244.39406 93.176445C242.7372 93.176445 241.39406 91.8333 241.39406 90.176445C241.39406 88.519585 242.7372 87.176445 244.39406 87.176445C246.05092 87.176445 247.39406 88.519585 247.39406 90.176445Z" fill-rule="nonzero"/><path fill="#000000" fill-opacity="0.0" clip-path="url(#id_0)" d="M252.42772 88.311874C252.42772 89.96873 251.08458 91.311874 249.42772 91.311874C247.77087 91.311874 246.42772 89.96873 246.42772 88.311874C246.42772 86.65502 247.77087 85.311874 249.42772 85.311874C251.08458 85.311874 252.42772 86.65502 252.42772 88.311874Z" fill-rule="nonzero"/><path fill="#000000" fill-opacity="0.0" clip-path="url(#id_0)" d="M257.4614 86.57217C257.4614 88.22902 256.11826 89.57217 254.46138 89.57217C252.80453 89.57217 251.46138 88.22902 251.46138 86.57217C251.46138 84.91531 252.80453 83.57217 254.46138 83.57217C256.11826 83.57217 257.4614 84.91531 257.4614 86.57217Z" fill-rule="nonzero"/><path fill="#000000" fill-opacity="0.0" clip-path="url(#id_0)" d="M262.49506 84.94897C262.49506 86.60582 261.15192 87.94897 259.49506 87.94897C257.8382 87.94897 256.49506 86.60582 256.49506 84.94897C256.49506 83.292114 257.8382 81.94897 259.49506 81.94897C261.15192 81.94897 262.49506 83.292114 262.49506 84.94897Z" fill-rule="nonzero"/><path fill="#000000" fill-opacity="0.0" clip-path="url(#id_0)" d="M267.52872 83.43446C267.52872 85.09132 266.18558 86.43446 264.52872 86.43446C262.87186 86.43446 261.52872 85.09132 261.52872 83.43446C261.52872 81.77761 262.87186 80.43446 264.52872 80.43446C266.18558 80.43446 267.52872 81.77761 267.52872 83.43446Z" fill-rule="nonzero"/><path fill="#000000" fill-opacity="0.0" clip-path="url(#id_0)" d="M272.56238 82.021385C272.56238 83.67824 271.21924 85.021385 269.56238 85.021385C267.90552 85.021385 266.56238 83.67824 266.56238 82.021385C266.56238 80.36453 267.90552 79.021385 269.56238 79.021385C271.21924 79.021385 272.56238 80.36453 272.56238 82.021385Z" fill-rule="nonzero"/><path fill="#000000" fill-opacity="0.0" clip-path="url(#id_0)" d="M277.59604 80.702934C277.59604 82.35979 276.2529 83.702934 274.59604 83.702934C272.93918 83.702934 271.59604 82.35979 271.59604 80.702934C271.59604 79.04608 272.93918 77.702934 274.59604 77.702934C276.2529 77.702934 277.59604 79.04608 277.59604 80.702934Z" fill-rule="nonzero"/><path fill="#000000" fill-opacity="0.0" clip-path="url(#id_0)" d="M282.6297 79.47278C282.6297 81.12963 281.28656 82.47278 279.6297 82.47278C277.97284 82.47278 276.6297 81.12963 276.6297 79.47278C276.6297 77.815926 277.97284 76.47278 279.6297 76.47278C281.28656 76.47278 282.6297 77.815926 282.6297 79.47278Z" fill-rule="nonzero"/><path fill="#000000" fill-opacity="0.0" clip-path="url(#id_0)" d="M287.66336 78.325C287.66336 79.98186 286.32022 81.325 284.66336 81.325C283.0065 81.325 281.66336 79.98186 281.66336 78.325C281.66336 76.668144 283.0065 75.325 284.66336 75.325C286.32022 75.325 287.66336 76.668144 287.66336 78.325Z" fill-rule="nonzero"/><path fill="#000000" fill-opacity="0.0" clip-path="url(#id_0)" d="M292.69702 77.25409C292.69702 78.91094 291.35388 80.25409 289.69702 80.25409C288.04016 80.25409 286.69702 78.91094 286.69702 77.25409C286.69702 75.59723 288.04016 74.25409 289.69702 74.25409C291.35388 74.25409 292.69702 75.59723 292.69702 77.25409Z" fill-rule="nonzero"/><path fill="#000000" fill-opacity="0.0" clip-path="url(#id_0)" d="M297.73068 76.25489C297.73068 77.91174 296.38754 79.25489 294.73068 79.25489C293.07385 79.25489 291.73068 77.91174 291.73068 76.25489C291.73068 74.59803 293.07385 73.25489 294.73068 73.25489C296.38754 73.25489 297.73068 74.59803 297.73068 76.25489Z" fill-rule="nonzero"/><path fill="#000000" fill-opacity="0.0" clip-path="url(#id_0)" d="M302.76434 75.3226C302.76434 76.979454 301.4212 78.3226 299.76434 78.3226C298.1075 78.3226 296.76434 76.979454 296.76434 75.3226C296.76434 73.66575 298.1075 72.3226 299.76434 72.3226C301.4212 72.3226 302.76434 73.66575 302.76434 75.3226Z" fill-rule="nonzero"/><path fill="#000000" fill-opacity="0.0" clip-path="url(#id_0)" d="M307.79803 74.45275C307.79803 76.109604 306.45486 77.45275 304.79803 77.45275C303.14117 77.45275 301.79803 76.109604 301.79803 74.45275C301.79803 72.7959 303.14117 71.45275 304.79803 71.45275C306.45486 71.45275 307.79803 72.7959 307.79803 74.45275Z" fill-rule="nonzero"/><path fill="#000000" fill-opacity="0.0" clip-path="url(#id_0)" d="M312.8317 73.64115C312.8317 75.298004 311.48853 76.64115 309.8317 76.64115C308.17484 76.64115 306.8317 75.298004 306.8317 73.64115C306.8317 71.9843 308.17484 70.64115 309.8317 70.64115C311.48853 70.64115 312.8317 71.9843 312.8317 73.64115Z" fill-rule="nonzero"/><path fill="#000000" fill-opacity="0.0" clip-path="url(#id_0)" d="M317.86536 72.883896C317.86536 74.54076 316.5222 75.883896 314.86536 75.883896C313.2085 75.883896 311.86536 74.54076 311.86536 72.883896C311.86536 71.22704 313.2085 69.883896 314.86536 69.883896C316.5222 69.883896 317.86536 71.22704 317.86536 72.883896Z" fill-rule="nonzero"/><path fill="#000000" fill-opacity="0.0" clip-path="url(#id_0)" d="M322.89902 72.17736C322.89902 73.83421 321.55588 75.17736 319.89902 75.17736C318.24216 75.17736 316.89902 73.83421 316.89902 72.17736C316.89902 70.52051 318.24216 69.17736 319.89902 69.17736C321.55588 69.17736 322.89902 70.52051 322.89902 72.17736Z" fill-rule="nonzero"/><path fill="#000000" fill-opacity="0.0" clip-path="url(#id_0)" d="M327.93268 71.518135C327.93268 73.17499 326.58954 74.518135 324.93268 74.518135C323.27582 74.518135 321.93268 73.17499 321.93268 71.518135C321.93268 69.86128 323.27582 68.518135 324.93268 68.518135C326.58954 68.518135 327.93268 69.86128 327.93268 71.518135Z" fill-rule="nonzero"/><path fill="#000000" fill-opacity="0.0" clip-path="url(#id_0)" d="M332.96634 70.90305C332.96634 72.559906 331.6232 73.90305 329.96634 73.90305C328.30948 73.90305 326.96634 72.559906 326.96634 70.90305C326.96634 69.2462 328.30948 67.90305 329.96634 67.90305C331.6232 67.90305 332.96634 69.2462 332.96634 70.90305Z" fill-rule="nonzero"/><path fill="#000000" fill-opacity="0.0" clip-path="url(#id_0)" d="M338.0 70.32917C338.0 71.98602 336.65686 73.32917 335.0 73.32917C333.34314 73.32917 332.0 71.98602 332.0 70.32917C332.0 68.67231 333.34314 67.32917 335.0 67.32917C336.65686 67.32917 338.0 68.67231 338.0 70.32917Z" fill-rule="nonzero"/><path fill="#000000" fill-opacity="0.0" clip-path="url(#id_0)" d="M343.03366 69.79371C343.03366 71.45056 341.69052 72.79371 340.03366 72.79371C338.3768 72.79371 337.03366 71.45056 337.03366 69.79371C337.03366 68.136856 338.3768 66.79371 340.03366 66.79371C341.69052 66.79371 343.03366 68.136856 343.03366 69.79371Z" fill-rule="nonzero"/><path fill="#000000" fill-opacity="0.0" clip-path="url(#id_0)" d="M348.06732 69.29411C348.06732 70.950966 346.72418 72.29411 345.06732 72.29411C343.41046 72.29411 342.06732 70.950966 342.06732 69.29411C342.06732 67.63725 343.41046 66.29411 345.06732 66.29411C346.72418 66.29411 348.06732 67.63725 348.06732 69.29411Z" fill-rule="nonzero"/><path fill="#000000" fill-opacity="0.0" clip-path="url(#id_0)" d="M353.10098 68.827965C353.10098 70.484825 351.75784 71.827965 350.10098 71.827965C348.44412 71.827965 347.10098 70.484825 347.10098 68.827965C347.10098 67.17111 348.44412 65.827965 350.10098 65.827965C351.75784 65.827965 353.10098 67.17111 353.10098 68.827965Z" fill-rule="nonzero"/><path fill="#000000" fill-opacity="0.0" clip-path="url(#id_0)" d="M358.13464 68.39304C358.13464 70.0499 356.7915 71.39304 355.13464 71.39304C353.4778 71.39304 352.13464 70.0499 352.13464 68.39304C352.13464 66.73619 353.4778 65.39304 355.13464 65.39304C356.7915 65.39304 358.13464 66.73619 358.13464 68.39304Z" fill-rule="nonzero"/><path fill="#000000" fill-opacity="0.0" clip-path="url(#id_0)" d="M363.1683 67.98724C363.1683 69.6441 361.82516 70.98724 360.1683 70.98724C358.51147 70.98724 357.1683 69.6441 357.1683 67.98724C357.1683 66.33038 358.51147 64.98724 360.1683 64.98724C361.82516 64.98724 363.1683 66.33038 363.1683 67.98724Z" fill-rule="nonzero"/><path fill="#000000" fill-opacity="0.0" clip-path="url(#id_0)" d="M368.20197 67.60862C368.20197 69.26547 366.85883 70.60862 365.20197 70.60862C363.54514 70.60862 362.20197 69.26547 362.20197 67.60862C362.20197 65.95176 363.54514 64.60862 365.20197 64.60862C366.85883 64.60862 368.20197 65.95176 368.20197 67.60862Z" fill-rule="nonzero"/><path fill="#000000" fill-opacity="0.0" clip-path="url(#id_0)" d="M373.23566 67.25535C373.23566 68.9122 371.8925 70.25535 370.23566 70.25535C368.5788 70.25535 367.23566 68.9122 367.23566 67.25535C367.23566 65.598495 368.5788 64.25535 370.23566 64.25535C371.8925 64.25535 373.23566 65.598495 373.23566 67.25535Z" fill-rule="nonzero"/><path fill="#000000" fill-opacity="0.0" clip-path="url(#id_0)" d="M378.26932 66.925735C378.26932 68.58259 376.92615 69.925735 375.26932 69.925735C373.61246 69.925735 372.26932 68.58259 372.26932 66.925735C372.26932 65.26888 373.61246 63.925735 375.26932 63.925735C376.92615 63.925735 378.26932 65.26888 378.26932 66.925735Z" fill-rule="nonzero"/><path fill="#000000" fill-opacity="0.0" clip-path="url(#id_0)" d="M383.30298 66.618195C383.30298 68.27505 381.95984 69.618195 380.30298 69.618195C378.64612 69.618195 377.30298 68.27505 377.30298 66.618195C377.30298 64.96134 378.64612 63.618195 380.30298 63.618195C381.95984 63.618195 383.30298 64.96134 383.30298 66.618195Z" fill-rule="nonzero"/><path fill="#000000" fill-opacity="0.0" clip-path="url(#id_0)" d="M388.33664 66.33125C388.33664 67.988106 386.9935 69.33125 385.33664 69.33125C383.67978 69.33125 382.33664 67.988106 382.33664 66.33125C382.33664 64.67439 383.67978 63.33125 385.33664 63.33125C386.9935 63.33125 388.33664 64.67439 388.33664 66.33125Z" fill-rule="nonzero"/><path fill="#000000" fill-opacity="0.0" clip-path="url(#id_0)" d="M393.3703 66.06352C393.3703 67.720375 392.02716 69.06352 390.3703 69.06352C388.71344 69.06352 387.3703 67.720375 387.3703 66.06352C387.3703 64.40667 388.71344 63.063522 390.3703 63.063522C392.02716 63.063522 393.3703 64.40667 393.3703 66.06352Z" fill-rule="nonzero"/><path fill="#000000" fill-opacity="0.0" clip-path="url(#id_0)" d="M398.40396 65.81372C398.40396 67.47057 397.06082 68.81372 395.40396 68.81372C393.7471 68.81372 392.40396 67.47057 392.40396 65.81372C392.40396 64.15687 393.7471 62.81372 395.40396 62.81372C397.06082 62.81372 398.40396 64.15687 398.40396 65.81372Z" fill-rule="nonzero"/><path fill="#000000" fill-opacity="0.0" clip-path="url(#id_0)" d="M403.43762 65.58065C403.43762 67.2375 402.09448 68.58065 400.43762 68.58065C398.78076 68.58065 397.43762 67.2375 397.43762 65.58065C397.43762 63.923798 398.78076 62.58065 400.43762 62.58065C402.09448 62.58065 403.43762 63.923798 403.43762 65.58065Z" fill-rule="nonzero"/><path fill="#000000" fill-opacity="0.0" clip-path="url(#id_0)" d="M408.47128 65.36319C408.47128 67.02004 407.12814 68.36319 405.47128 68.36319C403.81442 68.36319 402.47128 67.02004 402.47128 65.36319C402.47128 63.706333 403.81442 62.363186 405.47128 62.363186C407.12814 62.363186 408.47128 63.706333 408.47128 65.36319Z" fill-rule="nonzero"/><path fill="#000000" fill-opacity="0.0" clip-path="url(#id_0)" d="M413.50494 65.160286C413.50494 66.81714 412.1618 68.160286 410.50494 68.160286C408.84808 68.160286 407.50494 66.81714 407.50494 65.160286C407.50494 63.503433 408.84808 62.160286 410.50494 62.160286C412.1618 62.160286 413.50494 63.503433 413.50494 65.160286Z" fill-rule="nonzero"/><path fill="#000000" fill-opacity="0.0" clip-path="url(#id_0)" d="M418.5386 64.97098C418.5386 66.62783 417.19547 67.97098 415.5386 67.97098C413.88174 67.97098 412.5386 66.62783 412.5386 64.97098C412.5386 63.31412 413.88174 61.970974 415.5386 61.970974C417.19547 61.970974 418.5386 63.31412 418.5386 64.97098Z" fill-rule="nonzero"/><path fill="#000000" fill-opacity="0.0" clip-path="url(#id_0)" d="M423.57227 64.79434C423.57227 66.451195 422.22913 67.79434 420.57227 67.79434C418.91544 67.79434 417.57227 66.451195 417.57227 64.79434C417.57227 63.137486 418.91544 61.79434 420.57227 61.79434C422.22913 61.79434 423.57227 63.137486 423.57227 64.79434Z" fill-rule="nonzero"/><path fill="#000000" fill-opacity="0.0" clip-path="url(#id_0)" d="M428.60593 64.62953C428.60593 66.286385 427.2628 67.62953 425.60593 67.62953C423.9491 67.62953 422.60593 66.286385 422.60593 64.62953C422.60593 62.97268 423.9491 61.62953 425.60593 61.62953C427.2628 61.62953 428.60593 62.97268 428.60593 64.62953Z" fill-rule="nonzero"/><path fill="#000000" fill-opacity="0.0" clip-path="url(#id_0)" d="M433.63962 64.47576C433.63962 66.13262 432.29645 67.47576 430.63962 67.47576C428.98276 67.47576 427.63962 66.13262 427.63962 64.47576C427.63962 62.81891 428.98276 61.475765 430.63962 61.475765C432.29645 61.475765 433.63962 62.81891 433.63962 64.47576Z" fill-rule="nonzero"/><path fill="#000000" fill-opacity="0.0" clip-path="url(#id_0)" d="M438.67328 64.33229C438.67328 65.98914 437.3301 67.33229 435.67328 67.33229C434.01642 67.33229 432.67328 65.98914 432.67328 64.33229C432.67328 62.675438 434.01642 61.33229 435.67328 61.33229C437.3301 61.33229 438.67328 62.675438 438.67328 64.33229Z" fill-rule="nonzero"/><path fill="#000000" fill-opacity="0.0" clip-path="url(#id_0)" d="M443.70694 64.198425C443.70694 65.85528 442.3638 67.198425 440.70694 67.198425C439.05008 67.198425 437.70694 65.85528 437.70694 64.198425C437.70694 62.541573 439.05008 61.19843 440.70694 61.19843C442.3638 61.19843 443.70694 62.541573 443.70694 64.198425Z" fill-rule="nonzero"/><path fill="#000000" fill-opacity="0.0" clip-path="url(#id_0)" d="M448.7406 64.073524C448.7406 65.730385 447.39746 67.073524 445.7406 67.073524C444.08374 67.073524 442.7406 65.730385 442.7406 64.073524C442.7406 62.41667 444.08374 61.07353 445.7406 61.07353C447.39746 61.07353 448.7406 62.41667 448.7406 64.073524Z" fill-rule="nonzero"/><path fill="#000000" fill-opacity="0.0" clip-path="url(#id_0)" d="M453.77426 63.956993C453.77426 65.613846 452.43112 66.95699 450.77426 66.95699C449.1174 66.95699 447.77426 65.613846 447.77426 63.956993C447.77426 62.300137 449.1174 60.956993 450.77426 60.956993C452.43112 60.956993 453.77426 62.300137 453.77426 63.956993Z" fill-rule="nonzero"/><path fill="#000000" fill-opacity="0.0" clip-path="url(#id_0)" d="M458.80792 63.84826C458.80792 65.50511 457.46478 66.84826 455.80792 66.84826C454.15106 66.84826 452.80792 65.50511 452.80792 63.84826C452.80792 62.191406 454.15106 60.84826 455.80792 60.84826C457.46478 60.84826 458.80792 62.191406 458.80792 63.84826Z" fill-rule="nonzero"/><path fill="#000000" fill-opacity="0.0" clip-path="url(#id_0)" d="M463.84158 63.74681C463.84158 65.40366 462.49844 66.74681 460.84158 66.74681C459.18472 66.74681 457.84158 65.40366 457.84158 63.74681C457.84158 62.089954 459.18472 60.74681 460.84158 60.74681C462.49844 60.74681 463.84158 62.089954 463.84158 63.74681Z" fill-rule="nonzero"/><path fill="#000000" fill-opacity="0.0" clip-path="url(#id_0)" d="M468.87524 63.652153C468.87524 65.309006 467.5321 66.65215 465.87524 66.65215C464.21838 66.65215 462.87524 65.309006 462.87524 63.652153C462.87524 61.9953 464.21838 60.652153 465.87524 60.652153C467.5321 60.652153 468.87524 61.9953 468.87524 63.652153Z" fill-rule="nonzero"/><path fill="#000000" fill-opacity="0.0" clip-path="url(#id_0)" d="M473.9089 63.563835C473.9089 65.22069 472.56577 66.563835 470.9089 66.563835C469.25204 66.563835 467.9089 65.22069 467.9089 63.563835C467.9089 61.906982 469.25204 60.563835 470.9089 60.563835C472.56577 60.563835 473.9089 61.906982 473.9089 63.563835Z" fill-rule="nonzero"/><path fill="#000000" fill-opacity="0.0" clip-path="url(#id_0)" d="M478.94257 63.481434C478.94257 65.13829 477.59943 66.48143 475.94257 66.48143C474.2857 66.48143 472.94257 65.13829 472.94257 63.481434C472.94257 61.824577 474.2857 60.481434 475.94257 60.481434C477.59943 60.481434 478.94257 61.824577 478.94257 63.481434Z" fill-rule="nonzero"/><path fill="#000000" fill-opacity="0.0" clip-path="url(#id_0)" d="M483.97623 63.40455C483.97623 65.0614 482.6331 66.40455 480.97623 66.40455C479.3194 66.40455 477.97623 65.0614 477.97623 63.40455C477.97623 61.747696 479.3194 60.40455 480.97623 60.40455C482.6331 60.40455 483.97623 61.747696 483.97623 63.40455Z" fill-rule="nonzero"/><path fill="#000000" fill-opacity="0.0" clip-path="url(#id_0)" d="M489.0099 63.332813C489.0099 64.98967 487.66675 66.33281 486.0099 66.33281C484.35306 66.33281 483.0099 64.98967 483.0099 63.332813C483.0099 61.675957 484.35306 60.332813 486.0099 60.332813C487.66675 60.332813 489.0099 61.675957 489.0099 63.332813Z" fill-rule="nonzero"/><path fill="#000000" fill-opacity="0.0" clip-path="url(#id_0)" d="M494.04358 63.26588C494.04358 64.92274 492.7004 66.26588 491.04358 66.26588C489.38672 66.26588 488.04358 64.92274 488.04358 63.26588C488.04358 61.609028 489.38672 60.26588 491.04358 60.26588C492.7004 60.26588 494.04358 61.609028 494.04358 63.26588Z" fill-rule="nonzero"/><path fill="#000000" fill-opacity="0.0" clip-path="url(#id_0)" d="M499.07724 63.20343C499.07724 64.86028 497.73407 66.20343 496.07724 66.20343C494.42038 66.20343 493.07724 64.86028 493.07724 63.20343C493.07724 61.546577 494.42038 60.20343 496.07724 60.20343C497.73407 60.20343 499.07724 61.546577 499.07724 63.20343Z" fill-rule="nonzero"/><path fill="#000000" fill-opacity="0.0" clip-path="url(#id_0)" d="M504.1109 63.145164C504.1109 64.80202 502.76773 66.145164 501.1109 66.145164C499.45404 66.145164 498.1109 64.80202 498.1109 63.145164C498.1109 61.488308 499.45404 60.145164 501.1109 60.145164C502.76773 60.145164 504.1109 61.488308 504.1109 63.145164Z" fill-rule="nonzero"/><path fill="#000000" fill-opacity="0.0" clip-path="url(#id_0)" d="M509.14456 63.090797C509.14456 64.74765 507.80142 66.0908 506.14456 66.0908C504.4877 66.0908 503.14456 64.74765 503.14456 63.090797C503.14456 61.43394 504.4877 60.090797 506.14456 60.090797C507.80142 60.090797 509.14456 61.43394 509.14456 63.090797Z" fill-rule="nonzero"/><path fill="#000000" fill-opacity="0.0" clip-path="url(#id_0)" d="M514.1782 63.040073C514.1782 64.69692 512.8351 66.04007 511.17822 66.04007C509.52136 66.04007 508.17822 64.69692 508.17822 63.040073C508.17822 61.383217 509.52136 60.040073 511.17822 60.040073C512.8351 60.040073 514.1782 61.383217 514.1782 63.040073Z" fill-rule="nonzero"/><path fill="#000000" fill-opacity="0.0" clip-path="url(#id_0)" d="M519.21185 62.992744C519.21185 64.6496 517.8687 65.992744 516.21185 65.992744C514.55505 65.992744 513.21185 64.6496 513.21185 62.992744C513.21185 61.335888 514.55505 59.992744 516.21185 59.992744C517.8687 59.992744 519.21185 61.335888 519.21185 62.992744Z" fill-rule="nonzero"/><path fill="#000000" fill-opacity="0.0" clip-path="url(#id_0)" d="M524.24554 62.948586C524.24554 64.60544 522.9024 65.948586 521.24554 65.948586C519.5887 65.948586 518.24554 64.60544 518.24554 62.948586C518.24554 61.29173 519.5887 59.948586 521.24554 59.948586C522.9024 59.948586 524.24554 61.29173 524.24554 62.948586Z" fill-rule="nonzero"/><path fill="#000000" fill-opacity="0.0" clip-path="url(#id_0)" d="M529.27924 62.907383C529.27924 64.56424 527.93604 65.90739 526.27924 65.90739C524.6224 65.90739 523.27924 64.56424 523.27924 62.907383C523.27924 61.25053 524.6224 59.907383 526.27924 59.907383C527.93604 59.907383 529.27924 61.25053 529.27924 62.907383Z" fill-rule="nonzero"/><path fill="#000000" fill-opacity="0.0" clip-path="url(#id_0)" d="M534.31287 62.868942C534.31287 64.525795 532.9697 65.86894 531.31287 65.86894C529.656 65.86894 528.31287 64.525795 528.31287 62.868942C528.31287 61.212086 529.656 59.868942 531.31287 59.868942C532.9697 59.868942 534.31287 61.212086 534.31287 62.868942Z" fill-rule="nonzero"/><path fill="#000000" fill-opacity="0.0" clip-path="url(#id_0)" d="M539.34656 62.833073C539.34656 64.48993 538.0034 65.83308 536.34656 65.83308C534.6897 65.83308 533.34656 64.48993 533.34656 62.833073C533.34656 61.17622 534.6897 59.833073 536.34656 59.833073C538.0034 59.833073 539.34656 61.17622 539.34656 62.833073Z" fill-rule="nonzero"/><path fill="#000000" fill-opacity="0.0" clip-path="url(#id_0)" d="M544.3802 62.799606C544.3802 64.45646 543.03705 65.79961 541.3802 65.79961C539.7233 65.79961 538.3802 64.45646 538.3802 62.799606C538.3802 61.142754 539.7233 59.799606 541.3802 59.799606C543.03705 59.799606 544.3802 61.142754 544.3802 62.799606Z" fill-rule="nonzero"/><path fill="#000000" fill-opacity="0.0" clip-path="url(#id_0)" d="M549.4139 62.768383C549.4139 64.42524 548.07074 65.76838 546.4139 65.76838C544.757 65.76838 543.4139 64.42524 543.4139 62.768383C543.4139 61.111526 544.757 59.768383 546.4139 59.768383C548.07074 59.768383 549.4139 61.111526 549.4139 62.768383Z" fill-rule="nonzero"/><path fill="#000000" fill-opacity="0.0" clip-path="url(#id_0)" d="M554.4475 62.739246C554.4475 64.3961 553.1044 65.73925 551.4475 65.73925C549.79065 65.73925 548.4475 64.3961 548.4475 62.739246C548.4475 61.082394 549.79065 59.739246 551.4475 59.739246C553.1044 59.739246 554.4475 61.082394 554.4475 62.739246Z" fill-rule="nonzero"/><path fill="#000000" fill-opacity="0.0" clip-path="url(#id_0)" d="M559.4812 62.712067C559.4812 64.36892 558.13806 65.71207 556.4812 65.71207C554.82434 65.71207 553.4812 64.36892 553.4812 62.712067C553.4812 61.05521 554.82434 59.712067 556.4812 59.712067C558.13806 59.712067 559.4812 61.05521 559.4812 62.712067Z" fill-rule="nonzero"/><path fill="#000000" fill-opacity="0.0" clip-path="url(#id_0)" d="M564.51483 62.686703C564.51483 64.34356 563.1717 65.6867 561.51483 65.6867C559.858 65.6867 558.51483 64.34356 558.51483 62.686703C558.51483 61.02985 559.858 59.686703 561.51483 59.686703C563.1717 59.686703 564.51483 61.02985 564.51483 62.686703Z" fill-rule="nonzero"/><path fill="#000000" fill-opacity="0.0" clip-path="url(#id_0)" d="M569.5485 62.66304C569.5485 64.31989 568.2054 65.66304 566.5485 65.66304C564.89166 65.66304 563.5485 64.31989 563.5485 62.66304C563.5485 61.006184 564.89166 59.66304 566.5485 59.66304C568.2054 59.66304 569.5485 61.006184 569.5485 62.66304Z" fill-rule="nonzero"/><path fill="#000000" fill-opacity="0.0" clip-path="url(#id_0)" d="M574.58215 62.64096C574.58215 64.29781 573.239 65.64096 571.58215 65.64096C569.92535 65.64096 568.58215 64.29781 568.58215 62.64096C568.58215 60.984104 569.92535 59.64096 571.58215 59.64096C573.239 59.64096 574.58215 60.984104 574.58215 62.64096Z" fill-rule="nonzero"/><path fill="#000000" fill-opacity="0.0" clip-path="url(#id_0)" d="M579.61584 62.620358C579.61584 64.277214 578.2727 65.62036 576.61584 65.62036C574.959 65.62036 573.61584 64.277214 573.61584 62.620358C573.61584 60.963505 574.959 59.620358 576.61584 59.620358C578.2727 59.620358 579.61584 60.963505 579.61584 62.620358Z" fill-rule="nonzero"/><path fill="#000000" fill-opacity="0.0" clip-path="url(#id_0)" d="M584.6495 62.601135C584.6495 64.25799 583.30634 65.601135 581.6495 65.601135C579.9927 65.601135 578.6495 64.25799 578.6495 62.601135C578.6495 60.944283 579.9927 59.601135 581.6495 59.601135C583.30634 59.601135 584.6495 60.944283 584.6495 62.601135Z" fill-rule="nonzero"/><path fill="#000000" fill-opacity="0.0" clip-path="url(#id_0)" d="M589.68317 62.333332C589.68317 63.99019 588.34 65.333336 586.68317 65.333336C585.0263 65.333336 583.68317 63.99019 583.68317 62.333332C583.68317 60.67648 585.0263 59.333332 586.68317 59.333332C588.34 59.333332 589.68317 60.67648 589.68317 62.333332Z" fill-rule="nonzero"/><path fill="#000000" d="M336.59375 353.2625L336.75 354.1844Q336.29688 354.27814 335.95312 354.27814Q335.375 354.27814 335.0625 354.10626Q334.75 353.91876 334.60938 353.6219Q334.48438 353.325 334.48438 352.3719L334.48438 348.79376L333.71875 348.79376L333.71875 347.98126L334.48438 347.98126L334.48438 346.4344L335.53125 345.8094L335.53125 347.98126L336.59375 347.98126L336.59375 348.79376L335.53125 348.79376L335.53125 352.4344Q335.53125 352.8875 335.57812 353.0125Q335.64062 353.1375 335.76562 353.21564Q335.89062 353.29376 336.125 353.29376Q336.3125 353.29376 336.59375 353.2625Z" fill-rule="nonzero"/><path fill="#000000" d="M29.800013 192.67291L26.565638 190.40729L23.581263 192.50104L23.581263 191.18854L25.034388 190.23541Q25.456263 189.96979 25.737513 189.79791Q25.346888 189.54791 25.050013 189.32916L23.581263 188.28229L23.581263 187.01666L26.503138 189.17291L29.800013 186.86041L29.800013 188.14166L27.862513 189.42291L27.346888 189.76666L29.800013 191.40729L29.800013 192.67291Z" fill-rule="nonzero"/><path fill="#000000" d="M51.3 317.96564Q51.3 316.4344 51.6125 315.5125Q51.925 314.575 52.534374 314.075Q53.159374 313.575 54.096874 313.575Q54.784374 313.575 55.3 313.85626Q55.83125 314.1375 56.175 314.66876Q56.51875 315.1844 56.70625 315.9344Q56.89375 316.6844 56.89375 317.96564Q56.89375 319.48126 56.58125 320.40314Q56.284374 321.325 55.659374 321.84064Q55.05 322.34064 54.096874 322.34064Q52.8625 322.34064 52.14375 321.45Q51.3 320.3875 51.3 317.96564ZM52.378124 317.96564Q52.378124 320.075 52.878124 320.77814Q53.378124 321.48126 54.096874 321.48126Q54.83125 321.48126 55.315624 320.77814Q55.815624 320.075 55.815624 317.96564Q55.815624 315.84064 55.315624 315.15314Q54.83125 314.45 54.08125 314.45Q53.3625 314.45 52.925 315.0594Q52.378124 315.84064 52.378124 317.96564ZM58.89375 322.2L58.89375 320.9969L60.096874 320.9969L60.096874 322.2L58.89375 322.2ZM61.3 317.96564Q61.3 316.4344 61.6125 315.5125Q61.925 314.575 62.534374 314.075Q63.159374 313.575 64.09688 313.575Q64.78438 313.575 65.3 313.85626Q65.83125 314.1375 66.175 314.66876Q66.51875 315.1844 66.70625 315.9344Q66.89375 316.6844 66.89375 317.96564Q66.89375 319.48126 66.58125 320.40314Q66.28438 321.325 65.65938 321.84064Q65.05 322.34064 64.09688 322.34064Q62.8625 322.34064 62.14375 321.45Q61.3 320.3875 61.3 317.96564ZM62.378124 317.96564Q62.378124 320.075 62.878124 320.77814Q63.378124 321.48126 64.09688 321.48126Q64.83125 321.48126 65.31563 320.77814Q65.81563 320.075 65.81563 317.96564Q65.81563 315.84064 65.31563 315.15314Q64.83125 314.45 64.08125 314.45Q63.3625 314.45 62.925 315.0594Q62.378124 315.84064 62.378124 317.96564ZM68.3 317.96564Q68.3 316.4344 68.6125 315.5125Q68.925 314.575 69.53438 314.075Q70.15938 313.575 71.09688 313.575Q71.78438 313.575 72.3 313.85626Q72.83125 314.1375 73.175 314.66876Q73.51875 315.1844 73.70625 315.9344Q73.89375 316.6844 73.89375 317.96564Q73.89375 319.48126 73.58125 320.40314Q73.28438 321.325 72.65938 321.84064Q72.05 322.34064 71.09688 322.34064Q69.8625 322.34064 69.14375 321.45Q68.3 320.3875 68.3 317.96564ZM69.37813 317.96564Q69.37813 320.075 69.87813 320.77814Q70.37813 321.48126 71.09688 321.48126Q71.83125 321.48126 72.31563 320.77814Q72.81563 320.075 72.81563 317.96564Q72.81563 315.84064 72.31563 315.15314Q71.83125 314.45 71.08125 314.45Q70.3625 314.45 69.925 315.0594Q69.37813 315.84064 69.37813 317.96564Z" fill-rule="nonzero"/><path fill="#000000" d="M51.3 253.99896Q51.3 252.46771 51.6125 251.54584Q51.925 250.60834 52.534374 250.10834Q53.159374 249.60834 54.096874 249.60834Q54.784374 249.60834 55.3 249.88959Q55.83125 250.17084 56.175 250.70209Q56.51875 251.21771 56.70625 251.96771Q56.89375 252.71771 56.89375 253.99896Q56.89375 255.51459 56.58125 256.43646Q56.284374 257.35834 55.659374 257.87396Q55.05 258.37396 54.096874 258.37396Q52.8625 258.37396 52.14375 257.48334Q51.3 256.42084 51.3 253.99896ZM52.378124 253.99896Q52.378124 256.10834 52.878124 256.81146Q53.378124 257.5146 54.096874 257.5146Q54.83125 257.5146 55.315624 256.81146Q55.815624 256.10834 55.815624 253.99896Q55.815624 251.87396 55.315624 251.18646Q54.83125 250.48334 54.08125 250.48334Q53.3625 250.48334 52.925 251.09271Q52.378124 251.87396 52.378124 253.99896ZM58.89375 258.23334L58.89375 257.0302L60.096874 257.0302L60.096874 258.23334L58.89375 258.23334ZM66.84688 257.2177L66.84688 258.23334L61.159374 258.23334Q61.159374 257.85834 61.284374 257.49896Q61.503124 256.92084 61.971874 256.35834Q62.45625 255.79584 63.3625 255.06146Q64.76875 253.90521 65.25313 253.23334Q65.75313 252.56146 65.75313 251.96771Q65.75313 251.34271 65.3 250.92084Q64.84688 250.48334 64.12813 250.48334Q63.3625 250.48334 62.909374 250.93646Q62.45625 251.38959 62.440624 252.20209L61.3625 252.09271Q61.471874 250.87396 62.190624 250.24896Q62.925 249.60834 64.15938 249.60834Q65.39375 249.60834 66.1125 250.29584Q66.83125 250.98334 66.83125 251.99896Q66.83125 252.51459 66.6125 253.01459Q66.40938 253.49896 65.90938 254.06146Q65.425 254.60834 64.3 255.56146Q63.346874 256.35834 63.065624 256.6552Q62.8 256.93646 62.628124 257.2177L66.84688 257.2177ZM68.3 255.98334L69.40938 255.88959Q69.53438 256.7021 69.97188 257.10834Q70.425 257.5146 71.06563 257.5146Q71.81563 257.5146 72.34688 256.93646Q72.87813 256.35834 72.87813 255.42084Q72.87813 254.51459 72.3625 253.99896Q71.8625 253.46771 71.03438 253.46771Q70.53438 253.46771 70.1125 253.70209Q69.70625 253.93646 69.47188 254.29584L68.4875 254.17084L69.31563 249.76459L73.59688 249.76459L73.59688 250.76459L70.15938 250.76459L69.70625 253.07709Q70.47188 252.53021 71.31563 252.53021Q72.44063 252.53021 73.20625 253.31146Q73.9875 254.09271 73.9875 255.32709Q73.9875 256.48334 73.31563 257.3427Q72.4875 258.37396 71.06563 258.37396Q69.89375 258.37396 69.14375 257.7177Q68.40938 257.06146 68.3 255.98334Z" fill-rule="nonzero"/><path fill="#000000" d="M51.3 190.03229Q51.3 188.50104 51.6125 187.57916Q51.925 186.64166 52.534374 186.14166Q53.159374 185.64166 54.096874 185.64166Q54.784374 185.64166 55.3 185.92291Q55.83125 186.20416 56.175 186.73541Q56.51875 187.25104 56.70625 188.00104Q56.89375 188.75104 56.89375 190.03229Q56.89375 191.54791 56.58125 192.46979Q56.284374 193.39166 55.659374 193.90729Q55.05 194.40729 54.096874 194.40729Q52.8625 194.40729 52.14375 193.51666Q51.3 192.45416 51.3 190.03229ZM52.378124 190.03229Q52.378124 192.14166 52.878124 192.84479Q53.378124 193.54791 54.096874 193.54791Q54.83125 193.54791 55.315624 192.84479Q55.815624 192.14166 55.815624 190.03229Q55.815624 187.90729 55.315624 187.21979Q54.83125 186.51666 54.08125 186.51666Q53.3625 186.51666 52.925 187.12604Q52.378124 187.90729 52.378124 190.03229ZM58.89375 194.26666L58.89375 193.06354L60.096874 193.06354L60.096874 194.26666L58.89375 194.26666ZM61.3 192.01666L62.409374 191.92291Q62.534374 192.73541 62.971874 193.14166Q63.425 193.54791 64.06563 193.54791Q64.81563 193.54791 65.34688 192.96979Q65.87813 192.39166 65.87813 191.45416Q65.87813 190.54791 65.3625 190.03229Q64.8625 189.50104 64.03438 189.50104Q63.534374 189.50104 63.1125 189.73541Q62.70625 189.96979 62.471874 190.32916L61.4875 190.20416L62.315624 185.79791L66.59688 185.79791L66.59688 186.79791L63.159374 186.79791L62.70625 189.11041Q63.471874 188.56354 64.31563 188.56354Q65.44063 188.56354 66.20625 189.34479Q66.9875 190.12604 66.9875 191.36041Q66.9875 192.51666 66.31563 193.37604Q65.4875 194.40729 64.06563 194.40729Q62.89375 194.40729 62.14375 193.75104Q61.409374 193.09479 61.3 192.01666ZM68.3 190.03229Q68.3 188.50104 68.6125 187.57916Q68.925 186.64166 69.53438 186.14166Q70.15938 185.64166 71.09688 185.64166Q71.78438 185.64166 72.3 185.92291Q72.83125 186.20416 73.175 186.73541Q73.51875 187.25104 73.70625 188.00104Q73.89375 188.75104 73.89375 190.03229Q73.89375 191.54791 73.58125 192.46979Q73.28438 193.39166 72.65938 193.90729Q72.05 194.40729 71.09688 194.40729Q69.8625 194.40729 69.14375 193.51666Q68.3 192.45416 68.3 190.03229ZM69.37813 190.03229Q69.37813 192.14166 69.87813 192.84479Q70.37813 193.54791 71.09688 193.54791Q71.83125 193.54791 72.31563 192.84479Q72.81563 192.14166 72.81563 190.03229Q72.81563 187.90729 72.31563 187.21979Q71.83125 186.51666 71.08125 186.51666Q70.3625 186.51666 69.925 187.12604Q69.37813 187.90729 69.37813 190.03229Z" fill-rule="nonzero"/><path fill="#000000" d="M51.3 126.06563Q51.3 124.53438 51.6125 123.6125Q51.925 122.675 52.534374 122.175Q53.159374 121.675 54.096874 121.675Q54.784374 121.675 55.3 121.95625Q55.83125 122.2375 56.175 122.76875Q56.51875 123.28438 56.70625 124.03438Q56.89375 124.78438 56.89375 126.06563Q56.89375 127.58125 56.58125 128.50313Q56.284374 129.425 55.659374 129.94063Q55.05 130.44063 54.096874 130.44063Q52.8625 130.44063 52.14375 129.55Q51.3 128.4875 51.3 126.06563ZM52.378124 126.06563Q52.378124 128.175 52.878124 128.87813Q53.378124 129.58125 54.096874 129.58125Q54.83125 129.58125 55.315624 128.87813Q55.815624 128.175 55.815624 126.06563Q55.815624 123.94063 55.315624 123.25313Q54.83125 122.55 54.08125 122.55Q53.3625 122.55 52.925 123.15938Q52.378124 123.94063 52.378124 126.06563ZM58.89375 130.3L58.89375 129.09688L60.096874 129.09688L60.096874 130.3L58.89375 130.3ZM61.3625 122.83125L61.3625 121.81563L66.925 121.81563L66.925 122.64375Q66.1125 123.51875 65.3 124.97188Q64.50313 126.40938 64.06563 127.94063Q63.7375 129.01875 63.659374 130.3L62.565624 130.3Q62.58125 129.28438 62.95625 127.84688Q63.346874 126.40938 64.05 125.08125Q64.76875 123.75313 65.58125 122.83125L61.3625 122.83125ZM68.3 128.05L69.40938 127.95625Q69.53438 128.76875 69.97188 129.175Q70.425 129.58125 71.06563 129.58125Q71.81563 129.58125 72.34688 129.00313Q72.87813 128.425 72.87813 127.4875Q72.87813 126.58125 72.3625 126.06563Q71.8625 125.53438 71.03438 125.53438Q70.53438 125.53438 70.1125 125.76875Q69.70625 126.00313 69.47188 126.3625L68.4875 126.2375L69.31563 121.83125L73.59688 121.83125L73.59688 122.83125L70.15938 122.83125L69.70625 125.14375Q70.47188 124.59688 71.31563 124.59688Q72.44063 124.59688 73.20625 125.37813Q73.9875 126.15938 73.9875 127.39375Q73.9875 128.55 73.31563 129.40938Q72.4875 130.44063 71.06563 130.44063Q69.89375 130.44063 69.14375 129.78438Q68.40938 129.12813 68.3 128.05Z" fill-rule="nonzero"/><path fill="#000000" d="M55.26875 66.333336L54.221874 66.333336L54.221874 59.614586Q53.83125 59.97396 53.20625 60.34896Q52.596874 60.708336 52.1125 60.88021L52.1125 59.864586Q52.9875 59.44271 53.64375 58.864586Q54.315624 58.270836 54.596874 57.708336L55.26875 57.708336L55.26875 66.333336ZM58.89375 66.333336L58.89375 65.13021L60.096874 65.13021L60.096874 66.333336L58.89375 66.333336ZM61.3 62.09896Q61.3 60.56771 61.6125 59.645836Q61.925 58.708336 62.534374 58.208336Q63.159374 57.708336 64.09688 57.708336Q64.78438 57.708336 65.3 57.989586Q65.83125 58.270836 66.175 58.802086Q66.51875 59.31771 66.70625 60.06771Q66.89375 60.81771 66.89375 62.09896Q66.89375 63.614586 66.58125 64.53646Q66.28438 65.458336 65.65938 65.97396Q65.05 66.47396 64.09688 66.47396Q62.8625 66.47396 62.14375 65.583336Q61.3 64.520836 61.3 62.09896ZM62.378124 62.09896Q62.378124 64.208336 62.878124 64.91146Q63.378124 65.614586 64.09688 65.614586Q64.83125 65.614586 65.31563 64.91146Q65.81563 64.208336 65.81563 62.09896Q65.81563 59.97396 65.31563 59.28646Q64.83125 58.583336 64.08125 58.583336Q63.3625 58.583336 62.925 59.19271Q62.378124 59.97396 62.378124 62.09896ZM68.3 62.09896Q68.3 60.56771 68.6125 59.645836Q68.925 58.708336 69.53438 58.208336Q70.15938 57.708336 71.09688 57.708336Q71.78438 57.708336 72.3 57.989586Q72.83125 58.270836 73.175 58.802086Q73.51875 59.31771 73.70625 60.06771Q73.89375 60.81771 73.89375 62.09896Q73.89375 63.614586 73.58125 64.53646Q73.28438 65.458336 72.65938 65.97396Q72.05 66.47396 71.09688 66.47396Q69.8625 66.47396 69.14375 65.583336Q68.3 64.520836 68.3 62.09896ZM69.37813 62.09896Q69.37813 64.208336 69.87813 64.91146Q70.37813 65.614586 71.09688 65.614586Q71.83125 65.614586 72.31563 64.91146Q72.81563 64.208336 72.81563 62.09896Q72.81563 59.97396 72.31563 59.28646Q71.83125 58.583336 71.08125 58.583336Q70.3625 58.583336 69.925 59.19271Q69.37813 59.97396 69.37813 62.09896Z" fill-rule="nonzero"/><path fill="#757575" d="M20.378124 37.8L20.378124 23.4875L30.7375 23.4875L30.7375 25.175L22.284374 25.175L22.284374 29.55L30.190624 29.55L30.190624 31.2375L22.284374 31.2375L22.284374 36.1125L31.065624 36.1125L31.065624 37.8L20.378124 37.8ZM39.89375 36.51875Q38.909374 37.346874 38.003124 37.690624Q37.096874 38.034374 36.065624 38.034374Q34.3625 38.034374 33.440624 37.20625Q32.51875 36.3625 32.51875 35.065624Q32.51875 34.3 32.8625 33.675Q33.221874 33.05 33.784374 32.675Q34.346874 32.284374 35.05 32.08125Q35.565624 31.95625 36.6125 31.815624Q38.7375 31.565624 39.7375 31.221874Q39.753124 30.8625 39.753124 30.753124Q39.753124 29.690624 39.253124 29.2375Q38.58125 28.64375 37.253124 28.64375Q36.003124 28.64375 35.409374 29.08125Q34.83125 29.51875 34.55 30.628124L32.83125 30.39375Q33.065624 29.284374 33.596874 28.6125Q34.128124 27.925 35.14375 27.565624Q36.159374 27.190624 37.503124 27.190624Q38.83125 27.190624 39.659374 27.503124Q40.4875 27.815624 40.878124 28.3Q41.26875 28.76875 41.425 29.4875Q41.51875 29.940624 41.51875 31.1125L41.51875 33.45625Q41.51875 35.909374 41.628124 36.565624Q41.7375 37.20625 42.08125 37.8L40.2375 37.8Q39.971874 37.253124 39.89375 36.51875ZM39.7375 32.596874Q38.784374 32.9875 36.8625 33.253124Q35.784374 33.409374 35.33125 33.6125Q34.89375 33.8 34.64375 34.175Q34.39375 34.55 34.39375 35.01875Q34.39375 35.721874 34.925 36.190624Q35.45625 36.659374 36.4875 36.659374Q37.503124 36.659374 38.284374 36.221874Q39.08125 35.76875 39.45625 35.003124Q39.7375 34.39375 39.7375 33.2375L39.7375 32.596874ZM43.409374 34.70625L45.159374 34.425Q45.3 35.471874 45.971874 36.034374Q46.64375 36.58125 47.846874 36.58125Q49.05 36.58125 49.628124 36.096874Q50.221874 35.596874 50.221874 34.940624Q50.221874 34.346874 49.70625 34.003124Q49.346874 33.76875 47.909374 33.409374Q45.971874 32.909374 45.221874 32.565624Q44.4875 32.20625 44.096874 31.58125Q43.70625 30.940624 43.70625 30.175Q43.70625 29.4875 44.01875 28.89375Q44.346874 28.3 44.89375 27.909374Q45.3 27.6125 46.003124 27.409374Q46.721874 27.190624 47.534374 27.190624Q48.753124 27.190624 49.675 27.55Q50.596874 27.89375 51.034374 28.503124Q51.471874 29.096874 51.64375 30.096874L49.925 30.33125Q49.8 29.534374 49.2375 29.096874Q48.675 28.64375 47.659374 28.64375Q46.440624 28.64375 45.925 29.05Q45.409374 29.440624 45.409374 29.971874Q45.409374 30.315624 45.628124 30.596874Q45.83125 30.878124 46.3 31.065624Q46.565624 31.159374 47.846874 31.503124Q49.721874 32.003124 50.45625 32.33125Q51.190624 32.64375 51.6125 33.253124Q52.034374 33.846874 52.034374 34.753124Q52.034374 35.628124 51.51875 36.409374Q51.003124 37.190624 50.034374 37.6125Q49.065624 38.034374 47.846874 38.034374Q45.83125 38.034374 44.76875 37.190624Q43.70625 36.346874 43.409374 34.70625ZM61.221874 34.45625L63.034374 34.690624Q62.6125 36.26875 61.440624 37.159374Q60.284374 38.034374 58.471874 38.034374Q56.20625 38.034374 54.8625 36.64375Q53.534374 35.2375 53.534374 32.70625Q53.534374 30.08125 54.878124 28.64375Q56.221874 27.190624 58.378124 27.190624Q60.45625 27.190624 61.76875 28.6125Q63.096874 30.01875 63.096874 32.596874Q63.096874 32.753124 63.08125 33.065624L55.346874 33.065624Q55.440624 34.76875 56.315624 35.675Q57.190624 36.58125 58.4875 36.58125Q59.45625 36.58125 60.128124 36.08125Q60.815624 35.565624 61.221874 34.45625ZM55.440624 31.6125L61.2375 31.6125Q61.128124 30.315624 60.58125 29.659374Q59.7375 28.64375 58.39375 28.64375Q57.190624 28.64375 56.3625 29.45625Q55.534374 30.253124 55.440624 31.6125ZM64.76875 30.83125Q64.76875 27.26875 66.675 25.253124Q68.59688 23.221874 71.62813 23.221874Q73.6125 23.221874 75.19063 24.175Q76.78438 25.128124 77.6125 26.83125Q78.45625 28.51875 78.45625 30.659374Q78.45625 32.83125 77.58125 34.55Q76.70625 36.26875 75.08125 37.159374Q73.47188 38.05 71.6125 38.05Q69.59688 38.05 68.00313 37.08125Q66.40938 36.096874 65.58125 34.409374Q64.76875 32.70625 64.76875 30.83125ZM66.72188 30.8625Q66.72188 33.440624 68.1125 34.940624Q69.50313 36.425 71.59688 36.425Q73.7375 36.425 75.1125 34.925Q76.50313 33.409374 76.50313 30.64375Q76.50313 28.909374 75.90938 27.6125Q75.33125 26.3 74.19063 25.58125Q73.05 24.8625 71.62813 24.8625Q69.62813 24.8625 68.175 26.253124Q66.72188 27.628124 66.72188 30.8625ZM87.90938 37.8L87.90938 36.26875Q86.70625 38.034374 84.62813 38.034374Q83.70625 38.034374 82.90938 37.690624Q82.1125 37.33125 81.72188 36.8Q81.34688 36.26875 81.19063 35.4875Q81.08125 34.971874 81.08125 33.846874L81.08125 27.425L82.83125 27.425L82.83125 33.175Q82.83125 34.55 82.94063 35.034374Q83.1125 35.721874 83.64375 36.128124Q84.19063 36.51875 84.97188 36.51875Q85.76875 36.51875 86.45625 36.1125Q87.15938 35.70625 87.44063 35.01875Q87.7375 34.315624 87.7375 32.9875L87.7375 27.425L89.4875 27.425L89.4875 37.8L87.90938 37.8ZM94.95625 36.221874L95.20625 37.784374Q94.47188 37.940624 93.87813 37.940624Q92.925 37.940624 92.39375 37.64375Q91.87813 37.33125 91.65938 36.846874Q91.44063 36.346874 91.44063 34.76875L91.44063 28.8L90.15938 28.8L90.15938 27.425L91.44063 27.425L91.44063 24.8625L93.19063 23.8L93.19063 27.425L94.95625 27.425L94.95625 28.8L93.19063 28.8L93.19063 34.8625Q93.19063 35.6125 93.28438 35.83125Q93.37813 36.034374 93.58125 36.175Q93.8 36.3 94.19063 36.3Q94.47188 36.3 94.95625 36.221874ZM97.37813 37.8L97.37813 23.4875L107.7375 23.4875L107.7375 25.175L99.28438 25.175L99.28438 29.55L107.19063 29.55L107.19063 31.2375L99.28438 31.2375L99.28438 36.1125L108.06563 36.1125L108.06563 37.8L97.37813 37.8ZM108.94063 37.8L112.7375 32.409374L109.2375 27.425L111.425 27.425L113.01875 29.8625Q113.47188 30.55 113.7375 31.01875Q114.175 30.378124 114.53438 29.878124L116.28438 27.425L118.37813 27.425L114.8 32.315624L118.65938 37.8L116.50313 37.8L114.3625 34.58125L113.8 33.70625L111.08125 37.8L108.94063 37.8ZM119.1125 41.76875L119.1125 27.425L120.72188 27.425L120.72188 28.76875Q121.28438 27.9875 121.9875 27.596874Q122.70625 27.190624 123.72188 27.190624Q125.05 27.190624 126.06563 27.878124Q127.08125 28.565624 127.59688 29.815624Q128.12813 31.05 128.12813 32.534374Q128.12813 34.128124 127.55 35.409374Q126.9875 36.675 125.89375 37.3625Q124.8 38.034374 123.59688 38.034374Q122.72188 38.034374 122.01875 37.659374Q121.33125 37.284374 120.87813 36.721874L120.87813 41.76875L119.1125 41.76875ZM120.70625 32.675Q120.70625 34.675 121.51875 35.628124Q122.33125 36.58125 123.4875 36.58125Q124.65938 36.58125 125.4875 35.596874Q126.33125 34.6125 126.33125 32.51875Q126.33125 30.55 125.50313 29.565624Q124.69063 28.565624 123.56563 28.565624Q122.44063 28.565624 121.56563 29.628124Q120.70625 30.675 120.70625 32.675ZM129.47188 32.6125Q129.47188 29.7375 131.06563 28.346874Q132.40938 27.190624 134.33125 27.190624Q136.47188 27.190624 137.81563 28.596874Q139.175 30.003124 139.175 32.471874Q139.175 34.471874 138.58125 35.628124Q137.9875 36.76875 136.83125 37.409374Q135.69063 38.034374 134.33125 38.034374Q132.14375 38.034374 130.8 36.64375Q129.47188 35.2375 129.47188 32.6125ZM131.26875 32.6125Q131.26875 34.6125 132.12813 35.596874Q133.00313 36.58125 134.33125 36.58125Q135.64375 36.58125 136.50313 35.596874Q137.37813 34.596874 137.37813 32.55Q137.37813 30.628124 136.50313 29.64375Q135.62813 28.64375 134.33125 28.64375Q133.00313 28.64375 132.12813 29.64375Q131.26875 30.628124 131.26875 32.6125ZM141.1125 37.8L141.1125 27.425L142.70625 27.425L142.70625 28.909374Q143.84688 27.190624 146.00313 27.190624Q146.94063 27.190624 147.72188 27.534374Q148.51875 27.8625 148.90938 28.409374Q149.3 28.95625 149.45625 29.70625Q149.55 30.20625 149.55 31.425L149.55 37.8L147.78438 37.8L147.78438 31.4875Q147.78438 30.409374 147.58125 29.878124Q147.37813 29.346874 146.84688 29.034374Q146.33125 28.721874 145.62813 28.721874Q144.50313 28.721874 143.69063 29.440624Q142.87813 30.14375 142.87813 32.128124L142.87813 37.8L141.1125 37.8ZM158.22188 34.45625L160.03438 34.690624Q159.6125 36.26875 158.44063 37.159374Q157.28438 38.034374 155.47188 38.034374Q153.20625 38.034374 151.8625 36.64375Q150.53438 35.2375 150.53438 32.70625Q150.53438 30.08125 151.87813 28.64375Q153.22188 27.190624 155.37813 27.190624Q157.45625 27.190624 158.76875 28.6125Q160.09688 30.01875 160.09688 32.596874Q160.09688 32.753124 160.08125 33.065624L152.34688 33.065624Q152.44063 34.76875 153.31563 35.675Q154.19063 36.58125 155.4875 36.58125Q156.45625 36.58125 157.12813 36.08125Q157.81563 35.565624 158.22188 34.45625ZM152.44063 31.6125L158.2375 31.6125Q158.12813 30.315624 157.58125 29.659374Q156.7375 28.64375 155.39375 28.64375Q154.19063 28.64375 153.3625 29.45625Q152.53438 30.253124 152.44063 31.6125ZM162.1125 37.8L162.1125 27.425L163.70625 27.425L163.70625 28.909374Q164.84688 27.190624 167.00313 27.190624Q167.94063 27.190624 168.72188 27.534374Q169.51875 27.8625 169.90938 28.409374Q170.3 28.95625 170.45625 29.70625Q170.55 30.20625 170.55 31.425L170.55 37.8L168.78438 37.8L168.78438 31.4875Q168.78438 30.409374 168.58125 29.878124Q168.37813 29.346874 167.84688 29.034374Q167.33125 28.721874 166.62813 28.721874Q165.50313 28.721874 164.69063 29.440624Q163.87813 30.14375 163.87813 32.128124L163.87813 37.8L162.1125 37.8ZM175.95625 36.221874L176.20625 37.784374Q175.47188 37.940624 174.87813 37.940624Q173.925 37.940624 173.39375 37.64375Q172.87813 37.33125 172.65938 36.846874Q172.44063 36.346874 172.44063 34.76875L172.44063 28.8L171.15938 28.8L171.15938 27.425L172.44063 27.425L172.44063 24.8625L174.19063 23.8L174.19063 27.425L175.95625 27.425L175.95625 28.8L174.19063 28.8L174.19063 34.8625Q174.19063 35.6125 174.28438 35.83125Q174.37813 36.034374 174.58125 36.175Q174.8 36.3 175.19063 36.3Q175.47188 36.3 175.95625 36.221874ZM178.12813 25.503124L178.12813 23.4875L179.89375 23.4875L179.89375 25.503124L178.12813 25.503124ZM178.12813 37.8L178.12813 27.425L179.89375 27.425L179.89375 37.8L178.12813 37.8ZM188.89375 36.51875Q187.90938 37.346874 187.00313 37.690624Q186.09688 38.034374 185.06563 38.034374Q183.3625 38.034374 182.44063 37.20625Q181.51875 36.3625 181.51875 35.065624Q181.51875 34.3 181.8625 33.675Q182.22188 33.05 182.78438 32.675Q183.34688 32.284374 184.05 32.08125Q184.56563 31.95625 185.6125 31.815624Q187.7375 31.565624 188.7375 31.221874Q188.75313 30.8625 188.75313 30.753124Q188.75313 29.690624 188.25313 29.2375Q187.58125 28.64375 186.25313 28.64375Q185.00313 28.64375 184.40938 29.08125Q183.83125 29.51875 183.55 30.628124L181.83125 30.39375Q182.06563 29.284374 182.59688 28.6125Q183.12813 27.925 184.14375 27.565624Q185.15938 27.190624 186.50313 27.190624Q187.83125 27.190624 188.65938 27.503124Q189.4875 27.815624 189.87813 28.3Q190.26875 28.76875 190.425 29.4875Q190.51875 29.940624 190.51875 31.1125L190.51875 33.45625Q190.51875 35.909374 190.62813 36.565624Q190.7375 37.20625 191.08125 37.8L189.2375 37.8Q188.97188 37.253124 188.89375 36.51875ZM188.7375 32.596874Q187.78438 32.9875 185.8625 33.253124Q184.78438 33.409374 184.33125 33.6125Q183.89375 33.8 183.64375 34.175Q183.39375 34.55 183.39375 35.01875Q183.39375 35.721874 183.925 36.190624Q184.45625 36.659374 185.4875 36.659374Q186.50313 36.659374 187.28438 36.221874Q188.08125 35.76875 188.45625 35.003124Q188.7375 34.39375 188.7375 33.2375L188.7375 32.596874ZM193.08125 37.8L193.08125 23.4875L194.83125 23.4875L194.83125 37.8L193.08125 37.8Z" fill-rule="nonzero"/></svg>