<svg version="1.1" viewBox="0.0 0.0 608.0 376.0" fill="none" stroke="none" stroke-linecap="square" stroke-miterlimit="10" width="608" height="376" xmlns:xlink="http://www.w3.org/1999/xlink" xmlns="http://www.w3.org/2000/svg"><path fill="#ffffff" d="M0 0L608.0 0L608.0 376.0L0 376.0L0 0Z" fill-rule="nonzero"/><path stroke="#333333" stroke-width="1.0" stroke-linecap="butt" d="M80.5 318.5L589.5 318.5" fill-rule="nonzero"/><path stroke="#cccccc" stroke-width="1.0" stroke-linecap="butt" d="M80.5 254.5L589.5 254.5" fill-rule="nonzero"/><path stroke="#cccccc" stroke-width="1.0" stroke-linecap="butt" d="M80.5 190.5L589.5 190.5" fill-rule="nonzero"/><path stroke="#cccccc" stroke-width="1.0" stroke-linecap="butt" d="M80.5 126.5L589.5 126.5" fill-rule="nonzero"/><path stroke="#cccccc" stroke-width="1.0" stroke-linecap="butt" d="M80.5 62.5L589.5 62.5" fill-rule="nonzero"/><path stroke="#000000" stroke-width="1.0" stroke-linecap="butt" d="M80.5 318.5L80.5 62.5" fill-rule="nonzero"/><clipPath id="id_0"><path d="M80.8 62.333332L589.2 62.333332L589.2 318.2L80.8 318.2L80.8 62.333332Z" clip-rule="nonzero"/></clipPath><path stroke="#4285f4" stroke-width="2.0" stroke-linecap="butt" clip-path="url(#id_0)" d="M83.31683 318.2C83.31683 318.2 86.67261 318.19147 88.350494 318.1744C90.02838 318.15735 91.70627 318.13177 93.384155 318.09763C95.06205 318.06348 96.73994 318.02078 98.41782 317.9695C100.09571 317.91824 101.7736 317.85843 103.451485 317.78995C105.12937 317.7215 106.80726 317.64447 108.485146 317.55872C110.16303 317.473 111.84093 317.37866 113.518814 317.27554C115.1967 317.17242 116.87459 317.06067 118.552475 316.94006C120.23036 316.81943 121.90825 316.6901 123.586136 316.55185C125.26402 316.41357 126.94192 316.2665 128.6198 316.1104C130.29768 315.9543 131.97557 315.78937 133.65347 315.61523C135.33136 315.4411 137.00925 315.258 138.68713 315.0656C140.36502 314.87323 142.04291 314.67178 143.7208 314.46088C145.39868 314.24997 147.07657 314.0299 148.75446 313.8002C150.43234 313.5705 152.11023 313.33148 153.78812 313.08267C155.466 312.83386 157.14389 312.57556 158.82178 312.30728C160.49966 312.039 162.17755 311.7611 163.85544 311.47296C165.53334 311.1848 167.21123 310.88687 168.88911 310.57843C170.567 310.27 172.24489 309.95157 173.92278 309.62238C175.60066 309.29318 177.27855 308.95374 178.95644 308.60327C180.63432 308.2528 182.31221 307.89185 183.9901 307.5195C185.66798 307.14716 187.34587 306.76407 189.02376 306.36926C190.70164 305.97443 192.37953 305.56854 194.05742 305.1505C195.73532 304.73248 197.41321 304.3031 199.0911 303.86108C200.76898 303.4191 202.44687 302.96536 204.12476 302.49854C205.80264 302.03174 207.48053 301.55276 209.15842 301.06018C210.8363 300.5676 212.51419 300.0624 214.19208 299.543C215.86996 299.0236 217.54785 298.4911 219.22574 297.94366C220.90363 297.39627 222.58151 296.83524 224.2594 296.25848C225.93729 295.68176 227.61519 295.0908 229.29308 294.48328C230.97096 293.87573 232.64885 293.25333 234.32674 292.61334C236.00462 291.97336 237.68251 291.31772 239.3604 290.6434C241.03828 289.9691 242.71617 289.27823 244.39406 288.56744C246.07195 287.85663 247.74983 287.12833 249.42772 286.37857C251.1056 285.62885 252.7835 284.86047 254.46138 284.06894C256.13928 283.2774 257.81717 282.46597 259.49506 281.62933C261.17294 280.7927 262.85083 279.93472 264.52872 279.04907C266.2066 278.16345 267.8845 277.25476 269.56238 276.3155C271.24026 275.37625 272.91815 274.41196 274.59604 273.41348C276.27393 272.41504 277.9518 271.3892 279.6297 270.32474C281.3076 269.26025 282.98547 268.16562 284.66336 267.02667C286.34125 265.88773 288.01913 264.71524 289.69702 263.49103C291.3749 262.26685 293.0528 261.005 294.73068 259.68155C296.40857 258.3581 298.08646 256.99194 299.76434 255.55028C301.44223 254.10863 303.12012 252.61809 304.79803 251.03163C306.47592 249.44518 308.1538 247.80244 309.8317 246.03151C311.50958 244.26059 313.18747 242.42563 314.86536 240.40608C316.54324 238.38655 318.22113 236.3006 319.89902 233.91425C321.5769 231.52791 323.2548 229.11952 324.93268 226.088C326.61057 223.05647 328.28845 221.6953 329.96634 215.72508C331.64423 209.75485 333.3221 198.7528 335.0 190.26666C336.6779 181.78053 338.35577 170.77847 340.03366 164.80826C341.71155 158.83803 343.38943 157.47687 345.06732 154.44533C346.7452 151.4138 348.4231 149.00543 350.10098 146.61908C351.77887 144.23274 353.45676 142.14679 355.13464 140.12724C356.81253 138.1077 358.49042 136.27275 360.1683 134.50182C361.8462 132.7309 363.52408 131.08817 365.20197 129.5017C366.87988 127.91524 368.55777 126.424706 370.23566 124.98305C371.91354 123.5414 373.59143 122.17524 375.26932 120.85178C376.9472 119.52832 378.6251 118.26648 380.30298 117.0423C381.98087 115.81811 383.65875 114.645615 385.33664 113.50667C387.01453 112.36772 388.6924 111.27308 390.3703 110.20861C392.0482 109.144135 393.72607 108.1183 395.40396 107.11984C397.08185 106.121376 398.75974 105.15709 400.43762 104.21783C402.1155 103.278564 403.7934 102.36989 405.47128 101.48425C407.14917 100.59861 408.82706 99.74063 410.50494 98.90399C412.18283 98.06735 413.86072 97.255936 415.5386 96.46439C417.2165 95.67286 418.89438 94.9045 420.57227 94.154755C422.25015 93.40501 423.92804 92.676704 425.60593 91.965904C427.2838 91.255104 428.96173 90.56426 430.63962 89.88994C432.3175 89.21562 433.9954 88.55998 435.67328 87.92C437.35117 87.28002 439.02905 86.65759 440.70694 86.050064C442.38483 85.44254 444.0627 84.85158 445.7406 84.27485C447.4185 83.69811 449.09637 83.13708 450.77426 82.58965C452.45215 82.04224 454.13004 81.50975 455.80792 80.99033C457.4858 80.47091 459.1637 79.965744 460.84158 79.47315C462.51947 78.98056 464.19736 78.5016 465.87524 78.03478C467.55313 77.56796 469.23102 77.114235 470.9089 76.67224C472.5868 76.23025 474.26468 75.80084 475.94257 75.38282C477.62045 74.96479 479.29834 74.558914 480.97623 74.164085C482.6541 73.76925 484.332 73.38617 486.0099 73.01383C487.68777 72.641495 489.36566 72.28054 491.04358 71.93006C492.72147 71.57958 494.39935 71.24016 496.07724 70.910965C497.75513 70.58178 499.433 70.263336 501.1109 69.9549C502.7888 69.64648 504.46667 69.348526 506.14456 69.06038C507.82245 68.77224 509.50034 68.49433 511.17822 68.22604C512.8561 67.957756 514.534 67.699486 516.21185 67.45067C517.8898 67.20185 519.5676 66.96284 521.24554 66.73314C522.92346 66.50343 524.6013 66.283356 526.27924 66.07246C527.9571 65.86155 529.635 65.66011 531.31287 65.46772C532.9908 65.27533 534.66864 65.09225 536.34656 64.91811C538.0244 64.74398 539.70233 64.57902 541.3802 64.42292C543.0581 64.266815 544.73596 64.11977 546.4139 63.981495C548.09174 63.843224 549.76965 63.7139 551.4475 63.593285C553.1254 63.472668 554.8033 63.360905 556.4812 63.257793C558.15906 63.154682 559.837 63.060345 561.51483 62.974606C563.19275 62.88887 564.8706 62.81184 566.5485 62.743378C568.2264 62.67491 569.9043 62.615097 571.58215 62.56382C573.2601 62.512547 574.9379 62.46987 576.61584 62.435722C578.2937 62.40157 579.9716 62.375988 581.6495 62.35892C583.3274 62.341858 586.68317 62.333332 586.68317 62.333332" fill-rule="nonzero"/><path fill="#000000" fill-opacity="0.0" clip-path="url(#id_0)" d="M86.31683 318.2C86.31683 319.85684 84.97369 321.2 83.31683 321.2C81.65998 321.2 80.31683 319.85684 80.31683 318.2C80.31683 316.54315 81.65998 315.2 83.31683 315.2C84.97369 315.2 86.31683 316.54315 86.31683 318.2Z" fill-rule="nonzero"/><path fill="#000000" fill-opacity="0.0" clip-path="url(#id_0)" d="M91.350494 318.1744C91.350494 319.83127 90.00735 321.1744 88.350494 321.1744C86.69364 321.1744 85.350494 319.83127 85.350494 318.1744C85.350494 316.51755 86.69364 315.1744 88.350494 315.1744C90.00735 315.1744 91.350494 316.51755 91.350494 318.1744Z" fill-rule="nonzero"/><path fill="#000000" fill-opacity="0.0" clip-path="url(#id_0)" d="M96.384155 318.09763C96.384155 319.75446 95.041016 321.09763 93.384155 321.09763C91.7273 321.09763 90.384155 319.75446 90.384155 318.09763C90.384155 316.44077 91.7273 315.09763 93.384155 315.09763C95.041016 315.09763 96.384155 316.44077 96.384155 318.09763Z" fill-rule="nonzero"/><path fill="#000000" fill-opacity="0.0" clip-path="url(#id_0)" d="M101.41782 317.9695C101.41782 319.62637 100.07468 320.9695 98.41782 320.9695C96.76097 320.9695 95.41782 319.62637 95.41782 317.9695C95.41782 316.31265 96.76097 314.9695 98.41782 314.9695C100.07468 314.9695 101.41782 316.31265 101.41782 317.9695Z" fill-rule="nonzero"/><path fill="#000000" fill-opacity="0.0" clip-path="url(#id_0)" d="M106.451485 317.78995C106.451485 319.4468 105.10834 320.78995 103.451485 320.78995C101.79463 320.78995 100.451485 319.4468 100.451485 317.78995C100.451485 316.1331 101.79463 314.78995 103.451485 314.78995C105.10834 314.78995 106.451485 316.1331 106.451485 317.78995Z" fill-rule="nonzero"/><path fill="#000000" fill-opacity="0.0" clip-path="url(#id_0)" d="M111.485146 317.55872C111.485146 319.21558 110.142006 320.55872 108.485146 320.55872C106.82829 320.55872 105.485146 319.21558 105.485146 317.55872C105.485146 315.9019 106.82829 314.55872 108.485146 314.55872C110.142006 314.55872 111.485146 315.9019 111.485146 317.55872Z" fill-rule="nonzero"/><path fill="#000000" fill-opacity="0.0" clip-path="url(#id_0)" d="M116.518814 317.27554C116.518814 318.9324 115.17567 320.27554 113.518814 320.27554C111.86196 320.27554 110.518814 318.9324 110.518814 317.27554C110.518814 315.61868 111.86196 314.27554 113.518814 314.27554C115.17567 314.27554 116.518814 315.61868 116.518814 317.27554Z" fill-rule="nonzero"/><path fill="#000000" fill-opacity="0.0" clip-path="url(#id_0)" d="M121.552475 316.94006C121.552475 318.5969 120.20933 319.94006 118.552475 319.94006C116.89562 319.94006 115.552475 318.5969 115.552475 316.94006C115.552475 315.2832 116.89562 313.94006 118.552475 313.94006C120.20933 313.94006 121.552475 315.2832 121.552475 316.94006Z" fill-rule="nonzero"/><path fill="#000000" fill-opacity="0.0" clip-path="url(#id_0)" d="M126.586136 316.55185C126.586136 318.20868 125.243 319.55185 123.586136 319.55185C121.92928 319.55185 120.586136 318.20868 120.586136 316.55185C120.586136 314.895 121.92928 313.55185 123.586136 313.55185C125.243 313.55185 126.586136 314.895 126.586136 316.55185Z" fill-rule="nonzero"/><path fill="#000000" fill-opacity="0.0" clip-path="url(#id_0)" d="M131.6198 316.1104C131.6198 317.76727 130.27666 319.1104 128.6198 319.1104C126.962944 319.1104 125.619804 317.76727 125.619804 316.1104C125.619804 314.45355 126.962944 313.1104 128.6198 313.1104C130.27666 313.1104 131.6198 314.45355 131.6198 316.1104Z" fill-rule="nonzero"/><path fill="#000000" fill-opacity="0.0" clip-path="url(#id_0)" d="M136.65347 315.61523C136.65347 317.27206 135.31032 318.61523 133.65347 318.61523C131.99661 318.61523 130.65347 317.27206 130.65347 315.61523C130.65347 313.95837 131.99661 312.61523 133.65347 312.61523C135.31032 312.61523 136.65347 313.95837 136.65347 315.61523Z" fill-rule="nonzero"/><path fill="#000000" fill-opacity="0.0" clip-path="url(#id_0)" d="M141.68713 315.0656C141.68713 316.72247 140.34398 318.0656 138.68713 318.0656C137.03027 318.0656 135.68713 316.72247 135.68713 315.0656C135.68713 313.40875 137.03027 312.0656 138.68713 312.0656C140.34398 312.0656 141.68713 313.40875 141.68713 315.0656Z" fill-rule="nonzero"/><path fill="#000000" fill-opacity="0.0" clip-path="url(#id_0)" d="M146.7208 314.46088C146.7208 316.11774 145.37764 317.46088 143.7208 317.46088C142.06393 317.46088 140.7208 316.11774 140.7208 314.46088C140.7208 312.80402 142.06393 311.46088 143.7208 311.46088C145.37764 311.46088 146.7208 312.80402 146.7208 314.46088Z" fill-rule="nonzero"/><path fill="#000000" fill-opacity="0.0" clip-path="url(#id_0)" d="M151.75446 313.8002C151.75446 315.45706 150.41132 316.8002 148.75446 316.8002C147.0976 316.8002 145.75446 315.45706 145.75446 313.8002C145.75446 312.14334 147.0976 310.8002 148.75446 310.8002C150.41132 310.8002 151.75446 312.14334 151.75446 313.8002Z" fill-rule="nonzero"/><path fill="#000000" fill-opacity="0.0" clip-path="url(#id_0)" d="M156.78812 313.08267C156.78812 314.73953 155.44498 316.08267 153.78812 316.08267C152.13127 316.08267 150.78812 314.73953 150.78812 313.08267C150.78812 311.4258 152.13127 310.08267 153.78812 310.08267C155.44498 310.08267 156.78812 311.4258 156.78812 313.08267Z" fill-rule="nonzero"/><path fill="#000000" fill-opacity="0.0" clip-path="url(#id_0)" d="M161.82178 312.30728C161.82178 313.96414 160.47864 315.30728 158.82178 315.30728C157.16493 315.30728 155.82178 313.96414 155.82178 312.30728C155.82178 310.65042 157.16493 309.30728 158.82178 309.30728C160.47864 309.30728 161.82178 310.65042 161.82178 312.30728Z" fill-rule="nonzero"/><path fill="#000000" fill-opacity="0.0" clip-path="url(#id_0)" d="M166.85544 311.47296C166.85544 313.1298 165.5123 314.47296 163.85544 314.47296C162.1986 314.47296 160.85544 313.1298 160.85544 311.47296C160.85544 309.8161 162.1986 308.47296 163.85544 308.47296C165.5123 308.47296 166.85544 309.8161 166.85544 311.47296Z" fill-rule="nonzero"/><path fill="#000000" fill-opacity="0.0" clip-path="url(#id_0)" d="M171.88911 310.57843C171.88911 312.2353 170.54596 313.57843 168.88911 313.57843C167.23225 313.57843 165.88911 312.2353 165.88911 310.57843C165.88911 308.92157 167.23225 307.57843 168.88911 307.57843C170.54596 307.57843 171.88911 308.92157 171.88911 310.57843Z" fill-rule="nonzero"/><path fill="#000000" fill-opacity="0.0" clip-path="url(#id_0)" d="M176.92278 309.62238C176.92278 311.2792 175.57962 312.62238 173.92278 312.62238C172.26591 312.62238 170.92278 311.2792 170.92278 309.62238C170.92278 307.9655 172.26591 306.62238 173.92278 306.62238C175.57962 306.62238 176.92278 307.9655 176.92278 309.62238Z" fill-rule="nonzero"/><path fill="#000000" fill-opacity="0.0" clip-path="url(#id_0)" d="M181.95644 308.60327C181.95644 310.26013 180.6133 311.60327 178.95644 311.60327C177.29958 311.60327 175.95644 310.26013 175.95644 308.60327C175.95644 306.9464 177.29958 305.60327 178.95644 305.60327C180.6133 305.60327 181.95644 306.9464 181.95644 308.60327Z" fill-rule="nonzero"/><path fill="#000000" fill-opacity="0.0" clip-path="url(#id_0)" d="M186.9901 307.5195C186.9901 309.17636 185.64696 310.5195 183.9901 310.5195C182.33325 310.5195 180.9901 309.17636 180.9901 307.5195C180.9901 305.86264 182.33325 304.5195 183.9901 304.5195C185.64696 304.5195 186.9901 305.86264 186.9901 307.5195Z" fill-rule="nonzero"/><path fill="#000000" fill-opacity="0.0" clip-path="url(#id_0)" d="M192.02376 306.36926C192.02376 308.0261 190.68062 309.36926 189.02376 309.36926C187.36691 309.36926 186.02376 308.0261 186.02376 306.36926C186.02376 304.7124 187.36691 303.36926 189.02376 303.36926C190.68062 303.36926 192.02376 304.7124 192.02376 306.36926Z" fill-rule="nonzero"/><path fill="#000000" fill-opacity="0.0" clip-path="url(#id_0)" d="M197.05742 305.1505C197.05742 306.80737 195.71428 308.1505 194.05742 308.1505C192.40057 308.1505 191.05742 306.80737 191.05742 305.1505C191.05742 303.49365 192.40057 302.1505 194.05742 302.1505C195.71428 302.1505 197.05742 303.49365 197.05742 305.1505Z" fill-rule="nonzero"/><path fill="#000000" fill-opacity="0.0" clip-path="url(#id_0)" d="M202.0911 303.86108C202.0911 305.51794 200.74794 306.86108 199.0911 306.86108C197.43423 306.86108 196.0911 305.51794 196.0911 303.86108C196.0911 302.20425 197.43423 300.86108 199.0911 300.86108C200.74794 300.86108 202.0911 302.20425 202.0911 303.86108Z" fill-rule="nonzero"/><path fill="#000000" fill-opacity="0.0" clip-path="url(#id_0)" d="M207.12476 302.49854C207.12476 304.1554 205.7816 305.49854 204.12476 305.49854C202.4679 305.49854 201.12476 304.1554 201.12476 302.49854C201.12476 300.8417 202.4679 299.49854 204.12476 299.49854C205.7816 299.49854 207.12476 300.8417 207.12476 302.49854Z" fill-rule="nonzero"/><path fill="#000000" fill-opacity="0.0" clip-path="url(#id_0)" d="M212.15842 301.06018C212.15842 302.71704 210.81528 304.06018 209.15842 304.06018C207.50156 304.06018 206.15842 302.71704 206.15842 301.06018C206.15842 299.40332 207.50156 298.06018 209.15842 298.06018C210.81528 298.06018 212.15842 299.40332 212.15842 301.06018Z" fill-rule="nonzero"/><path fill="#000000" fill-opacity="0.0" clip-path="url(#id_0)" d="M217.19208 299.543C217.19208 301.19986 215.84894 302.543 214.19208 302.543C212.53523 302.543 211.19208 301.19986 211.19208 299.543C211.19208 297.88614 212.53523 296.543 214.19208 296.543C215.84894 296.543 217.19208 297.88614 217.19208 299.543Z" fill-rule="nonzero"/><path fill="#000000" fill-opacity="0.0" clip-path="url(#id_0)" d="M222.22574 297.94366C222.22574 299.60052 220.8826 300.94366 219.22574 300.94366C217.5689 300.94366 216.22574 299.60052 216.22574 297.94366C216.22574 296.28683 217.5689 294.94366 219.22574 294.94366C220.8826 294.94366 222.22574 296.28683 222.22574 297.94366Z" fill-rule="nonzero"/><path fill="#000000" fill-opacity="0.0" clip-path="url(#id_0)" d="M227.2594 296.25848C227.2594 297.91534 225.91626 299.25848 224.2594 299.25848C222.60255 299.25848 221.2594 297.91534 221.2594 296.25848C221.2594 294.60162 222.60255 293.25848 224.2594 293.25848C225.91626 293.25848 227.2594 294.60162 227.2594 296.25848Z" fill-rule="nonzero"/><path fill="#000000" fill-opacity="0.0" clip-path="url(#id_0)" d="M232.29308 294.48328C232.29308 296.14014 230.94992 297.48328 229.29308 297.48328C227.63622 297.48328 226.29308 296.14014 226.29308 294.48328C226.29308 292.82642 227.63622 291.48328 229.29308 291.48328C230.94992 291.48328 232.29308 292.82642 232.29308 294.48328Z" fill-rule="nonzero"/><path fill="#000000" fill-opacity="0.0" clip-path="url(#id_0)" d="M237.32674 292.61334C237.32674 294.2702 235.98358 295.61334 234.32674 295.61334C232.66988 295.61334 231.32674 294.2702 231.32674 292.61334C231.32674 290.95648 232.66988 289.61334 234.32674 289.61334C235.98358 289.61334 237.32674 290.95648 237.32674 292.61334Z" fill-rule="nonzero"/><path fill="#000000" fill-opacity="0.0" clip-path="url(#id_0)" d="M242.3604 290.6434C242.3604 292.30023 241.01726 293.6434 239.3604 293.6434C237.70354 293.6434 236.3604 292.30023 236.3604 290.6434C236.3604 288.98654 237.70354 287.6434 239.3604 287.6434C241.01726 287.6434 242.3604 288.98654 242.3604 290.6434Z" fill-rule="nonzero"/><path fill="#000000" fill-opacity="0.0" clip-path="url(#id_0)" d="M247.39406 288.56744C247.39406 290.22427 246.05092 291.56744 244.39406 291.56744C242.7372 291.56744 241.39406 290.22427 241.39406 288.56744C241.39406 286.91058 242.7372 285.56744 244.39406 285.56744C246.05092 285.56744 247.39406 286.91058 247.39406 288.56744Z" fill-rule="nonzero"/><path fill="#000000" fill-opacity="0.0" clip-path="url(#id_0)" d="M252.42772 286.37857C252.42772 288.03543 251.08458 289.37857 249.42772 289.37857C247.77087 289.37857 246.42772 288.03543 246.42772 286.37857C246.42772 284.7217 247.77087 283.37857 249.42772 283.37857C251.08458 283.37857 252.42772 284.7217 252.42772 286.37857Z" fill-rule="nonzero"/><path fill="#000000" fill-opacity="0.0" clip-path="url(#id_0)" d="M257.4614 284.06894C257.4614 285.7258 256.11826 287.06894 254.46138 287.06894C252.80453 287.06894 251.46138 285.7258 251.46138 284.06894C251.46138 282.41208 252.80453 281.06894 254.46138 281.06894C256.11826 281.06894 257.4614 282.41208 257.4614 284.06894Z" fill-rule="nonzero"/><path fill="#000000" fill-opacity="0.0" clip-path="url(#id_0)" d="M262.49506 281.62933C262.49506 283.2862 261.15192 284.62933 259.49506 284.62933C257.8382 284.62933 256.49506 283.2862 256.49506 281.62933C256.49506 279.97247 257.8382 278.62933 259.49506 278.62933C261.15192 278.62933 262.49506 279.97247 262.49506 281.62933Z" fill-rule="nonzero"/><path fill="#000000" fill-opacity="0.0" clip-path="url(#id_0)" d="M267.52872 279.04907C267.52872 280.70593 266.18558 282.04907 264.52872 282.04907C262.87186 282.04907 261.52872 280.70593 261.52872 279.04907C261.52872 277.39224 262.87186 276.04907 264.52872 276.04907C266.18558 276.04907 267.52872 277.39224 267.52872 279.04907Z" fill-rule="nonzero"/><path fill="#000000" fill-opacity="0.0" clip-path="url(#id_0)" d="M272.56238 276.3155C272.56238 277.97235 271.21924 279.3155 269.56238 279.3155C267.90552 279.3155 266.56238 277.97235 266.56238 276.3155C266.56238 274.65866 267.90552 273.3155 269.56238 273.3155C271.21924 273.3155 272.56238 274.65866 272.56238 276.3155Z" fill-rule="nonzero"/><path fill="#000000" fill-opacity="0.0" clip-path="url(#id_0)" d="M277.59604 273.41348C277.59604 275.07034 276.2529 276.41348 274.59604 276.41348C272.93918 276.41348 271.59604 275.07034 271.59604 273.41348C271.59604 271.75662 272.93918 270.41348 274.59604 270.41348C276.2529 270.41348 277.59604 271.75662 277.59604 273.41348Z" fill-rule="nonzero"/><path fill="#000000" fill-opacity="0.0" clip-path="url(#id_0)" d="M282.6297 270.32474C282.6297 271.98157 281.28656 273.32474 279.6297 273.32474C277.97284 273.32474 276.6297 271.98157 276.6297 270.32474C276.6297 268.66788 277.97284 267.32474 279.6297 267.32474C281.28656 267.32474 282.6297 268.66788 282.6297 270.32474Z" fill-rule="nonzero"/><path fill="#000000" fill-opacity="0.0" clip-path="url(#id_0)" d="M287.66336 267.02667C287.66336 268.68353 286.32022 270.02667 284.66336 270.02667C283.0065 270.02667 281.66336 268.68353 281.66336 267.02667C281.66336 265.3698 283.0065 264.02667 284.66336 264.02667C286.32022 264.02667 287.66336 265.3698 287.66336 267.02667Z" fill-rule="nonzero"/><path fill="#000000" fill-opacity="0.0" clip-path="url(#id_0)" d="M292.69702 263.49103C292.69702 265.1479 291.35388 266.49103 289.69702 266.49103C288.04016 266.49103 286.69702 265.1479 286.69702 263.49103C286.69702 261.8342 288.04016 260.49103 289.69702 260.49103C291.35388 260.49103 292.69702 261.8342 292.69702 263.49103Z" fill-rule="nonzero"/><path fill="#000000" fill-opacity="0.0" clip-path="url(#id_0)" d="M297.73068 259.68155C297.73068 261.3384 296.38754 262.68155 294.73068 262.68155C293.07385 262.68155 291.73068 261.3384 291.73068 259.68155C291.73068 258.0247 293.07385 256.68155 294.73068 256.68155C296.38754 256.68155 297.73068 258.0247 297.73068 259.68155Z" fill-rule="nonzero"/><path fill="#000000" fill-opacity="0.0" clip-path="url(#id_0)" d="M302.76434 255.55028C302.76434 257.20712 301.4212 258.5503 299.76434 258.5503C298.1075 258.5503 296.76434 257.20712 296.76434 255.55028C296.76434 253.89343 298.1075 252.55028 299.76434 252.55028C301.4212 252.55028 302.76434 253.89343 302.76434 255.55028Z" fill-rule="nonzero"/><path fill="#000000" fill-opacity="0.0" clip-path="url(#id_0)" d="M307.79803 251.03163C307.79803 252.68849 306.45486 254.03163 304.79803 254.03163C303.14117 254.03163 301.79803 252.68849 301.79803 251.03163C301.79803 249.37479 303.14117 248.03163 304.79803 248.03163C306.45486 248.03163 307.79803 249.37479 307.79803 251.03163Z" fill-rule="nonzero"/><path fill="#000000" fill-opacity="0.0" clip-path="url(#id_0)" d="M312.8317 246.03151C312.8317 247.68837 311.48853 249.03151 309.8317 249.03151C308.17484 249.03151 306.8317 247.68837 306.8317 246.03151C306.8317 244.37466 308.17484 243.03151 309.8317 243.03151C311.48853 243.03151 312.8317 244.37466 312.8317 246.03151Z" fill-rule="nonzero"/><path fill="#000000" fill-opacity="0.0" clip-path="url(#id_0)" d="M317.86536 240.40608C317.86536 242.06294 316.5222 243.40608 314.86536 243.40608C313.2085 243.40608 311.86536 242.06294 311.86536 240.40608C311.86536 238.74924 313.2085 237.40608 314.86536 237.40608C316.5222 237.40608 317.86536 238.74924 317.86536 240.40608Z" fill-rule="nonzero"/><path fill="#000000" fill-opacity="0.0" clip-path="url(#id_0)" d="M322.89902 233.91425C322.89902 235.5711 321.55588 236.91425 319.89902 236.91425C318.24216 236.91425 316.89902 235.5711 316.89902 233.91425C316.89902 232.2574 318.24216 230.91425 319.89902 230.91425C321.55588 230.91425 322.89902 232.2574 322.89902 233.91425Z" fill-rule="nonzero"/><path fill="#000000" fill-opacity="0.0" clip-path="url(#id_0)" d="M327.93268 226.088C327.93268 227.74486 326.58954 229.088 324.93268 229.088C323.27582 229.088 321.93268 227.74486 321.93268 226.088C321.93268 224.43115 323.27582 223.088 324.93268 223.088C326.58954 223.088 327.93268 224.43115 327.93268 226.088Z" fill-rule="nonzero"/><path fill="#000000" fill-opacity="0.0" clip-path="url(#id_0)" d="M332.96634 215.72508C332.96634 217.38193 331.6232 218.72508 329.96634 218.72508C328.30948 218.72508 326.96634 217.38193 326.96634 215.72508C326.96634 214.06822 328.30948 212.72508 329.96634 212.72508C331.6232 212.72508 332.96634 214.06822 332.96634 215.72508Z" fill-rule="nonzero"/><path fill="#000000" fill-opacity="0.0" clip-path="url(#id_0)" d="M338.0 190.26666C338.0 191.92352 336.65686 193.26666 335.0 193.26666C333.34314 193.26666 332.0 191.92352 332.0 190.26666C332.0 188.6098 333.34314 187.26666 335.0 187.26666C336.65686 187.26666 338.0 188.6098 338.0 190.26666Z" fill-rule="nonzero"/><path fill="#000000" fill-opacity="0.0" clip-path="url(#id_0)" d="M343.03366 164.80826C343.03366 166.4651 341.69052 167.80826 340.03366 167.80826C338.3768 167.80826 337.03366 166.4651 337.03366 164.80826C337.03366 163.1514 338.3768 161.80826 340.03366 161.80826C341.69052 161.80826 343.03366 163.1514 343.03366 164.80826Z" fill-rule="nonzero"/><path fill="#000000" fill-opacity="0.0" clip-path="url(#id_0)" d="M348.06732 154.44533C348.06732 156.10219 346.72418 157.44533 345.06732 157.44533C343.41046 157.44533 342.06732 156.10219 342.06732 154.44533C342.06732 152.78848 343.41046 151.44533 345.06732 151.44533C346.72418 151.44533 348.06732 152.78848 348.06732 154.44533Z" fill-rule="nonzero"/><path fill="#000000" fill-opacity="0.0" clip-path="url(#id_0)" d="M353.10098 146.61908C353.10098 148.27594 351.75784 149.61908 350.10098 149.61908C348.44412 149.61908 347.10098 148.27594 347.10098 146.61908C347.10098 144.96223 348.44412 143.61908 350.10098 143.61908C351.75784 143.61908 353.10098 144.96223 353.10098 146.61908Z" fill-rule="nonzero"/><path fill="#000000" fill-opacity="0.0" clip-path="url(#id_0)" d="M358.13464 140.12724C358.13464 141.7841 356.7915 143.12724 355.13464 143.12724C353.4778 143.12724 352.13464 141.7841 352.13464 140.12724C352.13464 138.4704 353.4778 137.12724 355.13464 137.12724C356.7915 137.12724 358.13464 138.4704 358.13464 140.12724Z" fill-rule="nonzero"/><path fill="#000000" fill-opacity="0.0" clip-path="url(#id_0)" d="M363.1683 134.50182C363.1683 136.15868 361.82516 137.50182 360.1683 137.50182C358.51147 137.50182 357.1683 136.15868 357.1683 134.50182C357.1683 132.84497 358.51147 131.50182 360.1683 131.50182C361.82516 131.50182 363.1683 132.84497 363.1683 134.50182Z" fill-rule="nonzero"/><path fill="#000000" fill-opacity="0.0" clip-path="url(#id_0)" d="M368.20197 129.5017C368.20197 131.15855 366.85883 132.5017 365.20197 132.5017C363.54514 132.5017 362.20197 131.15855 362.20197 129.5017C362.20197 127.84485 363.54514 126.5017 365.20197 126.5017C366.85883 126.5017 368.20197 127.84485 368.20197 129.5017Z" fill-rule="nonzero"/><path fill="#000000" fill-opacity="0.0" clip-path="url(#id_0)" d="M373.23566 124.98305C373.23566 126.63991 371.8925 127.98305 370.23566 127.98305C368.5788 127.98305 367.23566 126.63991 367.23566 124.98305C367.23566 123.326195 368.5788 121.98305 370.23566 121.98305C371.8925 121.98305 373.23566 123.326195 373.23566 124.98305Z" fill-rule="nonzero"/><path fill="#000000" fill-opacity="0.0" clip-path="url(#id_0)" d="M378.26932 120.85178C378.26932 122.50864 376.92615 123.85178 375.26932 123.85178C373.61246 123.85178 372.26932 122.50864 372.26932 120.85178C372.26932 119.19492 373.61246 117.85178 375.26932 117.85178C376.92615 117.85178 378.26932 119.19492 378.26932 120.85178Z" fill-rule="nonzero"/><path fill="#000000" fill-opacity="0.0" clip-path="url(#id_0)" d="M383.30298 117.0423C383.30298 118.69915 381.95984 120.0423 380.30298 120.0423C378.64612 120.0423 377.30298 118.69915 377.30298 117.0423C377.30298 115.38544 378.64612 114.0423 380.30298 114.0423C381.95984 114.0423 383.30298 115.38544 383.30298 117.0423Z" fill-rule="nonzero"/><path fill="#000000" fill-opacity="0.0" clip-path="url(#id_0)" d="M388.33664 113.50667C388.33664 115.16352 386.9935 116.50667 385.33664 116.50667C383.67978 116.50667 382.33664 115.16352 382.33664 113.50667C382.33664 111.849815 383.67978 110.50667 385.33664 110.50667C386.9935 110.50667 388.33664 111.849815 388.33664 113.50667Z" fill-rule="nonzero"/><path fill="#000000" fill-opacity="0.0" clip-path="url(#id_0)" d="M393.3703 110.20861C393.3703 111.86546 392.02716 113.20861 390.3703 113.20861C388.71344 113.20861 387.3703 111.86546 387.3703 110.20861C387.3703 108.55175 388.71344 107.20861 390.3703 107.20861C392.02716 107.20861 393.3703 108.55175 393.3703 110.20861Z" fill-rule="nonzero"/><path fill="#000000" fill-opacity="0.0" clip-path="url(#id_0)" d="M398.40396 107.11984C398.40396 108.776695 397.06082 110.11984 395.40396 110.11984C393.7471 110.11984 392.40396 108.776695 392.40396 107.11984C392.40396 105.46299 393.7471 104.11984 395.40396 104.11984C397.06082 104.11984 398.40396 105.46299 398.40396 107.11984Z" fill-rule="nonzero"/><path fill="#000000" fill-opacity="0.0" clip-path="url(#id_0)" d="M403.43762 104.21783C403.43762 105.87468 402.09448 107.21783 400.43762 107.21783C398.78076 107.21783 397.43762 105.87468 397.43762 104.21783C397.43762 102.560974 398.78076 101.21783 400.43762 101.21783C402.09448 101.21783 403.43762 102.560974 403.43762 104.21783Z" fill-rule="nonzero"/><path fill="#000000" fill-opacity="0.0" clip-path="url(#id_0)" d="M408.47128 101.48425C408.47128 103.141106 407.12814 104.48425 405.47128 104.48425C403.81442 104.48425 402.47128 103.141106 402.47128 101.48425C402.47128 99.8274 403.81442 98.48425 405.47128 98.48425C407.12814 98.48425 408.47128 99.8274 408.47128 101.48425Z" fill-rule="nonzero"/><path fill="#000000" fill-opacity="0.0" clip-path="url(#id_0)" d="M413.50494 98.90399C413.50494 100.560844 412.1618 101.90399 410.50494 101.90399C408.84808 101.90399 407.50494 100.560844 407.50494 98.90399C407.50494 97.24714 408.84808 95.90399 410.50494 95.90399C412.1618 95.90399 413.50494 97.24714 413.50494 98.90399Z" fill-rule="nonzero"/><path fill="#000000" fill-opacity="0.0" clip-path="url(#id_0)" d="M418.5386 96.46439C418.5386 98.121254 417.19547 99.46439 415.5386 99.46439C413.88174 99.46439 412.5386 98.121254 412.5386 96.46439C412.5386 94.80754 413.88174 93.46439 415.5386 93.46439C417.19547 93.46439 418.5386 94.80754 418.5386 96.46439Z" fill-rule="nonzero"/><path fill="#000000" fill-opacity="0.0" clip-path="url(#id_0)" d="M423.57227 94.154755C423.57227 95.81161 422.22913 97.154755 420.57227 97.154755C418.91544 97.154755 417.57227 95.81161 417.57227 94.154755C417.57227 92.4979 418.91544 91.154755 420.57227 91.154755C422.22913 91.154755 423.57227 92.4979 423.57227 94.154755Z" fill-rule="nonzero"/><path fill="#000000" fill-opacity="0.0" clip-path="url(#id_0)" d="M428.60593 91.965904C428.60593 93.62276 427.2628 94.965904 425.60593 94.965904C423.9491 94.965904 422.60593 93.62276 422.60593 91.965904C422.60593 90.30905 423.9491 88.965904 425.60593 88.965904C427.2628 88.965904 428.60593 90.30905 428.60593 91.965904Z" fill-rule="nonzero"/><path fill="#000000" fill-opacity="0.0" clip-path="url(#id_0)" d="M433.63962 89.88994C433.63962 91.5468 432.29645 92.88994 430.63962 92.88994C428.98276 92.88994 427.63962 91.5468 427.63962 89.88994C427.63962 88.233086 428.98276 86.88994 430.63962 86.88994C432.29645 86.88994 433.63962 88.233086 433.63962 89.88994Z" fill-rule="nonzero"/><path fill="#000000" fill-opacity="0.0" clip-path="url(#id_0)" d="M438.67328 87.92C438.67328 89.57685 437.3301 90.92 435.67328 90.92C434.01642 90.92 432.67328 89.57685 432.67328 87.92C432.67328 86.263145 434.01642 84.92 435.67328 84.92C437.3301 84.92 438.67328 86.263145 438.67328 87.92Z" fill-rule="nonzero"/><path fill="#000000" fill-opacity="0.0" clip-path="url(#id_0)" d="M443.70694 86.050064C443.70694 87.70692 442.3638 89.050064 440.70694 89.050064C439.05008 89.050064 437.70694 87.70692 437.70694 86.050064C437.70694 84.39321 439.05008 83.050064 440.70694 83.050064C442.3638 83.050064 443.70694 84.39321 443.70694 86.050064Z" fill-rule="nonzero"/><path fill="#000000" fill-opacity="0.0" clip-path="url(#id_0)" d="M448.7406 84.27485C448.7406 85.9317 447.39746 87.27485 445.7406 87.27485C444.08374 87.27485 442.7406 85.9317 442.7406 84.27485C442.7406 82.61799 444.08374 81.27485 445.7406 81.27485C447.39746 81.27485 448.7406 82.61799 448.7406 84.27485Z" fill-rule="nonzero"/><path fill="#000000" fill-opacity="0.0" clip-path="url(#id_0)" d="M453.77426 82.58965C453.77426 84.24651 452.43112 85.58965 450.77426 85.58965C449.1174 85.58965 447.77426 84.24651 447.77426 82.58965C447.77426 80.9328 449.1174 79.58965 450.77426 79.58965C452.43112 79.58965 453.77426 80.9328 453.77426 82.58965Z" fill-rule="nonzero"/><path fill="#000000" fill-opacity="0.0" clip-path="url(#id_0)" d="M458.80792 80.99033C458.80792 82.64719 457.46478 83.99033 455.80792 83.99033C454.15106 83.99033 452.80792 82.64719 452.80792 80.99033C452.80792 79.33347 454.15106 77.99033 455.80792 77.99033C457.46478 77.99033 458.80792 79.33347 458.80792 80.99033Z" fill-rule="nonzero"/><path fill="#000000" fill-opacity="0.0" clip-path="url(#id_0)" d="M463.84158 79.47315C463.84158 81.130005 462.49844 82.47315 460.84158 82.47315C459.18472 82.47315 457.84158 81.130005 457.84158 79.47315C457.84158 77.8163 459.18472 76.47315 460.84158 76.47315C462.49844 76.47315 463.84158 77.8163 463.84158 79.47315Z" fill-rule="nonzero"/><path fill="#000000" fill-opacity="0.0" clip-path="url(#id_0)" d="M468.87524 78.03478C468.87524 79.69164 467.5321 81.03478 465.87524 81.03478C464.21838 81.03478 462.87524 79.69164 462.87524 78.03478C462.87524 76.37793 464.21838 75.03478 465.87524 75.03478C467.5321 75.03478 468.87524 76.37793 468.87524 78.03478Z" fill-rule="nonzero"/><path fill="#000000" fill-opacity="0.0" clip-path="url(#id_0)" d="M473.9089 76.67224C473.9089 78.329094 472.56577 79.67224 470.9089 79.67224C469.25204 79.67224 467.9089 78.329094 467.9089 76.67224C467.9089 75.01539 469.25204 73.67224 470.9089 73.67224C472.56577 73.67224 473.9089 75.01539 473.9089 76.67224Z" fill-rule="nonzero"/><path fill="#000000" fill-opacity="0.0" clip-path="url(#id_0)" d="M478.94257 75.38282C478.94257 77.03967 477.59943 78.38282 475.94257 78.38282C474.2857 78.38282 472.94257 77.03967 472.94257 75.38282C472.94257 73.72597 474.2857 72.38282 475.94257 72.38282C477.59943 72.38282 478.94257 73.72597 478.94257 75.38282Z" fill-rule="nonzero"/><path fill="#000000" fill-opacity="0.0" clip-path="url(#id_0)" d="M483.97623 74.164085C483.97623 75.82094 482.6331 77.164085 480.97623 77.164085C479.3194 77.164085 477.97623 75.82094 477.97623 74.164085C477.97623 72.507225 479.3194 71.164085 480.97623 71.164085C482.6331 71.164085 483.97623 72.507225 483.97623 74.164085Z" fill-rule="nonzero"/><path fill="#000000" fill-opacity="0.0" clip-path="url(#id_0)" d="M489.0099 73.01383C489.0099 74.670685 487.66675 76.01383 486.0099 76.01383C484.35306 76.01383 483.0099 74.670685 483.0099 73.01383C483.0099 71.35698 484.35306 70.01383 486.0099 70.01383C487.66675 70.01383 489.0099 71.35698 489.0099 73.01383Z" fill-rule="nonzero"/><path fill="#000000" fill-opacity="0.0" clip-path="url(#id_0)" d="M494.04358 71.93006C494.04358 73.586914 492.7004 74.93006 491.04358 74.93006C489.38672 74.93006 488.04358 73.586914 488.04358 71.93006C488.04358 70.27321 489.38672 68.93006 491.04358 68.93006C492.7004 68.93006 494.04358 70.27321 494.04358 71.93006Z" fill-rule="nonzero"/><path fill="#000000" fill-opacity="0.0" clip-path="url(#id_0)" d="M499.07724 70.910965C499.07724 72.567825 497.73407 73.910965 496.07724 73.910965C494.42038 73.910965 493.07724 72.567825 493.07724 70.910965C493.07724 69.25411 494.42038 67.910965 496.07724 67.910965C497.73407 67.910965 499.07724 69.25411 499.07724 70.910965Z" fill-rule="nonzero"/><path fill="#000000" fill-opacity="0.0" clip-path="url(#id_0)" d="M504.1109 69.9549C504.1109 71.61176 502.76773 72.9549 501.1109 72.9549C499.45404 72.9549 498.1109 71.61176 498.1109 69.9549C498.1109 68.29805 499.45404 66.9549 501.1109 66.9549C502.76773 66.9549 504.1109 68.29805 504.1109 69.9549Z" fill-rule="nonzero"/><path fill="#000000" fill-opacity="0.0" clip-path="url(#id_0)" d="M509.14456 69.06038C509.14456 70.71724 507.80142 72.06038 506.14456 72.06038C504.4877 72.06038 503.14456 70.71724 503.14456 69.06038C503.14456 67.40353 504.4877 66.06038 506.14456 66.06038C507.80142 66.06038 509.14456 67.40353 509.14456 69.06038Z" fill-rule="nonzero"/><path fill="#000000" fill-opacity="0.0" clip-path="url(#id_0)" d="M514.1782 68.22604C514.1782 69.8829 512.8351 71.22604 511.17822 71.22604C509.52136 71.22604 508.17822 69.8829 508.17822 68.22604C508.17822 66.56919 509.52136 65.22604 511.17822 65.22604C512.8351 65.22604 514.1782 66.56919 514.1782 68.22604Z" fill-rule="nonzero"/><path fill="#000000" fill-opacity="0.0" clip-path="url(#id_0)" d="M519.21185 67.45067C519.21185 69.10752 517.8687 70.45067 516.21185 70.45067C514.55505 70.45067 513.21185 69.10752 513.21185 67.45067C513.21185 65.793816 514.55505 64.45067 516.21185 64.45067C517.8687 64.45067 519.21185 65.793816 519.21185 67.45067Z" fill-rule="nonzero"/><path fill="#000000" fill-opacity="0.0" clip-path="url(#id_0)" d="M524.24554 66.73314C524.24554 68.38999 522.9024 69.73314 521.24554 69.73314C519.5887 69.73314 518.24554 68.38999 518.24554 66.73314C518.24554 65.07629 519.5887 63.73314 521.24554 63.73314C522.9024 63.73314 524.24554 65.07629 524.24554 66.73314Z" fill-rule="nonzero"/><path fill="#000000" fill-opacity="0.0" clip-path="url(#id_0)" d="M529.27924 66.07246C529.27924 67.72931 527.93604 69.07246 526.27924 69.07246C524.6224 69.07246 523.27924 67.72931 523.27924 66.07246C523.27924 64.4156 524.6224 63.072456 526.27924 63.072456C527.93604 63.072456 529.27924 64.4156 529.27924 66.07246Z" fill-rule="nonzero"/><path fill="#000000" fill-opacity="0.0" clip-path="url(#id_0)" d="M534.31287 65.46772C534.31287 67.12457 532.9697 68.46772 531.31287 68.46772C529.656 68.46772 528.31287 67.12457 528.31287 65.46772C528.31287 63.810863 529.656 62.467716 531.31287 62.467716C532.9697 62.467716 534.31287 63.810863 534.31287 65.46772Z" fill-rule="nonzero"/><path fill="#000000" fill-opacity="0.0" clip-path="url(#id_0)" d="M539.34656 64.91811C539.34656 66.57497 538.0034 67.91811 536.34656 67.91811C534.6897 67.91811 533.34656 66.57497 533.34656 64.91811C533.34656 63.261257 534.6897 61.91811 536.34656 61.91811C538.0034 61.91811 539.34656 63.261257 539.34656 64.91811Z" fill-rule="nonzero"/><path fill="#000000" fill-opacity="0.0" clip-path="url(#id_0)" d="M544.3802 64.42292C544.3802 66.07977 543.03705 67.42292 541.3802 67.42292C539.7233 67.42292 538.3802 66.07977 538.3802 64.42292C538.3802 62.766064 539.7233 61.42292 541.3802 61.42292C543.03705 61.42292 544.3802 62.766064 544.3802 64.42292Z" fill-rule="nonzero"/><path fill="#000000" fill-opacity="0.0" clip-path="url(#id_0)" d="M549.4139 63.981495C549.4139 65.63835 548.07074 66.9815 546.4139 66.9815C544.757 66.9815 543.4139 65.63835 543.4139 63.981495C543.4139 62.324642 544.757 60.981495 546.4139 60.981495C548.07074 60.981495 549.4139 62.324642 549.4139 63.981495Z" fill-rule="nonzero"/><path fill="#000000" fill-opacity="0.0" clip-path="url(#id_0)" d="M554.4475 63.593285C554.4475 65.25014 553.1044 66.593285 551.4475 66.593285C549.79065 66.593285 548.4475 65.25014 548.4475 63.593285C548.4475 61.93643 549.79065 60.593285 551.4475 60.593285C553.1044 60.593285 554.4475 61.93643 554.4475 63.593285Z" fill-rule="nonzero"/><path fill="#000000" fill-opacity="0.0" clip-path="url(#id_0)" d="M559.4812 63.257793C559.4812 64.91465 558.13806 66.2578 556.4812 66.2578C554.82434 66.2578 553.4812 64.91465 553.4812 63.257793C553.4812 61.60094 554.82434 60.257793 556.4812 60.257793C558.13806 60.257793 559.4812 61.60094 559.4812 63.257793Z" fill-rule="nonzero"/><path fill="#000000" fill-opacity="0.0" clip-path="url(#id_0)" d="M564.51483 62.974606C564.51483 64.63146 563.1717 65.97461 561.51483 65.97461C559.858 65.97461 558.51483 64.63146 558.51483 62.974606C558.51483 61.317753 559.858 59.974606 561.51483 59.974606C563.1717 59.974606 564.51483 61.317753 564.51483 62.974606Z" fill-rule="nonzero"/><path fill="#000000" fill-opacity="0.0" clip-path="url(#id_0)" d="M569.5485 62.743378C569.5485 64.40023 568.2054 65.74338 566.5485 65.74338C564.89166 65.74338 563.5485 64.40023 563.5485 62.743378C563.5485 61.08652 564.89166 59.743378 566.5485 59.743378C568.2054 59.743378 569.5485 61.08652 569.5485 62.743378Z" fill-rule="nonzero"/><path fill="#000000" fill-opacity="0.0" clip-path="url(#id_0)" d="M574.58215 62.56382C574.58215 64.22067 573.239 65.56382 571.58215 65.56382C569.92535 65.56382 568.58215 64.22067 568.58215 62.56382C568.58215 60.906967 569.92535 59.56382 571.58215 59.56382C573.239 59.56382 574.58215 60.906967 574.58215 62.56382Z" fill-rule="nonzero"/><path fill="#000000" fill-opacity="0.0" clip-path="url(#id_0)" d="M579.61584 62.435722C579.61584 64.092575 578.2727 65.43572 576.61584 65.43572C574.959 65.43572 573.61584 64.092575 573.61584 62.435722C573.61584 60.778866 574.959 59.435722 576.61584 59.435722C578.2727 59.435722 579.61584 60.778866 579.61584 62.435722Z" fill-rule="nonzero"/><path fill="#000000" fill-opacity="0.0" clip-path="url(#id_0)" d="M584.6495 62.35892C584.6495 64.01578 583.30634 65.358925 581.6495 65.358925C579.9927 65.358925 578.6495 64.01578 578.6495 62.35892C578.6495 60.70207 579.9927 59.35892 581.6495 59.35892C583.30634 59.35892 584.6495 60.70207 584.6495 62.35892Z" fill-rule="nonzero"/><path fill="#000000" fill-opacity="0.0" clip-path="url(#id_0)" d="M589.68317 62.333332C589.68317 63.99019 588.34 65.333336 586.68317 65.333336C585.0263 65.333336 583.68317 63.99019 583.68317 62.333332C583.68317 60.67648 585.0263 59.333332 586.68317 59.333332C588.34 59.333332 589.68317 60.67648 589.68317 62.333332Z" fill-rule="nonzero"/><path fill="#000000" d="M336.59375 353.2625L336.75 354.1844Q336.29688 354.27814 335.95312 354.27814Q335.375 354.27814 335.0625 354.10626Q334.75 353.91876 334.60938 353.6219Q334.48438 353.325 334.48438 352.3719L334.48438 348.79376L333.71875 348.79376L333.71875 347.98126L334.48438 347.98126L334.48438 346.4344L335.53125 345.8094L335.53125 347.98126L336.59375 347.98126L336.59375 348.79376L335.53125 348.79376L335.53125 352.4344Q335.53125 352.8875 335.57812 353.0125Q335.64062 353.1375 335.76562 353.21564Q335.89062 353.29376 336.125 353.29376Q336.3125 353.29376 336.59375 353.2625Z" fill-rule="nonzero"/><path fill="#000000" d="M29.800013 192.67291L26.565638 190.40729L23.581263 192.50104L23.581263 191.18854L25.034388 190.23541Q25.456263 189.96979 25.737513 189.79791Q25.346888 189.54791 25.050013 189.32916L23.581263 188.28229L23.581263 187.01666L26.503138 189.17291L29.800013 186.86041L29.800013 188.14166L27.862513 189.42291L27.346888 189.76666L29.800013 191.40729L29.800013 192.67291Z" fill-rule="nonzero"/><path fill="#000000" d="M51.3 317.96564Q51.3 316.4344 51.6125 315.5125Q51.925 314.575 52.534374 314.075Q53.159374 313.575 54.096874 313.575Q54.784374 313.575 55.3 313.85626Q55.83125 314.1375 56.175 314.66876Q56.51875 315.1844 56.70625 315.9344Q56.89375 316.6844 56.89375 317.96564Q56.89375 319.48126 56.58125 320.40314Q56.284374 321.325 55.659374 321.84064Q55.05 322.34064 54.096874 322.34064Q52.8625 322.34064 52.14375 321.45Q51.3 320.3875 51.3 317.96564ZM52.378124 317.96564Q52.378124 320.075 52.878124 320.77814Q53.378124 321.48126 54.096874 321.48126Q54.83125 321.48126 55.315624 320.77814Q55.815624 320.075 55.815624 317.96564Q55.815624 315.84064 55.315624 315.15314Q54.83125 314.45 54.08125 314.45Q53.3625 314.45 52.925 315.0594Q52.378124 315.84064 52.378124 317.96564ZM58.89375 322.2L58.89375 320.9969L60.096874 320.9969L60.096874 322.2L58.89375 322.2ZM61.3 317.96564Q61.3 316.4344 61.6125 315.5125Q61.925 314.575 62.534374 314.075Q63.159374 313.575 64.09688 313.575Q64.78438 313.575 65.3 313.85626Q65.83125 314.1375 66.175 314.66876Q66.51875 315.1844 66.70625 315.9344Q66.89375 316.6844 66.89375 317.96564Q66.89375 319.48126 66.58125 320.40314Q66.28438 321.325 65.65938 321.84064Q65.05 322.34064 64.09688 322.34064Q62.8625 322.34064 62.14375 321.45Q61.3 320.3875 61.3 317.96564ZM62.378124 317.96564Q62.378124 320.075 62.878124 320.77814Q63.378124 321.48126 64.09688 321.48126Q64.83125 321.48126 65.31563 320.77814Q65.81563 320.075 65.81563 317.96564Q65.81563 315.84064 65.31563 315.15314Q64.83125 314.45 64.08125 314.45Q63.3625 314.45 62.925 315.0594Q62.378124 315.84064 62.378124 317.96564ZM68.3 317.96564Q68.3 316.4344 68.6125 315.5125Q68.925 314.575 69.53438 314.075Q70.15938 313.575 71.09688 313.575Q71.78438 313.575 72.3 313.85626Q72.83125 314.1375 73.175 314.66876Q73.51875 315.1844 73.70625 315.9344Q73.89375 316.6844 73.89375 317.96564Q73.89375 319.48126 73.58125 320.40314Q73.28438 321.325 72.65938 321.84064Q72.05 322.34064 71.09688 322.34064Q69.8625 322.34064 69.14375 321.45Q68.3 320.3875 68.3 317.96564ZM69.37813 317.96564Q69.37813 320.075 69.87813 320.77814Q70.37813 321.48126 71.09688 321.48126Q71.83125 321.48126 72.31563 320.77814Q72.81563 320.075 72.81563 317.96564Q72.81563 315.84064 72.31563 315.15314Q71.83125 314.45 71.08125 314.45Q70.3625 314.45 69.925 315.0594Q69.37813 315.84064 69.37813 317.96564Z" fill-rule="nonzero"/><path fill="#000000" d="M51.3 253.99896Q51.3 252.46771 51.6125 251.54584Q51.925 250.60834 52.534374 250.10834Q53.159374 249.60834 54.096874 249.60834Q54.784374 249.60834 55.3 249.88959Q55.83125 250.17084 56.175 250.70209Q56.51875 251.21771 56.70625 251.96771Q56.89375 252.71771 56.89375 253.99896Q56.89375 255.51459 56.58125 256.43646Q56.284374 257.35834 55.659374 257.87396Q55.05 258.37396 54.096874 258.37396Q52.8625 258.37396 52.14375 257.48334Q51.3 256.42084 51.3 253.99896ZM52.378124 253.99896Q52.378124 256.10834 52.878124 256.81146Q53.378124 257.5146 54.096874 257.5146Q54.83125 257.5146 55.315624 256.81146Q55.815624 256.10834 55.815624 253.99896Q55.815624 251.87396 55.315624 251.18646Q54.83125 250.48334 54.08125 250.48334Q53.3625 250.48334 52.925 251.09271Q52.378124 251.87396 52.378124 253.99896ZM58.89375 258.23334L58.89375 257.0302L60.096874 257.0302L60.096874 258.23334L58.89375 258.23334ZM66.84688 257.2177L66.84688 258.23334L61.159374 258.23334Q61.159374 257.85834 61.284374 257.49896Q61.503124 256.92084 61.971874 256.35834Q62.45625 255.79584 63.3625 255.06146Q64.76875 253.90521 65.25313 253.23334Q65.75313 252.56146 65.75313 251.96771Q65.75313 251.34271 65.3 250.92084Q64.84688 250.48334 64.12813 250.48334Q63.3625 250.48334 62.909374 250.93646Q62.45625 251.38959 62.440624 252.20209L61.3625 252.09271Q61.471874 250.87396 62.190624 250.24896Q62.925 249.60834 64.15938 249.60834Q65.39375 249.60834 66.1125 250.29584Q66.83125 250.98334 66.83125 251.99896Q66.83125 252.51459 66.6125 253.01459Q66.40938 253.49896 65.90938 254.06146Q65.425 254.60834 64.3 255.56146Q63.346874 256.35834 63.065624 256.6552Q62.8 256.93646 62.628124 257.2177L66.84688 257.2177ZM68.3 255.98334L69.40938 255.88959Q69.53438 256.7021 69.97188 257.10834Q70.425 257.5146 71.06563 257.5146Q71.81563 257.5146 72.34688 256.93646Q72.87813 256.35834 72.87813 255.42084Q72.87813 254.51459 72.3625 253.99896Q71.8625 253.46771 71.03438 253.46771Q70.53438 253.46771 70.1125 253.70209Q69.70625 253.93646 69.47188 254.29584L68.4875 254.17084L69.31563 249.76459L73.59688 249.76459L73.59688 250.76459L70.15938 250.76459L69.70625 253.07709Q70.47188 252.53021 71.31563 252.53021Q72.44063 252.53021 73.20625 253.31146Q73.9875 254.09271 73.9875 255.32709Q73.9875 256.48334 73.31563 257.3427Q72.4875 258.37396 71.06563 258.37396Q69.89375 258.37396 69.14375 257.7177Q68.40938 257.06146 68.3 255.98334Z" fill-rule="nonzero"/><path fill="#000000" d="M51.3 190.03229Q51.3 188.50104 51.6125 187.57916Q51.925 186.64166 52.534374 186.14166Q53.159374 185.64166 54.096874 185.64166Q54.784374 185.64166 55.3 185.92291Q55.83125 186.20416 56.175 186.73541Q56.51875 187.25104 56.70625 188.00104Q56.89375 188.75104 56.89375 190.03229Q56.89375 191.54791 56.58125 192.46979Q56.284374 193.39166 55.659374 193.90729Q55.05 194.40729 54.096874 194.40729Q52.8625 194.40729 52.14375 193.51666Q51.3 192.45416 51.3 190.03229ZM52.378124 190.03229Q52.378124 192.14166 52.878124 192.84479Q53.378124 193.54791 54.096874 193.54791Q54.83125 193.54791 55.315624 192.84479Q55.815624 192.14166 55.815624 190.03229Q55.815624 187.90729 55.315624 187.21979Q54.83125 186.51666 54.08125 186.51666Q53.3625 186.51666 52.925 187.12604Q52.378124 187.90729 52.378124 190.03229ZM58.89375 194.26666L58.89375 193.06354L60.096874 193.06354L60.096874 194.26666L58.89375 194.26666ZM61.3 192.01666L62.409374 191.92291Q62.534374 192.73541 62.971874 193.14166Q63.425 193.54791 64.06563 193.54791Q64.81563 193.54791 65.34688 192.96979Q65.87813 192.39166 65.87813 191.45416Q65.87813 190.54791 65.3625 190.03229Q64.8625 189.50104 64.03438 189.50104Q63.534374 189.50104 63.1125 189.73541Q62.70625 189.96979 62.471874 190.32916L61.4875 190.20416L62.315624 185.79791L66.59688 185.79791L66.59688 186.79791L63.159374 186.79791L62.70625 189.11041Q63.471874 188.56354 64.31563 188.56354Q65.44063 188.56354 66.20625 189.34479Q66.9875 190.12604 66.9875 191.36041Q66.9875 192.51666 66.31563 193.37604Q65.4875 194.40729 64.06563 194.40729Q62.89375 194.40729 62.14375 193.75104Q61.409374 193.09479 61.3 192.01666ZM68.3 190.03229Q68.3 188.50104 68.6125 187.57916Q68.925 186.64166 69.53438 186.14166Q70.15938 185.64166 71.09688 185.64166Q71.78438 185.64166 72.3 185.92291Q72.83125 186.20416 73.175 186.73541Q73.51875 187.25104 73.70625 188.00104Q73.89375 188.75104 73.89375 190.03229Q73.89375 191.54791 73.58125 192.46979Q73.28438 193.39166 72.65938 193.90729Q72.05 194.40729 71.09688 194.40729Q69.8625 194.40729 69.14375 193.51666Q68.3 192.45416 68.3 190.03229ZM69.37813 190.03229Q69.37813 192.14166 69.87813 192.84479Q70.37813 193.54791 71.09688 193.54791Q71.83125 193.54791 72.31563 192.84479Q72.81563 192.14166 72.81563 190.03229Q72.81563 187.90729 72.31563 187.21979Q71.83125 186.51666 71.08125 186.51666Q70.3625 186.51666 69.925 187.12604Q69.37813 187.90729 69.37813 190.03229Z" fill-rule="nonzero"/><path fill="#000000" d="M51.3 126.06563Q51.3 124.53438 51.6125 123.6125Q51.925 122.675 52.534374 122.175Q53.159374 121.675 54.096874 121.675Q54.784374 121.675 55.3 121.95625Q55.83125 122.2375 56.175 122.76875Q56.51875 123.28438 56.70625 124.03438Q56.89375 124.78438 56.89375 126.06563Q56.89375 127.58125 56.58125 128.50313Q56.284374 129.425 55.659374 129.94063Q55.05 130.44063 54.096874 130.44063Q52.8625 130.44063 52.14375 129.55Q51.3 128.4875 51.3 126.06563ZM52.378124 126.06563Q52.378124 128.175 52.878124 128.87813Q53.378124 129.58125 54.096874 129.58125Q54.83125 129.58125 55.315624 128.87813Q55.815624 128.175 55.815624 126.06563Q55.815624 123.94063 55.315624 123.25313Q54.83125 122.55 54.08125 122.55Q53.3625 122.55 52.925 123.15938Q52.378124 123.94063 52.378124 126.06563ZM58.89375 130.3L58.89375 129.09688L60.096874 129.09688L60.096874 130.3L58.89375 130.3ZM61.3625 122.83125L61.3625 121.81563L66.925 121.81563L66.925 122.64375Q66.1125 123.51875 65.3 124.97188Q64.50313 126.40938 64.06563 127.94063Q63.7375 129.01875 63.659374 130.3L62.565624 130.3Q62.58125 129.28438 62.95625 127.84688Q63.346874 126.40938 64.05 125.08125Q64.76875 123.75313 65.58125 122.83125L61.3625 122.83125ZM68.3 128.05L69.40938 127.95625Q69.53438 128.76875 69.97188 129.175Q70.425 129.58125 71.06563 129.58125Q71.81563 129.58125 72.34688 129.00313Q72.87813 128.425 72.87813 127.4875Q72.87813 126.58125 72.3625 126.06563Q71.8625 125.53438 71.03438 125.53438Q70.53438 125.53438 70.1125 125.76875Q69.70625 126.00313 69.47188 126.3625L68.4875 126.2375L69.31563 121.83125L73.59688 121.83125L73.59688 122.83125L70.15938 122.83125L69.70625 125.14375Q70.47188 124.59688 71.31563 124.59688Q72.44063 124.59688 73.20625 125.37813Q73.9875 126.15938 73.9875 127.39375Q73.9875 128.55 73.31563 129.40938Q72.4875 130.44063 71.06563 130.44063Q69.89375 130.44063 69.14375 129.78438Q68.40938 129.12813 68.3 128.05Z" fill-rule="nonzero"/><path fill="#000000" d="M55.26875 66.333336L54.221874 66.333336L54.221874 59.614586Q53.83125 59.97396 53.20625 60.34896Q52.596874 60.708336 52.1125 60.88021L52.1125 59.864586Q52.9875 59.44271 53.64375 58.864586Q54.315624 58.270836 54.596874 57.708336L55.26875 57.708336L55.26875 66.333336ZM58.89375 66.333336L58.89375 65.13021L60.096874 65.13021L60.096874 66.333336L58.89375 66.333336ZM61.3 62.09896Q61.3 60.56771 61.6125 59.645836Q61.925 58.708336 62.534374 58.208336Q63.159374 57.708336 64.09688 57.708336Q64.78438 57.708336 65.3 57.989586Q65.83125 58.270836 66.175 58.802086Q66.51875 59.31771 66.70625 60.06771Q66.89375 60.81771 66.89375 62.09896Q66.89375 63.614586 66.58125 64.53646Q66.28438 65.458336 65.65938 65.97396Q65.05 66.47396 64.09688 66.47396Q62.8625 66.47396 62.14375 65.583336Q61.3 64.520836 61.3 62.09896ZM62.378124 62.09896Q62.378124 64.208336 62.878124 64.91146Q63.378124 65.614586 64.09688 65.614586Q64.83125 65.614586 65.31563 64.91146Q65.81563 64.208336 65.81563 62.09896Q65.81563 59.97396 65.31563 59.28646Q64.83125 58.583336 64.08125 58.583336Q63.3625 58.583336 62.925 59.19271Q62.378124 59.97396 62.378124 62.09896ZM68.3 62.09896Q68.3 60.56771 68.6125 59.645836Q68.925 58.708336 69.53438 58.208336Q70.15938 57.708336 71.09688 57.708336Q71.78438 57.708336 72.3 57.989586Q72.83125 58.270836 73.175 58.802086Q73.51875 59.31771 73.70625 60.06771Q73.89375 60.81771 73.89375 62.09896Q73.89375 63.614586 73.58125 64.53646Q73.28438 65.458336 72.65938 65.97396Q72.05 66.47396 71.09688 66.47396Q69.8625 66.47396 69.14375 65.583336Q68.3 64.520836 68.3 62.09896ZM69.37813 62.09896Q69.37813 64.208336 69.87813 64.91146Q70.37813 65.614586 71.09688 65.614586Q71.83125 65.614586 72.31563 64.91146Q72.81563 64.208336 72.81563 62.09896Q72.81563 59.97396 72.31563 59.28646Q71.83125 58.583336 71.08125 58.583336Q70.3625 58.583336 69.925 59.19271Q69.37813 59.97396 69.37813 62.09896Z" fill-rule="nonzero"/><path fill="#757575" d="M20.378124 37.8L20.378124 23.4875L30.7375 23.4875L30.7375 25.175L22.284374 25.175L22.284374 29.55L30.190624 29.55L30.190624 31.2375L22.284374 31.2375L22.284374 36.1125L31.065624 36.1125L31.065624 37.8L20.378124 37.8ZM39.89375 36.51875Q38.909374 37.346874 38.003124 37.690624Q37.096874 38.034374 36.065624 38.034374Q34.3625 38.034374 33.440624 37.20625Q32.51875 36.3625 32.51875 35.065624Q32.51875 34.3 32.8625 33.675Q33.221874 33.05 33.784374 32.675Q34.346874 32.284374 35.05 32.08125Q35.565624 31.95625 36.6125 31.815624Q38.7375 31.565624 39.7375 31.221874Q39.753124 30.8625 39.753124 30.753124Q39.753124 29.690624 39.253124 29.2375Q38.58125 28.64375 37.253124 28.64375Q36.003124 28.64375 35.409374 29.08125Q34.83125 29.51875 34.55 30.628124L32.83125 30.39375Q33.065624 29.284374 33.596874 28.6125Q34.128124 27.925 35.14375 27.565624Q36.159374 27.190624 37.503124 27.190624Q38.83125 27.190624 39.659374 27.503124Q40.4875 27.815624 40.878124 28.3Q41.26875 28.76875 41.425 29.4875Q41.51875 29.940624 41.51875 31.1125L41.51875 33.45625Q41.51875 35.909374 41.628124 36.565624Q41.7375 37.20625 42.08125 37.8L40.2375 37.8Q39.971874 37.253124 39.89375 36.51875ZM39.7375 32.596874Q38.784374 32.9875 36.8625 33.253124Q35.784374 33.409374 35.33125 33.6125Q34.89375 33.8 34.64375 34.175Q34.39375 34.55 34.39375 35.01875Q34.39375 35.721874 34.925 36.190624Q35.45625 36.659374 36.4875 36.659374Q37.503124 36.659374 38.284374 36.221874Q39.08125 35.76875 39.45625 35.003124Q39.7375 34.39375 39.7375 33.2375L39.7375 32.596874ZM43.409374 34.70625L45.159374 34.425Q45.3 35.471874 45.971874 36.034374Q46.64375 36.58125 47.846874 36.58125Q49.05 36.58125 49.628124 36.096874Q50.221874 35.596874 50.221874 34.940624Q50.221874 34.346874 49.70625 34.003124Q49.346874 33.76875 47.909374 33.409374Q45.971874 32.909374 45.221874 32.565624Q44.4875 32.20625 44.096874 31.58125Q43.70625 30.940624 43.70625 30.175Q43.70625 29.4875 44.01875 28.89375Q44.346874 28.3 44.89375 27.909374Q45.3 27.6125 46.003124 27.409374Q46.721874 27.190624 47.534374 27.190624Q48.753124 27.190624 49.675 27.55Q50.596874 27.89375 51.034374 28.503124Q51.471874 29.096874 51.64375 30.096874L49.925 30.33125Q49.8 29.534374 49.2375 29.096874Q48.675 28.64375 47.659374 28.64375Q46.440624 28.64375 45.925 29.05Q45.409374 29.440624 45.409374 29.971874Q45.409374 30.315624 45.628124 30.596874Q45.83125 30.878124 46.3 31.065624Q46.565624 31.159374 47.846874 31.503124Q49.721874 32.003124 50.45625 32.33125Q51.190624 32.64375 51.6125 33.253124Q52.034374 33.846874 52.034374 34.753124Q52.034374 35.628124 51.51875 36.409374Q51.003124 37.190624 50.034374 37.6125Q49.065624 38.034374 47.846874 38.034374Q45.83125 38.034374 44.76875 37.190624Q43.70625 36.346874 43.409374 34.70625ZM61.221874 34.45625L63.034374 34.690624Q62.6125 36.26875 61.440624 37.159374Q60.284374 38.034374 58.471874 38.034374Q56.20625 38.034374 54.8625 36.64375Q53.534374 35.2375 53.534374 32.70625Q53.534374 30.08125 54.878124 28.64375Q56.221874 27.190624 58.378124 27.190624Q60.45625 27.190624 61.76875 28.6125Q63.096874 30.01875 63.096874 32.596874Q63.096874 32.753124 63.08125 33.065624L55.346874 33.065624Q55.440624 34.76875 56.315624 35.675Q57.190624 36.58125 58.4875 36.58125Q59.45625 36.58125 60.128124 36.08125Q60.815624 35.565624 61.221874 34.45625ZM55.440624 31.6125L61.2375 31.6125Q61.128124 30.315624 60.58125 29.659374Q59.7375 28.64375 58.39375 28.64375Q57.190624 28.64375 56.3625 29.45625Q55.534374 30.253124 55.440624 31.6125ZM65.65938 37.8L65.65938 23.4875L67.56563 23.4875L67.56563 37.8L65.65938 37.8ZM71.1125 37.8L71.1125 27.425L72.70625 27.425L72.70625 28.909374Q73.84688 27.190624 76.00313 27.190624Q76.94063 27.190624 77.72188 27.534374Q78.51875 27.8625 78.90938 28.409374Q79.3 28.95625 79.45625 29.70625Q79.55 30.20625 79.55 31.425L79.55 37.8L77.78438 37.8L77.78438 31.4875Q77.78438 30.409374 77.58125 29.878124Q77.37813 29.346874 76.84688 29.034374Q76.33125 28.721874 75.62813 28.721874Q74.50313 28.721874 73.69063 29.440624Q72.87813 30.14375 72.87813 32.128124L72.87813 37.8L71.1125 37.8ZM80.76875 30.83125Q80.76875 27.26875 82.675 25.253124Q84.59688 23.221874 87.62813 23.221874Q89.6125 23.221874 91.19063 24.175Q92.78438 25.128124 93.6125 26.83125Q94.45625 28.51875 94.45625 30.659374Q94.45625 32.83125 93.58125 34.55Q92.70625 36.26875 91.08125 37.159374Q89.47188 38.05 87.6125 38.05Q85.59688 38.05 84.00313 37.08125Q82.40938 36.096874 81.58125 34.409374Q80.76875 32.70625 80.76875 30.83125ZM82.72188 30.8625Q82.72188 33.440624 84.1125 34.940624Q85.50313 36.425 87.59688 36.425Q89.7375 36.425 91.1125 34.925Q92.50313 33.409374 92.50313 30.64375Q92.50313 28.909374 91.90938 27.6125Q91.33125 26.3 90.19063 25.58125Q89.05 24.8625 87.62813 24.8625Q85.62813 24.8625 84.175 26.253124Q82.72188 27.628124 82.72188 30.8625ZM103.90938 37.8L103.90938 36.26875Q102.70625 38.034374 100.62813 38.034374Q99.70625 38.034374 98.90938 37.690624Q98.1125 37.33125 97.72188 36.8Q97.34688 36.26875 97.19063 35.4875Q97.08125 34.971874 97.08125 33.846874L97.08125 27.425L98.83125 27.425L98.83125 33.175Q98.83125 34.55 98.94063 35.034374Q99.1125 35.721874 99.64375 36.128124Q100.19063 36.51875 100.97188 36.51875Q101.76875 36.51875 102.45625 36.1125Q103.15938 35.70625 103.44063 35.01875Q103.7375 34.315624 103.7375 32.9875L103.7375 27.425L105.4875 27.425L105.4875 37.8L103.90938 37.8ZM110.95625 36.221874L111.20625 37.784374Q110.47188 37.940624 109.87813 37.940624Q108.925 37.940624 108.39375 37.64375Q107.87813 37.33125 107.65938 36.846874Q107.44063 36.346874 107.44063 34.76875L107.44063 28.8L106.15938 28.8L106.15938 27.425L107.44063 27.425L107.44063 24.8625L109.19063 23.8L109.19063 27.425L110.95625 27.425L110.95625 28.8L109.19063 28.8L109.19063 34.8625Q109.19063 35.6125 109.28438 35.83125Q109.37813 36.034374 109.58125 36.175Q109.8 36.3 110.19063 36.3Q110.47188 36.3 110.95625 36.221874ZM123.56563 32.784374L125.45625 33.253124Q124.8625 35.596874 123.31563 36.83125Q121.76875 38.05 119.51875 38.05Q117.20625 38.05 115.75313 37.1125Q114.31563 36.159374 113.55 34.378124Q112.8 32.58125 112.8 30.534374Q112.8 28.3 113.64375 26.64375Q114.50313 24.971874 116.08125 24.1125Q117.65938 23.2375 119.55 23.2375Q121.70625 23.2375 123.15938 24.33125Q124.62813 25.425 125.20625 27.409374L123.34688 27.846874Q122.84688 26.284374 121.89375 25.58125Q120.95625 24.8625 119.51875 24.8625Q117.8625 24.8625 116.75313 25.659374Q115.64375 26.440624 115.19063 27.784374Q114.75313 29.1125 114.75313 30.51875Q114.75313 32.346874 115.28438 33.721874Q115.81563 35.08125 116.94063 35.753124Q118.06563 36.425 119.3625 36.425Q120.95625 36.425 122.06563 35.503124Q123.175 34.58125 123.56563 32.784374ZM127.12813 25.503124L127.12813 23.4875L128.89375 23.4875L128.89375 25.503124L127.12813 25.503124ZM127.12813 37.8L127.12813 27.425L128.89375 27.425L128.89375 37.8L127.12813 37.8ZM131.09688 37.8L131.09688 27.425L132.675 27.425L132.675 29.003124Q133.28438 27.89375 133.8 27.55Q134.31563 27.190624 134.925 27.190624Q135.81563 27.190624 136.7375 27.753124L136.12813 29.39375Q135.4875 29.003124 134.84688 29.003124Q134.26875 29.003124 133.8 29.3625Q133.34688 29.70625 133.14375 30.315624Q132.8625 31.253124 132.8625 32.3625L132.8625 37.8L131.09688 37.8ZM144.89375 34.003124L146.6125 34.221874Q146.33125 36.01875 145.15938 37.034374Q144.00313 38.034374 142.3 38.034374Q140.175 38.034374 138.87813 36.64375Q137.58125 35.253124 137.58125 32.659374Q137.58125 30.971874 138.12813 29.721874Q138.69063 28.45625 139.83125 27.83125Q140.97188 27.190624 142.31563 27.190624Q144.00313 27.190624 145.06563 28.05Q146.14375 28.909374 146.45625 30.471874L144.7375 30.7375Q144.50313 29.690624 143.87813 29.175Q143.25313 28.64375 142.37813 28.64375Q141.05 28.64375 140.22188 29.596874Q139.39375 30.55 139.39375 32.596874Q139.39375 34.690624 140.19063 35.64375Q140.9875 36.58125 142.28438 36.58125Q143.31563 36.58125 144.00313 35.95625Q144.70625 35.315624 144.89375 34.003124ZM154.90938 37.8L154.90938 36.26875Q153.70625 38.034374 151.62813 38.034374Q150.70625 38.034374 149.90938 37.690624Q149.1125 37.33125 148.72188 36.8Q148.34688 36.26875 148.19063 35.4875Q148.08125 34.971874 148.08125 33.846874L148.08125 27.425L149.83125 27.425L149.83125 33.175Q149.83125 34.55 149.94063 35.034374Q150.1125 35.721874 150.64375 36.128124Q151.19063 36.51875 151.97188 36.51875Q152.76875 36.51875 153.45625 36.1125Q154.15938 35.70625 154.44063 35.01875Q154.7375 34.315624 154.7375 32.9875L154.7375 27.425L156.4875 27.425L156.4875 37.8L154.90938 37.8ZM158.08125 37.8L158.08125 23.4875L159.83125 23.4875L159.83125 37.8L158.08125 37.8ZM168.89375 36.51875Q167.90938 37.346874 167.00313 37.690624Q166.09688 38.034374 165.06563 38.034374Q163.3625 38.034374 162.44063 37.20625Q161.51875 36.3625 161.51875 35.065624Q161.51875 34.3 161.8625 33.675Q162.22188 33.05 162.78438 32.675Q163.34688 32.284374 164.05 32.08125Q164.56563 31.95625 165.6125 31.815624Q167.7375 31.565624 168.7375 31.221874Q168.75313 30.8625 168.75313 30.753124Q168.75313 29.690624 168.25313 29.2375Q167.58125 28.64375 166.25313 28.64375Q165.00313 28.64375 164.40938 29.08125Q163.83125 29.51875 163.55 30.628124L161.83125 30.39375Q162.06563 29.284374 162.59688 28.6125Q163.12813 27.925 164.14375 27.565624Q165.15938 27.190624 166.50313 27.190624Q167.83125 27.190624 168.65938 27.503124Q169.4875 27.815624 169.87813 28.3Q170.26875 28.76875 170.425 29.4875Q170.51875 29.940624 170.51875 31.1125L170.51875 33.45625Q170.51875 35.909374 170.62813 36.565624Q170.7375 37.20625 171.08125 37.8L169.2375 37.8Q168.97188 37.253124 168.89375 36.51875ZM168.7375 32.596874Q167.78438 32.9875 165.8625 33.253124Q164.78438 33.409374 164.33125 33.6125Q163.89375 33.8 163.64375 34.175Q163.39375 34.55 163.39375 35.01875Q163.39375 35.721874 163.925 36.190624Q164.45625 36.659374 165.4875 36.659374Q166.50313 36.659374 167.28438 36.221874Q168.08125 35.76875 168.45625 35.003124Q168.7375 34.39375 168.7375 33.2375L168.7375 32.596874ZM173.09688 37.8L173.09688 27.425L174.675 27.425L174.675 29.003124Q175.28438 27.89375 175.8 27.55Q176.31563 27.190624 176.925 27.190624Q177.81563 27.190624 178.7375 27.753124L178.12813 29.39375Q177.4875 29.003124 176.84688 29.003124Q176.26875 29.003124 175.8 29.3625Q175.34688 29.70625 175.14375 30.315624Q174.8625 31.253124 174.8625 32.3625L174.8625 37.8L173.09688 37.8Z" fill-rule="nonzero"/></svg>