<svg version="1.1" viewBox="0.0 0.0 608.0 376.0" fill="none" stroke="none" stroke-linecap="square" stroke-miterlimit="10" width="608" height="376" xmlns:xlink="http://www.w3.org/1999/xlink" xmlns="http://www.w3.org/2000/svg"><path fill="#ffffff" d="M0 0L608.0 0L608.0 376.0L0 376.0L0 0Z" fill-rule="nonzero"/><path stroke="#333333" stroke-width="1.0" stroke-linecap="butt" d="M80.5 318.5L589.5 318.5" fill-rule="nonzero"/><path stroke="#cccccc" stroke-width="1.0" stroke-linecap="butt" d="M80.5 254.5L589.5 254.5" fill-rule="nonzero"/><path stroke="#cccccc" stroke-width="1.0" stroke-linecap="butt" d="M80.5 190.5L589.5 190.5" fill-rule="nonzero"/><path stroke="#cccccc" stroke-width="1.0" stroke-linecap="butt" d="M80.5 126.5L589.5 126.5" fill-rule="nonzero"/><path stroke="#cccccc" stroke-width="1.0" stroke-linecap="butt" d="M80.5 62.5L589.5 62.5" fill-rule="nonzero"/><path stroke="#000000" stroke-width="1.0" stroke-linecap="butt" d="M80.5 318.5L80.5 62.5" fill-rule="nonzero"/><clipPath id="id_0"><path d="M80.8 62.333332L589.2 62.333332L589.2 318.2L80.8 318.2L80.8 62.333332Z" clip-rule="nonzero"/></clipPath><path stroke="#4285f4" stroke-width="2.0" stroke-linecap="butt" clip-path="url(#id_0)" d="M83.31683 318.2C83.31683 318.2 86.67261 318.20004 88.350494 318.19998C90.02838 318.19992 91.70627 318.19995 93.384155 318.19968C95.06205 318.1994 96.73994 318.19916 98.41782 318.19833C100.09571 318.1975 101.7736 318.19662 103.451485 318.19476C105.12937 318.1929 106.80726 318.19077 108.485146 318.1872C110.16303 318.18365 111.84093 318.17953 113.518814 318.17346C115.1967 318.16742 116.87459 318.1604 118.552475 318.15085C120.23036 318.1413 121.90825 318.13034 123.586136 318.11615C125.26402 318.10196 126.94192 318.08585 128.6198 318.0657C130.29768 318.04556 131.97557 318.02286 133.65347 317.9953C135.33136 317.96774 137.00925 317.93692 138.68713 317.9003C140.36502 317.86368 142.04291 317.82303 143.7208 317.77554C145.39868 317.72806 147.07657 317.6757 148.75446 317.6154C150.43234 317.55505 152.11023 317.48892 153.78812 317.41364C155.466 317.33838 157.14389 317.25626 158.82178 317.16373C160.49966 317.07123 162.17755 316.97073 163.85544 316.85852C165.53334 316.7463 167.21123 316.62494 168.88911 316.4904C170.567 316.35583 172.24489 316.21088 173.92278 316.0512C175.60066 315.89154 177.27855 315.72012 178.95644 315.5324C180.63432 315.3447 182.31221 315.1438 183.9901 314.9249C185.66798 314.70602 187.34587 314.47244 189.02376 314.21912C190.70164 313.9658 192.37953 313.69614 194.05742 313.40494C195.73532 313.11374 197.41321 312.80453 199.0911 312.47183C200.76898 312.13916 202.44687 311.7867 204.12476 311.40875C205.80264 311.03082 207.48053 310.6313 209.15842 310.20416C210.8363 309.77704 212.51419 309.32642 214.19208 308.846C215.86996 308.3656 217.54785 307.85968 219.22574 307.32175C220.90363 306.7838 222.58151 306.2183 224.2594 305.6184C225.93729 305.01852 227.61519 304.38885 229.29308 303.72244C230.97096 303.056 232.64885 302.35754 234.32674 301.61984C236.00462 300.8821 237.68251 300.11005 239.3604 299.29614C241.03828 298.48224 242.71617 297.63153 244.39406 296.73636C246.07195 295.84116 247.74983 294.9067 249.42772 293.925C251.1056 292.94327 252.7835 291.9197 254.46138 290.8461C256.13928 289.77246 257.81717 288.65433 259.49506 287.48322C261.17294 286.31207 262.85083 285.09372 264.52872 283.81937C266.2066 282.54504 267.8845 281.22064 269.56238 279.8372C271.24026 278.4537 272.91815 277.01727 274.59604 275.51865C276.27393 274.02002 277.9518 272.46542 279.6297 270.8454C281.3076 269.22537 282.98547 267.54633 284.66336 265.7985C286.34125 264.0507 288.01913 262.2407 289.69702 260.35855C291.3749 258.4764 293.0528 256.52884 294.73068 254.50566C296.40857 252.48247 298.08646 250.39053 299.76434 248.21942C301.44223 246.04831 303.12012 243.80505 304.79803 241.47897C306.47592 239.1529 308.1538 236.75119 309.8317 234.26294C311.50958 231.77469 313.18747 229.20726 314.86536 226.54945C316.54324 223.89166 318.22113 221.15105 319.89902 218.31618C321.5769 215.48132 323.2548 212.5599 324.93268 209.54027C326.61057 206.52063 328.28845 203.41063 329.96634 200.19836C331.64423 196.9861 333.3221 193.57724 335.0 190.26666C336.6779 186.9561 338.35577 183.54723 340.03366 180.33496C341.71155 177.1227 343.38943 174.01271 345.06732 170.99307C346.7452 167.97343 348.4231 165.05202 350.10098 162.21715C351.77887 159.38228 353.45676 156.64166 355.13464 153.98387C356.81253 151.32608 358.49042 148.75865 360.1683 146.27039C361.8462 143.78214 363.52408 141.38045 365.20197 139.05437C366.87988 136.72829 368.55777 134.48503 370.23566 132.3139C371.91354 130.14279 373.59143 128.05086 375.26932 126.02768C376.9472 124.004486 378.6251 122.056915 380.30298 120.174774C381.98087 118.29263 383.65875 116.482635 385.33664 114.734825C387.01453 112.987015 388.6924 111.30795 390.3703 109.68793C392.0482 108.0679 393.72607 106.513306 395.40396 105.01468C397.08185 103.51605 398.75974 102.07961 400.43762 100.69616C402.1155 99.312706 403.7934 97.98829 405.47128 96.71395C407.14917 95.43961 408.82706 94.221245 410.50494 93.050125C412.18283 91.879005 413.86072 90.76087 415.5386 89.68724C417.2165 88.61361 418.89438 87.59006 420.57227 86.608345C422.25015 85.62663 423.92804 84.69218 425.60593 83.79698C427.2838 82.901794 428.96173 82.05111 430.63962 81.23719C432.3175 80.42328 433.9954 79.65121 435.67328 78.91349C437.35117 78.17578 439.02905 77.47733 440.70694 76.810905C442.38483 76.14448 444.0627 75.51482 445.7406 74.91493C447.4185 74.31504 449.09637 73.74951 450.77426 73.21158C452.45215 72.673645 454.13004 72.16773 455.80792 71.687325C457.4858 71.206924 459.1637 70.756294 460.84158 70.32917C462.51947 69.90204 464.19736 69.50251 465.87524 69.124565C467.55313 68.74662 469.23102 68.39419 470.9089 68.06149C472.5868 67.7288 474.26468 67.41961 475.94257 67.128395C477.62045 66.83719 479.29834 66.56756 480.97623 66.31423C482.6541 66.0609 484.332 65.82731 486.0099 65.60843C487.68777 65.38954 489.36566 65.18864 491.04358 65.000916C492.72147 64.8132 494.39935 64.641785 496.07724 64.482124C497.75513 64.322464 499.433 64.177505 501.1109 64.04295C502.7888 63.9084 504.46667 63.787037 506.14456 63.674812C507.82245 63.562584 509.50034 63.462116 511.17822 63.369595C512.8561 63.277073 514.534 63.194954 516.21185 63.119682C517.8898 63.04441 519.5676 62.978275 521.24554 62.917957C522.92346 62.857643 524.6013 62.805275 526.27924 62.757786C527.9571 62.710297 529.635 62.66965 531.31287 62.633026C532.9908 62.596397 534.66864 62.565594 536.34656 62.538025C538.0244 62.51046 539.70233 62.487774 541.3802 62.467632C543.0581 62.44749 544.73596 62.431366 546.4139 62.417175C548.09174 62.402985 549.76965 62.392033 551.4475 62.38248C553.1254 62.37293 554.8033 62.36592 556.4812 62.359863C558.15906 62.3538 559.837 62.349674 561.51483 62.346127C563.19275 62.34258 564.8706 62.34043 566.5485 62.338573C568.2264 62.336716 569.9043 62.33581 571.58215 62.33499C573.2601 62.33417 574.9379 62.333935 576.61584 62.33366C578.2937 62.33339 579.9716 62.33341 581.6495 62.333355C583.3274 62.333298 586.68317 62.333332 586.68317 62.333332" fill-rule="nonzero"/><path fill="#000000" fill-opacity="0.0" clip-path="url(#id_0)" d="M86.31683 318.2C86.31683 319.85684 84.97369 321.2 83.31683 321.2C81.65998 321.2 80.31683 319.85684 80.31683 318.2C80.31683 316.54315 81.65998 315.2 83.31683 315.2C84.97369 315.2 86.31683 316.54315 86.31683 318.2Z" fill-rule="nonzero"/><path fill="#000000" fill-opacity="0.0" clip-path="url(#id_0)" d="M91.350494 318.19998C91.350494 319.85684 90.00735 321.19998 88.350494 321.19998C86.69364 321.19998 85.350494 319.85684 85.350494 318.19998C85.350494 316.54312 86.69364 315.19998 88.350494 315.19998C90.00735 315.19998 91.350494 316.54312 91.350494 318.19998Z" fill-rule="nonzero"/><path fill="#000000" fill-opacity="0.0" clip-path="url(#id_0)" d="M96.384155 318.19968C96.384155 319.85654 95.041016 321.19968 93.384155 321.19968C91.7273 321.19968 90.384155 319.85654 90.384155 318.19968C90.384155 316.54282 91.7273 315.19968 93.384155 315.19968C95.041016 315.19968 96.384155 316.54282 96.384155 318.19968Z" fill-rule="nonzero"/><path fill="#000000" fill-opacity="0.0" clip-path="url(#id_0)" d="M101.41782 318.19833C101.41782 319.8552 100.07468 321.19833 98.41782 321.19833C96.76097 321.19833 95.41782 319.8552 95.41782 318.19833C95.41782 316.54147 96.76097 315.19833 98.41782 315.19833C100.07468 315.19833 101.41782 316.54147 101.41782 318.19833Z" fill-rule="nonzero"/><path fill="#000000" fill-opacity="0.0" clip-path="url(#id_0)" d="M106.451485 318.19476C106.451485 319.85162 105.10834 321.19476 103.451485 321.19476C101.79463 321.19476 100.451485 319.85162 100.451485 318.19476C100.451485 316.5379 101.79463 315.19476 103.451485 315.19476C105.10834 315.19476 106.451485 316.5379 106.451485 318.19476Z" fill-rule="nonzero"/><path fill="#000000" fill-opacity="0.0" clip-path="url(#id_0)" d="M111.485146 318.1872C111.485146 319.84406 110.142006 321.1872 108.485146 321.1872C106.82829 321.1872 105.485146 319.84406 105.485146 318.1872C105.485146 316.53036 106.82829 315.1872 108.485146 315.1872C110.142006 315.1872 111.485146 316.53036 111.485146 318.1872Z" fill-rule="nonzero"/><path fill="#000000" fill-opacity="0.0" clip-path="url(#id_0)" d="M116.518814 318.17346C116.518814 319.83032 115.17567 321.17346 113.518814 321.17346C111.86196 321.17346 110.518814 319.83032 110.518814 318.17346C110.518814 316.51663 111.86196 315.17346 113.518814 315.17346C115.17567 315.17346 116.518814 316.51663 116.518814 318.17346Z" fill-rule="nonzero"/><path fill="#000000" fill-opacity="0.0" clip-path="url(#id_0)" d="M121.552475 318.15085C121.552475 319.8077 120.20933 321.15085 118.552475 321.15085C116.89562 321.15085 115.552475 319.8077 115.552475 318.15085C115.552475 316.494 116.89562 315.15085 118.552475 315.15085C120.20933 315.15085 121.552475 316.494 121.552475 318.15085Z" fill-rule="nonzero"/><path fill="#000000" fill-opacity="0.0" clip-path="url(#id_0)" d="M126.586136 318.11615C126.586136 319.773 125.243 321.11615 123.586136 321.11615C121.92928 321.11615 120.586136 319.773 120.586136 318.11615C120.586136 316.4593 121.92928 315.11615 123.586136 315.11615C125.243 315.11615 126.586136 316.4593 126.586136 318.11615Z" fill-rule="nonzero"/><path fill="#000000" fill-opacity="0.0" clip-path="url(#id_0)" d="M131.6198 318.0657C131.6198 319.72256 130.27666 321.0657 128.6198 321.0657C126.962944 321.0657 125.619804 319.72256 125.619804 318.0657C125.619804 316.40884 126.962944 315.0657 128.6198 315.0657C130.27666 315.0657 131.6198 316.40884 131.6198 318.0657Z" fill-rule="nonzero"/><path fill="#000000" fill-opacity="0.0" clip-path="url(#id_0)" d="M136.65347 317.9953C136.65347 319.65216 135.31032 320.9953 133.65347 320.9953C131.99661 320.9953 130.65347 319.65216 130.65347 317.9953C130.65347 316.33844 131.99661 314.9953 133.65347 314.9953C135.31032 314.9953 136.65347 316.33844 136.65347 317.9953Z" fill-rule="nonzero"/><path fill="#000000" fill-opacity="0.0" clip-path="url(#id_0)" d="M141.68713 317.9003C141.68713 319.55716 140.34398 320.9003 138.68713 320.9003C137.03027 320.9003 135.68713 319.55716 135.68713 317.9003C135.68713 316.24347 137.03027 314.9003 138.68713 314.9003C140.34398 314.9003 141.68713 316.24347 141.68713 317.9003Z" fill-rule="nonzero"/><path fill="#000000" fill-opacity="0.0" clip-path="url(#id_0)" d="M146.7208 317.77554C146.7208 319.4324 145.37764 320.77554 143.7208 320.77554C142.06393 320.77554 140.7208 319.4324 140.7208 317.77554C140.7208 316.11868 142.06393 314.77554 143.7208 314.77554C145.37764 314.77554 146.7208 316.11868 146.7208 317.77554Z" fill-rule="nonzero"/><path fill="#000000" fill-opacity="0.0" clip-path="url(#id_0)" d="M151.75446 317.6154C151.75446 319.27222 150.41132 320.6154 148.75446 320.6154C147.0976 320.6154 145.75446 319.27222 145.75446 317.6154C145.75446 315.95853 147.0976 314.6154 148.75446 314.6154C150.41132 314.6154 151.75446 315.95853 151.75446 317.6154Z" fill-rule="nonzero"/><path fill="#000000" fill-opacity="0.0" clip-path="url(#id_0)" d="M156.78812 317.41364C156.78812 319.0705 155.44498 320.41364 153.78812 320.41364C152.13127 320.41364 150.78812 319.0705 150.78812 317.41364C150.78812 315.7568 152.13127 314.41364 153.78812 314.41364C155.44498 314.41364 156.78812 315.7568 156.78812 317.41364Z" fill-rule="nonzero"/><path fill="#000000" fill-opacity="0.0" clip-path="url(#id_0)" d="M161.82178 317.16373C161.82178 318.8206 160.47864 320.16373 158.82178 320.16373C157.16493 320.16373 155.82178 318.8206 155.82178 317.16373C155.82178 315.5069 157.16493 314.16373 158.82178 314.16373C160.47864 314.16373 161.82178 315.5069 161.82178 317.16373Z" fill-rule="nonzero"/><path fill="#000000" fill-opacity="0.0" clip-path="url(#id_0)" d="M166.85544 316.85852C166.85544 318.51538 165.5123 319.85852 163.85544 319.85852C162.1986 319.85852 160.85544 318.51538 160.85544 316.85852C160.85544 315.20166 162.1986 313.85852 163.85544 313.85852C165.5123 313.85852 166.85544 315.20166 166.85544 316.85852Z" fill-rule="nonzero"/><path fill="#000000" fill-opacity="0.0" clip-path="url(#id_0)" d="M171.88911 316.4904C171.88911 318.14725 170.54596 319.4904 168.88911 319.4904C167.23225 319.4904 165.88911 318.14725 165.88911 316.4904C165.88911 314.83353 167.23225 313.4904 168.88911 313.4904C170.54596 313.4904 171.88911 314.83353 171.88911 316.4904Z" fill-rule="nonzero"/><path fill="#000000" fill-opacity="0.0" clip-path="url(#id_0)" d="M176.92278 316.0512C176.92278 317.70807 175.57962 319.0512 173.92278 319.0512C172.26591 319.0512 170.92278 317.70807 170.92278 316.0512C170.92278 314.39435 172.26591 313.0512 173.92278 313.0512C175.57962 313.0512 176.92278 314.39435 176.92278 316.0512Z" fill-rule="nonzero"/><path fill="#000000" fill-opacity="0.0" clip-path="url(#id_0)" d="M181.95644 315.5324C181.95644 317.18927 180.6133 318.5324 178.95644 318.5324C177.29958 318.5324 175.95644 317.18927 175.95644 315.5324C175.95644 313.87555 177.29958 312.5324 178.95644 312.5324C180.6133 312.5324 181.95644 313.87555 181.95644 315.5324Z" fill-rule="nonzero"/><path fill="#000000" fill-opacity="0.0" clip-path="url(#id_0)" d="M186.9901 314.9249C186.9901 316.58176 185.64696 317.9249 183.9901 317.9249C182.33325 317.9249 180.9901 316.58176 180.9901 314.9249C180.9901 313.26807 182.33325 311.9249 183.9901 311.9249C185.64696 311.9249 186.9901 313.26807 186.9901 314.9249Z" fill-rule="nonzero"/><path fill="#000000" fill-opacity="0.0" clip-path="url(#id_0)" d="M192.02376 314.21912C192.02376 315.87595 190.68062 317.21912 189.02376 317.21912C187.36691 317.21912 186.02376 315.87595 186.02376 314.21912C186.02376 312.56226 187.36691 311.21912 189.02376 311.21912C190.68062 311.21912 192.02376 312.56226 192.02376 314.21912Z" fill-rule="nonzero"/><path fill="#000000" fill-opacity="0.0" clip-path="url(#id_0)" d="M197.05742 313.40494C197.05742 315.0618 195.71428 316.40494 194.05742 316.40494C192.40057 316.40494 191.05742 315.0618 191.05742 313.40494C191.05742 311.74808 192.40057 310.40494 194.05742 310.40494C195.71428 310.40494 197.05742 311.74808 197.05742 313.40494Z" fill-rule="nonzero"/><path fill="#000000" fill-opacity="0.0" clip-path="url(#id_0)" d="M202.0911 312.47183C202.0911 314.1287 200.74794 315.47183 199.0911 315.47183C197.43423 315.47183 196.0911 314.1287 196.0911 312.47183C196.0911 310.81497 197.43423 309.47183 199.0911 309.47183C200.74794 309.47183 202.0911 310.81497 202.0911 312.47183Z" fill-rule="nonzero"/><path fill="#000000" fill-opacity="0.0" clip-path="url(#id_0)" d="M207.12476 311.40875C207.12476 313.0656 205.7816 314.40875 204.12476 314.40875C202.4679 314.40875 201.12476 313.0656 201.12476 311.40875C201.12476 309.75192 202.4679 308.40875 204.12476 308.40875C205.7816 308.40875 207.12476 309.75192 207.12476 311.40875Z" fill-rule="nonzero"/><path fill="#000000" fill-opacity="0.0" clip-path="url(#id_0)" d="M212.15842 310.20416C212.15842 311.86102 210.81528 313.20416 209.15842 313.20416C207.50156 313.20416 206.15842 311.86102 206.15842 310.20416C206.15842 308.5473 207.50156 307.20416 209.15842 307.20416C210.81528 307.20416 212.15842 308.5473 212.15842 310.20416Z" fill-rule="nonzero"/><path fill="#000000" fill-opacity="0.0" clip-path="url(#id_0)" d="M217.19208 308.846C217.19208 310.50287 215.84894 311.846 214.19208 311.846C212.53523 311.846 211.19208 310.50287 211.19208 308.846C211.19208 307.18915 212.53523 305.846 214.19208 305.846C215.84894 305.846 217.19208 307.18915 217.19208 308.846Z" fill-rule="nonzero"/><path fill="#000000" fill-opacity="0.0" clip-path="url(#id_0)" d="M222.22574 307.32175C222.22574 308.9786 220.8826 310.32175 219.22574 310.32175C217.5689 310.32175 216.22574 308.9786 216.22574 307.32175C216.22574 305.66492 217.5689 304.32175 219.22574 304.32175C220.8826 304.32175 222.22574 305.66492 222.22574 307.32175Z" fill-rule="nonzero"/><path fill="#000000" fill-opacity="0.0" clip-path="url(#id_0)" d="M227.2594 305.6184C227.2594 307.27527 225.91626 308.6184 224.2594 308.6184C222.60255 308.6184 221.2594 307.27527 221.2594 305.6184C221.2594 303.96155 222.60255 302.6184 224.2594 302.6184C225.91626 302.6184 227.2594 303.96155 227.2594 305.6184Z" fill-rule="nonzero"/><path fill="#000000" fill-opacity="0.0" clip-path="url(#id_0)" d="M232.29308 303.72244C232.29308 305.37927 230.94992 306.72244 229.29308 306.72244C227.63622 306.72244 226.29308 305.37927 226.29308 303.72244C226.29308 302.06558 227.63622 300.72244 229.29308 300.72244C230.94992 300.72244 232.29308 302.06558 232.29308 303.72244Z" fill-rule="nonzero"/><path fill="#000000" fill-opacity="0.0" clip-path="url(#id_0)" d="M237.32674 301.61984C237.32674 303.2767 235.98358 304.61984 234.32674 304.61984C232.66988 304.61984 231.32674 303.2767 231.32674 301.61984C231.32674 299.96298 232.66988 298.61984 234.32674 298.61984C235.98358 298.61984 237.32674 299.96298 237.32674 301.61984Z" fill-rule="nonzero"/><path fill="#000000" fill-opacity="0.0" clip-path="url(#id_0)" d="M242.3604 299.29614C242.3604 300.953 241.01726 302.29614 239.3604 302.29614C237.70354 302.29614 236.3604 300.953 236.3604 299.29614C236.3604 297.63928 237.70354 296.29614 239.3604 296.29614C241.01726 296.29614 242.3604 297.63928 242.3604 299.29614Z" fill-rule="nonzero"/><path fill="#000000" fill-opacity="0.0" clip-path="url(#id_0)" d="M247.39406 296.73636C247.39406 298.3932 246.05092 299.73636 244.39406 299.73636C242.7372 299.73636 241.39406 298.3932 241.39406 296.73636C241.39406 295.0795 242.7372 293.73636 244.39406 293.73636C246.05092 293.73636 247.39406 295.0795 247.39406 296.73636Z" fill-rule="nonzero"/><path fill="#000000" fill-opacity="0.0" clip-path="url(#id_0)" d="M252.42772 293.925C252.42772 295.58185 251.08458 296.925 249.42772 296.925C247.77087 296.925 246.42772 295.58185 246.42772 293.925C246.42772 292.26813 247.77087 290.925 249.42772 290.925C251.08458 290.925 252.42772 292.26813 252.42772 293.925Z" fill-rule="nonzero"/><path fill="#000000" fill-opacity="0.0" clip-path="url(#id_0)" d="M257.4614 290.8461C257.4614 292.50296 256.11826 293.8461 254.46138 293.8461C252.80453 293.8461 251.46138 292.50296 251.46138 290.8461C251.46138 289.18924 252.80453 287.8461 254.46138 287.8461C256.11826 287.8461 257.4614 289.18924 257.4614 290.8461Z" fill-rule="nonzero"/><path fill="#000000" fill-opacity="0.0" clip-path="url(#id_0)" d="M262.49506 287.48322C262.49506 289.14008 261.15192 290.48322 259.49506 290.48322C257.8382 290.48322 256.49506 289.14008 256.49506 287.48322C256.49506 285.82635 257.8382 284.48322 259.49506 284.48322C261.15192 284.48322 262.49506 285.82635 262.49506 287.48322Z" fill-rule="nonzero"/><path fill="#000000" fill-opacity="0.0" clip-path="url(#id_0)" d="M267.52872 283.81937C267.52872 285.47623 266.18558 286.81937 264.52872 286.81937C262.87186 286.81937 261.52872 285.47623 261.52872 283.81937C261.52872 282.16254 262.87186 280.81937 264.52872 280.81937C266.18558 280.81937 267.52872 282.16254 267.52872 283.81937Z" fill-rule="nonzero"/><path fill="#000000" fill-opacity="0.0" clip-path="url(#id_0)" d="M272.56238 279.8372C272.56238 281.49402 271.21924 282.8372 269.56238 282.8372C267.90552 282.8372 266.56238 281.49402 266.56238 279.8372C266.56238 278.18033 267.90552 276.8372 269.56238 276.8372C271.21924 276.8372 272.56238 278.18033 272.56238 279.8372Z" fill-rule="nonzero"/><path fill="#000000" fill-opacity="0.0" clip-path="url(#id_0)" d="M277.59604 275.51865C277.59604 277.1755 276.2529 278.51865 274.59604 278.51865C272.93918 278.51865 271.59604 277.1755 271.59604 275.51865C271.59604 273.86182 272.93918 272.51865 274.59604 272.51865C276.2529 272.51865 277.59604 273.86182 277.59604 275.51865Z" fill-rule="nonzero"/><path fill="#000000" fill-opacity="0.0" clip-path="url(#id_0)" d="M282.6297 270.8454C282.6297 272.50226 281.28656 273.8454 279.6297 273.8454C277.97284 273.8454 276.6297 272.50226 276.6297 270.8454C276.6297 269.18854 277.97284 267.8454 279.6297 267.8454C281.28656 267.8454 282.6297 269.18854 282.6297 270.8454Z" fill-rule="nonzero"/><path fill="#000000" fill-opacity="0.0" clip-path="url(#id_0)" d="M287.66336 265.7985C287.66336 267.45535 286.32022 268.7985 284.66336 268.7985C283.0065 268.7985 281.66336 267.45535 281.66336 265.7985C281.66336 264.14166 283.0065 262.7985 284.66336 262.7985C286.32022 262.7985 287.66336 264.14166 287.66336 265.7985Z" fill-rule="nonzero"/><path fill="#000000" fill-opacity="0.0" clip-path="url(#id_0)" d="M292.69702 260.35855C292.69702 262.0154 291.35388 263.35855 289.69702 263.35855C288.04016 263.35855 286.69702 262.0154 286.69702 260.35855C286.69702 258.7017 288.04016 257.35855 289.69702 257.35855C291.35388 257.35855 292.69702 258.7017 292.69702 260.35855Z" fill-rule="nonzero"/><path fill="#000000" fill-opacity="0.0" clip-path="url(#id_0)" d="M297.73068 254.50566C297.73068 256.1625 296.38754 257.50565 294.73068 257.50565C293.07385 257.50565 291.73068 256.1625 291.73068 254.50566C291.73068 252.8488 293.07385 251.50566 294.73068 251.50566C296.38754 251.50566 297.73068 252.8488 297.73068 254.50566Z" fill-rule="nonzero"/><path fill="#000000" fill-opacity="0.0" clip-path="url(#id_0)" d="M302.76434 248.21942C302.76434 249.87628 301.4212 251.21942 299.76434 251.21942C298.1075 251.21942 296.76434 249.87628 296.76434 248.21942C296.76434 246.56256 298.1075 245.21942 299.76434 245.21942C301.4212 245.21942 302.76434 246.56256 302.76434 248.21942Z" fill-rule="nonzero"/><path fill="#000000" fill-opacity="0.0" clip-path="url(#id_0)" d="M307.79803 241.47897C307.79803 243.13583 306.45486 244.47897 304.79803 244.47897C303.14117 244.47897 301.79803 243.13583 301.79803 241.47897C301.79803 239.82211 303.14117 238.47897 304.79803 238.47897C306.45486 238.47897 307.79803 239.82211 307.79803 241.47897Z" fill-rule="nonzero"/><path fill="#000000" fill-opacity="0.0" clip-path="url(#id_0)" d="M312.8317 234.26294C312.8317 235.9198 311.48853 237.26294 309.8317 237.26294C308.17484 237.26294 306.8317 235.9198 306.8317 234.26294C306.8317 232.60608 308.17484 231.26294 309.8317 231.26294C311.48853 231.26294 312.8317 232.60608 312.8317 234.26294Z" fill-rule="nonzero"/><path fill="#000000" fill-opacity="0.0" clip-path="url(#id_0)" d="M317.86536 226.54945C317.86536 228.20631 316.5222 229.54945 314.86536 229.54945C313.2085 229.54945 311.86536 228.20631 311.86536 226.54945C311.86536 224.89261 313.2085 223.54945 314.86536 223.54945C316.5222 223.54945 317.86536 224.89261 317.86536 226.54945Z" fill-rule="nonzero"/><path fill="#000000" fill-opacity="0.0" clip-path="url(#id_0)" d="M322.89902 218.31618C322.89902 219.97304 321.55588 221.31618 319.89902 221.31618C318.24216 221.31618 316.89902 219.97304 316.89902 218.31618C316.89902 216.65933 318.24216 215.31618 319.89902 215.31618C321.55588 215.31618 322.89902 216.65933 322.89902 218.31618Z" fill-rule="nonzero"/><path fill="#000000" fill-opacity="0.0" clip-path="url(#id_0)" d="M327.93268 209.54027C327.93268 211.19711 326.58954 212.54027 324.93268 212.54027C323.27582 212.54027 321.93268 211.19711 321.93268 209.54027C321.93268 207.8834 323.27582 206.54027 324.93268 206.54027C326.58954 206.54027 327.93268 207.8834 327.93268 209.54027Z" fill-rule="nonzero"/><path fill="#000000" fill-opacity="0.0" clip-path="url(#id_0)" d="M332.96634 200.19836C332.96634 201.85522 331.6232 203.19836 329.96634 203.19836C328.30948 203.19836 326.96634 201.85522 326.96634 200.19836C326.96634 198.54152 328.30948 197.19836 329.96634 197.19836C331.6232 197.19836 332.96634 198.54152 332.96634 200.19836Z" fill-rule="nonzero"/><path fill="#000000" fill-opacity="0.0" clip-path="url(#id_0)" d="M338.0 190.26666C338.0 191.92352 336.65686 193.26666 335.0 193.26666C333.34314 193.26666 332.0 191.92352 332.0 190.26666C332.0 188.60982 333.34314 187.26666 335.0 187.26666C336.65686 187.26666 338.0 188.60982 338.0 190.26666Z" fill-rule="nonzero"/><path fill="#000000" fill-opacity="0.0" clip-path="url(#id_0)" d="M343.03366 180.33496C343.03366 181.99182 341.69052 183.33496 340.03366 183.33496C338.3768 183.33496 337.03366 181.99182 337.03366 180.33496C337.03366 178.67812 338.3768 177.33496 340.03366 177.33496C341.69052 177.33496 343.03366 178.67812 343.03366 180.33496Z" fill-rule="nonzero"/><path fill="#000000" fill-opacity="0.0" clip-path="url(#id_0)" d="M348.06732 170.99307C348.06732 172.64992 346.72418 173.99307 345.06732 173.99307C343.41046 173.99307 342.06732 172.64992 342.06732 170.99307C342.06732 169.33621 343.41046 167.99307 345.06732 167.99307C346.72418 167.99307 348.06732 169.33621 348.06732 170.99307Z" fill-rule="nonzero"/><path fill="#000000" fill-opacity="0.0" clip-path="url(#id_0)" d="M353.10098 162.21715C353.10098 163.87401 351.75784 165.21715 350.10098 165.21715C348.44412 165.21715 347.10098 163.87401 347.10098 162.21715C347.10098 160.5603 348.44412 159.21715 350.10098 159.21715C351.75784 159.21715 353.10098 160.5603 353.10098 162.21715Z" fill-rule="nonzero"/><path fill="#000000" fill-opacity="0.0" clip-path="url(#id_0)" d="M358.13464 153.98387C358.13464 155.64073 356.7915 156.98387 355.13464 156.98387C353.4778 156.98387 352.13464 155.64073 352.13464 153.98387C352.13464 152.32701 353.4778 150.98387 355.13464 150.98387C356.7915 150.98387 358.13464 152.32701 358.13464 153.98387Z" fill-rule="nonzero"/><path fill="#000000" fill-opacity="0.0" clip-path="url(#id_0)" d="M363.1683 146.27039C363.1683 147.92725 361.82516 149.27039 360.1683 149.27039C358.51147 149.27039 357.1683 147.92725 357.1683 146.27039C357.1683 144.61354 358.51147 143.27039 360.1683 143.27039C361.82516 143.27039 363.1683 144.61354 363.1683 146.27039Z" fill-rule="nonzero"/><path fill="#000000" fill-opacity="0.0" clip-path="url(#id_0)" d="M368.20197 139.05437C368.20197 140.71121 366.85883 142.05437 365.20197 142.05437C363.54514 142.05437 362.20197 140.71121 362.20197 139.05437C362.20197 137.3975 363.54514 136.05437 365.20197 136.05437C366.85883 136.05437 368.20197 137.3975 368.20197 139.05437Z" fill-rule="nonzero"/><path fill="#000000" fill-opacity="0.0" clip-path="url(#id_0)" d="M373.23566 132.3139C373.23566 133.97076 371.8925 135.3139 370.23566 135.3139C368.5788 135.3139 367.23566 133.97076 367.23566 132.3139C367.23566 130.65706 368.5788 129.3139 370.23566 129.3139C371.8925 129.3139 373.23566 130.65706 373.23566 132.3139Z" fill-rule="nonzero"/><path fill="#000000" fill-opacity="0.0" clip-path="url(#id_0)" d="M378.26932 126.02768C378.26932 127.68453 376.92615 129.02768 375.26932 129.02768C373.61246 129.02768 372.26932 127.68453 372.26932 126.02768C372.26932 124.37082 373.61246 123.02768 375.26932 123.02768C376.92615 123.02768 378.26932 124.37082 378.26932 126.02768Z" fill-rule="nonzero"/><path fill="#000000" fill-opacity="0.0" clip-path="url(#id_0)" d="M383.30298 120.174774C383.30298 121.831635 381.95984 123.174774 380.30298 123.174774C378.64612 123.174774 377.30298 121.831635 377.30298 120.174774C377.30298 118.51792 378.64612 117.174774 380.30298 117.174774C381.95984 117.174774 383.30298 118.51792 383.30298 120.174774Z" fill-rule="nonzero"/><path fill="#000000" fill-opacity="0.0" clip-path="url(#id_0)" d="M388.33664 114.734825C388.33664 116.39168 386.9935 117.734825 385.33664 117.734825C383.67978 117.734825 382.33664 116.39168 382.33664 114.734825C382.33664 113.07797 383.67978 111.734825 385.33664 111.734825C386.9935 111.734825 388.33664 113.07797 388.33664 114.734825Z" fill-rule="nonzero"/><path fill="#000000" fill-opacity="0.0" clip-path="url(#id_0)" d="M393.3703 109.68793C393.3703 111.34478 392.02716 112.68793 390.3703 112.68793C388.71344 112.68793 387.3703 111.34478 387.3703 109.68793C387.3703 108.031075 388.71344 106.68793 390.3703 106.68793C392.02716 106.68793 393.3703 108.031075 393.3703 109.68793Z" fill-rule="nonzero"/><path fill="#000000" fill-opacity="0.0" clip-path="url(#id_0)" d="M398.40396 105.01468C398.40396 106.67153 397.06082 108.01468 395.40396 108.01468C393.7471 108.01468 392.40396 106.67153 392.40396 105.01468C392.40396 103.35783 393.7471 102.01468 395.40396 102.01468C397.06082 102.01468 398.40396 103.35783 398.40396 105.01468Z" fill-rule="nonzero"/><path fill="#000000" fill-opacity="0.0" clip-path="url(#id_0)" d="M403.43762 100.69616C403.43762 102.35301 402.09448 103.69616 400.43762 103.69616C398.78076 103.69616 397.43762 102.35301 397.43762 100.69616C397.43762 99.03931 398.78076 97.69616 400.43762 97.69616C402.09448 97.69616 403.43762 99.03931 403.43762 100.69616Z" fill-rule="nonzero"/><path fill="#000000" fill-opacity="0.0" clip-path="url(#id_0)" d="M408.47128 96.71395C408.47128 98.370804 407.12814 99.71395 405.47128 99.71395C403.81442 99.71395 402.47128 98.370804 402.47128 96.71395C402.47128 95.0571 403.81442 93.71395 405.47128 93.71395C407.12814 93.71395 408.47128 95.0571 408.47128 96.71395Z" fill-rule="nonzero"/><path fill="#000000" fill-opacity="0.0" clip-path="url(#id_0)" d="M413.50494 93.050125C413.50494 94.70698 412.1618 96.050125 410.50494 96.050125C408.84808 96.050125 407.50494 94.70698 407.50494 93.050125C407.50494 91.39327 408.84808 90.050125 410.50494 90.050125C412.1618 90.050125 413.50494 91.39327 413.50494 93.050125Z" fill-rule="nonzero"/><path fill="#000000" fill-opacity="0.0" clip-path="url(#id_0)" d="M418.5386 89.68724C418.5386 91.34409 417.19547 92.68724 415.5386 92.68724C413.88174 92.68724 412.5386 91.34409 412.5386 89.68724C412.5386 88.03039 413.88174 86.68724 415.5386 86.68724C417.19547 86.68724 418.5386 88.03039 418.5386 89.68724Z" fill-rule="nonzero"/><path fill="#000000" fill-opacity="0.0" clip-path="url(#id_0)" d="M423.57227 86.608345C423.57227 88.2652 422.22913 89.608345 420.57227 89.608345C418.91544 89.608345 417.57227 88.2652 417.57227 86.608345C417.57227 84.95149 418.91544 83.608345 420.57227 83.608345C422.22913 83.608345 423.57227 84.95149 423.57227 86.608345Z" fill-rule="nonzero"/><path fill="#000000" fill-opacity="0.0" clip-path="url(#id_0)" d="M428.60593 83.79698C428.60593 85.45384 427.2628 86.79698 425.60593 86.79698C423.9491 86.79698 422.60593 85.45384 422.60593 83.79698C422.60593 82.14013 423.9491 80.79698 425.60593 80.79698C427.2628 80.79698 428.60593 82.14013 428.60593 83.79698Z" fill-rule="nonzero"/><path fill="#000000" fill-opacity="0.0" clip-path="url(#id_0)" d="M433.63962 81.23719C433.63962 82.89404 432.29645 84.23719 430.63962 84.23719C428.98276 84.23719 427.63962 82.89404 427.63962 81.23719C427.63962 79.58034 428.98276 78.23719 430.63962 78.23719C432.29645 78.23719 433.63962 79.58034 433.63962 81.23719Z" fill-rule="nonzero"/><path fill="#000000" fill-opacity="0.0" clip-path="url(#id_0)" d="M438.67328 78.91349C438.67328 80.57035 437.3301 81.91349 435.67328 81.91349C434.01642 81.91349 432.67328 80.57035 432.67328 78.91349C432.67328 77.25664 434.01642 75.91349 435.67328 75.91349C437.3301 75.91349 438.67328 77.25664 438.67328 78.91349Z" fill-rule="nonzero"/><path fill="#000000" fill-opacity="0.0" clip-path="url(#id_0)" d="M443.70694 76.810905C443.70694 78.46776 442.3638 79.810905 440.70694 79.810905C439.05008 79.810905 437.70694 78.46776 437.70694 76.810905C437.70694 75.15405 439.05008 73.810905 440.70694 73.810905C442.3638 73.810905 443.70694 75.15405 443.70694 76.810905Z" fill-rule="nonzero"/><path fill="#000000" fill-opacity="0.0" clip-path="url(#id_0)" d="M448.7406 74.91493C448.7406 76.571785 447.39746 77.91493 445.7406 77.91493C444.08374 77.91493 442.7406 76.571785 442.7406 74.91493C442.7406 73.25808 444.08374 71.91493 445.7406 71.91493C447.39746 71.91493 448.7406 73.25808 448.7406 74.91493Z" fill-rule="nonzero"/><path fill="#000000" fill-opacity="0.0" clip-path="url(#id_0)" d="M453.77426 73.21158C453.77426 74.86843 452.43112 76.21158 450.77426 76.21158C449.1174 76.21158 447.77426 74.86843 447.77426 73.21158C447.77426 71.554726 449.1174 70.21158 450.77426 70.21158C452.43112 70.21158 453.77426 71.554726 453.77426 73.21158Z" fill-rule="nonzero"/><path fill="#000000" fill-opacity="0.0" clip-path="url(#id_0)" d="M458.80792 71.687325C458.80792 73.344185 457.46478 74.687325 455.80792 74.687325C454.15106 74.687325 452.80792 73.344185 452.80792 71.687325C452.80792 70.03047 454.15106 68.687325 455.80792 68.687325C457.46478 68.687325 458.80792 70.03047 458.80792 71.687325Z" fill-rule="nonzero"/><path fill="#000000" fill-opacity="0.0" clip-path="url(#id_0)" d="M463.84158 70.32917C463.84158 71.98602 462.49844 73.32917 460.84158 73.32917C459.18472 73.32917 457.84158 71.98602 457.84158 70.32917C457.84158 68.67231 459.18472 67.32917 460.84158 67.32917C462.49844 67.32917 463.84158 68.67231 463.84158 70.32917Z" fill-rule="nonzero"/><path fill="#000000" fill-opacity="0.0" clip-path="url(#id_0)" d="M468.87524 69.124565C468.87524 70.78142 467.5321 72.124565 465.87524 72.124565C464.21838 72.124565 462.87524 70.78142 462.87524 69.124565C462.87524 67.46771 464.21838 66.124565 465.87524 66.124565C467.5321 66.124565 468.87524 67.46771 468.87524 69.124565Z" fill-rule="nonzero"/><path fill="#000000" fill-opacity="0.0" clip-path="url(#id_0)" d="M473.9089 68.06149C473.9089 69.718346 472.56577 71.06149 470.9089 71.06149C469.25204 71.06149 467.9089 69.718346 467.9089 68.06149C467.9089 66.40464 469.25204 65.06149 470.9089 65.06149C472.56577 65.06149 473.9089 66.40464 473.9089 68.06149Z" fill-rule="nonzero"/><path fill="#000000" fill-opacity="0.0" clip-path="url(#id_0)" d="M478.94257 67.128395C478.94257 68.785255 477.59943 70.128395 475.94257 70.128395C474.2857 70.128395 472.94257 68.785255 472.94257 67.128395C472.94257 65.47154 474.2857 64.128395 475.94257 64.128395C477.59943 64.128395 478.94257 65.47154 478.94257 67.128395Z" fill-rule="nonzero"/><path fill="#000000" fill-opacity="0.0" clip-path="url(#id_0)" d="M483.97623 66.31423C483.97623 67.971085 482.6331 69.31423 480.97623 69.31423C479.3194 69.31423 477.97623 67.971085 477.97623 66.31423C477.97623 64.65738 479.3194 63.314228 480.97623 63.314228C482.6331 63.314228 483.97623 64.65738 483.97623 66.31423Z" fill-rule="nonzero"/><path fill="#000000" fill-opacity="0.0" clip-path="url(#id_0)" d="M489.0099 65.60843C489.0099 67.26528 487.66675 68.60843 486.0099 68.60843C484.35306 68.60843 483.0099 67.26528 483.0099 65.60843C483.0099 63.951572 484.35306 62.608425 486.0099 62.608425C487.66675 62.608425 489.0099 63.951572 489.0099 65.60843Z" fill-rule="nonzero"/><path fill="#000000" fill-opacity="0.0" clip-path="url(#id_0)" d="M494.04358 65.000916C494.04358 66.65777 492.7004 68.000916 491.04358 68.000916C489.38672 68.000916 488.04358 66.65777 488.04358 65.000916C488.04358 63.344063 489.38672 62.000916 491.04358 62.000916C492.7004 62.000916 494.04358 63.344063 494.04358 65.000916Z" fill-rule="nonzero"/><path fill="#000000" fill-opacity="0.0" clip-path="url(#id_0)" d="M499.07724 64.482124C499.07724 66.13898 497.73407 67.482124 496.07724 67.482124C494.42038 67.482124 493.07724 66.13898 493.07724 64.482124C493.07724 62.825268 494.42038 61.48212 496.07724 61.48212C497.73407 61.48212 499.07724 62.825268 499.07724 64.482124Z" fill-rule="nonzero"/><path fill="#000000" fill-opacity="0.0" clip-path="url(#id_0)" d="M504.1109 64.04295C504.1109 65.69981 502.76773 67.04295 501.1109 67.04295C499.45404 67.04295 498.1109 65.69981 498.1109 64.04295C498.1109 62.386097 499.45404 61.042953 501.1109 61.042953C502.76773 61.042953 504.1109 62.386097 504.1109 64.04295Z" fill-rule="nonzero"/><path fill="#000000" fill-opacity="0.0" clip-path="url(#id_0)" d="M509.14456 63.674812C509.14456 65.331665 507.80142 66.67481 506.14456 66.67481C504.4877 66.67481 503.14456 65.331665 503.14456 63.674812C503.14456 62.017956 504.4877 60.674812 506.14456 60.674812C507.80142 60.674812 509.14456 62.017956 509.14456 63.674812Z" fill-rule="nonzero"/><path fill="#000000" fill-opacity="0.0" clip-path="url(#id_0)" d="M514.1782 63.369595C514.1782 65.02645 512.8351 66.36959 511.17822 66.36959C509.52136 66.36959 508.17822 65.02645 508.17822 63.369595C508.17822 61.712738 509.52136 60.369595 511.17822 60.369595C512.8351 60.369595 514.1782 61.712738 514.1782 63.369595Z" fill-rule="nonzero"/><path fill="#000000" fill-opacity="0.0" clip-path="url(#id_0)" d="M519.21185 63.119682C519.21185 64.776535 517.8687 66.11968 516.21185 66.11968C514.55505 66.11968 513.21185 64.776535 513.21185 63.119682C513.21185 61.46283 514.55505 60.119682 516.21185 60.119682C517.8687 60.119682 519.21185 61.46283 519.21185 63.119682Z" fill-rule="nonzero"/><path fill="#000000" fill-opacity="0.0" clip-path="url(#id_0)" d="M524.24554 62.917957C524.24554 64.574814 522.9024 65.91796 521.24554 65.91796C519.5887 65.91796 518.24554 64.574814 518.24554 62.917957C518.24554 61.261105 519.5887 59.917957 521.24554 59.917957C522.9024 59.917957 524.24554 61.261105 524.24554 62.917957Z" fill-rule="nonzero"/><path fill="#000000" fill-opacity="0.0" clip-path="url(#id_0)" d="M529.27924 62.757786C529.27924 64.41464 527.93604 65.75778 526.27924 65.75778C524.6224 65.75778 523.27924 64.41464 523.27924 62.757786C523.27924 61.100933 524.6224 59.757786 526.27924 59.757786C527.93604 59.757786 529.27924 61.100933 529.27924 62.757786Z" fill-rule="nonzero"/><path fill="#000000" fill-opacity="0.0" clip-path="url(#id_0)" d="M534.31287 62.633026C534.31287 64.28988 532.9697 65.633026 531.31287 65.633026C529.656 65.633026 528.31287 64.28988 528.31287 62.633026C528.31287 60.97617 529.656 59.633026 531.31287 59.633026C532.9697 59.633026 534.31287 60.97617 534.31287 62.633026Z" fill-rule="nonzero"/><path fill="#000000" fill-opacity="0.0" clip-path="url(#id_0)" d="M539.34656 62.538025C539.34656 64.19488 538.0034 65.538025 536.34656 65.538025C534.6897 65.538025 533.34656 64.19488 533.34656 62.538025C533.34656 60.881172 534.6897 59.538025 536.34656 59.538025C538.0034 59.538025 539.34656 60.881172 539.34656 62.538025Z" fill-rule="nonzero"/><path fill="#000000" fill-opacity="0.0" clip-path="url(#id_0)" d="M544.3802 62.467632C544.3802 64.12449 543.03705 65.467636 541.3802 65.467636C539.7233 65.467636 538.3802 64.12449 538.3802 62.467632C538.3802 60.81078 539.7233 59.467632 541.3802 59.467632C543.03705 59.467632 544.3802 60.81078 544.3802 62.467632Z" fill-rule="nonzero"/><path fill="#000000" fill-opacity="0.0" clip-path="url(#id_0)" d="M549.4139 62.417175C549.4139 64.07403 548.07074 65.417175 546.4139 65.417175C544.757 65.417175 543.4139 64.07403 543.4139 62.417175C543.4139 60.760323 544.757 59.417175 546.4139 59.417175C548.07074 59.417175 549.4139 60.760323 549.4139 62.417175Z" fill-rule="nonzero"/><path fill="#000000" fill-opacity="0.0" clip-path="url(#id_0)" d="M554.4475 62.38248C554.4475 64.03934 553.1044 65.38248 551.4475 65.38248C549.79065 65.38248 548.4475 64.03934 548.4475 62.38248C548.4475 60.725624 549.79065 59.38248 551.4475 59.38248C553.1044 59.38248 554.4475 60.725624 554.4475 62.38248Z" fill-rule="nonzero"/><path fill="#000000" fill-opacity="0.0" clip-path="url(#id_0)" d="M559.4812 62.359863C559.4812 64.016716 558.13806 65.35986 556.4812 65.35986C554.82434 65.35986 553.4812 64.016716 553.4812 62.359863C553.4812 60.703007 554.82434 59.359863 556.4812 59.359863C558.13806 59.359863 559.4812 60.703007 559.4812 62.359863Z" fill-rule="nonzero"/><path fill="#000000" fill-opacity="0.0" clip-path="url(#id_0)" d="M564.51483 62.346127C564.51483 64.00298 563.1717 65.34613 561.51483 65.34613C559.858 65.34613 558.51483 64.00298 558.51483 62.346127C558.51483 60.689274 559.858 59.346127 561.51483 59.346127C563.1717 59.346127 564.51483 60.689274 564.51483 62.346127Z" fill-rule="nonzero"/><path fill="#000000" fill-opacity="0.0" clip-path="url(#id_0)" d="M569.5485 62.338573C569.5485 63.995426 568.2054 65.33858 566.5485 65.33858C564.89166 65.33858 563.5485 63.995426 563.5485 62.338573C563.5485 60.68172 564.89166 59.338573 566.5485 59.338573C568.2054 59.338573 569.5485 60.68172 569.5485 62.338573Z" fill-rule="nonzero"/><path fill="#000000" fill-opacity="0.0" clip-path="url(#id_0)" d="M574.58215 62.33499C574.58215 63.991844 573.239 65.33499 571.58215 65.33499C569.92535 65.33499 568.58215 63.991844 568.58215 62.33499C568.58215 60.67814 569.92535 59.33499 571.58215 59.33499C573.239 59.33499 574.58215 60.67814 574.58215 62.33499Z" fill-rule="nonzero"/><path fill="#000000" fill-opacity="0.0" clip-path="url(#id_0)" d="M579.61584 62.33366C579.61584 63.990517 578.2727 65.333664 576.61584 65.333664C574.959 65.333664 573.61584 63.990517 573.61584 62.33366C573.61584 60.676807 574.959 59.33366 576.61584 59.33366C578.2727 59.33366 579.61584 60.676807 579.61584 62.33366Z" fill-rule="nonzero"/><path fill="#000000" fill-opacity="0.0" clip-path="url(#id_0)" d="M584.6495 62.333355C584.6495 63.990208 583.30634 65.33335 581.6495 65.33335C579.9927 65.33335 578.6495 63.990208 578.6495 62.333355C578.6495 60.6765 579.9927 59.333355 581.6495 59.333355C583.30634 59.333355 584.6495 60.6765 584.6495 62.333355Z" fill-rule="nonzero"/><path fill="#000000" fill-opacity="0.0" clip-path="url(#id_0)" d="M589.68317 62.333332C589.68317 63.99019 588.34 65.333336 586.68317 65.333336C585.0263 65.333336 583.68317 63.99019 583.68317 62.333332C583.68317 60.67648 585.0263 59.333332 586.68317 59.333332C588.34 59.333332 589.68317 60.67648 589.68317 62.333332Z" fill-rule="nonzero"/><path fill="#000000" d="M336.59375 353.2625L336.75 354.1844Q336.29688 354.27814 335.95312 354.27814Q335.375 354.27814 335.0625 354.10626Q334.75 353.91876 334.60938 353.6219Q334.48438 353.325 334.48438 352.3719L334.48438 348.79376L333.71875 348.79376L333.71875 347.98126L334.48438 347.98126L334.48438 346.4344L335.53125 345.8094L335.53125 347.98126L336.59375 347.98126L336.59375 348.79376L335.53125 348.79376L335.53125 352.4344Q335.53125 352.8875 335.57812 353.0125Q335.64062 353.1375 335.76562 353.21564Q335.89062 353.29376 336.125 353.29376Q336.3125 353.29376 336.59375 353.2625Z" fill-rule="nonzero"/><path fill="#000000" d="M29.800013 192.67291L26.565638 190.40729L23.581263 192.50104L23.581263 191.18854L25.034388 190.23541Q25.456263 189.96979 25.737513 189.79791Q25.346888 189.54791 25.050013 189.32916L23.581263 188.28229L23.581263 187.01666L26.503138 189.17291L29.800013 186.86041L29.800013 188.14166L27.862513 189.42291L27.346888 189.76666L29.800013 191.40729L29.800013 192.67291Z" fill-rule="nonzero"/><path fill="#000000" d="M51.3 317.96564Q51.3 316.4344 51.6125 315.5125Q51.925 314.575 52.534374 314.075Q53.159374 313.575 54.096874 313.575Q54.784374 313.575 55.3 313.85626Q55.83125 314.1375 56.175 314.66876Q56.51875 315.1844 56.70625 315.9344Q56.89375 316.6844 56.89375 317.96564Q56.89375 319.48126 56.58125 320.40314Q56.284374 321.325 55.659374 321.84064Q55.05 322.34064 54.096874 322.34064Q52.8625 322.34064 52.14375 321.45Q51.3 320.3875 51.3 317.96564ZM52.378124 317.96564Q52.378124 320.075 52.878124 320.77814Q53.378124 321.48126 54.096874 321.48126Q54.83125 321.48126 55.315624 320.77814Q55.815624 320.075 55.815624 317.96564Q55.815624 315.84064 55.315624 315.15314Q54.83125 314.45 54.08125 314.45Q53.3625 314.45 52.925 315.0594Q52.378124 315.84064 52.378124 317.96564ZM58.89375 322.2L58.89375 320.9969L60.096874 320.9969L60.096874 322.2L58.89375 322.2ZM61.3 317.96564Q61.3 316.4344 61.6125 315.5125Q61.925 314.575 62.534374 314.075Q63.159374 313.575 64.09688 313.575Q64.78438 313.575 65.3 313.85626Q65.83125 314.1375 66.175 314.66876Q66.51875 315.1844 66.70625 315.9344Q66.89375 316.6844 66.89375 317.96564Q66.89375 319.48126 66.58125 320.40314Q66.28438 321.325 65.65938 321.84064Q65.05 322.34064 64.09688 322.34064Q62.8625 322.34064 62.14375 321.45Q61.3 320.3875 61.3 317.96564ZM62.378124 317.96564Q62.378124 320.075 62.878124 320.77814Q63.378124 321.48126 64.09688 321.48126Q64.83125 321.48126 65.31563 320.77814Q65.81563 320.075 65.81563 317.96564Q65.81563 315.84064 65.31563 315.15314Q64.83125 314.45 64.08125 314.45Q63.3625 314.45 62.925 315.0594Q62.378124 315.84064 62.378124 317.96564ZM68.3 317.96564Q68.3 316.4344 68.6125 315.5125Q68.925 314.575 69.53438 314.075Q70.15938 313.575 71.09688 313.575Q71.78438 313.575 72.3 313.85626Q72.83125 314.1375 73.175 314.66876Q73.51875 315.1844 73.70625 315.9344Q73.89375 316.6844 73.89375 317.96564Q73.89375 319.48126 73.58125 320.40314Q73.28438 321.325 72.65938 321.84064Q72.05 322.34064 71.09688 322.34064Q69.8625 322.34064 69.14375 321.45Q68.3 320.3875 68.3 317.96564ZM69.37813 317.96564Q69.37813 320.075 69.87813 320.77814Q70.37813 321.48126 71.09688 321.48126Q71.83125 321.48126 72.31563 320.77814Q72.81563 320.075 72.81563 317.96564Q72.81563 315.84064 72.31563 315.15314Q71.83125 314.45 71.08125 314.45Q70.3625 314.45 69.925 315.0594Q69.37813 315.84064 69.37813 317.96564Z" fill-rule="nonzero"/><path fill="#000000" d="M51.3 253.99896Q51.3 252.46771 51.6125 251.54584Q51.925 250.60834 52.534374 250.10834Q53.159374 249.60834 54.096874 249.60834Q54.784374 249.60834 55.3 249.88959Q55.83125 250.17084 56.175 250.70209Q56.51875 251.21771 56.70625 251.96771Q56.89375 252.71771 56.89375 253.99896Q56.89375 255.51459 56.58125 256.43646Q56.284374 257.35834 55.659374 257.87396Q55.05 258.37396 54.096874 258.37396Q52.8625 258.37396 52.14375 257.48334Q51.3 256.42084 51.3 253.99896ZM52.378124 253.99896Q52.378124 256.10834 52.878124 256.81146Q53.378124 257.5146 54.096874 257.5146Q54.83125 257.5146 55.315624 256.81146Q55.815624 256.10834 55.815624 253.99896Q55.815624 251.87396 55.315624 251.18646Q54.83125 250.48334 54.08125 250.48334Q53.3625 250.48334 52.925 251.09271Q52.378124 251.87396 52.378124 253.99896ZM58.89375 258.23334L58.89375 257.0302L60.096874 257.0302L60.096874 258.23334L58.89375 258.23334ZM66.84688 257.2177L66.84688 258.23334L61.159374 258.23334Q61.159374 257.85834 61.284374 257.49896Q61.503124 256.92084 61.971874 256.35834Q62.45625 255.79584 63.3625 255.06146Q64.76875 253.90521 65.25313 253.23334Q65.75313 252.56146 65.75313 251.96771Q65.75313 251.34271 65.3 250.92084Q64.84688 250.48334 64.12813 250.48334Q63.3625 250.48334 62.909374 250.93646Q62.45625 251.38959 62.440624 252.20209L61.3625 252.09271Q61.471874 250.87396 62.190624 250.24896Q62.925 249.60834 64.15938 249.60834Q65.39375 249.60834 66.1125 250.29584Q66.83125 250.98334 66.83125 251.99896Q66.83125 252.51459 66.6125 253.01459Q66.40938 253.49896 65.90938 254.06146Q65.425 254.60834 64.3 255.56146Q63.346874 256.35834 63.065624 256.6552Q62.8 256.93646 62.628124 257.2177L66.84688 257.2177ZM68.3 255.98334L69.40938 255.88959Q69.53438 256.7021 69.97188 257.10834Q70.425 257.5146 71.06563 257.5146Q71.81563 257.5146 72.34688 256.93646Q72.87813 256.35834 72.87813 255.42084Q72.87813 254.51459 72.3625 253.99896Q71.8625 253.46771 71.03438 253.46771Q70.53438 253.46771 70.1125 253.70209Q69.70625 253.93646 69.47188 254.29584L68.4875 254.17084L69.31563 249.76459L73.59688 249.76459L73.59688 250.76459L70.15938 250.76459L69.70625 253.07709Q70.47188 252.53021 71.31563 252.53021Q72.44063 252.53021 73.20625 253.31146Q73.9875 254.09271 73.9875 255.32709Q73.9875 256.48334 73.31563 257.3427Q72.4875 258.37396 71.06563 258.37396Q69.89375 258.37396 69.14375 257.7177Q68.40938 257.06146 68.3 255.98334Z" fill-rule="nonzero"/><path fill="#000000" d="M51.3 190.03229Q51.3 188.50104 51.6125 187.57916Q51.925 186.64166 52.534374 186.14166Q53.159374 185.64166 54.096874 185.64166Q54.784374 185.64166 55.3 185.92291Q55.83125 186.20416 56.175 186.73541Q56.51875 187.25104 56.70625 188.00104Q56.89375 188.75104 56.89375 190.03229Q56.89375 191.54791 56.58125 192.46979Q56.284374 193.39166 55.659374 193.90729Q55.05 194.40729 54.096874 194.40729Q52.8625 194.40729 52.14375 193.51666Q51.3 192.45416 51.3 190.03229ZM52.378124 190.03229Q52.378124 192.14166 52.878124 192.84479Q53.378124 193.54791 54.096874 193.54791Q54.83125 193.54791 55.315624 192.84479Q55.815624 192.14166 55.815624 190.03229Q55.815624 187.90729 55.315624 187.21979Q54.83125 186.51666 54.08125 186.51666Q53.3625 186.51666 52.925 187.12604Q52.378124 187.90729 52.378124 190.03229ZM58.89375 194.26666L58.89375 193.06354L60.096874 193.06354L60.096874 194.26666L58.89375 194.26666ZM61.3 192.01666L62.409374 191.92291Q62.534374 192.73541 62.971874 193.14166Q63.425 193.54791 64.06563 193.54791Q64.81563 193.54791 65.34688 192.96979Q65.87813 192.39166 65.87813 191.45416Q65.87813 190.54791 65.3625 190.03229Q64.8625 189.50104 64.03438 189.50104Q63.534374 189.50104 63.1125 189.73541Q62.70625 189.96979 62.471874 190.32916L61.4875 190.20416L62.315624 185.79791L66.59688 185.79791L66.59688 186.79791L63.159374 186.79791L62.70625 189.11041Q63.471874 188.56354 64.31563 188.56354Q65.44063 188.56354 66.20625 189.34479Q66.9875 190.12604 66.9875 191.36041Q66.9875 192.51666 66.31563 193.37604Q65.4875 194.40729 64.06563 194.40729Q62.89375 194.40729 62.14375 193.75104Q61.409374 193.09479 61.3 192.01666ZM68.3 190.03229Q68.3 188.50104 68.6125 187.57916Q68.925 186.64166 69.53438 186.14166Q70.15938 185.64166 71.09688 185.64166Q71.78438 185.64166 72.3 185.92291Q72.83125 186.20416 73.175 186.73541Q73.51875 187.25104 73.70625 188.00104Q73.89375 188.75104 73.89375 190.03229Q73.89375 191.54791 73.58125 192.46979Q73.28438 193.39166 72.65938 193.90729Q72.05 194.40729 71.09688 194.40729Q69.8625 194.40729 69.14375 193.51666Q68.3 192.45416 68.3 190.03229ZM69.37813 190.03229Q69.37813 192.14166 69.87813 192.84479Q70.37813 193.54791 71.09688 193.54791Q71.83125 193.54791 72.31563 192.84479Q72.81563 192.14166 72.81563 190.03229Q72.81563 187.90729 72.31563 187.21979Q71.83125 186.51666 71.08125 186.51666Q70.3625 186.51666 69.925 187.12604Q69.37813 187.90729 69.37813 190.03229Z" fill-rule="nonzero"/><path fill="#000000" d="M51.3 126.06563Q51.3 124.53438 51.6125 123.6125Q51.925 122.675 52.534374 122.175Q53.159374 121.675 54.096874 121.675Q54.784374 121.675 55.3 121.95625Q55.83125 122.2375 56.175 122.76875Q56.51875 123.28438 56.70625 124.03438Q56.89375 124.78438 56.89375 126.06563Q56.89375 127.58125 56.58125 128.50313Q56.284374 129.425 55.659374 129.94063Q55.05 130.44063 54.096874 130.44063Q52.8625 130.44063 52.14375 129.55Q51.3 128.4875 51.3 126.06563ZM52.378124 126.06563Q52.378124 128.175 52.878124 128.87813Q53.378124 129.58125 54.096874 129.58125Q54.83125 129.58125 55.315624 128.87813Q55.815624 128.175 55.815624 126.06563Q55.815624 123.94063 55.315624 123.25313Q54.83125 122.55 54.08125 122.55Q53.3625 122.55 52.925 123.15938Q52.378124 123.94063 52.378124 126.06563ZM58.89375 130.3L58.89375 129.09688L60.096874 129.09688L60.096874 130.3L58.89375 130.3ZM61.3625 122.83125L61.3625 121.81563L66.925 121.81563L66.925 122.64375Q66.1125 123.51875 65.3 124.97188Q64.50313 126.40938 64.06563 127.94063Q63.7375 129.01875 63.659374 130.3L62.565624 130.3Q62.58125 129.28438 62.95625 127.84688Q63.346874 126.40938 64.05 125.08125Q64.76875 123.75313 65.58125 122.83125L61.3625 122.83125ZM68.3 128.05L69.40938 127.95625Q69.53438 128.76875 69.97188 129.175Q70.425 129.58125 71.06563 129.58125Q71.81563 129.58125 72.34688 129.00313Q72.87813 128.425 72.87813 127.4875Q72.87813 126.58125 72.3625 126.06563Q71.8625 125.53438 71.03438 125.53438Q70.53438 125.53438 70.1125 125.76875Q69.70625 126.00313 69.47188 126.3625L68.4875 126.2375L69.31563 121.83125L73.59688 121.83125L73.59688 122.83125L70.15938 122.83125L69.70625 125.14375Q70.47188 124.59688 71.31563 124.59688Q72.44063 124.59688 73.20625 125.37813Q73.9875 126.15938 73.9875 127.39375Q73.9875 128.55 73.31563 129.40938Q72.4875 130.44063 71.06563 130.44063Q69.89375 130.44063 69.14375 129.78438Q68.40938 129.12813 68.3 128.05Z" fill-rule="nonzero"/><path fill="#000000" d="M55.26875 66.333336L54.221874 66.333336L54.221874 59.614586Q53.83125 59.97396 53.20625 60.34896Q52.596874 60.708336 52.1125 60.88021L52.1125 59.864586Q52.9875 59.44271 53.64375 58.864586Q54.315624 58.270836 54.596874 57.708336L55.26875 57.708336L55.26875 66.333336ZM58.89375 66.333336L58.89375 65.13021L60.096874 65.13021L60.096874 66.333336L58.89375 66.333336ZM61.3 62.09896Q61.3 60.56771 61.6125 59.645836Q61.925 58.708336 62.534374 58.208336Q63.159374 57.708336 64.09688 57.708336Q64.78438 57.708336 65.3 57.989586Q65.83125 58.270836 66.175 58.802086Q66.51875 59.31771 66.70625 60.06771Q66.89375 60.81771 66.89375 62.09896Q66.89375 63.614586 66.58125 64.53646Q66.28438 65.458336 65.65938 65.97396Q65.05 66.47396 64.09688 66.47396Q62.8625 66.47396 62.14375 65.583336Q61.3 64.520836 61.3 62.09896ZM62.378124 62.09896Q62.378124 64.208336 62.878124 64.91146Q63.378124 65.614586 64.09688 65.614586Q64.83125 65.614586 65.31563 64.91146Q65.81563 64.208336 65.81563 62.09896Q65.81563 59.97396 65.31563 59.28646Q64.83125 58.583336 64.08125 58.583336Q63.3625 58.583336 62.925 59.19271Q62.378124 59.97396 62.378124 62.09896ZM68.3 62.09896Q68.3 60.56771 68.6125 59.645836Q68.925 58.708336 69.53438 58.208336Q70.15938 57.708336 71.09688 57.708336Q71.78438 57.708336 72.3 57.989586Q72.83125 58.270836 73.175 58.802086Q73.51875 59.31771 73.70625 60.06771Q73.89375 60.81771 73.89375 62.09896Q73.89375 63.614586 73.58125 64.53646Q73.28438 65.458336 72.65938 65.97396Q72.05 66.47396 71.09688 66.47396Q69.8625 66.47396 69.14375 65.583336Q68.3 64.520836 68.3 62.09896ZM69.37813 62.09896Q69.37813 64.208336 69.87813 64.91146Q70.37813 65.614586 71.09688 65.614586Q71.83125 65.614586 72.31563 64.91146Q72.81563 64.208336 72.81563 62.09896Q72.81563 59.97396 72.31563 59.28646Q71.83125 58.583336 71.08125 58.583336Q70.3625 58.583336 69.925 59.19271Q69.37813 59.97396 69.37813 62.09896Z" fill-rule="nonzero"/><path fill="#757575" d="M20.378124 37.8L20.378124 23.4875L30.7375 23.4875L30.7375 25.175L22.284374 25.175L22.284374 29.55L30.190624 29.55L30.190624 31.2375L22.284374 31.2375L22.284374 36.1125L31.065624 36.1125L31.065624 37.8L20.378124 37.8ZM39.89375 36.51875Q38.909374 37.346874 38.003124 37.690624Q37.096874 38.034374 36.065624 38.034374Q34.3625 38.034374 33.440624 37.20625Q32.51875 36.3625 32.51875 35.065624Q32.51875 34.3 32.8625 33.675Q33.221874 33.05 33.784374 32.675Q34.346874 32.284374 35.05 32.08125Q35.565624 31.95625 36.6125 31.815624Q38.7375 31.565624 39.7375 31.221874Q39.753124 30.8625 39.753124 30.753124Q39.753124 29.690624 39.253124 29.2375Q38.58125 28.64375 37.253124 28.64375Q36.003124 28.64375 35.409374 29.08125Q34.83125 29.51875 34.55 30.628124L32.83125 30.39375Q33.065624 29.284374 33.596874 28.6125Q34.128124 27.925 35.14375 27.565624Q36.159374 27.190624 37.503124 27.190624Q38.83125 27.190624 39.659374 27.503124Q40.4875 27.815624 40.878124 28.3Q41.26875 28.76875 41.425 29.4875Q41.51875 29.940624 41.51875 31.1125L41.51875 33.45625Q41.51875 35.909374 41.628124 36.565624Q41.7375 37.20625 42.08125 37.8L40.2375 37.8Q39.971874 37.253124 39.89375 36.51875ZM39.7375 32.596874Q38.784374 32.9875 36.8625 33.253124Q35.784374 33.409374 35.33125 33.6125Q34.89375 33.8 34.64375 34.175Q34.39375 34.55 34.39375 35.01875Q34.39375 35.721874 34.925 36.190624Q35.45625 36.659374 36.4875 36.659374Q37.503124 36.659374 38.284374 36.221874Q39.08125 35.76875 39.45625 35.003124Q39.7375 34.39375 39.7375 33.2375L39.7375 32.596874ZM43.409374 34.70625L45.159374 34.425Q45.3 35.471874 45.971874 36.034374Q46.64375 36.58125 47.846874 36.58125Q49.05 36.58125 49.628124 36.096874Q50.221874 35.596874 50.221874 34.940624Q50.221874 34.346874 49.70625 34.003124Q49.346874 33.76875 47.909374 33.409374Q45.971874 32.909374 45.221874 32.565624Q44.4875 32.20625 44.096874 31.58125Q43.70625 30.940624 43.70625 30.175Q43.70625 29.4875 44.01875 28.89375Q44.346874 28.3 44.89375 27.909374Q45.3 27.6125 46.003124 27.409374Q46.721874 27.190624 47.534374 27.190624Q48.753124 27.190624 49.675 27.55Q50.596874 27.89375 51.034374 28.503124Q51.471874 29.096874 51.64375 30.096874L49.925 30.33125Q49.8 29.534374 49.2375 29.096874Q48.675 28.64375 47.659374 28.64375Q46.440624 28.64375 45.925 29.05Q45.409374 29.440624 45.409374 29.971874Q45.409374 30.315624 45.628124 30.596874Q45.83125 30.878124 46.3 31.065624Q46.565624 31.159374 47.846874 31.503124Q49.721874 32.003124 50.45625 32.33125Q51.190624 32.64375 51.6125 33.253124Q52.034374 33.846874 52.034374 34.753124Q52.034374 35.628124 51.51875 36.409374Q51.003124 37.190624 50.034374 37.6125Q49.065624 38.034374 47.846874 38.034374Q45.83125 38.034374 44.76875 37.190624Q43.70625 36.346874 43.409374 34.70625ZM61.221874 34.45625L63.034374 34.690624Q62.6125 36.26875 61.440624 37.159374Q60.284374 38.034374 58.471874 38.034374Q56.20625 38.034374 54.8625 36.64375Q53.534374 35.2375 53.534374 32.70625Q53.534374 30.08125 54.878124 28.64375Q56.221874 27.190624 58.378124 27.190624Q60.45625 27.190624 61.76875 28.6125Q63.096874 30.01875 63.096874 32.596874Q63.096874 32.753124 63.08125 33.065624L55.346874 33.065624Q55.440624 34.76875 56.315624 35.675Q57.190624 36.58125 58.4875 36.58125Q59.45625 36.58125 60.128124 36.08125Q60.815624 35.565624 61.221874 34.45625ZM55.440624 31.6125L61.2375 31.6125Q61.128124 30.315624 60.58125 29.659374Q59.7375 28.64375 58.39375 28.64375Q57.190624 28.64375 56.3625 29.45625Q55.534374 30.253124 55.440624 31.6125ZM65.65938 37.8L65.65938 23.4875L67.56563 23.4875L67.56563 37.8L65.65938 37.8ZM71.1125 37.8L71.1125 27.425L72.70625 27.425L72.70625 28.909374Q73.84688 27.190624 76.00313 27.190624Q76.94063 27.190624 77.72188 27.534374Q78.51875 27.8625 78.90938 28.409374Q79.3 28.95625 79.45625 29.70625Q79.55 30.20625 79.55 31.425L79.55 37.8L77.78438 37.8L77.78438 31.4875Q77.78438 30.409374 77.58125 29.878124Q77.37813 29.346874 76.84688 29.034374Q76.33125 28.721874 75.62813 28.721874Q74.50313 28.721874 73.69063 29.440624Q72.87813 30.14375 72.87813 32.128124L72.87813 37.8L71.1125 37.8ZM80.76875 30.83125Q80.76875 27.26875 82.675 25.253124Q84.59688 23.221874 87.62813 23.221874Q89.6125 23.221874 91.19063 24.175Q92.78438 25.128124 93.6125 26.83125Q94.45625 28.51875 94.45625 30.659374Q94.45625 32.83125 93.58125 34.55Q92.70625 36.26875 91.08125 37.159374Q89.47188 38.05 87.6125 38.05Q85.59688 38.05 84.00313 37.08125Q82.40938 36.096874 81.58125 34.409374Q80.76875 32.70625 80.76875 30.83125ZM82.72188 30.8625Q82.72188 33.440624 84.1125 34.940624Q85.50313 36.425 87.59688 36.425Q89.7375 36.425 91.1125 34.925Q92.50313 33.409374 92.50313 30.64375Q92.50313 28.909374 91.90938 27.6125Q91.33125 26.3 90.19063 25.58125Q89.05 24.8625 87.62813 24.8625Q85.62813 24.8625 84.175 26.253124Q82.72188 27.628124 82.72188 30.8625ZM103.90938 37.8L103.90938 36.26875Q102.70625 38.034374 100.62813 38.034374Q99.70625 38.034374 98.90938 37.690624Q98.1125 37.33125 97.72188 36.8Q97.34688 36.26875 97.19063 35.4875Q97.08125 34.971874 97.08125 33.846874L97.08125 27.425L98.83125 27.425L98.83125 33.175Q98.83125 34.55 98.94063 35.034374Q99.1125 35.721874 99.64375 36.128124Q100.19063 36.51875 100.97188 36.51875Q101.76875 36.51875 102.45625 36.1125Q103.15938 35.70625 103.44063 35.01875Q103.7375 34.315624 103.7375 32.9875L103.7375 27.425L105.4875 27.425L105.4875 37.8L103.90938 37.8ZM110.95625 36.221874L111.20625 37.784374Q110.47188 37.940624 109.87813 37.940624Q108.925 37.940624 108.39375 37.64375Q107.87813 37.33125 107.65938 36.846874Q107.44063 36.346874 107.44063 34.76875L107.44063 28.8L106.15938 28.8L106.15938 27.425L107.44063 27.425L107.44063 24.8625L109.19063 23.8L109.19063 27.425L110.95625 27.425L110.95625 28.8L109.19063 28.8L109.19063 34.8625Q109.19063 35.6125 109.28438 35.83125Q109.37813 36.034374 109.58125 36.175Q109.8 36.3 110.19063 36.3Q110.47188 36.3 110.95625 36.221874ZM124.19063 36.26875Q125.51875 37.175 126.62813 37.596874L126.06563 38.909374Q124.51875 38.3625 122.9875 37.159374Q121.39375 38.05 119.47188 38.05Q117.53438 38.05 115.94063 37.1125Q114.3625 36.175 113.50313 34.471874Q112.65938 32.76875 112.65938 30.64375Q112.65938 28.51875 113.51875 26.784374Q114.37813 25.05 115.95625 24.14375Q117.55 23.221874 119.51875 23.221874Q121.50313 23.221874 123.08125 24.175Q124.675 25.1125 125.50313 26.815624Q126.34688 28.503124 126.34688 30.628124Q126.34688 32.39375 125.81563 33.815624Q125.28438 35.221874 124.19063 36.26875ZM120.01875 33.846874Q121.65938 34.3 122.72188 35.20625Q124.39375 33.690624 124.39375 30.628124Q124.39375 28.89375 123.8 27.596874Q123.22188 26.3 122.08125 25.58125Q120.94063 24.8625 119.51875 24.8625Q117.40938 24.8625 116.00313 26.315624Q114.6125 27.753124 114.6125 30.64375Q114.6125 33.440624 115.9875 34.940624Q117.37813 36.425 119.51875 36.425Q120.53438 36.425 121.44063 36.034374Q120.55 35.471874 119.56563 35.221874L120.01875 33.846874ZM135.90938 37.8L135.90938 36.26875Q134.70625 38.034374 132.62813 38.034374Q131.70625 38.034374 130.90938 37.690624Q130.1125 37.33125 129.72188 36.8Q129.34688 36.26875 129.19063 35.4875Q129.08125 34.971874 129.08125 33.846874L129.08125 27.425L130.83125 27.425L130.83125 33.175Q130.83125 34.55 130.94063 35.034374Q131.1125 35.721874 131.64375 36.128124Q132.19063 36.51875 132.97188 36.51875Q133.76875 36.51875 134.45625 36.1125Q135.15938 35.70625 135.44063 35.01875Q135.7375 34.315624 135.7375 32.9875L135.7375 27.425L137.4875 27.425L137.4875 37.8L135.90938 37.8ZM145.89375 36.51875Q144.90938 37.346874 144.00313 37.690624Q143.09688 38.034374 142.06563 38.034374Q140.3625 38.034374 139.44063 37.20625Q138.51875 36.3625 138.51875 35.065624Q138.51875 34.3 138.8625 33.675Q139.22188 33.05 139.78438 32.675Q140.34688 32.284374 141.05 32.08125Q141.56563 31.95625 142.6125 31.815624Q144.7375 31.565624 145.7375 31.221874Q145.75313 30.8625 145.75313 30.753124Q145.75313 29.690624 145.25313 29.2375Q144.58125 28.64375 143.25313 28.64375Q142.00313 28.64375 141.40938 29.08125Q140.83125 29.51875 140.55 30.628124L138.83125 30.39375Q139.06563 29.284374 139.59688 28.6125Q140.12813 27.925 141.14375 27.565624Q142.15938 27.190624 143.50313 27.190624Q144.83125 27.190624 145.65938 27.503124Q146.4875 27.815624 146.87813 28.3Q147.26875 28.76875 147.425 29.4875Q147.51875 29.940624 147.51875 31.1125L147.51875 33.45625Q147.51875 35.909374 147.62813 36.565624Q147.7375 37.20625 148.08125 37.8L146.2375 37.8Q145.97188 37.253124 145.89375 36.51875ZM145.7375 32.596874Q144.78438 32.9875 142.8625 33.253124Q141.78438 33.409374 141.33125 33.6125Q140.89375 33.8 140.64375 34.175Q140.39375 34.55 140.39375 35.01875Q140.39375 35.721874 140.925 36.190624Q141.45625 36.659374 142.4875 36.659374Q143.50313 36.659374 144.28438 36.221874Q145.08125 35.76875 145.45625 35.003124Q145.7375 34.39375 145.7375 33.2375L145.7375 32.596874ZM150.09688 37.8L150.09688 27.425L151.675 27.425L151.675 29.003124Q152.28438 27.89375 152.8 27.55Q153.31563 27.190624 153.925 27.190624Q154.81563 27.190624 155.7375 27.753124L155.12813 29.39375Q154.4875 29.003124 153.84688 29.003124Q153.26875 29.003124 152.8 29.3625Q152.34688 29.70625 152.14375 30.315624Q151.8625 31.253124 151.8625 32.3625L151.8625 37.8L150.09688 37.8ZM160.95625 36.221874L161.20625 37.784374Q160.47188 37.940624 159.87813 37.940624Q158.925 37.940624 158.39375 37.64375Q157.87813 37.33125 157.65938 36.846874Q157.44063 36.346874 157.44063 34.76875L157.44063 28.8L156.15938 28.8L156.15938 27.425L157.44063 27.425L157.44063 24.8625L159.19063 23.8L159.19063 27.425L160.95625 27.425L160.95625 28.8L159.19063 28.8L159.19063 34.8625Q159.19063 35.6125 159.28438 35.83125Q159.37813 36.034374 159.58125 36.175Q159.8 36.3 160.19063 36.3Q160.47188 36.3 160.95625 36.221874ZM163.12813 25.503124L163.12813 23.4875L164.89375 23.4875L164.89375 25.503124L163.12813 25.503124ZM163.12813 37.8L163.12813 27.425L164.89375 27.425L164.89375 37.8L163.12813 37.8ZM173.89375 34.003124L175.6125 34.221874Q175.33125 36.01875 174.15938 37.034374Q173.00313 38.034374 171.3 38.034374Q169.175 38.034374 167.87813 36.64375Q166.58125 35.253124 166.58125 32.659374Q166.58125 30.971874 167.12813 29.721874Q167.69063 28.45625 168.83125 27.83125Q169.97188 27.190624 171.31563 27.190624Q173.00313 27.190624 174.06563 28.05Q175.14375 28.909374 175.45625 30.471874L173.7375 30.7375Q173.50313 29.690624 172.87813 29.175Q172.25313 28.64375 171.37813 28.64375Q170.05 28.64375 169.22188 29.596874Q168.39375 30.55 168.39375 32.596874Q168.39375 34.690624 169.19063 35.64375Q169.9875 36.58125 171.28438 36.58125Q172.31563 36.58125 173.00313 35.95625Q173.70625 35.315624 173.89375 34.003124Z" fill-rule="nonzero"/></svg>