<svg version="1.1" viewBox="0.0 0.0 608.0 376.0" fill="none" stroke="none" stroke-linecap="square" stroke-miterlimit="10" width="608" height="376" xmlns:xlink="http://www.w3.org/1999/xlink" xmlns="http://www.w3.org/2000/svg"><path fill="#ffffff" d="M0 0L608.0 0L608.0 376.0L0 376.0L0 0Z" fill-rule="nonzero"/><path stroke="#333333" stroke-width="1.0" stroke-linecap="butt" d="M80.5 318.5L589.5 318.5" fill-rule="nonzero"/><path stroke="#cccccc" stroke-width="1.0" stroke-linecap="butt" d="M80.5 254.5L589.5 254.5" fill-rule="nonzero"/><path stroke="#cccccc" stroke-width="1.0" stroke-linecap="butt" d="M80.5 190.5L589.5 190.5" fill-rule="nonzero"/><path stroke="#cccccc" stroke-width="1.0" stroke-linecap="butt" d="M80.5 126.5L589.5 126.5" fill-rule="nonzero"/><path stroke="#cccccc" stroke-width="1.0" stroke-linecap="butt" d="M80.5 62.5L589.5 62.5" fill-rule="nonzero"/><path stroke="#000000" stroke-width="1.0" stroke-linecap="butt" d="M80.5 318.5L80.5 62.5" fill-rule="nonzero"/><clipPath id="id_0"><path d="M80.8 62.333332L589.2 62.333332L589.2 318.2L80.8 318.2L80.8 62.333332Z" clip-rule="nonzero"/></clipPath><path stroke="#4285f4" stroke-width="2.0" stroke-linecap="butt" clip-path="url(#id_0)" d="M83.31683 318.2C83.31683 318.2 86.67261 315.5205 88.350494 314.18103C90.02838 312.84152 91.70627 311.50204 93.384155 310.16302C95.06205 308.82404 96.73994 307.4852 98.41782 306.14703C100.09571 304.80887 101.7736 303.471 103.451485 302.134C105.12937 300.797 106.80726 299.46045 108.485146 298.12494C110.16303 296.7894 111.84093 295.45453 113.518814 294.12082C115.1967 292.7871 116.87459 291.45422 118.552475 290.12265C120.23036 288.79108 121.90825 287.4605 123.586136 286.1314C125.26402 284.8023 126.94192 283.47437 128.6198 282.14807C130.29768 280.82178 131.97557 279.4968 133.65347 278.17365C135.33136 276.85046 137.00925 275.52878 138.68713 274.20908C140.36502 272.88937 142.04291 271.5713 143.7208 270.25537C145.39868 268.93942 147.07657 267.6253 148.75446 266.31348C150.43234 265.00168 152.11023 263.6918 153.78812 262.38443C155.466 261.07703 157.14389 259.77176 158.82178 258.46912C160.49966 257.16647 162.17755 255.86612 163.85544 254.56854C165.53334 253.27098 167.21123 251.97586 168.88911 250.68369C170.567 249.39151 172.24489 248.10194 173.92278 246.81548C175.60066 245.529 177.27855 244.24532 178.95644 242.96489C180.63432 241.68445 182.31221 240.40694 183.9901 239.13286C185.66798 237.85876 187.34587 236.58777 189.02376 235.32033C190.70164 234.0529 192.37953 232.78871 194.05742 231.52826C195.73532 230.26779 197.41321 229.01074 199.0911 227.75757C200.76898 226.5044 202.44687 225.25478 204.12476 224.0092C205.80264 222.76361 207.48053 221.52174 209.15842 220.28407C210.8363 219.04639 212.51419 217.81258 214.19208 216.5831C215.86996 215.3536 217.54785 214.12816 219.22574 212.9072C220.90363 211.68622 222.58151 210.46944 224.2594 209.25728C225.93729 208.0451 227.61519 206.83728 229.29308 205.63423C230.97096 204.43118 232.64885 203.2326 234.32674 202.03897C236.00462 200.84532 237.68251 199.6563 239.3604 198.47235C241.03828 197.2884 242.71617 196.10925 244.39406 194.93529C246.07195 193.76134 247.74983 192.59232 249.42772 191.42863C251.1056 190.26497 252.7835 189.10637 254.46138 187.95326C256.13928 186.80017 257.81717 185.65228 259.49506 184.51004C261.17294 183.36778 262.85083 182.2309 264.52872 181.09978C266.2066 179.96867 267.8845 178.84306 269.56238 177.72336C271.24026 176.60367 272.91815 175.48961 274.59604 174.3816C276.27393 173.27359 277.9518 172.17137 279.6297 171.07532C281.3076 169.97928 282.98547 168.88916 284.66336 167.80534C286.34125 166.72154 288.01913 165.64378 289.69702 164.57248C291.3749 163.50117 293.0528 162.43605 294.73068 161.37752C296.40857 160.31897 298.08646 159.26675 299.76434 158.22125C301.44223 157.17574 303.12012 156.13667 304.79803 155.10445C306.47592 154.07222 308.1538 153.04659 309.8317 152.0279C311.50958 151.0092 313.18747 149.99724 314.86536 148.99234C316.54324 147.98744 318.22113 146.98938 319.89902 145.99854C321.5769 145.00768 323.2548 144.02379 324.93268 143.04721C326.61057 142.07065 328.28845 141.10115 329.96634 140.13911C331.64423 139.17706 333.3221 138.22223 335.0 137.27495C336.6779 136.32767 338.35577 135.38771 340.03366 134.45541C341.71155 133.52313 343.38943 132.59828 345.06732 131.68123C346.7452 130.76416 348.4231 129.85466 350.10098 128.95306C351.77887 128.05145 353.45676 127.15752 355.13464 126.27158C356.81253 125.38565 358.49042 124.5075 360.1683 123.63746C361.8462 122.76742 363.52408 121.90527 365.20197 121.051346C366.87988 120.19741 368.55777 119.35149 370.23566 118.51387C371.91354 117.67626 373.59143 116.846756 375.26932 116.02567C376.9472 115.20458 378.6251 114.39171 380.30298 113.58735C381.98087 112.78299 383.65875 111.98695 385.33664 111.19952C387.01453 110.41209 388.6924 109.63307 390.3703 108.86276C392.0482 108.092445 393.72607 107.33065 395.40396 106.57765C397.08185 105.82465 398.75974 105.08026 400.43762 104.34476C402.1155 103.60925 403.7934 102.882454 405.47128 102.16463C407.14917 101.4468 408.82706 100.73777 410.50494 100.0378C412.18283 99.33783 413.86072 98.64675 415.5386 97.964806C417.2165 97.28287 418.89438 96.60989 420.57227 95.94615C422.25015 95.2824 423.92804 94.627716 425.60593 93.98233C427.2838 93.336945 428.96173 92.7007 430.63962 92.07384C432.3175 91.44697 433.9954 90.82932 435.67328 90.22113C437.35117 89.61294 439.02905 89.014046 440.70694 88.424675C442.38483 87.83531 444.0627 87.25532 445.7406 86.68492C447.4185 86.11452 449.09637 85.55357 450.77426 85.00228C452.45215 84.45099 454.13004 83.909225 455.80792 83.37718C457.4858 82.84514 459.1637 82.32269 460.84158 81.81002C462.51947 81.297356 464.19736 80.79435 465.87524 80.30119C467.55313 79.80803 469.23102 79.32459 470.9089 78.85105C472.5868 78.37752 474.26468 77.913765 475.94257 77.45998C477.62045 77.00618 479.29834 76.56223 480.97623 76.128296C482.6541 75.69435 484.332 75.27032 486.0099 74.85634C487.68777 74.44236 489.36566 74.03834 491.04358 73.644424C492.72147 73.25051 494.39935 72.86661 496.07724 72.49286C497.75513 72.1191 499.433 71.75541 501.1109 71.40191C502.7888 71.04841 504.46667 70.70502 506.14456 70.37186C507.82245 70.0387 509.50034 69.71569 511.17822 69.40295C512.8561 69.09021 514.534 68.78767 516.21185 68.49543C517.8898 68.20319 519.5676 67.92119 521.24554 67.64952C522.92346 67.37786 524.6013 67.11646 526.27924 66.86543C527.9571 66.61441 529.635 66.37369 531.31287 66.143364C532.9908 65.91303 534.66864 65.69305 536.34656 65.483475C538.0244 65.27391 539.70233 65.07471 541.3802 64.88595C543.0581 64.69719 544.73596 64.51882 546.4139 64.35092C548.09174 64.183014 549.76965 64.02553 551.4475 63.878525C553.1254 63.731518 554.8033 63.59495 556.4812 63.46888C558.15906 63.342804 559.837 63.227192 561.51483 63.122086C563.19275 63.016975 564.8706 62.922344 566.5485 62.838226C568.2264 62.75411 569.9043 62.680485 571.58215 62.61738C573.2601 62.55427 574.9379 62.501667 576.61584 62.459587C578.2937 62.417507 579.9716 62.38594 581.6495 62.3649C583.3274 62.343857 586.68317 62.333332 586.68317 62.333332" fill-rule="nonzero"/><path fill="#000000" fill-opacity="0.0" clip-path="url(#id_0)" d="M86.31683 318.2C86.31683 319.85684 84.97369 321.2 83.31683 321.2C81.65998 321.2 80.31683 319.85684 80.31683 318.2C80.31683 316.54315 81.65998 315.2 83.31683 315.2C84.97369 315.2 86.31683 316.54315 86.31683 318.2Z" fill-rule="nonzero"/><path fill="#000000" fill-opacity="0.0" clip-path="url(#id_0)" d="M91.350494 314.18103C91.350494 315.83786 90.00735 317.18103 88.350494 317.18103C86.69364 317.18103 85.350494 315.83786 85.350494 314.18103C85.350494 312.52417 86.69364 311.18103 88.350494 311.18103C90.00735 311.18103 91.350494 312.52417 91.350494 314.18103Z" fill-rule="nonzero"/><path fill="#000000" fill-opacity="0.0" clip-path="url(#id_0)" d="M96.384155 310.16302C96.384155 311.8199 95.041016 313.16302 93.384155 313.16302C91.7273 313.16302 90.384155 311.8199 90.384155 310.16302C90.384155 308.50616 91.7273 307.16302 93.384155 307.16302C95.041016 307.16302 96.384155 308.50616 96.384155 310.16302Z" fill-rule="nonzero"/><path fill="#000000" fill-opacity="0.0" clip-path="url(#id_0)" d="M101.41782 306.14703C101.41782 307.8039 100.07468 309.14703 98.41782 309.14703C96.76097 309.14703 95.41782 307.8039 95.41782 306.14703C95.41782 304.49017 96.76097 303.14703 98.41782 303.14703C100.07468 303.14703 101.41782 304.49017 101.41782 306.14703Z" fill-rule="nonzero"/><path fill="#000000" fill-opacity="0.0" clip-path="url(#id_0)" d="M106.451485 302.134C106.451485 303.79086 105.10834 305.134 103.451485 305.134C101.79463 305.134 100.451485 303.79086 100.451485 302.134C100.451485 300.47714 101.79463 299.134 103.451485 299.134C105.10834 299.134 106.451485 300.47714 106.451485 302.134Z" fill-rule="nonzero"/><path fill="#000000" fill-opacity="0.0" clip-path="url(#id_0)" d="M111.485146 298.12494C111.485146 299.7818 110.142006 301.12494 108.485146 301.12494C106.82829 301.12494 105.485146 299.7818 105.485146 298.12494C105.485146 296.46808 106.82829 295.12494 108.485146 295.12494C110.142006 295.12494 111.485146 296.46808 111.485146 298.12494Z" fill-rule="nonzero"/><path fill="#000000" fill-opacity="0.0" clip-path="url(#id_0)" d="M116.518814 294.12082C116.518814 295.77768 115.17567 297.12082 113.518814 297.12082C111.86196 297.12082 110.518814 295.77768 110.518814 294.12082C110.518814 292.46396 111.86196 291.12082 113.518814 291.12082C115.17567 291.12082 116.518814 292.46396 116.518814 294.12082Z" fill-rule="nonzero"/><path fill="#000000" fill-opacity="0.0" clip-path="url(#id_0)" d="M121.552475 290.12265C121.552475 291.7795 120.20933 293.12265 118.552475 293.12265C116.89562 293.12265 115.552475 291.7795 115.552475 290.12265C115.552475 288.4658 116.89562 287.12265 118.552475 287.12265C120.20933 287.12265 121.552475 288.4658 121.552475 290.12265Z" fill-rule="nonzero"/><path fill="#000000" fill-opacity="0.0" clip-path="url(#id_0)" d="M126.586136 286.1314C126.586136 287.78827 125.243 289.1314 123.586136 289.1314C121.92928 289.1314 120.586136 287.78827 120.586136 286.1314C120.586136 284.47455 121.92928 283.1314 123.586136 283.1314C125.243 283.1314 126.586136 284.47455 126.586136 286.1314Z" fill-rule="nonzero"/><path fill="#000000" fill-opacity="0.0" clip-path="url(#id_0)" d="M131.6198 282.14807C131.6198 283.80493 130.27666 285.14807 128.6198 285.14807C126.962944 285.14807 125.619804 283.80493 125.619804 282.14807C125.619804 280.4912 126.962944 279.14807 128.6198 279.14807C130.27666 279.14807 131.6198 280.4912 131.6198 282.14807Z" fill-rule="nonzero"/><path fill="#000000" fill-opacity="0.0" clip-path="url(#id_0)" d="M136.65347 278.17365C136.65347 279.83047 135.31032 281.17365 133.65347 281.17365C131.99661 281.17365 130.65347 279.83047 130.65347 278.17365C130.65347 276.51678 131.99661 275.17365 133.65347 275.17365C135.31032 275.17365 136.65347 276.51678 136.65347 278.17365Z" fill-rule="nonzero"/><path fill="#000000" fill-opacity="0.0" clip-path="url(#id_0)" d="M141.68713 274.20908C141.68713 275.86594 140.34398 277.20908 138.68713 277.20908C137.03027 277.20908 135.68713 275.86594 135.68713 274.20908C135.68713 272.55222 137.03027 271.20908 138.68713 271.20908C140.34398 271.20908 141.68713 272.55222 141.68713 274.20908Z" fill-rule="nonzero"/><path fill="#000000" fill-opacity="0.0" clip-path="url(#id_0)" d="M146.7208 270.25537C146.7208 271.91223 145.37764 273.25537 143.7208 273.25537C142.06393 273.25537 140.7208 271.91223 140.7208 270.25537C140.7208 268.5985 142.06393 267.25537 143.7208 267.25537C145.37764 267.25537 146.7208 268.5985 146.7208 270.25537Z" fill-rule="nonzero"/><path fill="#000000" fill-opacity="0.0" clip-path="url(#id_0)" d="M151.75446 266.31348C151.75446 267.97034 150.41132 269.31348 148.75446 269.31348C147.0976 269.31348 145.75446 267.97034 145.75446 266.31348C145.75446 264.65665 147.0976 263.31348 148.75446 263.31348C150.41132 263.31348 151.75446 264.65665 151.75446 266.31348Z" fill-rule="nonzero"/><path fill="#000000" fill-opacity="0.0" clip-path="url(#id_0)" d="M156.78812 262.38443C156.78812 264.04126 155.44498 265.38443 153.78812 265.38443C152.13127 265.38443 150.78812 264.04126 150.78812 262.38443C150.78812 260.72757 152.13127 259.38443 153.78812 259.38443C155.44498 259.38443 156.78812 260.72757 156.78812 262.38443Z" fill-rule="nonzero"/><path fill="#000000" fill-opacity="0.0" clip-path="url(#id_0)" d="M161.82178 258.46912C161.82178 260.12598 160.47864 261.46912 158.82178 261.46912C157.16493 261.46912 155.82178 260.12598 155.82178 258.46912C155.82178 256.81226 157.16493 255.46912 158.82178 255.46912C160.47864 255.46912 161.82178 256.81226 161.82178 258.46912Z" fill-rule="nonzero"/><path fill="#000000" fill-opacity="0.0" clip-path="url(#id_0)" d="M166.85544 254.56854C166.85544 256.2254 165.5123 257.56854 163.85544 257.56854C162.1986 257.56854 160.85544 256.2254 160.85544 254.56854C160.85544 252.9117 162.1986 251.56854 163.85544 251.56854C165.5123 251.56854 166.85544 252.9117 166.85544 254.56854Z" fill-rule="nonzero"/><path fill="#000000" fill-opacity="0.0" clip-path="url(#id_0)" d="M171.88911 250.68369C171.88911 252.34053 170.54596 253.68369 168.88911 253.68369C167.23225 253.68369 165.88911 252.34053 165.88911 250.68369C165.88911 249.02682 167.23225 247.68369 168.88911 247.68369C170.54596 247.68369 171.88911 249.02682 171.88911 250.68369Z" fill-rule="nonzero"/><path fill="#000000" fill-opacity="0.0" clip-path="url(#id_0)" d="M176.92278 246.81548C176.92278 248.47234 175.57962 249.81548 173.92278 249.81548C172.26591 249.81548 170.92278 248.47234 170.92278 246.81548C170.92278 245.15862 172.26591 243.81548 173.92278 243.81548C175.57962 243.81548 176.92278 245.15862 176.92278 246.81548Z" fill-rule="nonzero"/><path fill="#000000" fill-opacity="0.0" clip-path="url(#id_0)" d="M181.95644 242.96489C181.95644 244.62173 180.6133 245.96489 178.95644 245.96489C177.29958 245.96489 175.95644 244.62173 175.95644 242.96489C175.95644 241.30803 177.29958 239.96489 178.95644 239.96489C180.6133 239.96489 181.95644 241.30803 181.95644 242.96489Z" fill-rule="nonzero"/><path fill="#000000" fill-opacity="0.0" clip-path="url(#id_0)" d="M186.9901 239.13286C186.9901 240.7897 185.64696 242.13286 183.9901 242.13286C182.33325 242.13286 180.9901 240.7897 180.9901 239.13286C180.9901 237.476 182.33325 236.13286 183.9901 236.13286C185.64696 236.13286 186.9901 237.476 186.9901 239.13286Z" fill-rule="nonzero"/><path fill="#000000" fill-opacity="0.0" clip-path="url(#id_0)" d="M192.02376 235.32033C192.02376 236.97719 190.68062 238.32033 189.02376 238.32033C187.36691 238.32033 186.02376 236.97719 186.02376 235.32033C186.02376 233.66348 187.36691 232.32033 189.02376 232.32033C190.68062 232.32033 192.02376 233.66348 192.02376 235.32033Z" fill-rule="nonzero"/><path fill="#000000" fill-opacity="0.0" clip-path="url(#id_0)" d="M197.05742 231.52826C197.05742 233.1851 195.71428 234.52826 194.05742 234.52826C192.40057 234.52826 191.05742 233.1851 191.05742 231.52826C191.05742 229.8714 192.40057 228.52826 194.05742 228.52826C195.71428 228.52826 197.05742 229.8714 197.05742 231.52826Z" fill-rule="nonzero"/><path fill="#000000" fill-opacity="0.0" clip-path="url(#id_0)" d="M202.0911 227.75757C202.0911 229.41443 200.74794 230.75757 199.0911 230.75757C197.43423 230.75757 196.0911 229.41443 196.0911 227.75757C196.0911 226.10072 197.43423 224.75757 199.0911 224.75757C200.74794 224.75757 202.0911 226.10072 202.0911 227.75757Z" fill-rule="nonzero"/><path fill="#000000" fill-opacity="0.0" clip-path="url(#id_0)" d="M207.12476 224.0092C207.12476 225.66605 205.7816 227.0092 204.12476 227.0092C202.4679 227.0092 201.12476 225.66605 201.12476 224.0092C201.12476 222.35234 202.4679 221.0092 204.12476 221.0092C205.7816 221.0092 207.12476 222.35234 207.12476 224.0092Z" fill-rule="nonzero"/><path fill="#000000" fill-opacity="0.0" clip-path="url(#id_0)" d="M212.15842 220.28407C212.15842 221.94092 210.81528 223.28407 209.15842 223.28407C207.50156 223.28407 206.15842 221.94092 206.15842 220.28407C206.15842 218.62721 207.50156 217.28407 209.15842 217.28407C210.81528 217.28407 212.15842 218.62721 212.15842 220.28407Z" fill-rule="nonzero"/><path fill="#000000" fill-opacity="0.0" clip-path="url(#id_0)" d="M217.19208 216.5831C217.19208 218.23994 215.84894 219.5831 214.19208 219.5831C212.53523 219.5831 211.19208 218.23994 211.19208 216.5831C211.19208 214.92624 212.53523 213.5831 214.19208 213.5831C215.84894 213.5831 217.19208 214.92624 217.19208 216.5831Z" fill-rule="nonzero"/><path fill="#000000" fill-opacity="0.0" clip-path="url(#id_0)" d="M222.22574 212.9072C222.22574 214.56404 220.8826 215.9072 219.22574 215.9072C217.5689 215.9072 216.22574 214.56404 216.22574 212.9072C216.22574 211.25034 217.5689 209.9072 219.22574 209.9072C220.8826 209.9072 222.22574 211.25034 222.22574 212.9072Z" fill-rule="nonzero"/><path fill="#000000" fill-opacity="0.0" clip-path="url(#id_0)" d="M227.2594 209.25728C227.2594 210.91412 225.91626 212.25728 224.2594 212.25728C222.60255 212.25728 221.2594 210.91412 221.2594 209.25728C221.2594 207.60042 222.60255 206.25728 224.2594 206.25728C225.91626 206.25728 227.2594 207.60042 227.2594 209.25728Z" fill-rule="nonzero"/><path fill="#000000" fill-opacity="0.0" clip-path="url(#id_0)" d="M232.29308 205.63423C232.29308 207.29109 230.94992 208.63423 229.29308 208.63423C227.63622 208.63423 226.29308 207.29109 226.29308 205.63423C226.29308 203.97737 227.63622 202.63423 229.29308 202.63423C230.94992 202.63423 232.29308 203.97737 232.29308 205.63423Z" fill-rule="nonzero"/><path fill="#000000" fill-opacity="0.0" clip-path="url(#id_0)" d="M237.32674 202.03897C237.32674 203.69582 235.98358 205.03897 234.32674 205.03897C232.66988 205.03897 231.32674 203.69582 231.32674 202.03897C231.32674 200.38211 232.66988 199.03897 234.32674 199.03897C235.98358 199.03897 237.32674 200.38211 237.32674 202.03897Z" fill-rule="nonzero"/><path fill="#000000" fill-opacity="0.0" clip-path="url(#id_0)" d="M242.3604 198.47235C242.3604 200.12921 241.01726 201.47235 239.3604 201.47235C237.70354 201.47235 236.3604 200.12921 236.3604 198.47235C236.3604 196.8155 237.70354 195.47235 239.3604 195.47235C241.01726 195.47235 242.3604 196.8155 242.3604 198.47235Z" fill-rule="nonzero"/><path fill="#000000" fill-opacity="0.0" clip-path="url(#id_0)" d="M247.39406 194.93529C247.39406 196.59215 246.05092 197.93529 244.39406 197.93529C242.7372 197.93529 241.39406 196.59215 241.39406 194.93529C241.39406 193.27844 242.7372 191.93529 244.39406 191.93529C246.05092 191.93529 247.39406 193.27844 247.39406 194.93529Z" fill-rule="nonzero"/><path fill="#000000" fill-opacity="0.0" clip-path="url(#id_0)" d="M252.42772 191.42863C252.42772 193.0855 251.08458 194.42863 249.42772 194.42863C247.77087 194.42863 246.42772 193.0855 246.42772 191.42863C246.42772 189.77179 247.77087 188.42863 249.42772 188.42863C251.08458 188.42863 252.42772 189.77179 252.42772 191.42863Z" fill-rule="nonzero"/><path fill="#000000" fill-opacity="0.0" clip-path="url(#id_0)" d="M257.4614 187.95326C257.4614 189.61012 256.11826 190.95326 254.46138 190.95326C252.80453 190.95326 251.46138 189.61012 251.46138 187.95326C251.46138 186.29642 252.80453 184.95326 254.46138 184.95326C256.11826 184.95326 257.4614 186.29642 257.4614 187.95326Z" fill-rule="nonzero"/><path fill="#000000" fill-opacity="0.0" clip-path="url(#id_0)" d="M262.49506 184.51004C262.49506 186.16689 261.15192 187.51004 259.49506 187.51004C257.8382 187.51004 256.49506 186.16689 256.49506 184.51004C256.49506 182.85318 257.8382 181.51004 259.49506 181.51004C261.15192 181.51004 262.49506 182.85318 262.49506 184.51004Z" fill-rule="nonzero"/><path fill="#000000" fill-opacity="0.0" clip-path="url(#id_0)" d="M267.52872 181.09978C267.52872 182.75664 266.18558 184.09978 264.52872 184.09978C262.87186 184.09978 261.52872 182.75664 261.52872 181.09978C261.52872 179.44293 262.87186 178.09978 264.52872 178.09978C266.18558 178.09978 267.52872 179.44293 267.52872 181.09978Z" fill-rule="nonzero"/><path fill="#000000" fill-opacity="0.0" clip-path="url(#id_0)" d="M272.56238 177.72336C272.56238 179.38022 271.21924 180.72336 269.56238 180.72336C267.90552 180.72336 266.56238 179.38022 266.56238 177.72336C266.56238 176.06651 267.90552 174.72336 269.56238 174.72336C271.21924 174.72336 272.56238 176.06651 272.56238 177.72336Z" fill-rule="nonzero"/><path fill="#000000" fill-opacity="0.0" clip-path="url(#id_0)" d="M277.59604 174.3816C277.59604 176.03845 276.2529 177.3816 274.59604 177.3816C272.93918 177.3816 271.59604 176.03845 271.59604 174.3816C271.59604 172.72475 272.93918 171.3816 274.59604 171.3816C276.2529 171.3816 277.59604 172.72475 277.59604 174.3816Z" fill-rule="nonzero"/><path fill="#000000" fill-opacity="0.0" clip-path="url(#id_0)" d="M282.6297 171.07532C282.6297 172.73218 281.28656 174.07532 279.6297 174.07532C277.97284 174.07532 276.6297 172.73218 276.6297 171.07532C276.6297 169.41847 277.97284 168.07532 279.6297 168.07532C281.28656 168.07532 282.6297 169.41847 282.6297 171.07532Z" fill-rule="nonzero"/><path fill="#000000" fill-opacity="0.0" clip-path="url(#id_0)" d="M287.66336 167.80534C287.66336 169.4622 286.32022 170.80534 284.66336 170.80534C283.0065 170.80534 281.66336 169.4622 281.66336 167.80534C281.66336 166.1485 283.0065 164.80534 284.66336 164.80534C286.32022 164.80534 287.66336 166.1485 287.66336 167.80534Z" fill-rule="nonzero"/><path fill="#000000" fill-opacity="0.0" clip-path="url(#id_0)" d="M292.69702 164.57248C292.69702 166.22934 291.35388 167.57248 289.69702 167.57248C288.04016 167.57248 286.69702 166.22934 286.69702 164.57248C286.69702 162.91562 288.04016 161.57248 289.69702 161.57248C291.35388 161.57248 292.69702 162.91562 292.69702 164.57248Z" fill-rule="nonzero"/><path fill="#000000" fill-opacity="0.0" clip-path="url(#id_0)" d="M297.73068 161.37752C297.73068 163.03436 296.38754 164.37752 294.73068 164.37752C293.07385 164.37752 291.73068 163.03436 291.73068 161.37752C291.73068 159.72066 293.07385 158.37752 294.73068 158.37752C296.38754 158.37752 297.73068 159.72066 297.73068 161.37752Z" fill-rule="nonzero"/><path fill="#000000" fill-opacity="0.0" clip-path="url(#id_0)" d="M302.76434 158.22125C302.76434 159.8781 301.4212 161.22125 299.76434 161.22125C298.1075 161.22125 296.76434 159.8781 296.76434 158.22125C296.76434 156.56439 298.1075 155.22125 299.76434 155.22125C301.4212 155.22125 302.76434 156.56439 302.76434 158.22125Z" fill-rule="nonzero"/><path fill="#000000" fill-opacity="0.0" clip-path="url(#id_0)" d="M307.79803 155.10445C307.79803 156.7613 306.45486 158.10445 304.79803 158.10445C303.14117 158.10445 301.79803 156.7613 301.79803 155.10445C301.79803 153.4476 303.14117 152.10445 304.79803 152.10445C306.45486 152.10445 307.79803 153.4476 307.79803 155.10445Z" fill-rule="nonzero"/><path fill="#000000" fill-opacity="0.0" clip-path="url(#id_0)" d="M312.8317 152.0279C312.8317 153.68475 311.48853 155.0279 309.8317 155.0279C308.17484 155.0279 306.8317 153.68475 306.8317 152.0279C306.8317 150.37103 308.17484 149.0279 309.8317 149.0279C311.48853 149.0279 312.8317 150.37103 312.8317 152.0279Z" fill-rule="nonzero"/><path fill="#000000" fill-opacity="0.0" clip-path="url(#id_0)" d="M317.86536 148.99234C317.86536 150.64919 316.5222 151.99234 314.86536 151.99234C313.2085 151.99234 311.86536 150.64919 311.86536 148.99234C311.86536 147.33548 313.2085 145.99234 314.86536 145.99234C316.5222 145.99234 317.86536 147.33548 317.86536 148.99234Z" fill-rule="nonzero"/><path fill="#000000" fill-opacity="0.0" clip-path="url(#id_0)" d="M322.89902 145.99854C322.89902 147.65538 321.55588 148.99854 319.89902 148.99854C318.24216 148.99854 316.89902 147.65538 316.89902 145.99854C316.89902 144.34167 318.24216 142.99854 319.89902 142.99854C321.55588 142.99854 322.89902 144.34167 322.89902 145.99854Z" fill-rule="nonzero"/><path fill="#000000" fill-opacity="0.0" clip-path="url(#id_0)" d="M327.93268 143.04721C327.93268 144.70407 326.58954 146.04721 324.93268 146.04721C323.27582 146.04721 321.93268 144.70407 321.93268 143.04721C321.93268 141.39037 323.27582 140.04721 324.93268 140.04721C326.58954 140.04721 327.93268 141.39037 327.93268 143.04721Z" fill-rule="nonzero"/><path fill="#000000" fill-opacity="0.0" clip-path="url(#id_0)" d="M332.96634 140.13911C332.96634 141.79596 331.6232 143.13911 329.96634 143.13911C328.30948 143.13911 326.96634 141.79596 326.96634 140.13911C326.96634 138.48225 328.30948 137.13911 329.96634 137.13911C331.6232 137.13911 332.96634 138.48225 332.96634 140.13911Z" fill-rule="nonzero"/><path fill="#000000" fill-opacity="0.0" clip-path="url(#id_0)" d="M338.0 137.27495C338.0 138.9318 336.65686 140.27495 335.0 140.27495C333.34314 140.27495 332.0 138.9318 332.0 137.27495C332.0 135.61809 333.34314 134.27495 335.0 134.27495C336.65686 134.27495 338.0 135.61809 338.0 137.27495Z" fill-rule="nonzero"/><path fill="#000000" fill-opacity="0.0" clip-path="url(#id_0)" d="M343.03366 134.45541C343.03366 136.11227 341.69052 137.45541 340.03366 137.45541C338.3768 137.45541 337.03366 136.11227 337.03366 134.45541C337.03366 132.79857 338.3768 131.45541 340.03366 131.45541C341.69052 131.45541 343.03366 132.79857 343.03366 134.45541Z" fill-rule="nonzero"/><path fill="#000000" fill-opacity="0.0" clip-path="url(#id_0)" d="M348.06732 131.68123C348.06732 133.33809 346.72418 134.68123 345.06732 134.68123C343.41046 134.68123 342.06732 133.33809 342.06732 131.68123C342.06732 130.02437 343.41046 128.68123 345.06732 128.68123C346.72418 128.68123 348.06732 130.02437 348.06732 131.68123Z" fill-rule="nonzero"/><path fill="#000000" fill-opacity="0.0" clip-path="url(#id_0)" d="M353.10098 128.95306C353.10098 130.60991 351.75784 131.95306 350.10098 131.95306C348.44412 131.95306 347.10098 130.60991 347.10098 128.95306C347.10098 127.2962 348.44412 125.95306 350.10098 125.95306C351.75784 125.95306 353.10098 127.2962 353.10098 128.95306Z" fill-rule="nonzero"/><path fill="#000000" fill-opacity="0.0" clip-path="url(#id_0)" d="M358.13464 126.27158C358.13464 127.92844 356.7915 129.27158 355.13464 129.27158C353.4778 129.27158 352.13464 127.92844 352.13464 126.27158C352.13464 124.61472 353.4778 123.27158 355.13464 123.27158C356.7915 123.27158 358.13464 124.61472 358.13464 126.27158Z" fill-rule="nonzero"/><path fill="#000000" fill-opacity="0.0" clip-path="url(#id_0)" d="M363.1683 123.63746C363.1683 125.29431 361.82516 126.63746 360.1683 126.63746C358.51147 126.63746 357.1683 125.29431 357.1683 123.63746C357.1683 121.980606 358.51147 120.63746 360.1683 120.63746C361.82516 120.63746 363.1683 121.980606 363.1683 123.63746Z" fill-rule="nonzero"/><path fill="#000000" fill-opacity="0.0" clip-path="url(#id_0)" d="M368.20197 121.051346C368.20197 122.7082 366.85883 124.051346 365.20197 124.051346C363.54514 124.051346 362.20197 122.7082 362.20197 121.051346C362.20197 119.39449 363.54514 118.051346 365.20197 118.051346C366.85883 118.051346 368.20197 119.39449 368.20197 121.051346Z" fill-rule="nonzero"/><path fill="#000000" fill-opacity="0.0" clip-path="url(#id_0)" d="M373.23566 118.51387C373.23566 120.17073 371.8925 121.51387 370.23566 121.51387C368.5788 121.51387 367.23566 120.17073 367.23566 118.51387C367.23566 116.85702 368.5788 115.51387 370.23566 115.51387C371.8925 115.51387 373.23566 116.85702 373.23566 118.51387Z" fill-rule="nonzero"/><path fill="#000000" fill-opacity="0.0" clip-path="url(#id_0)" d="M378.26932 116.02567C378.26932 117.682526 376.92615 119.02567 375.26932 119.02567C373.61246 119.02567 372.26932 117.682526 372.26932 116.02567C372.26932 114.36882 373.61246 113.02567 375.26932 113.02567C376.92615 113.02567 378.26932 114.36882 378.26932 116.02567Z" fill-rule="nonzero"/><path fill="#000000" fill-opacity="0.0" clip-path="url(#id_0)" d="M383.30298 113.58735C383.30298 115.24421 381.95984 116.58735 380.30298 116.58735C378.64612 116.58735 377.30298 115.24421 377.30298 113.58735C377.30298 111.9305 378.64612 110.58735 380.30298 110.58735C381.95984 110.58735 383.30298 111.9305 383.30298 113.58735Z" fill-rule="nonzero"/><path fill="#000000" fill-opacity="0.0" clip-path="url(#id_0)" d="M388.33664 111.19952C388.33664 112.85637 386.9935 114.19952 385.33664 114.19952C383.67978 114.19952 382.33664 112.85637 382.33664 111.19952C382.33664 109.54266 383.67978 108.19952 385.33664 108.19952C386.9935 108.19952 388.33664 109.54266 388.33664 111.19952Z" fill-rule="nonzero"/><path fill="#000000" fill-opacity="0.0" clip-path="url(#id_0)" d="M393.3703 108.86276C393.3703 110.519615 392.02716 111.86276 390.3703 111.86276C388.71344 111.86276 387.3703 110.519615 387.3703 108.86276C387.3703 107.2059 388.71344 105.86276 390.3703 105.86276C392.02716 105.86276 393.3703 107.2059 393.3703 108.86276Z" fill-rule="nonzero"/><path fill="#000000" fill-opacity="0.0" clip-path="url(#id_0)" d="M398.40396 106.57765C398.40396 108.234505 397.06082 109.57765 395.40396 109.57765C393.7471 109.57765 392.40396 108.234505 392.40396 106.57765C392.40396 104.9208 393.7471 103.57765 395.40396 103.57765C397.06082 103.57765 398.40396 104.9208 398.40396 106.57765Z" fill-rule="nonzero"/><path fill="#000000" fill-opacity="0.0" clip-path="url(#id_0)" d="M403.43762 104.34476C403.43762 106.00161 402.09448 107.34476 400.43762 107.34476C398.78076 107.34476 397.43762 106.00161 397.43762 104.34476C397.43762 102.687904 398.78076 101.34476 400.43762 101.34476C402.09448 101.34476 403.43762 102.687904 403.43762 104.34476Z" fill-rule="nonzero"/><path fill="#000000" fill-opacity="0.0" clip-path="url(#id_0)" d="M408.47128 102.16463C408.47128 103.82148 407.12814 105.16463 405.47128 105.16463C403.81442 105.16463 402.47128 103.82148 402.47128 102.16463C402.47128 100.507774 403.81442 99.16463 405.47128 99.16463C407.12814 99.16463 408.47128 100.507774 408.47128 102.16463Z" fill-rule="nonzero"/><path fill="#000000" fill-opacity="0.0" clip-path="url(#id_0)" d="M413.50494 100.0378C413.50494 101.69466 412.1618 103.0378 410.50494 103.0378C408.84808 103.0378 407.50494 101.69466 407.50494 100.0378C407.50494 98.38095 408.84808 97.0378 410.50494 97.0378C412.1618 97.0378 413.50494 98.38095 413.50494 100.0378Z" fill-rule="nonzero"/><path fill="#000000" fill-opacity="0.0" clip-path="url(#id_0)" d="M418.5386 97.964806C418.5386 99.62166 417.19547 100.964806 415.5386 100.964806C413.88174 100.964806 412.5386 99.62166 412.5386 97.964806C412.5386 96.30795 413.88174 94.964806 415.5386 94.964806C417.19547 94.964806 418.5386 96.30795 418.5386 97.964806Z" fill-rule="nonzero"/><path fill="#000000" fill-opacity="0.0" clip-path="url(#id_0)" d="M423.57227 95.94615C423.57227 97.603004 422.22913 98.94615 420.57227 98.94615C418.91544 98.94615 417.57227 97.603004 417.57227 95.94615C417.57227 94.2893 418.91544 92.94615 420.57227 92.94615C422.22913 92.94615 423.57227 94.2893 423.57227 95.94615Z" fill-rule="nonzero"/><path fill="#000000" fill-opacity="0.0" clip-path="url(#id_0)" d="M428.60593 93.98233C428.60593 95.63918 427.2628 96.98233 425.60593 96.98233C423.9491 96.98233 422.60593 95.63918 422.60593 93.98233C422.60593 92.32548 423.9491 90.98233 425.60593 90.98233C427.2628 90.98233 428.60593 92.32548 428.60593 93.98233Z" fill-rule="nonzero"/><path fill="#000000" fill-opacity="0.0" clip-path="url(#id_0)" d="M433.63962 92.07384C433.63962 93.73069 432.29645 95.07384 430.63962 95.07384C428.98276 95.07384 427.63962 93.73069 427.63962 92.07384C427.63962 90.41698 428.98276 89.07384 430.63962 89.07384C432.29645 89.07384 433.63962 90.41698 433.63962 92.07384Z" fill-rule="nonzero"/><path fill="#000000" fill-opacity="0.0" clip-path="url(#id_0)" d="M438.67328 90.22113C438.67328 91.87798 437.3301 93.22113 435.67328 93.22113C434.01642 93.22113 432.67328 91.87798 432.67328 90.22113C432.67328 88.56428 434.01642 87.22113 435.67328 87.22113C437.3301 87.22113 438.67328 88.56428 438.67328 90.22113Z" fill-rule="nonzero"/><path fill="#000000" fill-opacity="0.0" clip-path="url(#id_0)" d="M443.70694 88.424675C443.70694 90.081535 442.3638 91.424675 440.70694 91.424675C439.05008 91.424675 437.70694 90.081535 437.70694 88.424675C437.70694 86.76782 439.05008 85.424675 440.70694 85.424675C442.3638 85.424675 443.70694 86.76782 443.70694 88.424675Z" fill-rule="nonzero"/><path fill="#000000" fill-opacity="0.0" clip-path="url(#id_0)" d="M448.7406 86.68492C448.7406 88.341774 447.39746 89.68492 445.7406 89.68492C444.08374 89.68492 442.7406 88.341774 442.7406 86.68492C442.7406 85.02806 444.08374 83.68492 445.7406 83.68492C447.39746 83.68492 448.7406 85.02806 448.7406 86.68492Z" fill-rule="nonzero"/><path fill="#000000" fill-opacity="0.0" clip-path="url(#id_0)" d="M453.77426 85.00228C453.77426 86.659134 452.43112 88.00228 450.77426 88.00228C449.1174 88.00228 447.77426 86.659134 447.77426 85.00228C447.77426 83.34543 449.1174 82.00228 450.77426 82.00228C452.43112 82.00228 453.77426 83.34543 453.77426 85.00228Z" fill-rule="nonzero"/><path fill="#000000" fill-opacity="0.0" clip-path="url(#id_0)" d="M458.80792 83.37718C458.80792 85.034035 457.46478 86.37718 455.80792 86.37718C454.15106 86.37718 452.80792 85.034035 452.80792 83.37718C452.80792 81.72033 454.15106 80.37718 455.80792 80.37718C457.46478 80.37718 458.80792 81.72033 458.80792 83.37718Z" fill-rule="nonzero"/><path fill="#000000" fill-opacity="0.0" clip-path="url(#id_0)" d="M463.84158 81.81002C463.84158 83.46688 462.49844 84.81002 460.84158 84.81002C459.18472 84.81002 457.84158 83.46688 457.84158 81.81002C457.84158 80.15317 459.18472 78.81002 460.84158 78.81002C462.49844 78.81002 463.84158 80.15317 463.84158 81.81002Z" fill-rule="nonzero"/><path fill="#000000" fill-opacity="0.0" clip-path="url(#id_0)" d="M468.87524 80.30119C468.87524 81.958046 467.5321 83.30119 465.87524 83.30119C464.21838 83.30119 462.87524 81.958046 462.87524 80.30119C462.87524 78.64433 464.21838 77.30119 465.87524 77.30119C467.5321 77.30119 468.87524 78.64433 468.87524 80.30119Z" fill-rule="nonzero"/><path fill="#000000" fill-opacity="0.0" clip-path="url(#id_0)" d="M473.9089 78.85105C473.9089 80.50791 472.56577 81.85105 470.9089 81.85105C469.25204 81.85105 467.9089 80.50791 467.9089 78.85105C467.9089 77.1942 469.25204 75.85105 470.9089 75.85105C472.56577 75.85105 473.9089 77.1942 473.9089 78.85105Z" fill-rule="nonzero"/><path fill="#000000" fill-opacity="0.0" clip-path="url(#id_0)" d="M478.94257 77.45998C478.94257 79.11683 477.59943 80.45998 475.94257 80.45998C474.2857 80.45998 472.94257 79.11683 472.94257 77.45998C472.94257 75.80312 474.2857 74.45998 475.94257 74.45998C477.59943 74.45998 478.94257 75.80312 478.94257 77.45998Z" fill-rule="nonzero"/><path fill="#000000" fill-opacity="0.0" clip-path="url(#id_0)" d="M483.97623 76.128296C483.97623 77.78515 482.6331 79.128296 480.97623 79.128296C479.3194 79.128296 477.97623 77.78515 477.97623 76.128296C477.97623 74.471436 479.3194 73.128296 480.97623 73.128296C482.6331 73.128296 483.97623 74.471436 483.97623 76.128296Z" fill-rule="nonzero"/><path fill="#000000" fill-opacity="0.0" clip-path="url(#id_0)" d="M489.0099 74.85634C489.0099 76.51319 487.66675 77.85634 486.0099 77.85634C484.35306 77.85634 483.0099 76.51319 483.0099 74.85634C483.0099 73.199486 484.35306 71.85634 486.0099 71.85634C487.66675 71.85634 489.0099 73.199486 489.0099 74.85634Z" fill-rule="nonzero"/><path fill="#000000" fill-opacity="0.0" clip-path="url(#id_0)" d="M494.04358 73.644424C494.04358 75.301285 492.7004 76.644424 491.04358 76.644424C489.38672 76.644424 488.04358 75.301285 488.04358 73.644424C488.04358 71.98757 489.38672 70.644424 491.04358 70.644424C492.7004 70.644424 494.04358 71.98757 494.04358 73.644424Z" fill-rule="nonzero"/><path fill="#000000" fill-opacity="0.0" clip-path="url(#id_0)" d="M499.07724 72.49286C499.07724 74.14971 497.73407 75.49286 496.07724 75.49286C494.42038 75.49286 493.07724 74.14971 493.07724 72.49286C493.07724 70.836 494.42038 69.49286 496.07724 69.49286C497.73407 69.49286 499.07724 70.836 499.07724 72.49286Z" fill-rule="nonzero"/><path fill="#000000" fill-opacity="0.0" clip-path="url(#id_0)" d="M504.1109 71.40191C504.1109 73.05876 502.76773 74.40191 501.1109 74.40191C499.45404 74.40191 498.1109 73.05876 498.1109 71.40191C498.1109 69.745056 499.45404 68.40191 501.1109 68.40191C502.76773 68.40191 504.1109 69.745056 504.1109 71.40191Z" fill-rule="nonzero"/><path fill="#000000" fill-opacity="0.0" clip-path="url(#id_0)" d="M509.14456 70.37186C509.14456 72.02871 507.80142 73.37186 506.14456 73.37186C504.4877 73.37186 503.14456 72.02871 503.14456 70.37186C503.14456 68.715004 504.4877 67.37186 506.14456 67.37186C507.80142 67.37186 509.14456 68.715004 509.14456 70.37186Z" fill-rule="nonzero"/><path fill="#000000" fill-opacity="0.0" clip-path="url(#id_0)" d="M514.1782 69.40295C514.1782 71.05981 512.8351 72.40295 511.17822 72.40295C509.52136 72.40295 508.17822 71.05981 508.17822 69.40295C508.17822 67.74609 509.52136 66.40295 511.17822 66.40295C512.8351 66.40295 514.1782 67.74609 514.1782 69.40295Z" fill-rule="nonzero"/><path fill="#000000" fill-opacity="0.0" clip-path="url(#id_0)" d="M519.21185 68.49543C519.21185 70.15228 517.8687 71.49543 516.21185 71.49543C514.55505 71.49543 513.21185 70.15228 513.21185 68.49543C513.21185 66.83858 514.55505 65.49543 516.21185 65.49543C517.8687 65.49543 519.21185 66.83858 519.21185 68.49543Z" fill-rule="nonzero"/><path fill="#000000" fill-opacity="0.0" clip-path="url(#id_0)" d="M524.24554 67.64952C524.24554 69.30638 522.9024 70.64952 521.24554 70.64952C519.5887 70.64952 518.24554 69.30638 518.24554 67.64952C518.24554 65.99267 519.5887 64.64952 521.24554 64.64952C522.9024 64.64952 524.24554 65.99267 524.24554 67.64952Z" fill-rule="nonzero"/><path fill="#000000" fill-opacity="0.0" clip-path="url(#id_0)" d="M529.27924 66.86543C529.27924 68.52229 527.93604 69.86543 526.27924 69.86543C524.6224 69.86543 523.27924 68.52229 523.27924 66.86543C523.27924 65.20858 524.6224 63.865437 526.27924 63.865437C527.93604 63.865437 529.27924 65.20858 529.27924 66.86543Z" fill-rule="nonzero"/><path fill="#000000" fill-opacity="0.0" clip-path="url(#id_0)" d="M534.31287 66.143364C534.31287 67.80022 532.9697 69.143364 531.31287 69.143364C529.656 69.143364 528.31287 67.80022 528.31287 66.143364C528.31287 64.4865 529.656 63.14336 531.31287 63.14336C532.9697 63.14336 534.31287 64.4865 534.31287 66.143364Z" fill-rule="nonzero"/><path fill="#000000" fill-opacity="0.0" clip-path="url(#id_0)" d="M539.34656 65.483475C539.34656 67.14033 538.0034 68.483475 536.34656 68.483475C534.6897 68.483475 533.34656 67.14033 533.34656 65.483475C533.34656 63.826622 534.6897 62.483475 536.34656 62.483475C538.0034 62.483475 539.34656 63.826622 539.34656 65.483475Z" fill-rule="nonzero"/><path fill="#000000" fill-opacity="0.0" clip-path="url(#id_0)" d="M544.3802 64.88595C544.3802 66.5428 543.03705 67.88595 541.3802 67.88595C539.7233 67.88595 538.3802 66.5428 538.3802 64.88595C538.3802 63.22909 539.7233 61.88595 541.3802 61.88595C543.03705 61.88595 544.3802 63.22909 544.3802 64.88595Z" fill-rule="nonzero"/><path fill="#000000" fill-opacity="0.0" clip-path="url(#id_0)" d="M549.4139 64.35092C549.4139 66.007774 548.07074 67.35092 546.4139 67.35092C544.757 67.35092 543.4139 66.007774 543.4139 64.35092C543.4139 62.694065 544.757 61.350918 546.4139 61.350918C548.07074 61.350918 549.4139 62.694065 549.4139 64.35092Z" fill-rule="nonzero"/><path fill="#000000" fill-opacity="0.0" clip-path="url(#id_0)" d="M554.4475 63.878525C554.4475 65.53538 553.1044 66.878525 551.4475 66.878525C549.79065 66.878525 548.4475 65.53538 548.4475 63.878525C548.4475 62.22167 549.79065 60.878525 551.4475 60.878525C553.1044 60.878525 554.4475 62.22167 554.4475 63.878525Z" fill-rule="nonzero"/><path fill="#000000" fill-opacity="0.0" clip-path="url(#id_0)" d="M559.4812 63.46888C559.4812 65.12573 558.13806 66.46888 556.4812 66.46888C554.82434 66.46888 553.4812 65.12573 553.4812 63.46888C553.4812 61.812023 554.82434 60.46888 556.4812 60.46888C558.13806 60.46888 559.4812 61.812023 559.4812 63.46888Z" fill-rule="nonzero"/><path fill="#000000" fill-opacity="0.0" clip-path="url(#id_0)" d="M564.51483 63.122086C564.51483 64.77894 563.1717 66.122086 561.51483 66.122086C559.858 66.122086 558.51483 64.77894 558.51483 63.122086C558.51483 61.46523 559.858 60.122086 561.51483 60.122086C563.1717 60.122086 564.51483 61.46523 564.51483 63.122086Z" fill-rule="nonzero"/><path fill="#000000" fill-opacity="0.0" clip-path="url(#id_0)" d="M569.5485 62.838226C569.5485 64.49508 568.2054 65.83823 566.5485 65.83823C564.89166 65.83823 563.5485 64.49508 563.5485 62.838226C563.5485 61.181374 564.89166 59.838226 566.5485 59.838226C568.2054 59.838226 569.5485 61.181374 569.5485 62.838226Z" fill-rule="nonzero"/><path fill="#000000" fill-opacity="0.0" clip-path="url(#id_0)" d="M574.58215 62.61738C574.58215 64.27423 573.239 65.61738 571.58215 65.61738C569.92535 65.61738 568.58215 64.27423 568.58215 62.61738C568.58215 60.96052 569.92535 59.61738 571.58215 59.61738C573.239 59.61738 574.58215 60.96052 574.58215 62.61738Z" fill-rule="nonzero"/><path fill="#000000" fill-opacity="0.0" clip-path="url(#id_0)" d="M579.61584 62.459587C579.61584 64.11644 578.2727 65.45959 576.61584 65.45959C574.959 65.45959 573.61584 64.11644 573.61584 62.459587C573.61584 60.802734 574.959 59.459587 576.61584 59.459587C578.2727 59.459587 579.61584 60.802734 579.61584 62.459587Z" fill-rule="nonzero"/><path fill="#000000" fill-opacity="0.0" clip-path="url(#id_0)" d="M584.6495 62.3649C584.6495 64.02175 583.30634 65.3649 581.6495 65.3649C579.9927 65.3649 578.6495 64.02175 578.6495 62.3649C578.6495 60.708046 579.9927 59.3649 581.6495 59.3649C583.30634 59.3649 584.6495 60.708046 584.6495 62.3649Z" fill-rule="nonzero"/><path fill="#000000" fill-opacity="0.0" clip-path="url(#id_0)" d="M589.68317 62.333332C589.68317 63.99019 588.34 65.333336 586.68317 65.333336C585.0263 65.333336 583.68317 63.99019 583.68317 62.333332C583.68317 60.67648 585.0263 59.333332 586.68317 59.333332C588.34 59.333332 589.68317 60.67648 589.68317 62.333332Z" fill-rule="nonzero"/><path fill="#000000" d="M336.59375 353.2625L336.75 354.1844Q336.29688 354.27814 335.95312 354.27814Q335.375 354.27814 335.0625 354.10626Q334.75 353.91876 334.60938 353.6219Q334.48438 353.325 334.48438 352.3719L334.48438 348.79376L333.71875 348.79376L333.71875 347.98126L334.48438 347.98126L334.48438 346.4344L335.53125 345.8094L335.53125 347.98126L336.59375 347.98126L336.59375 348.79376L335.53125 348.79376L335.53125 352.4344Q335.53125 352.8875 335.57812 353.0125Q335.64062 353.1375 335.76562 353.21564Q335.89062 353.29376 336.125 353.29376Q336.3125 353.29376 336.59375 353.2625Z" fill-rule="nonzero"/><path fill="#000000" d="M29.800013 192.67291L26.565638 190.40729L23.581263 192.50104L23.581263 191.18854L25.034388 190.23541Q25.456263 189.96979 25.737513 189.79791Q25.346888 189.54791 25.050013 189.32916L23.581263 188.28229L23.581263 187.01666L26.503138 189.17291L29.800013 186.86041L29.800013 188.14166L27.862513 189.42291L27.346888 189.76666L29.800013 191.40729L29.800013 192.67291Z" fill-rule="nonzero"/><path fill="#000000" d="M51.3 317.96564Q51.3 316.4344 51.6125 315.5125Q51.925 314.575 52.534374 314.075Q53.159374 313.575 54.096874 313.575Q54.784374 313.575 55.3 313.85626Q55.83125 314.1375 56.175 314.66876Q56.51875 315.1844 56.70625 315.9344Q56.89375 316.6844 56.89375 317.96564Q56.89375 319.48126 56.58125 320.40314Q56.284374 321.325 55.659374 321.84064Q55.05 322.34064 54.096874 322.34064Q52.8625 322.34064 52.14375 321.45Q51.3 320.3875 51.3 317.96564ZM52.378124 317.96564Q52.378124 320.075 52.878124 320.77814Q53.378124 321.48126 54.096874 321.48126Q54.83125 321.48126 55.315624 320.77814Q55.815624 320.075 55.815624 317.96564Q55.815624 315.84064 55.315624 315.15314Q54.83125 314.45 54.08125 314.45Q53.3625 314.45 52.925 315.0594Q52.378124 315.84064 52.378124 317.96564ZM58.89375 322.2L58.89375 320.9969L60.096874 320.9969L60.096874 322.2L58.89375 322.2ZM61.3 317.96564Q61.3 316.4344 61.6125 315.5125Q61.925 314.575 62.534374 314.075Q63.159374 313.575 64.09688 313.575Q64.78438 313.575 65.3 313.85626Q65.83125 314.1375 66.175 314.66876Q66.51875 315.1844 66.70625 315.9344Q66.89375 316.6844 66.89375 317.96564Q66.89375 319.48126 66.58125 320.40314Q66.28438 321.325 65.65938 321.84064Q65.05 322.34064 64.09688 322.34064Q62.8625 322.34064 62.14375 321.45Q61.3 320.3875 61.3 317.96564ZM62.378124 317.96564Q62.378124 320.075 62.878124 320.77814Q63.378124 321.48126 64.09688 321.48126Q64.83125 321.48126 65.31563 320.77814Q65.81563 320.075 65.81563 317.96564Q65.81563 315.84064 65.31563 315.15314Q64.83125 314.45 64.08125 314.45Q63.3625 314.45 62.925 315.0594Q62.378124 315.84064 62.378124 317.96564ZM68.3 317.96564Q68.3 316.4344 68.6125 315.5125Q68.925 314.575 69.53438 314.075Q70.15938 313.575 71.09688 313.575Q71.78438 313.575 72.3 313.85626Q72.83125 314.1375 73.175 314.66876Q73.51875 315.1844 73.70625 315.9344Q73.89375 316.6844 73.89375 317.96564Q73.89375 319.48126 73.58125 320.40314Q73.28438 321.325 72.65938 321.84064Q72.05 322.34064 71.09688 322.34064Q69.8625 322.34064 69.14375 321.45Q68.3 320.3875 68.3 317.96564ZM69.37813 317.96564Q69.37813 320.075 69.87813 320.77814Q70.37813 321.48126 71.09688 321.48126Q71.83125 321.48126 72.31563 320.77814Q72.81563 320.075 72.81563 317.96564Q72.81563 315.84064 72.31563 315.15314Q71.83125 314.45 71.08125 314.45Q70.3625 314.45 69.925 315.0594Q69.37813 315.84064 69.37813 317.96564Z" fill-rule="nonzero"/><path fill="#000000" d="M51.3 253.99896Q51.3 252.46771 51.6125 251.54584Q51.925 250.60834 52.534374 250.10834Q53.159374 249.60834 54.096874 249.60834Q54.784374 249.60834 55.3 249.88959Q55.83125 250.17084 56.175 250.70209Q56.51875 251.21771 56.70625 251.96771Q56.89375 252.71771 56.89375 253.99896Q56.89375 255.51459 56.58125 256.43646Q56.284374 257.35834 55.659374 257.87396Q55.05 258.37396 54.096874 258.37396Q52.8625 258.37396 52.14375 257.48334Q51.3 256.42084 51.3 253.99896ZM52.378124 253.99896Q52.378124 256.10834 52.878124 256.81146Q53.378124 257.5146 54.096874 257.5146Q54.83125 257.5146 55.315624 256.81146Q55.815624 256.10834 55.815624 253.99896Q55.815624 251.87396 55.315624 251.18646Q54.83125 250.48334 54.08125 250.48334Q53.3625 250.48334 52.925 251.09271Q52.378124 251.87396 52.378124 253.99896ZM58.89375 258.23334L58.89375 257.0302L60.096874 257.0302L60.096874 258.23334L58.89375 258.23334ZM66.84688 257.2177L66.84688 258.23334L61.159374 258.23334Q61.159374 257.85834 61.284374 257.49896Q61.503124 256.92084 61.971874 256.35834Q62.45625 255.79584 63.3625 255.06146Q64.76875 253.90521 65.25313 253.23334Q65.75313 252.56146 65.75313 251.96771Q65.75313 251.34271 65.3 250.92084Q64.84688 250.48334 64.12813 250.48334Q63.3625 250.48334 62.909374 250.93646Q62.45625 251.38959 62.440624 252.20209L61.3625 252.09271Q61.471874 250.87396 62.190624 250.24896Q62.925 249.60834 64.15938 249.60834Q65.39375 249.60834 66.1125 250.29584Q66.83125 250.98334 66.83125 251.99896Q66.83125 252.51459 66.6125 253.01459Q66.40938 253.49896 65.90938 254.06146Q65.425 254.60834 64.3 255.56146Q63.346874 256.35834 63.065624 256.6552Q62.8 256.93646 62.628124 257.2177L66.84688 257.2177ZM68.3 255.98334L69.40938 255.88959Q69.53438 256.7021 69.97188 257.10834Q70.425 257.5146 71.06563 257.5146Q71.81563 257.5146 72.34688 256.93646Q72.87813 256.35834 72.87813 255.42084Q72.87813 254.51459 72.3625 253.99896Q71.8625 253.46771 71.03438 253.46771Q70.53438 253.46771 70.1125 253.70209Q69.70625 253.93646 69.47188 254.29584L68.4875 254.17084L69.31563 249.76459L73.59688 249.76459L73.59688 250.76459L70.15938 250.76459L69.70625 253.07709Q70.47188 252.53021 71.31563 252.53021Q72.44063 252.53021 73.20625 253.31146Q73.9875 254.09271 73.9875 255.32709Q73.9875 256.48334 73.31563 257.3427Q72.4875 258.37396 71.06563 258.37396Q69.89375 258.37396 69.14375 257.7177Q68.40938 257.06146 68.3 255.98334Z" fill-rule="nonzero"/><path fill="#000000" d="M51.3 190.03229Q51.3 188.50104 51.6125 187.57916Q51.925 186.64166 52.534374 186.14166Q53.159374 185.64166 54.096874 185.64166Q54.784374 185.64166 55.3 185.92291Q55.83125 186.20416 56.175 186.73541Q56.51875 187.25104 56.70625 188.00104Q56.89375 188.75104 56.89375 190.03229Q56.89375 191.54791 56.58125 192.46979Q56.284374 193.39166 55.659374 193.90729Q55.05 194.40729 54.096874 194.40729Q52.8625 194.40729 52.14375 193.51666Q51.3 192.45416 51.3 190.03229ZM52.378124 190.03229Q52.378124 192.14166 52.878124 192.84479Q53.378124 193.54791 54.096874 193.54791Q54.83125 193.54791 55.315624 192.84479Q55.815624 192.14166 55.815624 190.03229Q55.815624 187.90729 55.315624 187.21979Q54.83125 186.51666 54.08125 186.51666Q53.3625 186.51666 52.925 187.12604Q52.378124 187.90729 52.378124 190.03229ZM58.89375 194.26666L58.89375 193.06354L60.096874 193.06354L60.096874 194.26666L58.89375 194.26666ZM61.3 192.01666L62.409374 191.92291Q62.534374 192.73541 62.971874 193.14166Q63.425 193.54791 64.06563 193.54791Q64.81563 193.54791 65.34688 192.96979Q65.87813 192.39166 65.87813 191.45416Q65.87813 190.54791 65.3625 190.03229Q64.8625 189.50104 64.03438 189.50104Q63.534374 189.50104 63.1125 189.73541Q62.70625 189.96979 62.471874 190.32916L61.4875 190.20416L62.315624 185.79791L66.59688 185.79791L66.59688 186.79791L63.159374 186.79791L62.70625 189.11041Q63.471874 188.56354 64.31563 188.56354Q65.44063 188.56354 66.20625 189.34479Q66.9875 190.12604 66.9875 191.36041Q66.9875 192.51666 66.31563 193.37604Q65.4875 194.40729 64.06563 194.40729Q62.89375 194.40729 62.14375 193.75104Q61.409374 193.09479 61.3 192.01666ZM68.3 190.03229Q68.3 188.50104 68.6125 187.57916Q68.925 186.64166 69.53438 186.14166Q70.15938 185.64166 71.09688 185.64166Q71.78438 185.64166 72.3 185.92291Q72.83125 186.20416 73.175 186.73541Q73.51875 187.25104 73.70625 188.00104Q73.89375 188.75104 73.89375 190.03229Q73.89375 191.54791 73.58125 192.46979Q73.28438 193.39166 72.65938 193.90729Q72.05 194.40729 71.09688 194.40729Q69.8625 194.40729 69.14375 193.51666Q68.3 192.45416 68.3 190.03229ZM69.37813 190.03229Q69.37813 192.14166 69.87813 192.84479Q70.37813 193.54791 71.09688 193.54791Q71.83125 193.54791 72.31563 192.84479Q72.81563 192.14166 72.81563 190.03229Q72.81563 187.90729 72.31563 187.21979Q71.83125 186.51666 71.08125 186.51666Q70.3625 186.51666 69.925 187.12604Q69.37813 187.90729 69.37813 190.03229Z" fill-rule="nonzero"/><path fill="#000000" d="M51.3 126.06563Q51.3 124.53438 51.6125 123.6125Q51.925 122.675 52.534374 122.175Q53.159374 121.675 54.096874 121.675Q54.784374 121.675 55.3 121.95625Q55.83125 122.2375 56.175 122.76875Q56.51875 123.28438 56.70625 124.03438Q56.89375 124.78438 56.89375 126.06563Q56.89375 127.58125 56.58125 128.50313Q56.284374 129.425 55.659374 129.94063Q55.05 130.44063 54.096874 130.44063Q52.8625 130.44063 52.14375 129.55Q51.3 128.4875 51.3 126.06563ZM52.378124 126.06563Q52.378124 128.175 52.878124 128.87813Q53.378124 129.58125 54.096874 129.58125Q54.83125 129.58125 55.315624 128.87813Q55.815624 128.175 55.815624 126.06563Q55.815624 123.94063 55.315624 123.25313Q54.83125 122.55 54.08125 122.55Q53.3625 122.55 52.925 123.15938Q52.378124 123.94063 52.378124 126.06563ZM58.89375 130.3L58.89375 129.09688L60.096874 129.09688L60.096874 130.3L58.89375 130.3ZM61.3625 122.83125L61.3625 121.81563L66.925 121.81563L66.925 122.64375Q66.1125 123.51875 65.3 124.97188Q64.50313 126.40938 64.06563 127.94063Q63.7375 129.01875 63.659374 130.3L62.565624 130.3Q62.58125 129.28438 62.95625 127.84688Q63.346874 126.40938 64.05 125.08125Q64.76875 123.75313 65.58125 122.83125L61.3625 122.83125ZM68.3 128.05L69.40938 127.95625Q69.53438 128.76875 69.97188 129.175Q70.425 129.58125 71.06563 129.58125Q71.81563 129.58125 72.34688 129.00313Q72.87813 128.425 72.87813 127.4875Q72.87813 126.58125 72.3625 126.06563Q71.8625 125.53438 71.03438 125.53438Q70.53438 125.53438 70.1125 125.76875Q69.70625 126.00313 69.47188 126.3625L68.4875 126.2375L69.31563 121.83125L73.59688 121.83125L73.59688 122.83125L70.15938 122.83125L69.70625 125.14375Q70.47188 124.59688 71.31563 124.59688Q72.44063 124.59688 73.20625 125.37813Q73.9875 126.15938 73.9875 127.39375Q73.9875 128.55 73.31563 129.40938Q72.4875 130.44063 71.06563 130.44063Q69.89375 130.44063 69.14375 129.78438Q68.40938 129.12813 68.3 128.05Z" fill-rule="nonzero"/><path fill="#000000" d="M55.26875 66.333336L54.221874 66.333336L54.221874 59.614586Q53.83125 59.97396 53.20625 60.34896Q52.596874 60.708336 52.1125 60.88021L52.1125 59.864586Q52.9875 59.44271 53.64375 58.864586Q54.315624 58.270836 54.596874 57.708336L55.26875 57.708336L55.26875 66.333336ZM58.89375 66.333336L58.89375 65.13021L60.096874 65.13021L60.096874 66.333336L58.89375 66.333336ZM61.3 62.09896Q61.3 60.56771 61.6125 59.645836Q61.925 58.708336 62.534374 58.208336Q63.159374 57.708336 64.09688 57.708336Q64.78438 57.708336 65.3 57.989586Q65.83125 58.270836 66.175 58.802086Q66.51875 59.31771 66.70625 60.06771Q66.89375 60.81771 66.89375 62.09896Q66.89375 63.614586 66.58125 64.53646Q66.28438 65.458336 65.65938 65.97396Q65.05 66.47396 64.09688 66.47396Q62.8625 66.47396 62.14375 65.583336Q61.3 64.520836 61.3 62.09896ZM62.378124 62.09896Q62.378124 64.208336 62.878124 64.91146Q63.378124 65.614586 64.09688 65.614586Q64.83125 65.614586 65.31563 64.91146Q65.81563 64.208336 65.81563 62.09896Q65.81563 59.97396 65.31563 59.28646Q64.83125 58.583336 64.08125 58.583336Q63.3625 58.583336 62.925 59.19271Q62.378124 59.97396 62.378124 62.09896ZM68.3 62.09896Q68.3 60.56771 68.6125 59.645836Q68.925 58.708336 69.53438 58.208336Q70.15938 57.708336 71.09688 57.708336Q71.78438 57.708336 72.3 57.989586Q72.83125 58.270836 73.175 58.802086Q73.51875 59.31771 73.70625 60.06771Q73.89375 60.81771 73.89375 62.09896Q73.89375 63.614586 73.58125 64.53646Q73.28438 65.458336 72.65938 65.97396Q72.05 66.47396 71.09688 66.47396Q69.8625 66.47396 69.14375 65.583336Q68.3 64.520836 68.3 62.09896ZM69.37813 62.09896Q69.37813 64.208336 69.87813 64.91146Q70.37813 65.614586 71.09688 65.614586Q71.83125 65.614586 72.31563 64.91146Q72.81563 64.208336 72.81563 62.09896Q72.81563 59.97396 72.31563 59.28646Q71.83125 58.583336 71.08125 58.583336Q70.3625 58.583336 69.925 59.19271Q69.37813 59.97396 69.37813 62.09896Z" fill-rule="nonzero"/><path fill="#757575" d="M20.378124 37.8L20.378124 23.4875L30.7375 23.4875L30.7375 25.175L22.284374 25.175L22.284374 29.55L30.190624 29.55L30.190624 31.2375L22.284374 31.2375L22.284374 36.1125L31.065624 36.1125L31.065624 37.8L20.378124 37.8ZM39.89375 36.51875Q38.909374 37.346874 38.003124 37.690624Q37.096874 38.034374 36.065624 38.034374Q34.3625 38.034374 33.440624 37.20625Q32.51875 36.3625 32.51875 35.065624Q32.51875 34.3 32.8625 33.675Q33.221874 33.05 33.784374 32.675Q34.346874 32.284374 35.05 32.08125Q35.565624 31.95625 36.6125 31.815624Q38.7375 31.565624 39.7375 31.221874Q39.753124 30.8625 39.753124 30.753124Q39.753124 29.690624 39.253124 29.2375Q38.58125 28.64375 37.253124 28.64375Q36.003124 28.64375 35.409374 29.08125Q34.83125 29.51875 34.55 30.628124L32.83125 30.39375Q33.065624 29.284374 33.596874 28.6125Q34.128124 27.925 35.14375 27.565624Q36.159374 27.190624 37.503124 27.190624Q38.83125 27.190624 39.659374 27.503124Q40.4875 27.815624 40.878124 28.3Q41.26875 28.76875 41.425 29.4875Q41.51875 29.940624 41.51875 31.1125L41.51875 33.45625Q41.51875 35.909374 41.628124 36.565624Q41.7375 37.20625 42.08125 37.8L40.2375 37.8Q39.971874 37.253124 39.89375 36.51875ZM39.7375 32.596874Q38.784374 32.9875 36.8625 33.253124Q35.784374 33.409374 35.33125 33.6125Q34.89375 33.8 34.64375 34.175Q34.39375 34.55 34.39375 35.01875Q34.39375 35.721874 34.925 36.190624Q35.45625 36.659374 36.4875 36.659374Q37.503124 36.659374 38.284374 36.221874Q39.08125 35.76875 39.45625 35.003124Q39.7375 34.39375 39.7375 33.2375L39.7375 32.596874ZM43.409374 34.70625L45.159374 34.425Q45.3 35.471874 45.971874 36.034374Q46.64375 36.58125 47.846874 36.58125Q49.05 36.58125 49.628124 36.096874Q50.221874 35.596874 50.221874 34.940624Q50.221874 34.346874 49.70625 34.003124Q49.346874 33.76875 47.909374 33.409374Q45.971874 32.909374 45.221874 32.565624Q44.4875 32.20625 44.096874 31.58125Q43.70625 30.940624 43.70625 30.175Q43.70625 29.4875 44.01875 28.89375Q44.346874 28.3 44.89375 27.909374Q45.3 27.6125 46.003124 27.409374Q46.721874 27.190624 47.534374 27.190624Q48.753124 27.190624 49.675 27.55Q50.596874 27.89375 51.034374 28.503124Q51.471874 29.096874 51.64375 30.096874L49.925 30.33125Q49.8 29.534374 49.2375 29.096874Q48.675 28.64375 47.659374 28.64375Q46.440624 28.64375 45.925 29.05Q45.409374 29.440624 45.409374 29.971874Q45.409374 30.315624 45.628124 30.596874Q45.83125 30.878124 46.3 31.065624Q46.565624 31.159374 47.846874 31.503124Q49.721874 32.003124 50.45625 32.33125Q51.190624 32.64375 51.6125 33.253124Q52.034374 33.846874 52.034374 34.753124Q52.034374 35.628124 51.51875 36.409374Q51.003124 37.190624 50.034374 37.6125Q49.065624 38.034374 47.846874 38.034374Q45.83125 38.034374 44.76875 37.190624Q43.70625 36.346874 43.409374 34.70625ZM61.221874 34.45625L63.034374 34.690624Q62.6125 36.26875 61.440624 37.159374Q60.284374 38.034374 58.471874 38.034374Q56.20625 38.034374 54.8625 36.64375Q53.534374 35.2375 53.534374 32.70625Q53.534374 30.08125 54.878124 28.64375Q56.221874 27.190624 58.378124 27.190624Q60.45625 27.190624 61.76875 28.6125Q63.096874 30.01875 63.096874 32.596874Q63.096874 32.753124 63.08125 33.065624L55.346874 33.065624Q55.440624 34.76875 56.315624 35.675Q57.190624 36.58125 58.4875 36.58125Q59.45625 36.58125 60.128124 36.08125Q60.815624 35.565624 61.221874 34.45625ZM55.440624 31.6125L61.2375 31.6125Q61.128124 30.315624 60.58125 29.659374Q59.7375 28.64375 58.39375 28.64375Q57.190624 28.64375 56.3625 29.45625Q55.534374 30.253124 55.440624 31.6125ZM64.76875 30.83125Q64.76875 27.26875 66.675 25.253124Q68.59688 23.221874 71.62813 23.221874Q73.6125 23.221874 75.19063 24.175Q76.78438 25.128124 77.6125 26.83125Q78.45625 28.51875 78.45625 30.659374Q78.45625 32.83125 77.58125 34.55Q76.70625 36.26875 75.08125 37.159374Q73.47188 38.05 71.6125 38.05Q69.59688 38.05 68.00313 37.08125Q66.40938 36.096874 65.58125 34.409374Q64.76875 32.70625 64.76875 30.83125ZM66.72188 30.8625Q66.72188 33.440624 68.1125 34.940624Q69.50313 36.425 71.59688 36.425Q73.7375 36.425 75.1125 34.925Q76.50313 33.409374 76.50313 30.64375Q76.50313 28.909374 75.90938 27.6125Q75.33125 26.3 74.19063 25.58125Q73.05 24.8625 71.62813 24.8625Q69.62813 24.8625 68.175 26.253124Q66.72188 27.628124 66.72188 30.8625ZM87.90938 37.8L87.90938 36.26875Q86.70625 38.034374 84.62813 38.034374Q83.70625 38.034374 82.90938 37.690624Q82.1125 37.33125 81.72188 36.8Q81.34688 36.26875 81.19063 35.4875Q81.08125 34.971874 81.08125 33.846874L81.08125 27.425L82.83125 27.425L82.83125 33.175Q82.83125 34.55 82.94063 35.034374Q83.1125 35.721874 83.64375 36.128124Q84.19063 36.51875 84.97188 36.51875Q85.76875 36.51875 86.45625 36.1125Q87.15938 35.70625 87.44063 35.01875Q87.7375 34.315624 87.7375 32.9875L87.7375 27.425L89.4875 27.425L89.4875 37.8L87.90938 37.8ZM94.95625 36.221874L95.20625 37.784374Q94.47188 37.940624 93.87813 37.940624Q92.925 37.940624 92.39375 37.64375Q91.87813 37.33125 91.65938 36.846874Q91.44063 36.346874 91.44063 34.76875L91.44063 28.8L90.15938 28.8L90.15938 27.425L91.44063 27.425L91.44063 24.8625L93.19063 23.8L93.19063 27.425L94.95625 27.425L94.95625 28.8L93.19063 28.8L93.19063 34.8625Q93.19063 35.6125 93.28438 35.83125Q93.37813 36.034374 93.58125 36.175Q93.8 36.3 94.19063 36.3Q94.47188 36.3 94.95625 36.221874ZM96.70625 33.20625L98.4875 33.05Q98.6125 34.1125 99.06563 34.8Q99.53438 35.4875 100.50313 35.925Q101.4875 36.346874 102.72188 36.346874Q103.8 36.346874 104.62813 36.034374Q105.45625 35.70625 105.8625 35.14375Q106.26875 34.58125 106.26875 33.909374Q106.26875 33.2375 105.87813 32.7375Q105.4875 32.2375 104.59688 31.89375Q104.01875 31.659374 102.03438 31.190624Q100.06563 30.721874 99.28438 30.3Q98.25313 29.76875 97.75313 28.971874Q97.25313 28.175 97.25313 27.190624Q97.25313 26.096874 97.8625 25.159374Q98.47188 24.221874 99.65938 23.7375Q100.84688 23.2375 102.28438 23.2375Q103.87813 23.2375 105.09688 23.753124Q106.31563 24.26875 106.95625 25.26875Q107.6125 26.253124 107.65938 27.51875L105.84688 27.659374Q105.70625 26.3 104.8625 25.6125Q104.01875 24.909374 102.3625 24.909374Q100.64375 24.909374 99.84688 25.55Q99.06563 26.175 99.06563 27.05Q99.06563 27.83125 99.62813 28.33125Q100.175 28.83125 102.4875 29.346874Q104.8 29.8625 105.65938 30.253124Q106.90938 30.83125 107.50313 31.721874Q108.09688 32.596874 108.09688 33.753124Q108.09688 34.89375 107.44063 35.909374Q106.78438 36.925 105.55 37.4875Q104.33125 38.05 102.8 38.05Q100.8625 38.05 99.55 37.4875Q98.2375 36.909374 97.4875 35.76875Q96.7375 34.628124 96.70625 33.20625ZM110.12813 25.503124L110.12813 23.4875L111.89375 23.4875L111.89375 25.503124L110.12813 25.503124ZM110.12813 37.8L110.12813 27.425L111.89375 27.425L111.89375 37.8L110.12813 37.8ZM114.1125 37.8L114.1125 27.425L115.70625 27.425L115.70625 28.909374Q116.84688 27.190624 119.00313 27.190624Q119.94063 27.190624 120.72188 27.534374Q121.51875 27.8625 121.90938 28.409374Q122.3 28.95625 122.45625 29.70625Q122.55 30.20625 122.55 31.425L122.55 37.8L120.78438 37.8L120.78438 31.4875Q120.78438 30.409374 120.58125 29.878124Q120.37813 29.346874 119.84688 29.034374Q119.33125 28.721874 118.62813 28.721874Q117.50313 28.721874 116.69063 29.440624Q115.87813 30.14375 115.87813 32.128124L115.87813 37.8L114.1125 37.8ZM131.22188 34.45625L133.03438 34.690624Q132.6125 36.26875 131.44063 37.159374Q130.28438 38.034374 128.47188 38.034374Q126.20625 38.034374 124.8625 36.64375Q123.53438 35.2375 123.53438 32.70625Q123.53438 30.08125 124.87813 28.64375Q126.22188 27.190624 128.37813 27.190624Q130.45625 27.190624 131.76875 28.6125Q133.09688 30.01875 133.09688 32.596874Q133.09688 32.753124 133.08125 33.065624L125.34688 33.065624Q125.44063 34.76875 126.31563 35.675Q127.19063 36.58125 128.4875 36.58125Q129.45625 36.58125 130.12813 36.08125Q130.81563 35.565624 131.22188 34.45625ZM125.44063 31.6125L131.2375 31.6125Q131.12813 30.315624 130.58125 29.659374Q129.7375 28.64375 128.39375 28.64375Q127.19063 28.64375 126.3625 29.45625Q125.53438 30.253124 125.44063 31.6125Z" fill-rule="nonzero"/></svg>