<svg version="1.1" viewBox="0.0 0.0 608.0 376.0" fill="none" stroke="none" stroke-linecap="square" stroke-miterlimit="10" width="608" height="376" xmlns:xlink="http://www.w3.org/1999/xlink" xmlns="http://www.w3.org/2000/svg"><path fill="#ffffff" d="M0 0L608.0 0L608.0 376.0L0 376.0L0 0Z" fill-rule="nonzero"/><path stroke="#cccccc" stroke-width="1.0" stroke-linecap="butt" d="M77.5 318.5L589.5 318.5" fill-rule="nonzero"/><path stroke="#333333" stroke-width="1.0" stroke-linecap="butt" d="M77.5 232.5L589.5 232.5" fill-rule="nonzero"/><path stroke="#cccccc" stroke-width="1.0" stroke-linecap="butt" d="M77.5 147.5L589.5 147.5" fill-rule="nonzero"/><path stroke="#cccccc" stroke-width="1.0" stroke-linecap="butt" d="M77.5 62.5L589.5 62.5" fill-rule="nonzero"/><path stroke="#000000" stroke-width="1.0" stroke-linecap="butt" d="M77.5 318.5L77.5 62.5" fill-rule="nonzero"/><clipPath id="id_0"><path d="M77.8 62.333332L589.2 62.333332L589.2 318.2L77.8 318.2L77.8 62.333332Z" clip-rule="nonzero"/></clipPath><path stroke="#4285f4" stroke-width="2.0" stroke-linecap="butt" clip-path="url(#id_0)" d="M80.33168 232.91112C80.33168 232.91112 83.70726 232.96295 85.39505 232.96628C87.08284 232.96962 88.77063 232.94388 90.45841 232.9311C92.1462 232.91835 93.83399 232.90433 95.52178 232.88968C97.20957 232.87502 98.89736 232.85925 100.58515 232.84319C102.272934 232.82713 103.960724 232.81017 105.64851 232.79332C107.3363 232.77649 109.02409 232.75902 110.71188 232.74216C112.39967 232.72531 114.087456 232.70819 115.775246 232.69218C117.463036 232.67618 119.150826 232.66034 120.838615 232.64615C122.526405 232.63196 124.21419 232.61842 125.90198 232.60706C127.58977 232.59569 129.27756 232.58548 130.96535 232.57796C132.65314 232.57042 134.34093 232.56459 136.02872 232.56184C137.7165 232.5591 139.4043 232.5586 141.09209 232.5615C142.77986 232.5644 144.46765 232.57004 146.15544 232.57928C147.84323 232.58852 149.53102 232.60092 151.21881 232.61696C152.9066 232.633 154.59439 232.65251 156.28218 232.67554C157.96997 232.69855 159.65776 232.72523 161.34555 232.75507C163.03334 232.7849 164.72112 232.81842 166.4089 232.85454C168.0967 232.89066 169.78448 232.9303 171.47227 232.97174C173.16006 233.0132 174.84785 233.0578 176.53564 233.10323C178.22343 233.14865 179.91122 233.19664 181.59901 233.24428C183.2868 233.2919 184.9746 233.3413 186.66237 233.38896C188.35016 233.43665 190.03795 233.48508 191.72574 233.53033C193.41353 233.57559 195.10132 233.62039 196.78911 233.66052C198.4769 233.70065 200.16469 233.73897 201.85248 233.77112C203.54027 233.80327 205.22806 233.83212 206.91585 233.85342C208.60364 233.87474 210.29141 233.89124 211.9792 233.89899C213.66699 233.90675 215.35478 233.90819 217.04257 233.89996C218.73036 233.89175 220.41815 233.87582 222.10594 233.84967C223.79373 233.82353 225.48152 233.78848 227.16931 233.7431C228.8571 233.69774 230.54489 233.64253 232.23267 233.57742C233.92046 233.51233 235.60825 233.43686 237.29604 233.35248C238.98383 233.2681 240.67162 233.17326 242.3594 233.07112C244.0472 232.96898 245.73499 232.85684 247.42278 232.73961C249.11057 232.62238 250.79836 232.4962 252.48615 232.36772C254.17393 232.23926 255.86171 232.10349 257.5495 231.9688C259.2373 231.83409 260.92508 231.69438 262.61288 231.55954C264.30066 231.42468 265.98843 231.2877 267.67624 231.15968C269.364 231.03168 271.05182 230.90495 272.7396 230.79144C274.4274 230.67795 276.11517 230.5696 277.80298 230.47867C279.49075 230.38773 281.17856 230.30612 282.86633 230.24583C284.55414 230.18555 286.2419 230.1389 287.92972 230.11696C289.6175 230.09502 291.30527 230.09096 292.99307 230.1142C294.68085 230.13745 296.36865 230.18251 298.05643 230.25645C299.74423 230.3304 301.432 230.42953 303.1198 230.55788C304.8076 230.68622 306.4954 230.84233 308.18317 231.02647C309.87097 231.21062 311.55875 231.42407 313.24652 231.66273C314.93433 231.90141 316.6221 232.16962 318.3099 232.45853C319.99768 232.74744 321.6855 233.06459 323.37326 233.39618C325.06107 233.72777 326.74884 234.08467 328.43665 234.44803C330.12442 234.8114 331.81223 235.1954 333.5 235.57639C335.18777 235.95738 336.87558 236.35254 338.56335 236.73395C340.25116 237.11537 341.93893 237.5028 343.62674 237.86488C345.3145 238.22696 347.00232 238.58539 348.6901 238.90642C350.3779 239.22746 352.06567 239.5339 353.75348 239.79112C355.44125 240.04832 357.12903 240.27914 358.81683 240.44966C360.5046 240.62016 362.1924 240.7521 363.8802 240.81416C365.568 240.87622 367.25577 240.88773 368.94357 240.82198C370.63135 240.75621 372.31915 240.62878 374.00693 240.41963C375.69473 240.21048 377.3825 239.93005 379.07028 239.56706C380.7581 239.20407 382.44586 238.76251 384.13367 238.24167C385.82144 237.72083 387.50925 237.11711 389.19702 236.44203C390.88483 235.76695 392.5726 235.00836 394.2604 234.19121C395.94818 233.37405 397.636 232.477 399.32376 231.53914C401.01157 230.60127 402.69934 229.5918 404.38712 228.56404C406.07492 227.53627 407.7627 226.45016 409.4505 225.37257C411.13828 224.29497 412.82608 223.17729 414.51385 222.09848C416.20166 221.01967 417.88943 219.92384 419.57724 218.89972C421.265 217.87561 422.95282 216.86185 424.6406 215.95381C426.32837 215.04578 428.01617 214.179 429.70395 213.4515C431.39175 212.72403 433.07953 212.07115 434.76733 211.58888C436.4551 211.10661 438.1429 210.73341 439.8307 210.5579C441.5185 210.38239 443.20627 210.34984 444.89407 210.53583C446.58185 210.72182 448.26962 211.08226 449.95743 211.67383C451.6452 212.26538 453.333 213.05853 455.02078 214.08522C456.7086 215.11192 458.39636 216.36087 460.08417 217.83403C461.77194 219.30717 463.45975 221.01476 465.14752 222.92416C466.83533 224.83357 468.5231 226.9792 470.21088 229.29045C471.89868 231.6017 473.58646 234.13896 475.27426 236.79164C476.96204 239.44432 478.64984 242.29955 480.33762 245.20648C482.02542 248.11343 483.7132 251.18544 485.401 254.23334C487.08878 257.28122 488.77658 260.44254 490.46436 263.49384C492.15213 266.54517 493.83994 269.64468 495.5277 272.5413C497.2155 275.43793 498.9033 278.30527 500.5911 280.8736C502.27887 283.4419 503.96667 285.89352 505.65445 287.95117C507.34225 290.00882 509.03003 291.8554 510.71783 293.21945C512.40564 294.58353 514.0934 295.6391 515.7812 296.13553C517.469 296.63196 519.15674 296.72403 520.84454 296.19797C522.53235 295.67194 524.22015 294.65244 525.9079 292.97925C527.5957 291.30603 529.2835 289.06268 530.9713 286.15875C532.65906 283.2548 534.34686 279.72226 536.03467 275.55554C537.7224 271.38885 539.4102 266.55908 541.098 261.15848C542.7858 255.75786 544.4736 249.68909 546.1614 243.15189C547.8492 236.6147 549.537 229.4382 551.22473 221.93532C552.91254 214.43242 554.60034 206.35663 556.28815 198.13454C557.9759 189.91245 559.6637 181.22351 561.3515 172.60275C563.03925 163.98201 564.72705 155.04053 566.41486 146.41006C568.10266 137.77962 569.7904 129.01291 571.4782 120.82002C573.166 112.62713 574.8538 104.51701 576.54156 97.25273C578.2294 89.98845 579.9172 83.05423 581.605 77.23433C583.2927 71.41443 586.66833 62.333332 586.66833 62.333332" fill-rule="nonzero"/><path fill="#000000" fill-opacity="0.0" clip-path="url(#id_0)" d="M83.33168 232.91112C83.33168 234.56796 81.98854 235.91112 80.33168 235.91112C78.67483 235.91112 77.33168 234.56796 77.33168 232.91112C77.33168 231.25426 78.67483 229.91112 80.33168 229.91112C81.98854 229.91112 83.33168 231.25426 83.33168 232.91112Z" fill-rule="nonzero"/><path fill="#000000" fill-opacity="0.0" clip-path="url(#id_0)" d="M88.39505 232.96628C88.39505 234.62314 87.0519 235.96628 85.39505 235.96628C83.7382 235.96628 82.39505 234.62314 82.39505 232.96628C82.39505 231.30943 83.7382 229.96628 85.39505 229.96628C87.0519 229.96628 88.39505 231.30943 88.39505 232.96628Z" fill-rule="nonzero"/><path fill="#000000" fill-opacity="0.0" clip-path="url(#id_0)" d="M93.45841 232.9311C93.45841 234.58797 92.11527 235.9311 90.45841 235.9311C88.80156 235.9311 87.45841 234.58797 87.45841 232.9311C87.45841 231.27426 88.80156 229.9311 90.45841 229.9311C92.11527 229.9311 93.45841 231.27426 93.45841 232.9311Z" fill-rule="nonzero"/><path fill="#000000" fill-opacity="0.0" clip-path="url(#id_0)" d="M98.52178 232.88968C98.52178 234.54652 97.178635 235.88968 95.52178 235.88968C93.86493 235.88968 92.52178 234.54652 92.52178 232.88968C92.52178 231.23282 93.86493 229.88968 95.52178 229.88968C97.178635 229.88968 98.52178 231.23282 98.52178 232.88968Z" fill-rule="nonzero"/><path fill="#000000" fill-opacity="0.0" clip-path="url(#id_0)" d="M103.58515 232.84319C103.58515 234.50005 102.242004 235.84319 100.58515 235.84319C98.92829 235.84319 97.58515 234.50005 97.58515 232.84319C97.58515 231.18634 98.92829 229.84319 100.58515 229.84319C102.242004 229.84319 103.58515 231.18634 103.58515 232.84319Z" fill-rule="nonzero"/><path fill="#000000" fill-opacity="0.0" clip-path="url(#id_0)" d="M108.64851 232.79332C108.64851 234.45018 107.30537 235.79332 105.64851 235.79332C103.99166 235.79332 102.64851 234.45018 102.64851 232.79332C102.64851 231.13647 103.99166 229.79332 105.64851 229.79332C107.30537 229.79332 108.64851 231.13647 108.64851 232.79332Z" fill-rule="nonzero"/><path fill="#000000" fill-opacity="0.0" clip-path="url(#id_0)" d="M113.71188 232.74216C113.71188 234.39902 112.36874 235.74216 110.71188 235.74216C109.05502 235.74216 107.71188 234.39902 107.71188 232.74216C107.71188 231.08531 109.05502 229.74216 110.71188 229.74216C112.36874 229.74216 113.71188 231.08531 113.71188 232.74216Z" fill-rule="nonzero"/><path fill="#000000" fill-opacity="0.0" clip-path="url(#id_0)" d="M118.775246 232.69218C118.775246 234.34904 117.4321 235.69218 115.775246 235.69218C114.11839 235.69218 112.775246 234.34904 112.775246 232.69218C112.775246 231.03532 114.11839 229.69218 115.775246 229.69218C117.4321 229.69218 118.775246 231.03532 118.775246 232.69218Z" fill-rule="nonzero"/><path fill="#000000" fill-opacity="0.0" clip-path="url(#id_0)" d="M123.838615 232.64615C123.838615 234.30301 122.49547 235.64615 120.838615 235.64615C119.18176 235.64615 117.838615 234.30301 117.838615 232.64615C117.838615 230.9893 119.18176 229.64615 120.838615 229.64615C122.49547 229.64615 123.838615 230.9893 123.838615 232.64615Z" fill-rule="nonzero"/><path fill="#000000" fill-opacity="0.0" clip-path="url(#id_0)" d="M128.90198 232.60706C128.90198 234.26392 127.55884 235.60706 125.90198 235.60706C124.245125 235.60706 122.90198 234.26392 122.90198 232.60706C122.90198 230.9502 124.245125 229.60706 125.90198 229.60706C127.55884 229.60706 128.90198 230.9502 128.90198 232.60706Z" fill-rule="nonzero"/><path fill="#000000" fill-opacity="0.0" clip-path="url(#id_0)" d="M133.96535 232.57796C133.96535 234.2348 132.62221 235.57796 130.96535 235.57796C129.30849 235.57796 127.96535 234.2348 127.96535 232.57796C127.96535 230.9211 129.30849 229.57796 130.96535 229.57796C132.62221 229.57796 133.96535 230.9211 133.96535 232.57796Z" fill-rule="nonzero"/><path fill="#000000" fill-opacity="0.0" clip-path="url(#id_0)" d="M139.02872 232.56184C139.02872 234.21869 137.68556 235.56184 136.02872 235.56184C134.37186 235.56184 133.02872 234.21869 133.02872 232.56184C133.02872 230.90498 134.37186 229.56184 136.02872 229.56184C137.68556 229.56184 139.02872 230.90498 139.02872 232.56184Z" fill-rule="nonzero"/><path fill="#000000" fill-opacity="0.0" clip-path="url(#id_0)" d="M144.09209 232.5615C144.09209 234.21835 142.74893 235.5615 141.09209 235.5615C139.43523 235.5615 138.09209 234.21835 138.09209 232.5615C138.09209 230.90465 139.43523 229.5615 141.09209 229.5615C142.74893 229.5615 144.09209 230.90465 144.09209 232.5615Z" fill-rule="nonzero"/><path fill="#000000" fill-opacity="0.0" clip-path="url(#id_0)" d="M149.15544 232.57928C149.15544 234.23613 147.8123 235.57928 146.15544 235.57928C144.4986 235.57928 143.15544 234.23613 143.15544 232.57928C143.15544 230.92242 144.4986 229.57928 146.15544 229.57928C147.8123 229.57928 149.15544 230.92242 149.15544 232.57928Z" fill-rule="nonzero"/><path fill="#000000" fill-opacity="0.0" clip-path="url(#id_0)" d="M154.21881 232.61696C154.21881 234.2738 152.87567 235.61696 151.21881 235.61696C149.56195 235.61696 148.21881 234.2738 148.21881 232.61696C148.21881 230.9601 149.56195 229.61696 151.21881 229.61696C152.87567 229.61696 154.21881 230.9601 154.21881 232.61696Z" fill-rule="nonzero"/><path fill="#000000" fill-opacity="0.0" clip-path="url(#id_0)" d="M159.28218 232.67554C159.28218 234.33238 157.93903 235.67554 156.28218 235.67554C154.62532 235.67554 153.28218 234.33238 153.28218 232.67554C153.28218 231.01868 154.62532 229.67554 156.28218 229.67554C157.93903 229.67554 159.28218 231.01868 159.28218 232.67554Z" fill-rule="nonzero"/><path fill="#000000" fill-opacity="0.0" clip-path="url(#id_0)" d="M164.34555 232.75507C164.34555 234.41193 163.0024 235.75507 161.34555 235.75507C159.68869 235.75507 158.34555 234.41193 158.34555 232.75507C158.34555 231.0982 159.68869 229.75507 161.34555 229.75507C163.0024 229.75507 164.34555 231.0982 164.34555 232.75507Z" fill-rule="nonzero"/><path fill="#000000" fill-opacity="0.0" clip-path="url(#id_0)" d="M169.4089 232.85454C169.4089 234.5114 168.06577 235.85454 166.4089 235.85454C164.75206 235.85454 163.4089 234.5114 163.4089 232.85454C163.4089 231.19768 164.75206 229.85454 166.4089 229.85454C168.06577 229.85454 169.4089 231.19768 169.4089 232.85454Z" fill-rule="nonzero"/><path fill="#000000" fill-opacity="0.0" clip-path="url(#id_0)" d="M174.47227 232.97174C174.47227 234.6286 173.12914 235.97174 171.47227 235.97174C169.81543 235.97174 168.47227 234.6286 168.47227 232.97174C168.47227 231.3149 169.81543 229.97174 171.47227 229.97174C173.12914 229.97174 174.47227 231.3149 174.47227 232.97174Z" fill-rule="nonzero"/><path fill="#000000" fill-opacity="0.0" clip-path="url(#id_0)" d="M179.53564 233.10323C179.53564 234.76009 178.1925 236.10323 176.53564 236.10323C174.87878 236.10323 173.53564 234.76009 173.53564 233.10323C173.53564 231.44637 174.87878 230.10323 176.53564 230.10323C178.1925 230.10323 179.53564 231.44637 179.53564 233.10323Z" fill-rule="nonzero"/><path fill="#000000" fill-opacity="0.0" clip-path="url(#id_0)" d="M184.59901 233.24428C184.59901 234.90112 183.25586 236.24428 181.59901 236.24428C179.94215 236.24428 178.59901 234.90112 178.59901 233.24428C178.59901 231.58742 179.94215 230.24428 181.59901 230.24428C183.25586 230.24428 184.59901 231.58742 184.59901 233.24428Z" fill-rule="nonzero"/><path fill="#000000" fill-opacity="0.0" clip-path="url(#id_0)" d="M189.66237 233.38896C189.66237 235.04582 188.31923 236.38896 186.66237 236.38896C185.00552 236.38896 183.66237 235.04582 183.66237 233.38896C183.66237 231.73212 185.00552 230.38896 186.66237 230.38896C188.31923 230.38896 189.66237 231.73212 189.66237 233.38896Z" fill-rule="nonzero"/><path fill="#000000" fill-opacity="0.0" clip-path="url(#id_0)" d="M194.72574 233.53033C194.72574 235.18718 193.3826 236.53033 191.72574 236.53033C190.0689 236.53033 188.72574 235.18718 188.72574 233.53033C188.72574 231.87347 190.0689 230.53033 191.72574 230.53033C193.3826 230.53033 194.72574 231.87347 194.72574 233.53033Z" fill-rule="nonzero"/><path fill="#000000" fill-opacity="0.0" clip-path="url(#id_0)" d="M199.78911 233.66052C199.78911 235.31738 198.44597 236.66052 196.78911 236.66052C195.13225 236.66052 193.78911 235.31738 193.78911 233.66052C193.78911 232.00368 195.13225 230.66052 196.78911 230.66052C198.44597 230.66052 199.78911 232.00368 199.78911 233.66052Z" fill-rule="nonzero"/><path fill="#000000" fill-opacity="0.0" clip-path="url(#id_0)" d="M204.85248 233.77112C204.85248 235.42796 203.50932 236.77112 201.85248 236.77112C200.19562 236.77112 198.85248 235.42796 198.85248 233.77112C198.85248 232.11426 200.19562 230.77112 201.85248 230.77112C203.50932 230.77112 204.85248 232.11426 204.85248 233.77112Z" fill-rule="nonzero"/><path fill="#000000" fill-opacity="0.0" clip-path="url(#id_0)" d="M209.91585 233.85342C209.91585 235.51028 208.5727 236.85342 206.91585 236.85342C205.25899 236.85342 203.91585 235.51028 203.91585 233.85342C203.91585 232.19658 205.25899 230.85342 206.91585 230.85342C208.5727 230.85342 209.91585 232.19658 209.91585 233.85342Z" fill-rule="nonzero"/><path fill="#000000" fill-opacity="0.0" clip-path="url(#id_0)" d="M214.9792 233.89899C214.9792 235.55585 213.63606 236.89899 211.9792 236.89899C210.32236 236.89899 208.9792 235.55585 208.9792 233.89899C208.9792 232.24214 210.32236 230.89899 211.9792 230.89899C213.63606 230.89899 214.9792 232.24214 214.9792 233.89899Z" fill-rule="nonzero"/><path fill="#000000" fill-opacity="0.0" clip-path="url(#id_0)" d="M220.04257 233.89996C220.04257 235.55682 218.69943 236.89996 217.04257 236.89996C215.38573 236.89996 214.04257 235.55682 214.04257 233.89996C214.04257 232.24312 215.38573 230.89996 217.04257 230.89996C218.69943 230.89996 220.04257 232.24312 220.04257 233.89996Z" fill-rule="nonzero"/><path fill="#000000" fill-opacity="0.0" clip-path="url(#id_0)" d="M225.10594 233.84967C225.10594 235.50653 223.7628 236.84967 222.10594 236.84967C220.44908 236.84967 219.10594 235.50653 219.10594 233.84967C219.10594 232.19283 220.44908 230.84967 222.10594 230.84967C223.7628 230.84967 225.10594 232.19283 225.10594 233.84967Z" fill-rule="nonzero"/><path fill="#000000" fill-opacity="0.0" clip-path="url(#id_0)" d="M230.16931 233.7431C230.16931 235.39996 228.82616 236.7431 227.16931 236.7431C225.51245 236.7431 224.16931 235.39996 224.16931 233.7431C224.16931 232.08626 225.51245 230.7431 227.16931 230.7431C228.82616 230.7431 230.16931 232.08626 230.16931 233.7431Z" fill-rule="nonzero"/><path fill="#000000" fill-opacity="0.0" clip-path="url(#id_0)" d="M235.23267 233.57742C235.23267 235.23428 233.88953 236.57742 232.23267 236.57742C230.57582 236.57742 229.23267 235.23428 229.23267 233.57742C229.23267 231.92058 230.57582 230.57742 232.23267 230.57742C233.88953 230.57742 235.23267 231.92058 235.23267 233.57742Z" fill-rule="nonzero"/><path fill="#000000" fill-opacity="0.0" clip-path="url(#id_0)" d="M240.29604 233.35248C240.29604 235.00932 238.9529 236.35248 237.29604 236.35248C235.63919 236.35248 234.29604 235.00932 234.29604 233.35248C234.29604 231.69562 235.63919 230.35248 237.29604 230.35248C238.9529 230.35248 240.29604 231.69562 240.29604 233.35248Z" fill-rule="nonzero"/><path fill="#000000" fill-opacity="0.0" clip-path="url(#id_0)" d="M245.3594 233.07112C245.3594 234.72798 244.01627 236.07112 242.3594 236.07112C240.70255 236.07112 239.3594 234.72798 239.3594 233.07112C239.3594 231.41428 240.70255 230.07112 242.3594 230.07112C244.01627 230.07112 245.3594 231.41428 245.3594 233.07112Z" fill-rule="nonzero"/><path fill="#000000" fill-opacity="0.0" clip-path="url(#id_0)" d="M250.42278 232.73961C250.42278 234.39647 249.07962 235.73961 247.42278 235.73961C245.76591 235.73961 244.42278 234.39647 244.42278 232.73961C244.42278 231.08276 245.76591 229.73961 247.42278 229.73961C249.07962 229.73961 250.42278 231.08276 250.42278 232.73961Z" fill-rule="nonzero"/><path fill="#000000" fill-opacity="0.0" clip-path="url(#id_0)" d="M255.48615 232.36772C255.48615 234.02458 254.14299 235.36772 252.48615 235.36772C250.82928 235.36772 249.48615 234.02458 249.48615 232.36772C249.48615 230.71088 250.82928 229.36772 252.48615 229.36772C254.14299 229.36772 255.48615 230.71088 255.48615 232.36772Z" fill-rule="nonzero"/><path fill="#000000" fill-opacity="0.0" clip-path="url(#id_0)" d="M260.5495 231.9688C260.5495 233.62564 259.20636 234.9688 257.5495 234.9688C255.89265 234.9688 254.5495 233.62564 254.5495 231.9688C254.5495 230.31194 255.89265 228.9688 257.5495 228.9688C259.20636 228.9688 260.5495 230.31194 260.5495 231.9688Z" fill-rule="nonzero"/><path fill="#000000" fill-opacity="0.0" clip-path="url(#id_0)" d="M265.61288 231.55954C265.61288 233.21638 264.2697 234.55954 262.61288 234.55954C260.95602 234.55954 259.61288 233.21638 259.61288 231.55954C259.61288 229.90268 260.95602 228.55954 262.61288 228.55954C264.2697 228.55954 265.61288 229.90268 265.61288 231.55954Z" fill-rule="nonzero"/><path fill="#000000" fill-opacity="0.0" clip-path="url(#id_0)" d="M270.67624 231.15968C270.67624 232.81654 269.3331 234.15968 267.67624 234.15968C266.01938 234.15968 264.67624 232.81654 264.67624 231.15968C264.67624 229.50284 266.01938 228.15968 267.67624 228.15968C269.3331 228.15968 270.67624 229.50284 270.67624 231.15968Z" fill-rule="nonzero"/><path fill="#000000" fill-opacity="0.0" clip-path="url(#id_0)" d="M275.7396 230.79144C275.7396 232.4483 274.39645 233.79144 272.7396 233.79144C271.08276 233.79144 269.7396 232.4483 269.7396 230.79144C269.7396 229.1346 271.08276 227.79144 272.7396 227.79144C274.39645 227.79144 275.7396 229.1346 275.7396 230.79144Z" fill-rule="nonzero"/><path fill="#000000" fill-opacity="0.0" clip-path="url(#id_0)" d="M280.80298 230.47867C280.80298 232.13551 279.45984 233.47867 277.80298 233.47867C276.14612 233.47867 274.80298 232.13551 274.80298 230.47867C274.80298 228.82181 276.14612 227.47867 277.80298 227.47867C279.45984 227.47867 280.80298 228.82181 280.80298 230.47867Z" fill-rule="nonzero"/><path fill="#000000" fill-opacity="0.0" clip-path="url(#id_0)" d="M285.86633 230.24583C285.86633 231.9027 284.5232 233.24583 282.86633 233.24583C281.20947 233.24583 279.86633 231.9027 279.86633 230.24583C279.86633 228.58897 281.20947 227.24583 282.86633 227.24583C284.5232 227.24583 285.86633 228.58897 285.86633 230.24583Z" fill-rule="nonzero"/><path fill="#000000" fill-opacity="0.0" clip-path="url(#id_0)" d="M290.92972 230.11696C290.92972 231.77382 289.58655 233.11696 287.92972 233.11696C286.27286 233.11696 284.92972 231.77382 284.92972 230.11696C284.92972 228.4601 286.27286 227.11696 287.92972 227.11696C289.58655 227.11696 290.92972 228.4601 290.92972 230.11696Z" fill-rule="nonzero"/><path fill="#000000" fill-opacity="0.0" clip-path="url(#id_0)" d="M295.99307 230.1142C295.99307 231.77106 294.64993 233.1142 292.99307 233.1142C291.3362 233.1142 289.99307 231.77106 289.99307 230.1142C289.99307 228.45735 291.3362 227.1142 292.99307 227.1142C294.64993 227.1142 295.99307 228.45735 295.99307 230.1142Z" fill-rule="nonzero"/><path fill="#000000" fill-opacity="0.0" clip-path="url(#id_0)" d="M301.05643 230.25645C301.05643 231.9133 299.7133 233.25645 298.05643 233.25645C296.39957 233.25645 295.05643 231.9133 295.05643 230.25645C295.05643 228.5996 296.39957 227.25645 298.05643 227.25645C299.7133 227.25645 301.05643 228.5996 301.05643 230.25645Z" fill-rule="nonzero"/><path fill="#000000" fill-opacity="0.0" clip-path="url(#id_0)" d="M306.1198 230.55788C306.1198 232.21474 304.77664 233.55788 303.1198 233.55788C301.46295 233.55788 300.1198 232.21474 300.1198 230.55788C300.1198 228.90102 301.46295 227.55788 303.1198 227.55788C304.77664 227.55788 306.1198 228.90102 306.1198 230.55788Z" fill-rule="nonzero"/><path fill="#000000" fill-opacity="0.0" clip-path="url(#id_0)" d="M311.18317 231.02647C311.18317 232.68333 309.84003 234.02647 308.18317 234.02647C306.5263 234.02647 305.18317 232.68333 305.18317 231.02647C305.18317 229.36961 306.5263 228.02647 308.18317 228.02647C309.84003 228.02647 311.18317 229.36961 311.18317 231.02647Z" fill-rule="nonzero"/><path fill="#000000" fill-opacity="0.0" clip-path="url(#id_0)" d="M316.24652 231.66273C316.24652 233.3196 314.90338 234.66273 313.24652 234.66273C311.5897 234.66273 310.24652 233.3196 310.24652 231.66273C310.24652 230.00589 311.5897 228.66273 313.24652 228.66273C314.90338 228.66273 316.24652 230.00589 316.24652 231.66273Z" fill-rule="nonzero"/><path fill="#000000" fill-opacity="0.0" clip-path="url(#id_0)" d="M321.3099 232.45853C321.3099 234.11539 319.96677 235.45853 318.3099 235.45853C316.65305 235.45853 315.3099 234.11539 315.3099 232.45853C315.3099 230.80168 316.65305 229.45853 318.3099 229.45853C319.96677 229.45853 321.3099 230.80168 321.3099 232.45853Z" fill-rule="nonzero"/><path fill="#000000" fill-opacity="0.0" clip-path="url(#id_0)" d="M326.37326 233.39618C326.37326 235.05302 325.03012 236.39618 323.37326 236.39618C321.7164 236.39618 320.37326 235.05302 320.37326 233.39618C320.37326 231.73932 321.7164 230.39618 323.37326 230.39618C325.03012 230.39618 326.37326 231.73932 326.37326 233.39618Z" fill-rule="nonzero"/><path fill="#000000" fill-opacity="0.0" clip-path="url(#id_0)" d="M331.43665 234.44803C331.43665 236.10489 330.09348 237.44803 328.43665 237.44803C326.7798 237.44803 325.43665 236.10489 325.43665 234.44803C325.43665 232.79118 326.7798 231.44803 328.43665 231.44803C330.09348 231.44803 331.43665 232.79118 331.43665 234.44803Z" fill-rule="nonzero"/><path fill="#000000" fill-opacity="0.0" clip-path="url(#id_0)" d="M336.5 235.57639C336.5 237.23325 335.15686 238.57639 333.5 238.57639C331.84314 238.57639 330.5 237.23325 330.5 235.57639C330.5 233.91954 331.84314 232.57639 333.5 232.57639C335.15686 232.57639 336.5 233.91954 336.5 235.57639Z" fill-rule="nonzero"/><path fill="#000000" fill-opacity="0.0" clip-path="url(#id_0)" d="M341.56335 236.73395C341.56335 238.39081 340.2202 239.73395 338.56335 239.73395C336.90652 239.73395 335.56335 238.39081 335.56335 236.73395C335.56335 235.0771 336.90652 233.73395 338.56335 233.73395C340.2202 233.73395 341.56335 235.0771 341.56335 236.73395Z" fill-rule="nonzero"/><path fill="#000000" fill-opacity="0.0" clip-path="url(#id_0)" d="M346.62674 237.86488C346.62674 239.52174 345.2836 240.86488 343.62674 240.86488C341.96988 240.86488 340.62674 239.52174 340.62674 237.86488C340.62674 236.20802 341.96988 234.86488 343.62674 234.86488C345.2836 234.86488 346.62674 236.20802 346.62674 237.86488Z" fill-rule="nonzero"/><path fill="#000000" fill-opacity="0.0" clip-path="url(#id_0)" d="M351.6901 238.90642C351.6901 240.56328 350.34695 241.90642 348.6901 241.90642C347.03323 241.90642 345.6901 240.56328 345.6901 238.90642C345.6901 237.24957 347.03323 235.90642 348.6901 235.90642C350.34695 235.90642 351.6901 237.24957 351.6901 238.90642Z" fill-rule="nonzero"/><path fill="#000000" fill-opacity="0.0" clip-path="url(#id_0)" d="M356.75348 239.79112C356.75348 241.44797 355.4103 242.79112 353.75348 242.79112C352.09662 242.79112 350.75348 241.44797 350.75348 239.79112C350.75348 238.13426 352.09662 236.79112 353.75348 236.79112C355.4103 236.79112 356.75348 238.13426 356.75348 239.79112Z" fill-rule="nonzero"/><path fill="#000000" fill-opacity="0.0" clip-path="url(#id_0)" d="M361.81683 240.44966C361.81683 242.1065 360.4737 243.44966 358.81683 243.44966C357.15997 243.44966 355.81683 242.1065 355.81683 240.44966C355.81683 238.7928 357.15997 237.44966 358.81683 237.44966C360.4737 237.44966 361.81683 238.7928 361.81683 240.44966Z" fill-rule="nonzero"/><path fill="#000000" fill-opacity="0.0" clip-path="url(#id_0)" d="M366.8802 240.81416C366.8802 242.47102 365.53705 243.81416 363.8802 243.81416C362.22336 243.81416 360.8802 242.47102 360.8802 240.81416C360.8802 239.1573 362.22336 237.81416 363.8802 237.81416C365.53705 237.81416 366.8802 239.1573 366.8802 240.81416Z" fill-rule="nonzero"/><path fill="#000000" fill-opacity="0.0" clip-path="url(#id_0)" d="M371.94357 240.82198C371.94357 242.47882 370.60043 243.82198 368.94357 243.82198C367.2867 243.82198 365.94357 242.47882 365.94357 240.82198C365.94357 239.16512 367.2867 237.82198 368.94357 237.82198C370.60043 237.82198 371.94357 239.16512 371.94357 240.82198Z" fill-rule="nonzero"/><path fill="#000000" fill-opacity="0.0" clip-path="url(#id_0)" d="M377.00693 240.41963C377.00693 242.07648 375.6638 243.41963 374.00693 243.41963C372.35007 243.41963 371.00693 242.07648 371.00693 240.41963C371.00693 238.76277 372.35007 237.41963 374.00693 237.41963C375.6638 237.41963 377.00693 238.76277 377.00693 240.41963Z" fill-rule="nonzero"/><path fill="#000000" fill-opacity="0.0" clip-path="url(#id_0)" d="M382.07028 239.56706C382.07028 241.22392 380.72714 242.56706 379.07028 242.56706C377.41345 242.56706 376.07028 241.22392 376.07028 239.56706C376.07028 237.91022 377.41345 236.56706 379.07028 236.56706C380.72714 236.56706 382.07028 237.91022 382.07028 239.56706Z" fill-rule="nonzero"/><path fill="#000000" fill-opacity="0.0" clip-path="url(#id_0)" d="M387.13367 238.24167C387.13367 239.89851 385.79053 241.24167 384.13367 241.24167C382.4768 241.24167 381.13367 239.89851 381.13367 238.24167C381.13367 236.58481 382.4768 235.24167 384.13367 235.24167C385.79053 235.24167 387.13367 236.58481 387.13367 238.24167Z" fill-rule="nonzero"/><path fill="#000000" fill-opacity="0.0" clip-path="url(#id_0)" d="M392.19702 236.44203C392.19702 238.09889 390.85388 239.44203 389.19702 239.44203C387.54016 239.44203 386.19702 238.09889 386.19702 236.44203C386.19702 234.78517 387.54016 233.44203 389.19702 233.44203C390.85388 233.44203 392.19702 234.78517 392.19702 236.44203Z" fill-rule="nonzero"/><path fill="#000000" fill-opacity="0.0" clip-path="url(#id_0)" d="M397.2604 234.19121C397.2604 235.84807 395.91724 237.19121 394.2604 237.19121C392.60355 237.19121 391.2604 235.84807 391.2604 234.19121C391.2604 232.53435 392.60355 231.19121 394.2604 231.19121C395.91724 231.19121 397.2604 232.53435 397.2604 234.19121Z" fill-rule="nonzero"/><path fill="#000000" fill-opacity="0.0" clip-path="url(#id_0)" d="M402.32376 231.53914C402.32376 233.19598 400.98062 234.53914 399.32376 234.53914C397.6669 234.53914 396.32376 233.19598 396.32376 231.53914C396.32376 229.88228 397.6669 228.53914 399.32376 228.53914C400.98062 228.53914 402.32376 229.88228 402.32376 231.53914Z" fill-rule="nonzero"/><path fill="#000000" fill-opacity="0.0" clip-path="url(#id_0)" d="M407.38712 228.56404C407.38712 230.22089 406.04398 231.56404 404.38712 231.56404C402.7303 231.56404 401.38712 230.22089 401.38712 228.56404C401.38712 226.90718 402.7303 225.56404 404.38712 225.56404C406.04398 225.56404 407.38712 226.90718 407.38712 228.56404Z" fill-rule="nonzero"/><path fill="#000000" fill-opacity="0.0" clip-path="url(#id_0)" d="M412.4505 225.37257C412.4505 227.02942 411.10736 228.37257 409.4505 228.37257C407.79364 228.37257 406.4505 227.02942 406.4505 225.37257C406.4505 223.71571 407.79364 222.37257 409.4505 222.37257C411.10736 222.37257 412.4505 223.71571 412.4505 225.37257Z" fill-rule="nonzero"/><path fill="#000000" fill-opacity="0.0" clip-path="url(#id_0)" d="M417.51385 222.09848C417.51385 223.75534 416.17072 225.09848 414.51385 225.09848C412.857 225.09848 411.51385 223.75534 411.51385 222.09848C411.51385 220.44162 412.857 219.09848 414.51385 219.09848C416.17072 219.09848 417.51385 220.44162 417.51385 222.09848Z" fill-rule="nonzero"/><path fill="#000000" fill-opacity="0.0" clip-path="url(#id_0)" d="M422.57724 218.89972C422.57724 220.55658 421.23407 221.89972 419.57724 221.89972C417.92038 221.89972 416.57724 220.55658 416.57724 218.89972C416.57724 217.24287 417.92038 215.89972 419.57724 215.89972C421.23407 215.89972 422.57724 217.24287 422.57724 218.89972Z" fill-rule="nonzero"/><path fill="#000000" fill-opacity="0.0" clip-path="url(#id_0)" d="M427.6406 215.95381C427.6406 217.61067 426.29745 218.95381 424.6406 218.95381C422.98373 218.95381 421.6406 217.61067 421.6406 215.95381C421.6406 214.29697 422.98373 212.95381 424.6406 212.95381C426.29745 212.95381 427.6406 214.29697 427.6406 215.95381Z" fill-rule="nonzero"/><path fill="#000000" fill-opacity="0.0" clip-path="url(#id_0)" d="M432.70395 213.4515C432.70395 215.10837 431.3608 216.4515 429.70395 216.4515C428.04712 216.4515 426.70395 215.10837 426.70395 213.4515C426.70395 211.79466 428.04712 210.4515 429.70395 210.4515C431.3608 210.4515 432.70395 211.79466 432.70395 213.4515Z" fill-rule="nonzero"/><path fill="#000000" fill-opacity="0.0" clip-path="url(#id_0)" d="M437.76733 211.58888C437.76733 213.24574 436.4242 214.58888 434.76733 214.58888C433.11047 214.58888 431.76733 213.24574 431.76733 211.58888C431.76733 209.93204 433.11047 208.58888 434.76733 208.58888C436.4242 208.58888 437.76733 209.93204 437.76733 211.58888Z" fill-rule="nonzero"/><path fill="#000000" fill-opacity="0.0" clip-path="url(#id_0)" d="M442.8307 210.5579C442.8307 212.21475 441.48755 213.5579 439.8307 213.5579C438.17383 213.5579 436.8307 212.21475 436.8307 210.5579C436.8307 208.90105 438.17383 207.5579 439.8307 207.5579C441.48755 207.5579 442.8307 208.90105 442.8307 210.5579Z" fill-rule="nonzero"/><path fill="#000000" fill-opacity="0.0" clip-path="url(#id_0)" d="M447.89407 210.53583C447.89407 212.19267 446.5509 213.53583 444.89407 213.53583C443.2372 213.53583 441.89407 212.19267 441.89407 210.53583C441.89407 208.87897 443.2372 207.53583 444.89407 207.53583C446.5509 207.53583 447.89407 208.87897 447.89407 210.53583Z" fill-rule="nonzero"/><path fill="#000000" fill-opacity="0.0" clip-path="url(#id_0)" d="M452.95743 211.67383C452.95743 213.33067 451.6143 214.67383 449.95743 214.67383C448.30057 214.67383 446.95743 213.33067 446.95743 211.67383C446.95743 210.01697 448.30057 208.67383 449.95743 208.67383C451.6143 208.67383 452.95743 210.01697 452.95743 211.67383Z" fill-rule="nonzero"/><path fill="#000000" fill-opacity="0.0" clip-path="url(#id_0)" d="M458.02078 214.08522C458.02078 215.74208 456.67764 217.08522 455.02078 217.08522C453.36395 217.08522 452.02078 215.74208 452.02078 214.08522C452.02078 212.42838 453.36395 211.08522 455.02078 211.08522C456.67764 211.08522 458.02078 212.42838 458.02078 214.08522Z" fill-rule="nonzero"/><path fill="#000000" fill-opacity="0.0" clip-path="url(#id_0)" d="M463.08417 217.83403C463.08417 219.49088 461.74103 220.83403 460.08417 220.83403C458.4273 220.83403 457.08417 219.49088 457.08417 217.83403C457.08417 216.17717 458.4273 214.83403 460.08417 214.83403C461.74103 214.83403 463.08417 216.17717 463.08417 217.83403Z" fill-rule="nonzero"/><path fill="#000000" fill-opacity="0.0" clip-path="url(#id_0)" d="M468.14752 222.92416C468.14752 224.58101 466.80438 225.92416 465.14752 225.92416C463.49066 225.92416 462.14752 224.58101 462.14752 222.92416C462.14752 221.2673 463.49066 219.92416 465.14752 219.92416C466.80438 219.92416 468.14752 221.2673 468.14752 222.92416Z" fill-rule="nonzero"/><path fill="#000000" fill-opacity="0.0" clip-path="url(#id_0)" d="M473.21088 229.29045C473.21088 230.9473 471.86774 232.29045 470.21088 232.29045C468.55405 232.29045 467.21088 230.9473 467.21088 229.29045C467.21088 227.63359 468.55405 226.29045 470.21088 226.29045C471.86774 226.29045 473.21088 227.63359 473.21088 229.29045Z" fill-rule="nonzero"/><path fill="#000000" fill-opacity="0.0" clip-path="url(#id_0)" d="M478.27426 236.79164C478.27426 238.4485 476.93112 239.79164 475.27426 239.79164C473.6174 239.79164 472.27426 238.4485 472.27426 236.79164C472.27426 235.13478 473.6174 233.79164 475.27426 233.79164C476.93112 233.79164 478.27426 235.13478 478.27426 236.79164Z" fill-rule="nonzero"/><path fill="#000000" fill-opacity="0.0" clip-path="url(#id_0)" d="M483.33762 245.20648C483.33762 246.86334 481.99448 248.20648 480.33762 248.20648C478.68076 248.20648 477.33762 246.86334 477.33762 245.20648C477.33762 243.54964 478.68076 242.20648 480.33762 242.20648C481.99448 242.20648 483.33762 243.54964 483.33762 245.20648Z" fill-rule="nonzero"/><path fill="#000000" fill-opacity="0.0" clip-path="url(#id_0)" d="M488.401 254.23334C488.401 255.89018 487.05783 257.23334 485.401 257.23334C483.74414 257.23334 482.401 255.89018 482.401 254.23334C482.401 252.57648 483.74414 251.23334 485.401 251.23334C487.05783 251.23334 488.401 252.57648 488.401 254.23334Z" fill-rule="nonzero"/><path fill="#000000" fill-opacity="0.0" clip-path="url(#id_0)" d="M493.46436 263.49384C493.46436 265.1507 492.12122 266.49384 490.46436 266.49384C488.8075 266.49384 487.46436 265.1507 487.46436 263.49384C487.46436 261.837 488.8075 260.49384 490.46436 260.49384C492.12122 260.49384 493.46436 261.837 493.46436 263.49384Z" fill-rule="nonzero"/><path fill="#000000" fill-opacity="0.0" clip-path="url(#id_0)" d="M498.5277 272.5413C498.5277 274.19815 497.18457 275.5413 495.5277 275.5413C493.87088 275.5413 492.5277 274.19815 492.5277 272.5413C492.5277 270.88443 493.87088 269.5413 495.5277 269.5413C497.18457 269.5413 498.5277 270.88443 498.5277 272.5413Z" fill-rule="nonzero"/><path fill="#000000" fill-opacity="0.0" clip-path="url(#id_0)" d="M503.5911 280.8736C503.5911 282.53046 502.24796 283.8736 500.5911 283.8736C498.93423 283.8736 497.5911 282.53046 497.5911 280.8736C497.5911 279.21674 498.93423 277.8736 500.5911 277.8736C502.24796 277.8736 503.5911 279.21674 503.5911 280.8736Z" fill-rule="nonzero"/><path fill="#000000" fill-opacity="0.0" clip-path="url(#id_0)" d="M508.65445 287.95117C508.65445 289.60803 507.3113 290.95117 505.65445 290.95117C503.9976 290.95117 502.65445 289.60803 502.65445 287.95117C502.65445 286.2943 503.9976 284.95117 505.65445 284.95117C507.3113 284.95117 508.65445 286.2943 508.65445 287.95117Z" fill-rule="nonzero"/><path fill="#000000" fill-opacity="0.0" clip-path="url(#id_0)" d="M513.71783 293.21945C513.71783 294.8763 512.3747 296.21945 510.71783 296.21945C509.06097 296.21945 507.71783 294.8763 507.71783 293.21945C507.71783 291.56262 509.06097 290.21945 510.71783 290.21945C512.3747 290.21945 513.71783 291.56262 513.71783 293.21945Z" fill-rule="nonzero"/><path fill="#000000" fill-opacity="0.0" clip-path="url(#id_0)" d="M518.7812 296.13553C518.7812 297.7924 517.43805 299.13553 515.7812 299.13553C514.1243 299.13553 512.7812 297.7924 512.7812 296.13553C512.7812 294.47867 514.1243 293.13553 515.7812 293.13553C517.43805 293.13553 518.7812 294.47867 518.7812 296.13553Z" fill-rule="nonzero"/><path fill="#000000" fill-opacity="0.0" clip-path="url(#id_0)" d="M523.84454 296.19797C523.84454 297.85483 522.5014 299.19797 520.84454 299.19797C519.1877 299.19797 517.84454 297.85483 517.84454 296.19797C517.84454 294.54114 519.1877 293.19797 520.84454 293.19797C522.5014 293.19797 523.84454 294.54114 523.84454 296.19797Z" fill-rule="nonzero"/><path fill="#000000" fill-opacity="0.0" clip-path="url(#id_0)" d="M528.9079 292.97925C528.9079 294.6361 527.56476 295.97925 525.9079 295.97925C524.25104 295.97925 522.9079 294.6361 522.9079 292.97925C522.9079 291.3224 524.25104 289.97925 525.9079 289.97925C527.56476 289.97925 528.9079 291.3224 528.9079 292.97925Z" fill-rule="nonzero"/><path fill="#000000" fill-opacity="0.0" clip-path="url(#id_0)" d="M533.9713 286.15875C533.9713 287.8156 532.6281 289.15875 530.9713 289.15875C529.31445 289.15875 527.9713 287.8156 527.9713 286.15875C527.9713 284.5019 529.31445 283.15875 530.9713 283.15875C532.6281 283.15875 533.9713 284.5019 533.9713 286.15875Z" fill-rule="nonzero"/><path fill="#000000" fill-opacity="0.0" clip-path="url(#id_0)" d="M539.03467 275.55554C539.03467 277.2124 537.6915 278.55554 536.03467 278.55554C534.3778 278.55554 533.03467 277.2124 533.03467 275.55554C533.03467 273.8987 534.3778 272.55554 536.03467 272.55554C537.6915 272.55554 539.03467 273.8987 539.03467 275.55554Z" fill-rule="nonzero"/><path fill="#000000" fill-opacity="0.0" clip-path="url(#id_0)" d="M544.098 261.15848C544.098 262.8153 542.7549 264.15848 541.098 264.15848C539.44116 264.15848 538.098 262.8153 538.098 261.15848C538.098 259.50162 539.44116 258.15848 541.098 258.15848C542.7549 258.15848 544.098 259.50162 544.098 261.15848Z" fill-rule="nonzero"/><path fill="#000000" fill-opacity="0.0" clip-path="url(#id_0)" d="M549.1614 243.15189C549.1614 244.80875 547.81824 246.15189 546.1614 246.15189C544.5045 246.15189 543.1614 244.80875 543.1614 243.15189C543.1614 241.49504 544.5045 240.15189 546.1614 240.15189C547.81824 240.15189 549.1614 241.49504 549.1614 243.15189Z" fill-rule="nonzero"/><path fill="#000000" fill-opacity="0.0" clip-path="url(#id_0)" d="M554.22473 221.93532C554.22473 223.59216 552.8816 224.93532 551.22473 224.93532C549.5679 224.93532 548.22473 223.59216 548.22473 221.93532C548.22473 220.27846 549.5679 218.93532 551.22473 218.93532C552.8816 218.93532 554.22473 220.27846 554.22473 221.93532Z" fill-rule="nonzero"/><path fill="#000000" fill-opacity="0.0" clip-path="url(#id_0)" d="M559.28815 198.13454C559.28815 199.7914 557.94495 201.13454 556.28815 201.13454C554.6313 201.13454 553.28815 199.7914 553.28815 198.13454C553.28815 196.47768 554.6313 195.13454 556.28815 195.13454C557.94495 195.13454 559.28815 196.47768 559.28815 198.13454Z" fill-rule="nonzero"/><path fill="#000000" fill-opacity="0.0" clip-path="url(#id_0)" d="M564.3515 172.60275C564.3515 174.25961 563.00836 175.60275 561.3515 175.60275C559.69464 175.60275 558.3515 174.25961 558.3515 172.60275C558.3515 170.9459 559.69464 169.60275 561.3515 169.60275C563.00836 169.60275 564.3515 170.9459 564.3515 172.60275Z" fill-rule="nonzero"/><path fill="#000000" fill-opacity="0.0" clip-path="url(#id_0)" d="M569.41486 146.41006C569.41486 148.06693 568.0717 149.41006 566.41486 149.41006C564.758 149.41006 563.41486 148.06693 563.41486 146.41006C563.41486 144.75322 564.758 143.41006 566.41486 143.41006C568.0717 143.41006 569.41486 144.75322 569.41486 146.41006Z" fill-rule="nonzero"/><path fill="#000000" fill-opacity="0.0" clip-path="url(#id_0)" d="M574.4782 120.82002C574.4782 122.476875 573.1351 123.82002 571.4782 123.82002C569.82135 123.82002 568.4782 122.476875 568.4782 120.82002C568.4782 119.16316 569.82135 117.82002 571.4782 117.82002C573.1351 117.82002 574.4782 119.16316 574.4782 120.82002Z" fill-rule="nonzero"/><path fill="#000000" fill-opacity="0.0" clip-path="url(#id_0)" d="M579.54156 97.25273C579.54156 98.90959 578.1984 100.25273 576.54156 100.25273C574.8847 100.25273 573.54156 98.90959 573.54156 97.25273C573.54156 95.59588 574.8847 94.25273 576.54156 94.25273C578.1984 94.25273 579.54156 95.59588 579.54156 97.25273Z" fill-rule="nonzero"/><path fill="#000000" fill-opacity="0.0" clip-path="url(#id_0)" d="M584.605 77.23433C584.605 78.89118 583.2618 80.23433 581.605 80.23433C579.9481 80.23433 578.605 78.89118 578.605 77.23433C578.605 75.57748 579.9481 74.23433 581.605 74.23433C583.2618 74.23433 584.605 75.57748 584.605 77.23433Z" fill-rule="nonzero"/><path fill="#000000" fill-opacity="0.0" clip-path="url(#id_0)" d="M589.66833 62.333332C589.66833 63.99019 588.3252 65.333336 586.66833 65.333336C585.0115 65.333336 583.66833 63.99019 583.66833 62.333332C583.66833 60.67648 585.0115 59.333332 586.66833 59.333332C588.3252 59.333332 589.66833 60.67648 589.66833 62.333332Z" fill-rule="nonzero"/><path fill="#000000" d="M335.09375 353.2625L335.25 354.1844Q334.79688 354.27814 334.45312 354.27814Q333.875 354.27814 333.5625 354.10626Q333.25 353.91876 333.10938 353.6219Q332.98438 353.325 332.98438 352.3719L332.98438 348.79376L332.21875 348.79376L332.21875 347.98126L332.98438 347.98126L332.98438 346.4344L334.03125 345.8094L334.03125 347.98126L335.09375 347.98126L335.09375 348.79376L334.03125 348.79376L334.03125 352.4344Q334.03125 352.8875 334.07812 353.0125Q334.14062 353.1375 334.26562 353.21564Q334.39062 353.29376 334.625 353.29376Q334.8125 353.29376 335.09375 353.2625Z" fill-rule="nonzero"/><path fill="#000000" d="M29.800013 192.67291L26.565638 190.40729L23.581263 192.50104L23.581263 191.18854L25.034388 190.23541Q25.456263 189.96979 25.737513 189.79791Q25.346888 189.54791 25.050013 189.32916L23.581263 188.28229L23.581263 187.01666L26.503138 189.17291L29.800013 186.86041L29.800013 188.14166L27.862513 189.42291L27.346888 189.76666L29.800013 191.40729L29.800013 192.67291Z" fill-rule="nonzero"/><path fill="#000000" d="M51.175 319.6219L51.175 318.5594L54.425 318.5594L54.425 319.6219L51.175 319.6219ZM55.3 317.96564Q55.3 316.4344 55.6125 315.5125Q55.925 314.575 56.534374 314.075Q57.159374 313.575 58.096874 313.575Q58.784374 313.575 59.3 313.85626Q59.83125 314.1375 60.175 314.66876Q60.51875 315.1844 60.70625 315.9344Q60.89375 316.6844 60.89375 317.96564Q60.89375 319.48126 60.58125 320.40314Q60.284374 321.325 59.659374 321.84064Q59.05 322.34064 58.096874 322.34064Q56.8625 322.34064 56.14375 321.45Q55.3 320.3875 55.3 317.96564ZM56.378124 317.96564Q56.378124 320.075 56.878124 320.77814Q57.378124 321.48126 58.096874 321.48126Q58.83125 321.48126 59.315624 320.77814Q59.815624 320.075 59.815624 317.96564Q59.815624 315.84064 59.315624 315.15314Q58.83125 314.45 58.08125 314.45Q57.3625 314.45 56.925 315.0594Q56.378124 315.84064 56.378124 317.96564ZM62.89375 322.2L62.89375 320.9969L64.09688 320.9969L64.09688 322.2L62.89375 322.2ZM65.3 319.95L66.40938 319.85626Q66.53438 320.66876 66.97188 321.075Q67.425 321.48126 68.06563 321.48126Q68.81563 321.48126 69.34688 320.90314Q69.87813 320.325 69.87813 319.3875Q69.87813 318.48126 69.3625 317.96564Q68.8625 317.4344 68.03438 317.4344Q67.53438 317.4344 67.1125 317.66876Q66.70625 317.90314 66.47188 318.2625L65.4875 318.1375L66.31563 313.73126L70.59688 313.73126L70.59688 314.73126L67.15938 314.73126L66.70625 317.04376Q67.47188 316.4969 68.31563 316.4969Q69.44063 316.4969 70.20625 317.27814Q70.9875 318.0594 70.9875 319.29376Q70.9875 320.45 70.31563 321.3094Q69.4875 322.34064 68.06563 322.34064Q66.89375 322.34064 66.14375 321.6844Q65.40938 321.02814 65.3 319.95Z" fill-rule="nonzero"/><path fill="#000000" d="M55.3 232.67674Q55.3 231.1455 55.6125 230.22362Q55.925 229.28612 56.534374 228.78612Q57.159374 228.28612 58.096874 228.28612Q58.784374 228.28612 59.3 228.56737Q59.83125 228.84862 60.175 229.37987Q60.51875 229.8955 60.70625 230.6455Q60.89375 231.3955 60.89375 232.67674Q60.89375 234.19237 60.58125 235.11424Q60.284374 236.03612 59.659374 236.55174Q59.05 237.05174 58.096874 237.05174Q56.8625 237.05174 56.14375 236.16112Q55.3 235.09862 55.3 232.67674ZM56.378124 232.67674Q56.378124 234.78612 56.878124 235.48924Q57.378124 236.19237 58.096874 236.19237Q58.83125 236.19237 59.315624 235.48924Q59.815624 234.78612 59.815624 232.67674Q59.815624 230.55174 59.315624 229.86424Q58.83125 229.16112 58.08125 229.16112Q57.3625 229.16112 56.925 229.7705Q56.378124 230.55174 56.378124 232.67674ZM62.89375 236.91112L62.89375 235.708L64.09688 235.708L64.09688 236.91112L62.89375 236.91112ZM65.3 232.67674Q65.3 231.1455 65.6125 230.22362Q65.925 229.28612 66.53438 228.78612Q67.15938 228.28612 68.09688 228.28612Q68.78438 228.28612 69.3 228.56737Q69.83125 228.84862 70.175 229.37987Q70.51875 229.8955 70.70625 230.6455Q70.89375 231.3955 70.89375 232.67674Q70.89375 234.19237 70.58125 235.11424Q70.28438 236.03612 69.65938 236.55174Q69.05 237.05174 68.09688 237.05174Q66.8625 237.05174 66.14375 236.16112Q65.3 235.09862 65.3 232.67674ZM66.37813 232.67674Q66.37813 234.78612 66.87813 235.48924Q67.37813 236.19237 68.09688 236.19237Q68.83125 236.19237 69.31563 235.48924Q69.81563 234.78612 69.81563 232.67674Q69.81563 230.55174 69.31563 229.86424Q68.83125 229.16112 68.08125 229.16112Q67.3625 229.16112 66.925 229.7705Q66.37813 230.55174 66.37813 232.67674Z" fill-rule="nonzero"/><path fill="#000000" d="M55.3 147.38785Q55.3 145.8566 55.6125 144.93472Q55.925 143.99722 56.534374 143.49722Q57.159374 142.99722 58.096874 142.99722Q58.784374 142.99722 59.3 143.27847Q59.83125 143.55972 60.175 144.09097Q60.51875 144.6066 60.70625 145.3566Q60.89375 146.1066 60.89375 147.38785Q60.89375 148.90347 60.58125 149.82535Q60.284374 150.74722 59.659374 151.26285Q59.05 151.76285 58.096874 151.76285Q56.8625 151.76285 56.14375 150.87222Q55.3 149.80972 55.3 147.38785ZM56.378124 147.38785Q56.378124 149.49722 56.878124 150.20035Q57.378124 150.90347 58.096874 150.90347Q58.83125 150.90347 59.315624 150.20035Q59.815624 149.49722 59.815624 147.38785Q59.815624 145.26285 59.315624 144.57535Q58.83125 143.87222 58.08125 143.87222Q57.3625 143.87222 56.925 144.4816Q56.378124 145.26285 56.378124 147.38785ZM62.89375 151.62222L62.89375 150.4191L64.09688 150.4191L64.09688 151.62222L62.89375 151.62222ZM65.3 149.37222L66.40938 149.27847Q66.53438 150.09097 66.97188 150.49722Q67.425 150.90347 68.06563 150.90347Q68.81563 150.90347 69.34688 150.32535Q69.87813 149.74722 69.87813 148.80972Q69.87813 147.90347 69.3625 147.38785Q68.8625 146.8566 68.03438 146.8566Q67.53438 146.8566 67.1125 147.09097Q66.70625 147.32535 66.47188 147.68472L65.4875 147.55972L66.31563 143.15347L70.59688 143.15347L70.59688 144.15347L67.15938 144.15347L66.70625 146.46597Q67.47188 145.9191 68.31563 145.9191Q69.44063 145.9191 70.20625 146.70035Q70.9875 147.4816 70.9875 148.71597Q70.9875 149.87222 70.31563 150.7316Q69.4875 151.76285 68.06563 151.76285Q66.89375 151.76285 66.14375 151.1066Q65.40938 150.45035 65.3 149.37222Z" fill-rule="nonzero"/><path fill="#000000" d="M59.26875 66.333336L58.221874 66.333336L58.221874 59.614586Q57.83125 59.97396 57.20625 60.34896Q56.596874 60.708336 56.1125 60.88021L56.1125 59.864586Q56.9875 59.44271 57.64375 58.864586Q58.315624 58.270836 58.596874 57.708336L59.26875 57.708336L59.26875 66.333336ZM62.89375 66.333336L62.89375 65.13021L64.09688 65.13021L64.09688 66.333336L62.89375 66.333336ZM65.3 62.09896Q65.3 60.56771 65.6125 59.645836Q65.925 58.708336 66.53438 58.208336Q67.15938 57.708336 68.09688 57.708336Q68.78438 57.708336 69.3 57.989586Q69.83125 58.270836 70.175 58.802086Q70.51875 59.31771 70.70625 60.06771Q70.89375 60.81771 70.89375 62.09896Q70.89375 63.614586 70.58125 64.53646Q70.28438 65.458336 69.65938 65.97396Q69.05 66.47396 68.09688 66.47396Q66.8625 66.47396 66.14375 65.583336Q65.3 64.520836 65.3 62.09896ZM66.37813 62.09896Q66.37813 64.208336 66.87813 64.91146Q67.37813 65.614586 68.09688 65.614586Q68.83125 65.614586 69.31563 64.91146Q69.81563 64.208336 69.81563 62.09896Q69.81563 59.97396 69.31563 59.28646Q68.83125 58.583336 68.08125 58.583336Q67.3625 58.583336 66.925 59.19271Q66.37813 59.97396 66.37813 62.09896Z" fill-rule="nonzero"/><path fill="#757575" d="M20.378124 37.8L20.378124 23.4875L30.7375 23.4875L30.7375 25.175L22.284374 25.175L22.284374 29.55L30.190624 29.55L30.190624 31.2375L22.284374 31.2375L22.284374 36.1125L31.065624 36.1125L31.065624 37.8L20.378124 37.8ZM39.89375 36.51875Q38.909374 37.346874 38.003124 37.690624Q37.096874 38.034374 36.065624 38.034374Q34.3625 38.034374 33.440624 37.20625Q32.51875 36.3625 32.51875 35.065624Q32.51875 34.3 32.8625 33.675Q33.221874 33.05 33.784374 32.675Q34.346874 32.284374 35.05 32.08125Q35.565624 31.95625 36.6125 31.815624Q38.7375 31.565624 39.7375 31.221874Q39.753124 30.8625 39.753124 30.753124Q39.753124 29.690624 39.253124 29.2375Q38.58125 28.64375 37.253124 28.64375Q36.003124 28.64375 35.409374 29.08125Q34.83125 29.51875 34.55 30.628124L32.83125 30.39375Q33.065624 29.284374 33.596874 28.6125Q34.128124 27.925 35.14375 27.565624Q36.159374 27.190624 37.503124 27.190624Q38.83125 27.190624 39.659374 27.503124Q40.4875 27.815624 40.878124 28.3Q41.26875 28.76875 41.425 29.4875Q41.51875 29.940624 41.51875 31.1125L41.51875 33.45625Q41.51875 35.909374 41.628124 36.565624Q41.7375 37.20625 42.08125 37.8L40.2375 37.8Q39.971874 37.253124 39.89375 36.51875ZM39.7375 32.596874Q38.784374 32.9875 36.8625 33.253124Q35.784374 33.409374 35.33125 33.6125Q34.89375 33.8 34.64375 34.175Q34.39375 34.55 34.39375 35.01875Q34.39375 35.721874 34.925 36.190624Q35.45625 36.659374 36.4875 36.659374Q37.503124 36.659374 38.284374 36.221874Q39.08125 35.76875 39.45625 35.003124Q39.7375 34.39375 39.7375 33.2375L39.7375 32.596874ZM43.409374 34.70625L45.159374 34.425Q45.3 35.471874 45.971874 36.034374Q46.64375 36.58125 47.846874 36.58125Q49.05 36.58125 49.628124 36.096874Q50.221874 35.596874 50.221874 34.940624Q50.221874 34.346874 49.70625 34.003124Q49.346874 33.76875 47.909374 33.409374Q45.971874 32.909374 45.221874 32.565624Q44.4875 32.20625 44.096874 31.58125Q43.70625 30.940624 43.70625 30.175Q43.70625 29.4875 44.01875 28.89375Q44.346874 28.3 44.89375 27.909374Q45.3 27.6125 46.003124 27.409374Q46.721874 27.190624 47.534374 27.190624Q48.753124 27.190624 49.675 27.55Q50.596874 27.89375 51.034374 28.503124Q51.471874 29.096874 51.64375 30.096874L49.925 30.33125Q49.8 29.534374 49.2375 29.096874Q48.675 28.64375 47.659374 28.64375Q46.440624 28.64375 45.925 29.05Q45.409374 29.440624 45.409374 29.971874Q45.409374 30.315624 45.628124 30.596874Q45.83125 30.878124 46.3 31.065624Q46.565624 31.159374 47.846874 31.503124Q49.721874 32.003124 50.45625 32.33125Q51.190624 32.64375 51.6125 33.253124Q52.034374 33.846874 52.034374 34.753124Q52.034374 35.628124 51.51875 36.409374Q51.003124 37.190624 50.034374 37.6125Q49.065624 38.034374 47.846874 38.034374Q45.83125 38.034374 44.76875 37.190624Q43.70625 36.346874 43.409374 34.70625ZM61.221874 34.45625L63.034374 34.690624Q62.6125 36.26875 61.440624 37.159374Q60.284374 38.034374 58.471874 38.034374Q56.20625 38.034374 54.8625 36.64375Q53.534374 35.2375 53.534374 32.70625Q53.534374 30.08125 54.878124 28.64375Q56.221874 27.190624 58.378124 27.190624Q60.45625 27.190624 61.76875 28.6125Q63.096874 30.01875 63.096874 32.596874Q63.096874 32.753124 63.08125 33.065624L55.346874 33.065624Q55.440624 34.76875 56.315624 35.675Q57.190624 36.58125 58.4875 36.58125Q59.45625 36.58125 60.128124 36.08125Q60.815624 35.565624 61.221874 34.45625ZM55.440624 31.6125L61.2375 31.6125Q61.128124 30.315624 60.58125 29.659374Q59.7375 28.64375 58.39375 28.64375Q57.190624 28.64375 56.3625 29.45625Q55.534374 30.253124 55.440624 31.6125ZM65.65938 37.8L65.65938 23.4875L67.56563 23.4875L67.56563 37.8L65.65938 37.8ZM71.1125 37.8L71.1125 27.425L72.70625 27.425L72.70625 28.909374Q73.84688 27.190624 76.00313 27.190624Q76.94063 27.190624 77.72188 27.534374Q78.51875 27.8625 78.90938 28.409374Q79.3 28.95625 79.45625 29.70625Q79.55 30.20625 79.55 31.425L79.55 37.8L77.78438 37.8L77.78438 31.4875Q77.78438 30.409374 77.58125 29.878124Q77.37813 29.346874 76.84688 29.034374Q76.33125 28.721874 75.62813 28.721874Q74.50313 28.721874 73.69063 29.440624Q72.87813 30.14375 72.87813 32.128124L72.87813 37.8L71.1125 37.8ZM81.37813 37.8L81.37813 23.4875L91.7375 23.4875L91.7375 25.175L83.28438 25.175L83.28438 29.55L91.19063 29.55L91.19063 31.2375L83.28438 31.2375L83.28438 36.1125L92.06563 36.1125L92.06563 37.8L81.37813 37.8ZM94.08125 37.8L94.08125 23.4875L95.83125 23.4875L95.83125 37.8L94.08125 37.8ZM104.89375 36.51875Q103.90938 37.346874 103.00313 37.690624Q102.09688 38.034374 101.06563 38.034374Q99.3625 38.034374 98.44063 37.20625Q97.51875 36.3625 97.51875 35.065624Q97.51875 34.3 97.8625 33.675Q98.22188 33.05 98.78438 32.675Q99.34688 32.284374 100.05 32.08125Q100.56563 31.95625 101.6125 31.815624Q103.7375 31.565624 104.7375 31.221874Q104.75313 30.8625 104.75313 30.753124Q104.75313 29.690624 104.25313 29.2375Q103.58125 28.64375 102.25313 28.64375Q101.00313 28.64375 100.40938 29.08125Q99.83125 29.51875 99.55 30.628124L97.83125 30.39375Q98.06563 29.284374 98.59688 28.6125Q99.12813 27.925 100.14375 27.565624Q101.15938 27.190624 102.50313 27.190624Q103.83125 27.190624 104.65938 27.503124Q105.4875 27.815624 105.87813 28.3Q106.26875 28.76875 106.425 29.4875Q106.51875 29.940624 106.51875 31.1125L106.51875 33.45625Q106.51875 35.909374 106.62813 36.565624Q106.7375 37.20625 107.08125 37.8L105.2375 37.8Q104.97188 37.253124 104.89375 36.51875ZM104.7375 32.596874Q103.78438 32.9875 101.8625 33.253124Q100.78438 33.409374 100.33125 33.6125Q99.89375 33.8 99.64375 34.175Q99.39375 34.55 99.39375 35.01875Q99.39375 35.721874 99.925 36.190624Q100.45625 36.659374 101.4875 36.659374Q102.50313 36.659374 103.28438 36.221874Q104.08125 35.76875 104.45625 35.003124Q104.7375 34.39375 104.7375 33.2375L104.7375 32.596874ZM108.40938 34.70625L110.15938 34.425Q110.3 35.471874 110.97188 36.034374Q111.64375 36.58125 112.84688 36.58125Q114.05 36.58125 114.62813 36.096874Q115.22188 35.596874 115.22188 34.940624Q115.22188 34.346874 114.70625 34.003124Q114.34688 33.76875 112.90938 33.409374Q110.97188 32.909374 110.22188 32.565624Q109.4875 32.20625 109.09688 31.58125Q108.70625 30.940624 108.70625 30.175Q108.70625 29.4875 109.01875 28.89375Q109.34688 28.3 109.89375 27.909374Q110.3 27.6125 111.00313 27.409374Q111.72188 27.190624 112.53438 27.190624Q113.75313 27.190624 114.675 27.55Q115.59688 27.89375 116.03438 28.503124Q116.47188 29.096874 116.64375 30.096874L114.925 30.33125Q114.8 29.534374 114.2375 29.096874Q113.675 28.64375 112.65938 28.64375Q111.44063 28.64375 110.925 29.05Q110.40938 29.440624 110.40938 29.971874Q110.40938 30.315624 110.62813 30.596874Q110.83125 30.878124 111.3 31.065624Q111.56563 31.159374 112.84688 31.503124Q114.72188 32.003124 115.45625 32.33125Q116.19063 32.64375 116.6125 33.253124Q117.03438 33.846874 117.03438 34.753124Q117.03438 35.628124 116.51875 36.409374Q116.00313 37.190624 115.03438 37.6125Q114.06563 38.034374 112.84688 38.034374Q110.83125 38.034374 109.76875 37.190624Q108.70625 36.346874 108.40938 34.70625ZM122.95625 36.221874L123.20625 37.784374Q122.47188 37.940624 121.87813 37.940624Q120.925 37.940624 120.39375 37.64375Q119.87813 37.33125 119.65938 36.846874Q119.44063 36.346874 119.44063 34.76875L119.44063 28.8L118.15938 28.8L118.15938 27.425L119.44063 27.425L119.44063 24.8625L121.19063 23.8L121.19063 27.425L122.95625 27.425L122.95625 28.8L121.19063 28.8L121.19063 34.8625Q121.19063 35.6125 121.28438 35.83125Q121.37813 36.034374 121.58125 36.175Q121.8 36.3 122.19063 36.3Q122.47188 36.3 122.95625 36.221874ZM125.12813 25.503124L125.12813 23.4875L126.89375 23.4875L126.89375 25.503124L125.12813 25.503124ZM125.12813 37.8L125.12813 27.425L126.89375 27.425L126.89375 37.8L125.12813 37.8ZM135.89375 34.003124L137.6125 34.221874Q137.33125 36.01875 136.15938 37.034374Q135.00313 38.034374 133.3 38.034374Q131.175 38.034374 129.87813 36.64375Q128.58125 35.253124 128.58125 32.659374Q128.58125 30.971874 129.12813 29.721874Q129.69063 28.45625 130.83125 27.83125Q131.97188 27.190624 133.31563 27.190624Q135.00313 27.190624 136.06563 28.05Q137.14375 28.909374 137.45625 30.471874L135.7375 30.7375Q135.50313 29.690624 134.87813 29.175Q134.25313 28.64375 133.37813 28.64375Q132.05 28.64375 131.22188 29.596874Q130.39375 30.55 130.39375 32.596874Q130.39375 34.690624 131.19063 35.64375Q131.9875 36.58125 133.28438 36.58125Q134.31563 36.58125 135.00313 35.95625Q135.70625 35.315624 135.89375 34.003124Z" fill-rule="nonzero"/></svg>