<svg version="1.1" viewBox="0.0 0.0 608.0 376.0" fill="none" stroke="none" stroke-linecap="square" stroke-miterlimit="10" width="608" height="376" xmlns:xlink="http://www.w3.org/1999/xlink" xmlns="http://www.w3.org/2000/svg"><path fill="#ffffff" d="M0 0L608.0 0L608.0 376.0L0 376.0L0 0Z" fill-rule="nonzero"/><path stroke="#cccccc" stroke-width="1.0" stroke-linecap="butt" d="M84.5 318.5L589.5 318.5" fill-rule="nonzero"/><path stroke="#cccccc" stroke-width="1.0" stroke-linecap="butt" d="M84.5 232.5L589.5 232.5" fill-rule="nonzero"/><path stroke="#cccccc" stroke-width="1.0" stroke-linecap="butt" d="M84.5 147.5L589.5 147.5" fill-rule="nonzero"/><path stroke="#cccccc" stroke-width="1.0" stroke-linecap="butt" d="M84.5 62.5L589.5 62.5" fill-rule="nonzero"/><path stroke="#000000" stroke-width="1.0" stroke-linecap="butt" d="M84.5 318.5L84.5 62.5" fill-rule="nonzero"/><clipPath id="id_0"><path d="M84.8 62.333332L589.2 62.333332L589.2 318.2L84.8 318.2L84.8 62.333332Z" clip-rule="nonzero"/></clipPath><path stroke="#4285f4" stroke-width="2.0" stroke-linecap="butt" clip-path="url(#id_0)" d="M87.29703 275.55554C87.29703 275.55554 90.6264 275.52588 92.29109 275.5136C93.95577 275.50134 95.62046 275.49286 97.28515 275.48203C98.94984 275.47116 100.614525 275.45947 102.279205 275.4485C103.94389 275.43753 105.60858 275.4261 107.27327 275.41617C108.93795 275.40625 110.60264 275.3964 112.26733 275.38898C113.932014 275.38156 115.5967 275.3749 117.26138 275.3716C118.92607 275.36832 120.59076 275.36664 122.25545 275.36914C123.920135 275.37164 125.584816 275.37674 127.249504 275.3866C128.91418 275.39648 130.57887 275.4099 132.24356 275.4284C133.90825 275.44693 135.57294 275.46985 137.23763 275.4977C138.90231 275.52557 140.567 275.55847 142.23169 275.59555C143.89636 275.63266 145.56105 275.67508 147.22574 275.72025C148.89043 275.76538 150.55511 275.81567 152.2198 275.86646C153.88449 275.9172 155.54918 275.9723 157.21387 276.02484C158.87856 276.0774 160.54323 276.13266 162.20792 276.1817C163.8726 276.23074 165.5373 276.28012 167.20198 276.3191C168.86667 276.35806 170.53136 276.3942 172.19604 276.41556C173.86073 276.43692 175.5254 276.45154 177.1901 276.4473C178.85478 276.44305 180.51947 276.42764 182.18416 276.39008C183.84885 276.3525 185.51353 276.29926 187.17822 276.22186C188.84291 276.1445 190.50758 276.04718 192.17227 275.9259C193.83696 275.8046 195.50165 275.65994 197.16634 275.4942C198.83102 275.32843 200.49571 275.1374 202.1604 274.93137C203.82509 274.72534 205.48976 274.49435 207.15445 274.2581C208.81914 274.02182 210.48383 273.76373 212.14851 273.51382C213.8132 273.26392 215.47789 272.9988 217.14258 272.75864C218.80727 272.5185 220.47195 272.27353 222.13663 272.07294C223.80132 271.8723 225.466 271.68118 227.13069 271.55505C228.79538 271.42896 230.46007 271.33005 232.12476 271.31622C233.78944 271.3024 235.45413 271.33624 237.1188 271.4721C238.7835 271.608 240.44818 271.8132 242.11287 272.1315C243.77756 272.44983 245.44225 272.85834 247.10693 273.38202C248.77162 273.9057 250.43631 274.5371 252.10098 275.2736C253.76567 276.01004 255.43036 276.86542 257.09506 277.80084C258.75974 278.73627 260.4244 279.7921 262.0891 280.8861C263.75378 281.9801 265.4185 283.18317 267.08316 284.36487C268.74786 285.5466 270.41254 286.8102 272.07724 287.97635C273.7419 289.1425 275.4066 290.34564 277.0713 291.36166C278.73596 292.3777 280.40067 293.36737 282.06534 294.07242C283.73004 294.77744 285.3947 295.37552 287.05942 295.5919C288.7241 295.80826 290.3888 295.82312 292.05347 295.37064C293.71814 294.91818 295.38284 294.16183 297.04752 292.8771C298.71222 291.59238 300.3769 289.90244 302.0416 287.66226C303.70627 285.4221 305.37097 282.68805 307.03564 279.4361C308.70032 276.1841 310.36502 272.37616 312.0297 268.15042C313.6944 263.92468 315.35907 259.12277 317.02377 254.08168C318.68845 249.04057 320.35315 243.46068 322.01782 237.9038C323.6825 232.34691 325.3472 226.36041 327.01187 220.74036C328.67657 215.12032 330.34125 209.26247 332.00595 204.18352C333.67062 199.10457 335.33533 194.90562 337.0 190.26666C338.66467 185.62772 340.32938 181.42877 341.99405 176.34981C343.65875 171.27086 345.32343 165.41301 346.98813 159.79297C348.6528 154.17293 350.3175 148.18643 351.98218 142.62955C353.64685 137.07266 355.31155 131.49275 356.97623 126.45165C358.64093 121.410545 360.3056 116.60864 361.9703 112.382904C363.63498 108.15717 365.29968 104.34922 366.96436 101.097244C368.62903 97.845276 370.29373 95.111244 371.9584 92.87108C373.6231 90.630905 375.28778 88.94097 376.95248 87.65624C378.61716 86.371506 380.28186 85.61515 381.94653 85.16268C383.6112 84.71022 385.2759 84.72507 386.94058 84.941444C388.6053 85.157814 390.26996 85.75588 391.93466 86.46092C393.59933 87.16596 395.26404 88.15566 396.9287 89.17168C398.5934 90.18768 400.2581 91.390854 401.92276 92.556984C403.58746 93.723114 405.25214 94.98675 406.91684 96.16846C408.5815 97.35016 410.24622 98.553215 411.9109 99.647224C413.5756 100.74123 415.24026 101.79707 416.90494 102.73249C418.56964 103.667915 420.2343 104.523285 421.89902 105.25975C423.5637 105.99622 425.2284 106.62763 426.89307 107.15131C428.55777 107.674995 430.22244 108.08351 431.88712 108.401825C433.55182 108.720146 435.2165 108.92534 436.8812 109.06122C438.54587 109.1971 440.21057 109.23093 441.87524 109.2171C443.53995 109.20328 445.20462 109.104385 446.8693 108.97827C448.534 108.85215 450.19867 108.661 451.86337 108.4604C453.52805 108.25981 455.19275 108.01484 456.85742 107.77469C458.52213 107.53454 460.1868 107.26941 461.85147 107.0195C463.51617 106.76959 465.18085 106.511505 466.84555 106.27525C468.51022 106.038994 470.17493 105.807976 471.8396 105.60196C473.5043 105.39594 475.16898 105.2049 476.83365 105.03915C478.49835 104.87339 480.16302 104.72872 481.82773 104.607445C483.4924 104.48616 485.1571 104.388824 486.82178 104.311455C488.48648 104.23409 490.15115 104.18082 491.81583 104.14325C493.48053 104.10568 495.1452 104.09029 496.8099 104.086044C498.47458 104.081795 500.13928 104.09641 501.80396 104.117775C503.46866 104.139145 505.13333 104.17526 506.79803 104.21424C508.4627 104.25322 510.12738 104.3026 511.79208 104.35164C513.4568 104.40069 515.12146 104.455956 516.78613 104.5085C518.4508 104.561035 520.11554 104.61612 521.7802 104.666885C523.4449 104.71765 525.10956 104.76795 526.77423 104.813095C528.43896 104.858246 530.10364 104.90069 531.7683 104.937775C533.433 104.97486 535.0977 105.007774 536.7624 105.03563C538.42706 105.063484 540.09174 105.0864 541.7564 105.10492C543.42114 105.123436 545.0858 105.13685 546.7505 105.14673C548.41516 105.1566 550.0799 105.16168 551.74457 105.164185C553.40924 105.16668 555.0739 105.165016 556.7386 105.16171C558.4033 105.15841 560.068 105.15178 561.73267 105.144356C563.39734 105.13693 565.0621 105.1271 566.72675 105.11718C568.3914 105.107254 570.0561 105.09582 571.72076 105.08484C573.3855 105.07386 575.0502 105.06217 576.71484 105.051315C578.3795 105.04047 580.04425 105.031975 581.7089 105.01972C583.3736 105.00746 586.70294 104.977776 586.70294 104.977776" fill-rule="nonzero"/><path fill="#000000" fill-opacity="0.0" clip-path="url(#id_0)" d="M90.29703 275.55554C90.29703 277.2124 88.95388 278.55554 87.29703 278.55554C85.640175 278.55554 84.29703 277.2124 84.29703 275.55554C84.29703 273.8987 85.640175 272.55554 87.29703 272.55554C88.95388 272.55554 90.29703 273.8987 90.29703 275.55554Z" fill-rule="nonzero"/><path fill="#000000" fill-opacity="0.0" clip-path="url(#id_0)" d="M95.29109 275.5136C95.29109 277.17047 93.947945 278.5136 92.29109 278.5136C90.63423 278.5136 89.29109 277.17047 89.29109 275.5136C89.29109 273.85675 90.63423 272.5136 92.29109 272.5136C93.947945 272.5136 95.29109 273.85675 95.29109 275.5136Z" fill-rule="nonzero"/><path fill="#000000" fill-opacity="0.0" clip-path="url(#id_0)" d="M100.28515 275.48203C100.28515 277.1389 98.942 278.48203 97.28515 278.48203C95.628296 278.48203 94.28515 277.1389 94.28515 275.48203C94.28515 273.82516 95.628296 272.48203 97.28515 272.48203C98.942 272.48203 100.28515 273.82516 100.28515 275.48203Z" fill-rule="nonzero"/><path fill="#000000" fill-opacity="0.0" clip-path="url(#id_0)" d="M105.279205 275.4485C105.279205 277.10535 103.936066 278.4485 102.279205 278.4485C100.62235 278.4485 99.279205 277.10535 99.279205 275.4485C99.279205 273.79163 100.62235 272.4485 102.279205 272.4485C103.936066 272.4485 105.279205 273.79163 105.279205 275.4485Z" fill-rule="nonzero"/><path fill="#000000" fill-opacity="0.0" clip-path="url(#id_0)" d="M110.27327 275.41617C110.27327 277.073 108.93012 278.41617 107.27327 278.41617C105.61641 278.41617 104.27327 277.073 104.27327 275.41617C104.27327 273.7593 105.61641 272.41617 107.27327 272.41617C108.93012 272.41617 110.27327 273.7593 110.27327 275.41617Z" fill-rule="nonzero"/><path fill="#000000" fill-opacity="0.0" clip-path="url(#id_0)" d="M115.26733 275.38898C115.26733 277.04584 113.92418 278.38898 112.26733 278.38898C110.61047 278.38898 109.26733 277.04584 109.26733 275.38898C109.26733 273.73212 110.61047 272.38898 112.26733 272.38898C113.92418 272.38898 115.26733 273.73212 115.26733 275.38898Z" fill-rule="nonzero"/><path fill="#000000" fill-opacity="0.0" clip-path="url(#id_0)" d="M120.26138 275.3716C120.26138 277.02847 118.91824 278.3716 117.26138 278.3716C115.60453 278.3716 114.26138 277.02847 114.26138 275.3716C114.26138 273.71475 115.60453 272.3716 117.26138 272.3716C118.91824 272.3716 120.26138 273.71475 120.26138 275.3716Z" fill-rule="nonzero"/><path fill="#000000" fill-opacity="0.0" clip-path="url(#id_0)" d="M125.25545 275.36914C125.25545 277.026 123.9123 278.36914 122.25545 278.36914C120.598595 278.36914 119.25545 277.026 119.25545 275.36914C119.25545 273.7123 120.598595 272.36914 122.25545 272.36914C123.9123 272.36914 125.25545 273.7123 125.25545 275.36914Z" fill-rule="nonzero"/><path fill="#000000" fill-opacity="0.0" clip-path="url(#id_0)" d="M130.24951 275.3866C130.24951 277.04346 128.90636 278.3866 127.249504 278.3866C125.59265 278.3866 124.249504 277.04346 124.249504 275.3866C124.249504 273.72977 125.59265 272.3866 127.249504 272.3866C128.90636 272.3866 130.24951 273.72977 130.24951 275.3866Z" fill-rule="nonzero"/><path fill="#000000" fill-opacity="0.0" clip-path="url(#id_0)" d="M135.24356 275.4284C135.24356 277.08527 133.90042 278.4284 132.24356 278.4284C130.58672 278.4284 129.24356 277.08527 129.24356 275.4284C129.24356 273.77155 130.58672 272.4284 132.24356 272.4284C133.90042 272.4284 135.24356 273.77155 135.24356 275.4284Z" fill-rule="nonzero"/><path fill="#000000" fill-opacity="0.0" clip-path="url(#id_0)" d="M140.23763 275.4977C140.23763 277.15457 138.89449 278.4977 137.23763 278.4977C135.58076 278.4977 134.23763 277.15457 134.23763 275.4977C134.23763 273.84085 135.58076 272.4977 137.23763 272.4977C138.89449 272.4977 140.23763 273.84085 140.23763 275.4977Z" fill-rule="nonzero"/><path fill="#000000" fill-opacity="0.0" clip-path="url(#id_0)" d="M145.23169 275.59555C145.23169 277.2524 143.88853 278.59555 142.23169 278.59555C140.57483 278.59555 139.23169 277.2524 139.23169 275.59555C139.23169 273.9387 140.57483 272.59555 142.23169 272.59555C143.88853 272.59555 145.23169 273.9387 145.23169 275.59555Z" fill-rule="nonzero"/><path fill="#000000" fill-opacity="0.0" clip-path="url(#id_0)" d="M150.22574 275.72025C150.22574 277.37708 148.8826 278.72025 147.22574 278.72025C145.5689 278.72025 144.22574 277.37708 144.22574 275.72025C144.22574 274.0634 145.5689 272.72025 147.22574 272.72025C148.8826 272.72025 150.22574 274.0634 150.22574 275.72025Z" fill-rule="nonzero"/><path fill="#000000" fill-opacity="0.0" clip-path="url(#id_0)" d="M155.2198 275.86646C155.2198 277.52332 153.87666 278.86646 152.2198 278.86646C150.56294 278.86646 149.2198 277.52332 149.2198 275.86646C149.2198 274.2096 150.56294 272.86646 152.2198 272.86646C153.87666 272.86646 155.2198 274.2096 155.2198 275.86646Z" fill-rule="nonzero"/><path fill="#000000" fill-opacity="0.0" clip-path="url(#id_0)" d="M160.21387 276.02484C160.21387 277.6817 158.87071 279.02484 157.21387 279.02484C155.557 279.02484 154.21387 277.6817 154.21387 276.02484C154.21387 274.36798 155.557 273.02484 157.21387 273.02484C158.87071 273.02484 160.21387 274.36798 160.21387 276.02484Z" fill-rule="nonzero"/><path fill="#000000" fill-opacity="0.0" clip-path="url(#id_0)" d="M165.20792 276.1817C165.20792 277.83853 163.86478 279.1817 162.20792 279.1817C160.55107 279.1817 159.20792 277.83853 159.20792 276.1817C159.20792 274.52484 160.55107 273.1817 162.20792 273.1817C163.86478 273.1817 165.20792 274.52484 165.20792 276.1817Z" fill-rule="nonzero"/><path fill="#000000" fill-opacity="0.0" clip-path="url(#id_0)" d="M170.20198 276.3191C170.20198 277.97595 168.85884 279.3191 167.20198 279.3191C165.54512 279.3191 164.20198 277.97595 164.20198 276.3191C164.20198 274.66223 165.54512 273.3191 167.20198 273.3191C168.85884 273.3191 170.20198 274.66223 170.20198 276.3191Z" fill-rule="nonzero"/><path fill="#000000" fill-opacity="0.0" clip-path="url(#id_0)" d="M175.19604 276.41556C175.19604 278.07242 173.85289 279.41556 172.19604 279.41556C170.53918 279.41556 169.19604 278.07242 169.19604 276.41556C169.19604 274.7587 170.53918 273.41556 172.19604 273.41556C173.85289 273.41556 175.19604 274.7587 175.19604 276.41556Z" fill-rule="nonzero"/><path fill="#000000" fill-opacity="0.0" clip-path="url(#id_0)" d="M180.1901 276.4473C180.1901 278.10416 178.84695 279.4473 177.1901 279.4473C175.53325 279.4473 174.1901 278.10416 174.1901 276.4473C174.1901 274.79044 175.53325 273.4473 177.1901 273.4473C178.84695 273.4473 180.1901 274.79044 180.1901 276.4473Z" fill-rule="nonzero"/><path fill="#000000" fill-opacity="0.0" clip-path="url(#id_0)" d="M185.18416 276.39008C185.18416 278.04694 183.84102 279.39008 182.18416 279.39008C180.5273 279.39008 179.18416 278.04694 179.18416 276.39008C179.18416 274.73322 180.5273 273.39008 182.18416 273.39008C183.84102 273.39008 185.18416 274.73322 185.18416 276.39008Z" fill-rule="nonzero"/><path fill="#000000" fill-opacity="0.0" clip-path="url(#id_0)" d="M190.17822 276.22186C190.17822 277.87872 188.83507 279.22186 187.17822 279.22186C185.52136 279.22186 184.17822 277.87872 184.17822 276.22186C184.17822 274.56503 185.52136 273.22186 187.17822 273.22186C188.83507 273.22186 190.17822 274.56503 190.17822 276.22186Z" fill-rule="nonzero"/><path fill="#000000" fill-opacity="0.0" clip-path="url(#id_0)" d="M195.17227 275.9259C195.17227 277.58273 193.82913 278.9259 192.17227 278.9259C190.51543 278.9259 189.17227 277.58273 189.17227 275.9259C189.17227 274.26904 190.51543 272.9259 192.17227 272.9259C193.82913 272.9259 195.17227 274.26904 195.17227 275.9259Z" fill-rule="nonzero"/><path fill="#000000" fill-opacity="0.0" clip-path="url(#id_0)" d="M200.16634 275.4942C200.16634 277.15103 198.8232 278.4942 197.16634 278.4942C195.50948 278.4942 194.16634 277.15103 194.16634 275.4942C194.16634 273.83734 195.50948 272.4942 197.16634 272.4942C198.8232 272.4942 200.16634 273.83734 200.16634 275.4942Z" fill-rule="nonzero"/><path fill="#000000" fill-opacity="0.0" clip-path="url(#id_0)" d="M205.1604 274.93137C205.1604 276.58823 203.81725 277.93137 202.1604 277.93137C200.50354 277.93137 199.1604 276.58823 199.1604 274.93137C199.1604 273.2745 200.50354 271.93137 202.1604 271.93137C203.81725 271.93137 205.1604 273.2745 205.1604 274.93137Z" fill-rule="nonzero"/><path fill="#000000" fill-opacity="0.0" clip-path="url(#id_0)" d="M210.15445 274.2581C210.15445 275.91495 208.81131 277.2581 207.15445 277.2581C205.4976 277.2581 204.15445 275.91495 204.15445 274.2581C204.15445 272.60123 205.4976 271.2581 207.15445 271.2581C208.81131 271.2581 210.15445 272.60123 210.15445 274.2581Z" fill-rule="nonzero"/><path fill="#000000" fill-opacity="0.0" clip-path="url(#id_0)" d="M215.14851 273.51382C215.14851 275.1707 213.80537 276.51382 212.14851 276.51382C210.49165 276.51382 209.14851 275.1707 209.14851 273.51382C209.14851 271.857 210.49165 270.51382 212.14851 270.51382C213.80537 270.51382 215.14851 271.857 215.14851 273.51382Z" fill-rule="nonzero"/><path fill="#000000" fill-opacity="0.0" clip-path="url(#id_0)" d="M220.14258 272.75864C220.14258 274.4155 218.79942 275.75864 217.14258 275.75864C215.48572 275.75864 214.14258 274.4155 214.14258 272.75864C214.14258 271.10178 215.48572 269.75864 217.14258 269.75864C218.79942 269.75864 220.14258 271.10178 220.14258 272.75864Z" fill-rule="nonzero"/><path fill="#000000" fill-opacity="0.0" clip-path="url(#id_0)" d="M225.13663 272.07294C225.13663 273.72977 223.79349 275.07294 222.13663 275.07294C220.47978 275.07294 219.13663 273.72977 219.13663 272.07294C219.13663 270.41608 220.47978 269.07294 222.13663 269.07294C223.79349 269.07294 225.13663 270.41608 225.13663 272.07294Z" fill-rule="nonzero"/><path fill="#000000" fill-opacity="0.0" clip-path="url(#id_0)" d="M230.13069 271.55505C230.13069 273.2119 228.78755 274.55505 227.13069 274.55505C225.47385 274.55505 224.13069 273.2119 224.13069 271.55505C224.13069 269.89822 225.47385 268.55505 227.13069 268.55505C228.78755 268.55505 230.13069 269.89822 230.13069 271.55505Z" fill-rule="nonzero"/><path fill="#000000" fill-opacity="0.0" clip-path="url(#id_0)" d="M235.12476 271.31622C235.12476 272.97308 233.7816 274.31622 232.12476 274.31622C230.4679 274.31622 229.12476 272.97308 229.12476 271.31622C229.12476 269.65936 230.4679 268.31622 232.12476 268.31622C233.7816 268.31622 235.12476 269.65936 235.12476 271.31622Z" fill-rule="nonzero"/><path fill="#000000" fill-opacity="0.0" clip-path="url(#id_0)" d="M240.1188 271.4721C240.1188 273.12897 238.77567 274.4721 237.1188 274.4721C235.46196 274.4721 234.1188 273.12897 234.1188 271.4721C234.1188 269.81525 235.46196 268.4721 237.1188 268.4721C238.77567 268.4721 240.1188 269.81525 240.1188 271.4721Z" fill-rule="nonzero"/><path fill="#000000" fill-opacity="0.0" clip-path="url(#id_0)" d="M245.11287 272.1315C245.11287 273.78836 243.76973 275.1315 242.11287 275.1315C240.45602 275.1315 239.11287 273.78836 239.11287 272.1315C239.11287 270.47464 240.45602 269.1315 242.11287 269.1315C243.76973 269.1315 245.11287 270.47464 245.11287 272.1315Z" fill-rule="nonzero"/><path fill="#000000" fill-opacity="0.0" clip-path="url(#id_0)" d="M250.10693 273.38202C250.10693 275.03888 248.76378 276.38202 247.10693 276.38202C245.45007 276.38202 244.10693 275.03888 244.10693 273.38202C244.10693 271.72516 245.45007 270.38202 247.10693 270.38202C248.76378 270.38202 250.10693 271.72516 250.10693 273.38202Z" fill-rule="nonzero"/><path fill="#000000" fill-opacity="0.0" clip-path="url(#id_0)" d="M255.10098 275.2736C255.10098 276.93045 253.75784 278.2736 252.10098 278.2736C250.44414 278.2736 249.10098 276.93045 249.10098 275.2736C249.10098 273.61673 250.44414 272.2736 252.10098 272.2736C253.75784 272.2736 255.10098 273.61673 255.10098 275.2736Z" fill-rule="nonzero"/><path fill="#000000" fill-opacity="0.0" clip-path="url(#id_0)" d="M260.09506 277.80084C260.09506 279.4577 258.7519 280.80084 257.09506 280.80084C255.4382 280.80084 254.09505 279.4577 254.09505 277.80084C254.09505 276.14398 255.4382 274.80084 257.09506 274.80084C258.7519 274.80084 260.09506 276.14398 260.09506 277.80084Z" fill-rule="nonzero"/><path fill="#000000" fill-opacity="0.0" clip-path="url(#id_0)" d="M265.0891 280.8861C265.0891 282.54297 263.74597 283.8861 262.0891 283.8861C260.43225 283.8861 259.0891 282.54297 259.0891 280.8861C259.0891 279.22925 260.43225 277.8861 262.0891 277.8861C263.74597 277.8861 265.0891 279.22925 265.0891 280.8861Z" fill-rule="nonzero"/><path fill="#000000" fill-opacity="0.0" clip-path="url(#id_0)" d="M270.08316 284.36487C270.08316 286.02173 268.74002 287.36487 267.08316 287.36487C265.4263 287.36487 264.08316 286.02173 264.08316 284.36487C264.08316 282.70804 265.4263 281.36487 267.08316 281.36487C268.74002 281.36487 270.08316 282.70804 270.08316 284.36487Z" fill-rule="nonzero"/><path fill="#000000" fill-opacity="0.0" clip-path="url(#id_0)" d="M275.07724 287.97635C275.07724 289.6332 273.73407 290.97635 272.07724 290.97635C270.42038 290.97635 269.07724 289.6332 269.07724 287.97635C269.07724 286.3195 270.42038 284.97635 272.07724 284.97635C273.73407 284.97635 275.07724 286.3195 275.07724 287.97635Z" fill-rule="nonzero"/><path fill="#000000" fill-opacity="0.0" clip-path="url(#id_0)" d="M280.0713 291.36166C280.0713 293.01852 278.72815 294.36166 277.0713 294.36166C275.41443 294.36166 274.0713 293.01852 274.0713 291.36166C274.0713 289.7048 275.41443 288.36166 277.0713 288.36166C278.72815 288.36166 280.0713 289.7048 280.0713 291.36166Z" fill-rule="nonzero"/><path fill="#000000" fill-opacity="0.0" clip-path="url(#id_0)" d="M285.06534 294.07242C285.06534 295.72928 283.7222 297.07242 282.06534 297.07242C280.40848 297.07242 279.06534 295.72928 279.06534 294.07242C279.06534 292.41556 280.40848 291.07242 282.06534 291.07242C283.7222 291.07242 285.06534 292.41556 285.06534 294.07242Z" fill-rule="nonzero"/><path fill="#000000" fill-opacity="0.0" clip-path="url(#id_0)" d="M290.05942 295.5919C290.05942 297.24875 288.71625 298.5919 287.05942 298.5919C285.40256 298.5919 284.05942 297.24875 284.05942 295.5919C284.05942 293.93503 285.40256 292.5919 287.05942 292.5919C288.71625 292.5919 290.05942 293.93503 290.05942 295.5919Z" fill-rule="nonzero"/><path fill="#000000" fill-opacity="0.0" clip-path="url(#id_0)" d="M295.05347 295.37064C295.05347 297.0275 293.71033 298.37064 292.05347 298.37064C290.3966 298.37064 289.05347 297.0275 289.05347 295.37064C289.05347 293.7138 290.3966 292.37064 292.05347 292.37064C293.71033 292.37064 295.05347 293.7138 295.05347 295.37064Z" fill-rule="nonzero"/><path fill="#000000" fill-opacity="0.0" clip-path="url(#id_0)" d="M300.04752 292.8771C300.04752 294.53394 298.70438 295.8771 297.04752 295.8771C295.39066 295.8771 294.04752 294.53394 294.04752 292.8771C294.04752 291.22025 295.39066 289.8771 297.04752 289.8771C298.70438 289.8771 300.04752 291.22025 300.04752 292.8771Z" fill-rule="nonzero"/><path fill="#000000" fill-opacity="0.0" clip-path="url(#id_0)" d="M305.0416 287.66226C305.0416 289.31912 303.69843 290.66226 302.0416 290.66226C300.38474 290.66226 299.0416 289.31912 299.0416 287.66226C299.0416 286.0054 300.38474 284.66226 302.0416 284.66226C303.69843 284.66226 305.0416 286.0054 305.0416 287.66226Z" fill-rule="nonzero"/><path fill="#000000" fill-opacity="0.0" clip-path="url(#id_0)" d="M310.03564 279.4361C310.03564 281.09293 308.6925 282.4361 307.03564 282.4361C305.37878 282.4361 304.03564 281.09293 304.03564 279.4361C304.03564 277.77924 305.37878 276.4361 307.03564 276.4361C308.6925 276.4361 310.03564 277.77924 310.03564 279.4361Z" fill-rule="nonzero"/><path fill="#000000" fill-opacity="0.0" clip-path="url(#id_0)" d="M315.0297 268.15042C315.0297 269.80728 313.68655 271.15042 312.0297 271.15042C310.37286 271.15042 309.0297 269.80728 309.0297 268.15042C309.0297 266.49356 310.37286 265.15042 312.0297 265.15042C313.68655 265.15042 315.0297 266.49356 315.0297 268.15042Z" fill-rule="nonzero"/><path fill="#000000" fill-opacity="0.0" clip-path="url(#id_0)" d="M320.02377 254.08168C320.02377 255.73854 318.6806 257.0817 317.02377 257.0817C315.3669 257.0817 314.02377 255.73854 314.02377 254.08168C314.02377 252.42482 315.3669 251.08168 317.02377 251.08168C318.6806 251.08168 320.02377 252.42482 320.02377 254.08168Z" fill-rule="nonzero"/><path fill="#000000" fill-opacity="0.0" clip-path="url(#id_0)" d="M325.01782 237.9038C325.01782 239.56064 323.67468 240.9038 322.01782 240.9038C320.36096 240.9038 319.01782 239.56064 319.01782 237.9038C319.01782 236.24693 320.36096 234.9038 322.01782 234.9038C323.67468 234.9038 325.01782 236.24693 325.01782 237.9038Z" fill-rule="nonzero"/><path fill="#000000" fill-opacity="0.0" clip-path="url(#id_0)" d="M330.01187 220.74036C330.01187 222.39722 328.66873 223.74036 327.01187 223.74036C325.35504 223.74036 324.01187 222.39722 324.01187 220.74036C324.01187 219.08351 325.35504 217.74036 327.01187 217.74036C328.66873 217.74036 330.01187 219.08351 330.01187 220.74036Z" fill-rule="nonzero"/><path fill="#000000" fill-opacity="0.0" clip-path="url(#id_0)" d="M335.00595 204.18352C335.00595 205.84038 333.66278 207.18352 332.00595 207.18352C330.3491 207.18352 329.00595 205.84038 329.00595 204.18352C329.00595 202.52666 330.3491 201.18352 332.00595 201.18352C333.66278 201.18352 335.00595 202.52666 335.00595 204.18352Z" fill-rule="nonzero"/><path fill="#000000" fill-opacity="0.0" clip-path="url(#id_0)" d="M340.0 190.26666C340.0 191.92352 338.65686 193.26666 337.0 193.26666C335.34314 193.26666 334.0 191.92352 334.0 190.26666C334.0 188.60982 335.34314 187.26666 337.0 187.26666C338.65686 187.26666 340.0 188.60982 340.0 190.26666Z" fill-rule="nonzero"/><path fill="#000000" fill-opacity="0.0" clip-path="url(#id_0)" d="M344.99405 176.34981C344.99405 178.00667 343.6509 179.34981 341.99405 179.34981C340.33722 179.34981 338.99405 178.00667 338.99405 176.34981C338.99405 174.69296 340.33722 173.34981 341.99405 173.34981C343.6509 173.34981 344.99405 174.69296 344.99405 176.34981Z" fill-rule="nonzero"/><path fill="#000000" fill-opacity="0.0" clip-path="url(#id_0)" d="M349.98813 159.79297C349.98813 161.44983 348.64496 162.79297 346.98813 162.79297C345.33127 162.79297 343.98813 161.44983 343.98813 159.79297C343.98813 158.13611 345.33127 156.79297 346.98813 156.79297C348.64496 156.79297 349.98813 158.13611 349.98813 159.79297Z" fill-rule="nonzero"/><path fill="#000000" fill-opacity="0.0" clip-path="url(#id_0)" d="M354.98218 142.62955C354.98218 144.28639 353.63904 145.62955 351.98218 145.62955C350.32532 145.62955 348.98218 144.28639 348.98218 142.62955C348.98218 140.97269 350.32532 139.62955 351.98218 139.62955C353.63904 139.62955 354.98218 140.97269 354.98218 142.62955Z" fill-rule="nonzero"/><path fill="#000000" fill-opacity="0.0" clip-path="url(#id_0)" d="M359.97623 126.45165C359.97623 128.1085 358.6331 129.45166 356.97623 129.45166C355.3194 129.45166 353.97623 128.1085 353.97623 126.45165C353.97623 124.7948 355.3194 123.45165 356.97623 123.45165C358.6331 123.45165 359.97623 124.7948 359.97623 126.45165Z" fill-rule="nonzero"/><path fill="#000000" fill-opacity="0.0" clip-path="url(#id_0)" d="M364.9703 112.382904C364.9703 114.039764 363.62714 115.382904 361.9703 115.382904C360.31345 115.382904 358.9703 114.039764 358.9703 112.382904C358.9703 110.72605 360.31345 109.382904 361.9703 109.382904C363.62714 109.382904 364.9703 110.72605 364.9703 112.382904Z" fill-rule="nonzero"/><path fill="#000000" fill-opacity="0.0" clip-path="url(#id_0)" d="M369.96436 101.097244C369.96436 102.754105 368.62122 104.097244 366.96436 104.097244C365.3075 104.097244 363.96436 102.754105 363.96436 101.097244C363.96436 99.44039 365.3075 98.097244 366.96436 98.097244C368.62122 98.097244 369.96436 99.44039 369.96436 101.097244Z" fill-rule="nonzero"/><path fill="#000000" fill-opacity="0.0" clip-path="url(#id_0)" d="M374.9584 92.87108C374.9584 94.52793 373.61526 95.87108 371.9584 95.87108C370.30157 95.87108 368.9584 94.52793 368.9584 92.87108C368.9584 91.21422 370.30157 89.87108 371.9584 89.87108C373.61526 89.87108 374.9584 91.21422 374.9584 92.87108Z" fill-rule="nonzero"/><path fill="#000000" fill-opacity="0.0" clip-path="url(#id_0)" d="M379.95248 87.65624C379.95248 89.313095 378.60934 90.65624 376.95248 90.65624C375.29562 90.65624 373.95248 89.313095 373.95248 87.65624C373.95248 85.99939 375.29562 84.65624 376.95248 84.65624C378.60934 84.65624 379.95248 85.99939 379.95248 87.65624Z" fill-rule="nonzero"/><path fill="#000000" fill-opacity="0.0" clip-path="url(#id_0)" d="M384.94653 85.16268C384.94653 86.81954 383.6034 88.16268 381.94653 88.16268C380.28967 88.16268 378.94653 86.81954 378.94653 85.16268C378.94653 83.50583 380.28967 82.16268 381.94653 82.16268C383.6034 82.16268 384.94653 83.50583 384.94653 85.16268Z" fill-rule="nonzero"/><path fill="#000000" fill-opacity="0.0" clip-path="url(#id_0)" d="M389.94058 84.941444C389.94058 86.5983 388.59744 87.941444 386.94058 87.941444C385.28375 87.941444 383.94058 86.5983 383.94058 84.941444C383.94058 83.28459 385.28375 81.941444 386.94058 81.941444C388.59744 81.941444 389.94058 83.28459 389.94058 84.941444Z" fill-rule="nonzero"/><path fill="#000000" fill-opacity="0.0" clip-path="url(#id_0)" d="M394.93466 86.46092C394.93466 88.117775 393.59152 89.46092 391.93466 89.46092C390.2778 89.46092 388.93466 88.117775 388.93466 86.46092C388.93466 84.80407 390.2778 83.46092 391.93466 83.46092C393.59152 83.46092 394.93466 84.80407 394.93466 86.46092Z" fill-rule="nonzero"/><path fill="#000000" fill-opacity="0.0" clip-path="url(#id_0)" d="M399.9287 89.17168C399.9287 90.82853 398.58557 92.17168 396.9287 92.17168C395.27185 92.17168 393.9287 90.82853 393.9287 89.17168C393.9287 87.51482 395.27185 86.17168 396.9287 86.17168C398.58557 86.17168 399.9287 87.51482 399.9287 89.17168Z" fill-rule="nonzero"/><path fill="#000000" fill-opacity="0.0" clip-path="url(#id_0)" d="M404.92276 92.556984C404.92276 94.21384 403.57962 95.556984 401.92276 95.556984C400.26593 95.556984 398.92276 94.21384 398.92276 92.556984C398.92276 90.90013 400.26593 89.556984 401.92276 89.556984C403.57962 89.556984 404.92276 90.90013 404.92276 92.556984Z" fill-rule="nonzero"/><path fill="#000000" fill-opacity="0.0" clip-path="url(#id_0)" d="M409.91684 96.16846C409.91684 97.82531 408.5737 99.16846 406.91684 99.16846C405.25998 99.16846 403.91684 97.82531 403.91684 96.16846C403.91684 94.5116 405.25998 93.16846 406.91684 93.16846C408.5737 93.16846 409.91684 94.5116 409.91684 96.16846Z" fill-rule="nonzero"/><path fill="#000000" fill-opacity="0.0" clip-path="url(#id_0)" d="M414.9109 99.647224C414.9109 101.30408 413.56775 102.647224 411.9109 102.647224C410.25403 102.647224 408.9109 101.30408 408.9109 99.647224C408.9109 97.99037 410.25403 96.647224 411.9109 96.647224C413.56775 96.647224 414.9109 97.99037 414.9109 99.647224Z" fill-rule="nonzero"/><path fill="#000000" fill-opacity="0.0" clip-path="url(#id_0)" d="M419.90494 102.73249C419.90494 104.38934 418.5618 105.73249 416.90494 105.73249C415.2481 105.73249 413.90494 104.38934 413.90494 102.73249C413.90494 101.07564 415.2481 99.73249 416.90494 99.73249C418.5618 99.73249 419.90494 101.07564 419.90494 102.73249Z" fill-rule="nonzero"/><path fill="#000000" fill-opacity="0.0" clip-path="url(#id_0)" d="M424.89902 105.25975C424.89902 106.9166 423.55588 108.25975 421.89902 108.25975C420.24216 108.25975 418.89902 106.9166 418.89902 105.25975C418.89902 103.6029 420.24216 102.25975 421.89902 102.25975C423.55588 102.25975 424.89902 103.6029 424.89902 105.25975Z" fill-rule="nonzero"/><path fill="#000000" fill-opacity="0.0" clip-path="url(#id_0)" d="M429.89307 107.15131C429.89307 108.80817 428.54993 110.15131 426.89307 110.15131C425.2362 110.15131 423.89307 108.80817 423.89307 107.15131C423.89307 105.49446 425.2362 104.15131 426.89307 104.15131C428.54993 104.15131 429.89307 105.49446 429.89307 107.15131Z" fill-rule="nonzero"/><path fill="#000000" fill-opacity="0.0" clip-path="url(#id_0)" d="M434.88712 108.401825C434.88712 110.058685 433.54398 111.401825 431.88712 111.401825C430.2303 111.401825 428.88712 110.058685 428.88712 108.401825C428.88712 106.74497 430.2303 105.401825 431.88712 105.401825C433.54398 105.401825 434.88712 106.74497 434.88712 108.401825Z" fill-rule="nonzero"/><path fill="#000000" fill-opacity="0.0" clip-path="url(#id_0)" d="M439.8812 109.06122C439.8812 110.71807 438.53806 112.06122 436.8812 112.06122C435.22433 112.06122 433.8812 110.71807 433.8812 109.06122C433.8812 107.404366 435.22433 106.06122 436.8812 106.06122C438.53806 106.06122 439.8812 107.404366 439.8812 109.06122Z" fill-rule="nonzero"/><path fill="#000000" fill-opacity="0.0" clip-path="url(#id_0)" d="M444.87524 109.2171C444.87524 110.873955 443.5321 112.2171 441.87524 112.2171C440.21838 112.2171 438.87524 110.873955 438.87524 109.2171C438.87524 107.56025 440.21838 106.2171 441.87524 106.2171C443.5321 106.2171 444.87524 107.56025 444.87524 109.2171Z" fill-rule="nonzero"/><path fill="#000000" fill-opacity="0.0" clip-path="url(#id_0)" d="M449.8693 108.97827C449.8693 110.635124 448.52615 111.97827 446.8693 111.97827C445.21246 111.97827 443.8693 110.635124 443.8693 108.97827C443.8693 107.32141 445.21246 105.97827 446.8693 105.97827C448.52615 105.97827 449.8693 107.32141 449.8693 108.97827Z" fill-rule="nonzero"/><path fill="#000000" fill-opacity="0.0" clip-path="url(#id_0)" d="M454.86337 108.4604C454.86337 110.11726 453.52023 111.4604 451.86337 111.4604C450.2065 111.4604 448.86337 110.11726 448.86337 108.4604C448.86337 106.80355 450.2065 105.4604 451.86337 105.4604C453.52023 105.4604 454.86337 106.80355 454.86337 108.4604Z" fill-rule="nonzero"/><path fill="#000000" fill-opacity="0.0" clip-path="url(#id_0)" d="M459.85742 107.77469C459.85742 109.43154 458.51428 110.77469 456.85742 110.77469C455.20056 110.77469 453.85742 109.43154 453.85742 107.77469C453.85742 106.117836 455.20056 104.77469 456.85742 104.77469C458.51428 104.77469 459.85742 106.117836 459.85742 107.77469Z" fill-rule="nonzero"/><path fill="#000000" fill-opacity="0.0" clip-path="url(#id_0)" d="M464.85147 107.0195C464.85147 108.67635 463.50833 110.0195 461.85147 110.0195C460.19464 110.0195 458.85147 108.67635 458.85147 107.0195C458.85147 105.36265 460.19464 104.0195 461.85147 104.0195C463.50833 104.0195 464.85147 105.36265 464.85147 107.0195Z" fill-rule="nonzero"/><path fill="#000000" fill-opacity="0.0" clip-path="url(#id_0)" d="M469.84555 106.27525C469.84555 107.932106 468.5024 109.27525 466.84555 109.27525C465.1887 109.27525 463.84555 107.932106 463.84555 106.27525C463.84555 104.61839 465.1887 103.27525 466.84555 103.27525C468.5024 103.27525 469.84555 104.61839 469.84555 106.27525Z" fill-rule="nonzero"/><path fill="#000000" fill-opacity="0.0" clip-path="url(#id_0)" d="M474.8396 105.60196C474.8396 107.25882 473.49646 108.60196 471.8396 108.60196C470.18274 108.60196 468.8396 107.25882 468.8396 105.60196C468.8396 103.94511 470.18274 102.60196 471.8396 102.60196C473.49646 102.60196 474.8396 103.94511 474.8396 105.60196Z" fill-rule="nonzero"/><path fill="#000000" fill-opacity="0.0" clip-path="url(#id_0)" d="M479.83365 105.03915C479.83365 106.696 478.4905 108.03915 476.83365 108.03915C475.17682 108.03915 473.83365 106.696 473.83365 105.03915C473.83365 103.38229 475.17682 102.03915 476.83365 102.03915C478.4905 102.03915 479.83365 103.38229 479.83365 105.03915Z" fill-rule="nonzero"/><path fill="#000000" fill-opacity="0.0" clip-path="url(#id_0)" d="M484.82773 104.607445C484.82773 106.2643 483.4846 107.607445 481.82773 107.607445C480.17087 107.607445 478.82773 106.2643 478.82773 104.607445C478.82773 102.95059 480.17087 101.607445 481.82773 101.607445C483.4846 101.607445 484.82773 102.95059 484.82773 104.607445Z" fill-rule="nonzero"/><path fill="#000000" fill-opacity="0.0" clip-path="url(#id_0)" d="M489.82178 104.311455C489.82178 105.968315 488.47864 107.311455 486.82178 107.311455C485.16492 107.311455 483.82178 105.968315 483.82178 104.311455C483.82178 102.6546 485.16492 101.311455 486.82178 101.311455C488.47864 101.311455 489.82178 102.6546 489.82178 104.311455Z" fill-rule="nonzero"/><path fill="#000000" fill-opacity="0.0" clip-path="url(#id_0)" d="M494.81583 104.14325C494.81583 105.8001 493.4727 107.14325 491.81583 107.14325C490.159 107.14325 488.81583 105.8001 488.81583 104.14325C488.81583 102.4864 490.159 101.14325 491.81583 101.14325C493.4727 101.14325 494.81583 102.4864 494.81583 104.14325Z" fill-rule="nonzero"/><path fill="#000000" fill-opacity="0.0" clip-path="url(#id_0)" d="M499.8099 104.086044C499.8099 105.7429 498.46677 107.086044 496.8099 107.086044C495.15305 107.086044 493.8099 105.7429 493.8099 104.086044C493.8099 102.42919 495.15305 101.086044 496.8099 101.086044C498.46677 101.086044 499.8099 102.42919 499.8099 104.086044Z" fill-rule="nonzero"/><path fill="#000000" fill-opacity="0.0" clip-path="url(#id_0)" d="M504.80396 104.117775C504.80396 105.77463 503.46082 107.117775 501.80396 107.117775C500.1471 107.117775 498.80396 105.77463 498.80396 104.117775C498.80396 102.46092 500.1471 101.117775 501.80396 101.117775C503.46082 101.117775 504.80396 102.46092 504.80396 104.117775Z" fill-rule="nonzero"/><path fill="#000000" fill-opacity="0.0" clip-path="url(#id_0)" d="M509.79803 104.21424C509.79803 105.87109 508.45486 107.21424 506.79803 107.21424C505.14117 107.21424 503.79803 105.87109 503.79803 104.21424C503.79803 102.55739 505.14117 101.21424 506.79803 101.21424C508.45486 101.21424 509.79803 102.55739 509.79803 104.21424Z" fill-rule="nonzero"/><path fill="#000000" fill-opacity="0.0" clip-path="url(#id_0)" d="M514.79205 104.35164C514.79205 106.0085 513.4489 107.35164 511.79208 107.35164C510.13522 107.35164 508.79208 106.0085 508.79208 104.35164C508.79208 102.694786 510.13522 101.35164 511.79208 101.35164C513.4489 101.35164 514.79205 102.694786 514.79205 104.35164Z" fill-rule="nonzero"/><path fill="#000000" fill-opacity="0.0" clip-path="url(#id_0)" d="M519.78613 104.5085C519.78613 106.16535 518.443 107.5085 516.78613 107.5085C515.1293 107.5085 513.78613 106.16535 513.78613 104.5085C513.78613 102.85164 515.1293 101.5085 516.78613 101.5085C518.443 101.5085 519.78613 102.85164 519.78613 104.5085Z" fill-rule="nonzero"/><path fill="#000000" fill-opacity="0.0" clip-path="url(#id_0)" d="M524.7802 104.666885C524.7802 106.32374 523.4371 107.666885 521.7802 107.666885C520.12335 107.666885 518.7802 106.32374 518.7802 104.666885C518.7802 103.01003 520.12335 101.666885 521.7802 101.666885C523.4371 101.666885 524.7802 103.01003 524.7802 104.666885Z" fill-rule="nonzero"/><path fill="#000000" fill-opacity="0.0" clip-path="url(#id_0)" d="M529.77423 104.813095C529.77423 106.469955 528.4311 107.813095 526.77423 107.813095C525.11743 107.813095 523.77423 106.469955 523.77423 104.813095C523.77423 103.15624 525.11743 101.813095 526.77423 101.813095C528.4311 101.813095 529.77423 103.15624 529.77423 104.813095Z" fill-rule="nonzero"/><path fill="#000000" fill-opacity="0.0" clip-path="url(#id_0)" d="M534.7683 104.937775C534.7683 106.59463 533.4252 107.937775 531.7683 107.937775C530.11145 107.937775 528.7683 106.59463 528.7683 104.937775C528.7683 103.28092 530.11145 101.937775 531.7683 101.937775C533.4252 101.937775 534.7683 103.28092 534.7683 104.937775Z" fill-rule="nonzero"/><path fill="#000000" fill-opacity="0.0" clip-path="url(#id_0)" d="M539.7624 105.03563C539.7624 106.69248 538.41925 108.03563 536.7624 108.03563C535.1055 108.03563 533.7624 106.69248 533.7624 105.03563C533.7624 103.37878 535.1055 102.03563 536.7624 102.03563C538.41925 102.03563 539.7624 103.37878 539.7624 105.03563Z" fill-rule="nonzero"/><path fill="#000000" fill-opacity="0.0" clip-path="url(#id_0)" d="M544.7564 105.10492C544.7564 106.76177 543.41327 108.10492 541.7564 108.10492C540.0996 108.10492 538.7564 106.76177 538.7564 105.10492C538.7564 103.44807 540.0996 102.10492 541.7564 102.10492C543.41327 102.10492 544.7564 103.44807 544.7564 105.10492Z" fill-rule="nonzero"/><path fill="#000000" fill-opacity="0.0" clip-path="url(#id_0)" d="M549.7505 105.14673C549.7505 106.80358 548.40735 108.14673 546.7505 108.14673C545.0936 108.14673 543.7505 106.80358 543.7505 105.14673C543.7505 103.48987 545.0936 102.14673 546.7505 102.14673C548.40735 102.14673 549.7505 103.48987 549.7505 105.14673Z" fill-rule="nonzero"/><path fill="#000000" fill-opacity="0.0" clip-path="url(#id_0)" d="M554.74457 105.164185C554.74457 106.82104 553.4014 108.164185 551.74457 108.164185C550.0877 108.164185 548.74457 106.82104 548.74457 105.164185C548.74457 103.507324 550.0877 102.164185 551.74457 102.164185C553.4014 102.164185 554.74457 103.507324 554.74457 105.164185Z" fill-rule="nonzero"/><path fill="#000000" fill-opacity="0.0" clip-path="url(#id_0)" d="M559.7386 105.16171C559.7386 106.81857 558.39545 108.16171 556.7386 108.16171C555.0818 108.16171 553.7386 106.81857 553.7386 105.16171C553.7386 103.50486 555.0818 102.16171 556.7386 102.16171C558.39545 102.16171 559.7386 103.50486 559.7386 105.16171Z" fill-rule="nonzero"/><path fill="#000000" fill-opacity="0.0" clip-path="url(#id_0)" d="M564.73267 105.144356C564.73267 106.80121 563.3895 108.144356 561.73267 108.144356C560.0758 108.144356 558.73267 106.80121 558.73267 105.144356C558.73267 103.4875 560.0758 102.144356 561.73267 102.144356C563.3895 102.144356 564.73267 103.4875 564.73267 105.144356Z" fill-rule="nonzero"/><path fill="#000000" fill-opacity="0.0" clip-path="url(#id_0)" d="M569.72675 105.11718C569.72675 106.77403 568.3836 108.11718 566.72675 108.11718C565.0699 108.11718 563.72675 106.77403 563.72675 105.11718C563.72675 103.46032 565.0699 102.11718 566.72675 102.11718C568.3836 102.11718 569.72675 103.46032 569.72675 105.11718Z" fill-rule="nonzero"/><path fill="#000000" fill-opacity="0.0" clip-path="url(#id_0)" d="M574.72076 105.08484C574.72076 106.74169 573.3776 108.08484 571.72076 108.08484C570.06396 108.08484 568.72076 106.74169 568.72076 105.08484C568.72076 103.427986 570.06396 102.08484 571.72076 102.08484C573.3776 102.08484 574.72076 103.427986 574.72076 105.08484Z" fill-rule="nonzero"/><path fill="#000000" fill-opacity="0.0" clip-path="url(#id_0)" d="M579.71484 105.051315C579.71484 106.70817 578.3717 108.051315 576.71484 108.051315C575.058 108.051315 573.71484 106.70817 573.71484 105.051315C573.71484 103.39446 575.058 102.051315 576.71484 102.051315C578.3717 102.051315 579.71484 103.39446 579.71484 105.051315Z" fill-rule="nonzero"/><path fill="#000000" fill-opacity="0.0" clip-path="url(#id_0)" d="M584.7089 105.01972C584.7089 106.676575 583.3658 108.01972 581.7089 108.01972C580.05206 108.01972 578.7089 106.676575 578.7089 105.01972C578.7089 103.36286 580.05206 102.01972 581.7089 102.01972C583.3658 102.01972 584.7089 103.36286 584.7089 105.01972Z" fill-rule="nonzero"/><path fill="#000000" fill-opacity="0.0" clip-path="url(#id_0)" d="M589.70294 104.977776C589.70294 106.63463 588.3598 107.977776 586.70294 107.977776C585.04614 107.977776 583.70294 106.63463 583.70294 104.977776C583.70294 103.32092 585.04614 101.977776 586.70294 101.977776C588.3598 101.977776 589.70294 103.32092 589.70294 104.977776Z" fill-rule="nonzero"/><path fill="#000000" d="M338.59375 353.2625L338.75 354.1844Q338.29688 354.27814 337.95312 354.27814Q337.375 354.27814 337.0625 354.10626Q336.75 353.91876 336.60938 353.6219Q336.48438 353.325 336.48438 352.3719L336.48438 348.79376L335.71875 348.79376L335.71875 347.98126L336.48438 347.98126L336.48438 346.4344L337.53125 345.8094L337.53125 347.98126L338.59375 347.98126L338.59375 348.79376L337.53125 348.79376L337.53125 352.4344Q337.53125 352.8875 337.57812 353.0125Q337.64062 353.1375 337.76562 353.21564Q337.89062 353.29376 338.125 353.29376Q338.3125 353.29376 338.59375 353.2625Z" fill-rule="nonzero"/><path fill="#000000" d="M29.800013 192.67291L26.565638 190.40729L23.581263 192.50104L23.581263 191.18854L25.034388 190.23541Q25.456263 189.96979 25.737513 189.79791Q25.346888 189.54791 25.050013 189.32916L23.581263 188.28229L23.581263 187.01666L26.503138 189.17291L29.800013 186.86041L29.800013 188.14166L27.862513 189.42291L27.346888 189.76666L29.800013 191.40729L29.800013 192.67291Z" fill-rule="nonzero"/><path fill="#000000" d="M51.175 319.6219L51.175 318.5594L54.425 318.5594L54.425 319.6219L51.175 319.6219ZM55.3 317.96564Q55.3 316.4344 55.6125 315.5125Q55.925 314.575 56.534374 314.075Q57.159374 313.575 58.096874 313.575Q58.784374 313.575 59.3 313.85626Q59.83125 314.1375 60.175 314.66876Q60.51875 315.1844 60.70625 315.9344Q60.89375 316.6844 60.89375 317.96564Q60.89375 319.48126 60.58125 320.40314Q60.284374 321.325 59.659374 321.84064Q59.05 322.34064 58.096874 322.34064Q56.8625 322.34064 56.14375 321.45Q55.3 320.3875 55.3 317.96564ZM56.378124 317.96564Q56.378124 320.075 56.878124 320.77814Q57.378124 321.48126 58.096874 321.48126Q58.83125 321.48126 59.315624 320.77814Q59.815624 320.075 59.815624 317.96564Q59.815624 315.84064 59.315624 315.15314Q58.83125 314.45 58.08125 314.45Q57.3625 314.45 56.925 315.0594Q56.378124 315.84064 56.378124 317.96564ZM62.89375 322.2L62.89375 320.9969L64.09688 320.9969L64.09688 322.2L62.89375 322.2ZM70.84688 321.1844L70.84688 322.2L65.15938 322.2Q65.15938 321.825 65.28438 321.46564Q65.50313 320.8875 65.97188 320.325Q66.45625 319.7625 67.3625 319.02814Q68.76875 317.8719 69.25313 317.2Q69.75313 316.52814 69.75313 315.9344Q69.75313 315.3094 69.3 314.8875Q68.84688 314.45 68.12813 314.45Q67.3625 314.45 66.90938 314.90314Q66.45625 315.35626 66.44063 316.16876L65.3625 316.0594Q65.47188 314.84064 66.19063 314.21564Q66.925 313.575 68.15938 313.575Q69.39375 313.575 70.1125 314.2625Q70.83125 314.95 70.83125 315.96564Q70.83125 316.48126 70.6125 316.98126Q70.40938 317.46564 69.90938 318.02814Q69.425 318.575 68.3 319.52814Q67.34688 320.325 67.06563 320.6219Q66.8 320.90314 66.62813 321.1844L70.84688 321.1844ZM72.3 319.95L73.40938 319.85626Q73.53438 320.66876 73.97188 321.075Q74.425 321.48126 75.06563 321.48126Q75.81563 321.48126 76.34688 320.90314Q76.87813 320.325 76.87813 319.3875Q76.87813 318.48126 76.3625 317.96564Q75.8625 317.4344 75.03438 317.4344Q74.53438 317.4344 74.1125 317.66876Q73.70625 317.90314 73.47188 318.2625L72.4875 318.1375L73.31563 313.73126L77.59688 313.73126L77.59688 314.73126L74.15938 314.73126L73.70625 317.04376Q74.47188 316.4969 75.31563 316.4969Q76.44063 316.4969 77.20625 317.27814Q77.9875 318.0594 77.9875 319.29376Q77.9875 320.45 77.31563 321.3094Q76.4875 322.34064 75.06563 322.34064Q73.89375 322.34064 73.14375 321.6844Q72.40938 321.02814 72.3 319.95Z" fill-rule="nonzero"/><path fill="#000000" d="M55.3 232.67674Q55.3 231.1455 55.6125 230.22362Q55.925 229.28612 56.534374 228.78612Q57.159374 228.28612 58.096874 228.28612Q58.784374 228.28612 59.3 228.56737Q59.83125 228.84862 60.175 229.37987Q60.51875 229.8955 60.70625 230.6455Q60.89375 231.3955 60.89375 232.67674Q60.89375 234.19237 60.58125 235.11424Q60.284374 236.03612 59.659374 236.55174Q59.05 237.05174 58.096874 237.05174Q56.8625 237.05174 56.14375 236.16112Q55.3 235.09862 55.3 232.67674ZM56.378124 232.67674Q56.378124 234.78612 56.878124 235.48924Q57.378124 236.19237 58.096874 236.19237Q58.83125 236.19237 59.315624 235.48924Q59.815624 234.78612 59.815624 232.67674Q59.815624 230.55174 59.315624 229.86424Q58.83125 229.16112 58.08125 229.16112Q57.3625 229.16112 56.925 229.7705Q56.378124 230.55174 56.378124 232.67674ZM62.89375 236.91112L62.89375 235.708L64.09688 235.708L64.09688 236.91112L62.89375 236.91112ZM70.84688 235.8955L70.84688 236.91112L65.15938 236.91112Q65.15938 236.53612 65.28438 236.17674Q65.50313 235.59862 65.97188 235.03612Q66.45625 234.47362 67.3625 233.73924Q68.76875 232.583 69.25313 231.91112Q69.75313 231.23924 69.75313 230.6455Q69.75313 230.0205 69.3 229.59862Q68.84688 229.16112 68.12813 229.16112Q67.3625 229.16112 66.90938 229.61424Q66.45625 230.06737 66.44063 230.87987L65.3625 230.7705Q65.47188 229.55174 66.19063 228.92674Q66.925 228.28612 68.15938 228.28612Q69.39375 228.28612 70.1125 228.97362Q70.83125 229.66112 70.83125 230.67674Q70.83125 231.19237 70.6125 231.69237Q70.40938 232.17674 69.90938 232.73924Q69.425 233.28612 68.3 234.23924Q67.34688 235.03612 67.06563 235.333Q66.8 235.61424 66.62813 235.8955L70.84688 235.8955ZM72.3 234.66112L73.40938 234.56737Q73.53438 235.37987 73.97188 235.78612Q74.425 236.19237 75.06563 236.19237Q75.81563 236.19237 76.34688 235.61424Q76.87813 235.03612 76.87813 234.09862Q76.87813 233.19237 76.3625 232.67674Q75.8625 232.1455 75.03438 232.1455Q74.53438 232.1455 74.1125 232.37987Q73.70625 232.61424 73.47188 232.97362L72.4875 232.84862L73.31563 228.44237L77.59688 228.44237L77.59688 229.44237L74.15938 229.44237L73.70625 231.75487Q74.47188 231.208 75.31563 231.208Q76.44063 231.208 77.20625 231.98924Q77.9875 232.7705 77.9875 234.00487Q77.9875 235.16112 77.31563 236.0205Q76.4875 237.05174 75.06563 237.05174Q73.89375 237.05174 73.14375 236.3955Q72.40938 235.73924 72.3 234.66112Z" fill-rule="nonzero"/><path fill="#000000" d="M55.3 147.38785Q55.3 145.8566 55.6125 144.93472Q55.925 143.99722 56.534374 143.49722Q57.159374 142.99722 58.096874 142.99722Q58.784374 142.99722 59.3 143.27847Q59.83125 143.55972 60.175 144.09097Q60.51875 144.6066 60.70625 145.3566Q60.89375 146.1066 60.89375 147.38785Q60.89375 148.90347 60.58125 149.82535Q60.284374 150.74722 59.659374 151.26285Q59.05 151.76285 58.096874 151.76285Q56.8625 151.76285 56.14375 150.87222Q55.3 149.80972 55.3 147.38785ZM56.378124 147.38785Q56.378124 149.49722 56.878124 150.20035Q57.378124 150.90347 58.096874 150.90347Q58.83125 150.90347 59.315624 150.20035Q59.815624 149.49722 59.815624 147.38785Q59.815624 145.26285 59.315624 144.57535Q58.83125 143.87222 58.08125 143.87222Q57.3625 143.87222 56.925 144.4816Q56.378124 145.26285 56.378124 147.38785ZM62.89375 151.62222L62.89375 150.4191L64.09688 150.4191L64.09688 151.62222L62.89375 151.62222ZM65.3625 144.15347L65.3625 143.13785L70.925 143.13785L70.925 143.96597Q70.1125 144.84097 69.3 146.2941Q68.50313 147.7316 68.06563 149.26285Q67.7375 150.34097 67.65938 151.62222L66.56563 151.62222Q66.58125 150.6066 66.95625 149.1691Q67.34688 147.7316 68.05 146.40347Q68.76875 145.07535 69.58125 144.15347L65.3625 144.15347ZM72.3 149.37222L73.40938 149.27847Q73.53438 150.09097 73.97188 150.49722Q74.425 150.90347 75.06563 150.90347Q75.81563 150.90347 76.34688 150.32535Q76.87813 149.74722 76.87813 148.80972Q76.87813 147.90347 76.3625 147.38785Q75.8625 146.8566 75.03438 146.8566Q74.53438 146.8566 74.1125 147.09097Q73.70625 147.32535 73.47188 147.68472L72.4875 147.55972L73.31563 143.15347L77.59688 143.15347L77.59688 144.15347L74.15938 144.15347L73.70625 146.46597Q74.47188 145.9191 75.31563 145.9191Q76.44063 145.9191 77.20625 146.70035Q77.9875 147.4816 77.9875 148.71597Q77.9875 149.87222 77.31563 150.7316Q76.4875 151.76285 75.06563 151.76285Q73.89375 151.76285 73.14375 151.1066Q72.40938 150.45035 72.3 149.37222Z" fill-rule="nonzero"/><path fill="#000000" d="M59.26875 66.333336L58.221874 66.333336L58.221874 59.614586Q57.83125 59.97396 57.20625 60.34896Q56.596874 60.708336 56.1125 60.88021L56.1125 59.864586Q56.9875 59.44271 57.64375 58.864586Q58.315624 58.270836 58.596874 57.708336L59.26875 57.708336L59.26875 66.333336ZM62.89375 66.333336L62.89375 65.13021L64.09688 65.13021L64.09688 66.333336L62.89375 66.333336ZM70.84688 65.31771L70.84688 66.333336L65.15938 66.333336Q65.15938 65.958336 65.28438 65.59896Q65.50313 65.020836 65.97188 64.458336Q66.45625 63.895836 67.3625 63.16146Q68.76875 62.00521 69.25313 61.333336Q69.75313 60.66146 69.75313 60.06771Q69.75313 59.44271 69.3 59.020836Q68.84688 58.583336 68.12813 58.583336Q67.3625 58.583336 66.90938 59.03646Q66.45625 59.489586 66.44063 60.302086L65.3625 60.19271Q65.47188 58.97396 66.19063 58.34896Q66.925 57.708336 68.15938 57.708336Q69.39375 57.708336 70.1125 58.395836Q70.83125 59.083336 70.83125 60.09896Q70.83125 60.614586 70.6125 61.114586Q70.40938 61.59896 69.90938 62.16146Q69.425 62.708336 68.3 63.66146Q67.34688 64.458336 67.06563 64.75521Q66.8 65.03646 66.62813 65.31771L70.84688 65.31771ZM72.3 64.083336L73.40938 63.989586Q73.53438 64.802086 73.97188 65.208336Q74.425 65.614586 75.06563 65.614586Q75.81563 65.614586 76.34688 65.03646Q76.87813 64.458336 76.87813 63.520836Q76.87813 62.614586 76.3625 62.09896Q75.8625 61.56771 75.03438 61.56771Q74.53438 61.56771 74.1125 61.802086Q73.70625 62.03646 73.47188 62.395836L72.4875 62.270836L73.31563 57.864586L77.59688 57.864586L77.59688 58.864586L74.15938 58.864586L73.70625 61.177086Q74.47188 60.63021 75.31563 60.63021Q76.44063 60.63021 77.20625 61.41146Q77.9875 62.19271 77.9875 63.427086Q77.9875 64.583336 77.31563 65.44271Q76.4875 66.47396 75.06563 66.47396Q73.89375 66.47396 73.14375 65.81771Q72.40938 65.16146 72.3 64.083336Z" fill-rule="nonzero"/><path fill="#757575" d="M20.378124 37.8L20.378124 23.4875L30.7375 23.4875L30.7375 25.175L22.284374 25.175L22.284374 29.55L30.190624 29.55L30.190624 31.2375L22.284374 31.2375L22.284374 36.1125L31.065624 36.1125L31.065624 37.8L20.378124 37.8ZM39.89375 36.51875Q38.909374 37.346874 38.003124 37.690624Q37.096874 38.034374 36.065624 38.034374Q34.3625 38.034374 33.440624 37.20625Q32.51875 36.3625 32.51875 35.065624Q32.51875 34.3 32.8625 33.675Q33.221874 33.05 33.784374 32.675Q34.346874 32.284374 35.05 32.08125Q35.565624 31.95625 36.6125 31.815624Q38.7375 31.565624 39.7375 31.221874Q39.753124 30.8625 39.753124 30.753124Q39.753124 29.690624 39.253124 29.2375Q38.58125 28.64375 37.253124 28.64375Q36.003124 28.64375 35.409374 29.08125Q34.83125 29.51875 34.55 30.628124L32.83125 30.39375Q33.065624 29.284374 33.596874 28.6125Q34.128124 27.925 35.14375 27.565624Q36.159374 27.190624 37.503124 27.190624Q38.83125 27.190624 39.659374 27.503124Q40.4875 27.815624 40.878124 28.3Q41.26875 28.76875 41.425 29.4875Q41.51875 29.940624 41.51875 31.1125L41.51875 33.45625Q41.51875 35.909374 41.628124 36.565624Q41.7375 37.20625 42.08125 37.8L40.2375 37.8Q39.971874 37.253124 39.89375 36.51875ZM39.7375 32.596874Q38.784374 32.9875 36.8625 33.253124Q35.784374 33.409374 35.33125 33.6125Q34.89375 33.8 34.64375 34.175Q34.39375 34.55 34.39375 35.01875Q34.39375 35.721874 34.925 36.190624Q35.45625 36.659374 36.4875 36.659374Q37.503124 36.659374 38.284374 36.221874Q39.08125 35.76875 39.45625 35.003124Q39.7375 34.39375 39.7375 33.2375L39.7375 32.596874ZM43.409374 34.70625L45.159374 34.425Q45.3 35.471874 45.971874 36.034374Q46.64375 36.58125 47.846874 36.58125Q49.05 36.58125 49.628124 36.096874Q50.221874 35.596874 50.221874 34.940624Q50.221874 34.346874 49.70625 34.003124Q49.346874 33.76875 47.909374 33.409374Q45.971874 32.909374 45.221874 32.565624Q44.4875 32.20625 44.096874 31.58125Q43.70625 30.940624 43.70625 30.175Q43.70625 29.4875 44.01875 28.89375Q44.346874 28.3 44.89375 27.909374Q45.3 27.6125 46.003124 27.409374Q46.721874 27.190624 47.534374 27.190624Q48.753124 27.190624 49.675 27.55Q50.596874 27.89375 51.034374 28.503124Q51.471874 29.096874 51.64375 30.096874L49.925 30.33125Q49.8 29.534374 49.2375 29.096874Q48.675 28.64375 47.659374 28.64375Q46.440624 28.64375 45.925 29.05Q45.409374 29.440624 45.409374 29.971874Q45.409374 30.315624 45.628124 30.596874Q45.83125 30.878124 46.3 31.065624Q46.565624 31.159374 47.846874 31.503124Q49.721874 32.003124 50.45625 32.33125Q51.190624 32.64375 51.6125 33.253124Q52.034374 33.846874 52.034374 34.753124Q52.034374 35.628124 51.51875 36.409374Q51.003124 37.190624 50.034374 37.6125Q49.065624 38.034374 47.846874 38.034374Q45.83125 38.034374 44.76875 37.190624Q43.70625 36.346874 43.409374 34.70625ZM61.221874 34.45625L63.034374 34.690624Q62.6125 36.26875 61.440624 37.159374Q60.284374 38.034374 58.471874 38.034374Q56.20625 38.034374 54.8625 36.64375Q53.534374 35.2375 53.534374 32.70625Q53.534374 30.08125 54.878124 28.64375Q56.221874 27.190624 58.378124 27.190624Q60.45625 27.190624 61.76875 28.6125Q63.096874 30.01875 63.096874 32.596874Q63.096874 32.753124 63.08125 33.065624L55.346874 33.065624Q55.440624 34.76875 56.315624 35.675Q57.190624 36.58125 58.4875 36.58125Q59.45625 36.58125 60.128124 36.08125Q60.815624 35.565624 61.221874 34.45625ZM55.440624 31.6125L61.2375 31.6125Q61.128124 30.315624 60.58125 29.659374Q59.7375 28.64375 58.39375 28.64375Q57.190624 28.64375 56.3625 29.45625Q55.534374 30.253124 55.440624 31.6125ZM65.65938 37.8L65.65938 23.4875L67.56563 23.4875L67.56563 37.8L65.65938 37.8ZM71.1125 37.8L71.1125 27.425L72.70625 27.425L72.70625 28.909374Q73.84688 27.190624 76.00313 27.190624Q76.94063 27.190624 77.72188 27.534374Q78.51875 27.8625 78.90938 28.409374Q79.3 28.95625 79.45625 29.70625Q79.55 30.20625 79.55 31.425L79.55 37.8L77.78438 37.8L77.78438 31.4875Q77.78438 30.409374 77.58125 29.878124Q77.37813 29.346874 76.84688 29.034374Q76.33125 28.721874 75.62813 28.721874Q74.50313 28.721874 73.69063 29.440624Q72.87813 30.14375 72.87813 32.128124L72.87813 37.8L71.1125 37.8ZM80.76875 30.83125Q80.76875 27.26875 82.675 25.253124Q84.59688 23.221874 87.62813 23.221874Q89.6125 23.221874 91.19063 24.175Q92.78438 25.128124 93.6125 26.83125Q94.45625 28.51875 94.45625 30.659374Q94.45625 32.83125 93.58125 34.55Q92.70625 36.26875 91.08125 37.159374Q89.47188 38.05 87.6125 38.05Q85.59688 38.05 84.00313 37.08125Q82.40938 36.096874 81.58125 34.409374Q80.76875 32.70625 80.76875 30.83125ZM82.72188 30.8625Q82.72188 33.440624 84.1125 34.940624Q85.50313 36.425 87.59688 36.425Q89.7375 36.425 91.1125 34.925Q92.50313 33.409374 92.50313 30.64375Q92.50313 28.909374 91.90938 27.6125Q91.33125 26.3 90.19063 25.58125Q89.05 24.8625 87.62813 24.8625Q85.62813 24.8625 84.175 26.253124Q82.72188 27.628124 82.72188 30.8625ZM103.90938 37.8L103.90938 36.26875Q102.70625 38.034374 100.62813 38.034374Q99.70625 38.034374 98.90938 37.690624Q98.1125 37.33125 97.72188 36.8Q97.34688 36.26875 97.19063 35.4875Q97.08125 34.971874 97.08125 33.846874L97.08125 27.425L98.83125 27.425L98.83125 33.175Q98.83125 34.55 98.94063 35.034374Q99.1125 35.721874 99.64375 36.128124Q100.19063 36.51875 100.97188 36.51875Q101.76875 36.51875 102.45625 36.1125Q103.15938 35.70625 103.44063 35.01875Q103.7375 34.315624 103.7375 32.9875L103.7375 27.425L105.4875 27.425L105.4875 37.8L103.90938 37.8ZM110.95625 36.221874L111.20625 37.784374Q110.47188 37.940624 109.87813 37.940624Q108.925 37.940624 108.39375 37.64375Q107.87813 37.33125 107.65938 36.846874Q107.44063 36.346874 107.44063 34.76875L107.44063 28.8L106.15938 28.8L106.15938 27.425L107.44063 27.425L107.44063 24.8625L109.19063 23.8L109.19063 27.425L110.95625 27.425L110.95625 28.8L109.19063 28.8L109.19063 34.8625Q109.19063 35.6125 109.28438 35.83125Q109.37813 36.034374 109.58125 36.175Q109.8 36.3 110.19063 36.3Q110.47188 36.3 110.95625 36.221874ZM113.37813 37.8L113.37813 23.4875L123.7375 23.4875L123.7375 25.175L115.28438 25.175L115.28438 29.55L123.19063 29.55L123.19063 31.2375L115.28438 31.2375L115.28438 36.1125L124.06563 36.1125L124.06563 37.8L113.37813 37.8ZM126.08125 37.8L126.08125 23.4875L127.83125 23.4875L127.83125 37.8L126.08125 37.8ZM136.89375 36.51875Q135.90938 37.346874 135.00313 37.690624Q134.09688 38.034374 133.06563 38.034374Q131.3625 38.034374 130.44063 37.20625Q129.51875 36.3625 129.51875 35.065624Q129.51875 34.3 129.8625 33.675Q130.22188 33.05 130.78438 32.675Q131.34688 32.284374 132.05 32.08125Q132.56563 31.95625 133.6125 31.815624Q135.7375 31.565624 136.7375 31.221874Q136.75313 30.8625 136.75313 30.753124Q136.75313 29.690624 136.25313 29.2375Q135.58125 28.64375 134.25313 28.64375Q133.00313 28.64375 132.40938 29.08125Q131.83125 29.51875 131.55 30.628124L129.83125 30.39375Q130.06563 29.284374 130.59688 28.6125Q131.12813 27.925 132.14375 27.565624Q133.15938 27.190624 134.50313 27.190624Q135.83125 27.190624 136.65938 27.503124Q137.4875 27.815624 137.87813 28.3Q138.26875 28.76875 138.425 29.4875Q138.51875 29.940624 138.51875 31.1125L138.51875 33.45625Q138.51875 35.909374 138.62813 36.565624Q138.7375 37.20625 139.08125 37.8L137.2375 37.8Q136.97188 37.253124 136.89375 36.51875ZM136.7375 32.596874Q135.78438 32.9875 133.8625 33.253124Q132.78438 33.409374 132.33125 33.6125Q131.89375 33.8 131.64375 34.175Q131.39375 34.55 131.39375 35.01875Q131.39375 35.721874 131.925 36.190624Q132.45625 36.659374 133.4875 36.659374Q134.50313 36.659374 135.28438 36.221874Q136.08125 35.76875 136.45625 35.003124Q136.7375 34.39375 136.7375 33.2375L136.7375 32.596874ZM140.40938 34.70625L142.15938 34.425Q142.3 35.471874 142.97188 36.034374Q143.64375 36.58125 144.84688 36.58125Q146.05 36.58125 146.62813 36.096874Q147.22188 35.596874 147.22188 34.940624Q147.22188 34.346874 146.70625 34.003124Q146.34688 33.76875 144.90938 33.409374Q142.97188 32.909374 142.22188 32.565624Q141.4875 32.20625 141.09688 31.58125Q140.70625 30.940624 140.70625 30.175Q140.70625 29.4875 141.01875 28.89375Q141.34688 28.3 141.89375 27.909374Q142.3 27.6125 143.00313 27.409374Q143.72188 27.190624 144.53438 27.190624Q145.75313 27.190624 146.675 27.55Q147.59688 27.89375 148.03438 28.503124Q148.47188 29.096874 148.64375 30.096874L146.925 30.33125Q146.8 29.534374 146.2375 29.096874Q145.675 28.64375 144.65938 28.64375Q143.44063 28.64375 142.925 29.05Q142.40938 29.440624 142.40938 29.971874Q142.40938 30.315624 142.62813 30.596874Q142.83125 30.878124 143.3 31.065624Q143.56563 31.159374 144.84688 31.503124Q146.72188 32.003124 147.45625 32.33125Q148.19063 32.64375 148.6125 33.253124Q149.03438 33.846874 149.03438 34.753124Q149.03438 35.628124 148.51875 36.409374Q148.00313 37.190624 147.03438 37.6125Q146.06563 38.034374 144.84688 38.034374Q142.83125 38.034374 141.76875 37.190624Q140.70625 36.346874 140.40938 34.70625ZM154.95625 36.221874L155.20625 37.784374Q154.47188 37.940624 153.87813 37.940624Q152.925 37.940624 152.39375 37.64375Q151.87813 37.33125 151.65938 36.846874Q151.44063 36.346874 151.44063 34.76875L151.44063 28.8L150.15938 28.8L150.15938 27.425L151.44063 27.425L151.44063 24.8625L153.19063 23.8L153.19063 27.425L154.95625 27.425L154.95625 28.8L153.19063 28.8L153.19063 34.8625Q153.19063 35.6125 153.28438 35.83125Q153.37813 36.034374 153.58125 36.175Q153.8 36.3 154.19063 36.3Q154.47188 36.3 154.95625 36.221874ZM157.12813 25.503124L157.12813 23.4875L158.89375 23.4875L158.89375 25.503124L157.12813 25.503124ZM157.12813 37.8L157.12813 27.425L158.89375 27.425L158.89375 37.8L157.12813 37.8ZM167.89375 34.003124L169.6125 34.221874Q169.33125 36.01875 168.15938 37.034374Q167.00313 38.034374 165.3 38.034374Q163.175 38.034374 161.87813 36.64375Q160.58125 35.253124 160.58125 32.659374Q160.58125 30.971874 161.12813 29.721874Q161.69063 28.45625 162.83125 27.83125Q163.97188 27.190624 165.31563 27.190624Q167.00313 27.190624 168.06563 28.05Q169.14375 28.909374 169.45625 30.471874L167.7375 30.7375Q167.50313 29.690624 166.87813 29.175Q166.25313 28.64375 165.37813 28.64375Q164.05 28.64375 163.22188 29.596874Q162.39375 30.55 162.39375 32.596874Q162.39375 34.690624 163.19063 35.64375Q163.9875 36.58125 165.28438 36.58125Q166.31563 36.58125 167.00313 35.95625Q167.70625 35.315624 167.89375 34.003124Z" fill-rule="nonzero"/></svg>