<svg version="1.1" viewBox="0.0 0.0 608.0 376.0" fill="none" stroke="none" stroke-linecap="square" stroke-miterlimit="10" width="608" height="376" xmlns:xlink="http://www.w3.org/1999/xlink" xmlns="http://www.w3.org/2000/svg"><path fill="#ffffff" d="M0 0L608.0 0L608.0 376.0L0 376.0L0 0Z" fill-rule="nonzero"/><path stroke="#333333" stroke-width="1.0" stroke-linecap="butt" d="M80.5 318.5L589.5 318.5" fill-rule="nonzero"/><path stroke="#cccccc" stroke-width="1.0" stroke-linecap="butt" d="M80.5 267.5L589.5 267.5" fill-rule="nonzero"/><path stroke="#cccccc" stroke-width="1.0" stroke-linecap="butt" d="M80.5 215.5L589.5 215.5" fill-rule="nonzero"/><path stroke="#cccccc" stroke-width="1.0" stroke-linecap="butt" d="M80.5 164.5L589.5 164.5" fill-rule="nonzero"/><path stroke="#cccccc" stroke-width="1.0" stroke-linecap="butt" d="M80.5 113.5L589.5 113.5" fill-rule="nonzero"/><path stroke="#cccccc" stroke-width="1.0" stroke-linecap="butt" d="M80.5 62.5L589.5 62.5" fill-rule="nonzero"/><path stroke="#000000" stroke-width="1.0" stroke-linecap="butt" d="M80.5 318.5L80.5 62.5" fill-rule="nonzero"/><clipPath id="id_0"><path d="M80.8 62.333332L589.2 62.333332L589.2 318.2L80.8 318.2L80.8 62.333332Z" clip-rule="nonzero"/></clipPath><path stroke="#4285f4" stroke-width="2.0" stroke-linecap="butt" clip-path="url(#id_0)" d="M83.31683 318.2C83.31683 318.2 86.67261 311.828 88.350494 308.7067C90.02838 305.5854 91.70627 302.50778 93.384155 299.4722C95.06205 296.4366 96.73994 293.44418 98.41782 290.49323C100.09571 287.54227 101.7736 284.63388 103.451485 281.76642C105.12937 278.89896 106.80726 276.07355 108.485146 273.28848C110.16303 270.50342 111.84093 267.75986 113.518814 265.0561C115.1967 262.35233 116.87459 259.68948 118.552475 257.06592C120.23036 254.44237 121.90825 251.85916 123.586136 249.31468C125.26402 246.77019 126.94192 244.26553 128.6198 241.79903C130.29768 239.33252 131.97557 236.90527 133.65347 234.51564C135.33136 232.126 137.00925 229.77509 138.68713 227.46121C140.36502 225.14734 142.04291 222.87163 143.7208 220.63243C145.39868 218.39322 147.07657 216.19162 148.75446 214.02596C150.43234 211.8603 152.11023 209.7317 153.78812 207.6385C155.466 205.54529 157.14389 203.48859 158.82178 201.46672C160.49966 199.44485 162.17755 197.45894 163.85544 195.50731C165.53334 193.55568 167.21123 191.63945 168.88911 189.75696C170.567 187.87445 172.24489 186.0268 173.92278 184.21233C175.60066 182.39784 177.27855 180.61766 178.95644 178.8701C180.63432 177.12256 182.31221 175.40874 183.9901 173.72699C185.66798 172.04524 187.34587 170.39668 189.02376 168.77965C190.70164 167.16261 192.37953 165.5782 194.05742 164.02477C195.73532 162.47133 197.41321 160.94997 199.0911 159.45901C200.76898 157.96808 202.44687 156.50865 204.12476 155.0791C205.80264 153.64955 207.48053 152.25096 209.15842 150.88168C210.8363 149.51242 212.51419 148.17355 214.19208 146.86346C215.86996 145.55336 217.54785 144.27313 219.22574 143.0211C220.90363 141.76907 222.58151 140.54636 224.2594 139.3513C225.93729 138.15623 227.61519 136.98993 229.29308 135.85072C230.97096 134.71152 232.64885 133.60052 234.32674 132.51607C236.00462 131.43163 237.68251 130.37482 239.3604 129.34401C241.03828 128.31322 242.71617 127.3095 244.39406 126.33124C246.07195 125.352974 247.74983 124.40125 249.42772 123.47442C251.1056 122.54759 252.7835 121.64675 254.46138 120.77025C256.13928 119.893745 257.81717 119.04269 259.49506 118.2154C261.17294 117.38812 262.85083 116.58573 264.52872 115.806564C266.2066 115.0274 267.8845 114.27257 269.56238 113.54041C271.24026 112.80826 272.91815 112.099884 274.59604 111.413635C276.27393 110.72739 277.9518 110.06437 279.6297 109.42291C281.3076 108.78146 282.98547 108.16269 284.66336 107.564926C286.34125 106.96717 288.01913 106.39153 289.69702 105.83636C291.3749 105.28118 293.0528 104.74758 294.73068 104.23389C296.40857 103.72019 298.08646 103.227516 299.76434 102.7542C301.44223 102.28088 303.12012 101.828026 304.79803 101.393974C306.47592 100.95992 308.1538 100.545784 309.8317 100.1499C311.50958 99.75401 313.18747 99.37748 314.86536 99.01865C316.54324 98.65982 318.22113 98.31979 319.89902 97.99691C321.5769 97.67403 323.2548 97.3694 324.93268 97.08136C326.61057 96.79333 328.28845 96.52299 329.96634 96.26869C331.64423 96.01439 333.3221 95.77724 335.0 95.55557C336.6779 95.33391 338.35577 95.12884 340.03366 94.9387C341.71155 94.74856 343.38943 94.574455 345.06732 94.414734C346.7452 94.25502 348.4231 94.11079 350.10098 93.98038C351.77887 93.849976 353.45676 93.734505 355.13464 93.63231C356.81253 93.53011 358.49042 93.4423 360.1683 93.3672C361.8462 93.29211 363.52408 93.23084 365.20197 93.18175C366.87988 93.132645 368.55777 93.096825 370.23566 93.07262C371.91354 93.04841 373.59143 93.03693 375.26932 93.03651C376.9472 93.03608 378.6251 93.04783 380.30298 93.07008C381.98087 93.09234 383.65875 93.12621 385.33664 93.17004C387.01453 93.21387 388.6924 93.26876 390.3703 93.33305C392.0482 93.39735 393.72607 93.47215 395.40396 93.55581C397.08185 93.639465 398.75974 93.73308 400.43762 93.83499C402.1155 93.9369 403.7934 94.04821 405.47128 94.167274C407.14917 94.28633 408.82706 94.41424 410.50494 94.54934C412.18283 94.68444 413.86072 94.82784 415.5386 94.977875C417.2165 95.127914 418.89438 95.2857 420.57227 95.44957C422.25015 95.613434 423.92804 95.78449 425.60593 95.96109C427.2838 96.13768 428.96173 96.320915 430.63962 96.509125C432.3175 96.697334 433.9954 96.89163 435.67328 97.090355C437.35117 97.28908 439.02905 97.49334 440.70694 97.70147C442.38483 97.9096 444.0627 98.12271 445.7406 98.33914C447.4185 98.55557 449.09637 98.77643 450.77426 99.00005C452.45215 99.22368 454.13004 99.45118 455.80792 99.68089C457.4858 99.91061 459.1637 100.14365 460.84158 100.37834C462.51947 100.61304 464.19736 100.8505 465.87524 101.08907C467.55313 101.32765 469.23102 101.568436 470.9089 101.809784C472.5868 102.051125 474.26468 102.29413 475.94257 102.53714C477.62045 102.78015 479.29834 103.02427 480.97623 103.26784C482.6541 103.511406 484.332 103.75552 486.0099 103.99855C487.68777 104.24157 489.36566 104.48459 491.04358 104.72596C492.72147 104.96732 494.39935 105.20814 496.07724 105.44675C497.75513 105.685356 499.433 105.92286 501.1109 106.1576C502.7888 106.39234 504.46667 106.625435 506.14456 106.8552C507.82245 107.08498 509.50034 107.31254 511.17822 107.53623C512.8561 107.759926 514.534 107.98086 516.21185 108.197365C517.8898 108.41388 519.5676 108.62707 521.24554 108.83529C522.92346 109.04351 524.6013 109.24786 526.27924 109.44669C527.9571 109.645515 529.635 109.83992 531.31287 110.02825C532.9908 110.216576 534.66864 110.399925 536.34656 110.576645C538.0244 110.75336 539.70233 110.92455 541.3802 111.088554C543.0581 111.252556 544.73596 111.410484 546.4139 111.56067C548.09174 111.71085 549.76965 111.8544 551.4475 111.98966C553.1254 112.12492 554.8033 112.253 556.4812 112.37222C558.15906 112.491455 559.837 112.60294 561.51483 112.70503C563.19275 112.80713 564.8706 112.900925 566.5485 112.98477C568.2264 113.06863 569.9043 113.14362 571.58215 113.20812C573.2601 113.27262 574.9379 113.32773 576.61584 113.37177C578.2937 113.41582 579.9716 113.449905 581.6495 113.47239C583.3274 113.49487 586.68317 113.50667 586.68317 113.50667" fill-rule="nonzero"/><path fill="#000000" fill-opacity="0.0" clip-path="url(#id_0)" d="M86.31683 318.2C86.31683 319.85684 84.97369 321.2 83.31683 321.2C81.65998 321.2 80.31683 319.85684 80.31683 318.2C80.31683 316.54315 81.65998 315.2 83.31683 315.2C84.97369 315.2 86.31683 316.54315 86.31683 318.2Z" fill-rule="nonzero"/><path fill="#000000" fill-opacity="0.0" clip-path="url(#id_0)" d="M91.350494 308.7067C91.350494 310.36356 90.00735 311.7067 88.350494 311.7067C86.69364 311.7067 85.350494 310.36356 85.350494 308.7067C85.350494 307.04984 86.69364 305.7067 88.350494 305.7067C90.00735 305.7067 91.350494 307.04984 91.350494 308.7067Z" fill-rule="nonzero"/><path fill="#000000" fill-opacity="0.0" clip-path="url(#id_0)" d="M96.384155 299.4722C96.384155 301.12906 95.041016 302.4722 93.384155 302.4722C91.7273 302.4722 90.384155 301.12906 90.384155 299.4722C90.384155 297.81537 91.7273 296.4722 93.384155 296.4722C95.041016 296.4722 96.384155 297.81537 96.384155 299.4722Z" fill-rule="nonzero"/><path fill="#000000" fill-opacity="0.0" clip-path="url(#id_0)" d="M101.41782 290.49323C101.41782 292.1501 100.07468 293.49323 98.41782 293.49323C96.76097 293.49323 95.41782 292.1501 95.41782 290.49323C95.41782 288.83636 96.76097 287.49323 98.41782 287.49323C100.07468 287.49323 101.41782 288.83636 101.41782 290.49323Z" fill-rule="nonzero"/><path fill="#000000" fill-opacity="0.0" clip-path="url(#id_0)" d="M106.451485 281.76642C106.451485 283.42328 105.10834 284.76642 103.451485 284.76642C101.79463 284.76642 100.451485 283.42328 100.451485 281.76642C100.451485 280.10956 101.79463 278.76642 103.451485 278.76642C105.10834 278.76642 106.451485 280.10956 106.451485 281.76642Z" fill-rule="nonzero"/><path fill="#000000" fill-opacity="0.0" clip-path="url(#id_0)" d="M111.485146 273.28848C111.485146 274.94534 110.142006 276.28848 108.485146 276.28848C106.82829 276.28848 105.485146 274.94534 105.485146 273.28848C105.485146 271.63162 106.82829 270.28848 108.485146 270.28848C110.142006 270.28848 111.485146 271.63162 111.485146 273.28848Z" fill-rule="nonzero"/><path fill="#000000" fill-opacity="0.0" clip-path="url(#id_0)" d="M116.518814 265.0561C116.518814 266.71295 115.17567 268.0561 113.518814 268.0561C111.86196 268.0561 110.518814 266.71295 110.518814 265.0561C110.518814 263.39923 111.86196 262.0561 113.518814 262.0561C115.17567 262.0561 116.518814 263.39923 116.518814 265.0561Z" fill-rule="nonzero"/><path fill="#000000" fill-opacity="0.0" clip-path="url(#id_0)" d="M121.552475 257.06592C121.552475 258.72278 120.20933 260.06592 118.552475 260.06592C116.89562 260.06592 115.552475 258.72278 115.552475 257.06592C115.552475 255.40907 116.89562 254.06593 118.552475 254.06593C120.20933 254.06593 121.552475 255.40907 121.552475 257.06592Z" fill-rule="nonzero"/><path fill="#000000" fill-opacity="0.0" clip-path="url(#id_0)" d="M126.586136 249.31468C126.586136 250.97153 125.243 252.31468 123.586136 252.31468C121.92928 252.31468 120.586136 250.97153 120.586136 249.31468C120.586136 247.65782 121.92928 246.31468 123.586136 246.31468C125.243 246.31468 126.586136 247.65782 126.586136 249.31468Z" fill-rule="nonzero"/><path fill="#000000" fill-opacity="0.0" clip-path="url(#id_0)" d="M131.6198 241.79903C131.6198 243.45587 130.27666 244.79903 128.6198 244.79903C126.962944 244.79903 125.619804 243.45587 125.619804 241.79903C125.619804 240.14217 126.962944 238.79903 128.6198 238.79903C130.27666 238.79903 131.6198 240.14217 131.6198 241.79903Z" fill-rule="nonzero"/><path fill="#000000" fill-opacity="0.0" clip-path="url(#id_0)" d="M136.65347 234.51564C136.65347 236.17249 135.31032 237.51564 133.65347 237.51564C131.99661 237.51564 130.65347 236.17249 130.65347 234.51564C130.65347 232.85878 131.99661 231.51564 133.65347 231.51564C135.31032 231.51564 136.65347 232.85878 136.65347 234.51564Z" fill-rule="nonzero"/><path fill="#000000" fill-opacity="0.0" clip-path="url(#id_0)" d="M141.68713 227.46121C141.68713 229.11807 140.34398 230.46121 138.68713 230.46121C137.03027 230.46121 135.68713 229.11807 135.68713 227.46121C135.68713 225.80435 137.03027 224.46121 138.68713 224.46121C140.34398 224.46121 141.68713 225.80435 141.68713 227.46121Z" fill-rule="nonzero"/><path fill="#000000" fill-opacity="0.0" clip-path="url(#id_0)" d="M146.7208 220.63243C146.7208 222.28928 145.37764 223.63243 143.7208 223.63243C142.06393 223.63243 140.7208 222.28928 140.7208 220.63243C140.7208 218.97557 142.06393 217.63243 143.7208 217.63243C145.37764 217.63243 146.7208 218.97557 146.7208 220.63243Z" fill-rule="nonzero"/><path fill="#000000" fill-opacity="0.0" clip-path="url(#id_0)" d="M151.75446 214.02596C151.75446 215.68282 150.41132 217.02596 148.75446 217.02596C147.0976 217.02596 145.75446 215.68282 145.75446 214.02596C145.75446 212.36911 147.0976 211.02596 148.75446 211.02596C150.41132 211.02596 151.75446 212.36911 151.75446 214.02596Z" fill-rule="nonzero"/><path fill="#000000" fill-opacity="0.0" clip-path="url(#id_0)" d="M156.78812 207.6385C156.78812 209.29535 155.44498 210.6385 153.78812 210.6385C152.13127 210.6385 150.78812 209.29535 150.78812 207.6385C150.78812 205.98164 152.13127 204.6385 153.78812 204.6385C155.44498 204.6385 156.78812 205.98164 156.78812 207.6385Z" fill-rule="nonzero"/><path fill="#000000" fill-opacity="0.0" clip-path="url(#id_0)" d="M161.82178 201.46672C161.82178 203.12358 160.47864 204.46672 158.82178 204.46672C157.16493 204.46672 155.82178 203.12358 155.82178 201.46672C155.82178 199.80986 157.16493 198.46672 158.82178 198.46672C160.47864 198.46672 161.82178 199.80986 161.82178 201.46672Z" fill-rule="nonzero"/><path fill="#000000" fill-opacity="0.0" clip-path="url(#id_0)" d="M166.85544 195.50731C166.85544 197.16417 165.5123 198.50731 163.85544 198.50731C162.1986 198.50731 160.85544 197.16417 160.85544 195.50731C160.85544 193.85046 162.1986 192.50731 163.85544 192.50731C165.5123 192.50731 166.85544 193.85046 166.85544 195.50731Z" fill-rule="nonzero"/><path fill="#000000" fill-opacity="0.0" clip-path="url(#id_0)" d="M171.88911 189.75696C171.88911 191.4138 170.54596 192.75696 168.88911 192.75696C167.23225 192.75696 165.88911 191.4138 165.88911 189.75696C165.88911 188.1001 167.23225 186.75696 168.88911 186.75696C170.54596 186.75696 171.88911 188.1001 171.88911 189.75696Z" fill-rule="nonzero"/><path fill="#000000" fill-opacity="0.0" clip-path="url(#id_0)" d="M176.92278 184.21233C176.92278 185.86917 175.57962 187.21233 173.92278 187.21233C172.26591 187.21233 170.92278 185.86917 170.92278 184.21233C170.92278 182.55547 172.26591 181.21233 173.92278 181.21233C175.57962 181.21233 176.92278 182.55547 176.92278 184.21233Z" fill-rule="nonzero"/><path fill="#000000" fill-opacity="0.0" clip-path="url(#id_0)" d="M181.95644 178.8701C181.95644 180.52696 180.6133 181.8701 178.95644 181.8701C177.29958 181.8701 175.95644 180.52696 175.95644 178.8701C175.95644 177.21326 177.29958 175.8701 178.95644 175.8701C180.6133 175.8701 181.95644 177.21326 181.95644 178.8701Z" fill-rule="nonzero"/><path fill="#000000" fill-opacity="0.0" clip-path="url(#id_0)" d="M186.9901 173.72699C186.9901 175.38383 185.64696 176.72699 183.9901 176.72699C182.33325 176.72699 180.9901 175.38383 180.9901 173.72699C180.9901 172.07013 182.33325 170.72699 183.9901 170.72699C185.64696 170.72699 186.9901 172.07013 186.9901 173.72699Z" fill-rule="nonzero"/><path fill="#000000" fill-opacity="0.0" clip-path="url(#id_0)" d="M192.02376 168.77965C192.02376 170.4365 190.68062 171.77965 189.02376 171.77965C187.36691 171.77965 186.02376 170.4365 186.02376 168.77965C186.02376 167.12279 187.36691 165.77965 189.02376 165.77965C190.68062 165.77965 192.02376 167.12279 192.02376 168.77965Z" fill-rule="nonzero"/><path fill="#000000" fill-opacity="0.0" clip-path="url(#id_0)" d="M197.05742 164.02477C197.05742 165.68161 195.71428 167.02477 194.05742 167.02477C192.40057 167.02477 191.05742 165.68161 191.05742 164.02477C191.05742 162.3679 192.40057 161.02477 194.05742 161.02477C195.71428 161.02477 197.05742 162.3679 197.05742 164.02477Z" fill-rule="nonzero"/><path fill="#000000" fill-opacity="0.0" clip-path="url(#id_0)" d="M202.0911 159.45901C202.0911 161.11588 200.74794 162.45901 199.0911 162.45901C197.43423 162.45901 196.0911 161.11588 196.0911 159.45901C196.0911 157.80217 197.43423 156.45901 199.0911 156.45901C200.74794 156.45901 202.0911 157.80217 202.0911 159.45901Z" fill-rule="nonzero"/><path fill="#000000" fill-opacity="0.0" clip-path="url(#id_0)" d="M207.12476 155.0791C207.12476 156.73595 205.7816 158.0791 204.12476 158.0791C202.4679 158.0791 201.12476 156.73595 201.12476 155.0791C201.12476 153.42224 202.4679 152.0791 204.12476 152.0791C205.7816 152.0791 207.12476 153.42224 207.12476 155.0791Z" fill-rule="nonzero"/><path fill="#000000" fill-opacity="0.0" clip-path="url(#id_0)" d="M212.15842 150.88168C212.15842 152.53854 210.81528 153.88168 209.15842 153.88168C207.50156 153.88168 206.15842 152.53854 206.15842 150.88168C206.15842 149.22484 207.50156 147.88168 209.15842 147.88168C210.81528 147.88168 212.15842 149.22484 212.15842 150.88168Z" fill-rule="nonzero"/><path fill="#000000" fill-opacity="0.0" clip-path="url(#id_0)" d="M217.19208 146.86346C217.19208 148.52031 215.84894 149.86346 214.19208 149.86346C212.53523 149.86346 211.19208 148.52031 211.19208 146.86346C211.19208 145.2066 212.53523 143.86346 214.19208 143.86346C215.84894 143.86346 217.19208 145.2066 217.19208 146.86346Z" fill-rule="nonzero"/><path fill="#000000" fill-opacity="0.0" clip-path="url(#id_0)" d="M222.22574 143.0211C222.22574 144.67796 220.8826 146.0211 219.22574 146.0211C217.5689 146.0211 216.22574 144.67796 216.22574 143.0211C216.22574 141.36426 217.5689 140.0211 219.22574 140.0211C220.8826 140.0211 222.22574 141.36426 222.22574 143.0211Z" fill-rule="nonzero"/><path fill="#000000" fill-opacity="0.0" clip-path="url(#id_0)" d="M227.2594 139.3513C227.2594 141.00815 225.91626 142.3513 224.2594 142.3513C222.60255 142.3513 221.2594 141.00815 221.2594 139.3513C221.2594 137.69444 222.60255 136.3513 224.2594 136.3513C225.91626 136.3513 227.2594 137.69444 227.2594 139.3513Z" fill-rule="nonzero"/><path fill="#000000" fill-opacity="0.0" clip-path="url(#id_0)" d="M232.29308 135.85072C232.29308 137.50758 230.94992 138.85072 229.29308 138.85072C227.63622 138.85072 226.29308 137.50758 226.29308 135.85072C226.29308 134.19388 227.63622 132.85072 229.29308 132.85072C230.94992 132.85072 232.29308 134.19388 232.29308 135.85072Z" fill-rule="nonzero"/><path fill="#000000" fill-opacity="0.0" clip-path="url(#id_0)" d="M237.32674 132.51607C237.32674 134.17293 235.98358 135.51607 234.32674 135.51607C232.66988 135.51607 231.32674 134.17293 231.32674 132.51607C231.32674 130.85922 232.66988 129.51607 234.32674 129.51607C235.98358 129.51607 237.32674 130.85922 237.32674 132.51607Z" fill-rule="nonzero"/><path fill="#000000" fill-opacity="0.0" clip-path="url(#id_0)" d="M242.3604 129.34401C242.3604 131.00087 241.01726 132.34401 239.3604 132.34401C237.70354 132.34401 236.3604 131.00087 236.3604 129.34401C236.3604 127.687164 237.70354 126.34402 239.3604 126.34402C241.01726 126.34402 242.3604 127.687164 242.3604 129.34401Z" fill-rule="nonzero"/><path fill="#000000" fill-opacity="0.0" clip-path="url(#id_0)" d="M247.39406 126.33124C247.39406 127.98809 246.05092 129.33124 244.39406 129.33124C242.7372 129.33124 241.39406 127.98809 241.39406 126.33124C241.39406 124.674385 242.7372 123.33124 244.39406 123.33124C246.05092 123.33124 247.39406 124.674385 247.39406 126.33124Z" fill-rule="nonzero"/><path fill="#000000" fill-opacity="0.0" clip-path="url(#id_0)" d="M252.42772 123.47442C252.42772 125.13128 251.08458 126.47442 249.42772 126.47442C247.77087 126.47442 246.42772 125.13128 246.42772 123.47442C246.42772 121.817566 247.77087 120.47442 249.42772 120.47442C251.08458 120.47442 252.42772 121.817566 252.42772 123.47442Z" fill-rule="nonzero"/><path fill="#000000" fill-opacity="0.0" clip-path="url(#id_0)" d="M257.4614 120.77025C257.4614 122.4271 256.11826 123.77025 254.46138 123.77025C252.80453 123.77025 251.46138 122.4271 251.46138 120.77025C251.46138 119.113396 252.80453 117.77025 254.46138 117.77025C256.11826 117.77025 257.4614 119.113396 257.4614 120.77025Z" fill-rule="nonzero"/><path fill="#000000" fill-opacity="0.0" clip-path="url(#id_0)" d="M262.49506 118.2154C262.49506 119.87225 261.15192 121.2154 259.49506 121.2154C257.8382 121.2154 256.49506 119.87225 256.49506 118.2154C256.49506 116.55855 257.8382 115.2154 259.49506 115.2154C261.15192 115.2154 262.49506 116.55855 262.49506 118.2154Z" fill-rule="nonzero"/><path fill="#000000" fill-opacity="0.0" clip-path="url(#id_0)" d="M267.52872 115.806564C267.52872 117.46342 266.18558 118.806564 264.52872 118.806564C262.87186 118.806564 261.52872 117.46342 261.52872 115.806564C261.52872 114.14971 262.87186 112.806564 264.52872 112.806564C266.18558 112.806564 267.52872 114.14971 267.52872 115.806564Z" fill-rule="nonzero"/><path fill="#000000" fill-opacity="0.0" clip-path="url(#id_0)" d="M272.56238 113.54041C272.56238 115.197266 271.21924 116.54041 269.56238 116.54041C267.90552 116.54041 266.56238 115.197266 266.56238 113.54041C266.56238 111.88356 267.90552 110.54041 269.56238 110.54041C271.21924 110.54041 272.56238 111.88356 272.56238 113.54041Z" fill-rule="nonzero"/><path fill="#000000" fill-opacity="0.0" clip-path="url(#id_0)" d="M277.59604 111.413635C277.59604 113.070496 276.2529 114.413635 274.59604 114.413635C272.93918 114.413635 271.59604 113.070496 271.59604 111.413635C271.59604 109.75678 272.93918 108.413635 274.59604 108.413635C276.2529 108.413635 277.59604 109.75678 277.59604 111.413635Z" fill-rule="nonzero"/><path fill="#000000" fill-opacity="0.0" clip-path="url(#id_0)" d="M282.6297 109.42291C282.6297 111.079765 281.28656 112.42291 279.6297 112.42291C277.97284 112.42291 276.6297 111.079765 276.6297 109.42291C276.6297 107.76606 277.97284 106.42291 279.6297 106.42291C281.28656 106.42291 282.6297 107.76606 282.6297 109.42291Z" fill-rule="nonzero"/><path fill="#000000" fill-opacity="0.0" clip-path="url(#id_0)" d="M287.66336 107.564926C287.66336 109.22178 286.32022 110.564926 284.66336 110.564926C283.0065 110.564926 281.66336 109.22178 281.66336 107.564926C281.66336 105.90807 283.0065 104.564926 284.66336 104.564926C286.32022 104.564926 287.66336 105.90807 287.66336 107.564926Z" fill-rule="nonzero"/><path fill="#000000" fill-opacity="0.0" clip-path="url(#id_0)" d="M292.69702 105.83636C292.69702 107.49321 291.35388 108.83636 289.69702 108.83636C288.04016 108.83636 286.69702 107.49321 286.69702 105.83636C286.69702 104.179504 288.04016 102.83636 289.69702 102.83636C291.35388 102.83636 292.69702 104.179504 292.69702 105.83636Z" fill-rule="nonzero"/><path fill="#000000" fill-opacity="0.0" clip-path="url(#id_0)" d="M297.73068 104.23389C297.73068 105.89074 296.38754 107.23389 294.73068 107.23389C293.07385 107.23389 291.73068 105.89074 291.73068 104.23389C291.73068 102.577034 293.07385 101.23389 294.73068 101.23389C296.38754 101.23389 297.73068 102.577034 297.73068 104.23389Z" fill-rule="nonzero"/><path fill="#000000" fill-opacity="0.0" clip-path="url(#id_0)" d="M302.76434 102.7542C302.76434 104.41106 301.4212 105.7542 299.76434 105.7542C298.1075 105.7542 296.76434 104.41106 296.76434 102.7542C296.76434 101.09734 298.1075 99.7542 299.76434 99.7542C301.4212 99.7542 302.76434 101.09734 302.76434 102.7542Z" fill-rule="nonzero"/><path fill="#000000" fill-opacity="0.0" clip-path="url(#id_0)" d="M307.79803 101.393974C307.79803 103.050835 306.45486 104.393974 304.79803 104.393974C303.14117 104.393974 301.79803 103.050835 301.79803 101.393974C301.79803 99.73712 303.14117 98.393974 304.79803 98.393974C306.45486 98.393974 307.79803 99.73712 307.79803 101.393974Z" fill-rule="nonzero"/><path fill="#000000" fill-opacity="0.0" clip-path="url(#id_0)" d="M312.8317 100.1499C312.8317 101.806755 311.48853 103.1499 309.8317 103.1499C308.17484 103.1499 306.8317 101.806755 306.8317 100.1499C306.8317 98.49304 308.17484 97.1499 309.8317 97.1499C311.48853 97.1499 312.8317 98.49304 312.8317 100.1499Z" fill-rule="nonzero"/><path fill="#000000" fill-opacity="0.0" clip-path="url(#id_0)" d="M317.86536 99.01865C317.86536 100.67551 316.5222 102.01865 314.86536 102.01865C313.2085 102.01865 311.86536 100.67551 311.86536 99.01865C311.86536 97.36179 313.2085 96.01865 314.86536 96.01865C316.5222 96.01865 317.86536 97.36179 317.86536 99.01865Z" fill-rule="nonzero"/><path fill="#000000" fill-opacity="0.0" clip-path="url(#id_0)" d="M322.89902 97.99691C322.89902 99.65376 321.55588 100.99691 319.89902 100.99691C318.24216 100.99691 316.89902 99.65376 316.89902 97.99691C316.89902 96.34006 318.24216 94.99691 319.89902 94.99691C321.55588 94.99691 322.89902 96.34006 322.89902 97.99691Z" fill-rule="nonzero"/><path fill="#000000" fill-opacity="0.0" clip-path="url(#id_0)" d="M327.93268 97.08136C327.93268 98.73822 326.58954 100.08136 324.93268 100.08136C323.27582 100.08136 321.93268 98.73822 321.93268 97.08136C321.93268 95.42451 323.27582 94.08136 324.93268 94.08136C326.58954 94.08136 327.93268 95.42451 327.93268 97.08136Z" fill-rule="nonzero"/><path fill="#000000" fill-opacity="0.0" clip-path="url(#id_0)" d="M332.96634 96.26869C332.96634 97.925545 331.6232 99.26869 329.96634 99.26869C328.30948 99.26869 326.96634 97.925545 326.96634 96.26869C326.96634 94.61184 328.30948 93.26869 329.96634 93.26869C331.6232 93.26869 332.96634 94.61184 332.96634 96.26869Z" fill-rule="nonzero"/><path fill="#000000" fill-opacity="0.0" clip-path="url(#id_0)" d="M338.0 95.55557C338.0 97.212425 336.65686 98.55557 335.0 98.55557C333.34314 98.55557 332.0 97.212425 332.0 95.55557C332.0 93.89872 333.34314 92.55557 335.0 92.55557C336.65686 92.55557 338.0 93.89872 338.0 95.55557Z" fill-rule="nonzero"/><path fill="#000000" fill-opacity="0.0" clip-path="url(#id_0)" d="M343.03366 94.9387C343.03366 96.59555 341.69052 97.9387 340.03366 97.9387C338.3768 97.9387 337.03366 96.59555 337.03366 94.9387C337.03366 93.28184 338.3768 91.9387 340.03366 91.9387C341.69052 91.9387 343.03366 93.28184 343.03366 94.9387Z" fill-rule="nonzero"/><path fill="#000000" fill-opacity="0.0" clip-path="url(#id_0)" d="M348.06732 94.414734C348.06732 96.07159 346.72418 97.414734 345.06732 97.414734C343.41046 97.414734 342.06732 96.07159 342.06732 94.414734C342.06732 92.75788 343.41046 91.414734 345.06732 91.414734C346.72418 91.414734 348.06732 92.75788 348.06732 94.414734Z" fill-rule="nonzero"/><path fill="#000000" fill-opacity="0.0" clip-path="url(#id_0)" d="M353.10098 93.98038C353.10098 95.63724 351.75784 96.98038 350.10098 96.98038C348.44412 96.98038 347.10098 95.63724 347.10098 93.98038C347.10098 92.323524 348.44412 90.98038 350.10098 90.98038C351.75784 90.98038 353.10098 92.323524 353.10098 93.98038Z" fill-rule="nonzero"/><path fill="#000000" fill-opacity="0.0" clip-path="url(#id_0)" d="M358.13464 93.63231C358.13464 95.28916 356.7915 96.63231 355.13464 96.63231C353.4778 96.63231 352.13464 95.28916 352.13464 93.63231C352.13464 91.97546 353.4778 90.63231 355.13464 90.63231C356.7915 90.63231 358.13464 91.97546 358.13464 93.63231Z" fill-rule="nonzero"/><path fill="#000000" fill-opacity="0.0" clip-path="url(#id_0)" d="M363.1683 93.3672C363.1683 95.024055 361.82516 96.3672 360.1683 96.3672C358.51147 96.3672 357.1683 95.024055 357.1683 93.3672C357.1683 91.71035 358.51147 90.3672 360.1683 90.3672C361.82516 90.3672 363.1683 91.71035 363.1683 93.3672Z" fill-rule="nonzero"/><path fill="#000000" fill-opacity="0.0" clip-path="url(#id_0)" d="M368.20197 93.18175C368.20197 94.8386 366.85883 96.18175 365.20197 96.18175C363.54514 96.18175 362.20197 94.8386 362.20197 93.18175C362.20197 91.52489 363.54514 90.18175 365.20197 90.18175C366.85883 90.18175 368.20197 91.52489 368.20197 93.18175Z" fill-rule="nonzero"/><path fill="#000000" fill-opacity="0.0" clip-path="url(#id_0)" d="M373.23566 93.07262C373.23566 94.72947 371.8925 96.07262 370.23566 96.07262C368.5788 96.07262 367.23566 94.72947 367.23566 93.07262C367.23566 91.415764 368.5788 90.07262 370.23566 90.07262C371.8925 90.07262 373.23566 91.415764 373.23566 93.07262Z" fill-rule="nonzero"/><path fill="#000000" fill-opacity="0.0" clip-path="url(#id_0)" d="M378.26932 93.03651C378.26932 94.69336 376.92615 96.03651 375.26932 96.03651C373.61246 96.03651 372.26932 94.69336 372.26932 93.03651C372.26932 91.37965 373.61246 90.03651 375.26932 90.03651C376.92615 90.03651 378.26932 91.37965 378.26932 93.03651Z" fill-rule="nonzero"/><path fill="#000000" fill-opacity="0.0" clip-path="url(#id_0)" d="M383.30298 93.07008C383.30298 94.72694 381.95984 96.07008 380.30298 96.07008C378.64612 96.07008 377.30298 94.72694 377.30298 93.07008C377.30298 91.41323 378.64612 90.07008 380.30298 90.07008C381.95984 90.07008 383.30298 91.41323 383.30298 93.07008Z" fill-rule="nonzero"/><path fill="#000000" fill-opacity="0.0" clip-path="url(#id_0)" d="M388.33664 93.17004C388.33664 94.8269 386.9935 96.17004 385.33664 96.17004C383.67978 96.17004 382.33664 94.8269 382.33664 93.17004C382.33664 91.51318 383.67978 90.17004 385.33664 90.17004C386.9935 90.17004 388.33664 91.51318 388.33664 93.17004Z" fill-rule="nonzero"/><path fill="#000000" fill-opacity="0.0" clip-path="url(#id_0)" d="M393.3703 93.33305C393.3703 94.98991 392.02716 96.33305 390.3703 96.33305C388.71344 96.33305 387.3703 94.98991 387.3703 93.33305C387.3703 91.6762 388.71344 90.33305 390.3703 90.33305C392.02716 90.33305 393.3703 91.6762 393.3703 93.33305Z" fill-rule="nonzero"/><path fill="#000000" fill-opacity="0.0" clip-path="url(#id_0)" d="M398.40396 93.55581C398.40396 95.21266 397.06082 96.55581 395.40396 96.55581C393.7471 96.55581 392.40396 95.21266 392.40396 93.55581C392.40396 91.89896 393.7471 90.55581 395.40396 90.55581C397.06082 90.55581 398.40396 91.89896 398.40396 93.55581Z" fill-rule="nonzero"/><path fill="#000000" fill-opacity="0.0" clip-path="url(#id_0)" d="M403.43762 93.83499C403.43762 95.491844 402.09448 96.83499 400.43762 96.83499C398.78076 96.83499 397.43762 95.491844 397.43762 93.83499C397.43762 92.17813 398.78076 90.83499 400.43762 90.83499C402.09448 90.83499 403.43762 92.17813 403.43762 93.83499Z" fill-rule="nonzero"/><path fill="#000000" fill-opacity="0.0" clip-path="url(#id_0)" d="M408.47128 94.167274C408.47128 95.82413 407.12814 97.167274 405.47128 97.167274C403.81442 97.167274 402.47128 95.82413 402.47128 94.167274C402.47128 92.510414 403.81442 91.167274 405.47128 91.167274C407.12814 91.167274 408.47128 92.510414 408.47128 94.167274Z" fill-rule="nonzero"/><path fill="#000000" fill-opacity="0.0" clip-path="url(#id_0)" d="M413.50494 94.54934C413.50494 96.20619 412.1618 97.54934 410.50494 97.54934C408.84808 97.54934 407.50494 96.20619 407.50494 94.54934C407.50494 92.89249 408.84808 91.54934 410.50494 91.54934C412.1618 91.54934 413.50494 92.89249 413.50494 94.54934Z" fill-rule="nonzero"/><path fill="#000000" fill-opacity="0.0" clip-path="url(#id_0)" d="M418.5386 94.977875C418.5386 96.634735 417.19547 97.977875 415.5386 97.977875C413.88174 97.977875 412.5386 96.634735 412.5386 94.977875C412.5386 93.32102 413.88174 91.977875 415.5386 91.977875C417.19547 91.977875 418.5386 93.32102 418.5386 94.977875Z" fill-rule="nonzero"/><path fill="#000000" fill-opacity="0.0" clip-path="url(#id_0)" d="M423.57227 95.44957C423.57227 97.10642 422.22913 98.44957 420.57227 98.44957C418.91544 98.44957 417.57227 97.10642 417.57227 95.44957C417.57227 93.79271 418.91544 92.44957 420.57227 92.44957C422.22913 92.44957 423.57227 93.79271 423.57227 95.44957Z" fill-rule="nonzero"/><path fill="#000000" fill-opacity="0.0" clip-path="url(#id_0)" d="M428.60593 95.96109C428.60593 97.61794 427.2628 98.96109 425.60593 98.96109C423.9491 98.96109 422.60593 97.61794 422.60593 95.96109C422.60593 94.30423 423.9491 92.96109 425.60593 92.96109C427.2628 92.96109 428.60593 94.30423 428.60593 95.96109Z" fill-rule="nonzero"/><path fill="#000000" fill-opacity="0.0" clip-path="url(#id_0)" d="M433.63962 96.509125C433.63962 98.16598 432.29645 99.509125 430.63962 99.509125C428.98276 99.509125 427.63962 98.16598 427.63962 96.509125C427.63962 94.85227 428.98276 93.509125 430.63962 93.509125C432.29645 93.509125 433.63962 94.85227 433.63962 96.509125Z" fill-rule="nonzero"/><path fill="#000000" fill-opacity="0.0" clip-path="url(#id_0)" d="M438.67328 97.090355C438.67328 98.74721 437.3301 100.090355 435.67328 100.090355C434.01642 100.090355 432.67328 98.74721 432.67328 97.090355C432.67328 95.4335 434.01642 94.090355 435.67328 94.090355C437.3301 94.090355 438.67328 95.4335 438.67328 97.090355Z" fill-rule="nonzero"/><path fill="#000000" fill-opacity="0.0" clip-path="url(#id_0)" d="M443.70694 97.70147C443.70694 99.35832 442.3638 100.70147 440.70694 100.70147C439.05008 100.70147 437.70694 99.35832 437.70694 97.70147C437.70694 96.04461 439.05008 94.70147 440.70694 94.70147C442.3638 94.70147 443.70694 96.04461 443.70694 97.70147Z" fill-rule="nonzero"/><path fill="#000000" fill-opacity="0.0" clip-path="url(#id_0)" d="M448.7406 98.33914C448.7406 99.995995 447.39746 101.33914 445.7406 101.33914C444.08374 101.33914 442.7406 99.995995 442.7406 98.33914C442.7406 96.68228 444.08374 95.33914 445.7406 95.33914C447.39746 95.33914 448.7406 96.68228 448.7406 98.33914Z" fill-rule="nonzero"/><path fill="#000000" fill-opacity="0.0" clip-path="url(#id_0)" d="M453.77426 99.00005C453.77426 100.656906 452.43112 102.00005 450.77426 102.00005C449.1174 102.00005 447.77426 100.656906 447.77426 99.00005C447.77426 97.3432 449.1174 96.00005 450.77426 96.00005C452.43112 96.00005 453.77426 97.3432 453.77426 99.00005Z" fill-rule="nonzero"/><path fill="#000000" fill-opacity="0.0" clip-path="url(#id_0)" d="M458.80792 99.68089C458.80792 101.337746 457.46478 102.68089 455.80792 102.68089C454.15106 102.68089 452.80792 101.337746 452.80792 99.68089C452.80792 98.02404 454.15106 96.68089 455.80792 96.68089C457.46478 96.68089 458.80792 98.02404 458.80792 99.68089Z" fill-rule="nonzero"/><path fill="#000000" fill-opacity="0.0" clip-path="url(#id_0)" d="M463.84158 100.37834C463.84158 102.035194 462.49844 103.37834 460.84158 103.37834C459.18472 103.37834 457.84158 102.035194 457.84158 100.37834C457.84158 98.72149 459.18472 97.37834 460.84158 97.37834C462.49844 97.37834 463.84158 98.72149 463.84158 100.37834Z" fill-rule="nonzero"/><path fill="#000000" fill-opacity="0.0" clip-path="url(#id_0)" d="M468.87524 101.08907C468.87524 102.745926 467.5321 104.08907 465.87524 104.08907C464.21838 104.08907 462.87524 102.745926 462.87524 101.08907C462.87524 99.43222 464.21838 98.08907 465.87524 98.08907C467.5321 98.08907 468.87524 99.43222 468.87524 101.08907Z" fill-rule="nonzero"/><path fill="#000000" fill-opacity="0.0" clip-path="url(#id_0)" d="M473.9089 101.809784C473.9089 103.46664 472.56577 104.809784 470.9089 104.809784C469.25204 104.809784 467.9089 103.46664 467.9089 101.809784C467.9089 100.15293 469.25204 98.809784 470.9089 98.809784C472.56577 98.809784 473.9089 100.15293 473.9089 101.809784Z" fill-rule="nonzero"/><path fill="#000000" fill-opacity="0.0" clip-path="url(#id_0)" d="M478.94257 102.53714C478.94257 104.19399 477.59943 105.53714 475.94257 105.53714C474.2857 105.53714 472.94257 104.19399 472.94257 102.53714C472.94257 100.88029 474.2857 99.53714 475.94257 99.53714C477.59943 99.53714 478.94257 100.88029 478.94257 102.53714Z" fill-rule="nonzero"/><path fill="#000000" fill-opacity="0.0" clip-path="url(#id_0)" d="M483.97623 103.26784C483.97623 104.92469 482.6331 106.26784 480.97623 106.26784C479.3194 106.26784 477.97623 104.92469 477.97623 103.26784C477.97623 101.610985 479.3194 100.26784 480.97623 100.26784C482.6331 100.26784 483.97623 101.610985 483.97623 103.26784Z" fill-rule="nonzero"/><path fill="#000000" fill-opacity="0.0" clip-path="url(#id_0)" d="M489.0099 103.99855C489.0099 105.6554 487.66675 106.99855 486.0099 106.99855C484.35306 106.99855 483.0099 105.6554 483.0099 103.99855C483.0099 102.34169 484.35306 100.99855 486.0099 100.99855C487.66675 100.99855 489.0099 102.34169 489.0099 103.99855Z" fill-rule="nonzero"/><path fill="#000000" fill-opacity="0.0" clip-path="url(#id_0)" d="M494.04358 104.72596C494.04358 106.38281 492.7004 107.72596 491.04358 107.72596C489.38672 107.72596 488.04358 106.38281 488.04358 104.72596C488.04358 103.0691 489.38672 101.72596 491.04358 101.72596C492.7004 101.72596 494.04358 103.0691 494.04358 104.72596Z" fill-rule="nonzero"/><path fill="#000000" fill-opacity="0.0" clip-path="url(#id_0)" d="M499.07724 105.44675C499.07724 107.1036 497.73407 108.44675 496.07724 108.44675C494.42038 108.44675 493.07724 107.1036 493.07724 105.44675C493.07724 103.789894 494.42038 102.44675 496.07724 102.44675C497.73407 102.44675 499.07724 103.789894 499.07724 105.44675Z" fill-rule="nonzero"/><path fill="#000000" fill-opacity="0.0" clip-path="url(#id_0)" d="M504.1109 106.1576C504.1109 107.81446 502.76773 109.1576 501.1109 109.1576C499.45404 109.1576 498.1109 107.81446 498.1109 106.1576C498.1109 104.50075 499.45404 103.1576 501.1109 103.1576C502.76773 103.1576 504.1109 104.50075 504.1109 106.1576Z" fill-rule="nonzero"/><path fill="#000000" fill-opacity="0.0" clip-path="url(#id_0)" d="M509.14456 106.8552C509.14456 108.512054 507.80142 109.8552 506.14456 109.8552C504.4877 109.8552 503.14456 108.512054 503.14456 106.8552C503.14456 105.19835 504.4877 103.8552 506.14456 103.8552C507.80142 103.8552 509.14456 105.19835 509.14456 106.8552Z" fill-rule="nonzero"/><path fill="#000000" fill-opacity="0.0" clip-path="url(#id_0)" d="M514.1782 107.53623C514.1782 109.193085 512.8351 110.53623 511.17822 110.53623C509.52136 110.53623 508.17822 109.193085 508.17822 107.53623C508.17822 105.87937 509.52136 104.53623 511.17822 104.53623C512.8351 104.53623 514.1782 105.87937 514.1782 107.53623Z" fill-rule="nonzero"/><path fill="#000000" fill-opacity="0.0" clip-path="url(#id_0)" d="M519.21185 108.197365C519.21185 109.85422 517.8687 111.197365 516.21185 111.197365C514.55505 111.197365 513.21185 109.85422 513.21185 108.197365C513.21185 106.54051 514.55505 105.197365 516.21185 105.197365C517.8687 105.197365 519.21185 106.54051 519.21185 108.197365Z" fill-rule="nonzero"/><path fill="#000000" fill-opacity="0.0" clip-path="url(#id_0)" d="M524.24554 108.83529C524.24554 110.49215 522.9024 111.83529 521.24554 111.83529C519.5887 111.83529 518.24554 110.49215 518.24554 108.83529C518.24554 107.17844 519.5887 105.83529 521.24554 105.83529C522.9024 105.83529 524.24554 107.17844 524.24554 108.83529Z" fill-rule="nonzero"/><path fill="#000000" fill-opacity="0.0" clip-path="url(#id_0)" d="M529.27924 109.44669C529.27924 111.103546 527.93604 112.44669 526.27924 112.44669C524.6224 112.44669 523.27924 111.103546 523.27924 109.44669C523.27924 107.78984 524.6224 106.44669 526.27924 106.44669C527.93604 106.44669 529.27924 107.78984 529.27924 109.44669Z" fill-rule="nonzero"/><path fill="#000000" fill-opacity="0.0" clip-path="url(#id_0)" d="M534.31287 110.02825C534.31287 111.685104 532.9697 113.02825 531.31287 113.02825C529.656 113.02825 528.31287 111.685104 528.31287 110.02825C528.31287 108.37139 529.656 107.02825 531.31287 107.02825C532.9697 107.02825 534.31287 108.37139 534.31287 110.02825Z" fill-rule="nonzero"/><path fill="#000000" fill-opacity="0.0" clip-path="url(#id_0)" d="M539.34656 110.576645C539.34656 112.2335 538.0034 113.576645 536.34656 113.576645C534.6897 113.576645 533.34656 112.2335 533.34656 110.576645C533.34656 108.919785 534.6897 107.576645 536.34656 107.576645C538.0034 107.576645 539.34656 108.919785 539.34656 110.576645Z" fill-rule="nonzero"/><path fill="#000000" fill-opacity="0.0" clip-path="url(#id_0)" d="M544.3802 111.088554C544.3802 112.74541 543.03705 114.088554 541.3802 114.088554C539.7233 114.088554 538.3802 112.74541 538.3802 111.088554C538.3802 109.4317 539.7233 108.088554 541.3802 108.088554C543.03705 108.088554 544.3802 109.4317 544.3802 111.088554Z" fill-rule="nonzero"/><path fill="#000000" fill-opacity="0.0" clip-path="url(#id_0)" d="M549.4139 111.56067C549.4139 113.21752 548.07074 114.56067 546.4139 114.56067C544.757 114.56067 543.4139 113.21752 543.4139 111.56067C543.4139 109.90382 544.757 108.56067 546.4139 108.56067C548.07074 108.56067 549.4139 109.90382 549.4139 111.56067Z" fill-rule="nonzero"/><path fill="#000000" fill-opacity="0.0" clip-path="url(#id_0)" d="M554.4475 111.98966C554.4475 113.646515 553.1044 114.98966 551.4475 114.98966C549.79065 114.98966 548.4475 113.646515 548.4475 111.98966C548.4475 110.33281 549.79065 108.98966 551.4475 108.98966C553.1044 108.98966 554.4475 110.33281 554.4475 111.98966Z" fill-rule="nonzero"/><path fill="#000000" fill-opacity="0.0" clip-path="url(#id_0)" d="M559.4812 112.37222C559.4812 114.02908 558.13806 115.37222 556.4812 115.37222C554.82434 115.37222 553.4812 114.02908 553.4812 112.37222C553.4812 110.71537 554.82434 109.37222 556.4812 109.37222C558.13806 109.37222 559.4812 110.71537 559.4812 112.37222Z" fill-rule="nonzero"/><path fill="#000000" fill-opacity="0.0" clip-path="url(#id_0)" d="M564.51483 112.70503C564.51483 114.36189 563.1717 115.70503 561.51483 115.70503C559.858 115.70503 558.51483 114.36189 558.51483 112.70503C558.51483 111.04818 559.858 109.70503 561.51483 109.70503C563.1717 109.70503 564.51483 111.04818 564.51483 112.70503Z" fill-rule="nonzero"/><path fill="#000000" fill-opacity="0.0" clip-path="url(#id_0)" d="M569.5485 112.98477C569.5485 114.64163 568.2054 115.98477 566.5485 115.98477C564.89166 115.98477 563.5485 114.64163 563.5485 112.98477C563.5485 111.32792 564.89166 109.98477 566.5485 109.98477C568.2054 109.98477 569.5485 111.32792 569.5485 112.98477Z" fill-rule="nonzero"/><path fill="#000000" fill-opacity="0.0" clip-path="url(#id_0)" d="M574.58215 113.20812C574.58215 114.86498 573.239 116.20812 571.58215 116.20812C569.92535 116.20812 568.58215 114.86498 568.58215 113.20812C568.58215 111.55127 569.92535 110.20812 571.58215 110.20812C573.239 110.20812 574.58215 111.55127 574.58215 113.20812Z" fill-rule="nonzero"/><path fill="#000000" fill-opacity="0.0" clip-path="url(#id_0)" d="M579.61584 113.37177C579.61584 115.028625 578.2727 116.37177 576.61584 116.37177C574.959 116.37177 573.61584 115.028625 573.61584 113.37177C573.61584 111.71491 574.959 110.37177 576.61584 110.37177C578.2727 110.37177 579.61584 111.71491 579.61584 113.37177Z" fill-rule="nonzero"/><path fill="#000000" fill-opacity="0.0" clip-path="url(#id_0)" d="M584.6495 113.47239C584.6495 115.12924 583.30634 116.47239 581.6495 116.47239C579.9927 116.47239 578.6495 115.12924 578.6495 113.47239C578.6495 111.81554 579.9927 110.47239 581.6495 110.47239C583.30634 110.47239 584.6495 111.81554 584.6495 113.47239Z" fill-rule="nonzero"/><path fill="#000000" fill-opacity="0.0" clip-path="url(#id_0)" d="M589.68317 113.50667C589.68317 115.16352 588.34 116.50667 586.68317 116.50667C585.0263 116.50667 583.68317 115.16352 583.68317 113.50667C583.68317 111.849815 585.0263 110.50667 586.68317 110.50667C588.34 110.50667 589.68317 111.849815 589.68317 113.50667Z" fill-rule="nonzero"/><path fill="#000000" d="M336.59375 353.2625L336.75 354.1844Q336.29688 354.27814 335.95312 354.27814Q335.375 354.27814 335.0625 354.10626Q334.75 353.91876 334.60938 353.6219Q334.48438 353.325 334.48438 352.3719L334.48438 348.79376L333.71875 348.79376L333.71875 347.98126L334.48438 347.98126L334.48438 346.4344L335.53125 345.8094L335.53125 347.98126L336.59375 347.98126L336.59375 348.79376L335.53125 348.79376L335.53125 352.4344Q335.53125 352.8875 335.57812 353.0125Q335.64062 353.1375 335.76562 353.21564Q335.89062 353.29376 336.125 353.29376Q336.3125 353.29376 336.59375 353.2625Z" fill-rule="nonzero"/><path fill="#000000" d="M29.800013 192.67291L26.565638 190.40729L23.581263 192.50104L23.581263 191.18854L25.034388 190.23541Q25.456263 189.96979 25.737513 189.79791Q25.346888 189.54791 25.050013 189.32916L23.581263 188.28229L23.581263 187.01666L26.503138 189.17291L29.800013 186.86041L29.800013 188.14166L27.862513 189.42291L27.346888 189.76666L29.800013 191.40729L29.800013 192.67291Z" fill-rule="nonzero"/><path fill="#000000" d="M51.3 317.96564Q51.3 316.4344 51.6125 315.5125Q51.925 314.575 52.534374 314.075Q53.159374 313.575 54.096874 313.575Q54.784374 313.575 55.3 313.85626Q55.83125 314.1375 56.175 314.66876Q56.51875 315.1844 56.70625 315.9344Q56.89375 316.6844 56.89375 317.96564Q56.89375 319.48126 56.58125 320.40314Q56.284374 321.325 55.659374 321.84064Q55.05 322.34064 54.096874 322.34064Q52.8625 322.34064 52.14375 321.45Q51.3 320.3875 51.3 317.96564ZM52.378124 317.96564Q52.378124 320.075 52.878124 320.77814Q53.378124 321.48126 54.096874 321.48126Q54.83125 321.48126 55.315624 320.77814Q55.815624 320.075 55.815624 317.96564Q55.815624 315.84064 55.315624 315.15314Q54.83125 314.45 54.08125 314.45Q53.3625 314.45 52.925 315.0594Q52.378124 315.84064 52.378124 317.96564ZM58.89375 322.2L58.89375 320.9969L60.096874 320.9969L60.096874 322.2L58.89375 322.2ZM61.3 317.96564Q61.3 316.4344 61.6125 315.5125Q61.925 314.575 62.534374 314.075Q63.159374 313.575 64.09688 313.575Q64.78438 313.575 65.3 313.85626Q65.83125 314.1375 66.175 314.66876Q66.51875 315.1844 66.70625 315.9344Q66.89375 316.6844 66.89375 317.96564Q66.89375 319.48126 66.58125 320.40314Q66.28438 321.325 65.65938 321.84064Q65.05 322.34064 64.09688 322.34064Q62.8625 322.34064 62.14375 321.45Q61.3 320.3875 61.3 317.96564ZM62.378124 317.96564Q62.378124 320.075 62.878124 320.77814Q63.378124 321.48126 64.09688 321.48126Q64.83125 321.48126 65.31563 320.77814Q65.81563 320.075 65.81563 317.96564Q65.81563 315.84064 65.31563 315.15314Q64.83125 314.45 64.08125 314.45Q63.3625 314.45 62.925 315.0594Q62.378124 315.84064 62.378124 317.96564ZM68.3 317.96564Q68.3 316.4344 68.6125 315.5125Q68.925 314.575 69.53438 314.075Q70.15938 313.575 71.09688 313.575Q71.78438 313.575 72.3 313.85626Q72.83125 314.1375 73.175 314.66876Q73.51875 315.1844 73.70625 315.9344Q73.89375 316.6844 73.89375 317.96564Q73.89375 319.48126 73.58125 320.40314Q73.28438 321.325 72.65938 321.84064Q72.05 322.34064 71.09688 322.34064Q69.8625 322.34064 69.14375 321.45Q68.3 320.3875 68.3 317.96564ZM69.37813 317.96564Q69.37813 320.075 69.87813 320.77814Q70.37813 321.48126 71.09688 321.48126Q71.83125 321.48126 72.31563 320.77814Q72.81563 320.075 72.81563 317.96564Q72.81563 315.84064 72.31563 315.15314Q71.83125 314.45 71.08125 314.45Q70.3625 314.45 69.925 315.0594Q69.37813 315.84064 69.37813 317.96564Z" fill-rule="nonzero"/><path fill="#000000" d="M51.3 266.7923Q51.3 265.26105 51.6125 264.33917Q51.925 263.40167 52.534374 262.90167Q53.159374 262.40167 54.096874 262.40167Q54.784374 262.40167 55.3 262.68292Q55.83125 262.96417 56.175 263.49542Q56.51875 264.01105 56.70625 264.76105Q56.89375 265.51105 56.89375 266.7923Q56.89375 268.30792 56.58125 269.2298Q56.284374 270.15167 55.659374 270.6673Q55.05 271.1673 54.096874 271.1673Q52.8625 271.1673 52.14375 270.27667Q51.3 269.21417 51.3 266.7923ZM52.378124 266.7923Q52.378124 268.90167 52.878124 269.6048Q53.378124 270.30792 54.096874 270.30792Q54.83125 270.30792 55.315624 269.6048Q55.815624 268.90167 55.815624 266.7923Q55.815624 264.6673 55.315624 263.9798Q54.83125 263.27667 54.08125 263.27667Q53.3625 263.27667 52.925 263.88605Q52.378124 264.6673 52.378124 266.7923ZM58.89375 271.02667L58.89375 269.82355L60.096874 269.82355L60.096874 271.02667L58.89375 271.02667ZM66.84688 270.01105L66.84688 271.02667L61.159374 271.02667Q61.159374 270.65167 61.284374 270.2923Q61.503124 269.71417 61.971874 269.15167Q62.45625 268.58917 63.3625 267.8548Q64.76875 266.69855 65.25313 266.02667Q65.75313 265.3548 65.75313 264.76105Q65.75313 264.13605 65.3 263.71417Q64.84688 263.27667 64.12813 263.27667Q63.3625 263.27667 62.909374 263.7298Q62.45625 264.18292 62.440624 264.99542L61.3625 264.88605Q61.471874 263.6673 62.190624 263.0423Q62.925 262.40167 64.15938 262.40167Q65.39375 262.40167 66.1125 263.08917Q66.83125 263.77667 66.83125 264.7923Q66.83125 265.30792 66.6125 265.80792Q66.40938 266.2923 65.90938 266.8548Q65.425 267.40167 64.3 268.3548Q63.346874 269.15167 63.065624 269.44855Q62.8 269.7298 62.628124 270.01105L66.84688 270.01105ZM68.3 268.77667L69.40938 268.68292Q69.53438 269.49542 69.97188 269.90167Q70.425 270.30792 71.06563 270.30792Q71.81563 270.30792 72.34688 269.7298Q72.87813 269.15167 72.87813 268.21417Q72.87813 267.30792 72.3625 266.7923Q71.8625 266.26105 71.03438 266.26105Q70.53438 266.26105 70.1125 266.49542Q69.70625 266.7298 69.47188 267.08917L68.4875 266.96417L69.31563 262.55792L73.59688 262.55792L73.59688 263.55792L70.15938 263.55792L69.70625 265.87042Q70.47188 265.32355 71.31563 265.32355Q72.44063 265.32355 73.20625 266.1048Q73.9875 266.88605 73.9875 268.12042Q73.9875 269.27667 73.31563 270.13605Q72.4875 271.1673 71.06563 271.1673Q69.89375 271.1673 69.14375 270.51105Q68.40938 269.8548 68.3 268.77667Z" fill-rule="nonzero"/><path fill="#000000" d="M51.3 215.61896Q51.3 214.0877 51.6125 213.16583Q51.925 212.22833 52.534374 211.72833Q53.159374 211.22833 54.096874 211.22833Q54.784374 211.22833 55.3 211.50958Q55.83125 211.79083 56.175 212.32208Q56.51875 212.8377 56.70625 213.5877Q56.89375 214.3377 56.89375 215.61896Q56.89375 217.13458 56.58125 218.05646Q56.284374 218.97833 55.659374 219.49396Q55.05 219.99396 54.096874 219.99396Q52.8625 219.99396 52.14375 219.10333Q51.3 218.04083 51.3 215.61896ZM52.378124 215.61896Q52.378124 217.72833 52.878124 218.43146Q53.378124 219.13458 54.096874 219.13458Q54.83125 219.13458 55.315624 218.43146Q55.815624 217.72833 55.815624 215.61896Q55.815624 213.49396 55.315624 212.80646Q54.83125 212.10333 54.08125 212.10333Q53.3625 212.10333 52.925 212.7127Q52.378124 213.49396 52.378124 215.61896ZM58.89375 219.85333L58.89375 218.6502L60.096874 218.6502L60.096874 219.85333L58.89375 219.85333ZM61.3 217.60333L62.409374 217.50958Q62.534374 218.32208 62.971874 218.72833Q63.425 219.13458 64.06563 219.13458Q64.81563 219.13458 65.34688 218.55646Q65.87813 217.97833 65.87813 217.04083Q65.87813 216.13458 65.3625 215.61896Q64.8625 215.0877 64.03438 215.0877Q63.534374 215.0877 63.1125 215.32208Q62.70625 215.55646 62.471874 215.91583L61.4875 215.79083L62.315624 211.38458L66.59688 211.38458L66.59688 212.38458L63.159374 212.38458L62.70625 214.69708Q63.471874 214.1502 64.31563 214.1502Q65.44063 214.1502 66.20625 214.93146Q66.9875 215.7127 66.9875 216.94708Q66.9875 218.10333 66.31563 218.9627Q65.4875 219.99396 64.06563 219.99396Q62.89375 219.99396 62.14375 219.3377Q61.409374 218.68146 61.3 217.60333ZM68.3 215.61896Q68.3 214.0877 68.6125 213.16583Q68.925 212.22833 69.53438 211.72833Q70.15938 211.22833 71.09688 211.22833Q71.78438 211.22833 72.3 211.50958Q72.83125 211.79083 73.175 212.32208Q73.51875 212.8377 73.70625 213.5877Q73.89375 214.3377 73.89375 215.61896Q73.89375 217.13458 73.58125 218.05646Q73.28438 218.97833 72.65938 219.49396Q72.05 219.99396 71.09688 219.99396Q69.8625 219.99396 69.14375 219.10333Q68.3 218.04083 68.3 215.61896ZM69.37813 215.61896Q69.37813 217.72833 69.87813 218.43146Q70.37813 219.13458 71.09688 219.13458Q71.83125 219.13458 72.31563 218.43146Q72.81563 217.72833 72.81563 215.61896Q72.81563 213.49396 72.31563 212.80646Q71.83125 212.10333 71.08125 212.10333Q70.3625 212.10333 69.925 212.7127Q69.37813 213.49396 69.37813 215.61896Z" fill-rule="nonzero"/><path fill="#000000" d="M51.3 164.44562Q51.3 162.91437 51.6125 161.9925Q51.925 161.055 52.534374 160.555Q53.159374 160.055 54.096874 160.055Q54.784374 160.055 55.3 160.33624Q55.83125 160.6175 56.175 161.14874Q56.51875 161.66437 56.70625 162.41437Q56.89375 163.16437 56.89375 164.44562Q56.89375 165.96124 56.58125 166.88312Q56.284374 167.805 55.659374 168.32062Q55.05 168.82062 54.096874 168.82062Q52.8625 168.82062 52.14375 167.93Q51.3 166.8675 51.3 164.44562ZM52.378124 164.44562Q52.378124 166.555 52.878124 167.25812Q53.378124 167.96124 54.096874 167.96124Q54.83125 167.96124 55.315624 167.25812Q55.815624 166.555 55.815624 164.44562Q55.815624 162.32062 55.315624 161.63312Q54.83125 160.93 54.08125 160.93Q53.3625 160.93 52.925 161.53937Q52.378124 162.32062 52.378124 164.44562ZM58.89375 168.68L58.89375 167.47687L60.096874 167.47687L60.096874 168.68L58.89375 168.68ZM61.3625 161.21124L61.3625 160.19562L66.925 160.19562L66.925 161.02374Q66.1125 161.89874 65.3 163.35187Q64.50313 164.78937 64.06563 166.32062Q63.7375 167.39874 63.659374 168.68L62.565624 168.68Q62.58125 167.66437 62.95625 166.22687Q63.346874 164.78937 64.05 163.46124Q64.76875 162.13312 65.58125 161.21124L61.3625 161.21124ZM68.3 166.43L69.40938 166.33624Q69.53438 167.14874 69.97188 167.555Q70.425 167.96124 71.06563 167.96124Q71.81563 167.96124 72.34688 167.38312Q72.87813 166.805 72.87813 165.8675Q72.87813 164.96124 72.3625 164.44562Q71.8625 163.91437 71.03438 163.91437Q70.53438 163.91437 70.1125 164.14874Q69.70625 164.38312 69.47188 164.7425L68.4875 164.6175L69.31563 160.21124L73.59688 160.21124L73.59688 161.21124L70.15938 161.21124L69.70625 163.52374Q70.47188 162.97687 71.31563 162.97687Q72.44063 162.97687 73.20625 163.75812Q73.9875 164.53937 73.9875 165.77374Q73.9875 166.93 73.31563 167.78937Q72.4875 168.82062 71.06563 168.82062Q69.89375 168.82062 69.14375 168.16437Q68.40938 167.50812 68.3 166.43Z" fill-rule="nonzero"/><path fill="#000000" d="M55.26875 117.50667L54.221874 117.50667L54.221874 110.78792Q53.83125 111.14729 53.20625 111.52229Q52.596874 111.88167 52.1125 112.05354L52.1125 111.03792Q52.9875 110.61604 53.64375 110.03792Q54.315624 109.44417 54.596874 108.88167L55.26875 108.88167L55.26875 117.50667ZM58.89375 117.50667L58.89375 116.30354L60.096874 116.30354L60.096874 117.50667L58.89375 117.50667ZM61.3 113.27229Q61.3 111.74104 61.6125 110.81917Q61.925 109.88167 62.534374 109.38167Q63.159374 108.88167 64.09688 108.88167Q64.78438 108.88167 65.3 109.16292Q65.83125 109.44417 66.175 109.97542Q66.51875 110.49104 66.70625 111.24104Q66.89375 111.99104 66.89375 113.27229Q66.89375 114.78792 66.58125 115.70979Q66.28438 116.63167 65.65938 117.14729Q65.05 117.64729 64.09688 117.64729Q62.8625 117.64729 62.14375 116.75667Q61.3 115.69417 61.3 113.27229ZM62.378124 113.27229Q62.378124 115.38167 62.878124 116.08479Q63.378124 116.78792 64.09688 116.78792Q64.83125 116.78792 65.31563 116.08479Q65.81563 115.38167 65.81563 113.27229Q65.81563 111.14729 65.31563 110.45979Q64.83125 109.75667 64.08125 109.75667Q63.3625 109.75667 62.925 110.36604Q62.378124 111.14729 62.378124 113.27229ZM68.3 113.27229Q68.3 111.74104 68.6125 110.81917Q68.925 109.88167 69.53438 109.38167Q70.15938 108.88167 71.09688 108.88167Q71.78438 108.88167 72.3 109.16292Q72.83125 109.44417 73.175 109.97542Q73.51875 110.49104 73.70625 111.24104Q73.89375 111.99104 73.89375 113.27229Q73.89375 114.78792 73.58125 115.70979Q73.28438 116.63167 72.65938 117.14729Q72.05 117.64729 71.09688 117.64729Q69.8625 117.64729 69.14375 116.75667Q68.3 115.69417 68.3 113.27229ZM69.37813 113.27229Q69.37813 115.38167 69.87813 116.08479Q70.37813 116.78792 71.09688 116.78792Q71.83125 116.78792 72.31563 116.08479Q72.81563 115.38167 72.81563 113.27229Q72.81563 111.14729 72.31563 110.45979Q71.83125 109.75667 71.08125 109.75667Q70.3625 109.75667 69.925 110.36604Q69.37813 111.14729 69.37813 113.27229Z" fill-rule="nonzero"/><path fill="#000000" d="M55.26875 66.333336L54.221874 66.333336L54.221874 59.614586Q53.83125 59.97396 53.20625 60.34896Q52.596874 60.708336 52.1125 60.88021L52.1125 59.864586Q52.9875 59.44271 53.64375 58.864586Q54.315624 58.270836 54.596874 57.708336L55.26875 57.708336L55.26875 66.333336ZM58.89375 66.333336L58.89375 65.13021L60.096874 65.13021L60.096874 66.333336L58.89375 66.333336ZM66.84688 65.31771L66.84688 66.333336L61.159374 66.333336Q61.159374 65.958336 61.284374 65.59896Q61.503124 65.020836 61.971874 64.458336Q62.45625 63.895836 63.3625 63.16146Q64.76875 62.00521 65.25313 61.333336Q65.75313 60.66146 65.75313 60.06771Q65.75313 59.44271 65.3 59.020836Q64.84688 58.583336 64.12813 58.583336Q63.3625 58.583336 62.909374 59.03646Q62.45625 59.489586 62.440624 60.302086L61.3625 60.19271Q61.471874 58.97396 62.190624 58.34896Q62.925 57.708336 64.15938 57.708336Q65.39375 57.708336 66.1125 58.395836Q66.83125 59.083336 66.83125 60.09896Q66.83125 60.614586 66.6125 61.114586Q66.40938 61.59896 65.90938 62.16146Q65.425 62.708336 64.3 63.66146Q63.346874 64.458336 63.065624 64.75521Q62.8 65.03646 62.628124 65.31771L66.84688 65.31771ZM68.3 64.083336L69.40938 63.989586Q69.53438 64.802086 69.97188 65.208336Q70.425 65.614586 71.06563 65.614586Q71.81563 65.614586 72.34688 65.03646Q72.87813 64.458336 72.87813 63.520836Q72.87813 62.614586 72.3625 62.09896Q71.8625 61.56771 71.03438 61.56771Q70.53438 61.56771 70.1125 61.802086Q69.70625 62.03646 69.47188 62.395836L68.4875 62.270836L69.31563 57.864586L73.59688 57.864586L73.59688 58.864586L70.15938 58.864586L69.70625 61.177086Q70.47188 60.63021 71.31563 60.63021Q72.44063 60.63021 73.20625 61.41146Q73.9875 62.19271 73.9875 63.427086Q73.9875 64.583336 73.31563 65.44271Q72.4875 66.47396 71.06563 66.47396Q69.89375 66.47396 69.14375 65.81771Q68.40938 65.16146 68.3 64.083336Z" fill-rule="nonzero"/><path fill="#757575" d="M20.378124 37.8L20.378124 23.4875L30.7375 23.4875L30.7375 25.175L22.284374 25.175L22.284374 29.55L30.190624 29.55L30.190624 31.2375L22.284374 31.2375L22.284374 36.1125L31.065624 36.1125L31.065624 37.8L20.378124 37.8ZM39.89375 36.51875Q38.909374 37.346874 38.003124 37.690624Q37.096874 38.034374 36.065624 38.034374Q34.3625 38.034374 33.440624 37.20625Q32.51875 36.3625 32.51875 35.065624Q32.51875 34.3 32.8625 33.675Q33.221874 33.05 33.784374 32.675Q34.346874 32.284374 35.05 32.08125Q35.565624 31.95625 36.6125 31.815624Q38.7375 31.565624 39.7375 31.221874Q39.753124 30.8625 39.753124 30.753124Q39.753124 29.690624 39.253124 29.2375Q38.58125 28.64375 37.253124 28.64375Q36.003124 28.64375 35.409374 29.08125Q34.83125 29.51875 34.55 30.628124L32.83125 30.39375Q33.065624 29.284374 33.596874 28.6125Q34.128124 27.925 35.14375 27.565624Q36.159374 27.190624 37.503124 27.190624Q38.83125 27.190624 39.659374 27.503124Q40.4875 27.815624 40.878124 28.3Q41.26875 28.76875 41.425 29.4875Q41.51875 29.940624 41.51875 31.1125L41.51875 33.45625Q41.51875 35.909374 41.628124 36.565624Q41.7375 37.20625 42.08125 37.8L40.2375 37.8Q39.971874 37.253124 39.89375 36.51875ZM39.7375 32.596874Q38.784374 32.9875 36.8625 33.253124Q35.784374 33.409374 35.33125 33.6125Q34.89375 33.8 34.64375 34.175Q34.39375 34.55 34.39375 35.01875Q34.39375 35.721874 34.925 36.190624Q35.45625 36.659374 36.4875 36.659374Q37.503124 36.659374 38.284374 36.221874Q39.08125 35.76875 39.45625 35.003124Q39.7375 34.39375 39.7375 33.2375L39.7375 32.596874ZM43.409374 34.70625L45.159374 34.425Q45.3 35.471874 45.971874 36.034374Q46.64375 36.58125 47.846874 36.58125Q49.05 36.58125 49.628124 36.096874Q50.221874 35.596874 50.221874 34.940624Q50.221874 34.346874 49.70625 34.003124Q49.346874 33.76875 47.909374 33.409374Q45.971874 32.909374 45.221874 32.565624Q44.4875 32.20625 44.096874 31.58125Q43.70625 30.940624 43.70625 30.175Q43.70625 29.4875 44.01875 28.89375Q44.346874 28.3 44.89375 27.909374Q45.3 27.6125 46.003124 27.409374Q46.721874 27.190624 47.534374 27.190624Q48.753124 27.190624 49.675 27.55Q50.596874 27.89375 51.034374 28.503124Q51.471874 29.096874 51.64375 30.096874L49.925 30.33125Q49.8 29.534374 49.2375 29.096874Q48.675 28.64375 47.659374 28.64375Q46.440624 28.64375 45.925 29.05Q45.409374 29.440624 45.409374 29.971874Q45.409374 30.315624 45.628124 30.596874Q45.83125 30.878124 46.3 31.065624Q46.565624 31.159374 47.846874 31.503124Q49.721874 32.003124 50.45625 32.33125Q51.190624 32.64375 51.6125 33.253124Q52.034374 33.846874 52.034374 34.753124Q52.034374 35.628124 51.51875 36.409374Q51.003124 37.190624 50.034374 37.6125Q49.065624 38.034374 47.846874 38.034374Q45.83125 38.034374 44.76875 37.190624Q43.70625 36.346874 43.409374 34.70625ZM61.221874 34.45625L63.034374 34.690624Q62.6125 36.26875 61.440624 37.159374Q60.284374 38.034374 58.471874 38.034374Q56.20625 38.034374 54.8625 36.64375Q53.534374 35.2375 53.534374 32.70625Q53.534374 30.08125 54.878124 28.64375Q56.221874 27.190624 58.378124 27.190624Q60.45625 27.190624 61.76875 28.6125Q63.096874 30.01875 63.096874 32.596874Q63.096874 32.753124 63.08125 33.065624L55.346874 33.065624Q55.440624 34.76875 56.315624 35.675Q57.190624 36.58125 58.4875 36.58125Q59.45625 36.58125 60.128124 36.08125Q60.815624 35.565624 61.221874 34.45625ZM55.440624 31.6125L61.2375 31.6125Q61.128124 30.315624 60.58125 29.659374Q59.7375 28.64375 58.39375 28.64375Q57.190624 28.64375 56.3625 29.45625Q55.534374 30.253124 55.440624 31.6125ZM64.76875 30.83125Q64.76875 27.26875 66.675 25.253124Q68.59688 23.221874 71.62813 23.221874Q73.6125 23.221874 75.19063 24.175Q76.78438 25.128124 77.6125 26.83125Q78.45625 28.51875 78.45625 30.659374Q78.45625 32.83125 77.58125 34.55Q76.70625 36.26875 75.08125 37.159374Q73.47188 38.05 71.6125 38.05Q69.59688 38.05 68.00313 37.08125Q66.40938 36.096874 65.58125 34.409374Q64.76875 32.70625 64.76875 30.83125ZM66.72188 30.8625Q66.72188 33.440624 68.1125 34.940624Q69.50313 36.425 71.59688 36.425Q73.7375 36.425 75.1125 34.925Q76.50313 33.409374 76.50313 30.64375Q76.50313 28.909374 75.90938 27.6125Q75.33125 26.3 74.19063 25.58125Q73.05 24.8625 71.62813 24.8625Q69.62813 24.8625 68.175 26.253124Q66.72188 27.628124 66.72188 30.8625ZM87.90938 37.8L87.90938 36.26875Q86.70625 38.034374 84.62813 38.034374Q83.70625 38.034374 82.90938 37.690624Q82.1125 37.33125 81.72188 36.8Q81.34688 36.26875 81.19063 35.4875Q81.08125 34.971874 81.08125 33.846874L81.08125 27.425L82.83125 27.425L82.83125 33.175Q82.83125 34.55 82.94063 35.034374Q83.1125 35.721874 83.64375 36.128124Q84.19063 36.51875 84.97188 36.51875Q85.76875 36.51875 86.45625 36.1125Q87.15938 35.70625 87.44063 35.01875Q87.7375 34.315624 87.7375 32.9875L87.7375 27.425L89.4875 27.425L89.4875 37.8L87.90938 37.8ZM94.95625 36.221874L95.20625 37.784374Q94.47188 37.940624 93.87813 37.940624Q92.925 37.940624 92.39375 37.64375Q91.87813 37.33125 91.65938 36.846874Q91.44063 36.346874 91.44063 34.76875L91.44063 28.8L90.15938 28.8L90.15938 27.425L91.44063 27.425L91.44063 24.8625L93.19063 23.8L93.19063 27.425L94.95625 27.425L94.95625 28.8L93.19063 28.8L93.19063 34.8625Q93.19063 35.6125 93.28438 35.83125Q93.37813 36.034374 93.58125 36.175Q93.8 36.3 94.19063 36.3Q94.47188 36.3 94.95625 36.221874ZM97.26875 37.8L97.26875 23.4875L102.64375 23.4875Q104.28438 23.4875 105.26875 23.925Q106.25313 24.346874 106.81563 25.253124Q107.37813 26.159374 107.37813 27.14375Q107.37813 28.065624 106.87813 28.878124Q106.39375 29.690624 105.37813 30.175Q106.675 30.565624 107.37813 31.4875Q108.08125 32.39375 108.08125 33.64375Q108.08125 34.659374 107.64375 35.51875Q107.22188 36.378124 106.59688 36.846874Q105.97188 37.315624 105.03438 37.565624Q104.09688 37.8 102.72188 37.8L97.26875 37.8ZM99.15938 29.503124L102.25313 29.503124Q103.51875 29.503124 104.06563 29.33125Q104.78438 29.1125 105.14375 28.628124Q105.51875 28.128124 105.51875 27.3625Q105.51875 26.659374 105.175 26.1125Q104.83125 25.565624 104.19063 25.378124Q103.56563 25.175 102.01875 25.175L99.15938 25.175L99.15938 29.503124ZM99.15938 36.1125L102.72188 36.1125Q103.64375 36.1125 104.01875 36.034374Q104.675 35.925 105.1125 35.659374Q105.55 35.378124 105.83125 34.8625Q106.1125 34.33125 106.1125 33.64375Q106.1125 32.846874 105.70625 32.253124Q105.3 31.659374 104.56563 31.425Q103.83125 31.190624 102.47188 31.190624L99.15938 31.190624L99.15938 36.1125ZM116.89375 36.51875Q115.90938 37.346874 115.00313 37.690624Q114.09688 38.034374 113.06563 38.034374Q111.3625 38.034374 110.44063 37.20625Q109.51875 36.3625 109.51875 35.065624Q109.51875 34.3 109.8625 33.675Q110.22188 33.05 110.78438 32.675Q111.34688 32.284374 112.05 32.08125Q112.56563 31.95625 113.6125 31.815624Q115.7375 31.565624 116.7375 31.221874Q116.75313 30.8625 116.75313 30.753124Q116.75313 29.690624 116.25313 29.2375Q115.58125 28.64375 114.25313 28.64375Q113.00313 28.64375 112.40938 29.08125Q111.83125 29.51875 111.55 30.628124L109.83125 30.39375Q110.06563 29.284374 110.59688 28.6125Q111.12813 27.925 112.14375 27.565624Q113.15938 27.190624 114.50313 27.190624Q115.83125 27.190624 116.65938 27.503124Q117.4875 27.815624 117.87813 28.3Q118.26875 28.76875 118.425 29.4875Q118.51875 29.940624 118.51875 31.1125L118.51875 33.45625Q118.51875 35.909374 118.62813 36.565624Q118.7375 37.20625 119.08125 37.8L117.2375 37.8Q116.97188 37.253124 116.89375 36.51875ZM116.7375 32.596874Q115.78438 32.9875 113.8625 33.253124Q112.78438 33.409374 112.33125 33.6125Q111.89375 33.8 111.64375 34.175Q111.39375 34.55 111.39375 35.01875Q111.39375 35.721874 111.925 36.190624Q112.45625 36.659374 113.4875 36.659374Q114.50313 36.659374 115.28438 36.221874Q116.08125 35.76875 116.45625 35.003124Q116.7375 34.39375 116.7375 33.2375L116.7375 32.596874ZM127.89375 34.003124L129.6125 34.221874Q129.33125 36.01875 128.15938 37.034374Q127.00313 38.034374 125.3 38.034374Q123.175 38.034374 121.87813 36.64375Q120.58125 35.253124 120.58125 32.659374Q120.58125 30.971874 121.12813 29.721874Q121.69063 28.45625 122.83125 27.83125Q123.97188 27.190624 125.31563 27.190624Q127.00313 27.190624 128.06563 28.05Q129.14375 28.909374 129.45625 30.471874L127.7375 30.7375Q127.50313 29.690624 126.87813 29.175Q126.25313 28.64375 125.37813 28.64375Q124.05 28.64375 123.22188 29.596874Q122.39375 30.55 122.39375 32.596874Q122.39375 34.690624 123.19063 35.64375Q123.9875 36.58125 125.28438 36.58125Q126.31563 36.58125 127.00313 35.95625Q127.70625 35.315624 127.89375 34.003124ZM131.12813 37.8L131.12813 23.4875L132.89375 23.4875L132.89375 31.64375L137.05 27.425L139.31563 27.425L135.3625 31.26875L139.72188 37.8L137.55 37.8L134.12813 32.503124L132.89375 33.690624L132.89375 37.8L131.12813 37.8Z" fill-rule="nonzero"/></svg>