<svg version="1.1" viewBox="0.0 0.0 608.0 376.0" fill="none" stroke="none" stroke-linecap="square" stroke-miterlimit="10" width="608" height="376" xmlns:xlink="http://www.w3.org/1999/xlink" xmlns="http://www.w3.org/2000/svg"><path fill="#ffffff" d="M0 0L608.0 0L608.0 376.0L0 376.0L0 0Z" fill-rule="nonzero"/><path stroke="#333333" stroke-width="1.0" stroke-linecap="butt" d="M80.5 318.5L589.5 318.5" fill-rule="nonzero"/><path stroke="#cccccc" stroke-width="1.0" stroke-linecap="butt" d="M80.5 254.5L589.5 254.5" fill-rule="nonzero"/><path stroke="#cccccc" stroke-width="1.0" stroke-linecap="butt" d="M80.5 190.5L589.5 190.5" fill-rule="nonzero"/><path stroke="#cccccc" stroke-width="1.0" stroke-linecap="butt" d="M80.5 126.5L589.5 126.5" fill-rule="nonzero"/><path stroke="#cccccc" stroke-width="1.0" stroke-linecap="butt" d="M80.5 62.5L589.5 62.5" fill-rule="nonzero"/><path stroke="#000000" stroke-width="1.0" stroke-linecap="butt" d="M80.5 318.5L80.5 62.5" fill-rule="nonzero"/><clipPath id="id_0"><path d="M80.8 62.333332L589.2 62.333332L589.2 318.2L80.8 318.2L80.8 62.333332Z" clip-rule="nonzero"/></clipPath><path stroke="#4285f4" stroke-width="2.0" stroke-linecap="butt" clip-path="url(#id_0)" d="M83.31683 318.2C83.31683 318.2 86.67261 290.5917 88.350494 282.10556C90.02838 273.61942 91.70627 271.63452 93.384155 267.28317C95.06205 262.93185 96.73994 259.45187 98.41782 255.99756C100.09571 252.54324 101.7736 249.50598 103.451485 246.55733C105.12937 243.60869 106.80726 240.91441 108.485146 238.30566C110.16303 235.69691 111.84093 233.26347 113.518814 230.90483C115.1967 228.54619 116.87459 226.31772 118.552475 224.15378C120.23036 221.98982 121.90825 219.92752 123.586136 217.92116C125.26402 215.9148 126.94192 213.9907 128.6198 212.11557C130.29768 210.24043 131.97557 208.43375 133.65347 206.6703C135.33136 204.90686 137.00925 203.20161 138.68713 201.5349C140.36502 199.8682 142.04291 198.2518 143.7208 196.67007C145.39868 195.08833 147.07657 193.55072 148.75446 192.0445C150.43234 190.53828 152.11023 189.0712 153.78812 187.63277C155.466 186.19434 157.14389 184.79095 158.82178 183.41386C160.49966 182.03677 162.17755 180.69138 163.85544 179.37022C165.53334 178.04907 167.21123 176.75677 168.88911 175.48694C170.567 174.21712 172.24489 172.97372 173.92278 171.75125C175.60066 170.5288 177.27855 169.33069 178.95644 168.15215C180.63432 166.9736 182.31221 165.81763 183.9901 164.68C185.66798 163.54237 187.34587 162.42575 189.02376 161.3264C190.70164 160.22704 192.37953 159.14731 194.05742 158.08388C195.73532 157.02046 197.41321 155.97543 199.0911 154.94583C200.76898 153.91624 202.44687 152.90398 204.12476 151.90636C205.80264 150.90872 207.48053 149.92744 209.15842 148.96011C210.8363 147.99277 212.51419 147.0409 214.19208 146.10233C215.86996 145.16374 217.54785 144.23985 219.22574 143.32866C220.90363 142.41747 222.58151 141.52023 224.2594 140.63516C225.93729 139.7501 227.61519 138.87836 229.29308 138.01826C230.97096 137.15817 232.64885 136.3108 234.32674 135.47466C236.00462 134.63849 237.68251 133.81451 239.3604 133.00131C241.03828 132.18811 242.71617 131.3866 244.39406 130.59546C246.07195 129.80434 247.74983 129.02441 249.42772 128.25455C251.1056 127.48466 252.7835 126.72557 254.46138 125.97617C256.13928 125.22678 257.81717 124.487785 259.49506 123.75817C261.17294 123.02855 262.85083 122.30897 264.52872 121.59847C266.2066 120.88798 267.8845 120.18718 269.56238 119.49519C271.24026 118.80321 272.91815 118.1206 274.59604 117.44655C276.27393 116.7725 277.9518 116.10754 279.6297 115.45089C281.3076 114.79424 282.98547 114.14641 284.66336 113.50667C286.34125 112.86692 288.01913 112.23573 289.69702 111.61243C291.3749 110.98911 293.0528 110.374115 294.73068 109.7668C296.40857 109.15948 298.08646 108.56025 299.76434 107.96851C301.44223 107.37677 303.12012 106.79291 304.79803 106.21636C306.47592 105.63981 308.1538 105.07093 309.8317 104.5092C311.50958 103.94747 313.18747 103.393234 314.86536 102.84598C316.54324 102.29872 318.22113 101.75878 319.89902 101.22567C321.5769 100.69256 323.2548 100.166595 324.93268 99.64732C326.61057 99.12805 328.28845 98.61577 329.96634 98.11005C331.64423 97.60432 333.3221 97.10542 335.0 96.61297C336.6779 96.12051 338.35577 95.63474 340.03366 95.15529C341.71155 94.675835 343.38943 94.202934 345.06732 93.73624C346.7452 93.26954 348.4231 92.809265 350.10098 92.35509C351.77887 91.9009 353.45676 91.45303 355.13464 91.01115C356.81253 90.56926 358.49042 90.13357 360.1683 89.70376C361.8462 89.27396 363.52408 88.850235 365.20197 88.432304C366.87988 88.01437 368.55777 87.602425 370.23566 87.19618C371.91354 86.78994 373.59143 86.38958 375.26932 85.994835C376.9472 85.60009 378.6251 85.211136 380.30298 84.82772C381.98087 84.4443 383.65875 84.06658 385.33664 83.69433C387.01453 83.32207 388.6924 82.95543 390.3703 82.59417C392.0482 82.23292 393.72607 81.8772 395.40396 81.526794C397.08185 81.176384 398.75974 80.831436 400.43762 80.491745C402.1155 80.15205 403.7934 79.81773 405.47128 79.4886C407.14917 79.15948 408.82706 78.83566 410.50494 78.516975C412.18283 78.19829 413.86072 77.88485 415.5386 77.57648C417.2165 77.268105 418.89438 76.96492 420.57227 76.66675C422.25015 76.36857 423.92804 76.07552 425.60593 75.78743C427.2838 75.499344 428.96173 75.21632 430.63962 74.93821C432.3175 74.660095 433.9954 74.38699 435.67328 74.11876C437.35117 73.85052 439.02905 73.58724 440.70694 73.32878C442.38483 73.07032 444.0627 72.81677 445.7406 72.568C447.4185 72.31923 449.09637 72.07532 450.77426 71.836136C452.45215 71.59696 454.13004 71.3626 455.80792 71.13294C457.4858 70.90328 459.1637 70.67839 460.84158 70.45817C462.51947 70.23794 464.19736 70.022446 465.87524 69.81158C467.55313 69.60071 469.23102 69.39454 470.9089 69.192955C472.5868 68.99138 474.26468 68.79446 475.94257 68.6021C477.62045 68.409744 479.29834 68.22201 480.97623 68.0388C482.6541 67.855606 484.332 67.676994 486.0099 67.50289C487.68777 67.32879 489.36566 67.15924 491.04358 66.99418C492.72147 66.82912 494.39935 66.66858 496.07724 66.512505C497.75513 66.35642 499.433 66.20486 501.1109 66.05772C502.7888 65.91057 504.46667 65.767914 506.14456 65.62966C507.82245 65.49141 509.50034 65.35761 511.17822 65.22821C512.8561 65.09881 514.534 64.97383 516.21185 64.85323C517.8898 64.732635 519.5676 64.61645 521.24554 64.504616C522.92346 64.39279 524.6013 64.28535 526.27924 64.18225C527.9571 64.079155 529.635 63.980434 531.31287 63.88604C532.9908 63.79164 534.66864 63.701603 536.34656 63.615883C538.0244 63.53016 539.70233 63.448776 541.3802 63.3717C543.0581 63.294624 544.73596 63.221874 546.4139 63.15342C548.09174 63.08497 549.76965 63.02083 551.4475 62.960976C553.1254 62.901123 554.8033 62.845577 556.4812 62.794308C558.15906 62.743042 559.837 62.696068 561.51483 62.653366C563.19275 62.61067 564.8706 62.572254 566.5485 62.53811C568.2264 62.503963 569.9043 62.4741 571.58215 62.448498C573.2601 62.4229 574.9379 62.401573 576.61584 62.38451C578.2937 62.36745 579.9716 62.354656 581.6495 62.346127C583.3274 62.337597 586.68317 62.333332 586.68317 62.333332" fill-rule="nonzero"/><path fill="#000000" fill-opacity="0.0" clip-path="url(#id_0)" d="M86.31683 318.2C86.31683 319.85684 84.97369 321.2 83.31683 321.2C81.65998 321.2 80.31683 319.85684 80.31683 318.2C80.31683 316.54315 81.65998 315.2 83.31683 315.2C84.97369 315.2 86.31683 316.54315 86.31683 318.2Z" fill-rule="nonzero"/><path fill="#000000" fill-opacity="0.0" clip-path="url(#id_0)" d="M91.350494 282.10556C91.350494 283.76242 90.00735 285.10556 88.350494 285.10556C86.69364 285.10556 85.350494 283.76242 85.350494 282.10556C85.350494 280.4487 86.69364 279.10556 88.350494 279.10556C90.00735 279.10556 91.350494 280.4487 91.350494 282.10556Z" fill-rule="nonzero"/><path fill="#000000" fill-opacity="0.0" clip-path="url(#id_0)" d="M96.384155 267.28317C96.384155 268.94003 95.041016 270.28317 93.384155 270.28317C91.7273 270.28317 90.384155 268.94003 90.384155 267.28317C90.384155 265.6263 91.7273 264.28317 93.384155 264.28317C95.041016 264.28317 96.384155 265.6263 96.384155 267.28317Z" fill-rule="nonzero"/><path fill="#000000" fill-opacity="0.0" clip-path="url(#id_0)" d="M101.41782 255.99756C101.41782 257.65442 100.07468 258.99756 98.41782 258.99756C96.76097 258.99756 95.41782 257.65442 95.41782 255.99756C95.41782 254.3407 96.76097 252.99756 98.41782 252.99756C100.07468 252.99756 101.41782 254.3407 101.41782 255.99756Z" fill-rule="nonzero"/><path fill="#000000" fill-opacity="0.0" clip-path="url(#id_0)" d="M106.451485 246.55733C106.451485 248.21419 105.10834 249.55733 103.451485 249.55733C101.79463 249.55733 100.451485 248.21419 100.451485 246.55733C100.451485 244.90048 101.79463 243.55733 103.451485 243.55733C105.10834 243.55733 106.451485 244.90048 106.451485 246.55733Z" fill-rule="nonzero"/><path fill="#000000" fill-opacity="0.0" clip-path="url(#id_0)" d="M111.485146 238.30566C111.485146 239.96251 110.142006 241.30566 108.485146 241.30566C106.82829 241.30566 105.485146 239.96251 105.485146 238.30566C105.485146 236.6488 106.82829 235.30566 108.485146 235.30566C110.142006 235.30566 111.485146 236.6488 111.485146 238.30566Z" fill-rule="nonzero"/><path fill="#000000" fill-opacity="0.0" clip-path="url(#id_0)" d="M116.518814 230.90483C116.518814 232.56169 115.17567 233.90483 113.518814 233.90483C111.86196 233.90483 110.518814 232.56169 110.518814 230.90483C110.518814 229.24799 111.86196 227.90483 113.518814 227.90483C115.17567 227.90483 116.518814 229.24799 116.518814 230.90483Z" fill-rule="nonzero"/><path fill="#000000" fill-opacity="0.0" clip-path="url(#id_0)" d="M121.552475 224.15378C121.552475 225.81062 120.20933 227.15378 118.552475 227.15378C116.89562 227.15378 115.552475 225.81062 115.552475 224.15378C115.552475 222.49692 116.89562 221.15378 118.552475 221.15378C120.20933 221.15378 121.552475 222.49692 121.552475 224.15378Z" fill-rule="nonzero"/><path fill="#000000" fill-opacity="0.0" clip-path="url(#id_0)" d="M126.586136 217.92116C126.586136 219.578 125.243 220.92116 123.586136 220.92116C121.92928 220.92116 120.586136 219.578 120.586136 217.92116C120.586136 216.2643 121.92928 214.92116 123.586136 214.92116C125.243 214.92116 126.586136 216.2643 126.586136 217.92116Z" fill-rule="nonzero"/><path fill="#000000" fill-opacity="0.0" clip-path="url(#id_0)" d="M131.6198 212.11557C131.6198 213.77243 130.27666 215.11557 128.6198 215.11557C126.962944 215.11557 125.619804 213.77243 125.619804 212.11557C125.619804 210.45871 126.962944 209.11557 128.6198 209.11557C130.27666 209.11557 131.6198 210.45871 131.6198 212.11557Z" fill-rule="nonzero"/><path fill="#000000" fill-opacity="0.0" clip-path="url(#id_0)" d="M136.65347 206.6703C136.65347 208.32716 135.31032 209.6703 133.65347 209.6703C131.99661 209.6703 130.65347 208.32716 130.65347 206.6703C130.65347 205.01346 131.99661 203.6703 133.65347 203.6703C135.31032 203.6703 136.65347 205.01346 136.65347 206.6703Z" fill-rule="nonzero"/><path fill="#000000" fill-opacity="0.0" clip-path="url(#id_0)" d="M141.68713 201.5349C141.68713 203.19176 140.34398 204.5349 138.68713 204.5349C137.03027 204.5349 135.68713 203.19176 135.68713 201.5349C135.68713 199.87805 137.03027 198.5349 138.68713 198.5349C140.34398 198.5349 141.68713 199.87805 141.68713 201.5349Z" fill-rule="nonzero"/><path fill="#000000" fill-opacity="0.0" clip-path="url(#id_0)" d="M146.7208 196.67007C146.7208 198.32692 145.37764 199.67007 143.7208 199.67007C142.06393 199.67007 140.7208 198.32692 140.7208 196.67007C140.7208 195.01321 142.06393 193.67007 143.7208 193.67007C145.37764 193.67007 146.7208 195.01321 146.7208 196.67007Z" fill-rule="nonzero"/><path fill="#000000" fill-opacity="0.0" clip-path="url(#id_0)" d="M151.75446 192.0445C151.75446 193.70135 150.41132 195.0445 148.75446 195.0445C147.0976 195.0445 145.75446 193.70135 145.75446 192.0445C145.75446 190.38765 147.0976 189.0445 148.75446 189.0445C150.41132 189.0445 151.75446 190.38765 151.75446 192.0445Z" fill-rule="nonzero"/><path fill="#000000" fill-opacity="0.0" clip-path="url(#id_0)" d="M156.78812 187.63277C156.78812 189.28963 155.44498 190.63277 153.78812 190.63277C152.13127 190.63277 150.78812 189.28963 150.78812 187.63277C150.78812 185.9759 152.13127 184.63277 153.78812 184.63277C155.44498 184.63277 156.78812 185.9759 156.78812 187.63277Z" fill-rule="nonzero"/><path fill="#000000" fill-opacity="0.0" clip-path="url(#id_0)" d="M161.82178 183.41386C161.82178 185.07072 160.47864 186.41386 158.82178 186.41386C157.16493 186.41386 155.82178 185.07072 155.82178 183.41386C155.82178 181.75702 157.16493 180.41386 158.82178 180.41386C160.47864 180.41386 161.82178 181.75702 161.82178 183.41386Z" fill-rule="nonzero"/><path fill="#000000" fill-opacity="0.0" clip-path="url(#id_0)" d="M166.85544 179.37022C166.85544 181.02708 165.5123 182.37022 163.85544 182.37022C162.1986 182.37022 160.85544 181.02708 160.85544 179.37022C160.85544 177.71338 162.1986 176.37022 163.85544 176.37022C165.5123 176.37022 166.85544 177.71338 166.85544 179.37022Z" fill-rule="nonzero"/><path fill="#000000" fill-opacity="0.0" clip-path="url(#id_0)" d="M171.88911 175.48694C171.88911 177.1438 170.54596 178.48694 168.88911 178.48694C167.23225 178.48694 165.88911 177.1438 165.88911 175.48694C165.88911 173.8301 167.23225 172.48694 168.88911 172.48694C170.54596 172.48694 171.88911 173.8301 171.88911 175.48694Z" fill-rule="nonzero"/><path fill="#000000" fill-opacity="0.0" clip-path="url(#id_0)" d="M176.92278 171.75125C176.92278 173.40811 175.57962 174.75125 173.92278 174.75125C172.26591 174.75125 170.92278 173.40811 170.92278 171.75125C170.92278 170.0944 172.26591 168.75125 173.92278 168.75125C175.57962 168.75125 176.92278 170.0944 176.92278 171.75125Z" fill-rule="nonzero"/><path fill="#000000" fill-opacity="0.0" clip-path="url(#id_0)" d="M181.95644 168.15215C181.95644 169.80899 180.6133 171.15215 178.95644 171.15215C177.29958 171.15215 175.95644 169.80899 175.95644 168.15215C175.95644 166.49529 177.29958 165.15215 178.95644 165.15215C180.6133 165.15215 181.95644 166.49529 181.95644 168.15215Z" fill-rule="nonzero"/><path fill="#000000" fill-opacity="0.0" clip-path="url(#id_0)" d="M186.9901 164.68C186.9901 166.33685 185.64696 167.68 183.9901 167.68C182.33325 167.68 180.9901 166.33685 180.9901 164.68C180.9901 163.02315 182.33325 161.68 183.9901 161.68C185.64696 161.68 186.9901 163.02315 186.9901 164.68Z" fill-rule="nonzero"/><path fill="#000000" fill-opacity="0.0" clip-path="url(#id_0)" d="M192.02376 161.3264C192.02376 162.98325 190.68062 164.3264 189.02376 164.3264C187.36691 164.3264 186.02376 162.98325 186.02376 161.3264C186.02376 159.66954 187.36691 158.3264 189.02376 158.3264C190.68062 158.3264 192.02376 159.66954 192.02376 161.3264Z" fill-rule="nonzero"/><path fill="#000000" fill-opacity="0.0" clip-path="url(#id_0)" d="M197.05742 158.08388C197.05742 159.74074 195.71428 161.08388 194.05742 161.08388C192.40057 161.08388 191.05742 159.74074 191.05742 158.08388C191.05742 156.42703 192.40057 155.08388 194.05742 155.08388C195.71428 155.08388 197.05742 156.42703 197.05742 158.08388Z" fill-rule="nonzero"/><path fill="#000000" fill-opacity="0.0" clip-path="url(#id_0)" d="M202.0911 154.94583C202.0911 156.60269 200.74794 157.94583 199.0911 157.94583C197.43423 157.94583 196.0911 156.60269 196.0911 154.94583C196.0911 153.28899 197.43423 151.94583 199.0911 151.94583C200.74794 151.94583 202.0911 153.28899 202.0911 154.94583Z" fill-rule="nonzero"/><path fill="#000000" fill-opacity="0.0" clip-path="url(#id_0)" d="M207.12476 151.90636C207.12476 153.5632 205.7816 154.90636 204.12476 154.90636C202.4679 154.90636 201.12476 153.5632 201.12476 151.90636C201.12476 150.2495 202.4679 148.90636 204.12476 148.90636C205.7816 148.90636 207.12476 150.2495 207.12476 151.90636Z" fill-rule="nonzero"/><path fill="#000000" fill-opacity="0.0" clip-path="url(#id_0)" d="M212.15842 148.96011C212.15842 150.61696 210.81528 151.96011 209.15842 151.96011C207.50156 151.96011 206.15842 150.61696 206.15842 148.96011C206.15842 147.30325 207.50156 145.96011 209.15842 145.96011C210.81528 145.96011 212.15842 147.30325 212.15842 148.96011Z" fill-rule="nonzero"/><path fill="#000000" fill-opacity="0.0" clip-path="url(#id_0)" d="M217.19208 146.10233C217.19208 147.75917 215.84894 149.10233 214.19208 149.10233C212.53523 149.10233 211.19208 147.75917 211.19208 146.10233C211.19208 144.44547 212.53523 143.10233 214.19208 143.10233C215.84894 143.10233 217.19208 144.44547 217.19208 146.10233Z" fill-rule="nonzero"/><path fill="#000000" fill-opacity="0.0" clip-path="url(#id_0)" d="M222.22574 143.32866C222.22574 144.9855 220.8826 146.32866 219.22574 146.32866C217.5689 146.32866 216.22574 144.9855 216.22574 143.32866C216.22574 141.6718 217.5689 140.32866 219.22574 140.32866C220.8826 140.32866 222.22574 141.6718 222.22574 143.32866Z" fill-rule="nonzero"/><path fill="#000000" fill-opacity="0.0" clip-path="url(#id_0)" d="M227.2594 140.63516C227.2594 142.29202 225.91626 143.63516 224.2594 143.63516C222.60255 143.63516 221.2594 142.29202 221.2594 140.63516C221.2594 138.97832 222.60255 137.63516 224.2594 137.63516C225.91626 137.63516 227.2594 138.97832 227.2594 140.63516Z" fill-rule="nonzero"/><path fill="#000000" fill-opacity="0.0" clip-path="url(#id_0)" d="M232.29308 138.01826C232.29308 139.67513 230.94992 141.01826 229.29308 141.01826C227.63622 141.01826 226.29308 139.67513 226.29308 138.01826C226.29308 136.3614 227.63622 135.01826 229.29308 135.01826C230.94992 135.01826 232.29308 136.3614 232.29308 138.01826Z" fill-rule="nonzero"/><path fill="#000000" fill-opacity="0.0" clip-path="url(#id_0)" d="M237.32674 135.47466C237.32674 137.1315 235.98358 138.47466 234.32674 138.47466C232.66988 138.47466 231.32674 137.1315 231.32674 135.47466C231.32674 133.8178 232.66988 132.47466 234.32674 132.47466C235.98358 132.47466 237.32674 133.8178 237.32674 135.47466Z" fill-rule="nonzero"/><path fill="#000000" fill-opacity="0.0" clip-path="url(#id_0)" d="M242.3604 133.00131C242.3604 134.65816 241.01726 136.00131 239.3604 136.00131C237.70354 136.00131 236.3604 134.65816 236.3604 133.00131C236.3604 131.34445 237.70354 130.00131 239.3604 130.00131C241.01726 130.00131 242.3604 131.34445 242.3604 133.00131Z" fill-rule="nonzero"/><path fill="#000000" fill-opacity="0.0" clip-path="url(#id_0)" d="M247.39406 130.59546C247.39406 132.25232 246.05092 133.59546 244.39406 133.59546C242.7372 133.59546 241.39406 132.25232 241.39406 130.59546C241.39406 128.93861 242.7372 127.59546 244.39406 127.59546C246.05092 127.59546 247.39406 128.93861 247.39406 130.59546Z" fill-rule="nonzero"/><path fill="#000000" fill-opacity="0.0" clip-path="url(#id_0)" d="M252.42772 128.25455C252.42772 129.91139 251.08458 131.25455 249.42772 131.25455C247.77087 131.25455 246.42772 129.91139 246.42772 128.25455C246.42772 126.59769 247.77087 125.25454 249.42772 125.25454C251.08458 125.25454 252.42772 126.59769 252.42772 128.25455Z" fill-rule="nonzero"/><path fill="#000000" fill-opacity="0.0" clip-path="url(#id_0)" d="M257.4614 125.97617C257.4614 127.633026 256.11826 128.97618 254.46138 128.97618C252.80453 128.97618 251.46138 127.633026 251.46138 125.97617C251.46138 124.31932 252.80453 122.97617 254.46138 122.97617C256.11826 122.97617 257.4614 124.31932 257.4614 125.97617Z" fill-rule="nonzero"/><path fill="#000000" fill-opacity="0.0" clip-path="url(#id_0)" d="M262.49506 123.75817C262.49506 125.41502 261.15192 126.75817 259.49506 126.75817C257.8382 126.75817 256.49506 125.41502 256.49506 123.75817C256.49506 122.10131 257.8382 120.75817 259.49506 120.75817C261.15192 120.75817 262.49506 122.10131 262.49506 123.75817Z" fill-rule="nonzero"/><path fill="#000000" fill-opacity="0.0" clip-path="url(#id_0)" d="M267.52872 121.59847C267.52872 123.255325 266.18558 124.59847 264.52872 124.59847C262.87186 124.59847 261.52872 123.255325 261.52872 121.59847C261.52872 119.94162 262.87186 118.59847 264.52872 118.59847C266.18558 118.59847 267.52872 119.94162 267.52872 121.59847Z" fill-rule="nonzero"/><path fill="#000000" fill-opacity="0.0" clip-path="url(#id_0)" d="M272.56238 119.49519C272.56238 121.15205 271.21924 122.49519 269.56238 122.49519C267.90552 122.49519 266.56238 121.15205 266.56238 119.49519C266.56238 117.83834 267.90552 116.49519 269.56238 116.49519C271.21924 116.49519 272.56238 117.83834 272.56238 119.49519Z" fill-rule="nonzero"/><path fill="#000000" fill-opacity="0.0" clip-path="url(#id_0)" d="M277.59604 117.44655C277.59604 119.1034 276.2529 120.44655 274.59604 120.44655C272.93918 120.44655 271.59604 119.1034 271.59604 117.44655C271.59604 115.789696 272.93918 114.44655 274.59604 114.44655C276.2529 114.44655 277.59604 115.789696 277.59604 117.44655Z" fill-rule="nonzero"/><path fill="#000000" fill-opacity="0.0" clip-path="url(#id_0)" d="M282.6297 115.45089C282.6297 117.10774 281.28656 118.45089 279.6297 118.45089C277.97284 118.45089 276.6297 117.10774 276.6297 115.45089C276.6297 113.79404 277.97284 112.45089 279.6297 112.45089C281.28656 112.45089 282.6297 113.79404 282.6297 115.45089Z" fill-rule="nonzero"/><path fill="#000000" fill-opacity="0.0" clip-path="url(#id_0)" d="M287.66336 113.50667C287.66336 115.16352 286.32022 116.50667 284.66336 116.50667C283.0065 116.50667 281.66336 115.16352 281.66336 113.50667C281.66336 111.849815 283.0065 110.50667 284.66336 110.50667C286.32022 110.50667 287.66336 111.849815 287.66336 113.50667Z" fill-rule="nonzero"/><path fill="#000000" fill-opacity="0.0" clip-path="url(#id_0)" d="M292.69702 111.61243C292.69702 113.26928 291.35388 114.61243 289.69702 114.61243C288.04016 114.61243 286.69702 113.26928 286.69702 111.61243C286.69702 109.95557 288.04016 108.61243 289.69702 108.61243C291.35388 108.61243 292.69702 109.95557 292.69702 111.61243Z" fill-rule="nonzero"/><path fill="#000000" fill-opacity="0.0" clip-path="url(#id_0)" d="M297.73068 109.7668C297.73068 111.42365 296.38754 112.7668 294.73068 112.7668C293.07385 112.7668 291.73068 111.42365 291.73068 109.7668C291.73068 108.10995 293.07385 106.7668 294.73068 106.7668C296.38754 106.7668 297.73068 108.10995 297.73068 109.7668Z" fill-rule="nonzero"/><path fill="#000000" fill-opacity="0.0" clip-path="url(#id_0)" d="M302.76434 107.96851C302.76434 109.62537 301.4212 110.96851 299.76434 110.96851C298.1075 110.96851 296.76434 109.62537 296.76434 107.96851C296.76434 106.31166 298.1075 104.96851 299.76434 104.96851C301.4212 104.96851 302.76434 106.31166 302.76434 107.96851Z" fill-rule="nonzero"/><path fill="#000000" fill-opacity="0.0" clip-path="url(#id_0)" d="M307.79803 106.21636C307.79803 107.873215 306.45486 109.21636 304.79803 109.21636C303.14117 109.21636 301.79803 107.873215 301.79803 106.21636C301.79803 104.5595 303.14117 103.21636 304.79803 103.21636C306.45486 103.21636 307.79803 104.5595 307.79803 106.21636Z" fill-rule="nonzero"/><path fill="#000000" fill-opacity="0.0" clip-path="url(#id_0)" d="M312.8317 104.5092C312.8317 106.16606 311.48853 107.5092 309.8317 107.5092C308.17484 107.5092 306.8317 106.16606 306.8317 104.5092C306.8317 102.85235 308.17484 101.5092 309.8317 101.5092C311.48853 101.5092 312.8317 102.85235 312.8317 104.5092Z" fill-rule="nonzero"/><path fill="#000000" fill-opacity="0.0" clip-path="url(#id_0)" d="M317.86536 102.84598C317.86536 104.50283 316.5222 105.84598 314.86536 105.84598C313.2085 105.84598 311.86536 104.50283 311.86536 102.84598C311.86536 101.189125 313.2085 99.84598 314.86536 99.84598C316.5222 99.84598 317.86536 101.189125 317.86536 102.84598Z" fill-rule="nonzero"/><path fill="#000000" fill-opacity="0.0" clip-path="url(#id_0)" d="M322.89902 101.22567C322.89902 102.88252 321.55588 104.22567 319.89902 104.22567C318.24216 104.22567 316.89902 102.88252 316.89902 101.22567C316.89902 99.56882 318.24216 98.22567 319.89902 98.22567C321.55588 98.22567 322.89902 99.56882 322.89902 101.22567Z" fill-rule="nonzero"/><path fill="#000000" fill-opacity="0.0" clip-path="url(#id_0)" d="M327.93268 99.64732C327.93268 101.304184 326.58954 102.64732 324.93268 102.64732C323.27582 102.64732 321.93268 101.304184 321.93268 99.64732C321.93268 97.99047 323.27582 96.64732 324.93268 96.64732C326.58954 96.64732 327.93268 97.99047 327.93268 99.64732Z" fill-rule="nonzero"/><path fill="#000000" fill-opacity="0.0" clip-path="url(#id_0)" d="M332.96634 98.11005C332.96634 99.7669 331.6232 101.11005 329.96634 101.11005C328.30948 101.11005 326.96634 99.7669 326.96634 98.11005C326.96634 96.453186 328.30948 95.11005 329.96634 95.11005C331.6232 95.11005 332.96634 96.453186 332.96634 98.11005Z" fill-rule="nonzero"/><path fill="#000000" fill-opacity="0.0" clip-path="url(#id_0)" d="M338.0 96.61297C338.0 98.26982 336.65686 99.61297 335.0 99.61297C333.34314 99.61297 332.0 98.26982 332.0 96.61297C332.0 94.956116 333.34314 93.61297 335.0 93.61297C336.65686 93.61297 338.0 94.956116 338.0 96.61297Z" fill-rule="nonzero"/><path fill="#000000" fill-opacity="0.0" clip-path="url(#id_0)" d="M343.03366 95.15529C343.03366 96.81214 341.69052 98.15529 340.03366 98.15529C338.3768 98.15529 337.03366 96.81214 337.03366 95.15529C337.03366 93.498436 338.3768 92.15529 340.03366 92.15529C341.69052 92.15529 343.03366 93.498436 343.03366 95.15529Z" fill-rule="nonzero"/><path fill="#000000" fill-opacity="0.0" clip-path="url(#id_0)" d="M348.06732 93.73624C348.06732 95.39309 346.72418 96.73624 345.06732 96.73624C343.41046 96.73624 342.06732 95.39309 342.06732 93.73624C342.06732 92.079384 343.41046 90.73624 345.06732 90.73624C346.72418 90.73624 348.06732 92.079384 348.06732 93.73624Z" fill-rule="nonzero"/><path fill="#000000" fill-opacity="0.0" clip-path="url(#id_0)" d="M353.10098 92.35509C353.10098 94.01194 351.75784 95.35509 350.10098 95.35509C348.44412 95.35509 347.10098 94.01194 347.10098 92.35509C347.10098 90.698235 348.44412 89.35509 350.10098 89.35509C351.75784 89.35509 353.10098 90.698235 353.10098 92.35509Z" fill-rule="nonzero"/><path fill="#000000" fill-opacity="0.0" clip-path="url(#id_0)" d="M358.13464 91.01115C358.13464 92.668 356.7915 94.01115 355.13464 94.01115C353.4778 94.01115 352.13464 92.668 352.13464 91.01115C352.13464 89.354294 353.4778 88.01115 355.13464 88.01115C356.7915 88.01115 358.13464 89.354294 358.13464 91.01115Z" fill-rule="nonzero"/><path fill="#000000" fill-opacity="0.0" clip-path="url(#id_0)" d="M363.1683 89.70376C363.1683 91.36061 361.82516 92.70376 360.1683 92.70376C358.51147 92.70376 357.1683 91.36061 357.1683 89.70376C357.1683 88.046906 358.51147 86.70376 360.1683 86.70376C361.82516 86.70376 363.1683 88.046906 363.1683 89.70376Z" fill-rule="nonzero"/><path fill="#000000" fill-opacity="0.0" clip-path="url(#id_0)" d="M368.20197 88.432304C368.20197 90.08916 366.85883 91.432304 365.20197 91.432304C363.54514 91.432304 362.20197 90.08916 362.20197 88.432304C362.20197 86.77545 363.54514 85.432304 365.20197 85.432304C366.85883 85.432304 368.20197 86.77545 368.20197 88.432304Z" fill-rule="nonzero"/><path fill="#000000" fill-opacity="0.0" clip-path="url(#id_0)" d="M373.23566 87.19618C373.23566 88.853035 371.8925 90.19618 370.23566 90.19618C368.5788 90.19618 367.23566 88.853035 367.23566 87.19618C367.23566 85.53933 368.5788 84.19618 370.23566 84.19618C371.8925 84.19618 373.23566 85.53933 373.23566 87.19618Z" fill-rule="nonzero"/><path fill="#000000" fill-opacity="0.0" clip-path="url(#id_0)" d="M378.26932 85.994835C378.26932 87.65169 376.92615 88.994835 375.26932 88.994835C373.61246 88.994835 372.26932 87.65169 372.26932 85.994835C372.26932 84.337975 373.61246 82.994835 375.26932 82.994835C376.92615 82.994835 378.26932 84.337975 378.26932 85.994835Z" fill-rule="nonzero"/><path fill="#000000" fill-opacity="0.0" clip-path="url(#id_0)" d="M383.30298 84.82772C383.30298 86.48457 381.95984 87.82772 380.30298 87.82772C378.64612 87.82772 377.30298 86.48457 377.30298 84.82772C377.30298 83.17086 378.64612 81.82772 380.30298 81.82772C381.95984 81.82772 383.30298 83.17086 383.30298 84.82772Z" fill-rule="nonzero"/><path fill="#000000" fill-opacity="0.0" clip-path="url(#id_0)" d="M388.33664 83.69433C388.33664 85.35118 386.9935 86.69433 385.33664 86.69433C383.67978 86.69433 382.33664 85.35118 382.33664 83.69433C382.33664 82.037476 383.67978 80.69433 385.33664 80.69433C386.9935 80.69433 388.33664 82.037476 388.33664 83.69433Z" fill-rule="nonzero"/><path fill="#000000" fill-opacity="0.0" clip-path="url(#id_0)" d="M393.3703 82.59417C393.3703 84.25103 392.02716 85.59417 390.3703 85.59417C388.71344 85.59417 387.3703 84.25103 387.3703 82.59417C387.3703 80.93732 388.71344 79.59417 390.3703 79.59417C392.02716 79.59417 393.3703 80.93732 393.3703 82.59417Z" fill-rule="nonzero"/><path fill="#000000" fill-opacity="0.0" clip-path="url(#id_0)" d="M398.40396 81.526794C398.40396 83.18365 397.06082 84.526794 395.40396 84.526794C393.7471 84.526794 392.40396 83.18365 392.40396 81.526794C392.40396 79.869934 393.7471 78.526794 395.40396 78.526794C397.06082 78.526794 398.40396 79.869934 398.40396 81.526794Z" fill-rule="nonzero"/><path fill="#000000" fill-opacity="0.0" clip-path="url(#id_0)" d="M403.43762 80.491745C403.43762 82.1486 402.09448 83.491745 400.43762 83.491745C398.78076 83.491745 397.43762 82.1486 397.43762 80.491745C397.43762 78.834885 398.78076 77.491745 400.43762 77.491745C402.09448 77.491745 403.43762 78.834885 403.43762 80.491745Z" fill-rule="nonzero"/><path fill="#000000" fill-opacity="0.0" clip-path="url(#id_0)" d="M408.47128 79.4886C408.47128 81.14546 407.12814 82.4886 405.47128 82.4886C403.81442 82.4886 402.47128 81.14546 402.47128 79.4886C402.47128 77.83175 403.81442 76.4886 405.47128 76.4886C407.12814 76.4886 408.47128 77.83175 408.47128 79.4886Z" fill-rule="nonzero"/><path fill="#000000" fill-opacity="0.0" clip-path="url(#id_0)" d="M413.50494 78.516975C413.50494 80.17383 412.1618 81.516975 410.50494 81.516975C408.84808 81.516975 407.50494 80.17383 407.50494 78.516975C407.50494 76.86012 408.84808 75.516975 410.50494 75.516975C412.1618 75.516975 413.50494 76.86012 413.50494 78.516975Z" fill-rule="nonzero"/><path fill="#000000" fill-opacity="0.0" clip-path="url(#id_0)" d="M418.5386 77.57648C418.5386 79.23333 417.19547 80.57648 415.5386 80.57648C413.88174 80.57648 412.5386 79.23333 412.5386 77.57648C412.5386 75.919624 413.88174 74.57648 415.5386 74.57648C417.19547 74.57648 418.5386 75.919624 418.5386 77.57648Z" fill-rule="nonzero"/><path fill="#000000" fill-opacity="0.0" clip-path="url(#id_0)" d="M423.57227 76.66675C423.57227 78.3236 422.22913 79.66675 420.57227 79.66675C418.91544 79.66675 417.57227 78.3236 417.57227 76.66675C417.57227 75.00989 418.91544 73.66675 420.57227 73.66675C422.22913 73.66675 423.57227 75.00989 423.57227 76.66675Z" fill-rule="nonzero"/><path fill="#000000" fill-opacity="0.0" clip-path="url(#id_0)" d="M428.60593 75.78743C428.60593 77.44428 427.2628 78.78743 425.60593 78.78743C423.9491 78.78743 422.60593 77.44428 422.60593 75.78743C422.60593 74.13058 423.9491 72.78743 425.60593 72.78743C427.2628 72.78743 428.60593 74.13058 428.60593 75.78743Z" fill-rule="nonzero"/><path fill="#000000" fill-opacity="0.0" clip-path="url(#id_0)" d="M433.63962 74.93821C433.63962 76.59506 432.29645 77.93821 430.63962 77.93821C428.98276 77.93821 427.63962 76.59506 427.63962 74.93821C427.63962 73.28135 428.98276 71.93821 430.63962 71.93821C432.29645 71.93821 433.63962 73.28135 433.63962 74.93821Z" fill-rule="nonzero"/><path fill="#000000" fill-opacity="0.0" clip-path="url(#id_0)" d="M438.67328 74.11876C438.67328 75.77561 437.3301 77.11876 435.67328 77.11876C434.01642 77.11876 432.67328 75.77561 432.67328 74.11876C432.67328 72.4619 434.01642 71.11876 435.67328 71.11876C437.3301 71.11876 438.67328 72.4619 438.67328 74.11876Z" fill-rule="nonzero"/><path fill="#000000" fill-opacity="0.0" clip-path="url(#id_0)" d="M443.70694 73.32878C443.70694 74.985634 442.3638 76.32878 440.70694 76.32878C439.05008 76.32878 437.70694 74.985634 437.70694 73.32878C437.70694 71.67193 439.05008 70.32878 440.70694 70.32878C442.3638 70.32878 443.70694 71.67193 443.70694 73.32878Z" fill-rule="nonzero"/><path fill="#000000" fill-opacity="0.0" clip-path="url(#id_0)" d="M448.7406 72.568C448.7406 74.22485 447.39746 75.568 445.7406 75.568C444.08374 75.568 442.7406 74.22485 442.7406 72.568C442.7406 70.91115 444.08374 69.568 445.7406 69.568C447.39746 69.568 448.7406 70.91115 448.7406 72.568Z" fill-rule="nonzero"/><path fill="#000000" fill-opacity="0.0" clip-path="url(#id_0)" d="M453.77426 71.836136C453.77426 73.493 452.43112 74.836136 450.77426 74.836136C449.1174 74.836136 447.77426 73.493 447.77426 71.836136C447.77426 70.17928 449.1174 68.836136 450.77426 68.836136C452.43112 68.836136 453.77426 70.17928 453.77426 71.836136Z" fill-rule="nonzero"/><path fill="#000000" fill-opacity="0.0" clip-path="url(#id_0)" d="M458.80792 71.13294C458.80792 72.789795 457.46478 74.13294 455.80792 74.13294C454.15106 74.13294 452.80792 72.789795 452.80792 71.13294C452.80792 69.47609 454.15106 68.13294 455.80792 68.13294C457.46478 68.13294 458.80792 69.47609 458.80792 71.13294Z" fill-rule="nonzero"/><path fill="#000000" fill-opacity="0.0" clip-path="url(#id_0)" d="M463.84158 70.45817C463.84158 72.11502 462.49844 73.45817 460.84158 73.45817C459.18472 73.45817 457.84158 72.11502 457.84158 70.45817C457.84158 68.80131 459.18472 67.45817 460.84158 67.45817C462.49844 67.45817 463.84158 68.80131 463.84158 70.45817Z" fill-rule="nonzero"/><path fill="#000000" fill-opacity="0.0" clip-path="url(#id_0)" d="M468.87524 69.81158C468.87524 71.46843 467.5321 72.81158 465.87524 72.81158C464.21838 72.81158 462.87524 71.46843 462.87524 69.81158C462.87524 68.154724 464.21838 66.81158 465.87524 66.81158C467.5321 66.81158 468.87524 68.154724 468.87524 69.81158Z" fill-rule="nonzero"/><path fill="#000000" fill-opacity="0.0" clip-path="url(#id_0)" d="M473.9089 69.192955C473.9089 70.849815 472.56577 72.192955 470.9089 72.192955C469.25204 72.192955 467.9089 70.849815 467.9089 69.192955C467.9089 67.5361 469.25204 66.192955 470.9089 66.192955C472.56577 66.192955 473.9089 67.5361 473.9089 69.192955Z" fill-rule="nonzero"/><path fill="#000000" fill-opacity="0.0" clip-path="url(#id_0)" d="M478.94257 68.6021C478.94257 70.25896 477.59943 71.6021 475.94257 71.6021C474.2857 71.6021 472.94257 70.25896 472.94257 68.6021C472.94257 66.945244 474.2857 65.6021 475.94257 65.6021C477.59943 65.6021 478.94257 66.945244 478.94257 68.6021Z" fill-rule="nonzero"/><path fill="#000000" fill-opacity="0.0" clip-path="url(#id_0)" d="M483.97623 68.0388C483.97623 69.69566 482.6331 71.0388 480.97623 71.0388C479.3194 71.0388 477.97623 69.69566 477.97623 68.0388C477.97623 66.38195 479.3194 65.0388 480.97623 65.0388C482.6331 65.0388 483.97623 66.38195 483.97623 68.0388Z" fill-rule="nonzero"/><path fill="#000000" fill-opacity="0.0" clip-path="url(#id_0)" d="M489.0099 67.50289C489.0099 69.159744 487.66675 70.50289 486.0099 70.50289C484.35306 70.50289 483.0099 69.159744 483.0099 67.50289C483.0099 65.84604 484.35306 64.50289 486.0099 64.50289C487.66675 64.50289 489.0099 65.84604 489.0099 67.50289Z" fill-rule="nonzero"/><path fill="#000000" fill-opacity="0.0" clip-path="url(#id_0)" d="M494.04358 66.99418C494.04358 68.65103 492.7004 69.99418 491.04358 69.99418C489.38672 69.99418 488.04358 68.65103 488.04358 66.99418C488.04358 65.337326 489.38672 63.99418 491.04358 63.99418C492.7004 63.99418 494.04358 65.337326 494.04358 66.99418Z" fill-rule="nonzero"/><path fill="#000000" fill-opacity="0.0" clip-path="url(#id_0)" d="M499.07724 66.512505C499.07724 68.16936 497.73407 69.512505 496.07724 69.512505C494.42038 69.512505 493.07724 68.16936 493.07724 66.512505C493.07724 64.85565 494.42038 63.512505 496.07724 63.512505C497.73407 63.512505 499.07724 64.85565 499.07724 66.512505Z" fill-rule="nonzero"/><path fill="#000000" fill-opacity="0.0" clip-path="url(#id_0)" d="M504.1109 66.05772C504.1109 67.71457 502.76773 69.05772 501.1109 69.05772C499.45404 69.05772 498.1109 67.71457 498.1109 66.05772C498.1109 64.400856 499.45404 63.057713 501.1109 63.057713C502.76773 63.057713 504.1109 64.400856 504.1109 66.05772Z" fill-rule="nonzero"/><path fill="#000000" fill-opacity="0.0" clip-path="url(#id_0)" d="M509.14456 65.62966C509.14456 67.286514 507.80142 68.62966 506.14456 68.62966C504.4877 68.62966 503.14456 67.286514 503.14456 65.62966C503.14456 63.972805 504.4877 62.62966 506.14456 62.62966C507.80142 62.62966 509.14456 63.972805 509.14456 65.62966Z" fill-rule="nonzero"/><path fill="#000000" fill-opacity="0.0" clip-path="url(#id_0)" d="M514.1782 65.22821C514.1782 66.88506 512.8351 68.22821 511.17822 68.22821C509.52136 68.22821 508.17822 66.88506 508.17822 65.22821C508.17822 63.571354 509.52136 62.22821 511.17822 62.22821C512.8351 62.22821 514.1782 63.571354 514.1782 65.22821Z" fill-rule="nonzero"/><path fill="#000000" fill-opacity="0.0" clip-path="url(#id_0)" d="M519.21185 64.85323C519.21185 66.510086 517.8687 67.85323 516.21185 67.85323C514.55505 67.85323 513.21185 66.510086 513.21185 64.85323C513.21185 63.19638 514.55505 61.853237 516.21185 61.853237C517.8687 61.853237 519.21185 63.19638 519.21185 64.85323Z" fill-rule="nonzero"/><path fill="#000000" fill-opacity="0.0" clip-path="url(#id_0)" d="M524.24554 64.504616C524.24554 66.161476 522.9024 67.504616 521.24554 67.504616C519.5887 67.504616 518.24554 66.161476 518.24554 64.504616C518.24554 62.847767 519.5887 61.50462 521.24554 61.50462C522.9024 61.50462 524.24554 62.847767 524.24554 64.504616Z" fill-rule="nonzero"/><path fill="#000000" fill-opacity="0.0" clip-path="url(#id_0)" d="M529.27924 64.18225C529.27924 65.83911 527.93604 67.18225 526.27924 67.18225C524.6224 67.18225 523.27924 65.83911 523.27924 64.18225C523.27924 62.5254 524.6224 61.182255 526.27924 61.182255C527.93604 61.182255 529.27924 62.5254 529.27924 64.18225Z" fill-rule="nonzero"/><path fill="#000000" fill-opacity="0.0" clip-path="url(#id_0)" d="M534.31287 63.88604C534.31287 65.54289 532.9697 66.88604 531.31287 66.88604C529.656 66.88604 528.31287 65.54289 528.31287 63.88604C528.31287 62.229183 529.656 60.88604 531.31287 60.88604C532.9697 60.88604 534.31287 62.229183 534.31287 63.88604Z" fill-rule="nonzero"/><path fill="#000000" fill-opacity="0.0" clip-path="url(#id_0)" d="M539.34656 63.615883C539.34656 65.272736 538.0034 66.61588 536.34656 66.61588C534.6897 66.61588 533.34656 65.272736 533.34656 63.615883C533.34656 61.959026 534.6897 60.615883 536.34656 60.615883C538.0034 60.615883 539.34656 61.959026 539.34656 63.615883Z" fill-rule="nonzero"/><path fill="#000000" fill-opacity="0.0" clip-path="url(#id_0)" d="M544.3802 63.3717C544.3802 65.02856 543.03705 66.371704 541.3802 66.371704C539.7233 66.371704 538.3802 65.02856 538.3802 63.3717C538.3802 61.714848 539.7233 60.3717 541.3802 60.3717C543.03705 60.3717 544.3802 61.714848 544.3802 63.3717Z" fill-rule="nonzero"/><path fill="#000000" fill-opacity="0.0" clip-path="url(#id_0)" d="M549.4139 63.15342C549.4139 64.81027 548.07074 66.15342 546.4139 66.15342C544.757 66.15342 543.4139 64.81027 543.4139 63.15342C543.4139 61.496567 544.757 60.15342 546.4139 60.15342C548.07074 60.15342 549.4139 61.496567 549.4139 63.15342Z" fill-rule="nonzero"/><path fill="#000000" fill-opacity="0.0" clip-path="url(#id_0)" d="M554.4475 62.960976C554.4475 64.61783 553.1044 65.960976 551.4475 65.960976C549.79065 65.960976 548.4475 64.61783 548.4475 62.960976C548.4475 61.304123 549.79065 59.960976 551.4475 59.960976C553.1044 59.960976 554.4475 61.304123 554.4475 62.960976Z" fill-rule="nonzero"/><path fill="#000000" fill-opacity="0.0" clip-path="url(#id_0)" d="M559.4812 62.794308C559.4812 64.451164 558.13806 65.79431 556.4812 65.79431C554.82434 65.79431 553.4812 64.451164 553.4812 62.794308C553.4812 61.137455 554.82434 59.794308 556.4812 59.794308C558.13806 59.794308 559.4812 61.137455 559.4812 62.794308Z" fill-rule="nonzero"/><path fill="#000000" fill-opacity="0.0" clip-path="url(#id_0)" d="M564.51483 62.653366C564.51483 64.31022 563.1717 65.653366 561.51483 65.653366C559.858 65.653366 558.51483 64.31022 558.51483 62.653366C558.51483 60.996513 559.858 59.653366 561.51483 59.653366C563.1717 59.653366 564.51483 60.996513 564.51483 62.653366Z" fill-rule="nonzero"/><path fill="#000000" fill-opacity="0.0" clip-path="url(#id_0)" d="M569.5485 62.53811C569.5485 64.19496 568.2054 65.53811 566.5485 65.53811C564.89166 65.53811 563.5485 64.19496 563.5485 62.53811C563.5485 60.881256 564.89166 59.53811 566.5485 59.53811C568.2054 59.53811 569.5485 60.881256 569.5485 62.53811Z" fill-rule="nonzero"/><path fill="#000000" fill-opacity="0.0" clip-path="url(#id_0)" d="M574.58215 62.448498C574.58215 64.105354 573.239 65.4485 571.58215 65.4485C569.92535 65.4485 568.58215 64.105354 568.58215 62.448498C568.58215 60.791645 569.92535 59.448498 571.58215 59.448498C573.239 59.448498 574.58215 60.791645 574.58215 62.448498Z" fill-rule="nonzero"/><path fill="#000000" fill-opacity="0.0" clip-path="url(#id_0)" d="M579.61584 62.38451C579.61584 64.04137 578.2727 65.384514 576.61584 65.384514C574.959 65.384514 573.61584 64.04137 573.61584 62.38451C573.61584 60.727657 574.959 59.38451 576.61584 59.38451C578.2727 59.38451 579.61584 60.727657 579.61584 62.38451Z" fill-rule="nonzero"/><path fill="#000000" fill-opacity="0.0" clip-path="url(#id_0)" d="M584.6495 62.346127C584.6495 64.00298 583.30634 65.34613 581.6495 65.34613C579.9927 65.34613 578.6495 64.00298 578.6495 62.346127C578.6495 60.689274 579.9927 59.346127 581.6495 59.346127C583.30634 59.346127 584.6495 60.689274 584.6495 62.346127Z" fill-rule="nonzero"/><path fill="#000000" fill-opacity="0.0" clip-path="url(#id_0)" d="M589.68317 62.333332C589.68317 63.99019 588.34 65.333336 586.68317 65.333336C585.0263 65.333336 583.68317 63.99019 583.68317 62.333332C583.68317 60.67648 585.0263 59.333332 586.68317 59.333332C588.34 59.333332 589.68317 60.67648 589.68317 62.333332Z" fill-rule="nonzero"/><path fill="#000000" d="M336.59375 353.2625L336.75 354.1844Q336.29688 354.27814 335.95312 354.27814Q335.375 354.27814 335.0625 354.10626Q334.75 353.91876 334.60938 353.6219Q334.48438 353.325 334.48438 352.3719L334.48438 348.79376L333.71875 348.79376L333.71875 347.98126L334.48438 347.98126L334.48438 346.4344L335.53125 345.8094L335.53125 347.98126L336.59375 347.98126L336.59375 348.79376L335.53125 348.79376L335.53125 352.4344Q335.53125 352.8875 335.57812 353.0125Q335.64062 353.1375 335.76562 353.21564Q335.89062 353.29376 336.125 353.29376Q336.3125 353.29376 336.59375 353.2625Z" fill-rule="nonzero"/><path fill="#000000" d="M29.800013 192.67291L26.565638 190.40729L23.581263 192.50104L23.581263 191.18854L25.034388 190.23541Q25.456263 189.96979 25.737513 189.79791Q25.346888 189.54791 25.050013 189.32916L23.581263 188.28229L23.581263 187.01666L26.503138 189.17291L29.800013 186.86041L29.800013 188.14166L27.862513 189.42291L27.346888 189.76666L29.800013 191.40729L29.800013 192.67291Z" fill-rule="nonzero"/><path fill="#000000" d="M51.3 317.96564Q51.3 316.4344 51.6125 315.5125Q51.925 314.575 52.534374 314.075Q53.159374 313.575 54.096874 313.575Q54.784374 313.575 55.3 313.85626Q55.83125 314.1375 56.175 314.66876Q56.51875 315.1844 56.70625 315.9344Q56.89375 316.6844 56.89375 317.96564Q56.89375 319.48126 56.58125 320.40314Q56.284374 321.325 55.659374 321.84064Q55.05 322.34064 54.096874 322.34064Q52.8625 322.34064 52.14375 321.45Q51.3 320.3875 51.3 317.96564ZM52.378124 317.96564Q52.378124 320.075 52.878124 320.77814Q53.378124 321.48126 54.096874 321.48126Q54.83125 321.48126 55.315624 320.77814Q55.815624 320.075 55.815624 317.96564Q55.815624 315.84064 55.315624 315.15314Q54.83125 314.45 54.08125 314.45Q53.3625 314.45 52.925 315.0594Q52.378124 315.84064 52.378124 317.96564ZM58.89375 322.2L58.89375 320.9969L60.096874 320.9969L60.096874 322.2L58.89375 322.2ZM61.3 317.96564Q61.3 316.4344 61.6125 315.5125Q61.925 314.575 62.534374 314.075Q63.159374 313.575 64.09688 313.575Q64.78438 313.575 65.3 313.85626Q65.83125 314.1375 66.175 314.66876Q66.51875 315.1844 66.70625 315.9344Q66.89375 316.6844 66.89375 317.96564Q66.89375 319.48126 66.58125 320.40314Q66.28438 321.325 65.65938 321.84064Q65.05 322.34064 64.09688 322.34064Q62.8625 322.34064 62.14375 321.45Q61.3 320.3875 61.3 317.96564ZM62.378124 317.96564Q62.378124 320.075 62.878124 320.77814Q63.378124 321.48126 64.09688 321.48126Q64.83125 321.48126 65.31563 320.77814Q65.81563 320.075 65.81563 317.96564Q65.81563 315.84064 65.31563 315.15314Q64.83125 314.45 64.08125 314.45Q63.3625 314.45 62.925 315.0594Q62.378124 315.84064 62.378124 317.96564ZM68.3 317.96564Q68.3 316.4344 68.6125 315.5125Q68.925 314.575 69.53438 314.075Q70.15938 313.575 71.09688 313.575Q71.78438 313.575 72.3 313.85626Q72.83125 314.1375 73.175 314.66876Q73.51875 315.1844 73.70625 315.9344Q73.89375 316.6844 73.89375 317.96564Q73.89375 319.48126 73.58125 320.40314Q73.28438 321.325 72.65938 321.84064Q72.05 322.34064 71.09688 322.34064Q69.8625 322.34064 69.14375 321.45Q68.3 320.3875 68.3 317.96564ZM69.37813 317.96564Q69.37813 320.075 69.87813 320.77814Q70.37813 321.48126 71.09688 321.48126Q71.83125 321.48126 72.31563 320.77814Q72.81563 320.075 72.81563 317.96564Q72.81563 315.84064 72.31563 315.15314Q71.83125 314.45 71.08125 314.45Q70.3625 314.45 69.925 315.0594Q69.37813 315.84064 69.37813 317.96564Z" fill-rule="nonzero"/><path fill="#000000" d="M51.3 253.99896Q51.3 252.46771 51.6125 251.54584Q51.925 250.60834 52.534374 250.10834Q53.159374 249.60834 54.096874 249.60834Q54.784374 249.60834 55.3 249.88959Q55.83125 250.17084 56.175 250.70209Q56.51875 251.21771 56.70625 251.96771Q56.89375 252.71771 56.89375 253.99896Q56.89375 255.51459 56.58125 256.43646Q56.284374 257.35834 55.659374 257.87396Q55.05 258.37396 54.096874 258.37396Q52.8625 258.37396 52.14375 257.48334Q51.3 256.42084 51.3 253.99896ZM52.378124 253.99896Q52.378124 256.10834 52.878124 256.81146Q53.378124 257.5146 54.096874 257.5146Q54.83125 257.5146 55.315624 256.81146Q55.815624 256.10834 55.815624 253.99896Q55.815624 251.87396 55.315624 251.18646Q54.83125 250.48334 54.08125 250.48334Q53.3625 250.48334 52.925 251.09271Q52.378124 251.87396 52.378124 253.99896ZM58.89375 258.23334L58.89375 257.0302L60.096874 257.0302L60.096874 258.23334L58.89375 258.23334ZM66.84688 257.2177L66.84688 258.23334L61.159374 258.23334Q61.159374 257.85834 61.284374 257.49896Q61.503124 256.92084 61.971874 256.35834Q62.45625 255.79584 63.3625 255.06146Q64.76875 253.90521 65.25313 253.23334Q65.75313 252.56146 65.75313 251.96771Q65.75313 251.34271 65.3 250.92084Q64.84688 250.48334 64.12813 250.48334Q63.3625 250.48334 62.909374 250.93646Q62.45625 251.38959 62.440624 252.20209L61.3625 252.09271Q61.471874 250.87396 62.190624 250.24896Q62.925 249.60834 64.15938 249.60834Q65.39375 249.60834 66.1125 250.29584Q66.83125 250.98334 66.83125 251.99896Q66.83125 252.51459 66.6125 253.01459Q66.40938 253.49896 65.90938 254.06146Q65.425 254.60834 64.3 255.56146Q63.346874 256.35834 63.065624 256.6552Q62.8 256.93646 62.628124 257.2177L66.84688 257.2177ZM68.3 255.98334L69.40938 255.88959Q69.53438 256.7021 69.97188 257.10834Q70.425 257.5146 71.06563 257.5146Q71.81563 257.5146 72.34688 256.93646Q72.87813 256.35834 72.87813 255.42084Q72.87813 254.51459 72.3625 253.99896Q71.8625 253.46771 71.03438 253.46771Q70.53438 253.46771 70.1125 253.70209Q69.70625 253.93646 69.47188 254.29584L68.4875 254.17084L69.31563 249.76459L73.59688 249.76459L73.59688 250.76459L70.15938 250.76459L69.70625 253.07709Q70.47188 252.53021 71.31563 252.53021Q72.44063 252.53021 73.20625 253.31146Q73.9875 254.09271 73.9875 255.32709Q73.9875 256.48334 73.31563 257.3427Q72.4875 258.37396 71.06563 258.37396Q69.89375 258.37396 69.14375 257.7177Q68.40938 257.06146 68.3 255.98334Z" fill-rule="nonzero"/><path fill="#000000" d="M51.3 190.03229Q51.3 188.50104 51.6125 187.57916Q51.925 186.64166 52.534374 186.14166Q53.159374 185.64166 54.096874 185.64166Q54.784374 185.64166 55.3 185.92291Q55.83125 186.20416 56.175 186.73541Q56.51875 187.25104 56.70625 188.00104Q56.89375 188.75104 56.89375 190.03229Q56.89375 191.54791 56.58125 192.46979Q56.284374 193.39166 55.659374 193.90729Q55.05 194.40729 54.096874 194.40729Q52.8625 194.40729 52.14375 193.51666Q51.3 192.45416 51.3 190.03229ZM52.378124 190.03229Q52.378124 192.14166 52.878124 192.84479Q53.378124 193.54791 54.096874 193.54791Q54.83125 193.54791 55.315624 192.84479Q55.815624 192.14166 55.815624 190.03229Q55.815624 187.90729 55.315624 187.21979Q54.83125 186.51666 54.08125 186.51666Q53.3625 186.51666 52.925 187.12604Q52.378124 187.90729 52.378124 190.03229ZM58.89375 194.26666L58.89375 193.06354L60.096874 193.06354L60.096874 194.26666L58.89375 194.26666ZM61.3 192.01666L62.409374 191.92291Q62.534374 192.73541 62.971874 193.14166Q63.425 193.54791 64.06563 193.54791Q64.81563 193.54791 65.34688 192.96979Q65.87813 192.39166 65.87813 191.45416Q65.87813 190.54791 65.3625 190.03229Q64.8625 189.50104 64.03438 189.50104Q63.534374 189.50104 63.1125 189.73541Q62.70625 189.96979 62.471874 190.32916L61.4875 190.20416L62.315624 185.79791L66.59688 185.79791L66.59688 186.79791L63.159374 186.79791L62.70625 189.11041Q63.471874 188.56354 64.31563 188.56354Q65.44063 188.56354 66.20625 189.34479Q66.9875 190.12604 66.9875 191.36041Q66.9875 192.51666 66.31563 193.37604Q65.4875 194.40729 64.06563 194.40729Q62.89375 194.40729 62.14375 193.75104Q61.409374 193.09479 61.3 192.01666ZM68.3 190.03229Q68.3 188.50104 68.6125 187.57916Q68.925 186.64166 69.53438 186.14166Q70.15938 185.64166 71.09688 185.64166Q71.78438 185.64166 72.3 185.92291Q72.83125 186.20416 73.175 186.73541Q73.51875 187.25104 73.70625 188.00104Q73.89375 188.75104 73.89375 190.03229Q73.89375 191.54791 73.58125 192.46979Q73.28438 193.39166 72.65938 193.90729Q72.05 194.40729 71.09688 194.40729Q69.8625 194.40729 69.14375 193.51666Q68.3 192.45416 68.3 190.03229ZM69.37813 190.03229Q69.37813 192.14166 69.87813 192.84479Q70.37813 193.54791 71.09688 193.54791Q71.83125 193.54791 72.31563 192.84479Q72.81563 192.14166 72.81563 190.03229Q72.81563 187.90729 72.31563 187.21979Q71.83125 186.51666 71.08125 186.51666Q70.3625 186.51666 69.925 187.12604Q69.37813 187.90729 69.37813 190.03229Z" fill-rule="nonzero"/><path fill="#000000" d="M51.3 126.06563Q51.3 124.53438 51.6125 123.6125Q51.925 122.675 52.534374 122.175Q53.159374 121.675 54.096874 121.675Q54.784374 121.675 55.3 121.95625Q55.83125 122.2375 56.175 122.76875Q56.51875 123.28438 56.70625 124.03438Q56.89375 124.78438 56.89375 126.06563Q56.89375 127.58125 56.58125 128.50313Q56.284374 129.425 55.659374 129.94063Q55.05 130.44063 54.096874 130.44063Q52.8625 130.44063 52.14375 129.55Q51.3 128.4875 51.3 126.06563ZM52.378124 126.06563Q52.378124 128.175 52.878124 128.87813Q53.378124 129.58125 54.096874 129.58125Q54.83125 129.58125 55.315624 128.87813Q55.815624 128.175 55.815624 126.06563Q55.815624 123.94063 55.315624 123.25313Q54.83125 122.55 54.08125 122.55Q53.3625 122.55 52.925 123.15938Q52.378124 123.94063 52.378124 126.06563ZM58.89375 130.3L58.89375 129.09688L60.096874 129.09688L60.096874 130.3L58.89375 130.3ZM61.3625 122.83125L61.3625 121.81563L66.925 121.81563L66.925 122.64375Q66.1125 123.51875 65.3 124.97188Q64.50313 126.40938 64.06563 127.94063Q63.7375 129.01875 63.659374 130.3L62.565624 130.3Q62.58125 129.28438 62.95625 127.84688Q63.346874 126.40938 64.05 125.08125Q64.76875 123.75313 65.58125 122.83125L61.3625 122.83125ZM68.3 128.05L69.40938 127.95625Q69.53438 128.76875 69.97188 129.175Q70.425 129.58125 71.06563 129.58125Q71.81563 129.58125 72.34688 129.00313Q72.87813 128.425 72.87813 127.4875Q72.87813 126.58125 72.3625 126.06563Q71.8625 125.53438 71.03438 125.53438Q70.53438 125.53438 70.1125 125.76875Q69.70625 126.00313 69.47188 126.3625L68.4875 126.2375L69.31563 121.83125L73.59688 121.83125L73.59688 122.83125L70.15938 122.83125L69.70625 125.14375Q70.47188 124.59688 71.31563 124.59688Q72.44063 124.59688 73.20625 125.37813Q73.9875 126.15938 73.9875 127.39375Q73.9875 128.55 73.31563 129.40938Q72.4875 130.44063 71.06563 130.44063Q69.89375 130.44063 69.14375 129.78438Q68.40938 129.12813 68.3 128.05Z" fill-rule="nonzero"/><path fill="#000000" d="M55.26875 66.333336L54.221874 66.333336L54.221874 59.614586Q53.83125 59.97396 53.20625 60.34896Q52.596874 60.708336 52.1125 60.88021L52.1125 59.864586Q52.9875 59.44271 53.64375 58.864586Q54.315624 58.270836 54.596874 57.708336L55.26875 57.708336L55.26875 66.333336ZM58.89375 66.333336L58.89375 65.13021L60.096874 65.13021L60.096874 66.333336L58.89375 66.333336ZM61.3 62.09896Q61.3 60.56771 61.6125 59.645836Q61.925 58.708336 62.534374 58.208336Q63.159374 57.708336 64.09688 57.708336Q64.78438 57.708336 65.3 57.989586Q65.83125 58.270836 66.175 58.802086Q66.51875 59.31771 66.70625 60.06771Q66.89375 60.81771 66.89375 62.09896Q66.89375 63.614586 66.58125 64.53646Q66.28438 65.458336 65.65938 65.97396Q65.05 66.47396 64.09688 66.47396Q62.8625 66.47396 62.14375 65.583336Q61.3 64.520836 61.3 62.09896ZM62.378124 62.09896Q62.378124 64.208336 62.878124 64.91146Q63.378124 65.614586 64.09688 65.614586Q64.83125 65.614586 65.31563 64.91146Q65.81563 64.208336 65.81563 62.09896Q65.81563 59.97396 65.31563 59.28646Q64.83125 58.583336 64.08125 58.583336Q63.3625 58.583336 62.925 59.19271Q62.378124 59.97396 62.378124 62.09896ZM68.3 62.09896Q68.3 60.56771 68.6125 59.645836Q68.925 58.708336 69.53438 58.208336Q70.15938 57.708336 71.09688 57.708336Q71.78438 57.708336 72.3 57.989586Q72.83125 58.270836 73.175 58.802086Q73.51875 59.31771 73.70625 60.06771Q73.89375 60.81771 73.89375 62.09896Q73.89375 63.614586 73.58125 64.53646Q73.28438 65.458336 72.65938 65.97396Q72.05 66.47396 71.09688 66.47396Q69.8625 66.47396 69.14375 65.583336Q68.3 64.520836 68.3 62.09896ZM69.37813 62.09896Q69.37813 64.208336 69.87813 64.91146Q70.37813 65.614586 71.09688 65.614586Q71.83125 65.614586 72.31563 64.91146Q72.81563 64.208336 72.81563 62.09896Q72.81563 59.97396 72.31563 59.28646Q71.83125 58.583336 71.08125 58.583336Q70.3625 58.583336 69.925 59.19271Q69.37813 59.97396 69.37813 62.09896Z" fill-rule="nonzero"/><path fill="#757575" d="M20.378124 37.8L20.378124 23.4875L30.7375 23.4875L30.7375 25.175L22.284374 25.175L22.284374 29.55L30.190624 29.55L30.190624 31.2375L22.284374 31.2375L22.284374 36.1125L31.065624 36.1125L31.065624 37.8L20.378124 37.8ZM39.89375 36.51875Q38.909374 37.346874 38.003124 37.690624Q37.096874 38.034374 36.065624 38.034374Q34.3625 38.034374 33.440624 37.20625Q32.51875 36.3625 32.51875 35.065624Q32.51875 34.3 32.8625 33.675Q33.221874 33.05 33.784374 32.675Q34.346874 32.284374 35.05 32.08125Q35.565624 31.95625 36.6125 31.815624Q38.7375 31.565624 39.7375 31.221874Q39.753124 30.8625 39.753124 30.753124Q39.753124 29.690624 39.253124 29.2375Q38.58125 28.64375 37.253124 28.64375Q36.003124 28.64375 35.409374 29.08125Q34.83125 29.51875 34.55 30.628124L32.83125 30.39375Q33.065624 29.284374 33.596874 28.6125Q34.128124 27.925 35.14375 27.565624Q36.159374 27.190624 37.503124 27.190624Q38.83125 27.190624 39.659374 27.503124Q40.4875 27.815624 40.878124 28.3Q41.26875 28.76875 41.425 29.4875Q41.51875 29.940624 41.51875 31.1125L41.51875 33.45625Q41.51875 35.909374 41.628124 36.565624Q41.7375 37.20625 42.08125 37.8L40.2375 37.8Q39.971874 37.253124 39.89375 36.51875ZM39.7375 32.596874Q38.784374 32.9875 36.8625 33.253124Q35.784374 33.409374 35.33125 33.6125Q34.89375 33.8 34.64375 34.175Q34.39375 34.55 34.39375 35.01875Q34.39375 35.721874 34.925 36.190624Q35.45625 36.659374 36.4875 36.659374Q37.503124 36.659374 38.284374 36.221874Q39.08125 35.76875 39.45625 35.003124Q39.7375 34.39375 39.7375 33.2375L39.7375 32.596874ZM43.409374 34.70625L45.159374 34.425Q45.3 35.471874 45.971874 36.034374Q46.64375 36.58125 47.846874 36.58125Q49.05 36.58125 49.628124 36.096874Q50.221874 35.596874 50.221874 34.940624Q50.221874 34.346874 49.70625 34.003124Q49.346874 33.76875 47.909374 33.409374Q45.971874 32.909374 45.221874 32.565624Q44.4875 32.20625 44.096874 31.58125Q43.70625 30.940624 43.70625 30.175Q43.70625 29.4875 44.01875 28.89375Q44.346874 28.3 44.89375 27.909374Q45.3 27.6125 46.003124 27.409374Q46.721874 27.190624 47.534374 27.190624Q48.753124 27.190624 49.675 27.55Q50.596874 27.89375 51.034374 28.503124Q51.471874 29.096874 51.64375 30.096874L49.925 30.33125Q49.8 29.534374 49.2375 29.096874Q48.675 28.64375 47.659374 28.64375Q46.440624 28.64375 45.925 29.05Q45.409374 29.440624 45.409374 29.971874Q45.409374 30.315624 45.628124 30.596874Q45.83125 30.878124 46.3 31.065624Q46.565624 31.159374 47.846874 31.503124Q49.721874 32.003124 50.45625 32.33125Q51.190624 32.64375 51.6125 33.253124Q52.034374 33.846874 52.034374 34.753124Q52.034374 35.628124 51.51875 36.409374Q51.003124 37.190624 50.034374 37.6125Q49.065624 38.034374 47.846874 38.034374Q45.83125 38.034374 44.76875 37.190624Q43.70625 36.346874 43.409374 34.70625ZM61.221874 34.45625L63.034374 34.690624Q62.6125 36.26875 61.440624 37.159374Q60.284374 38.034374 58.471874 38.034374Q56.20625 38.034374 54.8625 36.64375Q53.534374 35.2375 53.534374 32.70625Q53.534374 30.08125 54.878124 28.64375Q56.221874 27.190624 58.378124 27.190624Q60.45625 27.190624 61.76875 28.6125Q63.096874 30.01875 63.096874 32.596874Q63.096874 32.753124 63.08125 33.065624L55.346874 33.065624Q55.440624 34.76875 56.315624 35.675Q57.190624 36.58125 58.4875 36.58125Q59.45625 36.58125 60.128124 36.08125Q60.815624 35.565624 61.221874 34.45625ZM55.440624 31.6125L61.2375 31.6125Q61.128124 30.315624 60.58125 29.659374Q59.7375 28.64375 58.39375 28.64375Q57.190624 28.64375 56.3625 29.45625Q55.534374 30.253124 55.440624 31.6125ZM64.76875 30.83125Q64.76875 27.26875 66.675 25.253124Q68.59688 23.221874 71.62813 23.221874Q73.6125 23.221874 75.19063 24.175Q76.78438 25.128124 77.6125 26.83125Q78.45625 28.51875 78.45625 30.659374Q78.45625 32.83125 77.58125 34.55Q76.70625 36.26875 75.08125 37.159374Q73.47188 38.05 71.6125 38.05Q69.59688 38.05 68.00313 37.08125Q66.40938 36.096874 65.58125 34.409374Q64.76875 32.70625 64.76875 30.83125ZM66.72188 30.8625Q66.72188 33.440624 68.1125 34.940624Q69.50313 36.425 71.59688 36.425Q73.7375 36.425 75.1125 34.925Q76.50313 33.409374 76.50313 30.64375Q76.50313 28.909374 75.90938 27.6125Q75.33125 26.3 74.19063 25.58125Q73.05 24.8625 71.62813 24.8625Q69.62813 24.8625 68.175 26.253124Q66.72188 27.628124 66.72188 30.8625ZM87.90938 37.8L87.90938 36.26875Q86.70625 38.034374 84.62813 38.034374Q83.70625 38.034374 82.90938 37.690624Q82.1125 37.33125 81.72188 36.8Q81.34688 36.26875 81.19063 35.4875Q81.08125 34.971874 81.08125 33.846874L81.08125 27.425L82.83125 27.425L82.83125 33.175Q82.83125 34.55 82.94063 35.034374Q83.1125 35.721874 83.64375 36.128124Q84.19063 36.51875 84.97188 36.51875Q85.76875 36.51875 86.45625 36.1125Q87.15938 35.70625 87.44063 35.01875Q87.7375 34.315624 87.7375 32.9875L87.7375 27.425L89.4875 27.425L89.4875 37.8L87.90938 37.8ZM94.95625 36.221874L95.20625 37.784374Q94.47188 37.940624 93.87813 37.940624Q92.925 37.940624 92.39375 37.64375Q91.87813 37.33125 91.65938 36.846874Q91.44063 36.346874 91.44063 34.76875L91.44063 28.8L90.15938 28.8L90.15938 27.425L91.44063 27.425L91.44063 24.8625L93.19063 23.8L93.19063 27.425L94.95625 27.425L94.95625 28.8L93.19063 28.8L93.19063 34.8625Q93.19063 35.6125 93.28438 35.83125Q93.37813 36.034374 93.58125 36.175Q93.8 36.3 94.19063 36.3Q94.47188 36.3 94.95625 36.221874ZM107.56563 32.784374L109.45625 33.253124Q108.8625 35.596874 107.31563 36.83125Q105.76875 38.05 103.51875 38.05Q101.20625 38.05 99.75313 37.1125Q98.31563 36.159374 97.55 34.378124Q96.8 32.58125 96.8 30.534374Q96.8 28.3 97.64375 26.64375Q98.50313 24.971874 100.08125 24.1125Q101.65938 23.2375 103.55 23.2375Q105.70625 23.2375 107.15938 24.33125Q108.62813 25.425 109.20625 27.409374L107.34688 27.846874Q106.84688 26.284374 105.89375 25.58125Q104.95625 24.8625 103.51875 24.8625Q101.8625 24.8625 100.75313 25.659374Q99.64375 26.440624 99.19063 27.784374Q98.75313 29.1125 98.75313 30.51875Q98.75313 32.346874 99.28438 33.721874Q99.81563 35.08125 100.94063 35.753124Q102.06563 36.425 103.3625 36.425Q104.95625 36.425 106.06563 35.503124Q107.175 34.58125 107.56563 32.784374ZM111.12813 25.503124L111.12813 23.4875L112.89375 23.4875L112.89375 25.503124L111.12813 25.503124ZM111.12813 37.8L111.12813 27.425L112.89375 27.425L112.89375 37.8L111.12813 37.8ZM115.09688 37.8L115.09688 27.425L116.675 27.425L116.675 29.003124Q117.28438 27.89375 117.8 27.55Q118.31563 27.190624 118.925 27.190624Q119.81563 27.190624 120.7375 27.753124L120.12813 29.39375Q119.4875 29.003124 118.84688 29.003124Q118.26875 29.003124 117.8 29.3625Q117.34688 29.70625 117.14375 30.315624Q116.8625 31.253124 116.8625 32.3625L116.8625 37.8L115.09688 37.8ZM128.89375 34.003124L130.6125 34.221874Q130.33125 36.01875 129.15938 37.034374Q128.00313 38.034374 126.3 38.034374Q124.175 38.034374 122.87813 36.64375Q121.58125 35.253124 121.58125 32.659374Q121.58125 30.971874 122.12813 29.721874Q122.69063 28.45625 123.83125 27.83125Q124.97188 27.190624 126.31563 27.190624Q128.00313 27.190624 129.06563 28.05Q130.14375 28.909374 130.45625 30.471874L128.7375 30.7375Q128.50313 29.690624 127.87813 29.175Q127.25313 28.64375 126.37813 28.64375Q125.05 28.64375 124.22188 29.596874Q123.39375 30.55 123.39375 32.596874Q123.39375 34.690624 124.19063 35.64375Q124.9875 36.58125 126.28438 36.58125Q127.31563 36.58125 128.00313 35.95625Q128.70625 35.315624 128.89375 34.003124ZM138.90938 37.8L138.90938 36.26875Q137.70625 38.034374 135.62813 38.034374Q134.70625 38.034374 133.90938 37.690624Q133.1125 37.33125 132.72188 36.8Q132.34688 36.26875 132.19063 35.4875Q132.08125 34.971874 132.08125 33.846874L132.08125 27.425L133.83125 27.425L133.83125 33.175Q133.83125 34.55 133.94063 35.034374Q134.1125 35.721874 134.64375 36.128124Q135.19063 36.51875 135.97188 36.51875Q136.76875 36.51875 137.45625 36.1125Q138.15938 35.70625 138.44063 35.01875Q138.7375 34.315624 138.7375 32.9875L138.7375 27.425L140.4875 27.425L140.4875 37.8L138.90938 37.8ZM142.08125 37.8L142.08125 23.4875L143.83125 23.4875L143.83125 37.8L142.08125 37.8ZM152.89375 36.51875Q151.90938 37.346874 151.00313 37.690624Q150.09688 38.034374 149.06563 38.034374Q147.3625 38.034374 146.44063 37.20625Q145.51875 36.3625 145.51875 35.065624Q145.51875 34.3 145.8625 33.675Q146.22188 33.05 146.78438 32.675Q147.34688 32.284374 148.05 32.08125Q148.56563 31.95625 149.6125 31.815624Q151.7375 31.565624 152.7375 31.221874Q152.75313 30.8625 152.75313 30.753124Q152.75313 29.690624 152.25313 29.2375Q151.58125 28.64375 150.25313 28.64375Q149.00313 28.64375 148.40938 29.08125Q147.83125 29.51875 147.55 30.628124L145.83125 30.39375Q146.06563 29.284374 146.59688 28.6125Q147.12813 27.925 148.14375 27.565624Q149.15938 27.190624 150.50313 27.190624Q151.83125 27.190624 152.65938 27.503124Q153.4875 27.815624 153.87813 28.3Q154.26875 28.76875 154.425 29.4875Q154.51875 29.940624 154.51875 31.1125L154.51875 33.45625Q154.51875 35.909374 154.62813 36.565624Q154.7375 37.20625 155.08125 37.8L153.2375 37.8Q152.97188 37.253124 152.89375 36.51875ZM152.7375 32.596874Q151.78438 32.9875 149.8625 33.253124Q148.78438 33.409374 148.33125 33.6125Q147.89375 33.8 147.64375 34.175Q147.39375 34.55 147.39375 35.01875Q147.39375 35.721874 147.925 36.190624Q148.45625 36.659374 149.4875 36.659374Q150.50313 36.659374 151.28438 36.221874Q152.08125 35.76875 152.45625 35.003124Q152.7375 34.39375 152.7375 33.2375L152.7375 32.596874ZM157.09688 37.8L157.09688 27.425L158.675 27.425L158.675 29.003124Q159.28438 27.89375 159.8 27.55Q160.31563 27.190624 160.925 27.190624Q161.81563 27.190624 162.7375 27.753124L162.12813 29.39375Q161.4875 29.003124 160.84688 29.003124Q160.26875 29.003124 159.8 29.3625Q159.34688 29.70625 159.14375 30.315624Q158.8625 31.253124 158.8625 32.3625L158.8625 37.8L157.09688 37.8Z" fill-rule="nonzero"/></svg>