<svg version="1.1" viewBox="0.0 0.0 608.0 376.0" fill="none" stroke="none" stroke-linecap="square" stroke-miterlimit="10" width="608" height="376" xmlns:xlink="http://www.w3.org/1999/xlink" xmlns="http://www.w3.org/2000/svg"><path fill="#ffffff" d="M0 0L608.0 0L608.0 376.0L0 376.0L0 0Z" fill-rule="nonzero"/><path stroke="#333333" stroke-width="1.0" stroke-linecap="butt" d="M80.5 318.5L589.5 318.5" fill-rule="nonzero"/><path stroke="#cccccc" stroke-width="1.0" stroke-linecap="butt" d="M80.5 254.5L589.5 254.5" fill-rule="nonzero"/><path stroke="#cccccc" stroke-width="1.0" stroke-linecap="butt" d="M80.5 190.5L589.5 190.5" fill-rule="nonzero"/><path stroke="#cccccc" stroke-width="1.0" stroke-linecap="butt" d="M80.5 126.5L589.5 126.5" fill-rule="nonzero"/><path stroke="#cccccc" stroke-width="1.0" stroke-linecap="butt" d="M80.5 62.5L589.5 62.5" fill-rule="nonzero"/><path stroke="#000000" stroke-width="1.0" stroke-linecap="butt" d="M80.5 318.5L80.5 62.5" fill-rule="nonzero"/><clipPath id="id_0"><path d="M80.8 62.333332L589.2 62.333332L589.2 318.2L80.8 318.2L80.8 62.333332Z" clip-rule="nonzero"/></clipPath><path stroke="#4285f4" stroke-width="2.0" stroke-linecap="butt" clip-path="url(#id_0)" d="M83.31683 318.2C83.31683 318.2 86.67261 318.2 88.350494 318.2C90.02838 318.19998 91.70627 318.19998 93.384155 318.19995C95.06205 318.19992 96.73994 318.1999 98.41782 318.1998C100.09571 318.19968 101.7736 318.1996 103.451485 318.19934C105.12937 318.19913 106.80726 318.19885 108.485146 318.1984C110.16303 318.19797 111.84093 318.19745 113.518814 318.1967C115.1967 318.19592 116.87459 318.19504 118.552475 318.19385C120.23036 318.19266 121.90825 318.19128 123.586136 318.1895C125.26402 318.18774 126.94192 318.18573 128.6198 318.18323C130.29768 318.1807 131.97557 318.17786 133.65347 318.1744C135.33136 318.17096 137.00925 318.1671 138.68713 318.16254C140.36502 318.15796 142.04291 318.1529 143.7208 318.14694C145.39868 318.14102 147.07657 318.13446 148.75446 318.12692C150.43234 318.1194 152.11023 318.1111 153.78812 318.1017C155.466 318.0923 157.14389 318.08203 158.82178 318.07047C160.49966 318.0589 162.17755 318.04636 163.85544 318.03232C165.53334 318.01828 167.21123 318.0031 168.88911 317.9863C170.567 317.96948 172.24489 317.95135 173.92278 317.9314C175.60066 317.91144 177.27855 317.89 178.95644 317.86655C180.63432 317.84308 182.31221 317.81796 183.9901 317.79062C185.66798 317.76324 187.34587 317.73404 189.02376 317.7024C190.70164 317.67072 192.37953 317.63702 194.05742 317.60062C195.73532 317.5642 197.41321 317.52557 199.0911 317.48398C200.76898 317.44238 202.44687 317.39835 204.12476 317.3511C205.80264 317.30386 207.48053 317.2539 209.15842 317.20053C210.8363 317.14713 212.51419 317.0908 214.19208 317.03076C215.86996 316.9707 217.54785 316.90747 219.22574 316.8402C220.90363 316.77298 222.58151 316.7023 224.2594 316.6273C225.93729 316.5523 227.61519 316.4736 229.29308 316.3903C230.97096 316.307 232.64885 316.2197 234.32674 316.12747C236.00462 316.03528 237.68251 315.93875 239.3604 315.837C241.03828 315.7353 242.71617 315.62894 244.39406 315.51703C246.07195 315.40515 247.74983 315.28833 249.42772 315.16562C251.1056 315.0429 252.7835 314.91498 254.46138 314.78076C256.13928 314.64655 257.81717 314.5068 259.49506 314.3604C261.17294 314.21402 262.85083 314.0617 264.52872 313.90244C266.2066 313.74313 267.8845 313.57758 269.56238 313.40463C271.24026 313.23172 272.91815 313.05215 274.59604 312.86484C276.27393 312.6775 277.9518 312.4832 279.6297 312.28067C281.3076 312.0782 282.98547 311.8683 284.66336 311.6498C286.34125 311.43134 288.01913 311.20508 289.69702 310.96982C291.3749 310.73456 293.0528 310.49112 294.73068 310.23822C296.40857 309.98532 298.08646 309.72382 299.76434 309.45242C301.44223 309.18103 303.12012 308.90063 304.79803 308.60986C306.47592 308.31912 308.1538 308.0189 309.8317 307.70786C311.50958 307.39685 313.18747 307.0759 314.86536 306.74368C316.54324 306.41147 318.22113 306.06888 319.89902 305.7145C321.5769 305.36017 323.2548 304.995 324.93268 304.61752C326.61057 304.24008 328.28845 303.85132 329.96634 303.4498C331.64423 303.04825 333.3221 302.63495 335.0 302.20834C336.6779 301.7817 338.35577 301.34283 340.03366 300.8901C341.71155 300.43738 343.38943 299.9719 345.06732 299.492C346.7452 299.01215 348.4231 298.51898 350.10098 298.0109C351.77887 297.5028 353.45676 296.9809 355.13464 296.4435C356.81253 295.90613 358.49042 295.3544 360.1683 294.7866C361.8462 294.2188 363.52408 293.6361 365.20197 293.0368C366.87988 292.4375 368.55777 291.8227 370.23566 291.1907C371.91354 290.55872 373.59143 289.9107 375.26932 289.24487C376.9472 288.57904 378.6251 287.89658 380.30298 287.1957C381.98087 286.49484 383.65875 285.7768 385.33664 285.03967C387.01453 284.30258 388.6924 283.54767 390.3703 282.7731C392.0482 281.99854 393.72607 281.20557 395.40396 280.39227C397.08185 279.579 398.75974 278.74667 400.43762 277.89343C402.1155 277.04016 403.7934 276.16724 405.47128 275.2727C407.14917 274.37817 408.82706 273.46332 410.50494 272.5262C412.18283 271.58908 413.86072 270.631 415.5386 269.64996C417.2165 268.66895 418.89438 267.6663 420.57227 266.63998C422.25015 265.6137 423.92804 264.56512 425.60593 263.4922C427.2838 262.41925 428.96173 261.32336 430.63962 260.2024C432.3175 259.08142 433.9954 257.93683 435.67328 256.76642C437.35117 255.59601 439.02905 254.40126 440.70694 253.17998C442.38483 251.95871 444.0627 250.71236 445.7406 249.43877C447.4185 248.16516 449.09637 246.86577 450.77426 245.53836C452.45215 244.21097 454.13004 242.85704 455.80792 241.47435C457.4858 240.09164 459.1637 238.68169 460.84158 237.24219C462.51947 235.80269 464.19736 234.33516 465.87524 232.83731C467.55313 231.33946 469.23102 229.81284 470.9089 228.25508C472.5868 226.69734 474.26468 225.11003 475.94257 223.49081C477.62045 221.87158 479.29834 220.22203 480.97623 218.53972C482.6541 216.85742 484.332 215.144 486.0099 213.39702C487.68777 211.65002 489.36566 209.87111 491.04358 208.05779C492.72147 206.24448 494.39935 204.39842 496.07724 202.5171C497.75513 200.6358 499.433 198.72095 501.1109 196.76997C502.7888 194.81902 504.46667 192.83365 506.14456 190.81131C507.82245 188.78899 509.50034 186.73141 511.17822 184.636C512.8561 182.54059 514.534 180.40907 516.21185 178.23885C517.8898 176.06862 519.5676 173.86142 521.24554 171.6146C522.92346 169.36778 524.6013 167.08313 526.27924 164.75795C527.9571 162.43277 529.635 160.06886 531.31287 157.66351C532.9908 155.25818 534.66864 152.81322 536.34656 150.32588C538.0244 147.83855 539.70233 145.3107 541.3802 142.73953C543.0581 140.16838 544.73596 137.55577 546.4139 134.89893C548.09174 132.24207 549.76965 129.54285 551.4475 126.79842C553.1254 124.054 554.8033 121.26627 556.4812 118.432365C558.15906 115.598465 559.837 112.72031 561.51483 109.795C563.19275 106.8697 564.8706 103.89918 566.5485 100.88052C568.2264 97.86187 569.9043 94.79704 571.58215 91.68308C573.2601 88.569115 574.9379 85.408 576.61584 82.19673C578.2937 78.98547 579.9716 75.72607 581.6495 72.415504C583.3274 69.104935 586.68317 62.333332 586.68317 62.333332" fill-rule="nonzero"/><path fill="#000000" fill-opacity="0.0" clip-path="url(#id_0)" d="M86.31683 318.2C86.31683 319.85684 84.97369 321.2 83.31683 321.2C81.65998 321.2 80.31683 319.85684 80.31683 318.2C80.31683 316.54315 81.65998 315.2 83.31683 315.2C84.97369 315.2 86.31683 316.54315 86.31683 318.2Z" fill-rule="nonzero"/><path fill="#000000" fill-opacity="0.0" clip-path="url(#id_0)" d="M91.350494 318.2C91.350494 319.85684 90.00735 321.2 88.350494 321.2C86.69364 321.2 85.350494 319.85684 85.350494 318.2C85.350494 316.54315 86.69364 315.2 88.350494 315.2C90.00735 315.2 91.350494 316.54315 91.350494 318.2Z" fill-rule="nonzero"/><path fill="#000000" fill-opacity="0.0" clip-path="url(#id_0)" d="M96.384155 318.19995C96.384155 319.8568 95.041016 321.19995 93.384155 321.19995C91.7273 321.19995 90.384155 319.8568 90.384155 318.19995C90.384155 316.5431 91.7273 315.19995 93.384155 315.19995C95.041016 315.19995 96.384155 316.5431 96.384155 318.19995Z" fill-rule="nonzero"/><path fill="#000000" fill-opacity="0.0" clip-path="url(#id_0)" d="M101.41782 318.1998C101.41782 319.85666 100.07468 321.1998 98.41782 321.1998C96.76097 321.1998 95.41782 319.85666 95.41782 318.1998C95.41782 316.54294 96.76097 315.1998 98.41782 315.1998C100.07468 315.1998 101.41782 316.54294 101.41782 318.1998Z" fill-rule="nonzero"/><path fill="#000000" fill-opacity="0.0" clip-path="url(#id_0)" d="M106.451485 318.19934C106.451485 319.8562 105.10834 321.19934 103.451485 321.19934C101.79463 321.19934 100.451485 319.8562 100.451485 318.19934C100.451485 316.54248 101.79463 315.19934 103.451485 315.19934C105.10834 315.19934 106.451485 316.54248 106.451485 318.19934Z" fill-rule="nonzero"/><path fill="#000000" fill-opacity="0.0" clip-path="url(#id_0)" d="M111.485146 318.1984C111.485146 319.85526 110.142006 321.1984 108.485146 321.1984C106.82829 321.1984 105.485146 319.85526 105.485146 318.1984C105.485146 316.54153 106.82829 315.1984 108.485146 315.1984C110.142006 315.1984 111.485146 316.54153 111.485146 318.1984Z" fill-rule="nonzero"/><path fill="#000000" fill-opacity="0.0" clip-path="url(#id_0)" d="M116.518814 318.1967C116.518814 319.85355 115.17567 321.1967 113.518814 321.1967C111.86196 321.1967 110.518814 319.85355 110.518814 318.1967C110.518814 316.53983 111.86196 315.1967 113.518814 315.1967C115.17567 315.1967 116.518814 316.53983 116.518814 318.1967Z" fill-rule="nonzero"/><path fill="#000000" fill-opacity="0.0" clip-path="url(#id_0)" d="M121.552475 318.19385C121.552475 319.8507 120.20933 321.19385 118.552475 321.19385C116.89562 321.19385 115.552475 319.8507 115.552475 318.19385C115.552475 316.537 116.89562 315.19385 118.552475 315.19385C120.20933 315.19385 121.552475 316.537 121.552475 318.19385Z" fill-rule="nonzero"/><path fill="#000000" fill-opacity="0.0" clip-path="url(#id_0)" d="M126.586136 318.1895C126.586136 319.84637 125.243 321.1895 123.586136 321.1895C121.92928 321.1895 120.586136 319.84637 120.586136 318.1895C120.586136 316.53265 121.92928 315.1895 123.586136 315.1895C125.243 315.1895 126.586136 316.53265 126.586136 318.1895Z" fill-rule="nonzero"/><path fill="#000000" fill-opacity="0.0" clip-path="url(#id_0)" d="M131.6198 318.18323C131.6198 319.84006 130.27666 321.18323 128.6198 321.18323C126.962944 321.18323 125.619804 319.84006 125.619804 318.18323C125.619804 316.52637 126.962944 315.18323 128.6198 315.18323C130.27666 315.18323 131.6198 316.52637 131.6198 318.18323Z" fill-rule="nonzero"/><path fill="#000000" fill-opacity="0.0" clip-path="url(#id_0)" d="M136.65347 318.1744C136.65347 319.83127 135.31032 321.1744 133.65347 321.1744C131.99661 321.1744 130.65347 319.83127 130.65347 318.1744C130.65347 316.51755 131.99661 315.1744 133.65347 315.1744C135.31032 315.1744 136.65347 316.51755 136.65347 318.1744Z" fill-rule="nonzero"/><path fill="#000000" fill-opacity="0.0" clip-path="url(#id_0)" d="M141.68713 318.16254C141.68713 319.8194 140.34398 321.16254 138.68713 321.16254C137.03027 321.16254 135.68713 319.8194 135.68713 318.16254C135.68713 316.50568 137.03027 315.16254 138.68713 315.16254C140.34398 315.16254 141.68713 316.50568 141.68713 318.16254Z" fill-rule="nonzero"/><path fill="#000000" fill-opacity="0.0" clip-path="url(#id_0)" d="M146.7208 318.14694C146.7208 319.8038 145.37764 321.14694 143.7208 321.14694C142.06393 321.14694 140.7208 319.8038 140.7208 318.14694C140.7208 316.49008 142.06393 315.14694 143.7208 315.14694C145.37764 315.14694 146.7208 316.49008 146.7208 318.14694Z" fill-rule="nonzero"/><path fill="#000000" fill-opacity="0.0" clip-path="url(#id_0)" d="M151.75446 318.12692C151.75446 319.78378 150.41132 321.12692 148.75446 321.12692C147.0976 321.12692 145.75446 319.78378 145.75446 318.12692C145.75446 316.47006 147.0976 315.12692 148.75446 315.12692C150.41132 315.12692 151.75446 316.47006 151.75446 318.12692Z" fill-rule="nonzero"/><path fill="#000000" fill-opacity="0.0" clip-path="url(#id_0)" d="M156.78812 318.1017C156.78812 319.75858 155.44498 321.1017 153.78812 321.1017C152.13127 321.1017 150.78812 319.75858 150.78812 318.1017C150.78812 316.44485 152.13127 315.1017 153.78812 315.1017C155.44498 315.1017 156.78812 316.44485 156.78812 318.1017Z" fill-rule="nonzero"/><path fill="#000000" fill-opacity="0.0" clip-path="url(#id_0)" d="M161.82178 318.07047C161.82178 319.72733 160.47864 321.07047 158.82178 321.07047C157.16493 321.07047 155.82178 319.72733 155.82178 318.07047C155.82178 316.4136 157.16493 315.07047 158.82178 315.07047C160.47864 315.07047 161.82178 316.4136 161.82178 318.07047Z" fill-rule="nonzero"/><path fill="#000000" fill-opacity="0.0" clip-path="url(#id_0)" d="M166.85544 318.03232C166.85544 319.68918 165.5123 321.03232 163.85544 321.03232C162.1986 321.03232 160.85544 319.68918 160.85544 318.03232C160.85544 316.37546 162.1986 315.03232 163.85544 315.03232C165.5123 315.03232 166.85544 316.37546 166.85544 318.03232Z" fill-rule="nonzero"/><path fill="#000000" fill-opacity="0.0" clip-path="url(#id_0)" d="M171.88911 317.9863C171.88911 319.64316 170.54596 320.9863 168.88911 320.9863C167.23225 320.9863 165.88911 319.64316 165.88911 317.9863C165.88911 316.32944 167.23225 314.9863 168.88911 314.9863C170.54596 314.9863 171.88911 316.32944 171.88911 317.9863Z" fill-rule="nonzero"/><path fill="#000000" fill-opacity="0.0" clip-path="url(#id_0)" d="M176.92278 317.9314C176.92278 319.58826 175.57962 320.9314 173.92278 320.9314C172.26591 320.9314 170.92278 319.58826 170.92278 317.9314C170.92278 316.27454 172.26591 314.9314 173.92278 314.9314C175.57962 314.9314 176.92278 316.27454 176.92278 317.9314Z" fill-rule="nonzero"/><path fill="#000000" fill-opacity="0.0" clip-path="url(#id_0)" d="M181.95644 317.86655C181.95644 319.5234 180.6133 320.86655 178.95644 320.86655C177.29958 320.86655 175.95644 319.5234 175.95644 317.86655C175.95644 316.2097 177.29958 314.86655 178.95644 314.86655C180.6133 314.86655 181.95644 316.2097 181.95644 317.86655Z" fill-rule="nonzero"/><path fill="#000000" fill-opacity="0.0" clip-path="url(#id_0)" d="M186.9901 317.79062C186.9901 319.44748 185.64696 320.79062 183.9901 320.79062C182.33325 320.79062 180.9901 319.44748 180.9901 317.79062C180.9901 316.13376 182.33325 314.79062 183.9901 314.79062C185.64696 314.79062 186.9901 316.13376 186.9901 317.79062Z" fill-rule="nonzero"/><path fill="#000000" fill-opacity="0.0" clip-path="url(#id_0)" d="M192.02376 317.7024C192.02376 319.35925 190.68062 320.7024 189.02376 320.7024C187.36691 320.7024 186.02376 319.35925 186.02376 317.7024C186.02376 316.04553 187.36691 314.7024 189.02376 314.7024C190.68062 314.7024 192.02376 316.04553 192.02376 317.7024Z" fill-rule="nonzero"/><path fill="#000000" fill-opacity="0.0" clip-path="url(#id_0)" d="M197.05742 317.60062C197.05742 319.25748 195.71428 320.60062 194.05742 320.60062C192.40057 320.60062 191.05742 319.25748 191.05742 317.60062C191.05742 315.94376 192.40057 314.60062 194.05742 314.60062C195.71428 314.60062 197.05742 315.94376 197.05742 317.60062Z" fill-rule="nonzero"/><path fill="#000000" fill-opacity="0.0" clip-path="url(#id_0)" d="M202.0911 317.48398C202.0911 319.14084 200.74794 320.48398 199.0911 320.48398C197.43423 320.48398 196.0911 319.14084 196.0911 317.48398C196.0911 315.82712 197.43423 314.48398 199.0911 314.48398C200.74794 314.48398 202.0911 315.82712 202.0911 317.48398Z" fill-rule="nonzero"/><path fill="#000000" fill-opacity="0.0" clip-path="url(#id_0)" d="M207.12476 317.3511C207.12476 319.00797 205.7816 320.3511 204.12476 320.3511C202.4679 320.3511 201.12476 319.00797 201.12476 317.3511C201.12476 315.69424 202.4679 314.3511 204.12476 314.3511C205.7816 314.3511 207.12476 315.69424 207.12476 317.3511Z" fill-rule="nonzero"/><path fill="#000000" fill-opacity="0.0" clip-path="url(#id_0)" d="M212.15842 317.20053C212.15842 318.85736 210.81528 320.20053 209.15842 320.20053C207.50156 320.20053 206.15842 318.85736 206.15842 317.20053C206.15842 315.54367 207.50156 314.20053 209.15842 314.20053C210.81528 314.20053 212.15842 315.54367 212.15842 317.20053Z" fill-rule="nonzero"/><path fill="#000000" fill-opacity="0.0" clip-path="url(#id_0)" d="M217.19208 317.03076C217.19208 318.6876 215.84894 320.03076 214.19208 320.03076C212.53523 320.03076 211.19208 318.6876 211.19208 317.03076C211.19208 315.3739 212.53523 314.03076 214.19208 314.03076C215.84894 314.03076 217.19208 315.3739 217.19208 317.03076Z" fill-rule="nonzero"/><path fill="#000000" fill-opacity="0.0" clip-path="url(#id_0)" d="M222.22574 316.8402C222.22574 318.49707 220.8826 319.8402 219.22574 319.8402C217.5689 319.8402 216.22574 318.49707 216.22574 316.8402C216.22574 315.18338 217.5689 313.8402 219.22574 313.8402C220.8826 313.8402 222.22574 315.18338 222.22574 316.8402Z" fill-rule="nonzero"/><path fill="#000000" fill-opacity="0.0" clip-path="url(#id_0)" d="M227.2594 316.6273C227.2594 318.28415 225.91626 319.6273 224.2594 319.6273C222.60255 319.6273 221.2594 318.28415 221.2594 316.6273C221.2594 314.97046 222.60255 313.6273 224.2594 313.6273C225.91626 313.6273 227.2594 314.97046 227.2594 316.6273Z" fill-rule="nonzero"/><path fill="#000000" fill-opacity="0.0" clip-path="url(#id_0)" d="M232.29308 316.3903C232.29308 318.04715 230.94992 319.3903 229.29308 319.3903C227.63622 319.3903 226.29308 318.04715 226.29308 316.3903C226.29308 314.73346 227.63622 313.3903 229.29308 313.3903C230.94992 313.3903 232.29308 314.73346 232.29308 316.3903Z" fill-rule="nonzero"/><path fill="#000000" fill-opacity="0.0" clip-path="url(#id_0)" d="M237.32674 316.12747C237.32674 317.78433 235.98358 319.12747 234.32674 319.12747C232.66988 319.12747 231.32674 317.78433 231.32674 316.12747C231.32674 314.4706 232.66988 313.12747 234.32674 313.12747C235.98358 313.12747 237.32674 314.4706 237.32674 316.12747Z" fill-rule="nonzero"/><path fill="#000000" fill-opacity="0.0" clip-path="url(#id_0)" d="M242.3604 315.837C242.3604 317.49387 241.01726 318.837 239.3604 318.837C237.70354 318.837 236.3604 317.49387 236.3604 315.837C236.3604 314.18018 237.70354 312.837 239.3604 312.837C241.01726 312.837 242.3604 314.18018 242.3604 315.837Z" fill-rule="nonzero"/><path fill="#000000" fill-opacity="0.0" clip-path="url(#id_0)" d="M247.39406 315.51703C247.39406 317.1739 246.05092 318.51703 244.39406 318.51703C242.7372 318.51703 241.39406 317.1739 241.39406 315.51703C241.39406 313.8602 242.7372 312.51703 244.39406 312.51703C246.05092 312.51703 247.39406 313.8602 247.39406 315.51703Z" fill-rule="nonzero"/><path fill="#000000" fill-opacity="0.0" clip-path="url(#id_0)" d="M252.42772 315.16562C252.42772 316.82248 251.08458 318.16562 249.42772 318.16562C247.77087 318.16562 246.42772 316.82248 246.42772 315.16562C246.42772 313.50876 247.77087 312.16562 249.42772 312.16562C251.08458 312.16562 252.42772 313.50876 252.42772 315.16562Z" fill-rule="nonzero"/><path fill="#000000" fill-opacity="0.0" clip-path="url(#id_0)" d="M257.4614 314.78076C257.4614 316.43762 256.11826 317.78076 254.46138 317.78076C252.80453 317.78076 251.46138 316.43762 251.46138 314.78076C251.46138 313.1239 252.80453 311.78076 254.46138 311.78076C256.11826 311.78076 257.4614 313.1239 257.4614 314.78076Z" fill-rule="nonzero"/><path fill="#000000" fill-opacity="0.0" clip-path="url(#id_0)" d="M262.49506 314.3604C262.49506 316.01724 261.15192 317.3604 259.49506 317.3604C257.8382 317.3604 256.49506 316.01724 256.49506 314.3604C256.49506 312.70355 257.8382 311.3604 259.49506 311.3604C261.15192 311.3604 262.49506 312.70355 262.49506 314.3604Z" fill-rule="nonzero"/><path fill="#000000" fill-opacity="0.0" clip-path="url(#id_0)" d="M267.52872 313.90244C267.52872 315.55927 266.18558 316.90244 264.52872 316.90244C262.87186 316.90244 261.52872 315.55927 261.52872 313.90244C261.52872 312.24557 262.87186 310.90244 264.52872 310.90244C266.18558 310.90244 267.52872 312.24557 267.52872 313.90244Z" fill-rule="nonzero"/><path fill="#000000" fill-opacity="0.0" clip-path="url(#id_0)" d="M272.56238 313.40463C272.56238 315.0615 271.21924 316.40463 269.56238 316.40463C267.90552 316.40463 266.56238 315.0615 266.56238 313.40463C266.56238 311.7478 267.90552 310.40463 269.56238 310.40463C271.21924 310.40463 272.56238 311.7478 272.56238 313.40463Z" fill-rule="nonzero"/><path fill="#000000" fill-opacity="0.0" clip-path="url(#id_0)" d="M277.59604 312.86484C277.59604 314.5217 276.2529 315.86484 274.59604 315.86484C272.93918 315.86484 271.59604 314.5217 271.59604 312.86484C271.59604 311.20798 272.93918 309.86484 274.59604 309.86484C276.2529 309.86484 277.59604 311.20798 277.59604 312.86484Z" fill-rule="nonzero"/><path fill="#000000" fill-opacity="0.0" clip-path="url(#id_0)" d="M282.6297 312.28067C282.6297 313.93753 281.28656 315.28067 279.6297 315.28067C277.97284 315.28067 276.6297 313.93753 276.6297 312.28067C276.6297 310.6238 277.97284 309.28067 279.6297 309.28067C281.28656 309.28067 282.6297 310.6238 282.6297 312.28067Z" fill-rule="nonzero"/><path fill="#000000" fill-opacity="0.0" clip-path="url(#id_0)" d="M287.66336 311.6498C287.66336 313.30667 286.32022 314.6498 284.66336 314.6498C283.0065 314.6498 281.66336 313.30667 281.66336 311.6498C281.66336 309.99295 283.0065 308.6498 284.66336 308.6498C286.32022 308.6498 287.66336 309.99295 287.66336 311.6498Z" fill-rule="nonzero"/><path fill="#000000" fill-opacity="0.0" clip-path="url(#id_0)" d="M292.69702 310.96982C292.69702 312.62668 291.35388 313.96982 289.69702 313.96982C288.04016 313.96982 286.69702 312.62668 286.69702 310.96982C286.69702 309.31296 288.04016 307.96982 289.69702 307.96982C291.35388 307.96982 292.69702 309.31296 292.69702 310.96982Z" fill-rule="nonzero"/><path fill="#000000" fill-opacity="0.0" clip-path="url(#id_0)" d="M297.73068 310.23822C297.73068 311.89505 296.38754 313.23822 294.73068 313.23822C293.07385 313.23822 291.73068 311.89505 291.73068 310.23822C291.73068 308.58136 293.07385 307.23822 294.73068 307.23822C296.38754 307.23822 297.73068 308.58136 297.73068 310.23822Z" fill-rule="nonzero"/><path fill="#000000" fill-opacity="0.0" clip-path="url(#id_0)" d="M302.76434 309.45242C302.76434 311.10928 301.4212 312.45242 299.76434 312.45242C298.1075 312.45242 296.76434 311.10928 296.76434 309.45242C296.76434 307.79556 298.1075 306.45242 299.76434 306.45242C301.4212 306.45242 302.76434 307.79556 302.76434 309.45242Z" fill-rule="nonzero"/><path fill="#000000" fill-opacity="0.0" clip-path="url(#id_0)" d="M307.79803 308.60986C307.79803 310.26672 306.45486 311.60986 304.79803 311.60986C303.14117 311.60986 301.79803 310.26672 301.79803 308.60986C301.79803 306.953 303.14117 305.60986 304.79803 305.60986C306.45486 305.60986 307.79803 306.953 307.79803 308.60986Z" fill-rule="nonzero"/><path fill="#000000" fill-opacity="0.0" clip-path="url(#id_0)" d="M312.8317 307.70786C312.8317 309.36472 311.48853 310.70786 309.8317 310.70786C308.17484 310.70786 306.8317 309.36472 306.8317 307.70786C306.8317 306.05103 308.17484 304.70786 309.8317 304.70786C311.48853 304.70786 312.8317 306.05103 312.8317 307.70786Z" fill-rule="nonzero"/><path fill="#000000" fill-opacity="0.0" clip-path="url(#id_0)" d="M317.86536 306.74368C317.86536 308.40054 316.5222 309.74368 314.86536 309.74368C313.2085 309.74368 311.86536 308.40054 311.86536 306.74368C311.86536 305.08682 313.2085 303.74368 314.86536 303.74368C316.5222 303.74368 317.86536 305.08682 317.86536 306.74368Z" fill-rule="nonzero"/><path fill="#000000" fill-opacity="0.0" clip-path="url(#id_0)" d="M322.89902 305.7145C322.89902 307.37137 321.55588 308.7145 319.89902 308.7145C318.24216 308.7145 316.89902 307.37137 316.89902 305.7145C316.89902 304.05768 318.24216 302.7145 319.89902 302.7145C321.55588 302.7145 322.89902 304.05768 322.89902 305.7145Z" fill-rule="nonzero"/><path fill="#000000" fill-opacity="0.0" clip-path="url(#id_0)" d="M327.93268 304.61752C327.93268 306.27438 326.58954 307.61752 324.93268 307.61752C323.27582 307.61752 321.93268 306.27438 321.93268 304.61752C321.93268 302.9607 323.27582 301.61752 324.93268 301.61752C326.58954 301.61752 327.93268 302.9607 327.93268 304.61752Z" fill-rule="nonzero"/><path fill="#000000" fill-opacity="0.0" clip-path="url(#id_0)" d="M332.96634 303.4498C332.96634 305.10666 331.6232 306.4498 329.96634 306.4498C328.30948 306.4498 326.96634 305.10666 326.96634 303.4498C326.96634 301.79294 328.30948 300.4498 329.96634 300.4498C331.6232 300.4498 332.96634 301.79294 332.96634 303.4498Z" fill-rule="nonzero"/><path fill="#000000" fill-opacity="0.0" clip-path="url(#id_0)" d="M338.0 302.20834C338.0 303.86517 336.65686 305.20834 335.0 305.20834C333.34314 305.20834 332.0 303.86517 332.0 302.20834C332.0 300.55148 333.34314 299.20834 335.0 299.20834C336.65686 299.20834 338.0 300.55148 338.0 302.20834Z" fill-rule="nonzero"/><path fill="#000000" fill-opacity="0.0" clip-path="url(#id_0)" d="M343.03366 300.8901C343.03366 302.54697 341.69052 303.8901 340.03366 303.8901C338.3768 303.8901 337.03366 302.54697 337.03366 300.8901C337.03366 299.23325 338.3768 297.8901 340.03366 297.8901C341.69052 297.8901 343.03366 299.23325 343.03366 300.8901Z" fill-rule="nonzero"/><path fill="#000000" fill-opacity="0.0" clip-path="url(#id_0)" d="M348.06732 299.492C348.06732 301.14886 346.72418 302.492 345.06732 302.492C343.41046 302.492 342.06732 301.14886 342.06732 299.492C342.06732 297.83514 343.41046 296.492 345.06732 296.492C346.72418 296.492 348.06732 297.83514 348.06732 299.492Z" fill-rule="nonzero"/><path fill="#000000" fill-opacity="0.0" clip-path="url(#id_0)" d="M353.10098 298.0109C353.10098 299.66776 351.75784 301.0109 350.10098 301.0109C348.44412 301.0109 347.10098 299.66776 347.10098 298.0109C347.10098 296.35403 348.44412 295.0109 350.10098 295.0109C351.75784 295.0109 353.10098 296.35403 353.10098 298.0109Z" fill-rule="nonzero"/><path fill="#000000" fill-opacity="0.0" clip-path="url(#id_0)" d="M358.13464 296.4435C358.13464 298.10037 356.7915 299.4435 355.13464 299.4435C353.4778 299.4435 352.13464 298.10037 352.13464 296.4435C352.13464 294.78665 353.4778 293.4435 355.13464 293.4435C356.7915 293.4435 358.13464 294.78665 358.13464 296.4435Z" fill-rule="nonzero"/><path fill="#000000" fill-opacity="0.0" clip-path="url(#id_0)" d="M363.1683 294.7866C363.1683 296.44345 361.82516 297.7866 360.1683 297.7866C358.51147 297.7866 357.1683 296.44345 357.1683 294.7866C357.1683 293.12976 358.51147 291.7866 360.1683 291.7866C361.82516 291.7866 363.1683 293.12976 363.1683 294.7866Z" fill-rule="nonzero"/><path fill="#000000" fill-opacity="0.0" clip-path="url(#id_0)" d="M368.20197 293.0368C368.20197 294.69366 366.85883 296.0368 365.20197 296.0368C363.54514 296.0368 362.20197 294.69366 362.20197 293.0368C362.20197 291.37994 363.54514 290.0368 365.20197 290.0368C366.85883 290.0368 368.20197 291.37994 368.20197 293.0368Z" fill-rule="nonzero"/><path fill="#000000" fill-opacity="0.0" clip-path="url(#id_0)" d="M373.23566 291.1907C373.23566 292.84756 371.8925 294.1907 370.23566 294.1907C368.5788 294.1907 367.23566 292.84756 367.23566 291.1907C367.23566 289.53384 368.5788 288.1907 370.23566 288.1907C371.8925 288.1907 373.23566 289.53384 373.23566 291.1907Z" fill-rule="nonzero"/><path fill="#000000" fill-opacity="0.0" clip-path="url(#id_0)" d="M378.26932 289.24487C378.26932 290.9017 376.92615 292.24487 375.26932 292.24487C373.61246 292.24487 372.26932 290.9017 372.26932 289.24487C372.26932 287.588 373.61246 286.24487 375.26932 286.24487C376.92615 286.24487 378.26932 287.588 378.26932 289.24487Z" fill-rule="nonzero"/><path fill="#000000" fill-opacity="0.0" clip-path="url(#id_0)" d="M383.30298 287.1957C383.30298 288.85257 381.95984 290.1957 380.30298 290.1957C378.64612 290.1957 377.30298 288.85257 377.30298 287.1957C377.30298 285.53885 378.64612 284.1957 380.30298 284.1957C381.95984 284.1957 383.30298 285.53885 383.30298 287.1957Z" fill-rule="nonzero"/><path fill="#000000" fill-opacity="0.0" clip-path="url(#id_0)" d="M388.33664 285.03967C388.33664 286.69653 386.9935 288.03967 385.33664 288.03967C383.67978 288.03967 382.33664 286.69653 382.33664 285.03967C382.33664 283.3828 383.67978 282.03967 385.33664 282.03967C386.9935 282.03967 388.33664 283.3828 388.33664 285.03967Z" fill-rule="nonzero"/><path fill="#000000" fill-opacity="0.0" clip-path="url(#id_0)" d="M393.3703 282.7731C393.3703 284.42996 392.02716 285.7731 390.3703 285.7731C388.71344 285.7731 387.3703 284.42996 387.3703 282.7731C387.3703 281.11624 388.71344 279.7731 390.3703 279.7731C392.02716 279.7731 393.3703 281.11624 393.3703 282.7731Z" fill-rule="nonzero"/><path fill="#000000" fill-opacity="0.0" clip-path="url(#id_0)" d="M398.40396 280.39227C398.40396 282.04913 397.06082 283.39227 395.40396 283.39227C393.7471 283.39227 392.40396 282.04913 392.40396 280.39227C392.40396 278.7354 393.7471 277.39227 395.40396 277.39227C397.06082 277.39227 398.40396 278.7354 398.40396 280.39227Z" fill-rule="nonzero"/><path fill="#000000" fill-opacity="0.0" clip-path="url(#id_0)" d="M403.43762 277.89343C403.43762 279.5503 402.09448 280.89343 400.43762 280.89343C398.78076 280.89343 397.43762 279.5503 397.43762 277.89343C397.43762 276.23657 398.78076 274.89343 400.43762 274.89343C402.09448 274.89343 403.43762 276.23657 403.43762 277.89343Z" fill-rule="nonzero"/><path fill="#000000" fill-opacity="0.0" clip-path="url(#id_0)" d="M408.47128 275.2727C408.47128 276.92957 407.12814 278.2727 405.47128 278.2727C403.81442 278.2727 402.47128 276.92957 402.47128 275.2727C402.47128 273.61584 403.81442 272.2727 405.47128 272.2727C407.12814 272.2727 408.47128 273.61584 408.47128 275.2727Z" fill-rule="nonzero"/><path fill="#000000" fill-opacity="0.0" clip-path="url(#id_0)" d="M413.50494 272.5262C413.50494 274.18304 412.1618 275.5262 410.50494 275.5262C408.84808 275.5262 407.50494 274.18304 407.50494 272.5262C407.50494 270.86935 408.84808 269.5262 410.50494 269.5262C412.1618 269.5262 413.50494 270.86935 413.50494 272.5262Z" fill-rule="nonzero"/><path fill="#000000" fill-opacity="0.0" clip-path="url(#id_0)" d="M418.5386 269.64996C418.5386 271.30682 417.19547 272.64996 415.5386 272.64996C413.88174 272.64996 412.5386 271.30682 412.5386 269.64996C412.5386 267.99313 413.88174 266.64996 415.5386 266.64996C417.19547 266.64996 418.5386 267.99313 418.5386 269.64996Z" fill-rule="nonzero"/><path fill="#000000" fill-opacity="0.0" clip-path="url(#id_0)" d="M423.57227 266.63998C423.57227 268.29684 422.22913 269.63998 420.57227 269.63998C418.91544 269.63998 417.57227 268.29684 417.57227 266.63998C417.57227 264.98315 418.91544 263.63998 420.57227 263.63998C422.22913 263.63998 423.57227 264.98315 423.57227 266.63998Z" fill-rule="nonzero"/><path fill="#000000" fill-opacity="0.0" clip-path="url(#id_0)" d="M428.60593 263.4922C428.60593 265.14905 427.2628 266.4922 425.60593 266.4922C423.9491 266.4922 422.60593 265.14905 422.60593 263.4922C422.60593 261.83533 423.9491 260.4922 425.60593 260.4922C427.2628 260.4922 428.60593 261.83533 428.60593 263.4922Z" fill-rule="nonzero"/><path fill="#000000" fill-opacity="0.0" clip-path="url(#id_0)" d="M433.63962 260.2024C433.63962 261.85925 432.29645 263.2024 430.63962 263.2024C428.98276 263.2024 427.63962 261.85925 427.63962 260.2024C427.63962 258.54553 428.98276 257.2024 430.63962 257.2024C432.29645 257.2024 433.63962 258.54553 433.63962 260.2024Z" fill-rule="nonzero"/><path fill="#000000" fill-opacity="0.0" clip-path="url(#id_0)" d="M438.67328 256.76642C438.67328 258.42328 437.3301 259.76642 435.67328 259.76642C434.01642 259.76642 432.67328 258.42328 432.67328 256.76642C432.67328 255.10956 434.01642 253.76642 435.67328 253.76642C437.3301 253.76642 438.67328 255.10956 438.67328 256.76642Z" fill-rule="nonzero"/><path fill="#000000" fill-opacity="0.0" clip-path="url(#id_0)" d="M443.70694 253.17998C443.70694 254.83684 442.3638 256.18 440.70694 256.18C439.05008 256.18 437.70694 254.83684 437.70694 253.17998C437.70694 251.52312 439.05008 250.17998 440.70694 250.17998C442.3638 250.17998 443.70694 251.52312 443.70694 253.17998Z" fill-rule="nonzero"/><path fill="#000000" fill-opacity="0.0" clip-path="url(#id_0)" d="M448.7406 249.43877C448.7406 251.09561 447.39746 252.43877 445.7406 252.43877C444.08374 252.43877 442.7406 251.09561 442.7406 249.43877C442.7406 247.7819 444.08374 246.43877 445.7406 246.43877C447.39746 246.43877 448.7406 247.7819 448.7406 249.43877Z" fill-rule="nonzero"/><path fill="#000000" fill-opacity="0.0" clip-path="url(#id_0)" d="M453.77426 245.53836C453.77426 247.19522 452.43112 248.53836 450.77426 248.53836C449.1174 248.53836 447.77426 247.19522 447.77426 245.53836C447.77426 243.88152 449.1174 242.53836 450.77426 242.53836C452.43112 242.53836 453.77426 243.88152 453.77426 245.53836Z" fill-rule="nonzero"/><path fill="#000000" fill-opacity="0.0" clip-path="url(#id_0)" d="M458.80792 241.47435C458.80792 243.1312 457.46478 244.47435 455.80792 244.47435C454.15106 244.47435 452.80792 243.1312 452.80792 241.47435C452.80792 239.81749 454.15106 238.47435 455.80792 238.47435C457.46478 238.47435 458.80792 239.81749 458.80792 241.47435Z" fill-rule="nonzero"/><path fill="#000000" fill-opacity="0.0" clip-path="url(#id_0)" d="M463.84158 237.24219C463.84158 238.89905 462.49844 240.24219 460.84158 240.24219C459.18472 240.24219 457.84158 238.89905 457.84158 237.24219C457.84158 235.58533 459.18472 234.24219 460.84158 234.24219C462.49844 234.24219 463.84158 235.58533 463.84158 237.24219Z" fill-rule="nonzero"/><path fill="#000000" fill-opacity="0.0" clip-path="url(#id_0)" d="M468.87524 232.83731C468.87524 234.49417 467.5321 235.83731 465.87524 235.83731C464.21838 235.83731 462.87524 234.49417 462.87524 232.83731C462.87524 231.18047 464.21838 229.83731 465.87524 229.83731C467.5321 229.83731 468.87524 231.18047 468.87524 232.83731Z" fill-rule="nonzero"/><path fill="#000000" fill-opacity="0.0" clip-path="url(#id_0)" d="M473.9089 228.25508C473.9089 229.91194 472.56577 231.25508 470.9089 231.25508C469.25204 231.25508 467.9089 229.91194 467.9089 228.25508C467.9089 226.59824 469.25204 225.25508 470.9089 225.25508C472.56577 225.25508 473.9089 226.59824 473.9089 228.25508Z" fill-rule="nonzero"/><path fill="#000000" fill-opacity="0.0" clip-path="url(#id_0)" d="M478.94257 223.49081C478.94257 225.14766 477.59943 226.49081 475.94257 226.49081C474.2857 226.49081 472.94257 225.14766 472.94257 223.49081C472.94257 221.83395 474.2857 220.49081 475.94257 220.49081C477.59943 220.49081 478.94257 221.83395 478.94257 223.49081Z" fill-rule="nonzero"/><path fill="#000000" fill-opacity="0.0" clip-path="url(#id_0)" d="M483.97623 218.53972C483.97623 220.19658 482.6331 221.53972 480.97623 221.53972C479.3194 221.53972 477.97623 220.19658 477.97623 218.53972C477.97623 216.88287 479.3194 215.53972 480.97623 215.53972C482.6331 215.53972 483.97623 216.88287 483.97623 218.53972Z" fill-rule="nonzero"/><path fill="#000000" fill-opacity="0.0" clip-path="url(#id_0)" d="M489.0099 213.39702C489.0099 215.05386 487.66675 216.39702 486.0099 216.39702C484.35306 216.39702 483.0099 215.05386 483.0099 213.39702C483.0099 211.74016 484.35306 210.39702 486.0099 210.39702C487.66675 210.39702 489.0099 211.74016 489.0099 213.39702Z" fill-rule="nonzero"/><path fill="#000000" fill-opacity="0.0" clip-path="url(#id_0)" d="M494.04358 208.05779C494.04358 209.71465 492.7004 211.05779 491.04358 211.05779C489.38672 211.05779 488.04358 209.71465 488.04358 208.05779C488.04358 206.40094 489.38672 205.05779 491.04358 205.05779C492.7004 205.05779 494.04358 206.40094 494.04358 208.05779Z" fill-rule="nonzero"/><path fill="#000000" fill-opacity="0.0" clip-path="url(#id_0)" d="M499.07724 202.5171C499.07724 204.17397 497.73407 205.5171 496.07724 205.5171C494.42038 205.5171 493.07724 204.17397 493.07724 202.5171C493.07724 200.86026 494.42038 199.5171 496.07724 199.5171C497.73407 199.5171 499.07724 200.86026 499.07724 202.5171Z" fill-rule="nonzero"/><path fill="#000000" fill-opacity="0.0" clip-path="url(#id_0)" d="M504.1109 196.76997C504.1109 198.42683 502.76773 199.76997 501.1109 199.76997C499.45404 199.76997 498.1109 198.42683 498.1109 196.76997C498.1109 195.11313 499.45404 193.76997 501.1109 193.76997C502.76773 193.76997 504.1109 195.11313 504.1109 196.76997Z" fill-rule="nonzero"/><path fill="#000000" fill-opacity="0.0" clip-path="url(#id_0)" d="M509.14456 190.81131C509.14456 192.46817 507.80142 193.81131 506.14456 193.81131C504.4877 193.81131 503.14456 192.46817 503.14456 190.81131C503.14456 189.15446 504.4877 187.81131 506.14456 187.81131C507.80142 187.81131 509.14456 189.15446 509.14456 190.81131Z" fill-rule="nonzero"/><path fill="#000000" fill-opacity="0.0" clip-path="url(#id_0)" d="M514.1782 184.636C514.1782 186.29286 512.8351 187.636 511.17822 187.636C509.52136 187.636 508.17822 186.29286 508.17822 184.636C508.17822 182.97914 509.52136 181.636 511.17822 181.636C512.8351 181.636 514.1782 182.97914 514.1782 184.636Z" fill-rule="nonzero"/><path fill="#000000" fill-opacity="0.0" clip-path="url(#id_0)" d="M519.21185 178.23885C519.21185 179.8957 517.8687 181.23885 516.21185 181.23885C514.55505 181.23885 513.21185 179.8957 513.21185 178.23885C513.21185 176.58199 514.55505 175.23885 516.21185 175.23885C517.8687 175.23885 519.21185 176.58199 519.21185 178.23885Z" fill-rule="nonzero"/><path fill="#000000" fill-opacity="0.0" clip-path="url(#id_0)" d="M524.24554 171.6146C524.24554 173.27145 522.9024 174.6146 521.24554 174.6146C519.5887 174.6146 518.24554 173.27145 518.24554 171.6146C518.24554 169.95775 519.5887 168.6146 521.24554 168.6146C522.9024 168.6146 524.24554 169.95775 524.24554 171.6146Z" fill-rule="nonzero"/><path fill="#000000" fill-opacity="0.0" clip-path="url(#id_0)" d="M529.27924 164.75795C529.27924 166.4148 527.93604 167.75795 526.27924 167.75795C524.6224 167.75795 523.27924 166.4148 523.27924 164.75795C523.27924 163.10109 524.6224 161.75795 526.27924 161.75795C527.93604 161.75795 529.27924 163.10109 529.27924 164.75795Z" fill-rule="nonzero"/><path fill="#000000" fill-opacity="0.0" clip-path="url(#id_0)" d="M534.31287 157.66351C534.31287 159.32037 532.9697 160.66351 531.31287 160.66351C529.656 160.66351 528.31287 159.32037 528.31287 157.66351C528.31287 156.00667 529.656 154.66351 531.31287 154.66351C532.9697 154.66351 534.31287 156.00667 534.31287 157.66351Z" fill-rule="nonzero"/><path fill="#000000" fill-opacity="0.0" clip-path="url(#id_0)" d="M539.34656 150.32588C539.34656 151.98273 538.0034 153.32588 536.34656 153.32588C534.6897 153.32588 533.34656 151.98273 533.34656 150.32588C533.34656 148.66902 534.6897 147.32588 536.34656 147.32588C538.0034 147.32588 539.34656 148.66902 539.34656 150.32588Z" fill-rule="nonzero"/><path fill="#000000" fill-opacity="0.0" clip-path="url(#id_0)" d="M544.3802 142.73953C544.3802 144.3964 543.03705 145.73953 541.3802 145.73953C539.7233 145.73953 538.3802 144.3964 538.3802 142.73953C538.3802 141.08267 539.7233 139.73953 541.3802 139.73953C543.03705 139.73953 544.3802 141.08267 544.3802 142.73953Z" fill-rule="nonzero"/><path fill="#000000" fill-opacity="0.0" clip-path="url(#id_0)" d="M549.4139 134.89893C549.4139 136.55577 548.07074 137.89893 546.4139 137.89893C544.757 137.89893 543.4139 136.55577 543.4139 134.89893C543.4139 133.24207 544.757 131.89893 546.4139 131.89893C548.07074 131.89893 549.4139 133.24207 549.4139 134.89893Z" fill-rule="nonzero"/><path fill="#000000" fill-opacity="0.0" clip-path="url(#id_0)" d="M554.4475 126.79842C554.4475 128.45528 553.1044 129.79843 551.4475 129.79843C549.79065 129.79843 548.4475 128.45528 548.4475 126.79842C548.4475 125.14157 549.79065 123.79842 551.4475 123.79842C553.1044 123.79842 554.4475 125.14157 554.4475 126.79842Z" fill-rule="nonzero"/><path fill="#000000" fill-opacity="0.0" clip-path="url(#id_0)" d="M559.4812 118.432365C559.4812 120.08922 558.13806 121.432365 556.4812 121.432365C554.82434 121.432365 553.4812 120.08922 553.4812 118.432365C553.4812 116.77551 554.82434 115.432365 556.4812 115.432365C558.13806 115.432365 559.4812 116.77551 559.4812 118.432365Z" fill-rule="nonzero"/><path fill="#000000" fill-opacity="0.0" clip-path="url(#id_0)" d="M564.51483 109.795C564.51483 111.45186 563.1717 112.795 561.51483 112.795C559.858 112.795 558.51483 111.45186 558.51483 109.795C558.51483 108.138145 559.858 106.795 561.51483 106.795C563.1717 106.795 564.51483 108.138145 564.51483 109.795Z" fill-rule="nonzero"/><path fill="#000000" fill-opacity="0.0" clip-path="url(#id_0)" d="M569.5485 100.88052C569.5485 102.537384 568.2054 103.88052 566.5485 103.88052C564.89166 103.88052 563.5485 102.537384 563.5485 100.88052C563.5485 99.22367 564.89166 97.88052 566.5485 97.88052C568.2054 97.88052 569.5485 99.22367 569.5485 100.88052Z" fill-rule="nonzero"/><path fill="#000000" fill-opacity="0.0" clip-path="url(#id_0)" d="M574.58215 91.68308C574.58215 93.339935 573.239 94.68308 571.58215 94.68308C569.92535 94.68308 568.58215 93.339935 568.58215 91.68308C568.58215 90.02622 569.92535 88.68308 571.58215 88.68308C573.239 88.68308 574.58215 90.02622 574.58215 91.68308Z" fill-rule="nonzero"/><path fill="#000000" fill-opacity="0.0" clip-path="url(#id_0)" d="M579.61584 82.19673C579.61584 83.853584 578.2727 85.19673 576.61584 85.19673C574.959 85.19673 573.61584 83.853584 573.61584 82.19673C573.61584 80.53988 574.959 79.19673 576.61584 79.19673C578.2727 79.19673 579.61584 80.53988 579.61584 82.19673Z" fill-rule="nonzero"/><path fill="#000000" fill-opacity="0.0" clip-path="url(#id_0)" d="M584.6495 72.415504C584.6495 74.07236 583.30634 75.415504 581.6495 75.415504C579.9927 75.415504 578.6495 74.07236 578.6495 72.415504C578.6495 70.758644 579.9927 69.415504 581.6495 69.415504C583.30634 69.415504 584.6495 70.758644 584.6495 72.415504Z" fill-rule="nonzero"/><path fill="#000000" fill-opacity="0.0" clip-path="url(#id_0)" d="M589.68317 62.333332C589.68317 63.99019 588.34 65.333336 586.68317 65.333336C585.0263 65.333336 583.68317 63.99019 583.68317 62.333332C583.68317 60.67648 585.0263 59.333332 586.68317 59.333332C588.34 59.333332 589.68317 60.67648 589.68317 62.333332Z" fill-rule="nonzero"/><path fill="#000000" d="M336.59375 353.2625L336.75 354.1844Q336.29688 354.27814 335.95312 354.27814Q335.375 354.27814 335.0625 354.10626Q334.75 353.91876 334.60938 353.6219Q334.48438 353.325 334.48438 352.3719L334.48438 348.79376L333.71875 348.79376L333.71875 347.98126L334.48438 347.98126L334.48438 346.4344L335.53125 345.8094L335.53125 347.98126L336.59375 347.98126L336.59375 348.79376L335.53125 348.79376L335.53125 352.4344Q335.53125 352.8875 335.57812 353.0125Q335.64062 353.1375 335.76562 353.21564Q335.89062 353.29376 336.125 353.29376Q336.3125 353.29376 336.59375 353.2625Z" fill-rule="nonzero"/><path fill="#000000" d="M29.800013 192.67291L26.565638 190.40729L23.581263 192.50104L23.581263 191.18854L25.034388 190.23541Q25.456263 189.96979 25.737513 189.79791Q25.346888 189.54791 25.050013 189.32916L23.581263 188.28229L23.581263 187.01666L26.503138 189.17291L29.800013 186.86041L29.800013 188.14166L27.862513 189.42291L27.346888 189.76666L29.800013 191.40729L29.800013 192.67291Z" fill-rule="nonzero"/><path fill="#000000" d="M51.3 317.96564Q51.3 316.4344 51.6125 315.5125Q51.925 314.575 52.534374 314.075Q53.159374 313.575 54.096874 313.575Q54.784374 313.575 55.3 313.85626Q55.83125 314.1375 56.175 314.66876Q56.51875 315.1844 56.70625 315.9344Q56.89375 316.6844 56.89375 317.96564Q56.89375 319.48126 56.58125 320.40314Q56.284374 321.325 55.659374 321.84064Q55.05 322.34064 54.096874 322.34064Q52.8625 322.34064 52.14375 321.45Q51.3 320.3875 51.3 317.96564ZM52.378124 317.96564Q52.378124 320.075 52.878124 320.77814Q53.378124 321.48126 54.096874 321.48126Q54.83125 321.48126 55.315624 320.77814Q55.815624 320.075 55.815624 317.96564Q55.815624 315.84064 55.315624 315.15314Q54.83125 314.45 54.08125 314.45Q53.3625 314.45 52.925 315.0594Q52.378124 315.84064 52.378124 317.96564ZM58.89375 322.2L58.89375 320.9969L60.096874 320.9969L60.096874 322.2L58.89375 322.2ZM61.3 317.96564Q61.3 316.4344 61.6125 315.5125Q61.925 314.575 62.534374 314.075Q63.159374 313.575 64.09688 313.575Q64.78438 313.575 65.3 313.85626Q65.83125 314.1375 66.175 314.66876Q66.51875 315.1844 66.70625 315.9344Q66.89375 316.6844 66.89375 317.96564Q66.89375 319.48126 66.58125 320.40314Q66.28438 321.325 65.65938 321.84064Q65.05 322.34064 64.09688 322.34064Q62.8625 322.34064 62.14375 321.45Q61.3 320.3875 61.3 317.96564ZM62.378124 317.96564Q62.378124 320.075 62.878124 320.77814Q63.378124 321.48126 64.09688 321.48126Q64.83125 321.48126 65.31563 320.77814Q65.81563 320.075 65.81563 317.96564Q65.81563 315.84064 65.31563 315.15314Q64.83125 314.45 64.08125 314.45Q63.3625 314.45 62.925 315.0594Q62.378124 315.84064 62.378124 317.96564ZM68.3 317.96564Q68.3 316.4344 68.6125 315.5125Q68.925 314.575 69.53438 314.075Q70.15938 313.575 71.09688 313.575Q71.78438 313.575 72.3 313.85626Q72.83125 314.1375 73.175 314.66876Q73.51875 315.1844 73.70625 315.9344Q73.89375 316.6844 73.89375 317.96564Q73.89375 319.48126 73.58125 320.40314Q73.28438 321.325 72.65938 321.84064Q72.05 322.34064 71.09688 322.34064Q69.8625 322.34064 69.14375 321.45Q68.3 320.3875 68.3 317.96564ZM69.37813 317.96564Q69.37813 320.075 69.87813 320.77814Q70.37813 321.48126 71.09688 321.48126Q71.83125 321.48126 72.31563 320.77814Q72.81563 320.075 72.81563 317.96564Q72.81563 315.84064 72.31563 315.15314Q71.83125 314.45 71.08125 314.45Q70.3625 314.45 69.925 315.0594Q69.37813 315.84064 69.37813 317.96564Z" fill-rule="nonzero"/><path fill="#000000" d="M51.3 253.99896Q51.3 252.46771 51.6125 251.54584Q51.925 250.60834 52.534374 250.10834Q53.159374 249.60834 54.096874 249.60834Q54.784374 249.60834 55.3 249.88959Q55.83125 250.17084 56.175 250.70209Q56.51875 251.21771 56.70625 251.96771Q56.89375 252.71771 56.89375 253.99896Q56.89375 255.51459 56.58125 256.43646Q56.284374 257.35834 55.659374 257.87396Q55.05 258.37396 54.096874 258.37396Q52.8625 258.37396 52.14375 257.48334Q51.3 256.42084 51.3 253.99896ZM52.378124 253.99896Q52.378124 256.10834 52.878124 256.81146Q53.378124 257.5146 54.096874 257.5146Q54.83125 257.5146 55.315624 256.81146Q55.815624 256.10834 55.815624 253.99896Q55.815624 251.87396 55.315624 251.18646Q54.83125 250.48334 54.08125 250.48334Q53.3625 250.48334 52.925 251.09271Q52.378124 251.87396 52.378124 253.99896ZM58.89375 258.23334L58.89375 257.0302L60.096874 257.0302L60.096874 258.23334L58.89375 258.23334ZM66.84688 257.2177L66.84688 258.23334L61.159374 258.23334Q61.159374 257.85834 61.284374 257.49896Q61.503124 256.92084 61.971874 256.35834Q62.45625 255.79584 63.3625 255.06146Q64.76875 253.90521 65.25313 253.23334Q65.75313 252.56146 65.75313 251.96771Q65.75313 251.34271 65.3 250.92084Q64.84688 250.48334 64.12813 250.48334Q63.3625 250.48334 62.909374 250.93646Q62.45625 251.38959 62.440624 252.20209L61.3625 252.09271Q61.471874 250.87396 62.190624 250.24896Q62.925 249.60834 64.15938 249.60834Q65.39375 249.60834 66.1125 250.29584Q66.83125 250.98334 66.83125 251.99896Q66.83125 252.51459 66.6125 253.01459Q66.40938 253.49896 65.90938 254.06146Q65.425 254.60834 64.3 255.56146Q63.346874 256.35834 63.065624 256.6552Q62.8 256.93646 62.628124 257.2177L66.84688 257.2177ZM68.3 255.98334L69.40938 255.88959Q69.53438 256.7021 69.97188 257.10834Q70.425 257.5146 71.06563 257.5146Q71.81563 257.5146 72.34688 256.93646Q72.87813 256.35834 72.87813 255.42084Q72.87813 254.51459 72.3625 253.99896Q71.8625 253.46771 71.03438 253.46771Q70.53438 253.46771 70.1125 253.70209Q69.70625 253.93646 69.47188 254.29584L68.4875 254.17084L69.31563 249.76459L73.59688 249.76459L73.59688 250.76459L70.15938 250.76459L69.70625 253.07709Q70.47188 252.53021 71.31563 252.53021Q72.44063 252.53021 73.20625 253.31146Q73.9875 254.09271 73.9875 255.32709Q73.9875 256.48334 73.31563 257.3427Q72.4875 258.37396 71.06563 258.37396Q69.89375 258.37396 69.14375 257.7177Q68.40938 257.06146 68.3 255.98334Z" fill-rule="nonzero"/><path fill="#000000" d="M51.3 190.03229Q51.3 188.50104 51.6125 187.57916Q51.925 186.64166 52.534374 186.14166Q53.159374 185.64166 54.096874 185.64166Q54.784374 185.64166 55.3 185.92291Q55.83125 186.20416 56.175 186.73541Q56.51875 187.25104 56.70625 188.00104Q56.89375 188.75104 56.89375 190.03229Q56.89375 191.54791 56.58125 192.46979Q56.284374 193.39166 55.659374 193.90729Q55.05 194.40729 54.096874 194.40729Q52.8625 194.40729 52.14375 193.51666Q51.3 192.45416 51.3 190.03229ZM52.378124 190.03229Q52.378124 192.14166 52.878124 192.84479Q53.378124 193.54791 54.096874 193.54791Q54.83125 193.54791 55.315624 192.84479Q55.815624 192.14166 55.815624 190.03229Q55.815624 187.90729 55.315624 187.21979Q54.83125 186.51666 54.08125 186.51666Q53.3625 186.51666 52.925 187.12604Q52.378124 187.90729 52.378124 190.03229ZM58.89375 194.26666L58.89375 193.06354L60.096874 193.06354L60.096874 194.26666L58.89375 194.26666ZM61.3 192.01666L62.409374 191.92291Q62.534374 192.73541 62.971874 193.14166Q63.425 193.54791 64.06563 193.54791Q64.81563 193.54791 65.34688 192.96979Q65.87813 192.39166 65.87813 191.45416Q65.87813 190.54791 65.3625 190.03229Q64.8625 189.50104 64.03438 189.50104Q63.534374 189.50104 63.1125 189.73541Q62.70625 189.96979 62.471874 190.32916L61.4875 190.20416L62.315624 185.79791L66.59688 185.79791L66.59688 186.79791L63.159374 186.79791L62.70625 189.11041Q63.471874 188.56354 64.31563 188.56354Q65.44063 188.56354 66.20625 189.34479Q66.9875 190.12604 66.9875 191.36041Q66.9875 192.51666 66.31563 193.37604Q65.4875 194.40729 64.06563 194.40729Q62.89375 194.40729 62.14375 193.75104Q61.409374 193.09479 61.3 192.01666ZM68.3 190.03229Q68.3 188.50104 68.6125 187.57916Q68.925 186.64166 69.53438 186.14166Q70.15938 185.64166 71.09688 185.64166Q71.78438 185.64166 72.3 185.92291Q72.83125 186.20416 73.175 186.73541Q73.51875 187.25104 73.70625 188.00104Q73.89375 188.75104 73.89375 190.03229Q73.89375 191.54791 73.58125 192.46979Q73.28438 193.39166 72.65938 193.90729Q72.05 194.40729 71.09688 194.40729Q69.8625 194.40729 69.14375 193.51666Q68.3 192.45416 68.3 190.03229ZM69.37813 190.03229Q69.37813 192.14166 69.87813 192.84479Q70.37813 193.54791 71.09688 193.54791Q71.83125 193.54791 72.31563 192.84479Q72.81563 192.14166 72.81563 190.03229Q72.81563 187.90729 72.31563 187.21979Q71.83125 186.51666 71.08125 186.51666Q70.3625 186.51666 69.925 187.12604Q69.37813 187.90729 69.37813 190.03229Z" fill-rule="nonzero"/><path fill="#000000" d="M51.3 126.06563Q51.3 124.53438 51.6125 123.6125Q51.925 122.675 52.534374 122.175Q53.159374 121.675 54.096874 121.675Q54.784374 121.675 55.3 121.95625Q55.83125 122.2375 56.175 122.76875Q56.51875 123.28438 56.70625 124.03438Q56.89375 124.78438 56.89375 126.06563Q56.89375 127.58125 56.58125 128.50313Q56.284374 129.425 55.659374 129.94063Q55.05 130.44063 54.096874 130.44063Q52.8625 130.44063 52.14375 129.55Q51.3 128.4875 51.3 126.06563ZM52.378124 126.06563Q52.378124 128.175 52.878124 128.87813Q53.378124 129.58125 54.096874 129.58125Q54.83125 129.58125 55.315624 128.87813Q55.815624 128.175 55.815624 126.06563Q55.815624 123.94063 55.315624 123.25313Q54.83125 122.55 54.08125 122.55Q53.3625 122.55 52.925 123.15938Q52.378124 123.94063 52.378124 126.06563ZM58.89375 130.3L58.89375 129.09688L60.096874 129.09688L60.096874 130.3L58.89375 130.3ZM61.3625 122.83125L61.3625 121.81563L66.925 121.81563L66.925 122.64375Q66.1125 123.51875 65.3 124.97188Q64.50313 126.40938 64.06563 127.94063Q63.7375 129.01875 63.659374 130.3L62.565624 130.3Q62.58125 129.28438 62.95625 127.84688Q63.346874 126.40938 64.05 125.08125Q64.76875 123.75313 65.58125 122.83125L61.3625 122.83125ZM68.3 128.05L69.40938 127.95625Q69.53438 128.76875 69.97188 129.175Q70.425 129.58125 71.06563 129.58125Q71.81563 129.58125 72.34688 129.00313Q72.87813 128.425 72.87813 127.4875Q72.87813 126.58125 72.3625 126.06563Q71.8625 125.53438 71.03438 125.53438Q70.53438 125.53438 70.1125 125.76875Q69.70625 126.00313 69.47188 126.3625L68.4875 126.2375L69.31563 121.83125L73.59688 121.83125L73.59688 122.83125L70.15938 122.83125L69.70625 125.14375Q70.47188 124.59688 71.31563 124.59688Q72.44063 124.59688 73.20625 125.37813Q73.9875 126.15938 73.9875 127.39375Q73.9875 128.55 73.31563 129.40938Q72.4875 130.44063 71.06563 130.44063Q69.89375 130.44063 69.14375 129.78438Q68.40938 129.12813 68.3 128.05Z" fill-rule="nonzero"/><path fill="#000000" d="M55.26875 66.333336L54.221874 66.333336L54.221874 59.614586Q53.83125 59.97396 53.20625 60.34896Q52.596874 60.708336 52.1125 60.88021L52.1125 59.864586Q52.9875 59.44271 53.64375 58.864586Q54.315624 58.270836 54.596874 57.708336L55.26875 57.708336L55.26875 66.333336ZM58.89375 66.333336L58.89375 65.13021L60.096874 65.13021L60.096874 66.333336L58.89375 66.333336ZM61.3 62.09896Q61.3 60.56771 61.6125 59.645836Q61.925 58.708336 62.534374 58.208336Q63.159374 57.708336 64.09688 57.708336Q64.78438 57.708336 65.3 57.989586Q65.83125 58.270836 66.175 58.802086Q66.51875 59.31771 66.70625 60.06771Q66.89375 60.81771 66.89375 62.09896Q66.89375 63.614586 66.58125 64.53646Q66.28438 65.458336 65.65938 65.97396Q65.05 66.47396 64.09688 66.47396Q62.8625 66.47396 62.14375 65.583336Q61.3 64.520836 61.3 62.09896ZM62.378124 62.09896Q62.378124 64.208336 62.878124 64.91146Q63.378124 65.614586 64.09688 65.614586Q64.83125 65.614586 65.31563 64.91146Q65.81563 64.208336 65.81563 62.09896Q65.81563 59.97396 65.31563 59.28646Q64.83125 58.583336 64.08125 58.583336Q63.3625 58.583336 62.925 59.19271Q62.378124 59.97396 62.378124 62.09896ZM68.3 62.09896Q68.3 60.56771 68.6125 59.645836Q68.925 58.708336 69.53438 58.208336Q70.15938 57.708336 71.09688 57.708336Q71.78438 57.708336 72.3 57.989586Q72.83125 58.270836 73.175 58.802086Q73.51875 59.31771 73.70625 60.06771Q73.89375 60.81771 73.89375 62.09896Q73.89375 63.614586 73.58125 64.53646Q73.28438 65.458336 72.65938 65.97396Q72.05 66.47396 71.09688 66.47396Q69.8625 66.47396 69.14375 65.583336Q68.3 64.520836 68.3 62.09896ZM69.37813 62.09896Q69.37813 64.208336 69.87813 64.91146Q70.37813 65.614586 71.09688 65.614586Q71.83125 65.614586 72.31563 64.91146Q72.81563 64.208336 72.81563 62.09896Q72.81563 59.97396 72.31563 59.28646Q71.83125 58.583336 71.08125 58.583336Q70.3625 58.583336 69.925 59.19271Q69.37813 59.97396 69.37813 62.09896Z" fill-rule="nonzero"/><path fill="#757575" d="M20.378124 37.8L20.378124 23.4875L30.7375 23.4875L30.7375 25.175L22.284374 25.175L22.284374 29.55L30.190624 29.55L30.190624 31.2375L22.284374 31.2375L22.284374 36.1125L31.065624 36.1125L31.065624 37.8L20.378124 37.8ZM39.89375 36.51875Q38.909374 37.346874 38.003124 37.690624Q37.096874 38.034374 36.065624 38.034374Q34.3625 38.034374 33.440624 37.20625Q32.51875 36.3625 32.51875 35.065624Q32.51875 34.3 32.8625 33.675Q33.221874 33.05 33.784374 32.675Q34.346874 32.284374 35.05 32.08125Q35.565624 31.95625 36.6125 31.815624Q38.7375 31.565624 39.7375 31.221874Q39.753124 30.8625 39.753124 30.753124Q39.753124 29.690624 39.253124 29.2375Q38.58125 28.64375 37.253124 28.64375Q36.003124 28.64375 35.409374 29.08125Q34.83125 29.51875 34.55 30.628124L32.83125 30.39375Q33.065624 29.284374 33.596874 28.6125Q34.128124 27.925 35.14375 27.565624Q36.159374 27.190624 37.503124 27.190624Q38.83125 27.190624 39.659374 27.503124Q40.4875 27.815624 40.878124 28.3Q41.26875 28.76875 41.425 29.4875Q41.51875 29.940624 41.51875 31.1125L41.51875 33.45625Q41.51875 35.909374 41.628124 36.565624Q41.7375 37.20625 42.08125 37.8L40.2375 37.8Q39.971874 37.253124 39.89375 36.51875ZM39.7375 32.596874Q38.784374 32.9875 36.8625 33.253124Q35.784374 33.409374 35.33125 33.6125Q34.89375 33.8 34.64375 34.175Q34.39375 34.55 34.39375 35.01875Q34.39375 35.721874 34.925 36.190624Q35.45625 36.659374 36.4875 36.659374Q37.503124 36.659374 38.284374 36.221874Q39.08125 35.76875 39.45625 35.003124Q39.7375 34.39375 39.7375 33.2375L39.7375 32.596874ZM43.409374 34.70625L45.159374 34.425Q45.3 35.471874 45.971874 36.034374Q46.64375 36.58125 47.846874 36.58125Q49.05 36.58125 49.628124 36.096874Q50.221874 35.596874 50.221874 34.940624Q50.221874 34.346874 49.70625 34.003124Q49.346874 33.76875 47.909374 33.409374Q45.971874 32.909374 45.221874 32.565624Q44.4875 32.20625 44.096874 31.58125Q43.70625 30.940624 43.70625 30.175Q43.70625 29.4875 44.01875 28.89375Q44.346874 28.3 44.89375 27.909374Q45.3 27.6125 46.003124 27.409374Q46.721874 27.190624 47.534374 27.190624Q48.753124 27.190624 49.675 27.55Q50.596874 27.89375 51.034374 28.503124Q51.471874 29.096874 51.64375 30.096874L49.925 30.33125Q49.8 29.534374 49.2375 29.096874Q48.675 28.64375 47.659374 28.64375Q46.440624 28.64375 45.925 29.05Q45.409374 29.440624 45.409374 29.971874Q45.409374 30.315624 45.628124 30.596874Q45.83125 30.878124 46.3 31.065624Q46.565624 31.159374 47.846874 31.503124Q49.721874 32.003124 50.45625 32.33125Q51.190624 32.64375 51.6125 33.253124Q52.034374 33.846874 52.034374 34.753124Q52.034374 35.628124 51.51875 36.409374Q51.003124 37.190624 50.034374 37.6125Q49.065624 38.034374 47.846874 38.034374Q45.83125 38.034374 44.76875 37.190624Q43.70625 36.346874 43.409374 34.70625ZM61.221874 34.45625L63.034374 34.690624Q62.6125 36.26875 61.440624 37.159374Q60.284374 38.034374 58.471874 38.034374Q56.20625 38.034374 54.8625 36.64375Q53.534374 35.2375 53.534374 32.70625Q53.534374 30.08125 54.878124 28.64375Q56.221874 27.190624 58.378124 27.190624Q60.45625 27.190624 61.76875 28.6125Q63.096874 30.01875 63.096874 32.596874Q63.096874 32.753124 63.08125 33.065624L55.346874 33.065624Q55.440624 34.76875 56.315624 35.675Q57.190624 36.58125 58.4875 36.58125Q59.45625 36.58125 60.128124 36.08125Q60.815624 35.565624 61.221874 34.45625ZM55.440624 31.6125L61.2375 31.6125Q61.128124 30.315624 60.58125 29.659374Q59.7375 28.64375 58.39375 28.64375Q57.190624 28.64375 56.3625 29.45625Q55.534374 30.253124 55.440624 31.6125ZM65.65938 37.8L65.65938 23.4875L67.56563 23.4875L67.56563 37.8L65.65938 37.8ZM71.1125 37.8L71.1125 27.425L72.70625 27.425L72.70625 28.909374Q73.84688 27.190624 76.00313 27.190624Q76.94063 27.190624 77.72188 27.534374Q78.51875 27.8625 78.90938 28.409374Q79.3 28.95625 79.45625 29.70625Q79.55 30.20625 79.55 31.425L79.55 37.8L77.78438 37.8L77.78438 31.4875Q77.78438 30.409374 77.58125 29.878124Q77.37813 29.346874 76.84688 29.034374Q76.33125 28.721874 75.62813 28.721874Q74.50313 28.721874 73.69063 29.440624Q72.87813 30.14375 72.87813 32.128124L72.87813 37.8L71.1125 37.8ZM92.19063 36.26875Q93.51875 37.175 94.62813 37.596874L94.06563 38.909374Q92.51875 38.3625 90.9875 37.159374Q89.39375 38.05 87.47188 38.05Q85.53438 38.05 83.94063 37.1125Q82.3625 36.175 81.50313 34.471874Q80.65938 32.76875 80.65938 30.64375Q80.65938 28.51875 81.51875 26.784374Q82.37813 25.05 83.95625 24.14375Q85.55 23.221874 87.51875 23.221874Q89.50313 23.221874 91.08125 24.175Q92.675 25.1125 93.50313 26.815624Q94.34688 28.503124 94.34688 30.628124Q94.34688 32.39375 93.81563 33.815624Q93.28438 35.221874 92.19063 36.26875ZM88.01875 33.846874Q89.65938 34.3 90.72188 35.20625Q92.39375 33.690624 92.39375 30.628124Q92.39375 28.89375 91.8 27.596874Q91.22188 26.3 90.08125 25.58125Q88.94063 24.8625 87.51875 24.8625Q85.40938 24.8625 84.00313 26.315624Q82.6125 27.753124 82.6125 30.64375Q82.6125 33.440624 83.9875 34.940624Q85.37813 36.425 87.51875 36.425Q88.53438 36.425 89.44063 36.034374Q88.55 35.471874 87.56563 35.221874L88.01875 33.846874ZM103.90938 37.8L103.90938 36.26875Q102.70625 38.034374 100.62813 38.034374Q99.70625 38.034374 98.90938 37.690624Q98.1125 37.33125 97.72188 36.8Q97.34688 36.26875 97.19063 35.4875Q97.08125 34.971874 97.08125 33.846874L97.08125 27.425L98.83125 27.425L98.83125 33.175Q98.83125 34.55 98.94063 35.034374Q99.1125 35.721874 99.64375 36.128124Q100.19063 36.51875 100.97188 36.51875Q101.76875 36.51875 102.45625 36.1125Q103.15938 35.70625 103.44063 35.01875Q103.7375 34.315624 103.7375 32.9875L103.7375 27.425L105.4875 27.425L105.4875 37.8L103.90938 37.8ZM113.89375 36.51875Q112.90938 37.346874 112.00313 37.690624Q111.09688 38.034374 110.06563 38.034374Q108.3625 38.034374 107.44063 37.20625Q106.51875 36.3625 106.51875 35.065624Q106.51875 34.3 106.8625 33.675Q107.22188 33.05 107.78438 32.675Q108.34688 32.284374 109.05 32.08125Q109.56563 31.95625 110.6125 31.815624Q112.7375 31.565624 113.7375 31.221874Q113.75313 30.8625 113.75313 30.753124Q113.75313 29.690624 113.25313 29.2375Q112.58125 28.64375 111.25313 28.64375Q110.00313 28.64375 109.40938 29.08125Q108.83125 29.51875 108.55 30.628124L106.83125 30.39375Q107.06563 29.284374 107.59688 28.6125Q108.12813 27.925 109.14375 27.565624Q110.15938 27.190624 111.50313 27.190624Q112.83125 27.190624 113.65938 27.503124Q114.4875 27.815624 114.87813 28.3Q115.26875 28.76875 115.425 29.4875Q115.51875 29.940624 115.51875 31.1125L115.51875 33.45625Q115.51875 35.909374 115.62813 36.565624Q115.7375 37.20625 116.08125 37.8L114.2375 37.8Q113.97188 37.253124 113.89375 36.51875ZM113.7375 32.596874Q112.78438 32.9875 110.8625 33.253124Q109.78438 33.409374 109.33125 33.6125Q108.89375 33.8 108.64375 34.175Q108.39375 34.55 108.39375 35.01875Q108.39375 35.721874 108.925 36.190624Q109.45625 36.659374 110.4875 36.659374Q111.50313 36.659374 112.28438 36.221874Q113.08125 35.76875 113.45625 35.003124Q113.7375 34.39375 113.7375 33.2375L113.7375 32.596874ZM118.09688 37.8L118.09688 27.425L119.675 27.425L119.675 29.003124Q120.28438 27.89375 120.8 27.55Q121.31563 27.190624 121.925 27.190624Q122.81563 27.190624 123.7375 27.753124L123.12813 29.39375Q122.4875 29.003124 121.84688 29.003124Q121.26875 29.003124 120.8 29.3625Q120.34688 29.70625 120.14375 30.315624Q119.8625 31.253124 119.8625 32.3625L119.8625 37.8L118.09688 37.8ZM128.95625 36.221874L129.20625 37.784374Q128.47188 37.940624 127.87813 37.940624Q126.925 37.940624 126.39375 37.64375Q125.87813 37.33125 125.65938 36.846874Q125.44063 36.346874 125.44063 34.76875L125.44063 28.8L124.15938 28.8L124.15938 27.425L125.44063 27.425L125.44063 24.8625L127.19063 23.8L127.19063 27.425L128.95625 27.425L128.95625 28.8L127.19063 28.8L127.19063 34.8625Q127.19063 35.6125 127.28438 35.83125Q127.37813 36.034374 127.58125 36.175Q127.8 36.3 128.19063 36.3Q128.47188 36.3 128.95625 36.221874ZM131.12813 25.503124L131.12813 23.4875L132.89375 23.4875L132.89375 25.503124L131.12813 25.503124ZM131.12813 37.8L131.12813 27.425L132.89375 27.425L132.89375 37.8L131.12813 37.8ZM141.89375 34.003124L143.6125 34.221874Q143.33125 36.01875 142.15938 37.034374Q141.00313 38.034374 139.3 38.034374Q137.175 38.034374 135.87813 36.64375Q134.58125 35.253124 134.58125 32.659374Q134.58125 30.971874 135.12813 29.721874Q135.69063 28.45625 136.83125 27.83125Q137.97188 27.190624 139.31563 27.190624Q141.00313 27.190624 142.06563 28.05Q143.14375 28.909374 143.45625 30.471874L141.7375 30.7375Q141.50313 29.690624 140.87813 29.175Q140.25313 28.64375 139.37813 28.64375Q138.05 28.64375 137.22188 29.596874Q136.39375 30.55 136.39375 32.596874Q136.39375 34.690624 137.19063 35.64375Q137.9875 36.58125 139.28438 36.58125Q140.31563 36.58125 141.00313 35.95625Q141.70625 35.315624 141.89375 34.003124Z" fill-rule="nonzero"/></svg>