<svg version="1.1" viewBox="0.0 0.0 608.0 376.0" fill="none" stroke="none" stroke-linecap="square" stroke-miterlimit="10" width="608" height="376" xmlns:xlink="http://www.w3.org/1999/xlink" xmlns="http://www.w3.org/2000/svg"><path fill="#ffffff" d="M0 0L608.0 0L608.0 376.0L0 376.0L0 0Z" fill-rule="nonzero"/><path stroke="#cccccc" stroke-width="1.0" stroke-linecap="butt" d="M84.5 318.5L589.5 318.5" fill-rule="nonzero"/><path stroke="#333333" stroke-width="1.0" stroke-linecap="butt" d="M84.5 267.5L589.5 267.5" fill-rule="nonzero"/><path stroke="#cccccc" stroke-width="1.0" stroke-linecap="butt" d="M84.5 215.5L589.5 215.5" fill-rule="nonzero"/><path stroke="#cccccc" stroke-width="1.0" stroke-linecap="butt" d="M84.5 164.5L589.5 164.5" fill-rule="nonzero"/><path stroke="#cccccc" stroke-width="1.0" stroke-linecap="butt" d="M84.5 113.5L589.5 113.5" fill-rule="nonzero"/><path stroke="#cccccc" stroke-width="1.0" stroke-linecap="butt" d="M84.5 62.5L589.5 62.5" fill-rule="nonzero"/><path stroke="#000000" stroke-width="1.0" stroke-linecap="butt" d="M84.5 318.5L84.5 62.5" fill-rule="nonzero"/><clipPath id="id_0"><path d="M84.8 62.333332L589.2 62.333332L589.2 318.2L84.8 318.2L84.8 62.333332Z" clip-rule="nonzero"/></clipPath><path stroke="#4285f4" stroke-width="2.0" stroke-linecap="butt" clip-path="url(#id_0)" d="M87.29703 267.02667C87.29703 267.02667 90.6264 267.03845 92.29109 267.06094C93.95577 267.08344 95.62046 267.11752 97.28515 267.16156C98.94984 267.2056 100.614525 267.2607 102.279205 267.3252C103.94389 267.3897 105.60858 267.46472 107.27327 267.54855C108.93795 267.63242 110.60264 267.7262 112.26733 267.8283C113.932014 267.9304 115.5967 268.04187 117.26138 268.1611C118.92607 268.28033 120.59076 268.40842 122.25545 268.54367C123.920135 268.67892 125.584816 268.82248 127.249504 268.97266C128.91418 269.12286 130.57887 269.28076 132.24356 269.4448C133.90825 269.6088 135.57294 269.77997 137.23763 269.9567C138.90231 270.13342 140.567 270.31677 142.23169 270.5051C143.89636 270.69342 145.56105 270.88782 147.22574 271.08664C148.89043 271.28546 150.55511 271.4898 152.2198 271.69803C153.88449 271.90625 155.54918 272.11945 157.21387 272.33597C158.87856 272.5525 160.54323 272.7734 162.20792 272.9971C163.8726 273.2208 165.5373 273.44836 167.20198 273.67813C168.86667 273.9079 170.53136 274.141 172.19604 274.37573C173.86073 274.61047 175.5254 274.848 177.1901 275.08658C178.85478 275.3252 180.51947 275.566 182.18416 275.80737C183.84885 276.04874 185.51353 276.29178 187.17822 276.5348C188.84291 276.7778 190.50758 277.02194 192.17227 277.2655C193.83696 277.50906 195.50165 277.75317 197.16634 277.9962C198.83102 278.2392 200.49571 278.4822 202.1604 278.72354C203.82509 278.9649 205.48976 279.2057 207.15445 279.44424C208.81914 279.68283 210.48383 279.9203 212.14851 280.155C213.8132 280.38968 215.47789 280.6227 217.14258 280.85245C218.80727 281.08215 220.47195 281.30966 222.13663 281.5333C223.80132 281.7569 225.466 281.97775 227.13069 282.19418C228.79538 282.4106 230.46007 282.62375 232.12476 282.83188C233.78944 283.04 235.45413 283.24426 237.1188 283.44296C238.7835 283.6417 240.44818 283.836 242.11287 284.0242C243.77756 284.21243 245.44225 284.39566 247.10693 284.57224C248.77162 284.74884 250.43631 284.9199 252.10098 285.08377C253.76567 285.24765 255.43036 285.40543 257.09506 285.55545C258.75974 285.7055 260.4244 285.84888 262.0891 285.98398C263.75378 286.11908 265.4185 286.247 267.08316 286.36606C268.74786 286.4851 270.41254 286.59644 272.07724 286.69833C273.7419 286.80026 275.4066 286.89386 277.0713 286.9775C278.73596 287.0612 280.40067 287.136 282.06534 287.2003C283.73004 287.2646 285.3947 287.31946 287.05942 287.36328C288.7241 287.40714 290.3888 287.44098 292.05347 287.46326C293.71814 287.4855 295.38284 287.49725 297.04752 287.49683C298.71222 287.4964 300.3769 287.48492 302.0416 287.46072C303.70627 287.43652 305.37097 287.4007 307.03564 287.3516C308.70032 287.3025 310.36502 287.2412 312.0297 287.16614C313.6944 287.09103 315.35907 287.00323 317.02377 286.90103C318.68845 286.79883 320.35315 286.68335 322.01782 286.55295C323.6825 286.42255 325.3472 286.27832 327.01187 286.1186C328.67657 285.9589 330.34125 285.7848 332.00595 285.59464C333.67062 285.4045 335.33533 285.19943 337.0 284.97775C338.66467 284.7561 340.32938 284.51895 341.99405 284.26465C343.65875 284.01035 345.32343 283.74002 346.98813 283.45197C348.6528 283.16394 350.3175 282.8593 351.98218 282.53644C353.64685 282.21353 355.31155 281.8735 356.97623 281.51468C358.64093 281.15585 360.3056 280.77933 361.9703 280.38342C363.63498 279.98755 365.29968 279.5734 366.96436 279.13934C368.62903 278.7053 370.29373 278.25244 371.9584 277.77914C373.6231 277.30582 375.28778 276.81314 376.95248 276.29944C378.61716 275.78577 380.28186 275.25214 381.94653 274.697C383.6112 274.1418 385.2759 273.56616 386.94058 272.9684C388.6053 272.37064 390.26996 271.75186 391.93466 271.1104C393.59933 270.46896 395.26404 269.80594 396.9287 269.1197C398.5934 268.43344 400.2581 267.72507 401.92276 266.99292C403.58746 266.26077 405.25214 265.50592 406.91684 264.72678C408.5815 263.9476 410.24622 263.1452 411.9109 262.31793C413.5756 261.49066 415.24026 260.6396 416.90494 259.7631C418.56964 258.88657 420.2343 257.98575 421.89902 257.0589C423.5637 256.13208 425.2284 255.18036 426.89307 254.20209C428.55777 253.22383 430.22244 252.22012 431.88712 251.18932C433.55182 250.15851 435.2165 249.10172 436.8812 248.01726C438.54587 246.9328 440.21057 245.82181 441.87524 244.6826C443.53995 243.5434 445.20462 242.37709 446.8693 241.18204C448.534 239.98697 450.19867 238.76425 451.86337 237.51222C453.52805 236.26021 455.19275 234.97997 456.85742 233.66988C458.52213 232.35977 460.1868 231.02092 461.85147 229.65164C463.51617 228.28238 465.18085 226.88379 466.84555 225.45424C468.51022 224.02467 470.17493 222.56526 471.8396 221.07431C473.5043 219.58337 475.16898 218.06201 476.83365 216.50858C478.49835 214.95514 480.16302 213.37073 481.82773 211.7537C483.4924 210.13666 485.1571 208.48808 486.82178 206.80635C488.48648 205.1246 490.15115 203.41078 491.81583 201.66322C493.48053 199.91566 495.1452 198.13548 496.8099 196.32101C498.47458 194.50653 500.13928 192.65887 501.80396 190.77638C503.46866 188.89389 505.13333 186.97765 506.79803 185.02602C508.4627 183.07439 510.12738 181.08847 511.79208 179.0666C513.4568 177.04475 515.12146 174.98804 516.78613 172.89484C518.4508 170.80164 520.11554 168.67303 521.7802 166.50737C523.4449 164.34172 525.10956 162.14012 526.77423 159.90091C528.43896 157.6617 530.10364 155.38599 531.7683 153.07213C533.433 150.75826 535.0977 148.40733 536.7624 146.0177C538.42706 143.62807 540.09174 141.20082 541.7564 138.73431C543.42114 136.2678 545.0858 133.76314 546.7505 131.21866C548.41516 128.67416 550.0799 126.09097 551.74457 123.46741C553.40924 120.843834 555.0739 118.181 556.7386 115.47724C558.4033 112.77348 560.068 110.02991 561.73267 107.24485C563.39734 104.45979 565.0621 101.63437 566.72675 98.766914C568.3914 95.89946 570.0561 92.99107 571.72076 90.04011C573.3855 87.08915 575.0502 84.0967 576.71484 81.06113C578.3795 78.02554 580.04425 74.94794 581.7089 71.82664C583.3736 68.70534 586.70294 62.333332 586.70294 62.333332" fill-rule="nonzero"/><path fill="#000000" fill-opacity="0.0" clip-path="url(#id_0)" d="M90.29703 267.02667C90.29703 268.68353 88.95388 270.02667 87.29703 270.02667C85.640175 270.02667 84.29703 268.68353 84.29703 267.02667C84.29703 265.3698 85.640175 264.02667 87.29703 264.02667C88.95388 264.02667 90.29703 265.3698 90.29703 267.02667Z" fill-rule="nonzero"/><path fill="#000000" fill-opacity="0.0" clip-path="url(#id_0)" d="M95.29109 267.06094C95.29109 268.7178 93.947945 270.06094 92.29109 270.06094C90.63423 270.06094 89.29109 268.7178 89.29109 267.06094C89.29109 265.40408 90.63423 264.06094 92.29109 264.06094C93.947945 264.06094 95.29109 265.40408 95.29109 267.06094Z" fill-rule="nonzero"/><path fill="#000000" fill-opacity="0.0" clip-path="url(#id_0)" d="M100.28515 267.16156C100.28515 268.81842 98.942 270.16156 97.28515 270.16156C95.628296 270.16156 94.28515 268.81842 94.28515 267.16156C94.28515 265.5047 95.628296 264.16156 97.28515 264.16156C98.942 264.16156 100.28515 265.5047 100.28515 267.16156Z" fill-rule="nonzero"/><path fill="#000000" fill-opacity="0.0" clip-path="url(#id_0)" d="M105.279205 267.3252C105.279205 268.98206 103.936066 270.3252 102.279205 270.3252C100.62235 270.3252 99.279205 268.98206 99.279205 267.3252C99.279205 265.66837 100.62235 264.3252 102.279205 264.3252C103.936066 264.3252 105.279205 265.66837 105.279205 267.3252Z" fill-rule="nonzero"/><path fill="#000000" fill-opacity="0.0" clip-path="url(#id_0)" d="M110.27327 267.54855C110.27327 269.2054 108.93012 270.54855 107.27327 270.54855C105.61641 270.54855 104.27327 269.2054 104.27327 267.54855C104.27327 265.8917 105.61641 264.54855 107.27327 264.54855C108.93012 264.54855 110.27327 265.8917 110.27327 267.54855Z" fill-rule="nonzero"/><path fill="#000000" fill-opacity="0.0" clip-path="url(#id_0)" d="M115.26733 267.8283C115.26733 269.48514 113.92418 270.8283 112.26733 270.8283C110.61047 270.8283 109.26733 269.48514 109.26733 267.8283C109.26733 266.17145 110.61047 264.8283 112.26733 264.8283C113.92418 264.8283 115.26733 266.17145 115.26733 267.8283Z" fill-rule="nonzero"/><path fill="#000000" fill-opacity="0.0" clip-path="url(#id_0)" d="M120.26138 268.1611C120.26138 269.81796 118.91824 271.1611 117.26138 271.1611C115.60453 271.1611 114.26138 269.81796 114.26138 268.1611C114.26138 266.50424 115.60453 265.1611 117.26138 265.1611C118.91824 265.1611 120.26138 266.50424 120.26138 268.1611Z" fill-rule="nonzero"/><path fill="#000000" fill-opacity="0.0" clip-path="url(#id_0)" d="M125.25545 268.54367C125.25545 270.20053 123.9123 271.54367 122.25545 271.54367C120.598595 271.54367 119.25545 270.20053 119.25545 268.54367C119.25545 266.8868 120.598595 265.54367 122.25545 265.54367C123.9123 265.54367 125.25545 266.8868 125.25545 268.54367Z" fill-rule="nonzero"/><path fill="#000000" fill-opacity="0.0" clip-path="url(#id_0)" d="M130.24951 268.97266C130.24951 270.62952 128.90636 271.97266 127.249504 271.97266C125.59265 271.97266 124.249504 270.62952 124.249504 268.97266C124.249504 267.31583 125.59265 265.97266 127.249504 265.97266C128.90636 265.97266 130.24951 267.31583 130.24951 268.97266Z" fill-rule="nonzero"/><path fill="#000000" fill-opacity="0.0" clip-path="url(#id_0)" d="M135.24356 269.4448C135.24356 271.10162 133.90042 272.4448 132.24356 272.4448C130.58672 272.4448 129.24356 271.10162 129.24356 269.4448C129.24356 267.78793 130.58672 266.4448 132.24356 266.4448C133.90042 266.4448 135.24356 267.78793 135.24356 269.4448Z" fill-rule="nonzero"/><path fill="#000000" fill-opacity="0.0" clip-path="url(#id_0)" d="M140.23763 269.9567C140.23763 271.61356 138.89449 272.9567 137.23763 272.9567C135.58076 272.9567 134.23763 271.61356 134.23763 269.9567C134.23763 268.29984 135.58076 266.9567 137.23763 266.9567C138.89449 266.9567 140.23763 268.29984 140.23763 269.9567Z" fill-rule="nonzero"/><path fill="#000000" fill-opacity="0.0" clip-path="url(#id_0)" d="M145.23169 270.5051C145.23169 272.16193 143.88853 273.5051 142.23169 273.5051C140.57483 273.5051 139.23169 272.16193 139.23169 270.5051C139.23169 268.84824 140.57483 267.5051 142.23169 267.5051C143.88853 267.5051 145.23169 268.84824 145.23169 270.5051Z" fill-rule="nonzero"/><path fill="#000000" fill-opacity="0.0" clip-path="url(#id_0)" d="M150.22574 271.08664C150.22574 272.7435 148.8826 274.08664 147.22574 274.08664C145.5689 274.08664 144.22574 272.7435 144.22574 271.08664C144.22574 269.42978 145.5689 268.08664 147.22574 268.08664C148.8826 268.08664 150.22574 269.42978 150.22574 271.08664Z" fill-rule="nonzero"/><path fill="#000000" fill-opacity="0.0" clip-path="url(#id_0)" d="M155.2198 271.69803C155.2198 273.3549 153.87666 274.69803 152.2198 274.69803C150.56294 274.69803 149.2198 273.3549 149.2198 271.69803C149.2198 270.0412 150.56294 268.69803 152.2198 268.69803C153.87666 268.69803 155.2198 270.0412 155.2198 271.69803Z" fill-rule="nonzero"/><path fill="#000000" fill-opacity="0.0" clip-path="url(#id_0)" d="M160.21387 272.33597C160.21387 273.99283 158.87071 275.33597 157.21387 275.33597C155.557 275.33597 154.21387 273.99283 154.21387 272.33597C154.21387 270.6791 155.557 269.33597 157.21387 269.33597C158.87071 269.33597 160.21387 270.6791 160.21387 272.33597Z" fill-rule="nonzero"/><path fill="#000000" fill-opacity="0.0" clip-path="url(#id_0)" d="M165.20792 272.9971C165.20792 274.65396 163.86478 275.9971 162.20792 275.9971C160.55107 275.9971 159.20792 274.65396 159.20792 272.9971C159.20792 271.34024 160.55107 269.9971 162.20792 269.9971C163.86478 269.9971 165.20792 271.34024 165.20792 272.9971Z" fill-rule="nonzero"/><path fill="#000000" fill-opacity="0.0" clip-path="url(#id_0)" d="M170.20198 273.67813C170.20198 275.335 168.85884 276.67813 167.20198 276.67813C165.54512 276.67813 164.20198 275.335 164.20198 273.67813C164.20198 272.02127 165.54512 270.67813 167.20198 270.67813C168.85884 270.67813 170.20198 272.02127 170.20198 273.67813Z" fill-rule="nonzero"/><path fill="#000000" fill-opacity="0.0" clip-path="url(#id_0)" d="M175.19604 274.37573C175.19604 276.0326 173.85289 277.37573 172.19604 277.37573C170.53918 277.37573 169.19604 276.0326 169.19604 274.37573C169.19604 272.71887 170.53918 271.37573 172.19604 271.37573C173.85289 271.37573 175.19604 272.71887 175.19604 274.37573Z" fill-rule="nonzero"/><path fill="#000000" fill-opacity="0.0" clip-path="url(#id_0)" d="M180.1901 275.08658C180.1901 276.74344 178.84695 278.08658 177.1901 278.08658C175.53325 278.08658 174.1901 276.74344 174.1901 275.08658C174.1901 273.42972 175.53325 272.08658 177.1901 272.08658C178.84695 272.08658 180.1901 273.42972 180.1901 275.08658Z" fill-rule="nonzero"/><path fill="#000000" fill-opacity="0.0" clip-path="url(#id_0)" d="M185.18416 275.80737C185.18416 277.46423 183.84102 278.80737 182.18416 278.80737C180.5273 278.80737 179.18416 277.46423 179.18416 275.80737C179.18416 274.1505 180.5273 272.80737 182.18416 272.80737C183.84102 272.80737 185.18416 274.1505 185.18416 275.80737Z" fill-rule="nonzero"/><path fill="#000000" fill-opacity="0.0" clip-path="url(#id_0)" d="M190.17822 276.5348C190.17822 278.19165 188.83507 279.5348 187.17822 279.5348C185.52136 279.5348 184.17822 278.19165 184.17822 276.5348C184.17822 274.87793 185.52136 273.5348 187.17822 273.5348C188.83507 273.5348 190.17822 274.87793 190.17822 276.5348Z" fill-rule="nonzero"/><path fill="#000000" fill-opacity="0.0" clip-path="url(#id_0)" d="M195.17227 277.2655C195.17227 278.92236 193.82913 280.2655 192.17227 280.2655C190.51543 280.2655 189.17227 278.92236 189.17227 277.2655C189.17227 275.60864 190.51543 274.2655 192.17227 274.2655C193.82913 274.2655 195.17227 275.60864 195.17227 277.2655Z" fill-rule="nonzero"/><path fill="#000000" fill-opacity="0.0" clip-path="url(#id_0)" d="M200.16634 277.9962C200.16634 279.65305 198.8232 280.9962 197.16634 280.9962C195.50948 280.9962 194.16634 279.65305 194.16634 277.9962C194.16634 276.33932 195.50948 274.9962 197.16634 274.9962C198.8232 274.9962 200.16634 276.33932 200.16634 277.9962Z" fill-rule="nonzero"/><path fill="#000000" fill-opacity="0.0" clip-path="url(#id_0)" d="M205.1604 278.72354C205.1604 280.3804 203.81725 281.72354 202.1604 281.72354C200.50354 281.72354 199.1604 280.3804 199.1604 278.72354C199.1604 277.0667 200.50354 275.72354 202.1604 275.72354C203.81725 275.72354 205.1604 277.0667 205.1604 278.72354Z" fill-rule="nonzero"/><path fill="#000000" fill-opacity="0.0" clip-path="url(#id_0)" d="M210.15445 279.44424C210.15445 281.1011 208.81131 282.44424 207.15445 282.44424C205.4976 282.44424 204.15445 281.1011 204.15445 279.44424C204.15445 277.7874 205.4976 276.44424 207.15445 276.44424C208.81131 276.44424 210.15445 277.7874 210.15445 279.44424Z" fill-rule="nonzero"/><path fill="#000000" fill-opacity="0.0" clip-path="url(#id_0)" d="M215.14851 280.155C215.14851 281.81186 213.80537 283.155 212.14851 283.155C210.49165 283.155 209.14851 281.81186 209.14851 280.155C209.14851 278.49814 210.49165 277.155 212.14851 277.155C213.80537 277.155 215.14851 278.49814 215.14851 280.155Z" fill-rule="nonzero"/><path fill="#000000" fill-opacity="0.0" clip-path="url(#id_0)" d="M220.14258 280.85245C220.14258 282.5093 218.79942 283.85245 217.14258 283.85245C215.48572 283.85245 214.14258 282.5093 214.14258 280.85245C214.14258 279.1956 215.48572 277.85245 217.14258 277.85245C218.79942 277.85245 220.14258 279.1956 220.14258 280.85245Z" fill-rule="nonzero"/><path fill="#000000" fill-opacity="0.0" clip-path="url(#id_0)" d="M225.13663 281.5333C225.13663 283.19012 223.79349 284.5333 222.13663 284.5333C220.47978 284.5333 219.13663 283.19012 219.13663 281.5333C219.13663 279.87643 220.47978 278.5333 222.13663 278.5333C223.79349 278.5333 225.13663 279.87643 225.13663 281.5333Z" fill-rule="nonzero"/><path fill="#000000" fill-opacity="0.0" clip-path="url(#id_0)" d="M230.13069 282.19418C230.13069 283.85104 228.78755 285.19418 227.13069 285.19418C225.47385 285.19418 224.13069 283.85104 224.13069 282.19418C224.13069 280.53735 225.47385 279.19418 227.13069 279.19418C228.78755 279.19418 230.13069 280.53735 230.13069 282.19418Z" fill-rule="nonzero"/><path fill="#000000" fill-opacity="0.0" clip-path="url(#id_0)" d="M235.12476 282.83188C235.12476 284.4887 233.7816 285.83188 232.12476 285.83188C230.4679 285.83188 229.12476 284.4887 229.12476 282.83188C229.12476 281.17502 230.4679 279.83188 232.12476 279.83188C233.7816 279.83188 235.12476 281.17502 235.12476 282.83188Z" fill-rule="nonzero"/><path fill="#000000" fill-opacity="0.0" clip-path="url(#id_0)" d="M240.1188 283.44296C240.1188 285.09982 238.77567 286.44296 237.1188 286.44296C235.46196 286.44296 234.1188 285.09982 234.1188 283.44296C234.1188 281.78613 235.46196 280.44296 237.1188 280.44296C238.77567 280.44296 240.1188 281.78613 240.1188 283.44296Z" fill-rule="nonzero"/><path fill="#000000" fill-opacity="0.0" clip-path="url(#id_0)" d="M245.11287 284.0242C245.11287 285.68106 243.76973 287.0242 242.11287 287.0242C240.45602 287.0242 239.11287 285.68106 239.11287 284.0242C239.11287 282.36737 240.45602 281.0242 242.11287 281.0242C243.76973 281.0242 245.11287 282.36737 245.11287 284.0242Z" fill-rule="nonzero"/><path fill="#000000" fill-opacity="0.0" clip-path="url(#id_0)" d="M250.10693 284.57224C250.10693 286.2291 248.76378 287.57224 247.10693 287.57224C245.45007 287.57224 244.10693 286.2291 244.10693 284.57224C244.10693 282.9154 245.45007 281.57224 247.10693 281.57224C248.76378 281.57224 250.10693 282.9154 250.10693 284.57224Z" fill-rule="nonzero"/><path fill="#000000" fill-opacity="0.0" clip-path="url(#id_0)" d="M255.10098 285.08377C255.10098 286.74063 253.75784 288.08377 252.10098 288.08377C250.44414 288.08377 249.10098 286.74063 249.10098 285.08377C249.10098 283.4269 250.44414 282.08377 252.10098 282.08377C253.75784 282.08377 255.10098 283.4269 255.10098 285.08377Z" fill-rule="nonzero"/><path fill="#000000" fill-opacity="0.0" clip-path="url(#id_0)" d="M260.09506 285.55545C260.09506 287.2123 258.7519 288.55545 257.09506 288.55545C255.4382 288.55545 254.09505 287.2123 254.09505 285.55545C254.09505 283.8986 255.4382 282.55545 257.09506 282.55545C258.7519 282.55545 260.09506 283.8986 260.09506 285.55545Z" fill-rule="nonzero"/><path fill="#000000" fill-opacity="0.0" clip-path="url(#id_0)" d="M265.0891 285.98398C265.0891 287.64084 263.74597 288.98398 262.0891 288.98398C260.43225 288.98398 259.0891 287.64084 259.0891 285.98398C259.0891 284.32715 260.43225 282.98398 262.0891 282.98398C263.74597 282.98398 265.0891 284.32715 265.0891 285.98398Z" fill-rule="nonzero"/><path fill="#000000" fill-opacity="0.0" clip-path="url(#id_0)" d="M270.08316 286.36606C270.08316 288.02292 268.74002 289.36606 267.08316 289.36606C265.4263 289.36606 264.08316 288.02292 264.08316 286.36606C264.08316 284.7092 265.4263 283.36606 267.08316 283.36606C268.74002 283.36606 270.08316 284.7092 270.08316 286.36606Z" fill-rule="nonzero"/><path fill="#000000" fill-opacity="0.0" clip-path="url(#id_0)" d="M275.07724 286.69833C275.07724 288.3552 273.73407 289.69833 272.07724 289.69833C270.42038 289.69833 269.07724 288.3552 269.07724 286.69833C269.07724 285.0415 270.42038 283.69833 272.07724 283.69833C273.73407 283.69833 275.07724 285.0415 275.07724 286.69833Z" fill-rule="nonzero"/><path fill="#000000" fill-opacity="0.0" clip-path="url(#id_0)" d="M280.0713 286.9775C280.0713 288.63437 278.72815 289.9775 277.0713 289.9775C275.41443 289.9775 274.0713 288.63437 274.0713 286.9775C274.0713 285.32068 275.41443 283.9775 277.0713 283.9775C278.72815 283.9775 280.0713 285.32068 280.0713 286.9775Z" fill-rule="nonzero"/><path fill="#000000" fill-opacity="0.0" clip-path="url(#id_0)" d="M285.06534 287.2003C285.06534 288.85715 283.7222 290.2003 282.06534 290.2003C280.40848 290.2003 279.06534 288.85715 279.06534 287.2003C279.06534 285.54343 280.40848 284.2003 282.06534 284.2003C283.7222 284.2003 285.06534 285.54343 285.06534 287.2003Z" fill-rule="nonzero"/><path fill="#000000" fill-opacity="0.0" clip-path="url(#id_0)" d="M290.05942 287.36328C290.05942 289.02014 288.71625 290.36328 287.05942 290.36328C285.40256 290.36328 284.05942 289.02014 284.05942 287.36328C284.05942 285.70645 285.40256 284.36328 287.05942 284.36328C288.71625 284.36328 290.05942 285.70645 290.05942 287.36328Z" fill-rule="nonzero"/><path fill="#000000" fill-opacity="0.0" clip-path="url(#id_0)" d="M295.05347 287.46326C295.05347 289.12012 293.71033 290.46326 292.05347 290.46326C290.3966 290.46326 289.05347 289.12012 289.05347 287.46326C289.05347 285.8064 290.3966 284.46326 292.05347 284.46326C293.71033 284.46326 295.05347 285.8064 295.05347 287.46326Z" fill-rule="nonzero"/><path fill="#000000" fill-opacity="0.0" clip-path="url(#id_0)" d="M300.04752 287.49683C300.04752 289.1537 298.70438 290.49683 297.04752 290.49683C295.39066 290.49683 294.04752 289.1537 294.04752 287.49683C294.04752 285.83997 295.39066 284.49683 297.04752 284.49683C298.70438 284.49683 300.04752 285.83997 300.04752 287.49683Z" fill-rule="nonzero"/><path fill="#000000" fill-opacity="0.0" clip-path="url(#id_0)" d="M305.0416 287.46072C305.0416 289.11758 303.69843 290.46072 302.0416 290.46072C300.38474 290.46072 299.0416 289.11758 299.0416 287.46072C299.0416 285.80386 300.38474 284.46072 302.0416 284.46072C303.69843 284.46072 305.0416 285.80386 305.0416 287.46072Z" fill-rule="nonzero"/><path fill="#000000" fill-opacity="0.0" clip-path="url(#id_0)" d="M310.03564 287.3516C310.03564 289.00845 308.6925 290.3516 307.03564 290.3516C305.37878 290.3516 304.03564 289.00845 304.03564 287.3516C304.03564 285.69473 305.37878 284.3516 307.03564 284.3516C308.6925 284.3516 310.03564 285.69473 310.03564 287.3516Z" fill-rule="nonzero"/><path fill="#000000" fill-opacity="0.0" clip-path="url(#id_0)" d="M315.0297 287.16614C315.0297 288.823 313.68655 290.16614 312.0297 290.16614C310.37286 290.16614 309.0297 288.823 309.0297 287.16614C309.0297 285.50928 310.37286 284.16614 312.0297 284.16614C313.68655 284.16614 315.0297 285.50928 315.0297 287.16614Z" fill-rule="nonzero"/><path fill="#000000" fill-opacity="0.0" clip-path="url(#id_0)" d="M320.02377 286.90103C320.02377 288.5579 318.6806 289.90103 317.02377 289.90103C315.3669 289.90103 314.02377 288.5579 314.02377 286.90103C314.02377 285.24417 315.3669 283.90103 317.02377 283.90103C318.6806 283.90103 320.02377 285.24417 320.02377 286.90103Z" fill-rule="nonzero"/><path fill="#000000" fill-opacity="0.0" clip-path="url(#id_0)" d="M325.01782 286.55295C325.01782 288.2098 323.67468 289.55295 322.01782 289.55295C320.36096 289.55295 319.01782 288.2098 319.01782 286.55295C319.01782 284.8961 320.36096 283.55295 322.01782 283.55295C323.67468 283.55295 325.01782 284.8961 325.01782 286.55295Z" fill-rule="nonzero"/><path fill="#000000" fill-opacity="0.0" clip-path="url(#id_0)" d="M330.01187 286.1186C330.01187 287.77545 328.66873 289.1186 327.01187 289.1186C325.35504 289.1186 324.01187 287.77545 324.01187 286.1186C324.01187 284.46173 325.35504 283.1186 327.01187 283.1186C328.66873 283.1186 330.01187 284.46173 330.01187 286.1186Z" fill-rule="nonzero"/><path fill="#000000" fill-opacity="0.0" clip-path="url(#id_0)" d="M335.00595 285.59464C335.00595 287.2515 333.66278 288.59464 332.00595 288.59464C330.3491 288.59464 329.00595 287.2515 329.00595 285.59464C329.00595 283.93777 330.3491 282.59464 332.00595 282.59464C333.66278 282.59464 335.00595 283.93777 335.00595 285.59464Z" fill-rule="nonzero"/><path fill="#000000" fill-opacity="0.0" clip-path="url(#id_0)" d="M340.0 284.97775C340.0 286.6346 338.65686 287.97775 337.0 287.97775C335.34314 287.97775 334.0 286.6346 334.0 284.97775C334.0 283.3209 335.34314 281.97775 337.0 281.97775C338.65686 281.97775 340.0 283.3209 340.0 284.97775Z" fill-rule="nonzero"/><path fill="#000000" fill-opacity="0.0" clip-path="url(#id_0)" d="M344.99405 284.26465C344.99405 285.9215 343.6509 287.26465 341.99405 287.26465C340.33722 287.26465 338.99405 285.9215 338.99405 284.26465C338.99405 282.6078 340.33722 281.26465 341.99405 281.26465C343.6509 281.26465 344.99405 282.6078 344.99405 284.26465Z" fill-rule="nonzero"/><path fill="#000000" fill-opacity="0.0" clip-path="url(#id_0)" d="M349.98813 283.45197C349.98813 285.10883 348.64496 286.45197 346.98813 286.45197C345.33127 286.45197 343.98813 285.10883 343.98813 283.45197C343.98813 281.7951 345.33127 280.45197 346.98813 280.45197C348.64496 280.45197 349.98813 281.7951 349.98813 283.45197Z" fill-rule="nonzero"/><path fill="#000000" fill-opacity="0.0" clip-path="url(#id_0)" d="M354.98218 282.53644C354.98218 284.19327 353.63904 285.53644 351.98218 285.53644C350.32532 285.53644 348.98218 284.19327 348.98218 282.53644C348.98218 280.87958 350.32532 279.53644 351.98218 279.53644C353.63904 279.53644 354.98218 280.87958 354.98218 282.53644Z" fill-rule="nonzero"/><path fill="#000000" fill-opacity="0.0" clip-path="url(#id_0)" d="M359.97623 281.51468C359.97623 283.17154 358.6331 284.51468 356.97623 284.51468C355.3194 284.51468 353.97623 283.17154 353.97623 281.51468C353.97623 279.85782 355.3194 278.51468 356.97623 278.51468C358.6331 278.51468 359.97623 279.85782 359.97623 281.51468Z" fill-rule="nonzero"/><path fill="#000000" fill-opacity="0.0" clip-path="url(#id_0)" d="M364.9703 280.38342C364.9703 282.04028 363.62714 283.38342 361.9703 283.38342C360.31345 283.38342 358.9703 282.04028 358.9703 280.38342C358.9703 278.7266 360.31345 277.38342 361.9703 277.38342C363.62714 277.38342 364.9703 278.7266 364.9703 280.38342Z" fill-rule="nonzero"/><path fill="#000000" fill-opacity="0.0" clip-path="url(#id_0)" d="M369.96436 279.13934C369.96436 280.7962 368.62122 282.13934 366.96436 282.13934C365.3075 282.13934 363.96436 280.7962 363.96436 279.13934C363.96436 277.4825 365.3075 276.13934 366.96436 276.13934C368.62122 276.13934 369.96436 277.4825 369.96436 279.13934Z" fill-rule="nonzero"/><path fill="#000000" fill-opacity="0.0" clip-path="url(#id_0)" d="M374.9584 277.77914C374.9584 279.43597 373.61526 280.77914 371.9584 280.77914C370.30157 280.77914 368.9584 279.43597 368.9584 277.77914C368.9584 276.12228 370.30157 274.77914 371.9584 274.77914C373.61526 274.77914 374.9584 276.12228 374.9584 277.77914Z" fill-rule="nonzero"/><path fill="#000000" fill-opacity="0.0" clip-path="url(#id_0)" d="M379.95248 276.29944C379.95248 277.9563 378.60934 279.29944 376.95248 279.29944C375.29562 279.29944 373.95248 277.9563 373.95248 276.29944C373.95248 274.64258 375.29562 273.29944 376.95248 273.29944C378.60934 273.29944 379.95248 274.64258 379.95248 276.29944Z" fill-rule="nonzero"/><path fill="#000000" fill-opacity="0.0" clip-path="url(#id_0)" d="M384.94653 274.697C384.94653 276.35382 383.6034 277.697 381.94653 277.697C380.28967 277.697 378.94653 276.35382 378.94653 274.697C378.94653 273.04013 380.28967 271.697 381.94653 271.697C383.6034 271.697 384.94653 273.04013 384.94653 274.697Z" fill-rule="nonzero"/><path fill="#000000" fill-opacity="0.0" clip-path="url(#id_0)" d="M389.94058 272.9684C389.94058 274.62527 388.59744 275.9684 386.94058 275.9684C385.28375 275.9684 383.94058 274.62527 383.94058 272.9684C383.94058 271.31155 385.28375 269.9684 386.94058 269.9684C388.59744 269.9684 389.94058 271.31155 389.94058 272.9684Z" fill-rule="nonzero"/><path fill="#000000" fill-opacity="0.0" clip-path="url(#id_0)" d="M394.93466 271.1104C394.93466 272.76727 393.59152 274.1104 391.93466 274.1104C390.2778 274.1104 388.93466 272.76727 388.93466 271.1104C388.93466 269.45355 390.2778 268.1104 391.93466 268.1104C393.59152 268.1104 394.93466 269.45355 394.93466 271.1104Z" fill-rule="nonzero"/><path fill="#000000" fill-opacity="0.0" clip-path="url(#id_0)" d="M399.9287 269.1197C399.9287 270.77655 398.58557 272.1197 396.9287 272.1197C395.27185 272.1197 393.9287 270.77655 393.9287 269.1197C393.9287 267.46283 395.27185 266.1197 396.9287 266.1197C398.58557 266.1197 399.9287 267.46283 399.9287 269.1197Z" fill-rule="nonzero"/><path fill="#000000" fill-opacity="0.0" clip-path="url(#id_0)" d="M404.92276 266.99292C404.92276 268.64978 403.57962 269.99292 401.92276 269.99292C400.26593 269.99292 398.92276 268.64978 398.92276 266.99292C398.92276 265.33606 400.26593 263.99292 401.92276 263.99292C403.57962 263.99292 404.92276 265.33606 404.92276 266.99292Z" fill-rule="nonzero"/><path fill="#000000" fill-opacity="0.0" clip-path="url(#id_0)" d="M409.91684 264.72678C409.91684 266.38364 408.5737 267.72678 406.91684 267.72678C405.25998 267.72678 403.91684 266.38364 403.91684 264.72678C403.91684 263.06992 405.25998 261.72678 406.91684 261.72678C408.5737 261.72678 409.91684 263.06992 409.91684 264.72678Z" fill-rule="nonzero"/><path fill="#000000" fill-opacity="0.0" clip-path="url(#id_0)" d="M414.9109 262.31793C414.9109 263.9748 413.56775 265.31793 411.9109 265.31793C410.25403 265.31793 408.9109 263.9748 408.9109 262.31793C408.9109 260.66107 410.25403 259.31793 411.9109 259.31793C413.56775 259.31793 414.9109 260.66107 414.9109 262.31793Z" fill-rule="nonzero"/><path fill="#000000" fill-opacity="0.0" clip-path="url(#id_0)" d="M419.90494 259.7631C419.90494 261.41995 418.5618 262.7631 416.90494 262.7631C415.2481 262.7631 413.90494 261.41995 413.90494 259.7631C413.90494 258.10623 415.2481 256.7631 416.90494 256.7631C418.5618 256.7631 419.90494 258.10623 419.90494 259.7631Z" fill-rule="nonzero"/><path fill="#000000" fill-opacity="0.0" clip-path="url(#id_0)" d="M424.89902 257.0589C424.89902 258.71576 423.55588 260.0589 421.89902 260.0589C420.24216 260.0589 418.89902 258.71576 418.89902 257.0589C418.89902 255.40205 420.24216 254.05891 421.89902 254.05891C423.55588 254.05891 424.89902 255.40205 424.89902 257.0589Z" fill-rule="nonzero"/><path fill="#000000" fill-opacity="0.0" clip-path="url(#id_0)" d="M429.89307 254.20209C429.89307 255.85895 428.54993 257.2021 426.89307 257.2021C425.2362 257.2021 423.89307 255.85895 423.89307 254.20209C423.89307 252.54524 425.2362 251.20209 426.89307 251.20209C428.54993 251.20209 429.89307 252.54524 429.89307 254.20209Z" fill-rule="nonzero"/><path fill="#000000" fill-opacity="0.0" clip-path="url(#id_0)" d="M434.88712 251.18932C434.88712 252.84618 433.54398 254.18932 431.88712 254.18932C430.2303 254.18932 428.88712 252.84618 428.88712 251.18932C428.88712 249.53246 430.2303 248.18932 431.88712 248.18932C433.54398 248.18932 434.88712 249.53246 434.88712 251.18932Z" fill-rule="nonzero"/><path fill="#000000" fill-opacity="0.0" clip-path="url(#id_0)" d="M439.8812 248.01726C439.8812 249.67412 438.53806 251.01726 436.8812 251.01726C435.22433 251.01726 433.8812 249.67412 433.8812 248.01726C433.8812 246.36041 435.22433 245.01726 436.8812 245.01726C438.53806 245.01726 439.8812 246.36041 439.8812 248.01726Z" fill-rule="nonzero"/><path fill="#000000" fill-opacity="0.0" clip-path="url(#id_0)" d="M444.87524 244.6826C444.87524 246.33946 443.5321 247.6826 441.87524 247.6826C440.21838 247.6826 438.87524 246.33946 438.87524 244.6826C438.87524 243.02576 440.21838 241.6826 441.87524 241.6826C443.5321 241.6826 444.87524 243.02576 444.87524 244.6826Z" fill-rule="nonzero"/><path fill="#000000" fill-opacity="0.0" clip-path="url(#id_0)" d="M449.8693 241.18204C449.8693 242.83888 448.52615 244.18204 446.8693 244.18204C445.21246 244.18204 443.8693 242.83888 443.8693 241.18204C443.8693 239.52518 445.21246 238.18204 446.8693 238.18204C448.52615 238.18204 449.8693 239.52518 449.8693 241.18204Z" fill-rule="nonzero"/><path fill="#000000" fill-opacity="0.0" clip-path="url(#id_0)" d="M454.86337 237.51222C454.86337 239.16908 453.52023 240.51222 451.86337 240.51222C450.2065 240.51222 448.86337 239.16908 448.86337 237.51222C448.86337 235.85538 450.2065 234.51222 451.86337 234.51222C453.52023 234.51222 454.86337 235.85538 454.86337 237.51222Z" fill-rule="nonzero"/><path fill="#000000" fill-opacity="0.0" clip-path="url(#id_0)" d="M459.85742 233.66988C459.85742 235.32672 458.51428 236.66988 456.85742 236.66988C455.20056 236.66988 453.85742 235.32672 453.85742 233.66988C453.85742 232.01302 455.20056 230.66988 456.85742 230.66988C458.51428 230.66988 459.85742 232.01302 459.85742 233.66988Z" fill-rule="nonzero"/><path fill="#000000" fill-opacity="0.0" clip-path="url(#id_0)" d="M464.85147 229.65164C464.85147 231.3085 463.50833 232.65164 461.85147 232.65164C460.19464 232.65164 458.85147 231.3085 458.85147 229.65164C458.85147 227.9948 460.19464 226.65164 461.85147 226.65164C463.50833 226.65164 464.85147 227.9948 464.85147 229.65164Z" fill-rule="nonzero"/><path fill="#000000" fill-opacity="0.0" clip-path="url(#id_0)" d="M469.84555 225.45424C469.84555 227.11108 468.5024 228.45424 466.84555 228.45424C465.1887 228.45424 463.84555 227.11108 463.84555 225.45424C463.84555 223.79738 465.1887 222.45424 466.84555 222.45424C468.5024 222.45424 469.84555 223.79738 469.84555 225.45424Z" fill-rule="nonzero"/><path fill="#000000" fill-opacity="0.0" clip-path="url(#id_0)" d="M474.8396 221.07431C474.8396 222.73117 473.49646 224.07431 471.8396 224.07431C470.18274 224.07431 468.8396 222.73117 468.8396 221.07431C468.8396 219.41747 470.18274 218.07431 471.8396 218.07431C473.49646 218.07431 474.8396 219.41747 474.8396 221.07431Z" fill-rule="nonzero"/><path fill="#000000" fill-opacity="0.0" clip-path="url(#id_0)" d="M479.83365 216.50858C479.83365 218.16542 478.4905 219.50858 476.83365 219.50858C475.17682 219.50858 473.83365 218.16542 473.83365 216.50858C473.83365 214.85172 475.17682 213.50858 476.83365 213.50858C478.4905 213.50858 479.83365 214.85172 479.83365 216.50858Z" fill-rule="nonzero"/><path fill="#000000" fill-opacity="0.0" clip-path="url(#id_0)" d="M484.82773 211.7537C484.82773 213.41054 483.4846 214.7537 481.82773 214.7537C480.17087 214.7537 478.82773 213.41054 478.82773 211.7537C478.82773 210.09683 480.17087 208.7537 481.82773 208.7537C483.4846 208.7537 484.82773 210.09683 484.82773 211.7537Z" fill-rule="nonzero"/><path fill="#000000" fill-opacity="0.0" clip-path="url(#id_0)" d="M489.82178 206.80635C489.82178 208.4632 488.47864 209.80635 486.82178 209.80635C485.16492 209.80635 483.82178 208.4632 483.82178 206.80635C483.82178 205.14949 485.16492 203.80635 486.82178 203.80635C488.47864 203.80635 489.82178 205.14949 489.82178 206.80635Z" fill-rule="nonzero"/><path fill="#000000" fill-opacity="0.0" clip-path="url(#id_0)" d="M494.81583 201.66322C494.81583 203.32008 493.4727 204.66322 491.81583 204.66322C490.159 204.66322 488.81583 203.32008 488.81583 201.66322C488.81583 200.00638 490.159 198.66322 491.81583 198.66322C493.4727 198.66322 494.81583 200.00638 494.81583 201.66322Z" fill-rule="nonzero"/><path fill="#000000" fill-opacity="0.0" clip-path="url(#id_0)" d="M499.8099 196.32101C499.8099 197.97786 498.46677 199.32101 496.8099 199.32101C495.15305 199.32101 493.8099 197.97786 493.8099 196.32101C493.8099 194.66415 495.15305 193.32101 496.8099 193.32101C498.46677 193.32101 499.8099 194.66415 499.8099 196.32101Z" fill-rule="nonzero"/><path fill="#000000" fill-opacity="0.0" clip-path="url(#id_0)" d="M504.80396 190.77638C504.80396 192.43324 503.46082 193.77638 501.80396 193.77638C500.1471 193.77638 498.80396 192.43324 498.80396 190.77638C498.80396 189.11952 500.1471 187.77638 501.80396 187.77638C503.46082 187.77638 504.80396 189.11952 504.80396 190.77638Z" fill-rule="nonzero"/><path fill="#000000" fill-opacity="0.0" clip-path="url(#id_0)" d="M509.79803 185.02602C509.79803 186.68288 508.45486 188.02602 506.79803 188.02602C505.14117 188.02602 503.79803 186.68288 503.79803 185.02602C503.79803 183.36917 505.14117 182.02602 506.79803 182.02602C508.45486 182.02602 509.79803 183.36917 509.79803 185.02602Z" fill-rule="nonzero"/><path fill="#000000" fill-opacity="0.0" clip-path="url(#id_0)" d="M514.79205 179.0666C514.79205 180.72346 513.4489 182.0666 511.79208 182.0666C510.13522 182.0666 508.79208 180.72346 508.79208 179.0666C508.79208 177.40976 510.13522 176.0666 511.79208 176.0666C513.4489 176.0666 514.79205 177.40976 514.79205 179.0666Z" fill-rule="nonzero"/><path fill="#000000" fill-opacity="0.0" clip-path="url(#id_0)" d="M519.78613 172.89484C519.78613 174.55168 518.443 175.89484 516.78613 175.89484C515.1293 175.89484 513.78613 174.55168 513.78613 172.89484C513.78613 171.23798 515.1293 169.89484 516.78613 169.89484C518.443 169.89484 519.78613 171.23798 519.78613 172.89484Z" fill-rule="nonzero"/><path fill="#000000" fill-opacity="0.0" clip-path="url(#id_0)" d="M524.7802 166.50737C524.7802 168.16423 523.4371 169.50737 521.7802 169.50737C520.12335 169.50737 518.7802 168.16423 518.7802 166.50737C518.7802 164.85052 520.12335 163.50737 521.7802 163.50737C523.4371 163.50737 524.7802 164.85052 524.7802 166.50737Z" fill-rule="nonzero"/><path fill="#000000" fill-opacity="0.0" clip-path="url(#id_0)" d="M529.77423 159.90091C529.77423 161.55775 528.4311 162.90091 526.77423 162.90091C525.11743 162.90091 523.77423 161.55775 523.77423 159.90091C523.77423 158.24405 525.11743 156.90091 526.77423 156.90091C528.4311 156.90091 529.77423 158.24405 529.77423 159.90091Z" fill-rule="nonzero"/><path fill="#000000" fill-opacity="0.0" clip-path="url(#id_0)" d="M534.7683 153.07213C534.7683 154.72897 533.4252 156.07213 531.7683 156.07213C530.11145 156.07213 528.7683 154.72897 528.7683 153.07213C528.7683 151.41527 530.11145 150.07213 531.7683 150.07213C533.4252 150.07213 534.7683 151.41527 534.7683 153.07213Z" fill-rule="nonzero"/><path fill="#000000" fill-opacity="0.0" clip-path="url(#id_0)" d="M539.7624 146.0177C539.7624 147.67455 538.41925 149.0177 536.7624 149.0177C535.1055 149.0177 533.7624 147.67455 533.7624 146.0177C533.7624 144.36084 535.1055 143.0177 536.7624 143.0177C538.41925 143.0177 539.7624 144.36084 539.7624 146.0177Z" fill-rule="nonzero"/><path fill="#000000" fill-opacity="0.0" clip-path="url(#id_0)" d="M544.7564 138.73431C544.7564 140.39117 543.41327 141.73431 541.7564 141.73431C540.0996 141.73431 538.7564 140.39117 538.7564 138.73431C538.7564 137.07745 540.0996 135.73431 541.7564 135.73431C543.41327 135.73431 544.7564 137.07745 544.7564 138.73431Z" fill-rule="nonzero"/><path fill="#000000" fill-opacity="0.0" clip-path="url(#id_0)" d="M549.7505 131.21866C549.7505 132.8755 548.40735 134.21866 546.7505 134.21866C545.0936 134.21866 543.7505 132.8755 543.7505 131.21866C543.7505 129.5618 545.0936 128.21866 546.7505 128.21866C548.40735 128.21866 549.7505 129.5618 549.7505 131.21866Z" fill-rule="nonzero"/><path fill="#000000" fill-opacity="0.0" clip-path="url(#id_0)" d="M554.74457 123.46741C554.74457 125.12426 553.4014 126.46741 551.74457 126.46741C550.0877 126.46741 548.74457 125.12426 548.74457 123.46741C548.74457 121.81055 550.0877 120.46741 551.74457 120.46741C553.4014 120.46741 554.74457 121.81055 554.74457 123.46741Z" fill-rule="nonzero"/><path fill="#000000" fill-opacity="0.0" clip-path="url(#id_0)" d="M559.7386 115.47724C559.7386 117.134094 558.39545 118.47724 556.7386 118.47724C555.0818 118.47724 553.7386 117.134094 553.7386 115.47724C553.7386 113.82039 555.0818 112.47724 556.7386 112.47724C558.39545 112.47724 559.7386 113.82039 559.7386 115.47724Z" fill-rule="nonzero"/><path fill="#000000" fill-opacity="0.0" clip-path="url(#id_0)" d="M564.73267 107.24485C564.73267 108.9017 563.3895 110.24485 561.73267 110.24485C560.0758 110.24485 558.73267 108.9017 558.73267 107.24485C558.73267 105.588 560.0758 104.24485 561.73267 104.24485C563.3895 104.24485 564.73267 105.588 564.73267 107.24485Z" fill-rule="nonzero"/><path fill="#000000" fill-opacity="0.0" clip-path="url(#id_0)" d="M569.72675 98.766914C569.72675 100.42377 568.3836 101.766914 566.72675 101.766914C565.0699 101.766914 563.72675 100.42377 563.72675 98.766914C563.72675 97.11006 565.0699 95.766914 566.72675 95.766914C568.3836 95.766914 569.72675 97.11006 569.72675 98.766914Z" fill-rule="nonzero"/><path fill="#000000" fill-opacity="0.0" clip-path="url(#id_0)" d="M574.72076 90.04011C574.72076 91.69697 573.3776 93.04011 571.72076 93.04011C570.06396 93.04011 568.72076 91.69697 568.72076 90.04011C568.72076 88.383255 570.06396 87.04011 571.72076 87.04011C573.3776 87.04011 574.72076 88.383255 574.72076 90.04011Z" fill-rule="nonzero"/><path fill="#000000" fill-opacity="0.0" clip-path="url(#id_0)" d="M579.71484 81.06113C579.71484 82.71798 578.3717 84.06113 576.71484 84.06113C575.058 84.06113 573.71484 82.71798 573.71484 81.06113C573.71484 79.404274 575.058 78.06113 576.71484 78.06113C578.3717 78.06113 579.71484 79.404274 579.71484 81.06113Z" fill-rule="nonzero"/><path fill="#000000" fill-opacity="0.0" clip-path="url(#id_0)" d="M584.7089 71.82664C584.7089 73.48349 583.3658 74.82664 581.7089 74.82664C580.05206 74.82664 578.7089 73.48349 578.7089 71.82664C578.7089 70.169785 580.05206 68.82664 581.7089 68.82664C583.3658 68.82664 584.7089 70.169785 584.7089 71.82664Z" fill-rule="nonzero"/><path fill="#000000" fill-opacity="0.0" clip-path="url(#id_0)" d="M589.70294 62.333332C589.70294 63.99019 588.3598 65.333336 586.70294 65.333336C585.04614 65.333336 583.70294 63.99019 583.70294 62.333332C583.70294 60.67648 585.04614 59.333332 586.70294 59.333332C588.3598 59.333332 589.70294 60.67648 589.70294 62.333332Z" fill-rule="nonzero"/><path fill="#000000" d="M338.59375 353.2625L338.75 354.1844Q338.29688 354.27814 337.95312 354.27814Q337.375 354.27814 337.0625 354.10626Q336.75 353.91876 336.60938 353.6219Q336.48438 353.325 336.48438 352.3719L336.48438 348.79376L335.71875 348.79376L335.71875 347.98126L336.48438 347.98126L336.48438 346.4344L337.53125 345.8094L337.53125 347.98126L338.59375 347.98126L338.59375 348.79376L337.53125 348.79376L337.53125 352.4344Q337.53125 352.8875 337.57812 353.0125Q337.64062 353.1375 337.76562 353.21564Q337.89062 353.29376 338.125 353.29376Q338.3125 353.29376 338.59375 353.2625Z" fill-rule="nonzero"/><path fill="#000000" d="M29.800013 192.67291L26.565638 190.40729L23.581263 192.50104L23.581263 191.18854L25.034388 190.23541Q25.456263 189.96979 25.737513 189.79791Q25.346888 189.54791 25.050013 189.32916L23.581263 188.28229L23.581263 187.01666L26.503138 189.17291L29.800013 186.86041L29.800013 188.14166L27.862513 189.42291L27.346888 189.76666L29.800013 191.40729L29.800013 192.67291Z" fill-rule="nonzero"/><path fill="#000000" d="M51.175 319.6219L51.175 318.5594L54.425 318.5594L54.425 319.6219L51.175 319.6219ZM55.3 317.96564Q55.3 316.4344 55.6125 315.5125Q55.925 314.575 56.534374 314.075Q57.159374 313.575 58.096874 313.575Q58.784374 313.575 59.3 313.85626Q59.83125 314.1375 60.175 314.66876Q60.51875 315.1844 60.70625 315.9344Q60.89375 316.6844 60.89375 317.96564Q60.89375 319.48126 60.58125 320.40314Q60.284374 321.325 59.659374 321.84064Q59.05 322.34064 58.096874 322.34064Q56.8625 322.34064 56.14375 321.45Q55.3 320.3875 55.3 317.96564ZM56.378124 317.96564Q56.378124 320.075 56.878124 320.77814Q57.378124 321.48126 58.096874 321.48126Q58.83125 321.48126 59.315624 320.77814Q59.815624 320.075 59.815624 317.96564Q59.815624 315.84064 59.315624 315.15314Q58.83125 314.45 58.08125 314.45Q57.3625 314.45 56.925 315.0594Q56.378124 315.84064 56.378124 317.96564ZM62.89375 322.2L62.89375 320.9969L64.09688 320.9969L64.09688 322.2L62.89375 322.2ZM70.84688 321.1844L70.84688 322.2L65.15938 322.2Q65.15938 321.825 65.28438 321.46564Q65.50313 320.8875 65.97188 320.325Q66.45625 319.7625 67.3625 319.02814Q68.76875 317.8719 69.25313 317.2Q69.75313 316.52814 69.75313 315.9344Q69.75313 315.3094 69.3 314.8875Q68.84688 314.45 68.12813 314.45Q67.3625 314.45 66.90938 314.90314Q66.45625 315.35626 66.44063 316.16876L65.3625 316.0594Q65.47188 314.84064 66.19063 314.21564Q66.925 313.575 68.15938 313.575Q69.39375 313.575 70.1125 314.2625Q70.83125 314.95 70.83125 315.96564Q70.83125 316.48126 70.6125 316.98126Q70.40938 317.46564 69.90938 318.02814Q69.425 318.575 68.3 319.52814Q67.34688 320.325 67.06563 320.6219Q66.8 320.90314 66.62813 321.1844L70.84688 321.1844ZM72.3 319.95L73.40938 319.85626Q73.53438 320.66876 73.97188 321.075Q74.425 321.48126 75.06563 321.48126Q75.81563 321.48126 76.34688 320.90314Q76.87813 320.325 76.87813 319.3875Q76.87813 318.48126 76.3625 317.96564Q75.8625 317.4344 75.03438 317.4344Q74.53438 317.4344 74.1125 317.66876Q73.70625 317.90314 73.47188 318.2625L72.4875 318.1375L73.31563 313.73126L77.59688 313.73126L77.59688 314.73126L74.15938 314.73126L73.70625 317.04376Q74.47188 316.4969 75.31563 316.4969Q76.44063 316.4969 77.20625 317.27814Q77.9875 318.0594 77.9875 319.29376Q77.9875 320.45 77.31563 321.3094Q76.4875 322.34064 75.06563 322.34064Q73.89375 322.34064 73.14375 321.6844Q72.40938 321.02814 72.3 319.95Z" fill-rule="nonzero"/><path fill="#000000" d="M55.3 266.7923Q55.3 265.26105 55.6125 264.33917Q55.925 263.40167 56.534374 262.90167Q57.159374 262.40167 58.096874 262.40167Q58.784374 262.40167 59.3 262.68292Q59.83125 262.96417 60.175 263.49542Q60.51875 264.01105 60.70625 264.76105Q60.89375 265.51105 60.89375 266.7923Q60.89375 268.30792 60.58125 269.2298Q60.284374 270.15167 59.659374 270.6673Q59.05 271.1673 58.096874 271.1673Q56.8625 271.1673 56.14375 270.27667Q55.3 269.21417 55.3 266.7923ZM56.378124 266.7923Q56.378124 268.90167 56.878124 269.6048Q57.378124 270.30792 58.096874 270.30792Q58.83125 270.30792 59.315624 269.6048Q59.815624 268.90167 59.815624 266.7923Q59.815624 264.6673 59.315624 263.9798Q58.83125 263.27667 58.08125 263.27667Q57.3625 263.27667 56.925 263.88605Q56.378124 264.6673 56.378124 266.7923ZM62.89375 271.02667L62.89375 269.82355L64.09688 269.82355L64.09688 271.02667L62.89375 271.02667ZM65.3 266.7923Q65.3 265.26105 65.6125 264.33917Q65.925 263.40167 66.53438 262.90167Q67.15938 262.40167 68.09688 262.40167Q68.78438 262.40167 69.3 262.68292Q69.83125 262.96417 70.175 263.49542Q70.51875 264.01105 70.70625 264.76105Q70.89375 265.51105 70.89375 266.7923Q70.89375 268.30792 70.58125 269.2298Q70.28438 270.15167 69.65938 270.6673Q69.05 271.1673 68.09688 271.1673Q66.8625 271.1673 66.14375 270.27667Q65.3 269.21417 65.3 266.7923ZM66.37813 266.7923Q66.37813 268.90167 66.87813 269.6048Q67.37813 270.30792 68.09688 270.30792Q68.83125 270.30792 69.31563 269.6048Q69.81563 268.90167 69.81563 266.7923Q69.81563 264.6673 69.31563 263.9798Q68.83125 263.27667 68.08125 263.27667Q67.3625 263.27667 66.925 263.88605Q66.37813 264.6673 66.37813 266.7923ZM72.3 266.7923Q72.3 265.26105 72.6125 264.33917Q72.925 263.40167 73.53438 262.90167Q74.15938 262.40167 75.09688 262.40167Q75.78438 262.40167 76.3 262.68292Q76.83125 262.96417 77.175 263.49542Q77.51875 264.01105 77.70625 264.76105Q77.89375 265.51105 77.89375 266.7923Q77.89375 268.30792 77.58125 269.2298Q77.28438 270.15167 76.65938 270.6673Q76.05 271.1673 75.09688 271.1673Q73.8625 271.1673 73.14375 270.27667Q72.3 269.21417 72.3 266.7923ZM73.37813 266.7923Q73.37813 268.90167 73.87813 269.6048Q74.37813 270.30792 75.09688 270.30792Q75.83125 270.30792 76.31563 269.6048Q76.81563 268.90167 76.81563 266.7923Q76.81563 264.6673 76.31563 263.9798Q75.83125 263.27667 75.08125 263.27667Q74.3625 263.27667 73.925 263.88605Q73.37813 264.6673 73.37813 266.7923Z" fill-rule="nonzero"/><path fill="#000000" d="M55.3 215.61896Q55.3 214.0877 55.6125 213.16583Q55.925 212.22833 56.534374 211.72833Q57.159374 211.22833 58.096874 211.22833Q58.784374 211.22833 59.3 211.50958Q59.83125 211.79083 60.175 212.32208Q60.51875 212.8377 60.70625 213.5877Q60.89375 214.3377 60.89375 215.61896Q60.89375 217.13458 60.58125 218.05646Q60.284374 218.97833 59.659374 219.49396Q59.05 219.99396 58.096874 219.99396Q56.8625 219.99396 56.14375 219.10333Q55.3 218.04083 55.3 215.61896ZM56.378124 215.61896Q56.378124 217.72833 56.878124 218.43146Q57.378124 219.13458 58.096874 219.13458Q58.83125 219.13458 59.315624 218.43146Q59.815624 217.72833 59.815624 215.61896Q59.815624 213.49396 59.315624 212.80646Q58.83125 212.10333 58.08125 212.10333Q57.3625 212.10333 56.925 212.7127Q56.378124 213.49396 56.378124 215.61896ZM62.89375 219.85333L62.89375 218.6502L64.09688 218.6502L64.09688 219.85333L62.89375 219.85333ZM70.84688 218.8377L70.84688 219.85333L65.15938 219.85333Q65.15938 219.47833 65.28438 219.11896Q65.50313 218.54083 65.97188 217.97833Q66.45625 217.41583 67.3625 216.68146Q68.76875 215.5252 69.25313 214.85333Q69.75313 214.18146 69.75313 213.5877Q69.75313 212.9627 69.3 212.54083Q68.84688 212.10333 68.12813 212.10333Q67.3625 212.10333 66.90938 212.55646Q66.45625 213.00958 66.44063 213.82208L65.3625 213.7127Q65.47188 212.49396 66.19063 211.86896Q66.925 211.22833 68.15938 211.22833Q69.39375 211.22833 70.1125 211.91583Q70.83125 212.60333 70.83125 213.61896Q70.83125 214.13458 70.6125 214.63458Q70.40938 215.11896 69.90938 215.68146Q69.425 216.22833 68.3 217.18146Q67.34688 217.97833 67.06563 218.2752Q66.8 218.55646 66.62813 218.8377L70.84688 218.8377ZM72.3 217.60333L73.40938 217.50958Q73.53438 218.32208 73.97188 218.72833Q74.425 219.13458 75.06563 219.13458Q75.81563 219.13458 76.34688 218.55646Q76.87813 217.97833 76.87813 217.04083Q76.87813 216.13458 76.3625 215.61896Q75.8625 215.0877 75.03438 215.0877Q74.53438 215.0877 74.1125 215.32208Q73.70625 215.55646 73.47188 215.91583L72.4875 215.79083L73.31563 211.38458L77.59688 211.38458L77.59688 212.38458L74.15938 212.38458L73.70625 214.69708Q74.47188 214.1502 75.31563 214.1502Q76.44063 214.1502 77.20625 214.93146Q77.9875 215.7127 77.9875 216.94708Q77.9875 218.10333 77.31563 218.9627Q76.4875 219.99396 75.06563 219.99396Q73.89375 219.99396 73.14375 219.3377Q72.40938 218.68146 72.3 217.60333Z" fill-rule="nonzero"/><path fill="#000000" d="M55.3 164.44562Q55.3 162.91437 55.6125 161.9925Q55.925 161.055 56.534374 160.555Q57.159374 160.055 58.096874 160.055Q58.784374 160.055 59.3 160.33624Q59.83125 160.6175 60.175 161.14874Q60.51875 161.66437 60.70625 162.41437Q60.89375 163.16437 60.89375 164.44562Q60.89375 165.96124 60.58125 166.88312Q60.284374 167.805 59.659374 168.32062Q59.05 168.82062 58.096874 168.82062Q56.8625 168.82062 56.14375 167.93Q55.3 166.8675 55.3 164.44562ZM56.378124 164.44562Q56.378124 166.555 56.878124 167.25812Q57.378124 167.96124 58.096874 167.96124Q58.83125 167.96124 59.315624 167.25812Q59.815624 166.555 59.815624 164.44562Q59.815624 162.32062 59.315624 161.63312Q58.83125 160.93 58.08125 160.93Q57.3625 160.93 56.925 161.53937Q56.378124 162.32062 56.378124 164.44562ZM62.89375 168.68L62.89375 167.47687L64.09688 167.47687L64.09688 168.68L62.89375 168.68ZM65.3 166.43L66.40938 166.33624Q66.53438 167.14874 66.97188 167.555Q67.425 167.96124 68.06563 167.96124Q68.81563 167.96124 69.34688 167.38312Q69.87813 166.805 69.87813 165.8675Q69.87813 164.96124 69.3625 164.44562Q68.8625 163.91437 68.03438 163.91437Q67.53438 163.91437 67.1125 164.14874Q66.70625 164.38312 66.47188 164.7425L65.4875 164.6175L66.31563 160.21124L70.59688 160.21124L70.59688 161.21124L67.15938 161.21124L66.70625 163.52374Q67.47188 162.97687 68.31563 162.97687Q69.44063 162.97687 70.20625 163.75812Q70.9875 164.53937 70.9875 165.77374Q70.9875 166.93 70.31563 167.78937Q69.4875 168.82062 68.06563 168.82062Q66.89375 168.82062 66.14375 168.16437Q65.40938 167.50812 65.3 166.43ZM72.3 164.44562Q72.3 162.91437 72.6125 161.9925Q72.925 161.055 73.53438 160.555Q74.15938 160.055 75.09688 160.055Q75.78438 160.055 76.3 160.33624Q76.83125 160.6175 77.175 161.14874Q77.51875 161.66437 77.70625 162.41437Q77.89375 163.16437 77.89375 164.44562Q77.89375 165.96124 77.58125 166.88312Q77.28438 167.805 76.65938 168.32062Q76.05 168.82062 75.09688 168.82062Q73.8625 168.82062 73.14375 167.93Q72.3 166.8675 72.3 164.44562ZM73.37813 164.44562Q73.37813 166.555 73.87813 167.25812Q74.37813 167.96124 75.09688 167.96124Q75.83125 167.96124 76.31563 167.25812Q76.81563 166.555 76.81563 164.44562Q76.81563 162.32062 76.31563 161.63312Q75.83125 160.93 75.08125 160.93Q74.3625 160.93 73.925 161.53937Q73.37813 162.32062 73.37813 164.44562Z" fill-rule="nonzero"/><path fill="#000000" d="M55.3 113.27229Q55.3 111.74104 55.6125 110.81917Q55.925 109.88167 56.534374 109.38167Q57.159374 108.88167 58.096874 108.88167Q58.784374 108.88167 59.3 109.16292Q59.83125 109.44417 60.175 109.97542Q60.51875 110.49104 60.70625 111.24104Q60.89375 111.99104 60.89375 113.27229Q60.89375 114.78792 60.58125 115.70979Q60.284374 116.63167 59.659374 117.14729Q59.05 117.64729 58.096874 117.64729Q56.8625 117.64729 56.14375 116.75667Q55.3 115.69417 55.3 113.27229ZM56.378124 113.27229Q56.378124 115.38167 56.878124 116.08479Q57.378124 116.78792 58.096874 116.78792Q58.83125 116.78792 59.315624 116.08479Q59.815624 115.38167 59.815624 113.27229Q59.815624 111.14729 59.315624 110.45979Q58.83125 109.75667 58.08125 109.75667Q57.3625 109.75667 56.925 110.36604Q56.378124 111.14729 56.378124 113.27229ZM62.89375 117.50667L62.89375 116.30354L64.09688 116.30354L64.09688 117.50667L62.89375 117.50667ZM65.3625 110.03792L65.3625 109.02229L70.925 109.02229L70.925 109.85042Q70.1125 110.72542 69.3 112.17854Q68.50313 113.61604 68.06563 115.14729Q67.7375 116.22542 67.65938 117.50667L66.56563 117.50667Q66.58125 116.49104 66.95625 115.05354Q67.34688 113.61604 68.05 112.28792Q68.76875 110.95979 69.58125 110.03792L65.3625 110.03792ZM72.3 115.25667L73.40938 115.16292Q73.53438 115.97542 73.97188 116.38167Q74.425 116.78792 75.06563 116.78792Q75.81563 116.78792 76.34688 116.20979Q76.87813 115.63167 76.87813 114.69417Q76.87813 113.78792 76.3625 113.27229Q75.8625 112.74104 75.03438 112.74104Q74.53438 112.74104 74.1125 112.97542Q73.70625 113.20979 73.47188 113.56917L72.4875 113.44417L73.31563 109.03792L77.59688 109.03792L77.59688 110.03792L74.15938 110.03792L73.70625 112.35042Q74.47188 111.80354 75.31563 111.80354Q76.44063 111.80354 77.20625 112.58479Q77.9875 113.36604 77.9875 114.60042Q77.9875 115.75667 77.31563 116.61604Q76.4875 117.64729 75.06563 117.64729Q73.89375 117.64729 73.14375 116.99104Q72.40938 116.33479 72.3 115.25667Z" fill-rule="nonzero"/><path fill="#000000" d="M59.26875 66.333336L58.221874 66.333336L58.221874 59.614586Q57.83125 59.97396 57.20625 60.34896Q56.596874 60.708336 56.1125 60.88021L56.1125 59.864586Q56.9875 59.44271 57.64375 58.864586Q58.315624 58.270836 58.596874 57.708336L59.26875 57.708336L59.26875 66.333336ZM62.89375 66.333336L62.89375 65.13021L64.09688 65.13021L64.09688 66.333336L62.89375 66.333336ZM65.3 62.09896Q65.3 60.56771 65.6125 59.645836Q65.925 58.708336 66.53438 58.208336Q67.15938 57.708336 68.09688 57.708336Q68.78438 57.708336 69.3 57.989586Q69.83125 58.270836 70.175 58.802086Q70.51875 59.31771 70.70625 60.06771Q70.89375 60.81771 70.89375 62.09896Q70.89375 63.614586 70.58125 64.53646Q70.28438 65.458336 69.65938 65.97396Q69.05 66.47396 68.09688 66.47396Q66.8625 66.47396 66.14375 65.583336Q65.3 64.520836 65.3 62.09896ZM66.37813 62.09896Q66.37813 64.208336 66.87813 64.91146Q67.37813 65.614586 68.09688 65.614586Q68.83125 65.614586 69.31563 64.91146Q69.81563 64.208336 69.81563 62.09896Q69.81563 59.97396 69.31563 59.28646Q68.83125 58.583336 68.08125 58.583336Q67.3625 58.583336 66.925 59.19271Q66.37813 59.97396 66.37813 62.09896ZM72.3 62.09896Q72.3 60.56771 72.6125 59.645836Q72.925 58.708336 73.53438 58.208336Q74.15938 57.708336 75.09688 57.708336Q75.78438 57.708336 76.3 57.989586Q76.83125 58.270836 77.175 58.802086Q77.51875 59.31771 77.70625 60.06771Q77.89375 60.81771 77.89375 62.09896Q77.89375 63.614586 77.58125 64.53646Q77.28438 65.458336 76.65938 65.97396Q76.05 66.47396 75.09688 66.47396Q73.8625 66.47396 73.14375 65.583336Q72.3 64.520836 72.3 62.09896ZM73.37813 62.09896Q73.37813 64.208336 73.87813 64.91146Q74.37813 65.614586 75.09688 65.614586Q75.83125 65.614586 76.31563 64.91146Q76.81563 64.208336 76.81563 62.09896Q76.81563 59.97396 76.31563 59.28646Q75.83125 58.583336 75.08125 58.583336Q74.3625 58.583336 73.925 59.19271Q73.37813 59.97396 73.37813 62.09896Z" fill-rule="nonzero"/><path fill="#757575" d="M20.378124 37.8L20.378124 23.4875L30.7375 23.4875L30.7375 25.175L22.284374 25.175L22.284374 29.55L30.190624 29.55L30.190624 31.2375L22.284374 31.2375L22.284374 36.1125L31.065624 36.1125L31.065624 37.8L20.378124 37.8ZM39.89375 36.51875Q38.909374 37.346874 38.003124 37.690624Q37.096874 38.034374 36.065624 38.034374Q34.3625 38.034374 33.440624 37.20625Q32.51875 36.3625 32.51875 35.065624Q32.51875 34.3 32.8625 33.675Q33.221874 33.05 33.784374 32.675Q34.346874 32.284374 35.05 32.08125Q35.565624 31.95625 36.6125 31.815624Q38.7375 31.565624 39.7375 31.221874Q39.753124 30.8625 39.753124 30.753124Q39.753124 29.690624 39.253124 29.2375Q38.58125 28.64375 37.253124 28.64375Q36.003124 28.64375 35.409374 29.08125Q34.83125 29.51875 34.55 30.628124L32.83125 30.39375Q33.065624 29.284374 33.596874 28.6125Q34.128124 27.925 35.14375 27.565624Q36.159374 27.190624 37.503124 27.190624Q38.83125 27.190624 39.659374 27.503124Q40.4875 27.815624 40.878124 28.3Q41.26875 28.76875 41.425 29.4875Q41.51875 29.940624 41.51875 31.1125L41.51875 33.45625Q41.51875 35.909374 41.628124 36.565624Q41.7375 37.20625 42.08125 37.8L40.2375 37.8Q39.971874 37.253124 39.89375 36.51875ZM39.7375 32.596874Q38.784374 32.9875 36.8625 33.253124Q35.784374 33.409374 35.33125 33.6125Q34.89375 33.8 34.64375 34.175Q34.39375 34.55 34.39375 35.01875Q34.39375 35.721874 34.925 36.190624Q35.45625 36.659374 36.4875 36.659374Q37.503124 36.659374 38.284374 36.221874Q39.08125 35.76875 39.45625 35.003124Q39.7375 34.39375 39.7375 33.2375L39.7375 32.596874ZM43.409374 34.70625L45.159374 34.425Q45.3 35.471874 45.971874 36.034374Q46.64375 36.58125 47.846874 36.58125Q49.05 36.58125 49.628124 36.096874Q50.221874 35.596874 50.221874 34.940624Q50.221874 34.346874 49.70625 34.003124Q49.346874 33.76875 47.909374 33.409374Q45.971874 32.909374 45.221874 32.565624Q44.4875 32.20625 44.096874 31.58125Q43.70625 30.940624 43.70625 30.175Q43.70625 29.4875 44.01875 28.89375Q44.346874 28.3 44.89375 27.909374Q45.3 27.6125 46.003124 27.409374Q46.721874 27.190624 47.534374 27.190624Q48.753124 27.190624 49.675 27.55Q50.596874 27.89375 51.034374 28.503124Q51.471874 29.096874 51.64375 30.096874L49.925 30.33125Q49.8 29.534374 49.2375 29.096874Q48.675 28.64375 47.659374 28.64375Q46.440624 28.64375 45.925 29.05Q45.409374 29.440624 45.409374 29.971874Q45.409374 30.315624 45.628124 30.596874Q45.83125 30.878124 46.3 31.065624Q46.565624 31.159374 47.846874 31.503124Q49.721874 32.003124 50.45625 32.33125Q51.190624 32.64375 51.6125 33.253124Q52.034374 33.846874 52.034374 34.753124Q52.034374 35.628124 51.51875 36.409374Q51.003124 37.190624 50.034374 37.6125Q49.065624 38.034374 47.846874 38.034374Q45.83125 38.034374 44.76875 37.190624Q43.70625 36.346874 43.409374 34.70625ZM61.221874 34.45625L63.034374 34.690624Q62.6125 36.26875 61.440624 37.159374Q60.284374 38.034374 58.471874 38.034374Q56.20625 38.034374 54.8625 36.64375Q53.534374 35.2375 53.534374 32.70625Q53.534374 30.08125 54.878124 28.64375Q56.221874 27.190624 58.378124 27.190624Q60.45625 27.190624 61.76875 28.6125Q63.096874 30.01875 63.096874 32.596874Q63.096874 32.753124 63.08125 33.065624L55.346874 33.065624Q55.440624 34.76875 56.315624 35.675Q57.190624 36.58125 58.4875 36.58125Q59.45625 36.58125 60.128124 36.08125Q60.815624 35.565624 61.221874 34.45625ZM55.440624 31.6125L61.2375 31.6125Q61.128124 30.315624 60.58125 29.659374Q59.7375 28.64375 58.39375 28.64375Q57.190624 28.64375 56.3625 29.45625Q55.534374 30.253124 55.440624 31.6125ZM65.65938 37.8L65.65938 23.4875L67.56563 23.4875L67.56563 37.8L65.65938 37.8ZM71.1125 37.8L71.1125 27.425L72.70625 27.425L72.70625 28.909374Q73.84688 27.190624 76.00313 27.190624Q76.94063 27.190624 77.72188 27.534374Q78.51875 27.8625 78.90938 28.409374Q79.3 28.95625 79.45625 29.70625Q79.55 30.20625 79.55 31.425L79.55 37.8L77.78438 37.8L77.78438 31.4875Q77.78438 30.409374 77.58125 29.878124Q77.37813 29.346874 76.84688 29.034374Q76.33125 28.721874 75.62813 28.721874Q74.50313 28.721874 73.69063 29.440624Q72.87813 30.14375 72.87813 32.128124L72.87813 37.8L71.1125 37.8ZM81.26875 37.8L81.26875 23.4875L86.64375 23.4875Q88.28438 23.4875 89.26875 23.925Q90.25313 24.346874 90.81563 25.253124Q91.37813 26.159374 91.37813 27.14375Q91.37813 28.065624 90.87813 28.878124Q90.39375 29.690624 89.37813 30.175Q90.675 30.565624 91.37813 31.4875Q92.08125 32.39375 92.08125 33.64375Q92.08125 34.659374 91.64375 35.51875Q91.22188 36.378124 90.59688 36.846874Q89.97188 37.315624 89.03438 37.565624Q88.09688 37.8 86.72188 37.8L81.26875 37.8ZM83.15938 29.503124L86.25313 29.503124Q87.51875 29.503124 88.06563 29.33125Q88.78438 29.1125 89.14375 28.628124Q89.51875 28.128124 89.51875 27.3625Q89.51875 26.659374 89.175 26.1125Q88.83125 25.565624 88.19063 25.378124Q87.56563 25.175 86.01875 25.175L83.15938 25.175L83.15938 29.503124ZM83.15938 36.1125L86.72188 36.1125Q87.64375 36.1125 88.01875 36.034374Q88.675 35.925 89.1125 35.659374Q89.55 35.378124 89.83125 34.8625Q90.1125 34.33125 90.1125 33.64375Q90.1125 32.846874 89.70625 32.253124Q89.3 31.659374 88.56563 31.425Q87.83125 31.190624 86.47188 31.190624L83.15938 31.190624L83.15938 36.1125ZM100.89375 36.51875Q99.90938 37.346874 99.00313 37.690624Q98.09688 38.034374 97.06563 38.034374Q95.3625 38.034374 94.44063 37.20625Q93.51875 36.3625 93.51875 35.065624Q93.51875 34.3 93.8625 33.675Q94.22188 33.05 94.78438 32.675Q95.34688 32.284374 96.05 32.08125Q96.56563 31.95625 97.6125 31.815624Q99.7375 31.565624 100.7375 31.221874Q100.75313 30.8625 100.75313 30.753124Q100.75313 29.690624 100.25313 29.2375Q99.58125 28.64375 98.25313 28.64375Q97.00313 28.64375 96.40938 29.08125Q95.83125 29.51875 95.55 30.628124L93.83125 30.39375Q94.06563 29.284374 94.59688 28.6125Q95.12813 27.925 96.14375 27.565624Q97.15938 27.190624 98.50313 27.190624Q99.83125 27.190624 100.65938 27.503124Q101.4875 27.815624 101.87813 28.3Q102.26875 28.76875 102.425 29.4875Q102.51875 29.940624 102.51875 31.1125L102.51875 33.45625Q102.51875 35.909374 102.62813 36.565624Q102.7375 37.20625 103.08125 37.8L101.2375 37.8Q100.97188 37.253124 100.89375 36.51875ZM100.7375 32.596874Q99.78438 32.9875 97.8625 33.253124Q96.78438 33.409374 96.33125 33.6125Q95.89375 33.8 95.64375 34.175Q95.39375 34.55 95.39375 35.01875Q95.39375 35.721874 95.925 36.190624Q96.45625 36.659374 97.4875 36.659374Q98.50313 36.659374 99.28438 36.221874Q100.08125 35.76875 100.45625 35.003124Q100.7375 34.39375 100.7375 33.2375L100.7375 32.596874ZM111.89375 34.003124L113.6125 34.221874Q113.33125 36.01875 112.15938 37.034374Q111.00313 38.034374 109.3 38.034374Q107.175 38.034374 105.87813 36.64375Q104.58125 35.253124 104.58125 32.659374Q104.58125 30.971874 105.12813 29.721874Q105.69063 28.45625 106.83125 27.83125Q107.97188 27.190624 109.31563 27.190624Q111.00313 27.190624 112.06563 28.05Q113.14375 28.909374 113.45625 30.471874L111.7375 30.7375Q111.50313 29.690624 110.87813 29.175Q110.25313 28.64375 109.37813 28.64375Q108.05 28.64375 107.22188 29.596874Q106.39375 30.55 106.39375 32.596874Q106.39375 34.690624 107.19063 35.64375Q107.9875 36.58125 109.28438 36.58125Q110.31563 36.58125 111.00313 35.95625Q111.70625 35.315624 111.89375 34.003124ZM115.12813 37.8L115.12813 23.4875L116.89375 23.4875L116.89375 31.64375L121.05 27.425L123.31563 27.425L119.3625 31.26875L123.72188 37.8L121.55 37.8L118.12813 32.503124L116.89375 33.690624L116.89375 37.8L115.12813 37.8Z" fill-rule="nonzero"/></svg>