<svg version="1.1" viewBox="0.0 0.0 608.0 376.0" fill="none" stroke="none" stroke-linecap="square" stroke-miterlimit="10" width="608" height="376" xmlns:xlink="http://www.w3.org/1999/xlink" xmlns="http://www.w3.org/2000/svg"><path fill="#ffffff" d="M0 0L608.0 0L608.0 376.0L0 376.0L0 0Z" fill-rule="nonzero"/><path stroke="#333333" stroke-width="1.0" stroke-linecap="butt" d="M80.5 318.5L589.5 318.5" fill-rule="nonzero"/><path stroke="#cccccc" stroke-width="1.0" stroke-linecap="butt" d="M80.5 254.5L589.5 254.5" fill-rule="nonzero"/><path stroke="#cccccc" stroke-width="1.0" stroke-linecap="butt" d="M80.5 190.5L589.5 190.5" fill-rule="nonzero"/><path stroke="#cccccc" stroke-width="1.0" stroke-linecap="butt" d="M80.5 126.5L589.5 126.5" fill-rule="nonzero"/><path stroke="#cccccc" stroke-width="1.0" stroke-linecap="butt" d="M80.5 62.5L589.5 62.5" fill-rule="nonzero"/><path stroke="#000000" stroke-width="1.0" stroke-linecap="butt" d="M80.5 318.5L80.5 62.5" fill-rule="nonzero"/><clipPath id="id_0"><path d="M80.8 62.333332L589.2 62.333332L589.2 318.2L80.8 318.2L80.8 62.333332Z" clip-rule="nonzero"/></clipPath><path stroke="#4285f4" stroke-width="2.0" stroke-linecap="butt" clip-path="url(#id_0)" d="M83.31683 318.2C83.31683 318.2 86.67261 318.18295 88.350494 318.14883C90.02838 318.11472 91.70627 318.06354 93.384155 317.9953C95.06205 317.92706 96.73994 317.8418 98.41782 317.73944C100.09571 317.6371 101.7736 317.5177 103.451485 317.38123C105.12937 317.24475 106.80726 317.09125 108.485146 316.92065C110.16303 316.7501 111.84093 316.56244 113.518814 316.35776C115.1967 316.15308 116.87459 315.9313 118.552475 315.6925C120.23036 315.4537 121.90825 315.19785 123.586136 314.9249C125.26402 314.65198 126.94192 314.362 128.6198 314.05496C130.29768 313.74792 131.97557 313.42383 133.65347 313.08267C135.33136 312.74152 137.00925 312.3833 138.68713 312.00803C140.36502 311.63275 142.04291 311.24042 143.7208 310.83105C145.39868 310.42166 147.07657 309.9952 148.75446 309.5517C150.43234 309.10822 152.11023 308.64764 153.78812 308.17C155.466 307.6924 157.14389 307.19772 158.82178 306.686C160.49966 306.17426 162.17755 305.64548 163.85544 305.09964C165.53334 304.55377 167.21123 303.99088 168.88911 303.41092C170.567 302.83093 172.24489 302.23392 173.92278 301.61984C175.60066 301.00577 177.27855 300.37463 178.95644 299.72644C180.63432 299.07822 182.31221 298.41296 183.9901 297.73065C185.66798 297.04837 187.34587 296.349 189.02376 295.63257C190.70164 294.91614 192.37953 294.18265 194.05742 293.4321C195.73532 292.68158 197.41321 291.91397 199.0911 291.1293C200.76898 290.34464 202.44687 289.54294 204.12476 288.72415C205.80264 287.9054 207.48053 287.06955 209.15842 286.21667C210.8363 285.36377 212.51419 284.49384 214.19208 283.6068C215.86996 282.71982 217.54785 281.81577 219.22574 280.89465C220.90363 279.9735 222.58151 279.03534 224.2594 278.0801C225.93729 277.12488 227.61519 276.1526 229.29308 275.16324C230.97096 274.1739 232.64885 273.16748 234.32674 272.144C236.00462 271.12054 237.68251 270.08002 239.3604 269.02243C241.03828 267.96484 242.71617 266.8902 244.39406 265.7985C246.07195 264.70682 247.74983 263.59805 249.42772 262.47223C251.1056 261.34644 252.7835 260.20355 254.46138 259.04364C256.13928 257.8837 257.81717 256.70673 259.49506 255.51266C261.17294 254.31862 262.85083 253.10751 264.52872 251.87936C266.2066 250.6512 267.8845 249.40598 269.56238 248.1437C271.24026 246.88142 272.91815 245.6021 274.59604 244.30571C276.27393 243.00932 277.9518 241.69586 279.6297 240.36536C281.3076 239.03485 282.98547 237.68729 284.66336 236.32266C286.34125 234.95804 288.01913 233.57637 289.69702 232.17763C291.3749 230.77888 293.0528 229.3631 294.73068 227.93024C296.40857 226.49739 298.08646 225.04747 299.76434 223.5805C301.44223 222.11354 303.12012 220.62952 304.79803 219.12843C306.47592 217.62733 308.1538 216.1092 309.8317 214.574C311.50958 213.0388 313.18747 211.48654 314.86536 209.91722C316.54324 208.34792 318.22113 206.76154 319.89902 205.15811C321.5769 203.55467 323.2548 201.93419 324.93268 200.29665C326.61057 198.65909 328.28845 197.00449 329.96634 195.33282C331.64423 193.66116 333.3221 191.95538 335.0 190.26666C336.6779 188.57794 338.35577 186.87216 340.03366 185.2005C341.71155 183.52884 343.38943 181.87424 345.06732 180.2367C346.7452 178.59915 348.4231 176.97865 350.10098 175.37523C351.77887 173.77179 353.45676 172.18542 355.13464 170.6161C356.81253 169.0468 358.49042 167.49454 360.1683 165.95934C361.8462 164.42413 363.52408 162.90599 365.20197 161.4049C366.87988 159.90382 368.55777 158.4198 370.23566 156.95282C371.91354 155.48586 373.59143 154.03595 375.26932 152.60309C376.9472 151.17024 378.6251 149.75444 380.30298 148.35571C381.98087 146.95697 383.65875 145.57529 385.33664 144.21066C387.01453 142.84604 388.6924 141.49847 390.3703 140.16797C392.0482 138.83746 393.72607 137.52402 395.40396 136.22763C397.08185 134.93123 398.75974 133.6519 400.43762 132.38963C402.1155 131.12735 403.7934 129.88213 405.47128 128.65398C407.14917 127.42581 408.82706 126.214714 410.50494 125.02067C412.18283 123.82662 413.86072 122.649635 415.5386 121.48971C417.2165 120.32978 418.89438 119.186905 420.57227 118.0611C422.25015 116.93528 423.92804 115.82652 425.60593 114.734825C427.2838 113.64313 428.96173 112.56849 430.63962 111.51091C432.3175 110.45332 433.9954 109.4128 435.67328 108.389336C437.35117 107.36587 439.02905 106.35946 440.70694 105.37011C442.38483 104.38075 444.0627 103.40846 445.7406 102.453224C447.4185 101.49799 449.09637 100.559814 450.77426 99.638695C452.45215 98.717575 454.13004 97.813515 455.80792 96.926506C457.4858 96.039505 459.1637 95.169556 460.84158 94.316666C462.51947 93.463776 464.19736 92.627945 465.87524 91.80917C467.55313 90.9904 469.23102 90.18868 470.9089 89.40403C472.5868 88.61937 474.26468 87.85177 475.94257 87.10123C477.62045 86.350685 479.29834 85.6172 480.97623 84.90077C482.6541 84.18435 484.332 83.48498 486.0099 82.802666C487.68777 82.12035 489.36566 81.4551 491.04358 80.80691C492.72147 80.158714 494.39935 79.52757 496.07724 78.91349C497.75513 78.299416 499.433 77.70239 501.1109 77.12243C502.7888 76.542465 504.46667 75.97955 506.14456 75.43371C507.82245 74.887856 509.50034 74.35907 511.17822 73.847336C512.8561 73.3356 514.534 72.84093 516.21185 72.363304C517.8898 71.88569 519.5676 71.425125 521.24554 70.98163C522.92346 70.538124 524.6013 70.11168 526.27924 69.70229C527.9571 69.29291 529.635 68.90058 531.31287 68.52531C532.9908 68.15003 534.66864 67.791824 536.34656 67.45067C538.0244 67.10951 539.70233 66.785416 541.3802 66.47837C543.0581 66.17133 544.73596 65.88135 546.4139 65.60843C548.09174 65.3355 549.76965 65.079636 551.4475 64.84083C553.1254 64.60202 554.8033 64.380264 556.4812 64.175575C558.15906 63.97088 559.837 63.783245 561.51483 63.612667C563.19275 63.44209 564.8706 63.28857 566.5485 63.152107C568.2264 63.015644 569.9043 62.89624 571.58215 62.79389C573.2601 62.691547 574.9379 62.60626 576.61584 62.538025C578.2937 62.469795 579.9716 62.41862 581.6495 62.384506C583.3274 62.35039 586.68317 62.333332 586.68317 62.333332" fill-rule="nonzero"/><path fill="#000000" fill-opacity="0.0" clip-path="url(#id_0)" d="M86.31683 318.2C86.31683 319.85684 84.97369 321.2 83.31683 321.2C81.65998 321.2 80.31683 319.85684 80.31683 318.2C80.31683 316.54315 81.65998 315.2 83.31683 315.2C84.97369 315.2 86.31683 316.54315 86.31683 318.2Z" fill-rule="nonzero"/><path fill="#000000" fill-opacity="0.0" clip-path="url(#id_0)" d="M91.350494 318.14883C91.350494 319.8057 90.00735 321.14883 88.350494 321.14883C86.69364 321.14883 85.350494 319.8057 85.350494 318.14883C85.350494 316.49197 86.69364 315.14883 88.350494 315.14883C90.00735 315.14883 91.350494 316.49197 91.350494 318.14883Z" fill-rule="nonzero"/><path fill="#000000" fill-opacity="0.0" clip-path="url(#id_0)" d="M96.384155 317.9953C96.384155 319.65216 95.041016 320.9953 93.384155 320.9953C91.7273 320.9953 90.384155 319.65216 90.384155 317.9953C90.384155 316.33844 91.7273 314.9953 93.384155 314.9953C95.041016 314.9953 96.384155 316.33844 96.384155 317.9953Z" fill-rule="nonzero"/><path fill="#000000" fill-opacity="0.0" clip-path="url(#id_0)" d="M101.41782 317.73944C101.41782 319.3963 100.07468 320.73944 98.41782 320.73944C96.76097 320.73944 95.41782 319.3963 95.41782 317.73944C95.41782 316.08258 96.76097 314.73944 98.41782 314.73944C100.07468 314.73944 101.41782 316.08258 101.41782 317.73944Z" fill-rule="nonzero"/><path fill="#000000" fill-opacity="0.0" clip-path="url(#id_0)" d="M106.451485 317.38123C106.451485 319.0381 105.10834 320.38123 103.451485 320.38123C101.79463 320.38123 100.451485 319.0381 100.451485 317.38123C100.451485 315.72437 101.79463 314.38123 103.451485 314.38123C105.10834 314.38123 106.451485 315.72437 106.451485 317.38123Z" fill-rule="nonzero"/><path fill="#000000" fill-opacity="0.0" clip-path="url(#id_0)" d="M111.485146 316.92065C111.485146 318.5775 110.142006 319.92065 108.485146 319.92065C106.82829 319.92065 105.485146 318.5775 105.485146 316.92065C105.485146 315.26382 106.82829 313.92065 108.485146 313.92065C110.142006 313.92065 111.485146 315.26382 111.485146 316.92065Z" fill-rule="nonzero"/><path fill="#000000" fill-opacity="0.0" clip-path="url(#id_0)" d="M116.518814 316.35776C116.518814 318.01462 115.17567 319.35776 113.518814 319.35776C111.86196 319.35776 110.518814 318.01462 110.518814 316.35776C110.518814 314.7009 111.86196 313.35776 113.518814 313.35776C115.17567 313.35776 116.518814 314.7009 116.518814 316.35776Z" fill-rule="nonzero"/><path fill="#000000" fill-opacity="0.0" clip-path="url(#id_0)" d="M121.552475 315.6925C121.552475 317.34937 120.20933 318.6925 118.552475 318.6925C116.89562 318.6925 115.552475 317.34937 115.552475 315.6925C115.552475 314.03564 116.89562 312.6925 118.552475 312.6925C120.20933 312.6925 121.552475 314.03564 121.552475 315.6925Z" fill-rule="nonzero"/><path fill="#000000" fill-opacity="0.0" clip-path="url(#id_0)" d="M126.586136 314.9249C126.586136 316.58176 125.243 317.9249 123.586136 317.9249C121.92928 317.9249 120.586136 316.58176 120.586136 314.9249C120.586136 313.26807 121.92928 311.9249 123.586136 311.9249C125.243 311.9249 126.586136 313.26807 126.586136 314.9249Z" fill-rule="nonzero"/><path fill="#000000" fill-opacity="0.0" clip-path="url(#id_0)" d="M131.6198 314.05496C131.6198 315.71182 130.27666 317.05496 128.6198 317.05496C126.962944 317.05496 125.619804 315.71182 125.619804 314.05496C125.619804 312.3981 126.962944 311.05496 128.6198 311.05496C130.27666 311.05496 131.6198 312.3981 131.6198 314.05496Z" fill-rule="nonzero"/><path fill="#000000" fill-opacity="0.0" clip-path="url(#id_0)" d="M136.65347 313.08267C136.65347 314.73953 135.31032 316.08267 133.65347 316.08267C131.99661 316.08267 130.65347 314.73953 130.65347 313.08267C130.65347 311.4258 131.99661 310.08267 133.65347 310.08267C135.31032 310.08267 136.65347 311.4258 136.65347 313.08267Z" fill-rule="nonzero"/><path fill="#000000" fill-opacity="0.0" clip-path="url(#id_0)" d="M141.68713 312.00803C141.68713 313.6649 140.34398 315.00803 138.68713 315.00803C137.03027 315.00803 135.68713 313.6649 135.68713 312.00803C135.68713 310.35117 137.03027 309.00803 138.68713 309.00803C140.34398 309.00803 141.68713 310.35117 141.68713 312.00803Z" fill-rule="nonzero"/><path fill="#000000" fill-opacity="0.0" clip-path="url(#id_0)" d="M146.7208 310.83105C146.7208 312.48788 145.37764 313.83105 143.7208 313.83105C142.06393 313.83105 140.7208 312.48788 140.7208 310.83105C140.7208 309.1742 142.06393 307.83105 143.7208 307.83105C145.37764 307.83105 146.7208 309.1742 146.7208 310.83105Z" fill-rule="nonzero"/><path fill="#000000" fill-opacity="0.0" clip-path="url(#id_0)" d="M151.75446 309.5517C151.75446 311.20856 150.41132 312.5517 148.75446 312.5517C147.0976 312.5517 145.75446 311.20856 145.75446 309.5517C145.75446 307.89487 147.0976 306.5517 148.75446 306.5517C150.41132 306.5517 151.75446 307.89487 151.75446 309.5517Z" fill-rule="nonzero"/><path fill="#000000" fill-opacity="0.0" clip-path="url(#id_0)" d="M156.78812 308.17C156.78812 309.82687 155.44498 311.17 153.78812 311.17C152.13127 311.17 150.78812 309.82687 150.78812 308.17C150.78812 306.51318 152.13127 305.17 153.78812 305.17C155.44498 305.17 156.78812 306.51318 156.78812 308.17Z" fill-rule="nonzero"/><path fill="#000000" fill-opacity="0.0" clip-path="url(#id_0)" d="M161.82178 306.686C161.82178 308.34286 160.47864 309.686 158.82178 309.686C157.16493 309.686 155.82178 308.34286 155.82178 306.686C155.82178 305.02914 157.16493 303.686 158.82178 303.686C160.47864 303.686 161.82178 305.02914 161.82178 306.686Z" fill-rule="nonzero"/><path fill="#000000" fill-opacity="0.0" clip-path="url(#id_0)" d="M166.85544 305.09964C166.85544 306.75647 165.5123 308.09964 163.85544 308.09964C162.1986 308.09964 160.85544 306.75647 160.85544 305.09964C160.85544 303.44278 162.1986 302.09964 163.85544 302.09964C165.5123 302.09964 166.85544 303.44278 166.85544 305.09964Z" fill-rule="nonzero"/><path fill="#000000" fill-opacity="0.0" clip-path="url(#id_0)" d="M171.88911 303.41092C171.88911 305.06775 170.54596 306.41092 168.88911 306.41092C167.23225 306.41092 165.88911 305.06775 165.88911 303.41092C165.88911 301.75406 167.23225 300.41092 168.88911 300.41092C170.54596 300.41092 171.88911 301.75406 171.88911 303.41092Z" fill-rule="nonzero"/><path fill="#000000" fill-opacity="0.0" clip-path="url(#id_0)" d="M176.92278 301.61984C176.92278 303.2767 175.57962 304.61984 173.92278 304.61984C172.26591 304.61984 170.92278 303.2767 170.92278 301.61984C170.92278 299.96298 172.26591 298.61984 173.92278 298.61984C175.57962 298.61984 176.92278 299.96298 176.92278 301.61984Z" fill-rule="nonzero"/><path fill="#000000" fill-opacity="0.0" clip-path="url(#id_0)" d="M181.95644 299.72644C181.95644 301.38327 180.6133 302.72644 178.95644 302.72644C177.29958 302.72644 175.95644 301.38327 175.95644 299.72644C175.95644 298.06958 177.29958 296.72644 178.95644 296.72644C180.6133 296.72644 181.95644 298.06958 181.95644 299.72644Z" fill-rule="nonzero"/><path fill="#000000" fill-opacity="0.0" clip-path="url(#id_0)" d="M186.9901 297.73065C186.9901 299.3875 185.64696 300.73065 183.9901 300.73065C182.33325 300.73065 180.9901 299.3875 180.9901 297.73065C180.9901 296.07382 182.33325 294.73065 183.9901 294.73065C185.64696 294.73065 186.9901 296.07382 186.9901 297.73065Z" fill-rule="nonzero"/><path fill="#000000" fill-opacity="0.0" clip-path="url(#id_0)" d="M192.02376 295.63257C192.02376 297.28943 190.68062 298.63257 189.02376 298.63257C187.36691 298.63257 186.02376 297.28943 186.02376 295.63257C186.02376 293.9757 187.36691 292.63257 189.02376 292.63257C190.68062 292.63257 192.02376 293.9757 192.02376 295.63257Z" fill-rule="nonzero"/><path fill="#000000" fill-opacity="0.0" clip-path="url(#id_0)" d="M197.05742 293.4321C197.05742 295.08896 195.71428 296.4321 194.05742 296.4321C192.40057 296.4321 191.05742 295.08896 191.05742 293.4321C191.05742 291.77524 192.40057 290.4321 194.05742 290.4321C195.71428 290.4321 197.05742 291.77524 197.05742 293.4321Z" fill-rule="nonzero"/><path fill="#000000" fill-opacity="0.0" clip-path="url(#id_0)" d="M202.0911 291.1293C202.0911 292.78616 200.74794 294.1293 199.0911 294.1293C197.43423 294.1293 196.0911 292.78616 196.0911 291.1293C196.0911 289.47244 197.43423 288.1293 199.0911 288.1293C200.74794 288.1293 202.0911 289.47244 202.0911 291.1293Z" fill-rule="nonzero"/><path fill="#000000" fill-opacity="0.0" clip-path="url(#id_0)" d="M207.12476 288.72415C207.12476 290.381 205.7816 291.72415 204.12476 291.72415C202.4679 291.72415 201.12476 290.381 201.12476 288.72415C201.12476 287.0673 202.4679 285.72415 204.12476 285.72415C205.7816 285.72415 207.12476 287.0673 207.12476 288.72415Z" fill-rule="nonzero"/><path fill="#000000" fill-opacity="0.0" clip-path="url(#id_0)" d="M212.15842 286.21667C212.15842 287.87354 210.81528 289.21667 209.15842 289.21667C207.50156 289.21667 206.15842 287.87354 206.15842 286.21667C206.15842 284.5598 207.50156 283.21667 209.15842 283.21667C210.81528 283.21667 212.15842 284.5598 212.15842 286.21667Z" fill-rule="nonzero"/><path fill="#000000" fill-opacity="0.0" clip-path="url(#id_0)" d="M217.19208 283.6068C217.19208 285.26367 215.84894 286.6068 214.19208 286.6068C212.53523 286.6068 211.19208 285.26367 211.19208 283.6068C211.19208 281.94998 212.53523 280.6068 214.19208 280.6068C215.84894 280.6068 217.19208 281.94998 217.19208 283.6068Z" fill-rule="nonzero"/><path fill="#000000" fill-opacity="0.0" clip-path="url(#id_0)" d="M222.22574 280.89465C222.22574 282.55148 220.8826 283.89465 219.22574 283.89465C217.5689 283.89465 216.22574 282.55148 216.22574 280.89465C216.22574 279.2378 217.5689 277.89465 219.22574 277.89465C220.8826 277.89465 222.22574 279.2378 222.22574 280.89465Z" fill-rule="nonzero"/><path fill="#000000" fill-opacity="0.0" clip-path="url(#id_0)" d="M227.2594 278.0801C227.2594 279.73697 225.91626 281.0801 224.2594 281.0801C222.60255 281.0801 221.2594 279.73697 221.2594 278.0801C221.2594 276.42325 222.60255 275.0801 224.2594 275.0801C225.91626 275.0801 227.2594 276.42325 227.2594 278.0801Z" fill-rule="nonzero"/><path fill="#000000" fill-opacity="0.0" clip-path="url(#id_0)" d="M232.29308 275.16324C232.29308 276.82007 230.94992 278.16324 229.29308 278.16324C227.63622 278.16324 226.29308 276.82007 226.29308 275.16324C226.29308 273.50638 227.63622 272.16324 229.29308 272.16324C230.94992 272.16324 232.29308 273.50638 232.29308 275.16324Z" fill-rule="nonzero"/><path fill="#000000" fill-opacity="0.0" clip-path="url(#id_0)" d="M237.32674 272.144C237.32674 273.80084 235.98358 275.144 234.32674 275.144C232.66988 275.144 231.32674 273.80084 231.32674 272.144C231.32674 270.48715 232.66988 269.144 234.32674 269.144C235.98358 269.144 237.32674 270.48715 237.32674 272.144Z" fill-rule="nonzero"/><path fill="#000000" fill-opacity="0.0" clip-path="url(#id_0)" d="M242.3604 269.02243C242.3604 270.6793 241.01726 272.02243 239.3604 272.02243C237.70354 272.02243 236.3604 270.6793 236.3604 269.02243C236.3604 267.36557 237.70354 266.02243 239.3604 266.02243C241.01726 266.02243 242.3604 267.36557 242.3604 269.02243Z" fill-rule="nonzero"/><path fill="#000000" fill-opacity="0.0" clip-path="url(#id_0)" d="M247.39406 265.7985C247.39406 267.45535 246.05092 268.7985 244.39406 268.7985C242.7372 268.7985 241.39406 267.45535 241.39406 265.7985C241.39406 264.14166 242.7372 262.7985 244.39406 262.7985C246.05092 262.7985 247.39406 264.14166 247.39406 265.7985Z" fill-rule="nonzero"/><path fill="#000000" fill-opacity="0.0" clip-path="url(#id_0)" d="M252.42772 262.47223C252.42772 264.1291 251.08458 265.47223 249.42772 265.47223C247.77087 265.47223 246.42772 264.1291 246.42772 262.47223C246.42772 260.8154 247.77087 259.47223 249.42772 259.47223C251.08458 259.47223 252.42772 260.8154 252.42772 262.47223Z" fill-rule="nonzero"/><path fill="#000000" fill-opacity="0.0" clip-path="url(#id_0)" d="M257.4614 259.04364C257.4614 260.70047 256.11826 262.04364 254.46138 262.04364C252.80453 262.04364 251.46138 260.70047 251.46138 259.04364C251.46138 257.38678 252.80453 256.04364 254.46138 256.04364C256.11826 256.04364 257.4614 257.38678 257.4614 259.04364Z" fill-rule="nonzero"/><path fill="#000000" fill-opacity="0.0" clip-path="url(#id_0)" d="M262.49506 255.51266C262.49506 257.16953 261.15192 258.51266 259.49506 258.51266C257.8382 258.51266 256.49506 257.16953 256.49506 255.51266C256.49506 253.85582 257.8382 252.51266 259.49506 252.51266C261.15192 252.51266 262.49506 253.85582 262.49506 255.51266Z" fill-rule="nonzero"/><path fill="#000000" fill-opacity="0.0" clip-path="url(#id_0)" d="M267.52872 251.87936C267.52872 253.53621 266.18558 254.87936 264.52872 254.87936C262.87186 254.87936 261.52872 253.53621 261.52872 251.87936C261.52872 250.2225 262.87186 248.87936 264.52872 248.87936C266.18558 248.87936 267.52872 250.2225 267.52872 251.87936Z" fill-rule="nonzero"/><path fill="#000000" fill-opacity="0.0" clip-path="url(#id_0)" d="M272.56238 248.1437C272.56238 249.80057 271.21924 251.1437 269.56238 251.1437C267.90552 251.1437 266.56238 249.80057 266.56238 248.1437C266.56238 246.48685 267.90552 245.1437 269.56238 245.1437C271.21924 245.1437 272.56238 246.48685 272.56238 248.1437Z" fill-rule="nonzero"/><path fill="#000000" fill-opacity="0.0" clip-path="url(#id_0)" d="M277.59604 244.30571C277.59604 245.96255 276.2529 247.30571 274.59604 247.30571C272.93918 247.30571 271.59604 245.96255 271.59604 244.30571C271.59604 242.64885 272.93918 241.30571 274.59604 241.30571C276.2529 241.30571 277.59604 242.64885 277.59604 244.30571Z" fill-rule="nonzero"/><path fill="#000000" fill-opacity="0.0" clip-path="url(#id_0)" d="M282.6297 240.36536C282.6297 242.02222 281.28656 243.36536 279.6297 243.36536C277.97284 243.36536 276.6297 242.02222 276.6297 240.36536C276.6297 238.70851 277.97284 237.36536 279.6297 237.36536C281.28656 237.36536 282.6297 238.70851 282.6297 240.36536Z" fill-rule="nonzero"/><path fill="#000000" fill-opacity="0.0" clip-path="url(#id_0)" d="M287.66336 236.32266C287.66336 237.97952 286.32022 239.32266 284.66336 239.32266C283.0065 239.32266 281.66336 237.97952 281.66336 236.32266C281.66336 234.66582 283.0065 233.32266 284.66336 233.32266C286.32022 233.32266 287.66336 234.66582 287.66336 236.32266Z" fill-rule="nonzero"/><path fill="#000000" fill-opacity="0.0" clip-path="url(#id_0)" d="M292.69702 232.17763C292.69702 233.83449 291.35388 235.17763 289.69702 235.17763C288.04016 235.17763 286.69702 233.83449 286.69702 232.17763C286.69702 230.52077 288.04016 229.17763 289.69702 229.17763C291.35388 229.17763 292.69702 230.52077 292.69702 232.17763Z" fill-rule="nonzero"/><path fill="#000000" fill-opacity="0.0" clip-path="url(#id_0)" d="M297.73068 227.93024C297.73068 229.5871 296.38754 230.93024 294.73068 230.93024C293.07385 230.93024 291.73068 229.5871 291.73068 227.93024C291.73068 226.27339 293.07385 224.93024 294.73068 224.93024C296.38754 224.93024 297.73068 226.27339 297.73068 227.93024Z" fill-rule="nonzero"/><path fill="#000000" fill-opacity="0.0" clip-path="url(#id_0)" d="M302.76434 223.5805C302.76434 225.23737 301.4212 226.5805 299.76434 226.5805C298.1075 226.5805 296.76434 225.23737 296.76434 223.5805C296.76434 221.92365 298.1075 220.5805 299.76434 220.5805C301.4212 220.5805 302.76434 221.92365 302.76434 223.5805Z" fill-rule="nonzero"/><path fill="#000000" fill-opacity="0.0" clip-path="url(#id_0)" d="M307.79803 219.12843C307.79803 220.78528 306.45486 222.12843 304.79803 222.12843C303.14117 222.12843 301.79803 220.78528 301.79803 219.12843C301.79803 217.47157 303.14117 216.12843 304.79803 216.12843C306.45486 216.12843 307.79803 217.47157 307.79803 219.12843Z" fill-rule="nonzero"/><path fill="#000000" fill-opacity="0.0" clip-path="url(#id_0)" d="M312.8317 214.574C312.8317 216.23085 311.48853 217.574 309.8317 217.574C308.17484 217.574 306.8317 216.23085 306.8317 214.574C306.8317 212.91714 308.17484 211.574 309.8317 211.574C311.48853 211.574 312.8317 212.91714 312.8317 214.574Z" fill-rule="nonzero"/><path fill="#000000" fill-opacity="0.0" clip-path="url(#id_0)" d="M317.86536 209.91722C317.86536 211.57408 316.5222 212.91722 314.86536 212.91722C313.2085 212.91722 311.86536 211.57408 311.86536 209.91722C311.86536 208.26038 313.2085 206.91722 314.86536 206.91722C316.5222 206.91722 317.86536 208.26038 317.86536 209.91722Z" fill-rule="nonzero"/><path fill="#000000" fill-opacity="0.0" clip-path="url(#id_0)" d="M322.89902 205.15811C322.89902 206.81496 321.55588 208.15811 319.89902 208.15811C318.24216 208.15811 316.89902 206.81496 316.89902 205.15811C316.89902 203.50125 318.24216 202.15811 319.89902 202.15811C321.55588 202.15811 322.89902 203.50125 322.89902 205.15811Z" fill-rule="nonzero"/><path fill="#000000" fill-opacity="0.0" clip-path="url(#id_0)" d="M327.93268 200.29665C327.93268 201.95349 326.58954 203.29665 324.93268 203.29665C323.27582 203.29665 321.93268 201.95349 321.93268 200.29665C321.93268 198.63979 323.27582 197.29665 324.93268 197.29665C326.58954 197.29665 327.93268 198.63979 327.93268 200.29665Z" fill-rule="nonzero"/><path fill="#000000" fill-opacity="0.0" clip-path="url(#id_0)" d="M332.96634 195.33282C332.96634 196.98969 331.6232 198.33282 329.96634 198.33282C328.30948 198.33282 326.96634 196.98969 326.96634 195.33282C326.96634 193.67598 328.30948 192.33282 329.96634 192.33282C331.6232 192.33282 332.96634 193.67598 332.96634 195.33282Z" fill-rule="nonzero"/><path fill="#000000" fill-opacity="0.0" clip-path="url(#id_0)" d="M338.0 190.26666C338.0 191.92352 336.65686 193.26666 335.0 193.26666C333.34314 193.26666 332.0 191.92352 332.0 190.26666C332.0 188.60982 333.34314 187.26666 335.0 187.26666C336.65686 187.26666 338.0 188.60982 338.0 190.26666Z" fill-rule="nonzero"/><path fill="#000000" fill-opacity="0.0" clip-path="url(#id_0)" d="M343.03366 185.2005C343.03366 186.85736 341.69052 188.2005 340.03366 188.2005C338.3768 188.2005 337.03366 186.85736 337.03366 185.2005C337.03366 183.54366 338.3768 182.2005 340.03366 182.2005C341.69052 182.2005 343.03366 183.54366 343.03366 185.2005Z" fill-rule="nonzero"/><path fill="#000000" fill-opacity="0.0" clip-path="url(#id_0)" d="M348.06732 180.2367C348.06732 181.89355 346.72418 183.2367 345.06732 183.2367C343.41046 183.2367 342.06732 181.89355 342.06732 180.2367C342.06732 178.57983 343.41046 177.2367 345.06732 177.2367C346.72418 177.2367 348.06732 178.57983 348.06732 180.2367Z" fill-rule="nonzero"/><path fill="#000000" fill-opacity="0.0" clip-path="url(#id_0)" d="M353.10098 175.37523C353.10098 177.03207 351.75784 178.37523 350.10098 178.37523C348.44412 178.37523 347.10098 177.03207 347.10098 175.37523C347.10098 173.71837 348.44412 172.37523 350.10098 172.37523C351.75784 172.37523 353.10098 173.71837 353.10098 175.37523Z" fill-rule="nonzero"/><path fill="#000000" fill-opacity="0.0" clip-path="url(#id_0)" d="M358.13464 170.6161C358.13464 172.27296 356.7915 173.6161 355.13464 173.6161C353.4778 173.6161 352.13464 172.27296 352.13464 170.6161C352.13464 168.95926 353.4778 167.6161 355.13464 167.6161C356.7915 167.6161 358.13464 168.95926 358.13464 170.6161Z" fill-rule="nonzero"/><path fill="#000000" fill-opacity="0.0" clip-path="url(#id_0)" d="M363.1683 165.95934C363.1683 167.61618 361.82516 168.95934 360.1683 168.95934C358.51147 168.95934 357.1683 167.61618 357.1683 165.95934C357.1683 164.30247 358.51147 162.95934 360.1683 162.95934C361.82516 162.95934 363.1683 164.30247 363.1683 165.95934Z" fill-rule="nonzero"/><path fill="#000000" fill-opacity="0.0" clip-path="url(#id_0)" d="M368.20197 161.4049C368.20197 163.06177 366.85883 164.4049 365.20197 164.4049C363.54514 164.4049 362.20197 163.06177 362.20197 161.4049C362.20197 159.74805 363.54514 158.4049 365.20197 158.4049C366.85883 158.4049 368.20197 159.74805 368.20197 161.4049Z" fill-rule="nonzero"/><path fill="#000000" fill-opacity="0.0" clip-path="url(#id_0)" d="M373.23566 156.95282C373.23566 158.60968 371.8925 159.95282 370.23566 159.95282C368.5788 159.95282 367.23566 158.60968 367.23566 156.95282C367.23566 155.29597 368.5788 153.95282 370.23566 153.95282C371.8925 153.95282 373.23566 155.29597 373.23566 156.95282Z" fill-rule="nonzero"/><path fill="#000000" fill-opacity="0.0" clip-path="url(#id_0)" d="M378.26932 152.60309C378.26932 154.25995 376.92615 155.60309 375.26932 155.60309C373.61246 155.60309 372.26932 154.25995 372.26932 152.60309C372.26932 150.94624 373.61246 149.60309 375.26932 149.60309C376.92615 149.60309 378.26932 150.94624 378.26932 152.60309Z" fill-rule="nonzero"/><path fill="#000000" fill-opacity="0.0" clip-path="url(#id_0)" d="M383.30298 148.35571C383.30298 150.01256 381.95984 151.35571 380.30298 151.35571C378.64612 151.35571 377.30298 150.01256 377.30298 148.35571C377.30298 146.69885 378.64612 145.35571 380.30298 145.35571C381.95984 145.35571 383.30298 146.69885 383.30298 148.35571Z" fill-rule="nonzero"/><path fill="#000000" fill-opacity="0.0" clip-path="url(#id_0)" d="M388.33664 144.21066C388.33664 145.86752 386.9935 147.21066 385.33664 147.21066C383.67978 147.21066 382.33664 145.86752 382.33664 144.21066C382.33664 142.55382 383.67978 141.21066 385.33664 141.21066C386.9935 141.21066 388.33664 142.55382 388.33664 144.21066Z" fill-rule="nonzero"/><path fill="#000000" fill-opacity="0.0" clip-path="url(#id_0)" d="M393.3703 140.16797C393.3703 141.82483 392.02716 143.16797 390.3703 143.16797C388.71344 143.16797 387.3703 141.82483 387.3703 140.16797C387.3703 138.51112 388.71344 137.16797 390.3703 137.16797C392.02716 137.16797 393.3703 138.51112 393.3703 140.16797Z" fill-rule="nonzero"/><path fill="#000000" fill-opacity="0.0" clip-path="url(#id_0)" d="M398.40396 136.22763C398.40396 137.88448 397.06082 139.22763 395.40396 139.22763C393.7471 139.22763 392.40396 137.88448 392.40396 136.22763C392.40396 134.57077 393.7471 133.22763 395.40396 133.22763C397.06082 133.22763 398.40396 134.57077 398.40396 136.22763Z" fill-rule="nonzero"/><path fill="#000000" fill-opacity="0.0" clip-path="url(#id_0)" d="M403.43762 132.38963C403.43762 134.04648 402.09448 135.38963 400.43762 135.38963C398.78076 135.38963 397.43762 134.04648 397.43762 132.38963C397.43762 130.73277 398.78076 129.38963 400.43762 129.38963C402.09448 129.38963 403.43762 130.73277 403.43762 132.38963Z" fill-rule="nonzero"/><path fill="#000000" fill-opacity="0.0" clip-path="url(#id_0)" d="M408.47128 128.65398C408.47128 130.31082 407.12814 131.65398 405.47128 131.65398C403.81442 131.65398 402.47128 130.31082 402.47128 128.65398C402.47128 126.997116 403.81442 125.65398 405.47128 125.65398C407.12814 125.65398 408.47128 126.997116 408.47128 128.65398Z" fill-rule="nonzero"/><path fill="#000000" fill-opacity="0.0" clip-path="url(#id_0)" d="M413.50494 125.02067C413.50494 126.67752 412.1618 128.02066 410.50494 128.02066C408.84808 128.02066 407.50494 126.67752 407.50494 125.02067C407.50494 123.363815 408.84808 122.02067 410.50494 122.02067C412.1618 122.02067 413.50494 123.363815 413.50494 125.02067Z" fill-rule="nonzero"/><path fill="#000000" fill-opacity="0.0" clip-path="url(#id_0)" d="M418.5386 121.48971C418.5386 123.14656 417.19547 124.48971 415.5386 124.48971C413.88174 124.48971 412.5386 123.14656 412.5386 121.48971C412.5386 119.832855 413.88174 118.48971 415.5386 118.48971C417.19547 118.48971 418.5386 119.832855 418.5386 121.48971Z" fill-rule="nonzero"/><path fill="#000000" fill-opacity="0.0" clip-path="url(#id_0)" d="M423.57227 118.0611C423.57227 119.71795 422.22913 121.0611 420.57227 121.0611C418.91544 121.0611 417.57227 119.71795 417.57227 118.0611C417.57227 116.404236 418.91544 115.0611 420.57227 115.0611C422.22913 115.0611 423.57227 116.404236 423.57227 118.0611Z" fill-rule="nonzero"/><path fill="#000000" fill-opacity="0.0" clip-path="url(#id_0)" d="M428.60593 114.734825C428.60593 116.39168 427.2628 117.734825 425.60593 117.734825C423.9491 117.734825 422.60593 116.39168 422.60593 114.734825C422.60593 113.07797 423.9491 111.734825 425.60593 111.734825C427.2628 111.734825 428.60593 113.07797 428.60593 114.734825Z" fill-rule="nonzero"/><path fill="#000000" fill-opacity="0.0" clip-path="url(#id_0)" d="M433.63962 111.51091C433.63962 113.16776 432.29645 114.51091 430.63962 114.51091C428.98276 114.51091 427.63962 113.16776 427.63962 111.51091C427.63962 109.85405 428.98276 108.51091 430.63962 108.51091C432.29645 108.51091 433.63962 109.85405 433.63962 111.51091Z" fill-rule="nonzero"/><path fill="#000000" fill-opacity="0.0" clip-path="url(#id_0)" d="M438.67328 108.389336C438.67328 110.04619 437.3301 111.389336 435.67328 111.389336C434.01642 111.389336 432.67328 110.04619 432.67328 108.389336C432.67328 106.732475 434.01642 105.389336 435.67328 105.389336C437.3301 105.389336 438.67328 106.732475 438.67328 108.389336Z" fill-rule="nonzero"/><path fill="#000000" fill-opacity="0.0" clip-path="url(#id_0)" d="M443.70694 105.37011C443.70694 107.02696 442.3638 108.37011 440.70694 108.37011C439.05008 108.37011 437.70694 107.02696 437.70694 105.37011C437.70694 103.71325 439.05008 102.37011 440.70694 102.37011C442.3638 102.37011 443.70694 103.71325 443.70694 105.37011Z" fill-rule="nonzero"/><path fill="#000000" fill-opacity="0.0" clip-path="url(#id_0)" d="M448.7406 102.453224C448.7406 104.110085 447.39746 105.453224 445.7406 105.453224C444.08374 105.453224 442.7406 104.110085 442.7406 102.453224C442.7406 100.79637 444.08374 99.453224 445.7406 99.453224C447.39746 99.453224 448.7406 100.79637 448.7406 102.453224Z" fill-rule="nonzero"/><path fill="#000000" fill-opacity="0.0" clip-path="url(#id_0)" d="M453.77426 99.638695C453.77426 101.29555 452.43112 102.638695 450.77426 102.638695C449.1174 102.638695 447.77426 101.29555 447.77426 99.638695C447.77426 97.98184 449.1174 96.638695 450.77426 96.638695C452.43112 96.638695 453.77426 97.98184 453.77426 99.638695Z" fill-rule="nonzero"/><path fill="#000000" fill-opacity="0.0" clip-path="url(#id_0)" d="M458.80792 96.926506C458.80792 98.58336 457.46478 99.926506 455.80792 99.926506C454.15106 99.926506 452.80792 98.58336 452.80792 96.926506C452.80792 95.26965 454.15106 93.926506 455.80792 93.926506C457.46478 93.926506 458.80792 95.26965 458.80792 96.926506Z" fill-rule="nonzero"/><path fill="#000000" fill-opacity="0.0" clip-path="url(#id_0)" d="M463.84158 94.316666C463.84158 95.97352 462.49844 97.316666 460.84158 97.316666C459.18472 97.316666 457.84158 95.97352 457.84158 94.316666C457.84158 92.65981 459.18472 91.316666 460.84158 91.316666C462.49844 91.316666 463.84158 92.65981 463.84158 94.316666Z" fill-rule="nonzero"/><path fill="#000000" fill-opacity="0.0" clip-path="url(#id_0)" d="M468.87524 91.80917C468.87524 93.46603 467.5321 94.80917 465.87524 94.80917C464.21838 94.80917 462.87524 93.46603 462.87524 91.80917C462.87524 90.15232 464.21838 88.80917 465.87524 88.80917C467.5321 88.80917 468.87524 90.15232 468.87524 91.80917Z" fill-rule="nonzero"/><path fill="#000000" fill-opacity="0.0" clip-path="url(#id_0)" d="M473.9089 89.40403C473.9089 91.06088 472.56577 92.40403 470.9089 92.40403C469.25204 92.40403 467.9089 91.06088 467.9089 89.40403C467.9089 87.74717 469.25204 86.40403 470.9089 86.40403C472.56577 86.40403 473.9089 87.74717 473.9089 89.40403Z" fill-rule="nonzero"/><path fill="#000000" fill-opacity="0.0" clip-path="url(#id_0)" d="M478.94257 87.10123C478.94257 88.75808 477.59943 90.10123 475.94257 90.10123C474.2857 90.10123 472.94257 88.75808 472.94257 87.10123C472.94257 85.444374 474.2857 84.10123 475.94257 84.10123C477.59943 84.10123 478.94257 85.444374 478.94257 87.10123Z" fill-rule="nonzero"/><path fill="#000000" fill-opacity="0.0" clip-path="url(#id_0)" d="M483.97623 84.90077C483.97623 86.557625 482.6331 87.90077 480.97623 87.90077C479.3194 87.90077 477.97623 86.557625 477.97623 84.90077C477.97623 83.24392 479.3194 81.90077 480.97623 81.90077C482.6331 81.90077 483.97623 83.24392 483.97623 84.90077Z" fill-rule="nonzero"/><path fill="#000000" fill-opacity="0.0" clip-path="url(#id_0)" d="M489.0099 82.802666C489.0099 84.45952 487.66675 85.802666 486.0099 85.802666C484.35306 85.802666 483.0099 84.45952 483.0099 82.802666C483.0099 81.14581 484.35306 79.802666 486.0099 79.802666C487.66675 79.802666 489.0099 81.14581 489.0099 82.802666Z" fill-rule="nonzero"/><path fill="#000000" fill-opacity="0.0" clip-path="url(#id_0)" d="M494.04358 80.80691C494.04358 82.46376 492.7004 83.80691 491.04358 83.80691C489.38672 83.80691 488.04358 82.46376 488.04358 80.80691C488.04358 79.150055 489.38672 77.80691 491.04358 77.80691C492.7004 77.80691 494.04358 79.150055 494.04358 80.80691Z" fill-rule="nonzero"/><path fill="#000000" fill-opacity="0.0" clip-path="url(#id_0)" d="M499.07724 78.91349C499.07724 80.57035 497.73407 81.91349 496.07724 81.91349C494.42038 81.91349 493.07724 80.57035 493.07724 78.91349C493.07724 77.25664 494.42038 75.91349 496.07724 75.91349C497.73407 75.91349 499.07724 77.25664 499.07724 78.91349Z" fill-rule="nonzero"/><path fill="#000000" fill-opacity="0.0" clip-path="url(#id_0)" d="M504.1109 77.12243C504.1109 78.77928 502.76773 80.12243 501.1109 80.12243C499.45404 80.12243 498.1109 78.77928 498.1109 77.12243C498.1109 75.465576 499.45404 74.12243 501.1109 74.12243C502.76773 74.12243 504.1109 75.465576 504.1109 77.12243Z" fill-rule="nonzero"/><path fill="#000000" fill-opacity="0.0" clip-path="url(#id_0)" d="M509.14456 75.43371C509.14456 77.09056 507.80142 78.43371 506.14456 78.43371C504.4877 78.43371 503.14456 77.09056 503.14456 75.43371C503.14456 73.776855 504.4877 72.43371 506.14456 72.43371C507.80142 72.43371 509.14456 73.776855 509.14456 75.43371Z" fill-rule="nonzero"/><path fill="#000000" fill-opacity="0.0" clip-path="url(#id_0)" d="M514.1782 73.847336C514.1782 75.50419 512.8351 76.847336 511.17822 76.847336C509.52136 76.847336 508.17822 75.50419 508.17822 73.847336C508.17822 72.190475 509.52136 70.847336 511.17822 70.847336C512.8351 70.847336 514.1782 72.190475 514.1782 73.847336Z" fill-rule="nonzero"/><path fill="#000000" fill-opacity="0.0" clip-path="url(#id_0)" d="M519.21185 72.363304C519.21185 74.020164 517.8687 75.363304 516.21185 75.363304C514.55505 75.363304 513.21185 74.020164 513.21185 72.363304C513.21185 70.70645 514.55505 69.363304 516.21185 69.363304C517.8687 69.363304 519.21185 70.70645 519.21185 72.363304Z" fill-rule="nonzero"/><path fill="#000000" fill-opacity="0.0" clip-path="url(#id_0)" d="M524.24554 70.98163C524.24554 72.63848 522.9024 73.98163 521.24554 73.98163C519.5887 73.98163 518.24554 72.63848 518.24554 70.98163C518.24554 69.324776 519.5887 67.98163 521.24554 67.98163C522.9024 67.98163 524.24554 69.324776 524.24554 70.98163Z" fill-rule="nonzero"/><path fill="#000000" fill-opacity="0.0" clip-path="url(#id_0)" d="M529.27924 69.70229C529.27924 71.359146 527.93604 72.70229 526.27924 72.70229C524.6224 72.70229 523.27924 71.359146 523.27924 69.70229C523.27924 68.04544 524.6224 66.70229 526.27924 66.70229C527.93604 66.70229 529.27924 68.04544 529.27924 69.70229Z" fill-rule="nonzero"/><path fill="#000000" fill-opacity="0.0" clip-path="url(#id_0)" d="M534.31287 68.52531C534.31287 70.18216 532.9697 71.52531 531.31287 71.52531C529.656 71.52531 528.31287 70.18216 528.31287 68.52531C528.31287 66.868454 529.656 65.52531 531.31287 65.52531C532.9697 65.52531 534.31287 66.868454 534.31287 68.52531Z" fill-rule="nonzero"/><path fill="#000000" fill-opacity="0.0" clip-path="url(#id_0)" d="M539.34656 67.45067C539.34656 69.10752 538.0034 70.45067 536.34656 70.45067C534.6897 70.45067 533.34656 69.10752 533.34656 67.45067C533.34656 65.793816 534.6897 64.45067 536.34656 64.45067C538.0034 64.45067 539.34656 65.793816 539.34656 67.45067Z" fill-rule="nonzero"/><path fill="#000000" fill-opacity="0.0" clip-path="url(#id_0)" d="M544.3802 66.47837C544.3802 68.13523 543.03705 69.47837 541.3802 69.47837C539.7233 69.47837 538.3802 68.13523 538.3802 66.47837C538.3802 64.82152 539.7233 63.478374 541.3802 63.478374C543.03705 63.478374 544.3802 64.82152 544.3802 66.47837Z" fill-rule="nonzero"/><path fill="#000000" fill-opacity="0.0" clip-path="url(#id_0)" d="M549.4139 65.60843C549.4139 67.26528 548.07074 68.60843 546.4139 68.60843C544.757 68.60843 543.4139 67.26528 543.4139 65.60843C543.4139 63.951572 544.757 62.608425 546.4139 62.608425C548.07074 62.608425 549.4139 63.951572 549.4139 65.60843Z" fill-rule="nonzero"/><path fill="#000000" fill-opacity="0.0" clip-path="url(#id_0)" d="M554.4475 64.84083C554.4475 66.49768 553.1044 67.84083 551.4475 67.84083C549.79065 67.84083 548.4475 66.49768 548.4475 64.84083C548.4475 63.18397 549.79065 61.840828 551.4475 61.840828C553.1044 61.840828 554.4475 63.18397 554.4475 64.84083Z" fill-rule="nonzero"/><path fill="#000000" fill-opacity="0.0" clip-path="url(#id_0)" d="M559.4812 64.175575C559.4812 65.83243 558.13806 67.175575 556.4812 67.175575C554.82434 67.175575 553.4812 65.83243 553.4812 64.175575C553.4812 62.51872 554.82434 61.17557 556.4812 61.17557C558.13806 61.17557 559.4812 62.51872 559.4812 64.175575Z" fill-rule="nonzero"/><path fill="#000000" fill-opacity="0.0" clip-path="url(#id_0)" d="M564.51483 63.612667C564.51483 65.26952 563.1717 66.61266 561.51483 66.61266C559.858 66.61266 558.51483 65.26952 558.51483 63.612667C558.51483 61.95581 559.858 60.612667 561.51483 60.612667C563.1717 60.612667 564.51483 61.95581 564.51483 63.612667Z" fill-rule="nonzero"/><path fill="#000000" fill-opacity="0.0" clip-path="url(#id_0)" d="M569.5485 63.152107C569.5485 64.80896 568.2054 66.15211 566.5485 66.15211C564.89166 66.15211 563.5485 64.80896 563.5485 63.152107C563.5485 61.49525 564.89166 60.152107 566.5485 60.152107C568.2054 60.152107 569.5485 61.49525 569.5485 63.152107Z" fill-rule="nonzero"/><path fill="#000000" fill-opacity="0.0" clip-path="url(#id_0)" d="M574.58215 62.79389C574.58215 64.450745 573.239 65.79389 571.58215 65.79389C569.92535 65.79389 568.58215 64.450745 568.58215 62.79389C568.58215 61.13704 569.92535 59.79389 571.58215 59.79389C573.239 59.79389 574.58215 61.13704 574.58215 62.79389Z" fill-rule="nonzero"/><path fill="#000000" fill-opacity="0.0" clip-path="url(#id_0)" d="M579.61584 62.538025C579.61584 64.19488 578.2727 65.538025 576.61584 65.538025C574.959 65.538025 573.61584 64.19488 573.61584 62.538025C573.61584 60.881172 574.959 59.538025 576.61584 59.538025C578.2727 59.538025 579.61584 60.881172 579.61584 62.538025Z" fill-rule="nonzero"/><path fill="#000000" fill-opacity="0.0" clip-path="url(#id_0)" d="M584.6495 62.384506C584.6495 64.04136 583.30634 65.38451 581.6495 65.38451C579.9927 65.38451 578.6495 64.04136 578.6495 62.384506C578.6495 60.727654 579.9927 59.384506 581.6495 59.384506C583.30634 59.384506 584.6495 60.727654 584.6495 62.384506Z" fill-rule="nonzero"/><path fill="#000000" fill-opacity="0.0" clip-path="url(#id_0)" d="M589.68317 62.333332C589.68317 63.99019 588.34 65.333336 586.68317 65.333336C585.0263 65.333336 583.68317 63.99019 583.68317 62.333332C583.68317 60.67648 585.0263 59.333332 586.68317 59.333332C588.34 59.333332 589.68317 60.67648 589.68317 62.333332Z" fill-rule="nonzero"/><path fill="#000000" d="M336.59375 353.2625L336.75 354.1844Q336.29688 354.27814 335.95312 354.27814Q335.375 354.27814 335.0625 354.10626Q334.75 353.91876 334.60938 353.6219Q334.48438 353.325 334.48438 352.3719L334.48438 348.79376L333.71875 348.79376L333.71875 347.98126L334.48438 347.98126L334.48438 346.4344L335.53125 345.8094L335.53125 347.98126L336.59375 347.98126L336.59375 348.79376L335.53125 348.79376L335.53125 352.4344Q335.53125 352.8875 335.57812 353.0125Q335.64062 353.1375 335.76562 353.21564Q335.89062 353.29376 336.125 353.29376Q336.3125 353.29376 336.59375 353.2625Z" fill-rule="nonzero"/><path fill="#000000" d="M29.800013 192.67291L26.565638 190.40729L23.581263 192.50104L23.581263 191.18854L25.034388 190.23541Q25.456263 189.96979 25.737513 189.79791Q25.346888 189.54791 25.050013 189.32916L23.581263 188.28229L23.581263 187.01666L26.503138 189.17291L29.800013 186.86041L29.800013 188.14166L27.862513 189.42291L27.346888 189.76666L29.800013 191.40729L29.800013 192.67291Z" fill-rule="nonzero"/><path fill="#000000" d="M51.3 317.96564Q51.3 316.4344 51.6125 315.5125Q51.925 314.575 52.534374 314.075Q53.159374 313.575 54.096874 313.575Q54.784374 313.575 55.3 313.85626Q55.83125 314.1375 56.175 314.66876Q56.51875 315.1844 56.70625 315.9344Q56.89375 316.6844 56.89375 317.96564Q56.89375 319.48126 56.58125 320.40314Q56.284374 321.325 55.659374 321.84064Q55.05 322.34064 54.096874 322.34064Q52.8625 322.34064 52.14375 321.45Q51.3 320.3875 51.3 317.96564ZM52.378124 317.96564Q52.378124 320.075 52.878124 320.77814Q53.378124 321.48126 54.096874 321.48126Q54.83125 321.48126 55.315624 320.77814Q55.815624 320.075 55.815624 317.96564Q55.815624 315.84064 55.315624 315.15314Q54.83125 314.45 54.08125 314.45Q53.3625 314.45 52.925 315.0594Q52.378124 315.84064 52.378124 317.96564ZM58.89375 322.2L58.89375 320.9969L60.096874 320.9969L60.096874 322.2L58.89375 322.2ZM61.3 317.96564Q61.3 316.4344 61.6125 315.5125Q61.925 314.575 62.534374 314.075Q63.159374 313.575 64.09688 313.575Q64.78438 313.575 65.3 313.85626Q65.83125 314.1375 66.175 314.66876Q66.51875 315.1844 66.70625 315.9344Q66.89375 316.6844 66.89375 317.96564Q66.89375 319.48126 66.58125 320.40314Q66.28438 321.325 65.65938 321.84064Q65.05 322.34064 64.09688 322.34064Q62.8625 322.34064 62.14375 321.45Q61.3 320.3875 61.3 317.96564ZM62.378124 317.96564Q62.378124 320.075 62.878124 320.77814Q63.378124 321.48126 64.09688 321.48126Q64.83125 321.48126 65.31563 320.77814Q65.81563 320.075 65.81563 317.96564Q65.81563 315.84064 65.31563 315.15314Q64.83125 314.45 64.08125 314.45Q63.3625 314.45 62.925 315.0594Q62.378124 315.84064 62.378124 317.96564ZM68.3 317.96564Q68.3 316.4344 68.6125 315.5125Q68.925 314.575 69.53438 314.075Q70.15938 313.575 71.09688 313.575Q71.78438 313.575 72.3 313.85626Q72.83125 314.1375 73.175 314.66876Q73.51875 315.1844 73.70625 315.9344Q73.89375 316.6844 73.89375 317.96564Q73.89375 319.48126 73.58125 320.40314Q73.28438 321.325 72.65938 321.84064Q72.05 322.34064 71.09688 322.34064Q69.8625 322.34064 69.14375 321.45Q68.3 320.3875 68.3 317.96564ZM69.37813 317.96564Q69.37813 320.075 69.87813 320.77814Q70.37813 321.48126 71.09688 321.48126Q71.83125 321.48126 72.31563 320.77814Q72.81563 320.075 72.81563 317.96564Q72.81563 315.84064 72.31563 315.15314Q71.83125 314.45 71.08125 314.45Q70.3625 314.45 69.925 315.0594Q69.37813 315.84064 69.37813 317.96564Z" fill-rule="nonzero"/><path fill="#000000" d="M51.3 253.99896Q51.3 252.46771 51.6125 251.54584Q51.925 250.60834 52.534374 250.10834Q53.159374 249.60834 54.096874 249.60834Q54.784374 249.60834 55.3 249.88959Q55.83125 250.17084 56.175 250.70209Q56.51875 251.21771 56.70625 251.96771Q56.89375 252.71771 56.89375 253.99896Q56.89375 255.51459 56.58125 256.43646Q56.284374 257.35834 55.659374 257.87396Q55.05 258.37396 54.096874 258.37396Q52.8625 258.37396 52.14375 257.48334Q51.3 256.42084 51.3 253.99896ZM52.378124 253.99896Q52.378124 256.10834 52.878124 256.81146Q53.378124 257.5146 54.096874 257.5146Q54.83125 257.5146 55.315624 256.81146Q55.815624 256.10834 55.815624 253.99896Q55.815624 251.87396 55.315624 251.18646Q54.83125 250.48334 54.08125 250.48334Q53.3625 250.48334 52.925 251.09271Q52.378124 251.87396 52.378124 253.99896ZM58.89375 258.23334L58.89375 257.0302L60.096874 257.0302L60.096874 258.23334L58.89375 258.23334ZM66.84688 257.2177L66.84688 258.23334L61.159374 258.23334Q61.159374 257.85834 61.284374 257.49896Q61.503124 256.92084 61.971874 256.35834Q62.45625 255.79584 63.3625 255.06146Q64.76875 253.90521 65.25313 253.23334Q65.75313 252.56146 65.75313 251.96771Q65.75313 251.34271 65.3 250.92084Q64.84688 250.48334 64.12813 250.48334Q63.3625 250.48334 62.909374 250.93646Q62.45625 251.38959 62.440624 252.20209L61.3625 252.09271Q61.471874 250.87396 62.190624 250.24896Q62.925 249.60834 64.15938 249.60834Q65.39375 249.60834 66.1125 250.29584Q66.83125 250.98334 66.83125 251.99896Q66.83125 252.51459 66.6125 253.01459Q66.40938 253.49896 65.90938 254.06146Q65.425 254.60834 64.3 255.56146Q63.346874 256.35834 63.065624 256.6552Q62.8 256.93646 62.628124 257.2177L66.84688 257.2177ZM68.3 255.98334L69.40938 255.88959Q69.53438 256.7021 69.97188 257.10834Q70.425 257.5146 71.06563 257.5146Q71.81563 257.5146 72.34688 256.93646Q72.87813 256.35834 72.87813 255.42084Q72.87813 254.51459 72.3625 253.99896Q71.8625 253.46771 71.03438 253.46771Q70.53438 253.46771 70.1125 253.70209Q69.70625 253.93646 69.47188 254.29584L68.4875 254.17084L69.31563 249.76459L73.59688 249.76459L73.59688 250.76459L70.15938 250.76459L69.70625 253.07709Q70.47188 252.53021 71.31563 252.53021Q72.44063 252.53021 73.20625 253.31146Q73.9875 254.09271 73.9875 255.32709Q73.9875 256.48334 73.31563 257.3427Q72.4875 258.37396 71.06563 258.37396Q69.89375 258.37396 69.14375 257.7177Q68.40938 257.06146 68.3 255.98334Z" fill-rule="nonzero"/><path fill="#000000" d="M51.3 190.03229Q51.3 188.50104 51.6125 187.57916Q51.925 186.64166 52.534374 186.14166Q53.159374 185.64166 54.096874 185.64166Q54.784374 185.64166 55.3 185.92291Q55.83125 186.20416 56.175 186.73541Q56.51875 187.25104 56.70625 188.00104Q56.89375 188.75104 56.89375 190.03229Q56.89375 191.54791 56.58125 192.46979Q56.284374 193.39166 55.659374 193.90729Q55.05 194.40729 54.096874 194.40729Q52.8625 194.40729 52.14375 193.51666Q51.3 192.45416 51.3 190.03229ZM52.378124 190.03229Q52.378124 192.14166 52.878124 192.84479Q53.378124 193.54791 54.096874 193.54791Q54.83125 193.54791 55.315624 192.84479Q55.815624 192.14166 55.815624 190.03229Q55.815624 187.90729 55.315624 187.21979Q54.83125 186.51666 54.08125 186.51666Q53.3625 186.51666 52.925 187.12604Q52.378124 187.90729 52.378124 190.03229ZM58.89375 194.26666L58.89375 193.06354L60.096874 193.06354L60.096874 194.26666L58.89375 194.26666ZM61.3 192.01666L62.409374 191.92291Q62.534374 192.73541 62.971874 193.14166Q63.425 193.54791 64.06563 193.54791Q64.81563 193.54791 65.34688 192.96979Q65.87813 192.39166 65.87813 191.45416Q65.87813 190.54791 65.3625 190.03229Q64.8625 189.50104 64.03438 189.50104Q63.534374 189.50104 63.1125 189.73541Q62.70625 189.96979 62.471874 190.32916L61.4875 190.20416L62.315624 185.79791L66.59688 185.79791L66.59688 186.79791L63.159374 186.79791L62.70625 189.11041Q63.471874 188.56354 64.31563 188.56354Q65.44063 188.56354 66.20625 189.34479Q66.9875 190.12604 66.9875 191.36041Q66.9875 192.51666 66.31563 193.37604Q65.4875 194.40729 64.06563 194.40729Q62.89375 194.40729 62.14375 193.75104Q61.409374 193.09479 61.3 192.01666ZM68.3 190.03229Q68.3 188.50104 68.6125 187.57916Q68.925 186.64166 69.53438 186.14166Q70.15938 185.64166 71.09688 185.64166Q71.78438 185.64166 72.3 185.92291Q72.83125 186.20416 73.175 186.73541Q73.51875 187.25104 73.70625 188.00104Q73.89375 188.75104 73.89375 190.03229Q73.89375 191.54791 73.58125 192.46979Q73.28438 193.39166 72.65938 193.90729Q72.05 194.40729 71.09688 194.40729Q69.8625 194.40729 69.14375 193.51666Q68.3 192.45416 68.3 190.03229ZM69.37813 190.03229Q69.37813 192.14166 69.87813 192.84479Q70.37813 193.54791 71.09688 193.54791Q71.83125 193.54791 72.31563 192.84479Q72.81563 192.14166 72.81563 190.03229Q72.81563 187.90729 72.31563 187.21979Q71.83125 186.51666 71.08125 186.51666Q70.3625 186.51666 69.925 187.12604Q69.37813 187.90729 69.37813 190.03229Z" fill-rule="nonzero"/><path fill="#000000" d="M51.3 126.06563Q51.3 124.53438 51.6125 123.6125Q51.925 122.675 52.534374 122.175Q53.159374 121.675 54.096874 121.675Q54.784374 121.675 55.3 121.95625Q55.83125 122.2375 56.175 122.76875Q56.51875 123.28438 56.70625 124.03438Q56.89375 124.78438 56.89375 126.06563Q56.89375 127.58125 56.58125 128.50313Q56.284374 129.425 55.659374 129.94063Q55.05 130.44063 54.096874 130.44063Q52.8625 130.44063 52.14375 129.55Q51.3 128.4875 51.3 126.06563ZM52.378124 126.06563Q52.378124 128.175 52.878124 128.87813Q53.378124 129.58125 54.096874 129.58125Q54.83125 129.58125 55.315624 128.87813Q55.815624 128.175 55.815624 126.06563Q55.815624 123.94063 55.315624 123.25313Q54.83125 122.55 54.08125 122.55Q53.3625 122.55 52.925 123.15938Q52.378124 123.94063 52.378124 126.06563ZM58.89375 130.3L58.89375 129.09688L60.096874 129.09688L60.096874 130.3L58.89375 130.3ZM61.3625 122.83125L61.3625 121.81563L66.925 121.81563L66.925 122.64375Q66.1125 123.51875 65.3 124.97188Q64.50313 126.40938 64.06563 127.94063Q63.7375 129.01875 63.659374 130.3L62.565624 130.3Q62.58125 129.28438 62.95625 127.84688Q63.346874 126.40938 64.05 125.08125Q64.76875 123.75313 65.58125 122.83125L61.3625 122.83125ZM68.3 128.05L69.40938 127.95625Q69.53438 128.76875 69.97188 129.175Q70.425 129.58125 71.06563 129.58125Q71.81563 129.58125 72.34688 129.00313Q72.87813 128.425 72.87813 127.4875Q72.87813 126.58125 72.3625 126.06563Q71.8625 125.53438 71.03438 125.53438Q70.53438 125.53438 70.1125 125.76875Q69.70625 126.00313 69.47188 126.3625L68.4875 126.2375L69.31563 121.83125L73.59688 121.83125L73.59688 122.83125L70.15938 122.83125L69.70625 125.14375Q70.47188 124.59688 71.31563 124.59688Q72.44063 124.59688 73.20625 125.37813Q73.9875 126.15938 73.9875 127.39375Q73.9875 128.55 73.31563 129.40938Q72.4875 130.44063 71.06563 130.44063Q69.89375 130.44063 69.14375 129.78438Q68.40938 129.12813 68.3 128.05Z" fill-rule="nonzero"/><path fill="#000000" d="M55.26875 66.333336L54.221874 66.333336L54.221874 59.614586Q53.83125 59.97396 53.20625 60.34896Q52.596874 60.708336 52.1125 60.88021L52.1125 59.864586Q52.9875 59.44271 53.64375 58.864586Q54.315624 58.270836 54.596874 57.708336L55.26875 57.708336L55.26875 66.333336ZM58.89375 66.333336L58.89375 65.13021L60.096874 65.13021L60.096874 66.333336L58.89375 66.333336ZM61.3 62.09896Q61.3 60.56771 61.6125 59.645836Q61.925 58.708336 62.534374 58.208336Q63.159374 57.708336 64.09688 57.708336Q64.78438 57.708336 65.3 57.989586Q65.83125 58.270836 66.175 58.802086Q66.51875 59.31771 66.70625 60.06771Q66.89375 60.81771 66.89375 62.09896Q66.89375 63.614586 66.58125 64.53646Q66.28438 65.458336 65.65938 65.97396Q65.05 66.47396 64.09688 66.47396Q62.8625 66.47396 62.14375 65.583336Q61.3 64.520836 61.3 62.09896ZM62.378124 62.09896Q62.378124 64.208336 62.878124 64.91146Q63.378124 65.614586 64.09688 65.614586Q64.83125 65.614586 65.31563 64.91146Q65.81563 64.208336 65.81563 62.09896Q65.81563 59.97396 65.31563 59.28646Q64.83125 58.583336 64.08125 58.583336Q63.3625 58.583336 62.925 59.19271Q62.378124 59.97396 62.378124 62.09896ZM68.3 62.09896Q68.3 60.56771 68.6125 59.645836Q68.925 58.708336 69.53438 58.208336Q70.15938 57.708336 71.09688 57.708336Q71.78438 57.708336 72.3 57.989586Q72.83125 58.270836 73.175 58.802086Q73.51875 59.31771 73.70625 60.06771Q73.89375 60.81771 73.89375 62.09896Q73.89375 63.614586 73.58125 64.53646Q73.28438 65.458336 72.65938 65.97396Q72.05 66.47396 71.09688 66.47396Q69.8625 66.47396 69.14375 65.583336Q68.3 64.520836 68.3 62.09896ZM69.37813 62.09896Q69.37813 64.208336 69.87813 64.91146Q70.37813 65.614586 71.09688 65.614586Q71.83125 65.614586 72.31563 64.91146Q72.81563 64.208336 72.81563 62.09896Q72.81563 59.97396 72.31563 59.28646Q71.83125 58.583336 71.08125 58.583336Q70.3625 58.583336 69.925 59.19271Q69.37813 59.97396 69.37813 62.09896Z" fill-rule="nonzero"/><path fill="#757575" d="M20.378124 37.8L20.378124 23.4875L30.7375 23.4875L30.7375 25.175L22.284374 25.175L22.284374 29.55L30.190624 29.55L30.190624 31.2375L22.284374 31.2375L22.284374 36.1125L31.065624 36.1125L31.065624 37.8L20.378124 37.8ZM39.89375 36.51875Q38.909374 37.346874 38.003124 37.690624Q37.096874 38.034374 36.065624 38.034374Q34.3625 38.034374 33.440624 37.20625Q32.51875 36.3625 32.51875 35.065624Q32.51875 34.3 32.8625 33.675Q33.221874 33.05 33.784374 32.675Q34.346874 32.284374 35.05 32.08125Q35.565624 31.95625 36.6125 31.815624Q38.7375 31.565624 39.7375 31.221874Q39.753124 30.8625 39.753124 30.753124Q39.753124 29.690624 39.253124 29.2375Q38.58125 28.64375 37.253124 28.64375Q36.003124 28.64375 35.409374 29.08125Q34.83125 29.51875 34.55 30.628124L32.83125 30.39375Q33.065624 29.284374 33.596874 28.6125Q34.128124 27.925 35.14375 27.565624Q36.159374 27.190624 37.503124 27.190624Q38.83125 27.190624 39.659374 27.503124Q40.4875 27.815624 40.878124 28.3Q41.26875 28.76875 41.425 29.4875Q41.51875 29.940624 41.51875 31.1125L41.51875 33.45625Q41.51875 35.909374 41.628124 36.565624Q41.7375 37.20625 42.08125 37.8L40.2375 37.8Q39.971874 37.253124 39.89375 36.51875ZM39.7375 32.596874Q38.784374 32.9875 36.8625 33.253124Q35.784374 33.409374 35.33125 33.6125Q34.89375 33.8 34.64375 34.175Q34.39375 34.55 34.39375 35.01875Q34.39375 35.721874 34.925 36.190624Q35.45625 36.659374 36.4875 36.659374Q37.503124 36.659374 38.284374 36.221874Q39.08125 35.76875 39.45625 35.003124Q39.7375 34.39375 39.7375 33.2375L39.7375 32.596874ZM43.409374 34.70625L45.159374 34.425Q45.3 35.471874 45.971874 36.034374Q46.64375 36.58125 47.846874 36.58125Q49.05 36.58125 49.628124 36.096874Q50.221874 35.596874 50.221874 34.940624Q50.221874 34.346874 49.70625 34.003124Q49.346874 33.76875 47.909374 33.409374Q45.971874 32.909374 45.221874 32.565624Q44.4875 32.20625 44.096874 31.58125Q43.70625 30.940624 43.70625 30.175Q43.70625 29.4875 44.01875 28.89375Q44.346874 28.3 44.89375 27.909374Q45.3 27.6125 46.003124 27.409374Q46.721874 27.190624 47.534374 27.190624Q48.753124 27.190624 49.675 27.55Q50.596874 27.89375 51.034374 28.503124Q51.471874 29.096874 51.64375 30.096874L49.925 30.33125Q49.8 29.534374 49.2375 29.096874Q48.675 28.64375 47.659374 28.64375Q46.440624 28.64375 45.925 29.05Q45.409374 29.440624 45.409374 29.971874Q45.409374 30.315624 45.628124 30.596874Q45.83125 30.878124 46.3 31.065624Q46.565624 31.159374 47.846874 31.503124Q49.721874 32.003124 50.45625 32.33125Q51.190624 32.64375 51.6125 33.253124Q52.034374 33.846874 52.034374 34.753124Q52.034374 35.628124 51.51875 36.409374Q51.003124 37.190624 50.034374 37.6125Q49.065624 38.034374 47.846874 38.034374Q45.83125 38.034374 44.76875 37.190624Q43.70625 36.346874 43.409374 34.70625ZM61.221874 34.45625L63.034374 34.690624Q62.6125 36.26875 61.440624 37.159374Q60.284374 38.034374 58.471874 38.034374Q56.20625 38.034374 54.8625 36.64375Q53.534374 35.2375 53.534374 32.70625Q53.534374 30.08125 54.878124 28.64375Q56.221874 27.190624 58.378124 27.190624Q60.45625 27.190624 61.76875 28.6125Q63.096874 30.01875 63.096874 32.596874Q63.096874 32.753124 63.08125 33.065624L55.346874 33.065624Q55.440624 34.76875 56.315624 35.675Q57.190624 36.58125 58.4875 36.58125Q59.45625 36.58125 60.128124 36.08125Q60.815624 35.565624 61.221874 34.45625ZM55.440624 31.6125L61.2375 31.6125Q61.128124 30.315624 60.58125 29.659374Q59.7375 28.64375 58.39375 28.64375Q57.190624 28.64375 56.3625 29.45625Q55.534374 30.253124 55.440624 31.6125ZM65.65938 37.8L65.65938 23.4875L67.56563 23.4875L67.56563 37.8L65.65938 37.8ZM71.1125 37.8L71.1125 27.425L72.70625 27.425L72.70625 28.909374Q73.84688 27.190624 76.00313 27.190624Q76.94063 27.190624 77.72188 27.534374Q78.51875 27.8625 78.90938 28.409374Q79.3 28.95625 79.45625 29.70625Q79.55 30.20625 79.55 31.425L79.55 37.8L77.78438 37.8L77.78438 31.4875Q77.78438 30.409374 77.58125 29.878124Q77.37813 29.346874 76.84688 29.034374Q76.33125 28.721874 75.62813 28.721874Q74.50313 28.721874 73.69063 29.440624Q72.87813 30.14375 72.87813 32.128124L72.87813 37.8L71.1125 37.8ZM80.76875 30.83125Q80.76875 27.26875 82.675 25.253124Q84.59688 23.221874 87.62813 23.221874Q89.6125 23.221874 91.19063 24.175Q92.78438 25.128124 93.6125 26.83125Q94.45625 28.51875 94.45625 30.659374Q94.45625 32.83125 93.58125 34.55Q92.70625 36.26875 91.08125 37.159374Q89.47188 38.05 87.6125 38.05Q85.59688 38.05 84.00313 37.08125Q82.40938 36.096874 81.58125 34.409374Q80.76875 32.70625 80.76875 30.83125ZM82.72188 30.8625Q82.72188 33.440624 84.1125 34.940624Q85.50313 36.425 87.59688 36.425Q89.7375 36.425 91.1125 34.925Q92.50313 33.409374 92.50313 30.64375Q92.50313 28.909374 91.90938 27.6125Q91.33125 26.3 90.19063 25.58125Q89.05 24.8625 87.62813 24.8625Q85.62813 24.8625 84.175 26.253124Q82.72188 27.628124 82.72188 30.8625ZM103.90938 37.8L103.90938 36.26875Q102.70625 38.034374 100.62813 38.034374Q99.70625 38.034374 98.90938 37.690624Q98.1125 37.33125 97.72188 36.8Q97.34688 36.26875 97.19063 35.4875Q97.08125 34.971874 97.08125 33.846874L97.08125 27.425L98.83125 27.425L98.83125 33.175Q98.83125 34.55 98.94063 35.034374Q99.1125 35.721874 99.64375 36.128124Q100.19063 36.51875 100.97188 36.51875Q101.76875 36.51875 102.45625 36.1125Q103.15938 35.70625 103.44063 35.01875Q103.7375 34.315624 103.7375 32.9875L103.7375 27.425L105.4875 27.425L105.4875 37.8L103.90938 37.8ZM110.95625 36.221874L111.20625 37.784374Q110.47188 37.940624 109.87813 37.940624Q108.925 37.940624 108.39375 37.64375Q107.87813 37.33125 107.65938 36.846874Q107.44063 36.346874 107.44063 34.76875L107.44063 28.8L106.15938 28.8L106.15938 27.425L107.44063 27.425L107.44063 24.8625L109.19063 23.8L109.19063 27.425L110.95625 27.425L110.95625 28.8L109.19063 28.8L109.19063 34.8625Q109.19063 35.6125 109.28438 35.83125Q109.37813 36.034374 109.58125 36.175Q109.8 36.3 110.19063 36.3Q110.47188 36.3 110.95625 36.221874ZM124.19063 36.26875Q125.51875 37.175 126.62813 37.596874L126.06563 38.909374Q124.51875 38.3625 122.9875 37.159374Q121.39375 38.05 119.47188 38.05Q117.53438 38.05 115.94063 37.1125Q114.3625 36.175 113.50313 34.471874Q112.65938 32.76875 112.65938 30.64375Q112.65938 28.51875 113.51875 26.784374Q114.37813 25.05 115.95625 24.14375Q117.55 23.221874 119.51875 23.221874Q121.50313 23.221874 123.08125 24.175Q124.675 25.1125 125.50313 26.815624Q126.34688 28.503124 126.34688 30.628124Q126.34688 32.39375 125.81563 33.815624Q125.28438 35.221874 124.19063 36.26875ZM120.01875 33.846874Q121.65938 34.3 122.72188 35.20625Q124.39375 33.690624 124.39375 30.628124Q124.39375 28.89375 123.8 27.596874Q123.22188 26.3 122.08125 25.58125Q120.94063 24.8625 119.51875 24.8625Q117.40938 24.8625 116.00313 26.315624Q114.6125 27.753124 114.6125 30.64375Q114.6125 33.440624 115.9875 34.940624Q117.37813 36.425 119.51875 36.425Q120.53438 36.425 121.44063 36.034374Q120.55 35.471874 119.56563 35.221874L120.01875 33.846874ZM135.90938 37.8L135.90938 36.26875Q134.70625 38.034374 132.62813 38.034374Q131.70625 38.034374 130.90938 37.690624Q130.1125 37.33125 129.72188 36.8Q129.34688 36.26875 129.19063 35.4875Q129.08125 34.971874 129.08125 33.846874L129.08125 27.425L130.83125 27.425L130.83125 33.175Q130.83125 34.55 130.94063 35.034374Q131.1125 35.721874 131.64375 36.128124Q132.19063 36.51875 132.97188 36.51875Q133.76875 36.51875 134.45625 36.1125Q135.15938 35.70625 135.44063 35.01875Q135.7375 34.315624 135.7375 32.9875L135.7375 27.425L137.4875 27.425L137.4875 37.8L135.90938 37.8ZM145.89375 36.51875Q144.90938 37.346874 144.00313 37.690624Q143.09688 38.034374 142.06563 38.034374Q140.3625 38.034374 139.44063 37.20625Q138.51875 36.3625 138.51875 35.065624Q138.51875 34.3 138.8625 33.675Q139.22188 33.05 139.78438 32.675Q140.34688 32.284374 141.05 32.08125Q141.56563 31.95625 142.6125 31.815624Q144.7375 31.565624 145.7375 31.221874Q145.75313 30.8625 145.75313 30.753124Q145.75313 29.690624 145.25313 29.2375Q144.58125 28.64375 143.25313 28.64375Q142.00313 28.64375 141.40938 29.08125Q140.83125 29.51875 140.55 30.628124L138.83125 30.39375Q139.06563 29.284374 139.59688 28.6125Q140.12813 27.925 141.14375 27.565624Q142.15938 27.190624 143.50313 27.190624Q144.83125 27.190624 145.65938 27.503124Q146.4875 27.815624 146.87813 28.3Q147.26875 28.76875 147.425 29.4875Q147.51875 29.940624 147.51875 31.1125L147.51875 33.45625Q147.51875 35.909374 147.62813 36.565624Q147.7375 37.20625 148.08125 37.8L146.2375 37.8Q145.97188 37.253124 145.89375 36.51875ZM145.7375 32.596874Q144.78438 32.9875 142.8625 33.253124Q141.78438 33.409374 141.33125 33.6125Q140.89375 33.8 140.64375 34.175Q140.39375 34.55 140.39375 35.01875Q140.39375 35.721874 140.925 36.190624Q141.45625 36.659374 142.4875 36.659374Q143.50313 36.659374 144.28438 36.221874Q145.08125 35.76875 145.45625 35.003124Q145.7375 34.39375 145.7375 33.2375L145.7375 32.596874ZM156.84688 37.8L156.84688 36.4875Q155.8625 38.034374 153.94063 38.034374Q152.70625 38.034374 151.65938 37.346874Q150.62813 36.659374 150.05 35.440624Q149.4875 34.221874 149.4875 32.628124Q149.4875 31.065624 150.00313 29.8Q150.51875 28.534374 151.55 27.8625Q152.59688 27.190624 153.8625 27.190624Q154.8 27.190624 155.53438 27.596874Q156.26875 27.9875 156.7375 28.6125L156.7375 23.4875L158.47188 23.4875L158.47188 37.8L156.84688 37.8ZM151.28438 32.628124Q151.28438 34.6125 152.12813 35.596874Q152.97188 36.58125 154.1125 36.58125Q155.26875 36.58125 156.06563 35.64375Q156.87813 34.70625 156.87813 32.76875Q156.87813 30.64375 156.05 29.64375Q155.2375 28.64375 154.03438 28.64375Q152.8625 28.64375 152.06563 29.6125Q151.28438 30.565624 151.28438 32.628124Z" fill-rule="nonzero"/></svg>