<svg version="1.1" viewBox="0.0 0.0 608.0 376.0" fill="none" stroke="none" stroke-linecap="square" stroke-miterlimit="10" width="608" height="376" xmlns:xlink="http://www.w3.org/1999/xlink" xmlns="http://www.w3.org/2000/svg"><path fill="#ffffff" d="M0 0L608.0 0L608.0 376.0L0 376.0L0 0Z" fill-rule="nonzero"/><path stroke="#333333" stroke-width="1.0" stroke-linecap="butt" d="M80.5 318.5L589.5 318.5" fill-rule="nonzero"/><path stroke="#cccccc" stroke-width="1.0" stroke-linecap="butt" d="M80.5 254.5L589.5 254.5" fill-rule="nonzero"/><path stroke="#cccccc" stroke-width="1.0" stroke-linecap="butt" d="M80.5 190.5L589.5 190.5" fill-rule="nonzero"/><path stroke="#cccccc" stroke-width="1.0" stroke-linecap="butt" d="M80.5 126.5L589.5 126.5" fill-rule="nonzero"/><path stroke="#cccccc" stroke-width="1.0" stroke-linecap="butt" d="M80.5 62.5L589.5 62.5" fill-rule="nonzero"/><path stroke="#000000" stroke-width="1.0" stroke-linecap="butt" d="M80.5 318.5L80.5 62.5" fill-rule="nonzero"/><clipPath id="id_0"><path d="M80.8 62.333332L589.2 62.333332L589.2 318.2L80.8 318.2L80.8 62.333332Z" clip-rule="nonzero"/></clipPath><path stroke="#4285f4" stroke-width="2.0" stroke-linecap="butt" clip-path="url(#id_0)" d="M83.31683 318.2C83.31683 318.2 86.67261 318.2 88.350494 318.2C90.02838 318.2 91.70627 318.2 93.384155 318.2C95.06205 318.2 96.73994 318.2 98.41782 318.19998C100.09571 318.19998 101.7736 318.19998 103.451485 318.19998C105.12937 318.19995 106.80726 318.19995 108.485146 318.19992C110.16303 318.1999 111.84093 318.19986 113.518814 318.1998C115.1967 318.19974 116.87459 318.19968 118.552475 318.1996C120.23036 318.19946 121.90825 318.19934 123.586136 318.19916C125.26402 318.19897 126.94192 318.19876 128.6198 318.1985C130.29768 318.1982 131.97557 318.19788 133.65347 318.19745C135.33136 318.19702 137.00925 318.1965 138.68713 318.1959C140.36502 318.19525 142.04291 318.19452 143.7208 318.19363C145.39868 318.19275 147.07657 318.19174 148.75446 318.1905C150.43234 318.18927 152.11023 318.1879 153.78812 318.18625C155.466 318.18457 157.14389 318.18274 158.82178 318.18057C160.49966 318.1784 162.17755 318.176 163.85544 318.17316C165.53334 318.17035 167.21123 318.16727 168.88911 318.16367C170.567 318.1601 172.24489 318.15616 173.92278 318.15164C175.60066 318.14716 177.27855 318.14224 178.95644 318.13666C180.63432 318.13104 182.31221 318.12497 183.9901 318.11813C185.66798 318.11127 187.34587 318.10382 189.02376 318.0955C190.70164 318.08716 192.37953 318.07816 194.05742 318.06815C195.73532 318.0581 197.41321 318.0473 199.0911 318.0353C200.76898 318.02335 202.44687 318.01047 204.12476 317.99628C205.80264 317.98206 207.48053 317.96683 209.15842 317.95013C210.8363 317.9334 212.51419 317.91553 214.19208 317.896C215.86996 317.87646 217.54785 317.8556 219.22574 317.83286C220.90363 317.81012 222.58151 317.78592 224.2594 317.75964C225.93729 317.73337 227.61519 317.7054 229.29308 317.6752C230.97096 317.64496 232.64885 317.61285 234.32674 317.57825C236.00462 317.54364 237.68251 317.50693 239.3604 317.46747C241.03828 317.428 242.71617 317.38626 244.39406 317.34146C246.07195 317.29666 247.74983 317.24933 249.42772 317.19867C251.1056 317.14798 252.7835 317.09454 254.46138 317.03745C256.13928 316.98038 257.81717 316.92023 259.49506 316.85614C261.17294 316.79205 262.85083 316.7246 264.52872 316.65286C266.2066 316.58115 267.8845 316.50577 269.56238 316.42572C271.24026 316.34567 272.91815 316.2617 274.59604 316.17264C276.27393 316.0836 277.9518 315.99023 279.6297 315.89145C281.3076 315.79266 282.98547 315.68924 284.66336 315.57993C286.34125 315.4706 288.01913 315.35626 289.69702 315.23563C291.3749 315.115 293.0528 314.9889 294.73068 314.85605C296.40857 314.7232 298.08646 314.5845 299.76434 314.43854C301.44223 314.2926 303.12012 314.14035 304.79803 313.98035C306.47592 313.82034 308.1538 313.6536 309.8317 313.47855C311.50958 313.3035 313.18747 313.12122 314.86536 312.93008C316.54324 312.73898 318.22113 312.5401 319.89902 312.33182C321.5769 312.12354 323.2548 311.90698 324.93268 311.68042C326.61057 311.45386 328.28845 311.21844 329.96634 310.9724C331.64423 310.72635 333.3221 310.47092 335.0 310.20416C336.6779 309.93744 338.35577 309.66068 340.03366 309.37195C341.71155 309.08322 343.38943 308.78387 345.06732 308.47183C346.7452 308.15982 348.4231 307.8365 350.10098 307.4998C351.77887 307.16306 353.45676 306.81436 355.13464 306.4515C356.81253 306.08865 358.49042 305.7131 360.1683 305.32263C361.8462 304.93216 363.52408 304.52826 365.20197 304.1086C366.87988 303.68896 368.55777 303.25513 370.23566 302.80472C371.91354 302.35428 373.59143 301.8889 375.26932 301.406C376.9472 300.92316 378.6251 300.4245 380.30298 299.90747C381.98087 299.39044 383.65875 298.85678 385.33664 298.3038C387.01453 297.75082 388.6924 297.18036 390.3703 296.5896C392.0482 295.99884 393.72607 295.38968 395.40396 294.75922C397.08185 294.12875 398.75974 293.47897 400.43762 292.80685C402.1155 292.13474 403.7934 291.44232 405.47128 290.72653C407.14917 290.0107 408.82706 289.27362 410.50494 288.51202C412.18283 287.75043 413.86072 286.96652 415.5386 286.15698C417.2165 285.34744 418.89438 284.51453 420.57227 283.6548C422.25015 282.79507 423.92804 281.9109 425.60593 280.9987C427.2838 280.0865 428.96173 279.14868 430.63962 278.18164C432.3175 277.21463 433.9954 276.2208 435.67328 275.1965C437.35117 274.17218 439.02905 273.11987 440.70694 272.0358C442.38483 270.9517 444.0627 269.83838 445.7406 268.6919C447.4185 267.54544 449.09637 266.3685 450.77426 265.157C452.45215 263.94553 454.13004 262.70224 455.80792 261.423C457.4858 260.1438 459.1637 258.83142 460.84158 257.48163C462.51947 256.13187 464.19736 254.74756 465.87524 253.32436C467.55313 251.90115 469.23102 250.442 470.9089 248.94241C472.5868 247.44283 474.26468 245.90584 475.94257 244.32683C477.62045 242.74783 479.29834 241.12991 480.97623 239.46838C482.6541 237.80685 484.332 236.10487 486.0099 234.3576C487.68777 232.61035 489.36566 230.82108 491.04358 228.9848C492.72147 227.14854 494.39935 225.26865 496.07724 223.34003C497.75513 221.4114 499.433 219.4375 501.1109 217.41309C502.7888 215.38866 504.46667 213.31725 506.14456 211.19351C507.82245 209.06976 509.50034 206.89728 511.17822 204.6706C512.8561 202.44392 514.534 200.16672 516.21185 197.8334C517.8898 195.50009 519.5676 193.11444 521.24554 190.6707C522.92346 188.22696 524.6013 185.72902 526.27924 183.17099C527.9571 180.61296 529.635 177.99881 531.31287 175.32253C532.9908 172.64626 534.66864 169.91188 536.34656 167.1133C538.0244 164.3147 539.70233 161.45602 541.3802 158.53098C543.0581 155.60593 544.73596 152.61874 546.4139 149.563C548.09174 146.50726 549.76965 143.3873 551.4475 140.19653C553.1254 137.00577 554.8033 133.74864 556.4812 130.41843C558.15906 127.08821 559.837 123.68944 561.51483 120.21525C563.19275 116.741066 564.8706 113.19608 566.5485 109.5733C568.2264 105.95053 569.9043 102.25467 571.58215 98.478584C573.2601 94.7025 574.9379 90.851006 576.61584 86.9168C578.2937 82.98259 579.9716 78.97059 581.6495 74.873344C583.3274 70.7761 586.68317 62.333332 586.68317 62.333332" fill-rule="nonzero"/><path fill="#000000" fill-opacity="0.0" clip-path="url(#id_0)" d="M86.31683 318.2C86.31683 319.85684 84.97369 321.2 83.31683 321.2C81.65998 321.2 80.31683 319.85684 80.31683 318.2C80.31683 316.54315 81.65998 315.2 83.31683 315.2C84.97369 315.2 86.31683 316.54315 86.31683 318.2Z" fill-rule="nonzero"/><path fill="#000000" fill-opacity="0.0" clip-path="url(#id_0)" d="M91.350494 318.2C91.350494 319.85684 90.00735 321.2 88.350494 321.2C86.69364 321.2 85.350494 319.85684 85.350494 318.2C85.350494 316.54315 86.69364 315.2 88.350494 315.2C90.00735 315.2 91.350494 316.54315 91.350494 318.2Z" fill-rule="nonzero"/><path fill="#000000" fill-opacity="0.0" clip-path="url(#id_0)" d="M96.384155 318.2C96.384155 319.85684 95.041016 321.2 93.384155 321.2C91.7273 321.2 90.384155 319.85684 90.384155 318.2C90.384155 316.54315 91.7273 315.2 93.384155 315.2C95.041016 315.2 96.384155 316.54315 96.384155 318.2Z" fill-rule="nonzero"/><path fill="#000000" fill-opacity="0.0" clip-path="url(#id_0)" d="M101.41782 318.19998C101.41782 319.85684 100.07468 321.19998 98.41782 321.19998C96.76097 321.19998 95.41782 319.85684 95.41782 318.19998C95.41782 316.54315 96.76097 315.19998 98.41782 315.19998C100.07468 315.19998 101.41782 316.54315 101.41782 318.19998Z" fill-rule="nonzero"/><path fill="#000000" fill-opacity="0.0" clip-path="url(#id_0)" d="M106.451485 318.19998C106.451485 319.85684 105.10834 321.19998 103.451485 321.19998C101.79463 321.19998 100.451485 319.85684 100.451485 318.19998C100.451485 316.54312 101.79463 315.19998 103.451485 315.19998C105.10834 315.19998 106.451485 316.54312 106.451485 318.19998Z" fill-rule="nonzero"/><path fill="#000000" fill-opacity="0.0" clip-path="url(#id_0)" d="M111.485146 318.19992C111.485146 319.85678 110.142006 321.19992 108.485146 321.19992C106.82829 321.19992 105.485146 319.85678 105.485146 318.19992C105.485146 316.54306 106.82829 315.19992 108.485146 315.19992C110.142006 315.19992 111.485146 316.54306 111.485146 318.19992Z" fill-rule="nonzero"/><path fill="#000000" fill-opacity="0.0" clip-path="url(#id_0)" d="M116.518814 318.1998C116.518814 319.85666 115.17567 321.1998 113.518814 321.1998C111.86196 321.1998 110.518814 319.85666 110.518814 318.1998C110.518814 316.54294 111.86196 315.1998 113.518814 315.1998C115.17567 315.1998 116.518814 316.54294 116.518814 318.1998Z" fill-rule="nonzero"/><path fill="#000000" fill-opacity="0.0" clip-path="url(#id_0)" d="M121.552475 318.1996C121.552475 319.8564 120.20933 321.1996 118.552475 321.1996C116.89562 321.1996 115.552475 319.8564 115.552475 318.1996C115.552475 316.54272 116.89562 315.1996 118.552475 315.1996C120.20933 315.1996 121.552475 316.54272 121.552475 318.1996Z" fill-rule="nonzero"/><path fill="#000000" fill-opacity="0.0" clip-path="url(#id_0)" d="M126.586136 318.19916C126.586136 319.85602 125.243 321.19916 123.586136 321.19916C121.92928 321.19916 120.586136 319.85602 120.586136 318.19916C120.586136 316.5423 121.92928 315.19916 123.586136 315.19916C125.243 315.19916 126.586136 316.5423 126.586136 318.19916Z" fill-rule="nonzero"/><path fill="#000000" fill-opacity="0.0" clip-path="url(#id_0)" d="M131.6198 318.1985C131.6198 319.85535 130.27666 321.1985 128.6198 321.1985C126.962944 321.1985 125.619804 319.85535 125.619804 318.1985C125.619804 316.54163 126.962944 315.1985 128.6198 315.1985C130.27666 315.1985 131.6198 316.54163 131.6198 318.1985Z" fill-rule="nonzero"/><path fill="#000000" fill-opacity="0.0" clip-path="url(#id_0)" d="M136.65347 318.19745C136.65347 319.8543 135.31032 321.19745 133.65347 321.19745C131.99661 321.19745 130.65347 319.8543 130.65347 318.19745C130.65347 316.5406 131.99661 315.19745 133.65347 315.19745C135.31032 315.19745 136.65347 316.5406 136.65347 318.19745Z" fill-rule="nonzero"/><path fill="#000000" fill-opacity="0.0" clip-path="url(#id_0)" d="M141.68713 318.1959C141.68713 319.85272 140.34398 321.1959 138.68713 321.1959C137.03027 321.1959 135.68713 319.85272 135.68713 318.1959C135.68713 316.53903 137.03027 315.1959 138.68713 315.1959C140.34398 315.1959 141.68713 316.53903 141.68713 318.1959Z" fill-rule="nonzero"/><path fill="#000000" fill-opacity="0.0" clip-path="url(#id_0)" d="M146.7208 318.19363C146.7208 319.8505 145.37764 321.19363 143.7208 321.19363C142.06393 321.19363 140.7208 319.8505 140.7208 318.19363C140.7208 316.53677 142.06393 315.19363 143.7208 315.19363C145.37764 315.19363 146.7208 316.53677 146.7208 318.19363Z" fill-rule="nonzero"/><path fill="#000000" fill-opacity="0.0" clip-path="url(#id_0)" d="M151.75446 318.1905C151.75446 319.84735 150.41132 321.1905 148.75446 321.1905C147.0976 321.1905 145.75446 319.84735 145.75446 318.1905C145.75446 316.53363 147.0976 315.1905 148.75446 315.1905C150.41132 315.1905 151.75446 316.53363 151.75446 318.1905Z" fill-rule="nonzero"/><path fill="#000000" fill-opacity="0.0" clip-path="url(#id_0)" d="M156.78812 318.18625C156.78812 319.84308 155.44498 321.18625 153.78812 321.18625C152.13127 321.18625 150.78812 319.84308 150.78812 318.18625C150.78812 316.5294 152.13127 315.18625 153.78812 315.18625C155.44498 315.18625 156.78812 316.5294 156.78812 318.18625Z" fill-rule="nonzero"/><path fill="#000000" fill-opacity="0.0" clip-path="url(#id_0)" d="M161.82178 318.18057C161.82178 319.83743 160.47864 321.18057 158.82178 321.18057C157.16493 321.18057 155.82178 319.83743 155.82178 318.18057C155.82178 316.5237 157.16493 315.18057 158.82178 315.18057C160.47864 315.18057 161.82178 316.5237 161.82178 318.18057Z" fill-rule="nonzero"/><path fill="#000000" fill-opacity="0.0" clip-path="url(#id_0)" d="M166.85544 318.17316C166.85544 319.83002 165.5123 321.17316 163.85544 321.17316C162.1986 321.17316 160.85544 319.83002 160.85544 318.17316C160.85544 316.51633 162.1986 315.17316 163.85544 315.17316C165.5123 315.17316 166.85544 316.51633 166.85544 318.17316Z" fill-rule="nonzero"/><path fill="#000000" fill-opacity="0.0" clip-path="url(#id_0)" d="M171.88911 318.16367C171.88911 319.82053 170.54596 321.16367 168.88911 321.16367C167.23225 321.16367 165.88911 319.82053 165.88911 318.16367C165.88911 316.5068 167.23225 315.16367 168.88911 315.16367C170.54596 315.16367 171.88911 316.5068 171.88911 318.16367Z" fill-rule="nonzero"/><path fill="#000000" fill-opacity="0.0" clip-path="url(#id_0)" d="M176.92278 318.15164C176.92278 319.8085 175.57962 321.15164 173.92278 321.15164C172.26591 321.15164 170.92278 319.8085 170.92278 318.15164C170.92278 316.4948 172.26591 315.15164 173.92278 315.15164C175.57962 315.15164 176.92278 316.4948 176.92278 318.15164Z" fill-rule="nonzero"/><path fill="#000000" fill-opacity="0.0" clip-path="url(#id_0)" d="M181.95644 318.13666C181.95644 319.7935 180.6133 321.13666 178.95644 321.13666C177.29958 321.13666 175.95644 319.7935 175.95644 318.13666C175.95644 316.4798 177.29958 315.13666 178.95644 315.13666C180.6133 315.13666 181.95644 316.4798 181.95644 318.13666Z" fill-rule="nonzero"/><path fill="#000000" fill-opacity="0.0" clip-path="url(#id_0)" d="M186.9901 318.11813C186.9901 319.77496 185.64696 321.11813 183.9901 321.11813C182.33325 321.11813 180.9901 319.77496 180.9901 318.11813C180.9901 316.46127 182.33325 315.11813 183.9901 315.11813C185.64696 315.11813 186.9901 316.46127 186.9901 318.11813Z" fill-rule="nonzero"/><path fill="#000000" fill-opacity="0.0" clip-path="url(#id_0)" d="M192.02376 318.0955C192.02376 319.75235 190.68062 321.0955 189.02376 321.0955C187.36691 321.0955 186.02376 319.75235 186.02376 318.0955C186.02376 316.43866 187.36691 315.0955 189.02376 315.0955C190.68062 315.0955 192.02376 316.43866 192.02376 318.0955Z" fill-rule="nonzero"/><path fill="#000000" fill-opacity="0.0" clip-path="url(#id_0)" d="M197.05742 318.06815C197.05742 319.72498 195.71428 321.06815 194.05742 321.06815C192.40057 321.06815 191.05742 319.72498 191.05742 318.06815C191.05742 316.4113 192.40057 315.06815 194.05742 315.06815C195.71428 315.06815 197.05742 316.4113 197.05742 318.06815Z" fill-rule="nonzero"/><path fill="#000000" fill-opacity="0.0" clip-path="url(#id_0)" d="M202.0911 318.0353C202.0911 319.69217 200.74794 321.0353 199.0911 321.0353C197.43423 321.0353 196.0911 319.69217 196.0911 318.0353C196.0911 316.37845 197.43423 315.0353 199.0911 315.0353C200.74794 315.0353 202.0911 316.37845 202.0911 318.0353Z" fill-rule="nonzero"/><path fill="#000000" fill-opacity="0.0" clip-path="url(#id_0)" d="M207.12476 317.99628C207.12476 319.6531 205.7816 320.99628 204.12476 320.99628C202.4679 320.99628 201.12476 319.6531 201.12476 317.99628C201.12476 316.33942 202.4679 314.99628 204.12476 314.99628C205.7816 314.99628 207.12476 316.33942 207.12476 317.99628Z" fill-rule="nonzero"/><path fill="#000000" fill-opacity="0.0" clip-path="url(#id_0)" d="M212.15842 317.95013C212.15842 319.607 210.81528 320.95013 209.15842 320.95013C207.50156 320.95013 206.15842 319.607 206.15842 317.95013C206.15842 316.29327 207.50156 314.95013 209.15842 314.95013C210.81528 314.95013 212.15842 316.29327 212.15842 317.95013Z" fill-rule="nonzero"/><path fill="#000000" fill-opacity="0.0" clip-path="url(#id_0)" d="M217.19208 317.896C217.19208 319.55286 215.84894 320.896 214.19208 320.896C212.53523 320.896 211.19208 319.55286 211.19208 317.896C211.19208 316.23914 212.53523 314.896 214.19208 314.896C215.84894 314.896 217.19208 316.23914 217.19208 317.896Z" fill-rule="nonzero"/><path fill="#000000" fill-opacity="0.0" clip-path="url(#id_0)" d="M222.22574 317.83286C222.22574 319.48972 220.8826 320.83286 219.22574 320.83286C217.5689 320.83286 216.22574 319.48972 216.22574 317.83286C216.22574 316.176 217.5689 314.83286 219.22574 314.83286C220.8826 314.83286 222.22574 316.176 222.22574 317.83286Z" fill-rule="nonzero"/><path fill="#000000" fill-opacity="0.0" clip-path="url(#id_0)" d="M227.2594 317.75964C227.2594 319.4165 225.91626 320.75964 224.2594 320.75964C222.60255 320.75964 221.2594 319.4165 221.2594 317.75964C221.2594 316.10278 222.60255 314.75964 224.2594 314.75964C225.91626 314.75964 227.2594 316.10278 227.2594 317.75964Z" fill-rule="nonzero"/><path fill="#000000" fill-opacity="0.0" clip-path="url(#id_0)" d="M232.29308 317.6752C232.29308 319.33203 230.94992 320.6752 229.29308 320.6752C227.63622 320.6752 226.29308 319.33203 226.29308 317.6752C226.29308 316.01834 227.63622 314.6752 229.29308 314.6752C230.94992 314.6752 232.29308 316.01834 232.29308 317.6752Z" fill-rule="nonzero"/><path fill="#000000" fill-opacity="0.0" clip-path="url(#id_0)" d="M237.32674 317.57825C237.32674 319.2351 235.98358 320.57825 234.32674 320.57825C232.66988 320.57825 231.32674 319.2351 231.32674 317.57825C231.32674 315.9214 232.66988 314.57825 234.32674 314.57825C235.98358 314.57825 237.32674 315.9214 237.32674 317.57825Z" fill-rule="nonzero"/><path fill="#000000" fill-opacity="0.0" clip-path="url(#id_0)" d="M242.3604 317.46747C242.3604 319.12433 241.01726 320.46747 239.3604 320.46747C237.70354 320.46747 236.3604 319.12433 236.3604 317.46747C236.3604 315.8106 237.70354 314.46747 239.3604 314.46747C241.01726 314.46747 242.3604 315.8106 242.3604 317.46747Z" fill-rule="nonzero"/><path fill="#000000" fill-opacity="0.0" clip-path="url(#id_0)" d="M247.39406 317.34146C247.39406 318.99832 246.05092 320.34146 244.39406 320.34146C242.7372 320.34146 241.39406 318.99832 241.39406 317.34146C241.39406 315.6846 242.7372 314.34146 244.39406 314.34146C246.05092 314.34146 247.39406 315.6846 247.39406 317.34146Z" fill-rule="nonzero"/><path fill="#000000" fill-opacity="0.0" clip-path="url(#id_0)" d="M252.42772 317.19867C252.42772 318.8555 251.08458 320.19867 249.42772 320.19867C247.77087 320.19867 246.42772 318.8555 246.42772 317.19867C246.42772 315.5418 247.77087 314.19867 249.42772 314.19867C251.08458 314.19867 252.42772 315.5418 252.42772 317.19867Z" fill-rule="nonzero"/><path fill="#000000" fill-opacity="0.0" clip-path="url(#id_0)" d="M257.4614 317.03745C257.4614 318.6943 256.11826 320.03745 254.46138 320.03745C252.80453 320.03745 251.46138 318.6943 251.46138 317.03745C251.46138 315.3806 252.80453 314.03745 254.46138 314.03745C256.11826 314.03745 257.4614 315.3806 257.4614 317.03745Z" fill-rule="nonzero"/><path fill="#000000" fill-opacity="0.0" clip-path="url(#id_0)" d="M262.49506 316.85614C262.49506 318.513 261.15192 319.85614 259.49506 319.85614C257.8382 319.85614 256.49506 318.513 256.49506 316.85614C256.49506 315.19928 257.8382 313.85614 259.49506 313.85614C261.15192 313.85614 262.49506 315.19928 262.49506 316.85614Z" fill-rule="nonzero"/><path fill="#000000" fill-opacity="0.0" clip-path="url(#id_0)" d="M267.52872 316.65286C267.52872 318.30972 266.18558 319.65286 264.52872 319.65286C262.87186 319.65286 261.52872 318.30972 261.52872 316.65286C261.52872 314.99603 262.87186 313.65286 264.52872 313.65286C266.18558 313.65286 267.52872 314.99603 267.52872 316.65286Z" fill-rule="nonzero"/><path fill="#000000" fill-opacity="0.0" clip-path="url(#id_0)" d="M272.56238 316.42572C272.56238 318.08258 271.21924 319.42572 269.56238 319.42572C267.90552 319.42572 266.56238 318.08258 266.56238 316.42572C266.56238 314.76886 267.90552 313.42572 269.56238 313.42572C271.21924 313.42572 272.56238 314.76886 272.56238 316.42572Z" fill-rule="nonzero"/><path fill="#000000" fill-opacity="0.0" clip-path="url(#id_0)" d="M277.59604 316.17264C277.59604 317.8295 276.2529 319.17264 274.59604 319.17264C272.93918 319.17264 271.59604 317.8295 271.59604 316.17264C271.59604 314.51578 272.93918 313.17264 274.59604 313.17264C276.2529 313.17264 277.59604 314.51578 277.59604 316.17264Z" fill-rule="nonzero"/><path fill="#000000" fill-opacity="0.0" clip-path="url(#id_0)" d="M282.6297 315.89145C282.6297 317.5483 281.28656 318.89145 279.6297 318.89145C277.97284 318.89145 276.6297 317.5483 276.6297 315.89145C276.6297 314.23462 277.97284 312.89145 279.6297 312.89145C281.28656 312.89145 282.6297 314.23462 282.6297 315.89145Z" fill-rule="nonzero"/><path fill="#000000" fill-opacity="0.0" clip-path="url(#id_0)" d="M287.66336 315.57993C287.66336 317.2368 286.32022 318.57993 284.66336 318.57993C283.0065 318.57993 281.66336 317.2368 281.66336 315.57993C281.66336 313.92307 283.0065 312.57993 284.66336 312.57993C286.32022 312.57993 287.66336 313.92307 287.66336 315.57993Z" fill-rule="nonzero"/><path fill="#000000" fill-opacity="0.0" clip-path="url(#id_0)" d="M292.69702 315.23563C292.69702 316.8925 291.35388 318.23563 289.69702 318.23563C288.04016 318.23563 286.69702 316.8925 286.69702 315.23563C286.69702 313.57877 288.04016 312.23563 289.69702 312.23563C291.35388 312.23563 292.69702 313.57877 292.69702 315.23563Z" fill-rule="nonzero"/><path fill="#000000" fill-opacity="0.0" clip-path="url(#id_0)" d="M297.73068 314.85605C297.73068 316.5129 296.38754 317.85605 294.73068 317.85605C293.07385 317.85605 291.73068 316.5129 291.73068 314.85605C291.73068 313.1992 293.07385 311.85605 294.73068 311.85605C296.38754 311.85605 297.73068 313.1992 297.73068 314.85605Z" fill-rule="nonzero"/><path fill="#000000" fill-opacity="0.0" clip-path="url(#id_0)" d="M302.76434 314.43854C302.76434 316.0954 301.4212 317.43854 299.76434 317.43854C298.1075 317.43854 296.76434 316.0954 296.76434 314.43854C296.76434 312.78168 298.1075 311.43854 299.76434 311.43854C301.4212 311.43854 302.76434 312.78168 302.76434 314.43854Z" fill-rule="nonzero"/><path fill="#000000" fill-opacity="0.0" clip-path="url(#id_0)" d="M307.79803 313.98035C307.79803 315.6372 306.45486 316.98035 304.79803 316.98035C303.14117 316.98035 301.79803 315.6372 301.79803 313.98035C301.79803 312.3235 303.14117 310.98035 304.79803 310.98035C306.45486 310.98035 307.79803 312.3235 307.79803 313.98035Z" fill-rule="nonzero"/><path fill="#000000" fill-opacity="0.0" clip-path="url(#id_0)" d="M312.8317 313.47855C312.8317 315.1354 311.48853 316.47855 309.8317 316.47855C308.17484 316.47855 306.8317 315.1354 306.8317 313.47855C306.8317 311.8217 308.17484 310.47855 309.8317 310.47855C311.48853 310.47855 312.8317 311.8217 312.8317 313.47855Z" fill-rule="nonzero"/><path fill="#000000" fill-opacity="0.0" clip-path="url(#id_0)" d="M317.86536 312.93008C317.86536 314.58694 316.5222 315.93008 314.86536 315.93008C313.2085 315.93008 311.86536 314.58694 311.86536 312.93008C311.86536 311.27325 313.2085 309.93008 314.86536 309.93008C316.5222 309.93008 317.86536 311.27325 317.86536 312.93008Z" fill-rule="nonzero"/><path fill="#000000" fill-opacity="0.0" clip-path="url(#id_0)" d="M322.89902 312.33182C322.89902 313.98868 321.55588 315.33182 319.89902 315.33182C318.24216 315.33182 316.89902 313.98868 316.89902 312.33182C316.89902 310.67496 318.24216 309.33182 319.89902 309.33182C321.55588 309.33182 322.89902 310.67496 322.89902 312.33182Z" fill-rule="nonzero"/><path fill="#000000" fill-opacity="0.0" clip-path="url(#id_0)" d="M327.93268 311.68042C327.93268 313.33728 326.58954 314.68042 324.93268 314.68042C323.27582 314.68042 321.93268 313.33728 321.93268 311.68042C321.93268 310.02356 323.27582 308.68042 324.93268 308.68042C326.58954 308.68042 327.93268 310.02356 327.93268 311.68042Z" fill-rule="nonzero"/><path fill="#000000" fill-opacity="0.0" clip-path="url(#id_0)" d="M332.96634 310.9724C332.96634 312.62924 331.6232 313.9724 329.96634 313.9724C328.30948 313.9724 326.96634 312.62924 326.96634 310.9724C326.96634 309.31555 328.30948 307.9724 329.96634 307.9724C331.6232 307.9724 332.96634 309.31555 332.96634 310.9724Z" fill-rule="nonzero"/><path fill="#000000" fill-opacity="0.0" clip-path="url(#id_0)" d="M338.0 310.20416C338.0 311.86102 336.65686 313.20416 335.0 313.20416C333.34314 313.20416 332.0 311.86102 332.0 310.20416C332.0 308.5473 333.34314 307.20416 335.0 307.20416C336.65686 307.20416 338.0 308.5473 338.0 310.20416Z" fill-rule="nonzero"/><path fill="#000000" fill-opacity="0.0" clip-path="url(#id_0)" d="M343.03366 309.37195C343.03366 311.0288 341.69052 312.37195 340.03366 312.37195C338.3768 312.37195 337.03366 311.0288 337.03366 309.37195C337.03366 307.7151 338.3768 306.37195 340.03366 306.37195C341.69052 306.37195 343.03366 307.7151 343.03366 309.37195Z" fill-rule="nonzero"/><path fill="#000000" fill-opacity="0.0" clip-path="url(#id_0)" d="M348.06732 308.47183C348.06732 310.1287 346.72418 311.47183 345.06732 311.47183C343.41046 311.47183 342.06732 310.1287 342.06732 308.47183C342.06732 306.815 343.41046 305.47183 345.06732 305.47183C346.72418 305.47183 348.06732 306.815 348.06732 308.47183Z" fill-rule="nonzero"/><path fill="#000000" fill-opacity="0.0" clip-path="url(#id_0)" d="M353.10098 307.4998C353.10098 309.15662 351.75784 310.4998 350.10098 310.4998C348.44412 310.4998 347.10098 309.15662 347.10098 307.4998C347.10098 305.84293 348.44412 304.4998 350.10098 304.4998C351.75784 304.4998 353.10098 305.84293 353.10098 307.4998Z" fill-rule="nonzero"/><path fill="#000000" fill-opacity="0.0" clip-path="url(#id_0)" d="M358.13464 306.4515C358.13464 308.10834 356.7915 309.4515 355.13464 309.4515C353.4778 309.4515 352.13464 308.10834 352.13464 306.4515C352.13464 304.79465 353.4778 303.4515 355.13464 303.4515C356.7915 303.4515 358.13464 304.79465 358.13464 306.4515Z" fill-rule="nonzero"/><path fill="#000000" fill-opacity="0.0" clip-path="url(#id_0)" d="M363.1683 305.32263C363.1683 306.9795 361.82516 308.32263 360.1683 308.32263C358.51147 308.32263 357.1683 306.9795 357.1683 305.32263C357.1683 303.66577 358.51147 302.32263 360.1683 302.32263C361.82516 302.32263 363.1683 303.66577 363.1683 305.32263Z" fill-rule="nonzero"/><path fill="#000000" fill-opacity="0.0" clip-path="url(#id_0)" d="M368.20197 304.1086C368.20197 305.76547 366.85883 307.1086 365.20197 307.1086C363.54514 307.1086 362.20197 305.76547 362.20197 304.1086C362.20197 302.45175 363.54514 301.1086 365.20197 301.1086C366.85883 301.1086 368.20197 302.45175 368.20197 304.1086Z" fill-rule="nonzero"/><path fill="#000000" fill-opacity="0.0" clip-path="url(#id_0)" d="M373.23566 302.80472C373.23566 304.46155 371.8925 305.80472 370.23566 305.80472C368.5788 305.80472 367.23566 304.46155 367.23566 302.80472C367.23566 301.14786 368.5788 299.80472 370.23566 299.80472C371.8925 299.80472 373.23566 301.14786 373.23566 302.80472Z" fill-rule="nonzero"/><path fill="#000000" fill-opacity="0.0" clip-path="url(#id_0)" d="M378.26932 301.406C378.26932 303.06287 376.92615 304.406 375.26932 304.406C373.61246 304.406 372.26932 303.06287 372.26932 301.406C372.26932 299.74918 373.61246 298.406 375.26932 298.406C376.92615 298.406 378.26932 299.74918 378.26932 301.406Z" fill-rule="nonzero"/><path fill="#000000" fill-opacity="0.0" clip-path="url(#id_0)" d="M383.30298 299.90747C383.30298 301.56433 381.95984 302.90747 380.30298 302.90747C378.64612 302.90747 377.30298 301.56433 377.30298 299.90747C377.30298 298.2506 378.64612 296.90747 380.30298 296.90747C381.95984 296.90747 383.30298 298.2506 383.30298 299.90747Z" fill-rule="nonzero"/><path fill="#000000" fill-opacity="0.0" clip-path="url(#id_0)" d="M388.33664 298.3038C388.33664 299.96066 386.9935 301.3038 385.33664 301.3038C383.67978 301.3038 382.33664 299.96066 382.33664 298.3038C382.33664 296.64694 383.67978 295.3038 385.33664 295.3038C386.9935 295.3038 388.33664 296.64694 388.33664 298.3038Z" fill-rule="nonzero"/><path fill="#000000" fill-opacity="0.0" clip-path="url(#id_0)" d="M393.3703 296.5896C393.3703 298.24646 392.02716 299.5896 390.3703 299.5896C388.71344 299.5896 387.3703 298.24646 387.3703 296.5896C387.3703 294.93274 388.71344 293.5896 390.3703 293.5896C392.02716 293.5896 393.3703 294.93274 393.3703 296.5896Z" fill-rule="nonzero"/><path fill="#000000" fill-opacity="0.0" clip-path="url(#id_0)" d="M398.40396 294.75922C398.40396 296.41608 397.06082 297.75922 395.40396 297.75922C393.7471 297.75922 392.40396 296.41608 392.40396 294.75922C392.40396 293.10236 393.7471 291.75922 395.40396 291.75922C397.06082 291.75922 398.40396 293.10236 398.40396 294.75922Z" fill-rule="nonzero"/><path fill="#000000" fill-opacity="0.0" clip-path="url(#id_0)" d="M403.43762 292.80685C403.43762 294.4637 402.09448 295.80685 400.43762 295.80685C398.78076 295.80685 397.43762 294.4637 397.43762 292.80685C397.43762 291.15 398.78076 289.80685 400.43762 289.80685C402.09448 289.80685 403.43762 291.15 403.43762 292.80685Z" fill-rule="nonzero"/><path fill="#000000" fill-opacity="0.0" clip-path="url(#id_0)" d="M408.47128 290.72653C408.47128 292.3834 407.12814 293.72653 405.47128 293.72653C403.81442 293.72653 402.47128 292.3834 402.47128 290.72653C402.47128 289.06967 403.81442 287.72653 405.47128 287.72653C407.12814 287.72653 408.47128 289.06967 408.47128 290.72653Z" fill-rule="nonzero"/><path fill="#000000" fill-opacity="0.0" clip-path="url(#id_0)" d="M413.50494 288.51202C413.50494 290.16888 412.1618 291.51202 410.50494 291.51202C408.84808 291.51202 407.50494 290.16888 407.50494 288.51202C407.50494 286.85516 408.84808 285.51202 410.50494 285.51202C412.1618 285.51202 413.50494 286.85516 413.50494 288.51202Z" fill-rule="nonzero"/><path fill="#000000" fill-opacity="0.0" clip-path="url(#id_0)" d="M418.5386 286.15698C418.5386 287.81384 417.19547 289.15698 415.5386 289.15698C413.88174 289.15698 412.5386 287.81384 412.5386 286.15698C412.5386 284.50012 413.88174 283.15698 415.5386 283.15698C417.19547 283.15698 418.5386 284.50012 418.5386 286.15698Z" fill-rule="nonzero"/><path fill="#000000" fill-opacity="0.0" clip-path="url(#id_0)" d="M423.57227 283.6548C423.57227 285.31165 422.22913 286.6548 420.57227 286.6548C418.91544 286.6548 417.57227 285.31165 417.57227 283.6548C417.57227 281.99796 418.91544 280.6548 420.57227 280.6548C422.22913 280.6548 423.57227 281.99796 423.57227 283.6548Z" fill-rule="nonzero"/><path fill="#000000" fill-opacity="0.0" clip-path="url(#id_0)" d="M428.60593 280.9987C428.60593 282.65555 427.2628 283.9987 425.60593 283.9987C423.9491 283.9987 422.60593 282.65555 422.60593 280.9987C422.60593 279.34183 423.9491 277.9987 425.60593 277.9987C427.2628 277.9987 428.60593 279.34183 428.60593 280.9987Z" fill-rule="nonzero"/><path fill="#000000" fill-opacity="0.0" clip-path="url(#id_0)" d="M433.63962 278.18164C433.63962 279.8385 432.29645 281.18164 430.63962 281.18164C428.98276 281.18164 427.63962 279.8385 427.63962 278.18164C427.63962 276.5248 428.98276 275.18164 430.63962 275.18164C432.29645 275.18164 433.63962 276.5248 433.63962 278.18164Z" fill-rule="nonzero"/><path fill="#000000" fill-opacity="0.0" clip-path="url(#id_0)" d="M438.67328 275.1965C438.67328 276.85333 437.3301 278.1965 435.67328 278.1965C434.01642 278.1965 432.67328 276.85333 432.67328 275.1965C432.67328 273.53964 434.01642 272.1965 435.67328 272.1965C437.3301 272.1965 438.67328 273.53964 438.67328 275.1965Z" fill-rule="nonzero"/><path fill="#000000" fill-opacity="0.0" clip-path="url(#id_0)" d="M443.70694 272.0358C443.70694 273.69263 442.3638 275.0358 440.70694 275.0358C439.05008 275.0358 437.70694 273.69263 437.70694 272.0358C437.70694 270.37894 439.05008 269.0358 440.70694 269.0358C442.3638 269.0358 443.70694 270.37894 443.70694 272.0358Z" fill-rule="nonzero"/><path fill="#000000" fill-opacity="0.0" clip-path="url(#id_0)" d="M448.7406 268.6919C448.7406 270.34875 447.39746 271.6919 445.7406 271.6919C444.08374 271.6919 442.7406 270.34875 442.7406 268.6919C442.7406 267.03506 444.08374 265.6919 445.7406 265.6919C447.39746 265.6919 448.7406 267.03506 448.7406 268.6919Z" fill-rule="nonzero"/><path fill="#000000" fill-opacity="0.0" clip-path="url(#id_0)" d="M453.77426 265.157C453.77426 266.81387 452.43112 268.157 450.77426 268.157C449.1174 268.157 447.77426 266.81387 447.77426 265.157C447.77426 263.50015 449.1174 262.157 450.77426 262.157C452.43112 262.157 453.77426 263.50015 453.77426 265.157Z" fill-rule="nonzero"/><path fill="#000000" fill-opacity="0.0" clip-path="url(#id_0)" d="M458.80792 261.423C458.80792 263.07986 457.46478 264.423 455.80792 264.423C454.15106 264.423 452.80792 263.07986 452.80792 261.423C452.80792 259.76617 454.15106 258.423 455.80792 258.423C457.46478 258.423 458.80792 259.76617 458.80792 261.423Z" fill-rule="nonzero"/><path fill="#000000" fill-opacity="0.0" clip-path="url(#id_0)" d="M463.84158 257.48163C463.84158 259.1385 462.49844 260.48163 460.84158 260.48163C459.18472 260.48163 457.84158 259.1385 457.84158 257.48163C457.84158 255.82478 459.18472 254.48164 460.84158 254.48164C462.49844 254.48164 463.84158 255.82478 463.84158 257.48163Z" fill-rule="nonzero"/><path fill="#000000" fill-opacity="0.0" clip-path="url(#id_0)" d="M468.87524 253.32436C468.87524 254.98122 467.5321 256.32437 465.87524 256.32437C464.21838 256.32437 462.87524 254.98122 462.87524 253.32436C462.87524 251.6675 464.21838 250.32436 465.87524 250.32436C467.5321 250.32436 468.87524 251.6675 468.87524 253.32436Z" fill-rule="nonzero"/><path fill="#000000" fill-opacity="0.0" clip-path="url(#id_0)" d="M473.9089 248.94241C473.9089 250.59927 472.56577 251.94241 470.9089 251.94241C469.25204 251.94241 467.9089 250.59927 467.9089 248.94241C467.9089 247.28557 469.25204 245.94241 470.9089 245.94241C472.56577 245.94241 473.9089 247.28557 473.9089 248.94241Z" fill-rule="nonzero"/><path fill="#000000" fill-opacity="0.0" clip-path="url(#id_0)" d="M478.94257 244.32683C478.94257 245.98369 477.59943 247.32683 475.94257 247.32683C474.2857 247.32683 472.94257 245.98369 472.94257 244.32683C472.94257 242.66998 474.2857 241.32683 475.94257 241.32683C477.59943 241.32683 478.94257 242.66998 478.94257 244.32683Z" fill-rule="nonzero"/><path fill="#000000" fill-opacity="0.0" clip-path="url(#id_0)" d="M483.97623 239.46838C483.97623 241.12524 482.6331 242.46838 480.97623 242.46838C479.3194 242.46838 477.97623 241.12524 477.97623 239.46838C477.97623 237.81152 479.3194 236.46838 480.97623 236.46838C482.6331 236.46838 483.97623 237.81152 483.97623 239.46838Z" fill-rule="nonzero"/><path fill="#000000" fill-opacity="0.0" clip-path="url(#id_0)" d="M489.0099 234.3576C489.0099 236.01447 487.66675 237.3576 486.0099 237.3576C484.35306 237.3576 483.0099 236.01447 483.0099 234.3576C483.0099 232.70076 484.35306 231.3576 486.0099 231.3576C487.66675 231.3576 489.0099 232.70076 489.0099 234.3576Z" fill-rule="nonzero"/><path fill="#000000" fill-opacity="0.0" clip-path="url(#id_0)" d="M494.04358 228.9848C494.04358 230.64166 492.7004 231.9848 491.04358 231.9848C489.38672 231.9848 488.04358 230.64166 488.04358 228.9848C488.04358 227.32796 489.38672 225.9848 491.04358 225.9848C492.7004 225.9848 494.04358 227.32796 494.04358 228.9848Z" fill-rule="nonzero"/><path fill="#000000" fill-opacity="0.0" clip-path="url(#id_0)" d="M499.07724 223.34003C499.07724 224.99689 497.73407 226.34003 496.07724 226.34003C494.42038 226.34003 493.07724 224.99689 493.07724 223.34003C493.07724 221.68318 494.42038 220.34003 496.07724 220.34003C497.73407 220.34003 499.07724 221.68318 499.07724 223.34003Z" fill-rule="nonzero"/><path fill="#000000" fill-opacity="0.0" clip-path="url(#id_0)" d="M504.1109 217.41309C504.1109 219.06993 502.76773 220.41309 501.1109 220.41309C499.45404 220.41309 498.1109 219.06993 498.1109 217.41309C498.1109 215.75623 499.45404 214.41309 501.1109 214.41309C502.76773 214.41309 504.1109 215.75623 504.1109 217.41309Z" fill-rule="nonzero"/><path fill="#000000" fill-opacity="0.0" clip-path="url(#id_0)" d="M509.14456 211.19351C509.14456 212.85036 507.80142 214.19351 506.14456 214.19351C504.4877 214.19351 503.14456 212.85036 503.14456 211.19351C503.14456 209.53665 504.4877 208.19351 506.14456 208.19351C507.80142 208.19351 509.14456 209.53665 509.14456 211.19351Z" fill-rule="nonzero"/><path fill="#000000" fill-opacity="0.0" clip-path="url(#id_0)" d="M514.1782 204.6706C514.1782 206.32745 512.8351 207.6706 511.17822 207.6706C509.52136 207.6706 508.17822 206.32745 508.17822 204.6706C508.17822 203.01375 509.52136 201.6706 511.17822 201.6706C512.8351 201.6706 514.1782 203.01375 514.1782 204.6706Z" fill-rule="nonzero"/><path fill="#000000" fill-opacity="0.0" clip-path="url(#id_0)" d="M519.21185 197.8334C519.21185 199.49026 517.8687 200.8334 516.21185 200.8334C514.55505 200.8334 513.21185 199.49026 513.21185 197.8334C513.21185 196.17656 514.55505 194.8334 516.21185 194.8334C517.8687 194.8334 519.21185 196.17656 519.21185 197.8334Z" fill-rule="nonzero"/><path fill="#000000" fill-opacity="0.0" clip-path="url(#id_0)" d="M524.24554 190.6707C524.24554 192.32756 522.9024 193.6707 521.24554 193.6707C519.5887 193.6707 518.24554 192.32756 518.24554 190.6707C518.24554 189.01384 519.5887 187.6707 521.24554 187.6707C522.9024 187.6707 524.24554 189.01384 524.24554 190.6707Z" fill-rule="nonzero"/><path fill="#000000" fill-opacity="0.0" clip-path="url(#id_0)" d="M529.27924 183.17099C529.27924 184.82785 527.93604 186.17099 526.27924 186.17099C524.6224 186.17099 523.27924 184.82785 523.27924 183.17099C523.27924 181.51414 524.6224 180.17099 526.27924 180.17099C527.93604 180.17099 529.27924 181.51414 529.27924 183.17099Z" fill-rule="nonzero"/><path fill="#000000" fill-opacity="0.0" clip-path="url(#id_0)" d="M534.31287 175.32253C534.31287 176.97939 532.9697 178.32253 531.31287 178.32253C529.656 178.32253 528.31287 176.97939 528.31287 175.32253C528.31287 173.66568 529.656 172.32253 531.31287 172.32253C532.9697 172.32253 534.31287 173.66568 534.31287 175.32253Z" fill-rule="nonzero"/><path fill="#000000" fill-opacity="0.0" clip-path="url(#id_0)" d="M539.34656 167.1133C539.34656 168.77014 538.0034 170.1133 536.34656 170.1133C534.6897 170.1133 533.34656 168.77014 533.34656 167.1133C533.34656 165.45644 534.6897 164.1133 536.34656 164.1133C538.0034 164.1133 539.34656 165.45644 539.34656 167.1133Z" fill-rule="nonzero"/><path fill="#000000" fill-opacity="0.0" clip-path="url(#id_0)" d="M544.3802 158.53098C544.3802 160.18784 543.03705 161.53098 541.3802 161.53098C539.7233 161.53098 538.3802 160.18784 538.3802 158.53098C538.3802 156.87411 539.7233 155.53098 541.3802 155.53098C543.03705 155.53098 544.3802 156.87411 544.3802 158.53098Z" fill-rule="nonzero"/><path fill="#000000" fill-opacity="0.0" clip-path="url(#id_0)" d="M549.4139 149.563C549.4139 151.21986 548.07074 152.563 546.4139 152.563C544.757 152.563 543.4139 151.21986 543.4139 149.563C543.4139 147.90616 544.757 146.563 546.4139 146.563C548.07074 146.563 549.4139 147.90616 549.4139 149.563Z" fill-rule="nonzero"/><path fill="#000000" fill-opacity="0.0" clip-path="url(#id_0)" d="M554.4475 140.19653C554.4475 141.8534 553.1044 143.19653 551.4475 143.19653C549.79065 143.19653 548.4475 141.8534 548.4475 140.19653C548.4475 138.53969 549.79065 137.19653 551.4475 137.19653C553.1044 137.19653 554.4475 138.53969 554.4475 140.19653Z" fill-rule="nonzero"/><path fill="#000000" fill-opacity="0.0" clip-path="url(#id_0)" d="M559.4812 130.41843C559.4812 132.07527 558.13806 133.41843 556.4812 133.41843C554.82434 133.41843 553.4812 132.07527 553.4812 130.41843C553.4812 128.76157 554.82434 127.41843 556.4812 127.41843C558.13806 127.41843 559.4812 128.76157 559.4812 130.41843Z" fill-rule="nonzero"/><path fill="#000000" fill-opacity="0.0" clip-path="url(#id_0)" d="M564.51483 120.21525C564.51483 121.87211 563.1717 123.21525 561.51483 123.21525C559.858 123.21525 558.51483 121.87211 558.51483 120.21525C558.51483 118.558395 559.858 117.21525 561.51483 117.21525C563.1717 117.21525 564.51483 118.558395 564.51483 120.21525Z" fill-rule="nonzero"/><path fill="#000000" fill-opacity="0.0" clip-path="url(#id_0)" d="M569.5485 109.5733C569.5485 111.23016 568.2054 112.5733 566.5485 112.5733C564.89166 112.5733 563.5485 111.23016 563.5485 109.5733C563.5485 107.91645 564.89166 106.5733 566.5485 106.5733C568.2054 106.5733 569.5485 107.91645 569.5485 109.5733Z" fill-rule="nonzero"/><path fill="#000000" fill-opacity="0.0" clip-path="url(#id_0)" d="M574.58215 98.478584C574.58215 100.135445 573.239 101.478584 571.58215 101.478584C569.92535 101.478584 568.58215 100.135445 568.58215 98.478584C568.58215 96.82173 569.92535 95.478584 571.58215 95.478584C573.239 95.478584 574.58215 96.82173 574.58215 98.478584Z" fill-rule="nonzero"/><path fill="#000000" fill-opacity="0.0" clip-path="url(#id_0)" d="M579.61584 86.9168C579.61584 88.573654 578.2727 89.9168 576.61584 89.9168C574.959 89.9168 573.61584 88.573654 573.61584 86.9168C573.61584 85.25994 574.959 83.9168 576.61584 83.9168C578.2727 83.9168 579.61584 85.25994 579.61584 86.9168Z" fill-rule="nonzero"/><path fill="#000000" fill-opacity="0.0" clip-path="url(#id_0)" d="M584.6495 74.873344C584.6495 76.5302 583.30634 77.873344 581.6495 77.873344C579.9927 77.873344 578.6495 76.5302 578.6495 74.873344C578.6495 73.21649 579.9927 71.873344 581.6495 71.873344C583.30634 71.873344 584.6495 73.21649 584.6495 74.873344Z" fill-rule="nonzero"/><path fill="#000000" fill-opacity="0.0" clip-path="url(#id_0)" d="M589.68317 62.333332C589.68317 63.99019 588.34 65.333336 586.68317 65.333336C585.0263 65.333336 583.68317 63.99019 583.68317 62.333332C583.68317 60.67648 585.0263 59.333332 586.68317 59.333332C588.34 59.333332 589.68317 60.67648 589.68317 62.333332Z" fill-rule="nonzero"/><path fill="#000000" d="M336.59375 353.2625L336.75 354.1844Q336.29688 354.27814 335.95312 354.27814Q335.375 354.27814 335.0625 354.10626Q334.75 353.91876 334.60938 353.6219Q334.48438 353.325 334.48438 352.3719L334.48438 348.79376L333.71875 348.79376L333.71875 347.98126L334.48438 347.98126L334.48438 346.4344L335.53125 345.8094L335.53125 347.98126L336.59375 347.98126L336.59375 348.79376L335.53125 348.79376L335.53125 352.4344Q335.53125 352.8875 335.57812 353.0125Q335.64062 353.1375 335.76562 353.21564Q335.89062 353.29376 336.125 353.29376Q336.3125 353.29376 336.59375 353.2625Z" fill-rule="nonzero"/><path fill="#000000" d="M29.800013 192.67291L26.565638 190.40729L23.581263 192.50104L23.581263 191.18854L25.034388 190.23541Q25.456263 189.96979 25.737513 189.79791Q25.346888 189.54791 25.050013 189.32916L23.581263 188.28229L23.581263 187.01666L26.503138 189.17291L29.800013 186.86041L29.800013 188.14166L27.862513 189.42291L27.346888 189.76666L29.800013 191.40729L29.800013 192.67291Z" fill-rule="nonzero"/><path fill="#000000" d="M51.3 317.96564Q51.3 316.4344 51.6125 315.5125Q51.925 314.575 52.534374 314.075Q53.159374 313.575 54.096874 313.575Q54.784374 313.575 55.3 313.85626Q55.83125 314.1375 56.175 314.66876Q56.51875 315.1844 56.70625 315.9344Q56.89375 316.6844 56.89375 317.96564Q56.89375 319.48126 56.58125 320.40314Q56.284374 321.325 55.659374 321.84064Q55.05 322.34064 54.096874 322.34064Q52.8625 322.34064 52.14375 321.45Q51.3 320.3875 51.3 317.96564ZM52.378124 317.96564Q52.378124 320.075 52.878124 320.77814Q53.378124 321.48126 54.096874 321.48126Q54.83125 321.48126 55.315624 320.77814Q55.815624 320.075 55.815624 317.96564Q55.815624 315.84064 55.315624 315.15314Q54.83125 314.45 54.08125 314.45Q53.3625 314.45 52.925 315.0594Q52.378124 315.84064 52.378124 317.96564ZM58.89375 322.2L58.89375 320.9969L60.096874 320.9969L60.096874 322.2L58.89375 322.2ZM61.3 317.96564Q61.3 316.4344 61.6125 315.5125Q61.925 314.575 62.534374 314.075Q63.159374 313.575 64.09688 313.575Q64.78438 313.575 65.3 313.85626Q65.83125 314.1375 66.175 314.66876Q66.51875 315.1844 66.70625 315.9344Q66.89375 316.6844 66.89375 317.96564Q66.89375 319.48126 66.58125 320.40314Q66.28438 321.325 65.65938 321.84064Q65.05 322.34064 64.09688 322.34064Q62.8625 322.34064 62.14375 321.45Q61.3 320.3875 61.3 317.96564ZM62.378124 317.96564Q62.378124 320.075 62.878124 320.77814Q63.378124 321.48126 64.09688 321.48126Q64.83125 321.48126 65.31563 320.77814Q65.81563 320.075 65.81563 317.96564Q65.81563 315.84064 65.31563 315.15314Q64.83125 314.45 64.08125 314.45Q63.3625 314.45 62.925 315.0594Q62.378124 315.84064 62.378124 317.96564ZM68.3 317.96564Q68.3 316.4344 68.6125 315.5125Q68.925 314.575 69.53438 314.075Q70.15938 313.575 71.09688 313.575Q71.78438 313.575 72.3 313.85626Q72.83125 314.1375 73.175 314.66876Q73.51875 315.1844 73.70625 315.9344Q73.89375 316.6844 73.89375 317.96564Q73.89375 319.48126 73.58125 320.40314Q73.28438 321.325 72.65938 321.84064Q72.05 322.34064 71.09688 322.34064Q69.8625 322.34064 69.14375 321.45Q68.3 320.3875 68.3 317.96564ZM69.37813 317.96564Q69.37813 320.075 69.87813 320.77814Q70.37813 321.48126 71.09688 321.48126Q71.83125 321.48126 72.31563 320.77814Q72.81563 320.075 72.81563 317.96564Q72.81563 315.84064 72.31563 315.15314Q71.83125 314.45 71.08125 314.45Q70.3625 314.45 69.925 315.0594Q69.37813 315.84064 69.37813 317.96564Z" fill-rule="nonzero"/><path fill="#000000" d="M51.3 253.99896Q51.3 252.46771 51.6125 251.54584Q51.925 250.60834 52.534374 250.10834Q53.159374 249.60834 54.096874 249.60834Q54.784374 249.60834 55.3 249.88959Q55.83125 250.17084 56.175 250.70209Q56.51875 251.21771 56.70625 251.96771Q56.89375 252.71771 56.89375 253.99896Q56.89375 255.51459 56.58125 256.43646Q56.284374 257.35834 55.659374 257.87396Q55.05 258.37396 54.096874 258.37396Q52.8625 258.37396 52.14375 257.48334Q51.3 256.42084 51.3 253.99896ZM52.378124 253.99896Q52.378124 256.10834 52.878124 256.81146Q53.378124 257.5146 54.096874 257.5146Q54.83125 257.5146 55.315624 256.81146Q55.815624 256.10834 55.815624 253.99896Q55.815624 251.87396 55.315624 251.18646Q54.83125 250.48334 54.08125 250.48334Q53.3625 250.48334 52.925 251.09271Q52.378124 251.87396 52.378124 253.99896ZM58.89375 258.23334L58.89375 257.0302L60.096874 257.0302L60.096874 258.23334L58.89375 258.23334ZM66.84688 257.2177L66.84688 258.23334L61.159374 258.23334Q61.159374 257.85834 61.284374 257.49896Q61.503124 256.92084 61.971874 256.35834Q62.45625 255.79584 63.3625 255.06146Q64.76875 253.90521 65.25313 253.23334Q65.75313 252.56146 65.75313 251.96771Q65.75313 251.34271 65.3 250.92084Q64.84688 250.48334 64.12813 250.48334Q63.3625 250.48334 62.909374 250.93646Q62.45625 251.38959 62.440624 252.20209L61.3625 252.09271Q61.471874 250.87396 62.190624 250.24896Q62.925 249.60834 64.15938 249.60834Q65.39375 249.60834 66.1125 250.29584Q66.83125 250.98334 66.83125 251.99896Q66.83125 252.51459 66.6125 253.01459Q66.40938 253.49896 65.90938 254.06146Q65.425 254.60834 64.3 255.56146Q63.346874 256.35834 63.065624 256.6552Q62.8 256.93646 62.628124 257.2177L66.84688 257.2177ZM68.3 255.98334L69.40938 255.88959Q69.53438 256.7021 69.97188 257.10834Q70.425 257.5146 71.06563 257.5146Q71.81563 257.5146 72.34688 256.93646Q72.87813 256.35834 72.87813 255.42084Q72.87813 254.51459 72.3625 253.99896Q71.8625 253.46771 71.03438 253.46771Q70.53438 253.46771 70.1125 253.70209Q69.70625 253.93646 69.47188 254.29584L68.4875 254.17084L69.31563 249.76459L73.59688 249.76459L73.59688 250.76459L70.15938 250.76459L69.70625 253.07709Q70.47188 252.53021 71.31563 252.53021Q72.44063 252.53021 73.20625 253.31146Q73.9875 254.09271 73.9875 255.32709Q73.9875 256.48334 73.31563 257.3427Q72.4875 258.37396 71.06563 258.37396Q69.89375 258.37396 69.14375 257.7177Q68.40938 257.06146 68.3 255.98334Z" fill-rule="nonzero"/><path fill="#000000" d="M51.3 190.03229Q51.3 188.50104 51.6125 187.57916Q51.925 186.64166 52.534374 186.14166Q53.159374 185.64166 54.096874 185.64166Q54.784374 185.64166 55.3 185.92291Q55.83125 186.20416 56.175 186.73541Q56.51875 187.25104 56.70625 188.00104Q56.89375 188.75104 56.89375 190.03229Q56.89375 191.54791 56.58125 192.46979Q56.284374 193.39166 55.659374 193.90729Q55.05 194.40729 54.096874 194.40729Q52.8625 194.40729 52.14375 193.51666Q51.3 192.45416 51.3 190.03229ZM52.378124 190.03229Q52.378124 192.14166 52.878124 192.84479Q53.378124 193.54791 54.096874 193.54791Q54.83125 193.54791 55.315624 192.84479Q55.815624 192.14166 55.815624 190.03229Q55.815624 187.90729 55.315624 187.21979Q54.83125 186.51666 54.08125 186.51666Q53.3625 186.51666 52.925 187.12604Q52.378124 187.90729 52.378124 190.03229ZM58.89375 194.26666L58.89375 193.06354L60.096874 193.06354L60.096874 194.26666L58.89375 194.26666ZM61.3 192.01666L62.409374 191.92291Q62.534374 192.73541 62.971874 193.14166Q63.425 193.54791 64.06563 193.54791Q64.81563 193.54791 65.34688 192.96979Q65.87813 192.39166 65.87813 191.45416Q65.87813 190.54791 65.3625 190.03229Q64.8625 189.50104 64.03438 189.50104Q63.534374 189.50104 63.1125 189.73541Q62.70625 189.96979 62.471874 190.32916L61.4875 190.20416L62.315624 185.79791L66.59688 185.79791L66.59688 186.79791L63.159374 186.79791L62.70625 189.11041Q63.471874 188.56354 64.31563 188.56354Q65.44063 188.56354 66.20625 189.34479Q66.9875 190.12604 66.9875 191.36041Q66.9875 192.51666 66.31563 193.37604Q65.4875 194.40729 64.06563 194.40729Q62.89375 194.40729 62.14375 193.75104Q61.409374 193.09479 61.3 192.01666ZM68.3 190.03229Q68.3 188.50104 68.6125 187.57916Q68.925 186.64166 69.53438 186.14166Q70.15938 185.64166 71.09688 185.64166Q71.78438 185.64166 72.3 185.92291Q72.83125 186.20416 73.175 186.73541Q73.51875 187.25104 73.70625 188.00104Q73.89375 188.75104 73.89375 190.03229Q73.89375 191.54791 73.58125 192.46979Q73.28438 193.39166 72.65938 193.90729Q72.05 194.40729 71.09688 194.40729Q69.8625 194.40729 69.14375 193.51666Q68.3 192.45416 68.3 190.03229ZM69.37813 190.03229Q69.37813 192.14166 69.87813 192.84479Q70.37813 193.54791 71.09688 193.54791Q71.83125 193.54791 72.31563 192.84479Q72.81563 192.14166 72.81563 190.03229Q72.81563 187.90729 72.31563 187.21979Q71.83125 186.51666 71.08125 186.51666Q70.3625 186.51666 69.925 187.12604Q69.37813 187.90729 69.37813 190.03229Z" fill-rule="nonzero"/><path fill="#000000" d="M51.3 126.06563Q51.3 124.53438 51.6125 123.6125Q51.925 122.675 52.534374 122.175Q53.159374 121.675 54.096874 121.675Q54.784374 121.675 55.3 121.95625Q55.83125 122.2375 56.175 122.76875Q56.51875 123.28438 56.70625 124.03438Q56.89375 124.78438 56.89375 126.06563Q56.89375 127.58125 56.58125 128.50313Q56.284374 129.425 55.659374 129.94063Q55.05 130.44063 54.096874 130.44063Q52.8625 130.44063 52.14375 129.55Q51.3 128.4875 51.3 126.06563ZM52.378124 126.06563Q52.378124 128.175 52.878124 128.87813Q53.378124 129.58125 54.096874 129.58125Q54.83125 129.58125 55.315624 128.87813Q55.815624 128.175 55.815624 126.06563Q55.815624 123.94063 55.315624 123.25313Q54.83125 122.55 54.08125 122.55Q53.3625 122.55 52.925 123.15938Q52.378124 123.94063 52.378124 126.06563ZM58.89375 130.3L58.89375 129.09688L60.096874 129.09688L60.096874 130.3L58.89375 130.3ZM61.3625 122.83125L61.3625 121.81563L66.925 121.81563L66.925 122.64375Q66.1125 123.51875 65.3 124.97188Q64.50313 126.40938 64.06563 127.94063Q63.7375 129.01875 63.659374 130.3L62.565624 130.3Q62.58125 129.28438 62.95625 127.84688Q63.346874 126.40938 64.05 125.08125Q64.76875 123.75313 65.58125 122.83125L61.3625 122.83125ZM68.3 128.05L69.40938 127.95625Q69.53438 128.76875 69.97188 129.175Q70.425 129.58125 71.06563 129.58125Q71.81563 129.58125 72.34688 129.00313Q72.87813 128.425 72.87813 127.4875Q72.87813 126.58125 72.3625 126.06563Q71.8625 125.53438 71.03438 125.53438Q70.53438 125.53438 70.1125 125.76875Q69.70625 126.00313 69.47188 126.3625L68.4875 126.2375L69.31563 121.83125L73.59688 121.83125L73.59688 122.83125L70.15938 122.83125L69.70625 125.14375Q70.47188 124.59688 71.31563 124.59688Q72.44063 124.59688 73.20625 125.37813Q73.9875 126.15938 73.9875 127.39375Q73.9875 128.55 73.31563 129.40938Q72.4875 130.44063 71.06563 130.44063Q69.89375 130.44063 69.14375 129.78438Q68.40938 129.12813 68.3 128.05Z" fill-rule="nonzero"/><path fill="#000000" d="M55.26875 66.333336L54.221874 66.333336L54.221874 59.614586Q53.83125 59.97396 53.20625 60.34896Q52.596874 60.708336 52.1125 60.88021L52.1125 59.864586Q52.9875 59.44271 53.64375 58.864586Q54.315624 58.270836 54.596874 57.708336L55.26875 57.708336L55.26875 66.333336ZM58.89375 66.333336L58.89375 65.13021L60.096874 65.13021L60.096874 66.333336L58.89375 66.333336ZM61.3 62.09896Q61.3 60.56771 61.6125 59.645836Q61.925 58.708336 62.534374 58.208336Q63.159374 57.708336 64.09688 57.708336Q64.78438 57.708336 65.3 57.989586Q65.83125 58.270836 66.175 58.802086Q66.51875 59.31771 66.70625 60.06771Q66.89375 60.81771 66.89375 62.09896Q66.89375 63.614586 66.58125 64.53646Q66.28438 65.458336 65.65938 65.97396Q65.05 66.47396 64.09688 66.47396Q62.8625 66.47396 62.14375 65.583336Q61.3 64.520836 61.3 62.09896ZM62.378124 62.09896Q62.378124 64.208336 62.878124 64.91146Q63.378124 65.614586 64.09688 65.614586Q64.83125 65.614586 65.31563 64.91146Q65.81563 64.208336 65.81563 62.09896Q65.81563 59.97396 65.31563 59.28646Q64.83125 58.583336 64.08125 58.583336Q63.3625 58.583336 62.925 59.19271Q62.378124 59.97396 62.378124 62.09896ZM68.3 62.09896Q68.3 60.56771 68.6125 59.645836Q68.925 58.708336 69.53438 58.208336Q70.15938 57.708336 71.09688 57.708336Q71.78438 57.708336 72.3 57.989586Q72.83125 58.270836 73.175 58.802086Q73.51875 59.31771 73.70625 60.06771Q73.89375 60.81771 73.89375 62.09896Q73.89375 63.614586 73.58125 64.53646Q73.28438 65.458336 72.65938 65.97396Q72.05 66.47396 71.09688 66.47396Q69.8625 66.47396 69.14375 65.583336Q68.3 64.520836 68.3 62.09896ZM69.37813 62.09896Q69.37813 64.208336 69.87813 64.91146Q70.37813 65.614586 71.09688 65.614586Q71.83125 65.614586 72.31563 64.91146Q72.81563 64.208336 72.81563 62.09896Q72.81563 59.97396 72.31563 59.28646Q71.83125 58.583336 71.08125 58.583336Q70.3625 58.583336 69.925 59.19271Q69.37813 59.97396 69.37813 62.09896Z" fill-rule="nonzero"/><path fill="#757575" d="M20.378124 37.8L20.378124 23.4875L30.7375 23.4875L30.7375 25.175L22.284374 25.175L22.284374 29.55L30.190624 29.55L30.190624 31.2375L22.284374 31.2375L22.284374 36.1125L31.065624 36.1125L31.065624 37.8L20.378124 37.8ZM39.89375 36.51875Q38.909374 37.346874 38.003124 37.690624Q37.096874 38.034374 36.065624 38.034374Q34.3625 38.034374 33.440624 37.20625Q32.51875 36.3625 32.51875 35.065624Q32.51875 34.3 32.8625 33.675Q33.221874 33.05 33.784374 32.675Q34.346874 32.284374 35.05 32.08125Q35.565624 31.95625 36.6125 31.815624Q38.7375 31.565624 39.7375 31.221874Q39.753124 30.8625 39.753124 30.753124Q39.753124 29.690624 39.253124 29.2375Q38.58125 28.64375 37.253124 28.64375Q36.003124 28.64375 35.409374 29.08125Q34.83125 29.51875 34.55 30.628124L32.83125 30.39375Q33.065624 29.284374 33.596874 28.6125Q34.128124 27.925 35.14375 27.565624Q36.159374 27.190624 37.503124 27.190624Q38.83125 27.190624 39.659374 27.503124Q40.4875 27.815624 40.878124 28.3Q41.26875 28.76875 41.425 29.4875Q41.51875 29.940624 41.51875 31.1125L41.51875 33.45625Q41.51875 35.909374 41.628124 36.565624Q41.7375 37.20625 42.08125 37.8L40.2375 37.8Q39.971874 37.253124 39.89375 36.51875ZM39.7375 32.596874Q38.784374 32.9875 36.8625 33.253124Q35.784374 33.409374 35.33125 33.6125Q34.89375 33.8 34.64375 34.175Q34.39375 34.55 34.39375 35.01875Q34.39375 35.721874 34.925 36.190624Q35.45625 36.659374 36.4875 36.659374Q37.503124 36.659374 38.284374 36.221874Q39.08125 35.76875 39.45625 35.003124Q39.7375 34.39375 39.7375 33.2375L39.7375 32.596874ZM43.409374 34.70625L45.159374 34.425Q45.3 35.471874 45.971874 36.034374Q46.64375 36.58125 47.846874 36.58125Q49.05 36.58125 49.628124 36.096874Q50.221874 35.596874 50.221874 34.940624Q50.221874 34.346874 49.70625 34.003124Q49.346874 33.76875 47.909374 33.409374Q45.971874 32.909374 45.221874 32.565624Q44.4875 32.20625 44.096874 31.58125Q43.70625 30.940624 43.70625 30.175Q43.70625 29.4875 44.01875 28.89375Q44.346874 28.3 44.89375 27.909374Q45.3 27.6125 46.003124 27.409374Q46.721874 27.190624 47.534374 27.190624Q48.753124 27.190624 49.675 27.55Q50.596874 27.89375 51.034374 28.503124Q51.471874 29.096874 51.64375 30.096874L49.925 30.33125Q49.8 29.534374 49.2375 29.096874Q48.675 28.64375 47.659374 28.64375Q46.440624 28.64375 45.925 29.05Q45.409374 29.440624 45.409374 29.971874Q45.409374 30.315624 45.628124 30.596874Q45.83125 30.878124 46.3 31.065624Q46.565624 31.159374 47.846874 31.503124Q49.721874 32.003124 50.45625 32.33125Q51.190624 32.64375 51.6125 33.253124Q52.034374 33.846874 52.034374 34.753124Q52.034374 35.628124 51.51875 36.409374Q51.003124 37.190624 50.034374 37.6125Q49.065624 38.034374 47.846874 38.034374Q45.83125 38.034374 44.76875 37.190624Q43.70625 36.346874 43.409374 34.70625ZM61.221874 34.45625L63.034374 34.690624Q62.6125 36.26875 61.440624 37.159374Q60.284374 38.034374 58.471874 38.034374Q56.20625 38.034374 54.8625 36.64375Q53.534374 35.2375 53.534374 32.70625Q53.534374 30.08125 54.878124 28.64375Q56.221874 27.190624 58.378124 27.190624Q60.45625 27.190624 61.76875 28.6125Q63.096874 30.01875 63.096874 32.596874Q63.096874 32.753124 63.08125 33.065624L55.346874 33.065624Q55.440624 34.76875 56.315624 35.675Q57.190624 36.58125 58.4875 36.58125Q59.45625 36.58125 60.128124 36.08125Q60.815624 35.565624 61.221874 34.45625ZM55.440624 31.6125L61.2375 31.6125Q61.128124 30.315624 60.58125 29.659374Q59.7375 28.64375 58.39375 28.64375Q57.190624 28.64375 56.3625 29.45625Q55.534374 30.253124 55.440624 31.6125ZM65.65938 37.8L65.65938 23.4875L67.56563 23.4875L67.56563 37.8L65.65938 37.8ZM71.1125 37.8L71.1125 27.425L72.70625 27.425L72.70625 28.909374Q73.84688 27.190624 76.00313 27.190624Q76.94063 27.190624 77.72188 27.534374Q78.51875 27.8625 78.90938 28.409374Q79.3 28.95625 79.45625 29.70625Q79.55 30.20625 79.55 31.425L79.55 37.8L77.78438 37.8L77.78438 31.4875Q77.78438 30.409374 77.58125 29.878124Q77.37813 29.346874 76.84688 29.034374Q76.33125 28.721874 75.62813 28.721874Q74.50313 28.721874 73.69063 29.440624Q72.87813 30.14375 72.87813 32.128124L72.87813 37.8L71.1125 37.8ZM92.19063 36.26875Q93.51875 37.175 94.62813 37.596874L94.06563 38.909374Q92.51875 38.3625 90.9875 37.159374Q89.39375 38.05 87.47188 38.05Q85.53438 38.05 83.94063 37.1125Q82.3625 36.175 81.50313 34.471874Q80.65938 32.76875 80.65938 30.64375Q80.65938 28.51875 81.51875 26.784374Q82.37813 25.05 83.95625 24.14375Q85.55 23.221874 87.51875 23.221874Q89.50313 23.221874 91.08125 24.175Q92.675 25.1125 93.50313 26.815624Q94.34688 28.503124 94.34688 30.628124Q94.34688 32.39375 93.81563 33.815624Q93.28438 35.221874 92.19063 36.26875ZM88.01875 33.846874Q89.65938 34.3 90.72188 35.20625Q92.39375 33.690624 92.39375 30.628124Q92.39375 28.89375 91.8 27.596874Q91.22188 26.3 90.08125 25.58125Q88.94063 24.8625 87.51875 24.8625Q85.40938 24.8625 84.00313 26.315624Q82.6125 27.753124 82.6125 30.64375Q82.6125 33.440624 83.9875 34.940624Q85.37813 36.425 87.51875 36.425Q88.53438 36.425 89.44063 36.034374Q88.55 35.471874 87.56563 35.221874L88.01875 33.846874ZM103.90938 37.8L103.90938 36.26875Q102.70625 38.034374 100.62813 38.034374Q99.70625 38.034374 98.90938 37.690624Q98.1125 37.33125 97.72188 36.8Q97.34688 36.26875 97.19063 35.4875Q97.08125 34.971874 97.08125 33.846874L97.08125 27.425L98.83125 27.425L98.83125 33.175Q98.83125 34.55 98.94063 35.034374Q99.1125 35.721874 99.64375 36.128124Q100.19063 36.51875 100.97188 36.51875Q101.76875 36.51875 102.45625 36.1125Q103.15938 35.70625 103.44063 35.01875Q103.7375 34.315624 103.7375 32.9875L103.7375 27.425L105.4875 27.425L105.4875 37.8L103.90938 37.8ZM107.12813 25.503124L107.12813 23.4875L108.89375 23.4875L108.89375 25.503124L107.12813 25.503124ZM107.12813 37.8L107.12813 27.425L108.89375 27.425L108.89375 37.8L107.12813 37.8ZM111.1125 37.8L111.1125 27.425L112.70625 27.425L112.70625 28.909374Q113.84688 27.190624 116.00313 27.190624Q116.94063 27.190624 117.72188 27.534374Q118.51875 27.8625 118.90938 28.409374Q119.3 28.95625 119.45625 29.70625Q119.55 30.20625 119.55 31.425L119.55 37.8L117.78438 37.8L117.78438 31.4875Q117.78438 30.409374 117.58125 29.878124Q117.37813 29.346874 116.84688 29.034374Q116.33125 28.721874 115.62813 28.721874Q114.50313 28.721874 113.69063 29.440624Q112.87813 30.14375 112.87813 32.128124L112.87813 37.8L111.1125 37.8ZM124.95625 36.221874L125.20625 37.784374Q124.47188 37.940624 123.87813 37.940624Q122.925 37.940624 122.39375 37.64375Q121.87813 37.33125 121.65938 36.846874Q121.44063 36.346874 121.44063 34.76875L121.44063 28.8L120.15938 28.8L120.15938 27.425L121.44063 27.425L121.44063 24.8625L123.19063 23.8L123.19063 27.425L124.95625 27.425L124.95625 28.8L123.19063 28.8L123.19063 34.8625Q123.19063 35.6125 123.28438 35.83125Q123.37813 36.034374 123.58125 36.175Q123.8 36.3 124.19063 36.3Q124.47188 36.3 124.95625 36.221874ZM127.12813 25.503124L127.12813 23.4875L128.89375 23.4875L128.89375 25.503124L127.12813 25.503124ZM127.12813 37.8L127.12813 27.425L128.89375 27.425L128.89375 37.8L127.12813 37.8ZM137.89375 34.003124L139.6125 34.221874Q139.33125 36.01875 138.15938 37.034374Q137.00313 38.034374 135.3 38.034374Q133.175 38.034374 131.87813 36.64375Q130.58125 35.253124 130.58125 32.659374Q130.58125 30.971874 131.12813 29.721874Q131.69063 28.45625 132.83125 27.83125Q133.97188 27.190624 135.31563 27.190624Q137.00313 27.190624 138.06563 28.05Q139.14375 28.909374 139.45625 30.471874L137.7375 30.7375Q137.50313 29.690624 136.87813 29.175Q136.25313 28.64375 135.37813 28.64375Q134.05 28.64375 133.22188 29.596874Q132.39375 30.55 132.39375 32.596874Q132.39375 34.690624 133.19063 35.64375Q133.9875 36.58125 135.28438 36.58125Q136.31563 36.58125 137.00313 35.95625Q137.70625 35.315624 137.89375 34.003124Z" fill-rule="nonzero"/></svg>