<svg version="1.1" viewBox="0.0 0.0 608.0 376.0" fill="none" stroke="none" stroke-linecap="square" stroke-miterlimit="10" width="608" height="376" xmlns:xlink="http://www.w3.org/1999/xlink" xmlns="http://www.w3.org/2000/svg"><path fill="#ffffff" d="M0 0L608.0 0L608.0 376.0L0 376.0L0 0Z" fill-rule="nonzero"/><path stroke="#333333" stroke-width="1.0" stroke-linecap="butt" d="M80.5 318.5L589.5 318.5" fill-rule="nonzero"/><path stroke="#cccccc" stroke-width="1.0" stroke-linecap="butt" d="M80.5 254.5L589.5 254.5" fill-rule="nonzero"/><path stroke="#cccccc" stroke-width="1.0" stroke-linecap="butt" d="M80.5 190.5L589.5 190.5" fill-rule="nonzero"/><path stroke="#cccccc" stroke-width="1.0" stroke-linecap="butt" d="M80.5 126.5L589.5 126.5" fill-rule="nonzero"/><path stroke="#cccccc" stroke-width="1.0" stroke-linecap="butt" d="M80.5 62.5L589.5 62.5" fill-rule="nonzero"/><path stroke="#000000" stroke-width="1.0" stroke-linecap="butt" d="M80.5 318.5L80.5 62.5" fill-rule="nonzero"/><clipPath id="id_0"><path d="M80.8 62.333332L589.2 62.333332L589.2 318.2L80.8 318.2L80.8 62.333332Z" clip-rule="nonzero"/></clipPath><path stroke="#4285f4" stroke-width="2.0" stroke-linecap="butt" clip-path="url(#id_0)" d="M83.31683 318.2C83.31683 318.2 86.67261 313.10834 88.350494 310.6005C90.02838 308.09268 91.70627 305.6104 93.384155 303.15298C95.06205 300.69556 96.73994 298.26346 98.41782 295.85593C100.09571 293.4484 101.7736 291.06595 103.451485 288.7078C105.12937 286.34964 106.80726 284.0163 108.485146 281.70703C110.16303 279.39774 111.84093 277.113 113.518814 274.85208C115.1967 272.59116 116.87459 270.35455 118.552475 268.14148C120.23036 265.9284 121.90825 263.73938 123.586136 261.57364C125.26402 259.4079 126.94192 257.26596 128.6198 255.14703C130.29768 253.02812 131.97557 250.93274 133.65347 248.86014C135.33136 246.78752 137.00925 244.7382 138.68713 242.7114C140.36502 240.6846 142.04291 238.68082 143.7208 236.6993C145.39868 234.71779 147.07657 232.75905 148.75446 230.8223C150.43234 228.88556 152.11023 226.97134 153.78812 225.07886C155.466 223.18639 157.14389 221.31618 158.82178 219.46745C160.49966 217.61873 162.17755 215.792 163.85544 213.98653C165.53334 212.18105 167.21123 210.39732 168.88911 208.63457C170.567 206.87181 172.24489 205.13055 173.92278 203.41002C175.60066 201.6895 177.27855 199.9902 178.95644 198.31137C180.63432 196.63254 182.31221 194.9747 183.9901 193.33707C185.66798 191.69943 187.34587 190.08253 189.02376 188.48558C190.70164 186.88863 192.37953 185.31215 194.05742 183.75537C195.73532 182.1986 197.41321 180.66203 199.0911 179.14491C200.76898 177.62779 202.44687 176.13063 204.12476 174.65266C205.80264 173.17468 207.48053 171.71642 209.15842 170.27708C210.8363 168.83775 212.51419 167.41786 214.19208 166.01665C215.86996 164.61543 217.54785 163.23341 219.22574 161.86981C220.90363 160.50621 222.58151 159.16156 224.2594 157.83505C225.93729 156.50856 227.61519 155.20074 229.29308 153.91083C230.97096 152.62093 232.64885 151.34943 234.32674 150.0956C236.00462 148.84177 237.68251 147.60611 239.3604 146.38783C241.03828 145.16957 242.71617 143.96921 244.39406 142.786C246.07195 141.60278 247.74983 140.43723 249.42772 139.28856C251.1056 138.1399 252.7835 137.00862 254.46138 135.89398C256.13928 134.77934 257.81717 133.68184 259.49506 132.60072C261.17294 131.51959 262.85083 130.45535 264.52872 129.40724C266.2066 128.35913 267.8845 127.327644 269.56238 126.31203C271.24026 125.2964 272.91815 124.29716 274.59604 123.31352C276.27393 122.32989 277.9518 121.36237 279.6297 120.4102C281.3076 119.45804 282.98547 118.521736 284.66336 117.60053C286.34125 116.67933 288.01913 115.77373 289.69702 114.88297C291.3749 113.99222 293.0528 113.11681 294.73068 112.25599C296.40857 111.39517 298.08646 110.549446 299.76434 109.71805C301.44223 108.88665 303.12012 108.0701 304.79803 107.26762C306.47592 106.46513 308.1538 105.67723 309.8317 104.90315C311.50958 104.12907 313.18747 103.369316 314.86536 102.62312C316.54324 101.87693 318.22113 101.14481 319.89902 100.425995C321.5769 99.707184 323.2548 99.00218 324.93268 98.310234C326.61057 97.618286 328.28845 96.939896 329.96634 96.2743C331.64423 95.60871 333.3221 94.95642 335.0 94.316666C336.6779 93.67692 338.35577 93.05021 340.03366 92.43579C341.71155 91.82137 343.38943 91.21974 345.06732 90.63014C346.7452 90.040535 348.4231 89.46347 350.10098 88.89818C351.77887 88.332886 353.45676 87.77987 355.13464 87.23837C356.81253 86.69687 358.49042 86.1674 360.1683 85.649185C361.8462 85.13097 363.52408 84.62452 365.20197 84.12908C366.87988 83.63364 368.55777 83.149704 370.23566 82.67652C371.91354 82.20334 373.59143 81.74142 375.26932 81.289986C376.9472 80.83855 378.6251 80.39812 380.30298 79.96792C381.98087 79.53772 383.65875 79.11827 385.33664 78.7088C387.01453 78.29933 388.6924 77.900345 390.3703 77.511086C392.0482 77.121826 393.72607 76.742805 395.40396 76.37325C397.08185 76.00369 398.75974 75.64411 400.43762 75.29375C402.1155 74.94338 403.7934 74.60274 405.47128 74.27105C407.14917 73.93936 408.82706 73.61714 410.50494 73.30362C412.18283 72.9901 413.86072 72.68578 415.5386 72.389915C417.2165 72.09405 418.89438 71.80714 420.57227 71.52841C422.25015 71.24969 423.92804 70.97967 425.60593 70.717575C427.2838 70.45548 428.96173 70.20183 430.63962 69.95586C432.3175 69.709885 433.9954 69.4721 435.67328 69.24173C437.35117 69.01137 439.02905 68.78893 440.70694 68.57366C442.38483 68.3584 444.0627 68.1508 445.7406 67.95012C447.4185 67.749435 449.09637 67.55617 450.77426 67.36956C452.45215 67.182945 454.13004 67.003494 455.80792 66.830444C457.4858 66.657394 459.1637 66.49125 460.84158 66.33125C462.51947 66.17125 464.19736 66.0179 465.87524 65.87044C467.55313 65.72297 469.23102 65.5819 470.9089 65.446465C472.5868 65.31103 474.26468 65.181725 475.94257 65.0578C477.62045 64.933876 479.29834 64.815834 480.97623 64.70291C482.6541 64.58999 484.332 64.4827 486.0099 64.380264C487.68777 64.27783 489.36566 64.18078 491.04358 64.088326C492.72147 63.99587 494.39935 63.908535 496.07724 63.825546C497.75513 63.74256 499.433 63.664436 501.1109 63.590405C502.7888 63.516376 504.46667 63.44695 506.14456 63.381363C507.82245 63.315777 509.50034 63.25454 511.17822 63.196884C512.8561 63.13923 514.534 63.085667 516.21185 63.03543C517.8898 62.985195 519.5676 62.9388 521.24554 62.895473C522.92346 62.852146 524.6013 62.8124 526.27924 62.77547C527.9571 62.73854 529.635 62.704937 531.31287 62.673893C532.9908 62.642845 534.66864 62.614872 536.34656 62.5892C538.0244 62.563526 539.70233 62.540672 541.3802 62.51986C543.0581 62.49905 544.73596 62.480797 546.4139 62.464336C548.09174 62.447876 549.76965 62.43372 551.4475 62.421097C553.1254 62.408474 554.8033 62.397896 556.4812 62.3886C558.15906 62.379303 559.837 62.3718 561.51483 62.36532C563.19275 62.358833 564.8706 62.35389 566.5485 62.34971C568.2264 62.34553 569.9043 62.34263 571.58215 62.34024C573.2601 62.337852 574.9379 62.33649 576.61584 62.33538C578.2937 62.33427 579.9716 62.33393 581.6495 62.333588C583.3274 62.33325 586.68317 62.333332 586.68317 62.333332" fill-rule="nonzero"/><path fill="#000000" fill-opacity="0.0" clip-path="url(#id_0)" d="M86.31683 318.2C86.31683 319.85684 84.97369 321.2 83.31683 321.2C81.65998 321.2 80.31683 319.85684 80.31683 318.2C80.31683 316.54315 81.65998 315.2 83.31683 315.2C84.97369 315.2 86.31683 316.54315 86.31683 318.2Z" fill-rule="nonzero"/><path fill="#000000" fill-opacity="0.0" clip-path="url(#id_0)" d="M91.350494 310.6005C91.350494 312.25735 90.00735 313.6005 88.350494 313.6005C86.69364 313.6005 85.350494 312.25735 85.350494 310.6005C85.350494 308.94366 86.69364 307.6005 88.350494 307.6005C90.00735 307.6005 91.350494 308.94366 91.350494 310.6005Z" fill-rule="nonzero"/><path fill="#000000" fill-opacity="0.0" clip-path="url(#id_0)" d="M96.384155 303.15298C96.384155 304.80984 95.041016 306.15298 93.384155 306.15298C91.7273 306.15298 90.384155 304.80984 90.384155 303.15298C90.384155 301.49612 91.7273 300.15298 93.384155 300.15298C95.041016 300.15298 96.384155 301.49612 96.384155 303.15298Z" fill-rule="nonzero"/><path fill="#000000" fill-opacity="0.0" clip-path="url(#id_0)" d="M101.41782 295.85593C101.41782 297.5128 100.07468 298.85593 98.41782 298.85593C96.76097 298.85593 95.41782 297.5128 95.41782 295.85593C95.41782 294.19907 96.76097 292.85593 98.41782 292.85593C100.07468 292.85593 101.41782 294.19907 101.41782 295.85593Z" fill-rule="nonzero"/><path fill="#000000" fill-opacity="0.0" clip-path="url(#id_0)" d="M106.451485 288.7078C106.451485 290.36462 105.10834 291.7078 103.451485 291.7078C101.79463 291.7078 100.451485 290.36462 100.451485 288.7078C100.451485 287.05093 101.79463 285.7078 103.451485 285.7078C105.10834 285.7078 106.451485 287.05093 106.451485 288.7078Z" fill-rule="nonzero"/><path fill="#000000" fill-opacity="0.0" clip-path="url(#id_0)" d="M111.485146 281.70703C111.485146 283.36386 110.142006 284.70703 108.485146 284.70703C106.82829 284.70703 105.485146 283.36386 105.485146 281.70703C105.485146 280.05017 106.82829 278.70703 108.485146 278.70703C110.142006 278.70703 111.485146 280.05017 111.485146 281.70703Z" fill-rule="nonzero"/><path fill="#000000" fill-opacity="0.0" clip-path="url(#id_0)" d="M116.518814 274.85208C116.518814 276.50894 115.17567 277.85208 113.518814 277.85208C111.86196 277.85208 110.518814 276.50894 110.518814 274.85208C110.518814 273.19525 111.86196 271.85208 113.518814 271.85208C115.17567 271.85208 116.518814 273.19525 116.518814 274.85208Z" fill-rule="nonzero"/><path fill="#000000" fill-opacity="0.0" clip-path="url(#id_0)" d="M121.552475 268.14148C121.552475 269.79834 120.20933 271.14148 118.552475 271.14148C116.89562 271.14148 115.552475 269.79834 115.552475 268.14148C115.552475 266.48462 116.89562 265.14148 118.552475 265.14148C120.20933 265.14148 121.552475 266.48462 121.552475 268.14148Z" fill-rule="nonzero"/><path fill="#000000" fill-opacity="0.0" clip-path="url(#id_0)" d="M126.586136 261.57364C126.586136 263.2305 125.243 264.57364 123.586136 264.57364C121.92928 264.57364 120.586136 263.2305 120.586136 261.57364C120.586136 259.91678 121.92928 258.57364 123.586136 258.57364C125.243 258.57364 126.586136 259.91678 126.586136 261.57364Z" fill-rule="nonzero"/><path fill="#000000" fill-opacity="0.0" clip-path="url(#id_0)" d="M131.6198 255.14703C131.6198 256.8039 130.27666 258.14703 128.6198 258.14703C126.962944 258.14703 125.619804 256.8039 125.619804 255.14703C125.619804 253.49017 126.962944 252.14703 128.6198 252.14703C130.27666 252.14703 131.6198 253.49017 131.6198 255.14703Z" fill-rule="nonzero"/><path fill="#000000" fill-opacity="0.0" clip-path="url(#id_0)" d="M136.65347 248.86014C136.65347 250.51698 135.31032 251.86014 133.65347 251.86014C131.99661 251.86014 130.65347 250.51698 130.65347 248.86014C130.65347 247.20328 131.99661 245.86014 133.65347 245.86014C135.31032 245.86014 136.65347 247.20328 136.65347 248.86014Z" fill-rule="nonzero"/><path fill="#000000" fill-opacity="0.0" clip-path="url(#id_0)" d="M141.68713 242.7114C141.68713 244.36826 140.34398 245.7114 138.68713 245.7114C137.03027 245.7114 135.68713 244.36826 135.68713 242.7114C135.68713 241.05455 137.03027 239.7114 138.68713 239.7114C140.34398 239.7114 141.68713 241.05455 141.68713 242.7114Z" fill-rule="nonzero"/><path fill="#000000" fill-opacity="0.0" clip-path="url(#id_0)" d="M146.7208 236.6993C146.7208 238.35616 145.37764 239.6993 143.7208 239.6993C142.06393 239.6993 140.7208 238.35616 140.7208 236.6993C140.7208 235.04245 142.06393 233.6993 143.7208 233.6993C145.37764 233.6993 146.7208 235.04245 146.7208 236.6993Z" fill-rule="nonzero"/><path fill="#000000" fill-opacity="0.0" clip-path="url(#id_0)" d="M151.75446 230.8223C151.75446 232.47916 150.41132 233.8223 148.75446 233.8223C147.0976 233.8223 145.75446 232.47916 145.75446 230.8223C145.75446 229.16545 147.0976 227.8223 148.75446 227.8223C150.41132 227.8223 151.75446 229.16545 151.75446 230.8223Z" fill-rule="nonzero"/><path fill="#000000" fill-opacity="0.0" clip-path="url(#id_0)" d="M156.78812 225.07886C156.78812 226.73572 155.44498 228.07886 153.78812 228.07886C152.13127 228.07886 150.78812 226.73572 150.78812 225.07886C150.78812 223.42201 152.13127 222.07886 153.78812 222.07886C155.44498 222.07886 156.78812 223.42201 156.78812 225.07886Z" fill-rule="nonzero"/><path fill="#000000" fill-opacity="0.0" clip-path="url(#id_0)" d="M161.82178 219.46745C161.82178 221.1243 160.47864 222.46745 158.82178 222.46745C157.16493 222.46745 155.82178 221.1243 155.82178 219.46745C155.82178 217.8106 157.16493 216.46745 158.82178 216.46745C160.47864 216.46745 161.82178 217.8106 161.82178 219.46745Z" fill-rule="nonzero"/><path fill="#000000" fill-opacity="0.0" clip-path="url(#id_0)" d="M166.85544 213.98653C166.85544 215.64339 165.5123 216.98653 163.85544 216.98653C162.1986 216.98653 160.85544 215.64339 160.85544 213.98653C160.85544 212.32968 162.1986 210.98653 163.85544 210.98653C165.5123 210.98653 166.85544 212.32968 166.85544 213.98653Z" fill-rule="nonzero"/><path fill="#000000" fill-opacity="0.0" clip-path="url(#id_0)" d="M171.88911 208.63457C171.88911 210.29143 170.54596 211.63457 168.88911 211.63457C167.23225 211.63457 165.88911 210.29143 165.88911 208.63457C165.88911 206.9777 167.23225 205.63457 168.88911 205.63457C170.54596 205.63457 171.88911 206.9777 171.88911 208.63457Z" fill-rule="nonzero"/><path fill="#000000" fill-opacity="0.0" clip-path="url(#id_0)" d="M176.92278 203.41002C176.92278 205.06688 175.57962 206.41002 173.92278 206.41002C172.26591 206.41002 170.92278 205.06688 170.92278 203.41002C170.92278 201.75317 172.26591 200.41002 173.92278 200.41002C175.57962 200.41002 176.92278 201.75317 176.92278 203.41002Z" fill-rule="nonzero"/><path fill="#000000" fill-opacity="0.0" clip-path="url(#id_0)" d="M181.95644 198.31137C181.95644 199.96823 180.6133 201.31137 178.95644 201.31137C177.29958 201.31137 175.95644 199.96823 175.95644 198.31137C175.95644 196.65451 177.29958 195.31137 178.95644 195.31137C180.6133 195.31137 181.95644 196.65451 181.95644 198.31137Z" fill-rule="nonzero"/><path fill="#000000" fill-opacity="0.0" clip-path="url(#id_0)" d="M186.9901 193.33707C186.9901 194.99393 185.64696 196.33707 183.9901 196.33707C182.33325 196.33707 180.9901 194.99393 180.9901 193.33707C180.9901 191.6802 182.33325 190.33707 183.9901 190.33707C185.64696 190.33707 186.9901 191.6802 186.9901 193.33707Z" fill-rule="nonzero"/><path fill="#000000" fill-opacity="0.0" clip-path="url(#id_0)" d="M192.02376 188.48558C192.02376 190.14243 190.68062 191.48558 189.02376 191.48558C187.36691 191.48558 186.02376 190.14243 186.02376 188.48558C186.02376 186.82872 187.36691 185.48558 189.02376 185.48558C190.68062 185.48558 192.02376 186.82872 192.02376 188.48558Z" fill-rule="nonzero"/><path fill="#000000" fill-opacity="0.0" clip-path="url(#id_0)" d="M197.05742 183.75537C197.05742 185.41223 195.71428 186.75537 194.05742 186.75537C192.40057 186.75537 191.05742 185.41223 191.05742 183.75537C191.05742 182.09851 192.40057 180.75537 194.05742 180.75537C195.71428 180.75537 197.05742 182.09851 197.05742 183.75537Z" fill-rule="nonzero"/><path fill="#000000" fill-opacity="0.0" clip-path="url(#id_0)" d="M202.0911 179.14491C202.0911 180.80176 200.74794 182.14491 199.0911 182.14491C197.43423 182.14491 196.0911 180.80176 196.0911 179.14491C196.0911 177.48805 197.43423 176.14491 199.0911 176.14491C200.74794 176.14491 202.0911 177.48805 202.0911 179.14491Z" fill-rule="nonzero"/><path fill="#000000" fill-opacity="0.0" clip-path="url(#id_0)" d="M207.12476 174.65266C207.12476 176.30951 205.7816 177.65266 204.12476 177.65266C202.4679 177.65266 201.12476 176.30951 201.12476 174.65266C201.12476 172.9958 202.4679 171.65266 204.12476 171.65266C205.7816 171.65266 207.12476 172.9958 207.12476 174.65266Z" fill-rule="nonzero"/><path fill="#000000" fill-opacity="0.0" clip-path="url(#id_0)" d="M212.15842 170.27708C212.15842 171.93394 210.81528 173.27708 209.15842 173.27708C207.50156 173.27708 206.15842 171.93394 206.15842 170.27708C206.15842 168.62022 207.50156 167.27708 209.15842 167.27708C210.81528 167.27708 212.15842 168.62022 212.15842 170.27708Z" fill-rule="nonzero"/><path fill="#000000" fill-opacity="0.0" clip-path="url(#id_0)" d="M217.19208 166.01665C217.19208 167.67351 215.84894 169.01665 214.19208 169.01665C212.53523 169.01665 211.19208 167.67351 211.19208 166.01665C211.19208 164.35979 212.53523 163.01665 214.19208 163.01665C215.84894 163.01665 217.19208 164.35979 217.19208 166.01665Z" fill-rule="nonzero"/><path fill="#000000" fill-opacity="0.0" clip-path="url(#id_0)" d="M222.22574 161.86981C222.22574 163.52667 220.8826 164.86981 219.22574 164.86981C217.5689 164.86981 216.22574 163.52667 216.22574 161.86981C216.22574 160.21297 217.5689 158.86981 219.22574 158.86981C220.8826 158.86981 222.22574 160.21297 222.22574 161.86981Z" fill-rule="nonzero"/><path fill="#000000" fill-opacity="0.0" clip-path="url(#id_0)" d="M227.2594 157.83505C227.2594 159.49191 225.91626 160.83505 224.2594 160.83505C222.60255 160.83505 221.2594 159.49191 221.2594 157.83505C221.2594 156.1782 222.60255 154.83505 224.2594 154.83505C225.91626 154.83505 227.2594 156.1782 227.2594 157.83505Z" fill-rule="nonzero"/><path fill="#000000" fill-opacity="0.0" clip-path="url(#id_0)" d="M232.29308 153.91083C232.29308 155.56769 230.94992 156.91083 229.29308 156.91083C227.63622 156.91083 226.29308 155.56769 226.29308 153.91083C226.29308 152.25397 227.63622 150.91083 229.29308 150.91083C230.94992 150.91083 232.29308 152.25397 232.29308 153.91083Z" fill-rule="nonzero"/><path fill="#000000" fill-opacity="0.0" clip-path="url(#id_0)" d="M237.32674 150.0956C237.32674 151.75246 235.98358 153.0956 234.32674 153.0956C232.66988 153.0956 231.32674 151.75246 231.32674 150.0956C231.32674 148.43875 232.66988 147.0956 234.32674 147.0956C235.98358 147.0956 237.32674 148.43875 237.32674 150.0956Z" fill-rule="nonzero"/><path fill="#000000" fill-opacity="0.0" clip-path="url(#id_0)" d="M242.3604 146.38783C242.3604 148.0447 241.01726 149.38783 239.3604 149.38783C237.70354 149.38783 236.3604 148.0447 236.3604 146.38783C236.3604 144.73099 237.70354 143.38783 239.3604 143.38783C241.01726 143.38783 242.3604 144.73099 242.3604 146.38783Z" fill-rule="nonzero"/><path fill="#000000" fill-opacity="0.0" clip-path="url(#id_0)" d="M247.39406 142.786C247.39406 144.44286 246.05092 145.786 244.39406 145.786C242.7372 145.786 241.39406 144.44286 241.39406 142.786C241.39406 141.12915 242.7372 139.786 244.39406 139.786C246.05092 139.786 247.39406 141.12915 247.39406 142.786Z" fill-rule="nonzero"/><path fill="#000000" fill-opacity="0.0" clip-path="url(#id_0)" d="M252.42772 139.28856C252.42772 140.94542 251.08458 142.28856 249.42772 142.28856C247.77087 142.28856 246.42772 140.94542 246.42772 139.28856C246.42772 137.6317 247.77087 136.28856 249.42772 136.28856C251.08458 136.28856 252.42772 137.6317 252.42772 139.28856Z" fill-rule="nonzero"/><path fill="#000000" fill-opacity="0.0" clip-path="url(#id_0)" d="M257.4614 135.89398C257.4614 137.55083 256.11826 138.89398 254.46138 138.89398C252.80453 138.89398 251.46138 137.55083 251.46138 135.89398C251.46138 134.23712 252.80453 132.89398 254.46138 132.89398C256.11826 132.89398 257.4614 134.23712 257.4614 135.89398Z" fill-rule="nonzero"/><path fill="#000000" fill-opacity="0.0" clip-path="url(#id_0)" d="M262.49506 132.60072C262.49506 134.25757 261.15192 135.60072 259.49506 135.60072C257.8382 135.60072 256.49506 134.25757 256.49506 132.60072C256.49506 130.94386 257.8382 129.60072 259.49506 129.60072C261.15192 129.60072 262.49506 130.94386 262.49506 132.60072Z" fill-rule="nonzero"/><path fill="#000000" fill-opacity="0.0" clip-path="url(#id_0)" d="M267.52872 129.40724C267.52872 131.0641 266.18558 132.40724 264.52872 132.40724C262.87186 132.40724 261.52872 131.0641 261.52872 129.40724C261.52872 127.75039 262.87186 126.40724 264.52872 126.40724C266.18558 126.40724 267.52872 127.75039 267.52872 129.40724Z" fill-rule="nonzero"/><path fill="#000000" fill-opacity="0.0" clip-path="url(#id_0)" d="M272.56238 126.31203C272.56238 127.96888 271.21924 129.31203 269.56238 129.31203C267.90552 129.31203 266.56238 127.96888 266.56238 126.31203C266.56238 124.655174 267.90552 123.31203 269.56238 123.31203C271.21924 123.31203 272.56238 124.655174 272.56238 126.31203Z" fill-rule="nonzero"/><path fill="#000000" fill-opacity="0.0" clip-path="url(#id_0)" d="M277.59604 123.31352C277.59604 124.970375 276.2529 126.31352 274.59604 126.31352C272.93918 126.31352 271.59604 124.970375 271.59604 123.31352C271.59604 121.65667 272.93918 120.31352 274.59604 120.31352C276.2529 120.31352 277.59604 121.65667 277.59604 123.31352Z" fill-rule="nonzero"/><path fill="#000000" fill-opacity="0.0" clip-path="url(#id_0)" d="M282.6297 120.4102C282.6297 122.06706 281.28656 123.4102 279.6297 123.4102C277.97284 123.4102 276.6297 122.06706 276.6297 120.4102C276.6297 118.75335 277.97284 117.4102 279.6297 117.4102C281.28656 117.4102 282.6297 118.75335 282.6297 120.4102Z" fill-rule="nonzero"/><path fill="#000000" fill-opacity="0.0" clip-path="url(#id_0)" d="M287.66336 117.60053C287.66336 119.257385 286.32022 120.60053 284.66336 120.60053C283.0065 120.60053 281.66336 119.257385 281.66336 117.60053C281.66336 115.94368 283.0065 114.60053 284.66336 114.60053C286.32022 114.60053 287.66336 115.94368 287.66336 117.60053Z" fill-rule="nonzero"/><path fill="#000000" fill-opacity="0.0" clip-path="url(#id_0)" d="M292.69702 114.88297C292.69702 116.539825 291.35388 117.88297 289.69702 117.88297C288.04016 117.88297 286.69702 116.539825 286.69702 114.88297C286.69702 113.22612 288.04016 111.88297 289.69702 111.88297C291.35388 111.88297 292.69702 113.22612 292.69702 114.88297Z" fill-rule="nonzero"/><path fill="#000000" fill-opacity="0.0" clip-path="url(#id_0)" d="M297.73068 112.25599C297.73068 113.91284 296.38754 115.25599 294.73068 115.25599C293.07385 115.25599 291.73068 113.91284 291.73068 112.25599C291.73068 110.59914 293.07385 109.25599 294.73068 109.25599C296.38754 109.25599 297.73068 110.59914 297.73068 112.25599Z" fill-rule="nonzero"/><path fill="#000000" fill-opacity="0.0" clip-path="url(#id_0)" d="M302.76434 109.71805C302.76434 111.3749 301.4212 112.71805 299.76434 112.71805C298.1075 112.71805 296.76434 111.3749 296.76434 109.71805C296.76434 108.061195 298.1075 106.71805 299.76434 106.71805C301.4212 106.71805 302.76434 108.061195 302.76434 109.71805Z" fill-rule="nonzero"/><path fill="#000000" fill-opacity="0.0" clip-path="url(#id_0)" d="M307.79803 107.26762C307.79803 108.92447 306.45486 110.26762 304.79803 110.26762C303.14117 110.26762 301.79803 108.92447 301.79803 107.26762C301.79803 105.610756 303.14117 104.26762 304.79803 104.26762C306.45486 104.26762 307.79803 105.610756 307.79803 107.26762Z" fill-rule="nonzero"/><path fill="#000000" fill-opacity="0.0" clip-path="url(#id_0)" d="M312.8317 104.90315C312.8317 106.560005 311.48853 107.90315 309.8317 107.90315C308.17484 107.90315 306.8317 106.560005 306.8317 104.90315C306.8317 103.24629 308.17484 101.90315 309.8317 101.90315C311.48853 101.90315 312.8317 103.24629 312.8317 104.90315Z" fill-rule="nonzero"/><path fill="#000000" fill-opacity="0.0" clip-path="url(#id_0)" d="M317.86536 102.62312C317.86536 104.279976 316.5222 105.62312 314.86536 105.62312C313.2085 105.62312 311.86536 104.279976 311.86536 102.62312C311.86536 100.96627 313.2085 99.62312 314.86536 99.62312C316.5222 99.62312 317.86536 100.96627 317.86536 102.62312Z" fill-rule="nonzero"/><path fill="#000000" fill-opacity="0.0" clip-path="url(#id_0)" d="M322.89902 100.425995C322.89902 102.08285 321.55588 103.425995 319.89902 103.425995C318.24216 103.425995 316.89902 102.08285 316.89902 100.425995C316.89902 98.76914 318.24216 97.425995 319.89902 97.425995C321.55588 97.425995 322.89902 98.76914 322.89902 100.425995Z" fill-rule="nonzero"/><path fill="#000000" fill-opacity="0.0" clip-path="url(#id_0)" d="M327.93268 98.310234C327.93268 99.96709 326.58954 101.310234 324.93268 101.310234C323.27582 101.310234 321.93268 99.96709 321.93268 98.310234C321.93268 96.65338 323.27582 95.310234 324.93268 95.310234C326.58954 95.310234 327.93268 96.65338 327.93268 98.310234Z" fill-rule="nonzero"/><path fill="#000000" fill-opacity="0.0" clip-path="url(#id_0)" d="M332.96634 96.2743C332.96634 97.93116 331.6232 99.2743 329.96634 99.2743C328.30948 99.2743 326.96634 97.93116 326.96634 96.2743C326.96634 94.61745 328.30948 93.2743 329.96634 93.2743C331.6232 93.2743 332.96634 94.61745 332.96634 96.2743Z" fill-rule="nonzero"/><path fill="#000000" fill-opacity="0.0" clip-path="url(#id_0)" d="M338.0 94.316666C338.0 95.97352 336.65686 97.316666 335.0 97.316666C333.34314 97.316666 332.0 95.97352 332.0 94.316666C332.0 92.65981 333.34314 91.316666 335.0 91.316666C336.65686 91.316666 338.0 92.65981 338.0 94.316666Z" fill-rule="nonzero"/><path fill="#000000" fill-opacity="0.0" clip-path="url(#id_0)" d="M343.03366 92.43579C343.03366 94.09264 341.69052 95.43579 340.03366 95.43579C338.3768 95.43579 337.03366 94.09264 337.03366 92.43579C337.03366 90.77894 338.3768 89.43579 340.03366 89.43579C341.69052 89.43579 343.03366 90.77894 343.03366 92.43579Z" fill-rule="nonzero"/><path fill="#000000" fill-opacity="0.0" clip-path="url(#id_0)" d="M348.06732 90.63014C348.06732 92.286995 346.72418 93.63014 345.06732 93.63014C343.41046 93.63014 342.06732 92.286995 342.06732 90.63014C342.06732 88.97328 343.41046 87.63014 345.06732 87.63014C346.72418 87.63014 348.06732 88.97328 348.06732 90.63014Z" fill-rule="nonzero"/><path fill="#000000" fill-opacity="0.0" clip-path="url(#id_0)" d="M353.10098 88.89818C353.10098 90.55503 351.75784 91.89818 350.10098 91.89818C348.44412 91.89818 347.10098 90.55503 347.10098 88.89818C347.10098 87.241325 348.44412 85.89818 350.10098 85.89818C351.75784 85.89818 353.10098 87.241325 353.10098 88.89818Z" fill-rule="nonzero"/><path fill="#000000" fill-opacity="0.0" clip-path="url(#id_0)" d="M358.13464 87.23837C358.13464 88.895226 356.7915 90.23837 355.13464 90.23837C353.4778 90.23837 352.13464 88.895226 352.13464 87.23837C352.13464 85.58152 353.4778 84.23837 355.13464 84.23837C356.7915 84.23837 358.13464 85.58152 358.13464 87.23837Z" fill-rule="nonzero"/><path fill="#000000" fill-opacity="0.0" clip-path="url(#id_0)" d="M363.1683 85.649185C363.1683 87.30604 361.82516 88.649185 360.1683 88.649185C358.51147 88.649185 357.1683 87.30604 357.1683 85.649185C357.1683 83.99233 358.51147 82.649185 360.1683 82.649185C361.82516 82.649185 363.1683 83.99233 363.1683 85.649185Z" fill-rule="nonzero"/><path fill="#000000" fill-opacity="0.0" clip-path="url(#id_0)" d="M368.20197 84.12908C368.20197 85.785934 366.85883 87.12908 365.20197 87.12908C363.54514 87.12908 362.20197 85.785934 362.20197 84.12908C362.20197 82.47223 363.54514 81.12908 365.20197 81.12908C366.85883 81.12908 368.20197 82.47223 368.20197 84.12908Z" fill-rule="nonzero"/><path fill="#000000" fill-opacity="0.0" clip-path="url(#id_0)" d="M373.23566 82.67652C373.23566 84.33338 371.8925 85.67652 370.23566 85.67652C368.5788 85.67652 367.23566 84.33338 367.23566 82.67652C367.23566 81.01967 368.5788 79.67652 370.23566 79.67652C371.8925 79.67652 373.23566 81.01967 373.23566 82.67652Z" fill-rule="nonzero"/><path fill="#000000" fill-opacity="0.0" clip-path="url(#id_0)" d="M378.26932 81.289986C378.26932 82.94684 376.92615 84.289986 375.26932 84.289986C373.61246 84.289986 372.26932 82.94684 372.26932 81.289986C372.26932 79.633125 373.61246 78.289986 375.26932 78.289986C376.92615 78.289986 378.26932 79.633125 378.26932 81.289986Z" fill-rule="nonzero"/><path fill="#000000" fill-opacity="0.0" clip-path="url(#id_0)" d="M383.30298 79.96792C383.30298 81.62477 381.95984 82.96792 380.30298 82.96792C378.64612 82.96792 377.30298 81.62477 377.30298 79.96792C377.30298 78.311066 378.64612 76.96792 380.30298 76.96792C381.95984 76.96792 383.30298 78.311066 383.30298 79.96792Z" fill-rule="nonzero"/><path fill="#000000" fill-opacity="0.0" clip-path="url(#id_0)" d="M388.33664 78.7088C388.33664 80.365654 386.9935 81.7088 385.33664 81.7088C383.67978 81.7088 382.33664 80.365654 382.33664 78.7088C382.33664 77.05195 383.67978 75.7088 385.33664 75.7088C386.9935 75.7088 388.33664 77.05195 388.33664 78.7088Z" fill-rule="nonzero"/><path fill="#000000" fill-opacity="0.0" clip-path="url(#id_0)" d="M393.3703 77.511086C393.3703 79.167946 392.02716 80.511086 390.3703 80.511086C388.71344 80.511086 387.3703 79.167946 387.3703 77.511086C387.3703 75.85423 388.71344 74.511086 390.3703 74.511086C392.02716 74.511086 393.3703 75.85423 393.3703 77.511086Z" fill-rule="nonzero"/><path fill="#000000" fill-opacity="0.0" clip-path="url(#id_0)" d="M398.40396 76.37325C398.40396 78.030106 397.06082 79.37325 395.40396 79.37325C393.7471 79.37325 392.40396 78.030106 392.40396 76.37325C392.40396 74.71639 393.7471 73.37325 395.40396 73.37325C397.06082 73.37325 398.40396 74.71639 398.40396 76.37325Z" fill-rule="nonzero"/><path fill="#000000" fill-opacity="0.0" clip-path="url(#id_0)" d="M403.43762 75.29375C403.43762 76.9506 402.09448 78.29375 400.43762 78.29375C398.78076 78.29375 397.43762 76.9506 397.43762 75.29375C397.43762 73.636894 398.78076 72.29375 400.43762 72.29375C402.09448 72.29375 403.43762 73.636894 403.43762 75.29375Z" fill-rule="nonzero"/><path fill="#000000" fill-opacity="0.0" clip-path="url(#id_0)" d="M408.47128 74.27105C408.47128 75.9279 407.12814 77.27105 405.47128 77.27105C403.81442 77.27105 402.47128 75.9279 402.47128 74.27105C402.47128 72.6142 403.81442 71.27105 405.47128 71.27105C407.12814 71.27105 408.47128 72.6142 408.47128 74.27105Z" fill-rule="nonzero"/><path fill="#000000" fill-opacity="0.0" clip-path="url(#id_0)" d="M413.50494 73.30362C413.50494 74.96047 412.1618 76.30362 410.50494 76.30362C408.84808 76.30362 407.50494 74.96047 407.50494 73.30362C407.50494 71.64676 408.84808 70.30362 410.50494 70.30362C412.1618 70.30362 413.50494 71.64676 413.50494 73.30362Z" fill-rule="nonzero"/><path fill="#000000" fill-opacity="0.0" clip-path="url(#id_0)" d="M418.5386 72.389915C418.5386 74.04677 417.19547 75.389915 415.5386 75.389915C413.88174 75.389915 412.5386 74.04677 412.5386 72.389915C412.5386 70.73306 413.88174 69.389915 415.5386 69.389915C417.19547 69.389915 418.5386 70.73306 418.5386 72.389915Z" fill-rule="nonzero"/><path fill="#000000" fill-opacity="0.0" clip-path="url(#id_0)" d="M423.57227 71.52841C423.57227 73.185265 422.22913 74.52841 420.57227 74.52841C418.91544 74.52841 417.57227 73.185265 417.57227 71.52841C417.57227 69.87156 418.91544 68.52841 420.57227 68.52841C422.22913 68.52841 423.57227 69.87156 423.57227 71.52841Z" fill-rule="nonzero"/><path fill="#000000" fill-opacity="0.0" clip-path="url(#id_0)" d="M428.60593 70.717575C428.60593 72.37443 427.2628 73.717575 425.60593 73.717575C423.9491 73.717575 422.60593 72.37443 422.60593 70.717575C422.60593 69.060715 423.9491 67.717575 425.60593 67.717575C427.2628 67.717575 428.60593 69.060715 428.60593 70.717575Z" fill-rule="nonzero"/><path fill="#000000" fill-opacity="0.0" clip-path="url(#id_0)" d="M433.63962 69.95586C433.63962 71.61271 432.29645 72.95586 430.63962 72.95586C428.98276 72.95586 427.63962 71.61271 427.63962 69.95586C427.63962 68.299 428.98276 66.95586 430.63962 66.95586C432.29645 66.95586 433.63962 68.299 433.63962 69.95586Z" fill-rule="nonzero"/><path fill="#000000" fill-opacity="0.0" clip-path="url(#id_0)" d="M438.67328 69.24173C438.67328 70.89859 437.3301 72.24173 435.67328 72.24173C434.01642 72.24173 432.67328 70.89859 432.67328 69.24173C432.67328 67.58488 434.01642 66.24173 435.67328 66.24173C437.3301 66.24173 438.67328 67.58488 438.67328 69.24173Z" fill-rule="nonzero"/><path fill="#000000" fill-opacity="0.0" clip-path="url(#id_0)" d="M443.70694 68.57366C443.70694 70.23052 442.3638 71.57366 440.70694 71.57366C439.05008 71.57366 437.70694 70.23052 437.70694 68.57366C437.70694 66.91681 439.05008 65.57366 440.70694 65.57366C442.3638 65.57366 443.70694 66.91681 443.70694 68.57366Z" fill-rule="nonzero"/><path fill="#000000" fill-opacity="0.0" clip-path="url(#id_0)" d="M448.7406 67.95012C448.7406 69.60697 447.39746 70.95012 445.7406 70.95012C444.08374 70.95012 442.7406 69.60697 442.7406 67.95012C442.7406 66.29327 444.08374 64.95012 445.7406 64.95012C447.39746 64.95012 448.7406 66.29327 448.7406 67.95012Z" fill-rule="nonzero"/><path fill="#000000" fill-opacity="0.0" clip-path="url(#id_0)" d="M453.77426 67.36956C453.77426 69.02641 452.43112 70.36956 450.77426 70.36956C449.1174 70.36956 447.77426 69.02641 447.77426 67.36956C447.77426 65.7127 449.1174 64.36956 450.77426 64.36956C452.43112 64.36956 453.77426 65.7127 453.77426 67.36956Z" fill-rule="nonzero"/><path fill="#000000" fill-opacity="0.0" clip-path="url(#id_0)" d="M458.80792 66.830444C458.80792 68.4873 457.46478 69.830444 455.80792 69.830444C454.15106 69.830444 452.80792 68.4873 452.80792 66.830444C452.80792 65.17359 454.15106 63.830444 455.80792 63.830444C457.46478 63.830444 458.80792 65.17359 458.80792 66.830444Z" fill-rule="nonzero"/><path fill="#000000" fill-opacity="0.0" clip-path="url(#id_0)" d="M463.84158 66.33125C463.84158 67.988106 462.49844 69.33125 460.84158 69.33125C459.18472 69.33125 457.84158 67.988106 457.84158 66.33125C457.84158 64.67439 459.18472 63.33125 460.84158 63.33125C462.49844 63.33125 463.84158 64.67439 463.84158 66.33125Z" fill-rule="nonzero"/><path fill="#000000" fill-opacity="0.0" clip-path="url(#id_0)" d="M468.87524 65.87044C468.87524 67.52729 467.5321 68.87044 465.87524 68.87044C464.21838 68.87044 462.87524 67.52729 462.87524 65.87044C462.87524 64.21358 464.21838 62.870434 465.87524 62.870434C467.5321 62.870434 468.87524 64.21358 468.87524 65.87044Z" fill-rule="nonzero"/><path fill="#000000" fill-opacity="0.0" clip-path="url(#id_0)" d="M473.9089 65.446465C473.9089 67.10332 472.56577 68.446465 470.9089 68.446465C469.25204 68.446465 467.9089 67.10332 467.9089 65.446465C467.9089 63.789608 469.25204 62.446465 470.9089 62.446465C472.56577 62.446465 473.9089 63.789608 473.9089 65.446465Z" fill-rule="nonzero"/><path fill="#000000" fill-opacity="0.0" clip-path="url(#id_0)" d="M478.94257 65.0578C478.94257 66.71465 477.59943 68.0578 475.94257 68.0578C474.2857 68.0578 472.94257 66.71465 472.94257 65.0578C472.94257 63.400948 474.2857 62.0578 475.94257 62.0578C477.59943 62.0578 478.94257 63.400948 478.94257 65.0578Z" fill-rule="nonzero"/><path fill="#000000" fill-opacity="0.0" clip-path="url(#id_0)" d="M483.97623 64.70291C483.97623 66.35977 482.6331 67.70291 480.97623 67.70291C479.3194 67.70291 477.97623 66.35977 477.97623 64.70291C477.97623 63.04606 479.3194 61.702915 480.97623 61.702915C482.6331 61.702915 483.97623 63.04606 483.97623 64.70291Z" fill-rule="nonzero"/><path fill="#000000" fill-opacity="0.0" clip-path="url(#id_0)" d="M489.0099 64.380264C489.0099 66.037125 487.66675 67.380264 486.0099 67.380264C484.35306 67.380264 483.0099 66.037125 483.0099 64.380264C483.0099 62.72341 484.35306 61.38027 486.0099 61.38027C487.66675 61.38027 489.0099 62.72341 489.0099 64.380264Z" fill-rule="nonzero"/><path fill="#000000" fill-opacity="0.0" clip-path="url(#id_0)" d="M494.04358 64.088326C494.04358 65.74518 492.7004 67.088326 491.04358 67.088326C489.38672 67.088326 488.04358 65.74518 488.04358 64.088326C488.04358 62.43147 489.38672 61.08832 491.04358 61.08832C492.7004 61.08832 494.04358 62.43147 494.04358 64.088326Z" fill-rule="nonzero"/><path fill="#000000" fill-opacity="0.0" clip-path="url(#id_0)" d="M499.07724 63.825546C499.07724 65.4824 497.73407 66.82555 496.07724 66.82555C494.42038 66.82555 493.07724 65.4824 493.07724 63.825546C493.07724 62.168694 494.42038 60.825546 496.07724 60.825546C497.73407 60.825546 499.07724 62.168694 499.07724 63.825546Z" fill-rule="nonzero"/><path fill="#000000" fill-opacity="0.0" clip-path="url(#id_0)" d="M504.1109 63.590405C504.1109 65.24726 502.76773 66.59041 501.1109 66.59041C499.45404 66.59041 498.1109 65.24726 498.1109 63.590405C498.1109 61.93355 499.45404 60.590405 501.1109 60.590405C502.76773 60.590405 504.1109 61.93355 504.1109 63.590405Z" fill-rule="nonzero"/><path fill="#000000" fill-opacity="0.0" clip-path="url(#id_0)" d="M509.14456 63.381363C509.14456 65.038216 507.80142 66.38136 506.14456 66.38136C504.4877 66.38136 503.14456 65.038216 503.14456 63.381363C503.14456 61.72451 504.4877 60.381363 506.14456 60.381363C507.80142 60.381363 509.14456 61.72451 509.14456 63.381363Z" fill-rule="nonzero"/><path fill="#000000" fill-opacity="0.0" clip-path="url(#id_0)" d="M514.1782 63.196884C514.1782 64.85374 512.8351 66.196884 511.17822 66.196884C509.52136 66.196884 508.17822 64.85374 508.17822 63.196884C508.17822 61.540028 509.52136 60.196884 511.17822 60.196884C512.8351 60.196884 514.1782 61.540028 514.1782 63.196884Z" fill-rule="nonzero"/><path fill="#000000" fill-opacity="0.0" clip-path="url(#id_0)" d="M519.21185 63.03543C519.21185 64.69228 517.8687 66.03543 516.21185 66.03543C514.55505 66.03543 513.21185 64.69228 513.21185 63.03543C513.21185 61.37858 514.55505 60.03543 516.21185 60.03543C517.8687 60.03543 519.21185 61.37858 519.21185 63.03543Z" fill-rule="nonzero"/><path fill="#000000" fill-opacity="0.0" clip-path="url(#id_0)" d="M524.24554 62.895473C524.24554 64.55233 522.9024 65.89547 521.24554 65.89547C519.5887 65.89547 518.24554 64.55233 518.24554 62.895473C518.24554 61.238617 519.5887 59.895473 521.24554 59.895473C522.9024 59.895473 524.24554 61.238617 524.24554 62.895473Z" fill-rule="nonzero"/><path fill="#000000" fill-opacity="0.0" clip-path="url(#id_0)" d="M529.27924 62.77547C529.27924 64.43233 527.93604 65.775475 526.27924 65.775475C524.6224 65.775475 523.27924 64.43233 523.27924 62.77547C523.27924 61.118618 524.6224 59.77547 526.27924 59.77547C527.93604 59.77547 529.27924 61.118618 529.27924 62.77547Z" fill-rule="nonzero"/><path fill="#000000" fill-opacity="0.0" clip-path="url(#id_0)" d="M534.31287 62.673893C534.31287 64.33075 532.9697 65.67389 531.31287 65.67389C529.656 65.67389 528.31287 64.33075 528.31287 62.673893C528.31287 61.017036 529.656 59.673893 531.31287 59.673893C532.9697 59.673893 534.31287 61.017036 534.31287 62.673893Z" fill-rule="nonzero"/><path fill="#000000" fill-opacity="0.0" clip-path="url(#id_0)" d="M539.34656 62.5892C539.34656 64.246056 538.0034 65.5892 536.34656 65.5892C534.6897 65.5892 533.34656 64.246056 533.34656 62.5892C533.34656 60.932346 534.6897 59.5892 536.34656 59.5892C538.0034 59.5892 539.34656 60.932346 539.34656 62.5892Z" fill-rule="nonzero"/><path fill="#000000" fill-opacity="0.0" clip-path="url(#id_0)" d="M544.3802 62.51986C544.3802 64.17671 543.03705 65.51986 541.3802 65.51986C539.7233 65.51986 538.3802 64.17671 538.3802 62.51986C538.3802 60.863007 539.7233 59.51986 541.3802 59.51986C543.03705 59.51986 544.3802 60.863007 544.3802 62.51986Z" fill-rule="nonzero"/><path fill="#000000" fill-opacity="0.0" clip-path="url(#id_0)" d="M549.4139 62.464336C549.4139 64.12119 548.07074 65.46434 546.4139 65.46434C544.757 65.46434 543.4139 64.12119 543.4139 62.464336C543.4139 60.807484 544.757 59.464336 546.4139 59.464336C548.07074 59.464336 549.4139 60.807484 549.4139 62.464336Z" fill-rule="nonzero"/><path fill="#000000" fill-opacity="0.0" clip-path="url(#id_0)" d="M554.4475 62.421097C554.4475 64.07795 553.1044 65.4211 551.4475 65.4211C549.79065 65.4211 548.4475 64.07795 548.4475 62.421097C548.4475 60.76424 549.79065 59.421097 551.4475 59.421097C553.1044 59.421097 554.4475 60.76424 554.4475 62.421097Z" fill-rule="nonzero"/><path fill="#000000" fill-opacity="0.0" clip-path="url(#id_0)" d="M559.4812 62.3886C559.4812 64.045456 558.13806 65.3886 556.4812 65.3886C554.82434 65.3886 553.4812 64.045456 553.4812 62.3886C553.4812 60.731747 554.82434 59.3886 556.4812 59.3886C558.13806 59.3886 559.4812 60.731747 559.4812 62.3886Z" fill-rule="nonzero"/><path fill="#000000" fill-opacity="0.0" clip-path="url(#id_0)" d="M564.51483 62.36532C564.51483 64.02217 563.1717 65.36532 561.51483 65.36532C559.858 65.36532 558.51483 64.02217 558.51483 62.36532C558.51483 60.70846 559.858 59.36532 561.51483 59.36532C563.1717 59.36532 564.51483 60.70846 564.51483 62.36532Z" fill-rule="nonzero"/><path fill="#000000" fill-opacity="0.0" clip-path="url(#id_0)" d="M569.5485 62.34971C569.5485 64.00656 568.2054 65.34971 566.5485 65.34971C564.89166 65.34971 563.5485 64.00656 563.5485 62.34971C563.5485 60.692856 564.89166 59.34971 566.5485 59.34971C568.2054 59.34971 569.5485 60.692856 569.5485 62.34971Z" fill-rule="nonzero"/><path fill="#000000" fill-opacity="0.0" clip-path="url(#id_0)" d="M574.58215 62.34024C574.58215 63.997097 573.239 65.34024 571.58215 65.34024C569.92535 65.34024 568.58215 63.997097 568.58215 62.34024C568.58215 60.683388 569.92535 59.34024 571.58215 59.34024C573.239 59.34024 574.58215 60.683388 574.58215 62.34024Z" fill-rule="nonzero"/><path fill="#000000" fill-opacity="0.0" clip-path="url(#id_0)" d="M579.61584 62.33538C579.61584 63.992233 578.2727 65.33538 576.61584 65.33538C574.959 65.33538 573.61584 63.992233 573.61584 62.33538C573.61584 60.678528 574.959 59.33538 576.61584 59.33538C578.2727 59.33538 579.61584 60.678528 579.61584 62.33538Z" fill-rule="nonzero"/><path fill="#000000" fill-opacity="0.0" clip-path="url(#id_0)" d="M584.6495 62.333588C584.6495 63.990444 583.30634 65.33359 581.6495 65.33359C579.9927 65.33359 578.6495 63.990444 578.6495 62.333588C578.6495 60.676735 579.9927 59.333588 581.6495 59.333588C583.30634 59.333588 584.6495 60.676735 584.6495 62.333588Z" fill-rule="nonzero"/><path fill="#000000" fill-opacity="0.0" clip-path="url(#id_0)" d="M589.68317 62.333332C589.68317 63.99019 588.34 65.333336 586.68317 65.333336C585.0263 65.333336 583.68317 63.99019 583.68317 62.333332C583.68317 60.67648 585.0263 59.333332 586.68317 59.333332C588.34 59.333332 589.68317 60.67648 589.68317 62.333332Z" fill-rule="nonzero"/><path fill="#000000" d="M336.59375 353.2625L336.75 354.1844Q336.29688 354.27814 335.95312 354.27814Q335.375 354.27814 335.0625 354.10626Q334.75 353.91876 334.60938 353.6219Q334.48438 353.325 334.48438 352.3719L334.48438 348.79376L333.71875 348.79376L333.71875 347.98126L334.48438 347.98126L334.48438 346.4344L335.53125 345.8094L335.53125 347.98126L336.59375 347.98126L336.59375 348.79376L335.53125 348.79376L335.53125 352.4344Q335.53125 352.8875 335.57812 353.0125Q335.64062 353.1375 335.76562 353.21564Q335.89062 353.29376 336.125 353.29376Q336.3125 353.29376 336.59375 353.2625Z" fill-rule="nonzero"/><path fill="#000000" d="M29.800013 192.67291L26.565638 190.40729L23.581263 192.50104L23.581263 191.18854L25.034388 190.23541Q25.456263 189.96979 25.737513 189.79791Q25.346888 189.54791 25.050013 189.32916L23.581263 188.28229L23.581263 187.01666L26.503138 189.17291L29.800013 186.86041L29.800013 188.14166L27.862513 189.42291L27.346888 189.76666L29.800013 191.40729L29.800013 192.67291Z" fill-rule="nonzero"/><path fill="#000000" d="M51.3 317.96564Q51.3 316.4344 51.6125 315.5125Q51.925 314.575 52.534374 314.075Q53.159374 313.575 54.096874 313.575Q54.784374 313.575 55.3 313.85626Q55.83125 314.1375 56.175 314.66876Q56.51875 315.1844 56.70625 315.9344Q56.89375 316.6844 56.89375 317.96564Q56.89375 319.48126 56.58125 320.40314Q56.284374 321.325 55.659374 321.84064Q55.05 322.34064 54.096874 322.34064Q52.8625 322.34064 52.14375 321.45Q51.3 320.3875 51.3 317.96564ZM52.378124 317.96564Q52.378124 320.075 52.878124 320.77814Q53.378124 321.48126 54.096874 321.48126Q54.83125 321.48126 55.315624 320.77814Q55.815624 320.075 55.815624 317.96564Q55.815624 315.84064 55.315624 315.15314Q54.83125 314.45 54.08125 314.45Q53.3625 314.45 52.925 315.0594Q52.378124 315.84064 52.378124 317.96564ZM58.89375 322.2L58.89375 320.9969L60.096874 320.9969L60.096874 322.2L58.89375 322.2ZM61.3 317.96564Q61.3 316.4344 61.6125 315.5125Q61.925 314.575 62.534374 314.075Q63.159374 313.575 64.09688 313.575Q64.78438 313.575 65.3 313.85626Q65.83125 314.1375 66.175 314.66876Q66.51875 315.1844 66.70625 315.9344Q66.89375 316.6844 66.89375 317.96564Q66.89375 319.48126 66.58125 320.40314Q66.28438 321.325 65.65938 321.84064Q65.05 322.34064 64.09688 322.34064Q62.8625 322.34064 62.14375 321.45Q61.3 320.3875 61.3 317.96564ZM62.378124 317.96564Q62.378124 320.075 62.878124 320.77814Q63.378124 321.48126 64.09688 321.48126Q64.83125 321.48126 65.31563 320.77814Q65.81563 320.075 65.81563 317.96564Q65.81563 315.84064 65.31563 315.15314Q64.83125 314.45 64.08125 314.45Q63.3625 314.45 62.925 315.0594Q62.378124 315.84064 62.378124 317.96564ZM68.3 317.96564Q68.3 316.4344 68.6125 315.5125Q68.925 314.575 69.53438 314.075Q70.15938 313.575 71.09688 313.575Q71.78438 313.575 72.3 313.85626Q72.83125 314.1375 73.175 314.66876Q73.51875 315.1844 73.70625 315.9344Q73.89375 316.6844 73.89375 317.96564Q73.89375 319.48126 73.58125 320.40314Q73.28438 321.325 72.65938 321.84064Q72.05 322.34064 71.09688 322.34064Q69.8625 322.34064 69.14375 321.45Q68.3 320.3875 68.3 317.96564ZM69.37813 317.96564Q69.37813 320.075 69.87813 320.77814Q70.37813 321.48126 71.09688 321.48126Q71.83125 321.48126 72.31563 320.77814Q72.81563 320.075 72.81563 317.96564Q72.81563 315.84064 72.31563 315.15314Q71.83125 314.45 71.08125 314.45Q70.3625 314.45 69.925 315.0594Q69.37813 315.84064 69.37813 317.96564Z" fill-rule="nonzero"/><path fill="#000000" d="M51.3 253.99896Q51.3 252.46771 51.6125 251.54584Q51.925 250.60834 52.534374 250.10834Q53.159374 249.60834 54.096874 249.60834Q54.784374 249.60834 55.3 249.88959Q55.83125 250.17084 56.175 250.70209Q56.51875 251.21771 56.70625 251.96771Q56.89375 252.71771 56.89375 253.99896Q56.89375 255.51459 56.58125 256.43646Q56.284374 257.35834 55.659374 257.87396Q55.05 258.37396 54.096874 258.37396Q52.8625 258.37396 52.14375 257.48334Q51.3 256.42084 51.3 253.99896ZM52.378124 253.99896Q52.378124 256.10834 52.878124 256.81146Q53.378124 257.5146 54.096874 257.5146Q54.83125 257.5146 55.315624 256.81146Q55.815624 256.10834 55.815624 253.99896Q55.815624 251.87396 55.315624 251.18646Q54.83125 250.48334 54.08125 250.48334Q53.3625 250.48334 52.925 251.09271Q52.378124 251.87396 52.378124 253.99896ZM58.89375 258.23334L58.89375 257.0302L60.096874 257.0302L60.096874 258.23334L58.89375 258.23334ZM66.84688 257.2177L66.84688 258.23334L61.159374 258.23334Q61.159374 257.85834 61.284374 257.49896Q61.503124 256.92084 61.971874 256.35834Q62.45625 255.79584 63.3625 255.06146Q64.76875 253.90521 65.25313 253.23334Q65.75313 252.56146 65.75313 251.96771Q65.75313 251.34271 65.3 250.92084Q64.84688 250.48334 64.12813 250.48334Q63.3625 250.48334 62.909374 250.93646Q62.45625 251.38959 62.440624 252.20209L61.3625 252.09271Q61.471874 250.87396 62.190624 250.24896Q62.925 249.60834 64.15938 249.60834Q65.39375 249.60834 66.1125 250.29584Q66.83125 250.98334 66.83125 251.99896Q66.83125 252.51459 66.6125 253.01459Q66.40938 253.49896 65.90938 254.06146Q65.425 254.60834 64.3 255.56146Q63.346874 256.35834 63.065624 256.6552Q62.8 256.93646 62.628124 257.2177L66.84688 257.2177ZM68.3 255.98334L69.40938 255.88959Q69.53438 256.7021 69.97188 257.10834Q70.425 257.5146 71.06563 257.5146Q71.81563 257.5146 72.34688 256.93646Q72.87813 256.35834 72.87813 255.42084Q72.87813 254.51459 72.3625 253.99896Q71.8625 253.46771 71.03438 253.46771Q70.53438 253.46771 70.1125 253.70209Q69.70625 253.93646 69.47188 254.29584L68.4875 254.17084L69.31563 249.76459L73.59688 249.76459L73.59688 250.76459L70.15938 250.76459L69.70625 253.07709Q70.47188 252.53021 71.31563 252.53021Q72.44063 252.53021 73.20625 253.31146Q73.9875 254.09271 73.9875 255.32709Q73.9875 256.48334 73.31563 257.3427Q72.4875 258.37396 71.06563 258.37396Q69.89375 258.37396 69.14375 257.7177Q68.40938 257.06146 68.3 255.98334Z" fill-rule="nonzero"/><path fill="#000000" d="M51.3 190.03229Q51.3 188.50104 51.6125 187.57916Q51.925 186.64166 52.534374 186.14166Q53.159374 185.64166 54.096874 185.64166Q54.784374 185.64166 55.3 185.92291Q55.83125 186.20416 56.175 186.73541Q56.51875 187.25104 56.70625 188.00104Q56.89375 188.75104 56.89375 190.03229Q56.89375 191.54791 56.58125 192.46979Q56.284374 193.39166 55.659374 193.90729Q55.05 194.40729 54.096874 194.40729Q52.8625 194.40729 52.14375 193.51666Q51.3 192.45416 51.3 190.03229ZM52.378124 190.03229Q52.378124 192.14166 52.878124 192.84479Q53.378124 193.54791 54.096874 193.54791Q54.83125 193.54791 55.315624 192.84479Q55.815624 192.14166 55.815624 190.03229Q55.815624 187.90729 55.315624 187.21979Q54.83125 186.51666 54.08125 186.51666Q53.3625 186.51666 52.925 187.12604Q52.378124 187.90729 52.378124 190.03229ZM58.89375 194.26666L58.89375 193.06354L60.096874 193.06354L60.096874 194.26666L58.89375 194.26666ZM61.3 192.01666L62.409374 191.92291Q62.534374 192.73541 62.971874 193.14166Q63.425 193.54791 64.06563 193.54791Q64.81563 193.54791 65.34688 192.96979Q65.87813 192.39166 65.87813 191.45416Q65.87813 190.54791 65.3625 190.03229Q64.8625 189.50104 64.03438 189.50104Q63.534374 189.50104 63.1125 189.73541Q62.70625 189.96979 62.471874 190.32916L61.4875 190.20416L62.315624 185.79791L66.59688 185.79791L66.59688 186.79791L63.159374 186.79791L62.70625 189.11041Q63.471874 188.56354 64.31563 188.56354Q65.44063 188.56354 66.20625 189.34479Q66.9875 190.12604 66.9875 191.36041Q66.9875 192.51666 66.31563 193.37604Q65.4875 194.40729 64.06563 194.40729Q62.89375 194.40729 62.14375 193.75104Q61.409374 193.09479 61.3 192.01666ZM68.3 190.03229Q68.3 188.50104 68.6125 187.57916Q68.925 186.64166 69.53438 186.14166Q70.15938 185.64166 71.09688 185.64166Q71.78438 185.64166 72.3 185.92291Q72.83125 186.20416 73.175 186.73541Q73.51875 187.25104 73.70625 188.00104Q73.89375 188.75104 73.89375 190.03229Q73.89375 191.54791 73.58125 192.46979Q73.28438 193.39166 72.65938 193.90729Q72.05 194.40729 71.09688 194.40729Q69.8625 194.40729 69.14375 193.51666Q68.3 192.45416 68.3 190.03229ZM69.37813 190.03229Q69.37813 192.14166 69.87813 192.84479Q70.37813 193.54791 71.09688 193.54791Q71.83125 193.54791 72.31563 192.84479Q72.81563 192.14166 72.81563 190.03229Q72.81563 187.90729 72.31563 187.21979Q71.83125 186.51666 71.08125 186.51666Q70.3625 186.51666 69.925 187.12604Q69.37813 187.90729 69.37813 190.03229Z" fill-rule="nonzero"/><path fill="#000000" d="M51.3 126.06563Q51.3 124.53438 51.6125 123.6125Q51.925 122.675 52.534374 122.175Q53.159374 121.675 54.096874 121.675Q54.784374 121.675 55.3 121.95625Q55.83125 122.2375 56.175 122.76875Q56.51875 123.28438 56.70625 124.03438Q56.89375 124.78438 56.89375 126.06563Q56.89375 127.58125 56.58125 128.50313Q56.284374 129.425 55.659374 129.94063Q55.05 130.44063 54.096874 130.44063Q52.8625 130.44063 52.14375 129.55Q51.3 128.4875 51.3 126.06563ZM52.378124 126.06563Q52.378124 128.175 52.878124 128.87813Q53.378124 129.58125 54.096874 129.58125Q54.83125 129.58125 55.315624 128.87813Q55.815624 128.175 55.815624 126.06563Q55.815624 123.94063 55.315624 123.25313Q54.83125 122.55 54.08125 122.55Q53.3625 122.55 52.925 123.15938Q52.378124 123.94063 52.378124 126.06563ZM58.89375 130.3L58.89375 129.09688L60.096874 129.09688L60.096874 130.3L58.89375 130.3ZM61.3625 122.83125L61.3625 121.81563L66.925 121.81563L66.925 122.64375Q66.1125 123.51875 65.3 124.97188Q64.50313 126.40938 64.06563 127.94063Q63.7375 129.01875 63.659374 130.3L62.565624 130.3Q62.58125 129.28438 62.95625 127.84688Q63.346874 126.40938 64.05 125.08125Q64.76875 123.75313 65.58125 122.83125L61.3625 122.83125ZM68.3 128.05L69.40938 127.95625Q69.53438 128.76875 69.97188 129.175Q70.425 129.58125 71.06563 129.58125Q71.81563 129.58125 72.34688 129.00313Q72.87813 128.425 72.87813 127.4875Q72.87813 126.58125 72.3625 126.06563Q71.8625 125.53438 71.03438 125.53438Q70.53438 125.53438 70.1125 125.76875Q69.70625 126.00313 69.47188 126.3625L68.4875 126.2375L69.31563 121.83125L73.59688 121.83125L73.59688 122.83125L70.15938 122.83125L69.70625 125.14375Q70.47188 124.59688 71.31563 124.59688Q72.44063 124.59688 73.20625 125.37813Q73.9875 126.15938 73.9875 127.39375Q73.9875 128.55 73.31563 129.40938Q72.4875 130.44063 71.06563 130.44063Q69.89375 130.44063 69.14375 129.78438Q68.40938 129.12813 68.3 128.05Z" fill-rule="nonzero"/><path fill="#000000" d="M55.26875 66.333336L54.221874 66.333336L54.221874 59.614586Q53.83125 59.97396 53.20625 60.34896Q52.596874 60.708336 52.1125 60.88021L52.1125 59.864586Q52.9875 59.44271 53.64375 58.864586Q54.315624 58.270836 54.596874 57.708336L55.26875 57.708336L55.26875 66.333336ZM58.89375 66.333336L58.89375 65.13021L60.096874 65.13021L60.096874 66.333336L58.89375 66.333336ZM61.3 62.09896Q61.3 60.56771 61.6125 59.645836Q61.925 58.708336 62.534374 58.208336Q63.159374 57.708336 64.09688 57.708336Q64.78438 57.708336 65.3 57.989586Q65.83125 58.270836 66.175 58.802086Q66.51875 59.31771 66.70625 60.06771Q66.89375 60.81771 66.89375 62.09896Q66.89375 63.614586 66.58125 64.53646Q66.28438 65.458336 65.65938 65.97396Q65.05 66.47396 64.09688 66.47396Q62.8625 66.47396 62.14375 65.583336Q61.3 64.520836 61.3 62.09896ZM62.378124 62.09896Q62.378124 64.208336 62.878124 64.91146Q63.378124 65.614586 64.09688 65.614586Q64.83125 65.614586 65.31563 64.91146Q65.81563 64.208336 65.81563 62.09896Q65.81563 59.97396 65.31563 59.28646Q64.83125 58.583336 64.08125 58.583336Q63.3625 58.583336 62.925 59.19271Q62.378124 59.97396 62.378124 62.09896ZM68.3 62.09896Q68.3 60.56771 68.6125 59.645836Q68.925 58.708336 69.53438 58.208336Q70.15938 57.708336 71.09688 57.708336Q71.78438 57.708336 72.3 57.989586Q72.83125 58.270836 73.175 58.802086Q73.51875 59.31771 73.70625 60.06771Q73.89375 60.81771 73.89375 62.09896Q73.89375 63.614586 73.58125 64.53646Q73.28438 65.458336 72.65938 65.97396Q72.05 66.47396 71.09688 66.47396Q69.8625 66.47396 69.14375 65.583336Q68.3 64.520836 68.3 62.09896ZM69.37813 62.09896Q69.37813 64.208336 69.87813 64.91146Q70.37813 65.614586 71.09688 65.614586Q71.83125 65.614586 72.31563 64.91146Q72.81563 64.208336 72.81563 62.09896Q72.81563 59.97396 72.31563 59.28646Q71.83125 58.583336 71.08125 58.583336Q70.3625 58.583336 69.925 59.19271Q69.37813 59.97396 69.37813 62.09896Z" fill-rule="nonzero"/><path fill="#757575" d="M20.378124 37.8L20.378124 23.4875L30.7375 23.4875L30.7375 25.175L22.284374 25.175L22.284374 29.55L30.190624 29.55L30.190624 31.2375L22.284374 31.2375L22.284374 36.1125L31.065624 36.1125L31.065624 37.8L20.378124 37.8ZM39.89375 36.51875Q38.909374 37.346874 38.003124 37.690624Q37.096874 38.034374 36.065624 38.034374Q34.3625 38.034374 33.440624 37.20625Q32.51875 36.3625 32.51875 35.065624Q32.51875 34.3 32.8625 33.675Q33.221874 33.05 33.784374 32.675Q34.346874 32.284374 35.05 32.08125Q35.565624 31.95625 36.6125 31.815624Q38.7375 31.565624 39.7375 31.221874Q39.753124 30.8625 39.753124 30.753124Q39.753124 29.690624 39.253124 29.2375Q38.58125 28.64375 37.253124 28.64375Q36.003124 28.64375 35.409374 29.08125Q34.83125 29.51875 34.55 30.628124L32.83125 30.39375Q33.065624 29.284374 33.596874 28.6125Q34.128124 27.925 35.14375 27.565624Q36.159374 27.190624 37.503124 27.190624Q38.83125 27.190624 39.659374 27.503124Q40.4875 27.815624 40.878124 28.3Q41.26875 28.76875 41.425 29.4875Q41.51875 29.940624 41.51875 31.1125L41.51875 33.45625Q41.51875 35.909374 41.628124 36.565624Q41.7375 37.20625 42.08125 37.8L40.2375 37.8Q39.971874 37.253124 39.89375 36.51875ZM39.7375 32.596874Q38.784374 32.9875 36.8625 33.253124Q35.784374 33.409374 35.33125 33.6125Q34.89375 33.8 34.64375 34.175Q34.39375 34.55 34.39375 35.01875Q34.39375 35.721874 34.925 36.190624Q35.45625 36.659374 36.4875 36.659374Q37.503124 36.659374 38.284374 36.221874Q39.08125 35.76875 39.45625 35.003124Q39.7375 34.39375 39.7375 33.2375L39.7375 32.596874ZM43.409374 34.70625L45.159374 34.425Q45.3 35.471874 45.971874 36.034374Q46.64375 36.58125 47.846874 36.58125Q49.05 36.58125 49.628124 36.096874Q50.221874 35.596874 50.221874 34.940624Q50.221874 34.346874 49.70625 34.003124Q49.346874 33.76875 47.909374 33.409374Q45.971874 32.909374 45.221874 32.565624Q44.4875 32.20625 44.096874 31.58125Q43.70625 30.940624 43.70625 30.175Q43.70625 29.4875 44.01875 28.89375Q44.346874 28.3 44.89375 27.909374Q45.3 27.6125 46.003124 27.409374Q46.721874 27.190624 47.534374 27.190624Q48.753124 27.190624 49.675 27.55Q50.596874 27.89375 51.034374 28.503124Q51.471874 29.096874 51.64375 30.096874L49.925 30.33125Q49.8 29.534374 49.2375 29.096874Q48.675 28.64375 47.659374 28.64375Q46.440624 28.64375 45.925 29.05Q45.409374 29.440624 45.409374 29.971874Q45.409374 30.315624 45.628124 30.596874Q45.83125 30.878124 46.3 31.065624Q46.565624 31.159374 47.846874 31.503124Q49.721874 32.003124 50.45625 32.33125Q51.190624 32.64375 51.6125 33.253124Q52.034374 33.846874 52.034374 34.753124Q52.034374 35.628124 51.51875 36.409374Q51.003124 37.190624 50.034374 37.6125Q49.065624 38.034374 47.846874 38.034374Q45.83125 38.034374 44.76875 37.190624Q43.70625 36.346874 43.409374 34.70625ZM61.221874 34.45625L63.034374 34.690624Q62.6125 36.26875 61.440624 37.159374Q60.284374 38.034374 58.471874 38.034374Q56.20625 38.034374 54.8625 36.64375Q53.534374 35.2375 53.534374 32.70625Q53.534374 30.08125 54.878124 28.64375Q56.221874 27.190624 58.378124 27.190624Q60.45625 27.190624 61.76875 28.6125Q63.096874 30.01875 63.096874 32.596874Q63.096874 32.753124 63.08125 33.065624L55.346874 33.065624Q55.440624 34.76875 56.315624 35.675Q57.190624 36.58125 58.4875 36.58125Q59.45625 36.58125 60.128124 36.08125Q60.815624 35.565624 61.221874 34.45625ZM55.440624 31.6125L61.2375 31.6125Q61.128124 30.315624 60.58125 29.659374Q59.7375 28.64375 58.39375 28.64375Q57.190624 28.64375 56.3625 29.45625Q55.534374 30.253124 55.440624 31.6125ZM64.76875 30.83125Q64.76875 27.26875 66.675 25.253124Q68.59688 23.221874 71.62813 23.221874Q73.6125 23.221874 75.19063 24.175Q76.78438 25.128124 77.6125 26.83125Q78.45625 28.51875 78.45625 30.659374Q78.45625 32.83125 77.58125 34.55Q76.70625 36.26875 75.08125 37.159374Q73.47188 38.05 71.6125 38.05Q69.59688 38.05 68.00313 37.08125Q66.40938 36.096874 65.58125 34.409374Q64.76875 32.70625 64.76875 30.83125ZM66.72188 30.8625Q66.72188 33.440624 68.1125 34.940624Q69.50313 36.425 71.59688 36.425Q73.7375 36.425 75.1125 34.925Q76.50313 33.409374 76.50313 30.64375Q76.50313 28.909374 75.90938 27.6125Q75.33125 26.3 74.19063 25.58125Q73.05 24.8625 71.62813 24.8625Q69.62813 24.8625 68.175 26.253124Q66.72188 27.628124 66.72188 30.8625ZM87.90938 37.8L87.90938 36.26875Q86.70625 38.034374 84.62813 38.034374Q83.70625 38.034374 82.90938 37.690624Q82.1125 37.33125 81.72188 36.8Q81.34688 36.26875 81.19063 35.4875Q81.08125 34.971874 81.08125 33.846874L81.08125 27.425L82.83125 27.425L82.83125 33.175Q82.83125 34.55 82.94063 35.034374Q83.1125 35.721874 83.64375 36.128124Q84.19063 36.51875 84.97188 36.51875Q85.76875 36.51875 86.45625 36.1125Q87.15938 35.70625 87.44063 35.01875Q87.7375 34.315624 87.7375 32.9875L87.7375 27.425L89.4875 27.425L89.4875 37.8L87.90938 37.8ZM94.95625 36.221874L95.20625 37.784374Q94.47188 37.940624 93.87813 37.940624Q92.925 37.940624 92.39375 37.64375Q91.87813 37.33125 91.65938 36.846874Q91.44063 36.346874 91.44063 34.76875L91.44063 28.8L90.15938 28.8L90.15938 27.425L91.44063 27.425L91.44063 24.8625L93.19063 23.8L93.19063 27.425L94.95625 27.425L94.95625 28.8L93.19063 28.8L93.19063 34.8625Q93.19063 35.6125 93.28438 35.83125Q93.37813 36.034374 93.58125 36.175Q93.8 36.3 94.19063 36.3Q94.47188 36.3 94.95625 36.221874ZM107.56563 32.784374L109.45625 33.253124Q108.8625 35.596874 107.31563 36.83125Q105.76875 38.05 103.51875 38.05Q101.20625 38.05 99.75313 37.1125Q98.31563 36.159374 97.55 34.378124Q96.8 32.58125 96.8 30.534374Q96.8 28.3 97.64375 26.64375Q98.50313 24.971874 100.08125 24.1125Q101.65938 23.2375 103.55 23.2375Q105.70625 23.2375 107.15938 24.33125Q108.62813 25.425 109.20625 27.409374L107.34688 27.846874Q106.84688 26.284374 105.89375 25.58125Q104.95625 24.8625 103.51875 24.8625Q101.8625 24.8625 100.75313 25.659374Q99.64375 26.440624 99.19063 27.784374Q98.75313 29.1125 98.75313 30.51875Q98.75313 32.346874 99.28438 33.721874Q99.81563 35.08125 100.94063 35.753124Q102.06563 36.425 103.3625 36.425Q104.95625 36.425 106.06563 35.503124Q107.175 34.58125 107.56563 32.784374ZM117.90938 37.8L117.90938 36.26875Q116.70625 38.034374 114.62813 38.034374Q113.70625 38.034374 112.90938 37.690624Q112.1125 37.33125 111.72188 36.8Q111.34688 36.26875 111.19063 35.4875Q111.08125 34.971874 111.08125 33.846874L111.08125 27.425L112.83125 27.425L112.83125 33.175Q112.83125 34.55 112.94063 35.034374Q113.1125 35.721874 113.64375 36.128124Q114.19063 36.51875 114.97188 36.51875Q115.76875 36.51875 116.45625 36.1125Q117.15938 35.70625 117.44063 35.01875Q117.7375 34.315624 117.7375 32.9875L117.7375 27.425L119.4875 27.425L119.4875 37.8L117.90938 37.8ZM122.7375 37.8L121.1125 37.8L121.1125 23.4875L122.8625 23.4875L122.8625 28.596874Q123.9875 27.190624 125.70625 27.190624Q126.65938 27.190624 127.51875 27.58125Q128.37813 27.971874 128.925 28.675Q129.47188 29.3625 129.78438 30.346874Q130.09688 31.33125 130.09688 32.45625Q130.09688 35.128124 128.78438 36.58125Q127.47188 38.034374 125.62813 38.034374Q123.78438 38.034374 122.7375 36.503124L122.7375 37.8ZM122.72188 32.534374Q122.72188 34.39375 123.22188 35.2375Q124.06563 36.58125 125.47188 36.58125Q126.62813 36.58125 127.45625 35.58125Q128.3 34.58125 128.3 32.596874Q128.3 30.565624 127.4875 29.6125Q126.69063 28.64375 125.55 28.64375Q124.39375 28.64375 123.55 29.64375Q122.72188 30.64375 122.72188 32.534374ZM139.22188 34.45625L141.03438 34.690624Q140.6125 36.26875 139.44063 37.159374Q138.28438 38.034374 136.47188 38.034374Q134.20625 38.034374 132.8625 36.64375Q131.53438 35.2375 131.53438 32.70625Q131.53438 30.08125 132.87813 28.64375Q134.22188 27.190624 136.37813 27.190624Q138.45625 27.190624 139.76875 28.6125Q141.09688 30.01875 141.09688 32.596874Q141.09688 32.753124 141.08125 33.065624L133.34688 33.065624Q133.44063 34.76875 134.31563 35.675Q135.19063 36.58125 136.4875 36.58125Q137.45625 36.58125 138.12813 36.08125Q138.81563 35.565624 139.22188 34.45625ZM133.44063 31.6125L139.2375 31.6125Q139.12813 30.315624 138.58125 29.659374Q137.7375 28.64375 136.39375 28.64375Q135.19063 28.64375 134.3625 29.45625Q133.53438 30.253124 133.44063 31.6125Z" fill-rule="nonzero"/></svg>